  0
SECTION
  2
HEADER
  9
$ANGBASE
  50
0.0
  9
$ANGDIR
  70
  1
  9
$MEASUREMENT
  70
0
  0
ENDSEC
  0
SECTION
  2
TABLES
  0
TABLE
  2
LTYPE
  70
1
  0
LTYPE
  2
CONTINUOUS
  70
0
  3
Solid line
  72
65
  73
0
  40
0.0
  0
ENDTAB
  0
TABLE
  2
STYLE
  70
4
  0
STYLE
  2
KICAD
  70
0
  40
0
  41
1
  42
1
  50
0
  71
0
  3
isocp.shx
  0
STYLE
  2
KICADB
  70
0
  40
0
  41
1
  42
1
  50
0
  71
0
  3
isocp.shx
  0
STYLE
  2
KICADI
  70
0
  40
0
  41
1
  42
1
  50
15
  71
0
  3
isocp.shx
  0
STYLE
  2
KICADBI
  70
0
  40
0
  41
1
  42
1
  50
15
  71
0
  3
isocp.shx
  0
ENDTAB
  0
TABLE
  2
LAYER
  70
30
  0
LAYER
  2
BLACK
  70
0
  62
7
  6
CONTINUOUS
  0
LAYER
  2
GRAY1
  70
0
  62
251
  6
CONTINUOUS
  0
LAYER
  2
GRAY2
  70
0
  62
8
  6
CONTINUOUS
  0
LAYER
  2
GRAY3
  70
0
  62
9
  6
CONTINUOUS
  0
LAYER
  2
WHITE
  70
0
  62
7
  6
CONTINUOUS
  0
LAYER
  2
LYELLOW
  70
0
  62
51
  6
CONTINUOUS
  0
LAYER
  2
BLUE1
  70
0
  62
178
  6
CONTINUOUS
  0
LAYER
  2
GREEN1
  70
0
  62
98
  6
CONTINUOUS
  0
LAYER
  2
CYAN1
  70
0
  62
138
  6
CONTINUOUS
  0
LAYER
  2
RED1
  70
0
  62
18
  6
CONTINUOUS
  0
LAYER
  2
MAGENTA1
  70
0
  62
228
  6
CONTINUOUS
  0
LAYER
  2
BROWN1
  70
0
  62
58
  6
CONTINUOUS
  0
LAYER
  2
BLUE2
  70
0
  62
5
  6
CONTINUOUS
  0
LAYER
  2
GREEN2
  70
0
  62
3
  6
CONTINUOUS
  0
LAYER
  2
CYAN2
  70
0
  62
4
  6
CONTINUOUS
  0
LAYER
  2
RED2
  70
0
  62
1
  6
CONTINUOUS
  0
LAYER
  2
MAGENTA2
  70
0
  62
6
  6
CONTINUOUS
  0
LAYER
  2
BROWN2
  70
0
  62
54
  6
CONTINUOUS
  0
LAYER
  2
BLUE3
  70
0
  62
171
  6
CONTINUOUS
  0
LAYER
  2
GREEN3
  70
0
  62
91
  6
CONTINUOUS
  0
LAYER
  2
CYAN3
  70
0
  62
131
  6
CONTINUOUS
  0
LAYER
  2
RED3
  70
0
  62
11
  6
CONTINUOUS
  0
LAYER
  2
MAGENTA3
  70
0
  62
221
  6
CONTINUOUS
  0
LAYER
  2
YELLOW3
  70
0
  62
2
  6
CONTINUOUS
  0
LAYER
  2
BLUE4
  70
0
  62
5
  6
CONTINUOUS
  0
LAYER
  2
GREEN4
  70
0
  62
3
  6
CONTINUOUS
  0
LAYER
  2
CYAN4
  70
0
  62
4
  6
CONTINUOUS
  0
LAYER
  2
RED4
  70
0
  62
1
  6
CONTINUOUS
  0
LAYER
  2
MAGENTA4
  70
0
  62
6
  6
CONTINUOUS
  0
LAYER
  2
YELLOW4
  70
0
  62
2
  6
CONTINUOUS
  0
ENDTAB
  0
ENDSEC
  0
SECTION
  2
ENTITIES
0
LINE
8
Black
10
231.81
20
-89.69
11
232.23
21
-89.55
0
LINE
8
Black
10
232.03
20
-89.47
11
231.81
21
-89.58
0
LINE
8
Black
10
232.23
20
-89.55
11
232.03
21
-89.47
0
LINE
8
Black
10
231.9
20
-89.78
11
231.81
21
-89.69
0
LINE
8
Black
10
230.31
20
-90.01
11
230.51
21
-89.96
0
LINE
8
Black
10
230.43
20
-89.4
11
230.35
21
-89.96
0
LINE
8
Black
10
230.5
20
-90
11
230.69
21
-89.38
0
LINE
8
Black
10
230.35
20
-89.96
11
230.43
21
-89.4
0
LINE
8
Black
10
230.18
20
-89.36
11
230.1
21
-89.37
0
LINE
8
Black
10
231.1
20
-88.22
11
231.34
21
-88.56
0
LINE
8
Black
10
231.46
20
-88.92
11
231.4
21
-88.35
0
LINE
8
Black
10
231.4
20
-88.33
11
231.01
21
-87.92
0
LINE
8
Black
10
231.34
20
-88.44
11
231.38
21
-88.95
0
LINE
8
Black
10
230.96
20
-88.02
11
231.34
21
-88.44
0
LINE
8
Black
10
231.32
20
-88.73
11
231.3
21
-88.83
0
LINE
8
Black
10
231.14
20
-88.95
11
230.61
21
-88.91
0
LINE
8
Black
10
230.86
20
-89.04
11
231.26
21
-88.68
0
LINE
8
Black
10
231.17
20
-88.85
11
231.29
21
-88.8
0
LINE
8
Black
10
231.46
20
-88.95
11
231.12
21
-89.17
0
LINE
8
Black
10
231.76
20
-89.89
11
231.9
21
-89.78
0
LINE
8
Black
10
231.41
20
-89.42
11
231.71
21
-89.69
0
LINE
8
Black
10
231.81
20
-89.58
11
231.45
21
-89.42
0
LINE
8
Black
10
231.46
20
-89.42
11
231.89
21
-89.53
0
LINE
8
Black
10
231.71
20
-89.69
11
231.76
21
-89.89
0
LINE
8
Black
10
230.74
20
-89.45
11
231.02
21
-89.27
0
LINE
8
Black
10
230.79
20
-89.4
11
230.95
21
-89.53
0
LINE
8
Black
10
231.1
20
-89.42
11
231.01
21
-89.19
0
LINE
8
Black
10
230.9
20
-89.31
11
230.78
21
-89.4
0
LINE
8
Black
10
230.91
20
-89.52
11
231.08
21
-89.4
0
LINE
8
Black
10
231.76
20
-87.6
11
231.53
21
-87.75
0
LINE
8
Black
10
231.69
20
-87.49
11
231.64
21
-87.28
0
LINE
8
Black
10
231.64
20
-87.28
11
231.8
21
-87.27
0
LINE
8
Black
10
231.4
20
-87.82
11
231.69
21
-87.49
0
LINE
8
Black
10
231.76
20
-87.47
11
232.08
21
-87.44
0
LINE
8
Black
10
231.8
20
-87.27
11
231.76
21
-87.47
0
LINE
8
Black
10
232.08
20
-87.44
11
232.04
21
-87.6
0
LINE
8
Black
10
232.04
20
-87.6
11
231.76
21
-87.6
0
LINE
8
Black
10
230.19
20
-89.31
11
230.78
21
-89.17
0
LINE
8
Black
10
230.28
20
-89.39
11
230.57
21
-89.41
0
LINE
8
Black
10
230.6
20
-89.29
11
230.2
21
-89.28
0
LINE
8
Black
10
230.05
20
-89.51
11
230.16
21
-89.4
0
LINE
8
Black
10
230.01
20
-89.53
11
230.02
21
-90.01
0
LINE
8
Black
10
230.08
20
-90
11
230.31
21
-90.01
0
LINE
8
Black
10
230.22
20
-89.44
11
230.18
21
-89.95
0
LINE
8
Black
10
229.26
20
-89.57
11
228.94
21
-89.85
0
LINE
8
Black
10
229.69
20
-89.56
11
229.94
21
-89.46
0
LINE
8
Black
10
230.05
20
-89.46
11
229.87
21
-89.45
0
LINE
8
Black
10
229.8
20
-89.33
11
229.65
21
-89.47
0
LINE
8
Black
10
229.01
20
-89.93
11
229.12
21
-89.72
0
LINE
8
Black
10
230
20
-89.4
11
229.86
21
-89.25
0
LINE
8
Black
10
229.35
20
-89.22
11
229.89
21
-89.31
0
LINE
8
Black
10
230.58
20
-88.81
11
230.66
21
-89.21
0
LINE
8
Black
10
230.76
20
-89.09
11
230.55
21
-88.77
0
LINE
8
Black
10
230.4
20
-88.65
11
230.26
21
-88.83
0
LINE
8
Black
10
230.85
20
-89.1
11
230.52
21
-88.58
0
LINE
8
Black
10
230.68
20
-88.84
11
230.5
21
-88.69
0
LINE
8
Black
10
230.77
20
-88.25
11
230.88
21
-88.18
0
LINE
8
Black
10
230.17
20
-88.13
11
230.64
21
-88.31
0
LINE
8
Black
10
229.9
20
-88.01
11
230.96
21
-88.02
0
LINE
8
Black
10
230.88
20
-88.05
11
229.93
21
-88.07
0
LINE
8
Black
10
230.97
20
-87.91
11
229.8
21
-87.94
0
LINE
8
Black
10
230.86
20
-88.01
11
230.54
21
-88.18
0
LINE
8
Black
10
230.64
20
-88.31
11
230.1
21
-88.14
0
LINE
8
Black
10
229.93
20
-88.07
11
230.02
21
-88.2
0
LINE
8
Black
10
229.47
20
-88.61
11
229.63
21
-88.24
0
LINE
8
Black
10
230.09
20
-88.14
11
229.62
21
-88.19
0
LINE
8
Black
10
230.1
20
-88.14
11
230.02
21
-88.25
0
LINE
8
Black
10
229.62
20
-88.2
11
229.9
21
-88.01
0
LINE
8
Black
10
229.48
20
-88.17
11
229.79
21
-87.94
0
LINE
8
Black
10
230.19
20
-88.24
11
230.43
21
-88.37
0
LINE
8
Black
10
230.44
20
-88.39
11
230.59
21
-88.19
0
LINE
8
Black
10
229.85
20
-88.06
11
230.31
21
-88.54
0
LINE
8
Black
10
230.48
20
-88.61
11
230.97
21
-88.07
0
LINE
8
Black
10
230.31
20
-88.54
11
230.4
21
-88.65
0
LINE
8
Black
10
229.35
20
-88.66
11
229.62
21
-88.2
0
LINE
8
Black
10
229.74
20
-88.95
11
229.35
21
-88.66
0
LINE
8
Black
10
229.5
20
-88.71
11
229.75
21
-88.87
0
LINE
8
Black
10
229.35
20
-88.6
11
229.52
21
-88.91
0
LINE
8
Black
10
229.52
20
-88.63
11
229.61
21
-88.92
0
LINE
8
Black
10
229.47
20
-88.18
11
229.27
21
-88.62
0
LINE
8
Black
10
229.28
20
-88.6
11
229.34
21
-89.23
0
LINE
8
Black
10
229.51
20
-89.09
11
229.8
21
-89.15
0
LINE
8
Black
10
230.28
20
-88.86
11
230.08
21
-89.28
0
LINE
8
Black
10
229.98
20
-89.12
11
230.25
21
-89.24
0
LINE
8
Black
10
230.13
20
-89.05
11
229.95
21
-88.97
0
LINE
8
Black
10
230
20
-89.05
11
229.81
21
-88.88
0
LINE
8
Black
10
230.2
20
-88.9
11
229.55
21
-88.84
0
LINE
8
Black
10
223.83
20
-87.58
11
223.3
21
-89.26
0
LINE
8
Black
10
223.13
20
-87.89
11
222.97
21
-89.02
0
LINE
8
Black
10
223.256
20
-87.7742
11
222.955
21
-89.3277
0
LINE
8
Black
10
223.55
20
-87.51
11
223.09
21
-89.36
0
LINE
8
Black
10
222.846
20
-89.5126
11
223.1
21
-87.67
0
LINE
8
Black
10
228.49
20
-87.65
11
228.68
21
-87.75
0
LINE
8
Black
10
228.82
20
-87.63
11
228.84
21
-87.44
0
LINE
8
Black
10
228.38
20
-87.75
11
228.49
21
-87.65
0
LINE
8
Black
10
228.69
20
-87.83
11
228.38
21
-87.75
0
LINE
8
Black
10
223.73
20
-88.75
11
223.53
21
-89.18
0
LINE
8
Black
10
223.431
20
-89.2469
11
222.846
21
-89.5126
0
LINE
8
Black
10
222.955
20
-89.3277
11
223.648
21
-89.0605
0
LINE
8
Black
10
222.93
20
-89.41
11
223.54
21
-89.15
0
LINE
8
Black
10
228.66
20
-89.91
11
228.64
21
-90.03
0
LINE
8
Black
10
228.89
20
-90.09
11
228.99
21
-90.12
0
LINE
8
Black
10
228.64
20
-90.03
11
228.87
21
-89.97
0
LINE
8
Black
10
228.87
20
-89.97
11
228.89
21
-90.09
0
LINE
8
Black
10
228.99
20
-90.12
11
229.01
21
-89.93
0
LINE
8
Black
10
228.94
20
-89.85
11
228.66
21
-89.91
0
LINE
8
Black
10
222.852
20
-87.3924
11
224.588
21
-87.4515
0
LINE
8
Black
10
224.588
20
-87.4515
11
223.478
21
-88.7921
0
LINE
8
Black
10
224.33
20
-87.49
11
224.49
21
-87.48
0
LINE
8
Black
10
224.16
20
-87.54
11
223.82
21
-88.33
0
LINE
8
Black
10
223.38
20
-87.55
11
224.33
21
-87.49
0
LINE
8
Black
10
223.3
20
-87.43
11
223.256
21
-87.7742
0
LINE
8
Black
10
229.18
20
-88.07
11
228.71
21
-87.84
0
LINE
8
Black
10
228.96
20
-87.83
11
228.89
21
-87.82
0
LINE
8
Black
10
228.92
20
-87.66
11
229.2
21
-88.04
0
LINE
8
Black
10
228.71
20
-87.84
11
228.92
21
-87.66
0
LINE
8
Black
10
228.68
20
-87.75
11
228.89
21
-87.49
0
LINE
8
Black
10
223.18
20
-87.51
11
223.17
21
-87.67
0
LINE
8
Black
10
223.011
20
-87.4676
11
223.264
21
-87.5988
0
LINE
8
Black
10
223.1
20
-87.67
11
222.852
21
-87.3924
0
LINE
8
Black
10
223.17
20
-87.67
11
223.1
21
-87.47
0
LINE
8
Black
10
223.22
20
-87.55
11
223.13
21
-87.95
0
LINE
8
Black
10
224.04
20
-88.68
11
223.6
21
-89.65
0
LINE
8
Black
10
223.16
20
-90.35
11
223.52
21
-89.23
0
LINE
8
Black
10
223.648
20
-89.0605
11
223.264
21
-90.1212
0
LINE
8
Black
10
223.478
20
-88.7921
11
224.234
21
-88.609
0
LINE
8
Black
10
224.234
20
-88.609
11
223.02
21
-90.73
0
LINE
8
Black
10
222.994
20
-90.7292
11
223.431
21
-89.2469
0
LINE
8
Black
10
215.42
20
-86.75
11
215.53
21
-86.64
0
LINE
8
Black
10
215.37
20
-86.64
11
215.23
21
-86.49
0
LINE
8
Black
10
215.56
20
-86.55
11
216.15
21
-86.41
0
LINE
8
Black
10
215.65
20
-86.63
11
215.94
21
-86.65
0
LINE
8
Black
10
215.87
20
-87.24
11
216.06
21
-86.62
0
LINE
8
Black
10
216.11
20
-86.69
11
216.39
21
-86.51
0
LINE
8
Black
10
216.16
20
-86.64
11
216.32
21
-86.77
0
LINE
8
Black
10
216.27
20
-86.55
11
216.15
21
-86.64
0
LINE
8
Black
10
216.28
20
-86.76
11
216.45
21
-86.64
0
LINE
8
Black
10
217.18
20
-86.93
11
217.6
21
-86.79
0
LINE
8
Black
10
217.18
20
-86.82
11
216.82
21
-86.66
0
LINE
8
Black
10
217.27
20
-87.02
11
217.18
21
-86.93
0
LINE
8
Black
10
217.6
20
-86.79
11
217.4
21
-86.71
0
LINE
8
Black
10
216.83
20
-86.66
11
217.26
21
-86.77
0
LINE
8
Black
10
217.08
20
-86.93
11
217.13
21
-87.13
0
LINE
8
Black
10
217.4
20
-86.71
11
217.18
21
-86.82
0
LINE
8
Black
10
216.47
20
-86.66
11
216.38
21
-86.43
0
LINE
8
Black
10
216.78
20
-86.66
11
217.08
21
-86.93
0
LINE
8
Black
10
217.13
20
-87.13
11
217.27
21
-87.02
0
LINE
8
Black
10
217.13
20
-84.71
11
217.45
21
-84.68
0
LINE
8
Black
10
217.17
20
-84.51
11
217.13
21
-84.71
0
LINE
8
Black
10
217.45
20
-84.68
11
217.41
21
-84.84
0
LINE
8
Black
10
216.77
20
-85.06
11
217.06
21
-84.73
0
LINE
8
Black
10
217.13
20
-84.84
11
216.9
21
-84.99
0
LINE
8
Black
10
217.06
20
-84.73
11
217.01
21
-84.52
0
LINE
8
Black
10
217.01
20
-84.52
11
217.17
21
-84.51
0
LINE
8
Black
10
217.41
20
-84.84
11
217.13
21
-84.84
0
LINE
8
Black
10
216.33
20
-85.26
11
216.71
21
-85.68
0
LINE
8
Black
10
216.83
20
-86.16
11
216.77
21
-85.59
0
LINE
8
Black
10
216.47
20
-85.46
11
216.71
21
-85.8
0
LINE
8
Black
10
216.71
20
-85.68
11
216.75
21
-86.19
0
LINE
8
Black
10
216.77
20
-85.57
11
216.38
21
-85.16
0
LINE
8
Black
10
216.51
20
-86.19
11
215.98
21
-86.15
0
LINE
8
Black
10
216.83
20
-86.19
11
216.49
21
-86.41
0
LINE
8
Black
10
216.69
20
-85.97
11
216.67
21
-86.07
0
LINE
8
Black
10
216.23
20
-86.28
11
216.63
21
-85.92
0
LINE
8
Black
10
216.54
20
-86.09
11
216.66
21
-86.04
0
LINE
8
Black
10
215.54
20
-85.37
11
216.01
21
-85.55
0
LINE
8
Black
10
215.3
20
-85.31
11
215.39
21
-85.44
0
LINE
8
Black
10
216.01
20
-85.55
11
215.47
21
-85.38
0
LINE
8
Black
10
215.56
20
-85.48
11
215.8
21
-85.61
0
LINE
8
Black
10
215.47
20
-85.38
11
215.39
21
-85.49
0
LINE
8
Black
10
215.81
20
-85.63
11
215.96
21
-85.43
0
LINE
8
Black
10
209.1
20
-85.99
11
208.9
21
-86.42
0
LINE
8
Black
10
208.59
20
-84.79
11
208.5
21
-85.19
0
LINE
8
Black
10
208.5
20
-85.13
11
208.34
21
-86.26
0
LINE
8
Black
10
208.92
20
-84.75
11
208.46
21
-86.6
0
LINE
8
Black
10
209.2
20
-84.82
11
208.67
21
-86.5
0
LINE
8
Black
10
208.216
20
-86.7526
11
208.47
21
-84.91
0
LINE
8
Black
10
208.626
20
-85.0142
11
208.325
21
-86.5677
0
LINE
8
Black
10
208.3
20
-86.65
11
208.91
21
-86.39
0
LINE
8
Black
10
208.325
20
-86.5677
11
209.018
21
-86.3005
0
LINE
8
Black
10
208.801
20
-86.4869
11
208.216
21
-86.7526
0
LINE
8
Black
10
208.67
20
-84.67
11
208.626
21
-85.0142
0
LINE
8
Black
10
208.47
20
-84.91
11
208.222
21
-84.6324
0
LINE
8
Black
10
208.222
20
-84.6324
11
209.958
21
-84.6915
0
LINE
8
Black
10
209.53
20
-84.78
11
209.19
21
-85.57
0
LINE
8
Black
10
209.958
20
-84.6915
11
208.848
21
-86.0321
0
LINE
8
Black
10
208.75
20
-84.79
11
209.7
21
-84.73
0
LINE
8
Black
10
209.7
20
-84.73
11
209.86
21
-84.72
0
LINE
8
Black
10
208.848
20
-86.0321
11
209.604
21
-85.849
0
LINE
8
Black
10
208.54
20
-84.91
11
208.47
21
-84.71
0
LINE
8
Black
10
208.381
20
-84.7076
11
208.634
21
-84.8388
0
LINE
8
Black
10
208.55
20
-84.75
11
208.54
21
-84.91
0
LINE
8
Black
10
208.53
20
-87.59
11
208.89
21
-86.47
0
LINE
8
Black
10
208.364
20
-87.9693
11
208.801
21
-86.4869
0
LINE
8
Black
10
209.018
20
-86.3005
11
208.634
21
-87.3612
0
LINE
8
Black
10
209.41
20
-85.92
11
208.97
21
-86.89
0
LINE
8
Black
10
209.604
20
-85.849
11
208.39
21
-87.97
0
LINE
8
Black
10
208.116
20
-92.2126
11
208.37
21
-90.37
0
LINE
8
Black
10
208.49
20
-90.25
11
208.4
21
-90.65
0
LINE
8
Black
10
209.1
20
-90.28
11
208.57
21
-91.96
0
LINE
8
Black
10
208.82
20
-90.21
11
208.36
21
-92.06
0
LINE
8
Black
10
208.526
20
-90.4742
11
208.225
21
-92.0277
0
LINE
8
Black
10
208.4
20
-90.59
11
208.24
21
-91.72
0
LINE
8
Black
10
209.31
20
-91.38
11
208.87
21
-92.35
0
LINE
8
Black
10
208.918
20
-91.7605
11
208.534
21
-92.8212
0
LINE
8
Black
10
208.748
20
-91.4921
11
209.504
21
-91.309
0
LINE
8
Black
10
209.504
20
-91.309
11
208.29
21
-93.43
0
LINE
8
Black
10
208.264
20
-93.4292
11
208.701
21
-91.9469
0
LINE
8
Black
10
208.43
20
-93.05
11
208.79
21
-91.93
0
LINE
8
Black
10
208.45
20
-90.21
11
208.44
21
-90.37
0
LINE
8
Black
10
208.281
20
-90.1676
11
208.534
21
-90.2988
0
LINE
8
Black
10
208.44
20
-90.37
11
208.37
21
-90.17
0
LINE
8
Black
10
208.37
20
-90.37
11
208.122
21
-90.0924
0
LINE
8
Black
10
208.122
20
-90.0924
11
209.858
21
-90.1515
0
LINE
8
Black
10
209.6
20
-90.19
11
209.76
21
-90.18
0
LINE
8
Black
10
208.65
20
-90.25
11
209.6
21
-90.19
0
LINE
8
Black
10
208.57
20
-90.13
11
208.526
21
-90.4742
0
LINE
8
Black
10
209.43
20
-90.24
11
209.09
21
-91.03
0
LINE
8
Black
10
209.858
20
-90.1515
11
208.748
21
-91.4921
0
LINE
8
Black
10
208.701
20
-91.9469
11
208.116
21
-92.2126
0
LINE
8
Black
10
208.2
20
-92.11
11
208.81
21
-91.85
0
LINE
8
Black
10
209
20
-91.45
11
208.8
21
-91.88
0
LINE
8
Black
10
208.225
20
-92.0277
11
208.918
21
-91.7605
0
LINE
8
Black
10
216.18
20
-92.22
11
216.35
21
-92.1
0
LINE
8
Black
10
216.01
20
-92.15
11
216.29
21
-91.97
0
LINE
8
Black
10
216.37
20
-92.12
11
216.28
21
-91.89
0
LINE
8
Black
10
215.77
20
-92.7
11
215.96
21
-92.08
0
LINE
8
Black
10
217.17
20
-92.48
11
217.08
21
-92.39
0
LINE
8
Black
10
216.98
20
-92.39
11
217.03
21
-92.59
0
LINE
8
Black
10
216.68
20
-92.12
11
216.98
21
-92.39
0
LINE
8
Black
10
217.03
20
-92.59
11
217.17
21
-92.48
0
LINE
8
Black
10
217.08
20
-92.28
11
216.72
21
-92.12
0
LINE
8
Black
10
216.73
20
-92.12
11
217.16
21
-92.23
0
LINE
8
Black
10
215.58
20
-92.71
11
215.78
21
-92.66
0
LINE
8
Black
10
215.35
20
-92.7
11
215.58
21
-92.71
0
LINE
8
Black
10
215.7
20
-92.1
11
215.62
21
-92.66
0
LINE
8
Black
10
215.55
20
-92.09
11
215.84
21
-92.11
0
LINE
8
Black
10
215.62
20
-92.66
11
215.7
21
-92.1
0
LINE
8
Black
10
215.87
20
-91.99
11
215.47
21
-91.98
0
LINE
8
Black
10
216.12
20
-91.8
11
215.79
21
-91.28
0
LINE
8
Black
10
215.46
20
-92.01
11
216.05
21
-91.87
0
LINE
8
Black
10
215.67
20
-91.35
11
215.53
21
-91.53
0
LINE
8
Black
10
216.03
20
-91.79
11
215.82
21
-91.47
0
LINE
8
Black
10
215.95
20
-91.54
11
215.77
21
-91.39
0
LINE
8
Black
10
215.85
20
-91.51
11
215.93
21
-91.91
0
LINE
8
Black
10
216.73
20
-91.65
11
216.39
21
-91.87
0
LINE
8
Black
10
216.41
20
-91.65
11
215.88
21
-91.61
0
LINE
8
Black
10
216.44
20
-91.55
11
216.56
21
-91.5
0
LINE
8
Black
10
216.13
20
-91.74
11
216.53
21
-91.38
0
LINE
8
Black
10
216.73
20
-91.62
11
216.67
21
-91.05
0
LINE
8
Black
10
215.17
20
-90.71
11
216.23
21
-90.72
0
LINE
8
Black
10
215.71
20
-91.09
11
215.86
21
-90.89
0
LINE
8
Black
10
215.75
20
-91.31
11
216.24
21
-90.77
0
LINE
8
Black
10
215.58
20
-91.24
11
215.67
21
-91.35
0
LINE
8
Black
10
216.24
20
-90.61
11
215.07
21
-90.64
0
LINE
8
Black
10
216.13
20
-90.71
11
215.81
21
-90.88
0
LINE
8
Black
10
215.49
20
-92.14
11
215.45
21
-92.65
0
LINE
8
Black
10
215.32
20
-92.16
11
215.14
21
-92.15
0
LINE
8
Black
10
215.32
20
-92.21
11
215.43
21
-92.1
0
LINE
8
Black
10
215.28
20
-92.23
11
215.29
21
-92.71
0
LINE
8
Black
10
215.06
20
-86.8
11
215.31
21
-86.7
0
LINE
8
Black
10
215.17
20
-86.57
11
215.02
21
-86.71
0
LINE
8
Black
10
215.42
20
-86.7
11
215.24
21
-86.69
0
LINE
8
Black
10
215.38
20
-86.77
11
215.39
21
-87.25
0
LINE
8
Black
10
214.55
20
-85.31
11
214.08
21
-85.08
0
LINE
8
Black
10
214.33
20
-85.07
11
214.26
21
-85.06
0
LINE
8
Black
10
214.29
20
-84.9
11
214.57
21
-85.28
0
LINE
8
Black
10
214.08
20
-85.08
11
214.29
21
-84.9
0
LINE
8
Black
10
214.05
20
-84.99
11
214.26
21
-84.73
0
LINE
8
Black
10
213.86
20
-84.89
11
214.05
21
-84.99
0
LINE
8
Black
10
214.06
20
-85.07
11
213.75
21
-84.99
0
LINE
8
Black
10
213.75
20
-84.99
11
213.86
21
-84.89
0
LINE
8
Black
10
214.19
20
-84.87
11
214.21
21
-84.68
0
LINE
8
Black
10
214.31
20
-87.09
11
214.03
21
-87.15
0
LINE
8
Black
10
214.38
20
-87.17
11
214.49
21
-86.96
0
LINE
8
Black
10
214.36
20
-87.36
11
214.38
21
-87.17
0
LINE
8
Black
10
214.63
20
-86.81
11
214.31
21
-87.09
0
LINE
8
Black
10
214.03
20
-87.15
11
214.01
21
-87.27
0
LINE
8
Black
10
214.24
20
-87.21
11
214.26
21
-87.33
0
LINE
8
Black
10
214.26
20
-87.33
11
214.36
21
-87.36
0
LINE
8
Black
10
214.01
20
-87.27
11
214.24
21
-87.21
0
LINE
8
Black
10
215.11
20
-86.19
11
214.72
21
-85.9
0
LINE
8
Black
10
214.72
20
-86.46
11
215.26
21
-86.55
0
LINE
8
Black
10
214.65
20
-85.84
11
214.71
21
-86.47
0
LINE
8
Black
10
215.57
20
-86.14
11
214.92
21
-86.08
0
LINE
8
Black
10
214.88
20
-86.33
11
215.17
21
-86.39
0
LINE
8
Black
10
215.72
20
-87.2
11
215.8
21
-86.64
0
LINE
8
Black
10
215.59
20
-86.68
11
215.55
21
-87.19
0
LINE
8
Black
10
215.8
20
-86.64
11
215.72
21
-87.2
0
LINE
8
Black
10
215.45
20
-87.24
11
215.68
21
-87.25
0
LINE
8
Black
10
215.55
20
-86.6
11
215.47
21
-86.61
0
LINE
8
Black
10
215.68
20
-87.25
11
215.88
21
-87.2
0
LINE
8
Black
10
214.62
20
-91.3
11
214.79
21
-91.61
0
LINE
8
Black
10
214.74
20
-91.31
11
214.9
21
-90.94
0
LINE
8
Black
10
214.62
20
-91.36
11
214.89
21
-90.9
0
LINE
8
Black
10
214.74
20
-90.88
11
214.54
21
-91.32
0
LINE
8
Black
10
214.79
20
-91.33
11
214.88
21
-91.62
0
LINE
8
Black
10
214.09
20
-90.33
11
214.11
21
-90.14
0
LINE
8
Black
10
213.76
20
-90.35
11
213.95
21
-90.45
0
LINE
8
Black
10
213.65
20
-90.45
11
213.76
21
-90.35
0
LINE
8
Black
10
213.96
20
-90.53
11
213.65
21
-90.45
0
LINE
8
Black
10
215.25
20
-91.82
11
215.52
21
-91.94
0
LINE
8
Black
10
215.4
20
-91.75
11
215.22
21
-91.67
0
LINE
8
Black
10
215.55
20
-91.56
11
215.35
21
-91.98
0
LINE
8
Black
10
215.47
20
-91.6
11
214.82
21
-91.54
0
LINE
8
Black
10
215.27
20
-91.75
11
215.08
21
-91.58
0
LINE
8
Black
10
214.62
20
-91.92
11
215.16
21
-92.01
0
LINE
8
Black
10
214.77
20
-91.41
11
215.02
21
-91.57
0
LINE
8
Black
10
214.55
20
-91.3
11
214.61
21
-91.93
0
LINE
8
Black
10
214.78
20
-91.79
11
215.07
21
-91.85
0
LINE
8
Black
10
215.01
20
-91.65
11
214.62
21
-91.36
0
LINE
8
Black
10
214.96
20
-92.26
11
215.21
21
-92.16
0
LINE
8
Black
10
215.07
20
-92.03
11
214.92
21
-92.17
0
LINE
8
Black
10
215.27
20
-92.1
11
215.13
21
-91.95
0
LINE
8
Black
10
215.45
20
-92.06
11
215.37
21
-92.07
0
LINE
8
Black
10
214.45
20
-90.77
11
213.98
21
-90.54
0
LINE
8
Black
10
214.23
20
-90.53
11
214.16
21
-90.52
0
LINE
8
Black
10
214.19
20
-90.36
11
214.47
21
-90.74
0
LINE
8
Black
10
213.98
20
-90.54
11
214.19
21
-90.36
0
LINE
8
Black
10
213.95
20
-90.45
11
214.16
21
-90.19
0
LINE
8
Black
10
214.21
20
-92.55
11
213.93
21
-92.61
0
LINE
8
Black
10
213.91
20
-92.73
11
214.14
21
-92.67
0
LINE
8
Black
10
214.16
20
-92.79
11
214.26
21
-92.82
0
LINE
8
Black
10
214.26
20
-92.82
11
214.28
21
-92.63
0
LINE
8
Black
10
214.28
20
-92.63
11
214.39
21
-92.42
0
LINE
8
Black
10
214.53
20
-92.27
11
214.21
21
-92.55
0
LINE
8
Black
10
214.14
20
-92.67
11
214.16
21
-92.79
0
LINE
8
Black
10
213.93
20
-92.61
11
213.91
21
-92.73
0
LINE
8
Black
10
217.5
20
-92.25
11
217.3
21
-92.17
0
LINE
8
Black
10
217.08
20
-92.39
11
217.5
21
-92.25
0
LINE
8
Black
10
217.3
20
-92.17
11
217.08
21
-92.28
0
LINE
8
Black
10
216.17
20
-92.01
11
216.05
21
-92.1
0
LINE
8
Black
10
216.06
20
-92.1
11
216.22
21
-92.23
0
LINE
8
Black
10
216.67
20
-91.03
11
216.28
21
-90.62
0
LINE
8
Black
10
216.59
20
-91.43
11
216.57
21
-91.53
0
LINE
8
Black
10
216.23
20
-90.72
11
216.61
21
-91.14
0
LINE
8
Black
10
216.61
20
-91.14
11
216.65
21
-91.65
0
LINE
8
Black
10
216.37
20
-90.92
11
216.61
21
-91.26
0
LINE
8
Black
10
215.37
20
-90.84
11
215.29
21
-90.95
0
LINE
8
Black
10
215.36
20
-90.84
11
214.89
21
-90.89
0
LINE
8
Black
10
214.75
20
-90.87
11
215.06
21
-90.64
0
LINE
8
Black
10
215.12
20
-90.76
11
215.58
21
-91.24
0
LINE
8
Black
10
215.2
20
-90.77
11
215.29
21
-90.9
0
LINE
8
Black
10
214.89
20
-90.9
11
215.17
21
-90.71
0
LINE
8
Black
10
217.03
20
-90.17
11
217.35
21
-90.14
0
LINE
8
Black
10
217.03
20
-90.3
11
216.8
21
-90.45
0
LINE
8
Black
10
216.67
20
-90.52
11
216.96
21
-90.19
0
LINE
8
Black
10
216.91
20
-89.98
11
217.07
21
-89.97
0
LINE
8
Black
10
217.35
20
-90.14
11
217.31
21
-90.3
0
LINE
8
Black
10
216.96
20
-90.19
11
216.91
21
-89.98
0
LINE
8
Black
10
217.31
20
-90.3
11
217.03
21
-90.3
0
LINE
8
Black
10
217.07
20
-89.97
11
217.03
21
-90.17
0
LINE
8
Black
10
216.04
20
-90.95
11
216.15
21
-90.88
0
LINE
8
Black
10
216.15
20
-90.75
11
215.2
21
-90.77
0
LINE
8
Black
10
215.44
20
-90.83
11
215.91
21
-91.01
0
LINE
8
Black
10
215.91
20
-91.01
11
215.37
21
-90.84
0
LINE
8
Black
10
215.46
20
-90.94
11
215.7
21
-91.07
0
LINE
8
Black
10
214.72
20
-85.84
11
214.89
21
-86.15
0
LINE
8
Black
10
214.87
20
-85.95
11
215.12
21
-86.11
0
LINE
8
Black
10
214.89
20
-85.87
11
214.98
21
-86.16
0
LINE
8
Black
10
214.72
20
-85.9
11
214.99
21
-85.44
0
LINE
8
Black
10
214.84
20
-85.42
11
214.64
21
-85.86
0
LINE
8
Black
10
216.13
20
-86.33
11
215.92
21
-86.01
0
LINE
8
Black
10
215.97
20
-86.53
11
215.57
21
-86.52
0
LINE
8
Black
10
216.05
20
-86.08
11
215.87
21
-85.93
0
LINE
8
Black
10
216.22
20
-86.34
11
215.89
21
-85.82
0
LINE
8
Black
10
215.95
20
-86.05
11
216.03
21
-86.45
0
LINE
8
Black
10
215.35
20
-86.36
11
215.62
21
-86.48
0
LINE
8
Black
10
215.65
20
-86.1
11
215.45
21
-86.52
0
LINE
8
Black
10
215.5
20
-86.29
11
215.32
21
-86.21
0
LINE
8
Black
10
215.37
20
-86.29
11
215.18
21
-86.12
0
LINE
8
Black
10
214.85
20
-85.41
11
215.16
21
-85.18
0
LINE
8
Black
10
214.99
20
-85.44
11
215.27
21
-85.25
0
LINE
8
Black
10
215.46
20
-85.38
11
214.99
21
-85.43
0
LINE
8
Black
10
214.84
20
-85.85
11
215
21
-85.48
0
LINE
8
Black
10
215.68
20
-85.78
11
215.77
21
-85.89
0
LINE
8
Black
10
215.77
20
-85.89
11
215.63
21
-86.07
0
LINE
8
Black
10
216.25
20
-85.29
11
215.3
21
-85.31
0
LINE
8
Black
10
215.22
20
-85.3
11
215.68
21
-85.78
0
LINE
8
Black
10
216.23
20
-85.25
11
215.91
21
-85.42
0
LINE
8
Black
10
216.14
20
-85.49
11
216.25
21
-85.42
0
LINE
8
Black
10
215.27
20
-85.25
11
216.33
21
-85.26
0
LINE
8
Black
10
215.85
20
-85.85
11
216.34
21
-85.31
0
LINE
8
Black
10
216.34
20
-85.15
11
215.17
21
-85.18
0
LINE
8
Black
10
217.446
20
-77.6026
11
217.7
21
-75.76
0
LINE
8
Black
10
218.43
20
-75.67
11
217.9
21
-77.35
0
LINE
8
Black
10
217.82
20
-75.64
11
217.73
21
-76.04
0
LINE
8
Black
10
218.15
20
-75.6
11
217.69
21
-77.45
0
LINE
8
Black
10
217.73
20
-75.98
11
217.57
21
-77.11
0
LINE
8
Black
10
217.856
20
-75.8642
11
217.555
21
-77.4177
0
LINE
8
Black
10
218.64
20
-76.77
11
218.2
21
-77.74
0
LINE
8
Black
10
217.76
20
-78.44
11
218.12
21
-77.32
0
LINE
8
Black
10
217.594
20
-78.8192
11
218.031
21
-77.3369
0
LINE
8
Black
10
218.834
20
-76.699
11
217.62
21
-78.82
0
LINE
8
Black
10
218.078
20
-76.8821
11
218.834
21
-76.699
0
LINE
8
Black
10
218.248
20
-77.1505
11
217.864
21
-78.2112
0
LINE
8
Black
10
218.031
20
-77.3369
11
217.446
21
-77.6026
0
LINE
8
Black
10
217.555
20
-77.4177
11
218.248
21
-77.1505
0
LINE
8
Black
10
217.53
20
-77.5
11
218.14
21
-77.24
0
LINE
8
Black
10
218.33
20
-76.84
11
218.13
21
-77.27
0
LINE
8
Black
10
217.7
20
-75.76
11
217.452
21
-75.4824
0
LINE
8
Black
10
217.452
20
-75.4824
11
219.188
21
-75.5415
0
LINE
8
Black
10
218.93
20
-75.58
11
219.09
21
-75.57
0
LINE
8
Black
10
217.98
20
-75.64
11
218.93
21
-75.58
0
LINE
8
Black
10
217.9
20
-75.52
11
217.856
21
-75.8642
0
LINE
8
Black
10
218.76
20
-75.63
11
218.42
21
-76.42
0
LINE
8
Black
10
219.188
20
-75.5415
11
218.078
21
-76.8821
0
LINE
8
Black
10
217.78
20
-75.6
11
217.77
21
-75.76
0
LINE
8
Black
10
217.611
20
-75.5576
11
217.864
21
-75.6888
0
LINE
8
Black
10
217.77
20
-75.76
11
217.7
21
-75.56
0
LINE
8
Black
10
226.83
20
-77.64
11
226.63
21
-77.56
0
LINE
8
Black
10
226.5
20
-77.87
11
226.41
21
-77.78
0
LINE
8
Black
10
226.41
20
-77.78
11
226.83
21
-77.64
0
LINE
8
Black
10
226.63
20
-77.56
11
226.41
21
-77.67
0
LINE
8
Black
10
226.31
20
-77.78
11
226.36
21
-77.98
0
LINE
8
Black
10
226.36
20
-77.98
11
226.5
21
-77.87
0
LINE
8
Black
10
226.06
20
-77.51
11
226.49
21
-77.62
0
LINE
8
Black
10
226.01
20
-77.51
11
226.31
21
-77.78
0
LINE
8
Black
10
226.41
20
-77.67
11
226.05
21
-77.51
0
LINE
8
Black
10
225.51
20
-77.61
11
225.68
21
-77.49
0
LINE
8
Black
10
225.39
20
-77.49
11
225.55
21
-77.62
0
LINE
8
Black
10
225.34
20
-77.54
11
225.62
21
-77.36
0
LINE
8
Black
10
225.7
20
-77.51
11
225.61
21
-77.28
0
LINE
8
Black
10
225.5
20
-77.4
11
225.38
21
-77.49
0
LINE
8
Black
10
224.91
20
-78.1
11
225.11
21
-78.05
0
LINE
8
Black
10
224.79
20
-77.4
11
225.38
21
-77.26
0
LINE
8
Black
10
224.78
20
-77.45
11
224.7
21
-77.46
0
LINE
8
Black
10
224.88
20
-77.48
11
225.17
21
-77.5
0
LINE
8
Black
10
225.1
20
-78.09
11
225.29
21
-77.47
0
LINE
8
Black
10
225.2
20
-77.38
11
224.8
21
-77.37
0
LINE
8
Black
10
226.06
20
-77.04
11
225.72
21
-77.26
0
LINE
8
Black
10
225.46
20
-77.13
11
225.86
21
-76.77
0
LINE
8
Black
10
225.92
20
-76.82
11
225.9
21
-76.92
0
LINE
8
Black
10
226.06
20
-77.01
11
226
21
-76.44
0
LINE
8
Black
10
225.74
20
-77.04
11
225.21
21
-77
0
LINE
8
Black
10
225.77
20
-76.94
11
225.89
21
-76.89
0
LINE
8
Black
10
225.94
20
-76.53
11
225.98
21
-77.04
0
LINE
8
Black
10
225.18
20
-76.9
11
225.26
21
-77.3
0
LINE
8
Black
10
224.91
20
-76.63
11
225
21
-76.74
0
LINE
8
Black
10
224.58
20
-77.21
11
224.85
21
-77.33
0
LINE
8
Black
10
224.88
20
-76.95
11
224.68
21
-77.37
0
LINE
8
Black
10
225.45
20
-77.19
11
225.12
21
-76.67
0
LINE
8
Black
10
225
20
-76.74
11
224.86
21
-76.92
0
LINE
8
Black
10
225.36
20
-77.18
11
225.15
21
-76.86
0
LINE
8
Black
10
225.28
20
-76.93
11
225.1
21
-76.78
0
LINE
8
Black
10
224.79
20
-76.33
11
225.03
21
-76.46
0
LINE
8
Black
10
224.5
20
-76.1
11
225.56
21
-76.11
0
LINE
8
Black
10
225.24
20
-76.4
11
224.7
21
-76.23
0
LINE
8
Black
10
224.7
20
-76.23
11
224.62
21
-76.34
0
LINE
8
Black
10
225.57
20
-76
11
224.4
21
-76.03
0
LINE
8
Black
10
224.53
20
-76.16
11
224.62
21
-76.29
0
LINE
8
Black
10
224.45
20
-76.15
11
224.91
21
-76.63
0
LINE
8
Black
10
225.48
20
-76.14
11
224.53
21
-76.16
0
LINE
8
Black
10
224.77
20
-76.22
11
225.24
21
-76.4
0
LINE
8
Black
10
223.42
20
-75.72
11
223.44
21
-75.53
0
LINE
8
Black
10
223.29
20
-75.92
11
222.98
21
-75.84
0
LINE
8
Black
10
222.98
20
-75.84
11
223.09
21
-75.74
0
LINE
8
Black
10
223.09
20
-75.74
11
223.28
21
-75.84
0
LINE
8
Black
10
226
20
-76.42
11
225.61
21
-76.01
0
LINE
8
Black
10
225.56
20
-76.11
11
225.94
21
-76.53
0
LINE
8
Black
10
225.7
20
-76.31
11
225.94
21
-76.65
0
LINE
8
Black
10
225.37
20
-76.34
11
225.48
21
-76.27
0
LINE
8
Black
10
225.04
20
-76.48
11
225.19
21
-76.28
0
LINE
8
Black
10
225.08
20
-76.7
11
225.57
21
-76.16
0
LINE
8
Black
10
225.46
20
-76.1
11
225.14
21
-76.27
0
LINE
8
Black
10
223.78
20
-76.16
11
223.31
21
-75.93
0
LINE
8
Black
10
223.31
20
-75.93
11
223.52
21
-75.75
0
LINE
8
Black
10
223.56
20
-75.92
11
223.49
21
-75.91
0
LINE
8
Black
10
223.52
20
-75.75
11
223.8
21
-76.13
0
LINE
8
Black
10
223.28
20
-75.84
11
223.49
21
-75.58
0
LINE
8
Black
10
223.95
20
-76.75
11
224.22
21
-76.29
0
LINE
8
Black
10
224.08
20
-76.26
11
224.39
21
-76.03
0
LINE
8
Black
10
224.22
20
-76.29
11
224.5
21
-76.1
0
LINE
8
Black
10
224.07
20
-76.27
11
223.87
21
-76.71
0
LINE
8
Black
10
224.69
20
-76.23
11
224.22
21
-76.28
0
LINE
8
Black
10
226.24
20
-75.37
11
226.4
21
-75.36
0
LINE
8
Black
10
226.4
20
-75.36
11
226.36
21
-75.56
0
LINE
8
Black
10
226.29
20
-75.58
11
226.24
21
-75.37
0
LINE
8
Black
10
226.36
20
-75.69
11
226.13
21
-75.84
0
LINE
8
Black
10
226
20
-75.91
11
226.29
21
-75.58
0
LINE
8
Black
10
226.68
20
-75.53
11
226.64
21
-75.69
0
LINE
8
Black
10
226.36
20
-75.56
11
226.68
21
-75.53
0
LINE
8
Black
10
226.64
20
-75.69
11
226.36
21
-75.69
0
LINE
8
Black
10
223.95
20
-77.31
11
224.49
21
-77.4
0
LINE
8
Black
10
224.07
20
-76.7
11
224.23
21
-76.33
0
LINE
8
Black
10
224.11
20
-77.18
11
224.4
21
-77.24
0
LINE
8
Black
10
224.1
20
-76.8
11
224.35
21
-76.96
0
LINE
8
Black
10
224.34
20
-77.04
11
223.95
21
-76.75
0
LINE
8
Black
10
224.12
20
-76.72
11
224.21
21
-77.01
0
LINE
8
Black
10
223.88
20
-76.69
11
223.94
21
-77.32
0
LINE
8
Black
10
223.95
20
-76.69
11
224.12
21
-77
0
LINE
8
Black
10
223.54
20
-77.94
11
223.26
21
-78
0
LINE
8
Black
10
223.47
20
-78.06
11
223.49
21
-78.18
0
LINE
8
Black
10
223.86
20
-77.66
11
223.54
21
-77.94
0
LINE
8
Black
10
223.59
20
-78.21
11
223.61
21
-78.02
0
LINE
8
Black
10
223.24
20
-78.12
11
223.47
21
-78.06
0
LINE
8
Black
10
223.61
20
-78.02
11
223.72
21
-77.81
0
LINE
8
Black
10
223.49
20
-78.18
11
223.59
21
-78.21
0
LINE
8
Black
10
223.26
20
-78
11
223.24
21
-78.12
0
LINE
8
Black
10
224.4
20
-77.42
11
224.25
21
-77.56
0
LINE
8
Black
10
224.29
20
-77.65
11
224.54
21
-77.55
0
LINE
8
Black
10
224.65
20
-77.55
11
224.47
21
-77.54
0
LINE
8
Black
10
224.6
20
-77.14
11
224.41
21
-76.97
0
LINE
8
Black
10
224.8
20
-76.99
11
224.15
21
-76.93
0
LINE
8
Black
10
224.73
20
-77.14
11
224.55
21
-77.06
0
LINE
8
Black
10
224.6
20
-77.49
11
224.46
21
-77.34
0
LINE
8
Black
10
225.03
20
-77.49
11
224.95
21
-78.05
0
LINE
8
Black
10
224.95
20
-78.05
11
225.03
21
-77.49
0
LINE
8
Black
10
224.82
20
-77.53
11
224.78
21
-78.04
0
LINE
8
Black
10
224.68
20
-78.09
11
224.91
21
-78.1
0
LINE
8
Black
10
224.61
20
-77.62
11
224.62
21
-78.1
0
LINE
8
Black
10
224.65
20
-77.6
11
224.76
21
-77.49
0
LINE
8
Black
10
210.18
20
-79.33
11
210.27
21
-79.44
0
LINE
8
Black
10
210.31
20
-79.18
11
210.46
21
-78.98
0
LINE
8
Black
10
210.04
20
-78.92
11
210.51
21
-79.1
0
LINE
8
Black
10
210.73
20
-78.8
11
210.41
21
-78.97
0
LINE
8
Black
10
210.64
20
-79.04
11
210.75
21
-78.97
0
LINE
8
Black
10
209.77
20
-78.8
11
210.83
21
-78.81
0
LINE
8
Black
10
210.35
20
-79.4
11
210.84
21
-78.86
0
LINE
8
Black
10
209.22
20
-79.39
11
209.39
21
-79.7
0
LINE
8
Black
10
209.22
20
-80.01
11
209.76
21
-80.1
0
LINE
8
Black
10
209.37
20
-79.5
11
209.62
21
-79.66
0
LINE
8
Black
10
209.15
20
-79.39
11
209.21
21
-80.02
0
LINE
8
Black
10
209.38
20
-79.88
11
209.67
21
-79.94
0
LINE
8
Black
10
209.61
20
-79.74
11
209.22
21
-79.45
0
LINE
8
Black
10
209.39
20
-79.42
11
209.48
21
-79.71
0
LINE
8
Black
10
210.06
20
-79.03
11
210.3
21
-79.16
0
LINE
8
Black
10
209.72
20
-78.85
11
210.18
21
-79.33
0
LINE
8
Black
10
210.75
20
-78.84
11
209.8
21
-78.86
0
LINE
8
Black
10
210.51
20
-79.1
11
209.97
21
-78.93
0
LINE
8
Black
10
210.84
20
-78.7
11
209.67
21
-78.73
0
LINE
8
Black
10
210.15
20
-80.18
11
210.44
21
-80.2
0
LINE
8
Black
10
210.77
20
-80.1
11
210.65
21
-80.19
0
LINE
8
Black
10
210.66
20
-80.19
11
210.82
21
-80.32
0
LINE
8
Black
10
210.47
20
-80.08
11
210.07
21
-80.07
0
LINE
8
Black
10
210.06
20
-80.1
11
210.65
21
-79.96
0
LINE
8
Black
10
209.85
20
-79.91
11
210.12
21
-80.03
0
LINE
8
Black
10
209.87
20
-79.84
11
209.68
21
-79.67
0
LINE
8
Black
10
210.07
20
-79.69
11
209.42
21
-79.63
0
LINE
8
Black
10
210
20
-79.84
11
209.82
21
-79.76
0
LINE
8
Black
10
210.15
20
-79.65
11
209.95
21
-80.07
0
LINE
8
Black
10
210.63
20
-79.88
11
210.42
21
-79.56
0
LINE
8
Black
10
210.27
20
-79.44
11
210.13
21
-79.62
0
LINE
8
Black
10
210.55
20
-79.63
11
210.37
21
-79.48
0
LINE
8
Black
10
210.72
20
-79.89
11
210.39
21
-79.37
0
LINE
8
Black
10
210.45
20
-79.6
11
210.53
21
-80
0
LINE
8
Black
10
210.05
20
-80.15
11
209.97
21
-80.16
0
LINE
8
Black
10
209.67
20
-80.12
11
209.52
21
-80.26
0
LINE
8
Black
10
209.92
20
-80.25
11
209.74
21
-80.24
0
LINE
8
Black
10
209.87
20
-80.19
11
209.73
21
-80.04
0
LINE
8
Black
10
209.92
20
-80.3
11
210.03
21
-80.19
0
LINE
8
Black
10
209.56
20
-80.35
11
209.81
21
-80.25
0
LINE
8
Black
10
209.35
20
-78.96
11
209.66
21
-78.73
0
LINE
8
Black
10
209.34
20
-79.4
11
209.5
21
-79.03
0
LINE
8
Black
10
209.8
20
-78.86
11
209.89
21
-78.99
0
LINE
8
Black
10
209.97
20
-78.93
11
209.89
21
-79.04
0
LINE
8
Black
10
209.22
20
-79.45
11
209.49
21
-78.99
0
LINE
8
Black
10
209.96
20
-78.93
11
209.49
21
-78.98
0
LINE
8
Black
10
209.34
20
-78.97
11
209.14
21
-79.41
0
LINE
8
Black
10
209.49
20
-78.99
11
209.77
21
-78.8
0
LINE
8
Black
10
203.6
20
-79.54
11
203.4
21
-79.97
0
LINE
8
Black
10
203.09
20
-78.34
11
203
21
-78.74
0
LINE
8
Black
10
203
20
-78.68
11
202.84
21
-79.81
0
LINE
8
Black
10
203.7
20
-78.37
11
203.17
21
-80.05
0
LINE
8
Black
10
203.42
20
-78.3
11
202.96
21
-80.15
0
LINE
8
Black
10
202.716
20
-80.3026
11
202.97
21
-78.46
0
LINE
8
Black
10
202.8
20
-80.2
11
203.41
21
-79.94
0
LINE
8
Black
10
202.825
20
-80.1177
11
203.518
21
-79.8505
0
LINE
8
Black
10
203.301
20
-80.0369
11
202.716
21
-80.3026
0
LINE
8
Black
10
203.126
20
-78.5642
11
202.825
21
-80.1177
0
LINE
8
Black
10
208.36
20
-78.44
11
208.55
21
-78.54
0
LINE
8
Black
10
208.56
20
-78.62
11
208.25
21
-78.54
0
LINE
8
Black
10
208.25
20
-78.54
11
208.36
21
-78.44
0
LINE
8
Black
10
208.69
20
-78.42
11
208.71
21
-78.23
0
LINE
8
Black
10
203.05
20
-78.3
11
203.04
21
-78.46
0
LINE
8
Black
10
203.04
20
-78.46
11
202.97
21
-78.26
0
LINE
8
Black
10
202.881
20
-78.2576
11
203.134
21
-78.3888
0
LINE
8
Black
10
203.17
20
-78.22
11
203.126
21
-78.5642
0
LINE
8
Black
10
202.722
20
-78.1824
11
204.458
21
-78.2415
0
LINE
8
Black
10
204.458
20
-78.2415
11
203.348
21
-79.5821
0
LINE
8
Black
10
203.348
20
-79.5821
11
204.104
21
-79.399
0
LINE
8
Black
10
203.25
20
-78.34
11
204.2
21
-78.28
0
LINE
8
Black
10
204.03
20
-78.33
11
203.69
21
-79.12
0
LINE
8
Black
10
202.97
20
-78.46
11
202.722
21
-78.1824
0
LINE
8
Black
10
204.2
20
-78.28
11
204.36
21
-78.27
0
LINE
8
Black
10
202.864
20
-81.5192
11
203.301
21
-80.0369
0
LINE
8
Black
10
203.03
20
-81.14
11
203.39
21
-80.02
0
LINE
8
Black
10
203.518
20
-79.8505
11
203.134
21
-80.9112
0
LINE
8
Black
10
204.104
20
-79.399
11
202.89
21
-81.52
0
LINE
8
Black
10
203.91
20
-79.47
11
203.47
21
-80.44
0
LINE
8
Black
10
209.05
20
-78.86
11
208.58
21
-78.63
0
LINE
8
Black
10
208.83
20
-78.62
11
208.76
21
-78.61
0
LINE
8
Black
10
208.79
20
-78.45
11
209.07
21
-78.83
0
LINE
8
Black
10
208.58
20
-78.63
11
208.79
21
-78.45
0
LINE
8
Black
10
208.55
20
-78.54
11
208.76
21
-78.28
0
LINE
8
Black
10
208.81
20
-80.64
11
208.53
21
-80.7
0
LINE
8
Black
10
208.53
20
-80.7
11
208.51
21
-80.82
0
LINE
8
Black
10
208.74
20
-80.76
11
208.76
21
-80.88
0
LINE
8
Black
10
209.13
20
-80.36
11
208.81
21
-80.64
0
LINE
8
Black
10
208.86
20
-80.91
11
208.88
21
-80.72
0
LINE
8
Black
10
208.51
20
-80.82
11
208.74
21
-80.76
0
LINE
8
Black
10
208.88
20
-80.72
11
208.99
21
-80.51
0
LINE
8
Black
10
208.76
20
-80.88
11
208.86
21
-80.91
0
LINE
8
Black
10
210.61
20
-80.24
11
210.89
21
-80.06
0
LINE
8
Black
10
210.78
20
-80.31
11
210.95
21
-80.19
0
LINE
8
Black
10
210.97
20
-80.21
11
210.88
21
-79.98
0
LINE
8
Black
10
211.01
20
-79.74
11
210.48
21
-79.7
0
LINE
8
Black
10
211.33
20
-79.74
11
210.99
21
-79.96
0
LINE
8
Black
10
211.04
20
-79.64
11
211.16
21
-79.59
0
LINE
8
Black
10
211.19
20
-79.52
11
211.17
21
-79.62
0
LINE
8
Black
10
211.21
20
-79.23
11
211.25
21
-79.74
0
LINE
8
Black
10
210.73
20
-79.83
11
211.13
21
-79.47
0
LINE
8
Black
10
211.77
20
-80.57
11
211.68
21
-80.48
0
LINE
8
Black
10
211.68
20
-80.48
11
212.1
21
-80.34
0
LINE
8
Black
10
211.9
20
-80.26
11
211.68
21
-80.37
0
LINE
8
Black
10
212.1
20
-80.34
11
211.9
21
-80.26
0
LINE
8
Black
10
211.63
20
-78.26
11
211.95
21
-78.23
0
LINE
8
Black
10
211.91
20
-78.39
11
211.63
21
-78.39
0
LINE
8
Black
10
211.95
20
-78.23
11
211.91
21
-78.39
0
LINE
8
Black
10
211.63
20
-78.39
11
211.4
21
-78.54
0
LINE
8
Black
10
211.67
20
-78.06
11
211.63
21
-78.26
0
LINE
8
Black
10
211.51
20
-78.07
11
211.67
21
-78.06
0
LINE
8
Black
10
211.27
20
-78.61
11
211.56
21
-78.28
0
LINE
8
Black
10
211.56
20
-78.28
11
211.51
21
-78.07
0
LINE
8
Black
10
210.22
20
-80.75
11
210.3
21
-80.19
0
LINE
8
Black
10
210.18
20
-80.8
11
210.38
21
-80.75
0
LINE
8
Black
10
209.95
20
-80.79
11
210.18
21
-80.8
0
LINE
8
Black
10
210.09
20
-80.23
11
210.05
21
-80.74
0
LINE
8
Black
10
210.37
20
-80.79
11
210.56
21
-80.17
0
LINE
8
Black
10
210.3
20
-80.19
11
210.22
21
-80.75
0
LINE
8
Black
10
209.88
20
-80.32
11
209.89
21
-80.8
0
LINE
8
Black
10
211.58
20
-80.48
11
211.63
21
-80.68
0
LINE
8
Black
10
211.63
20
-80.68
11
211.77
21
-80.57
0
LINE
8
Black
10
211.28
20
-80.21
11
211.58
21
-80.48
0
LINE
8
Black
10
211.33
20
-80.21
11
211.76
21
-80.32
0
LINE
8
Black
10
211.68
20
-80.37
11
211.32
21
-80.21
0
LINE
8
Black
10
210.83
20
-78.81
11
211.21
21
-79.23
0
LINE
8
Black
10
211.27
20
-79.12
11
210.88
21
-78.71
0
LINE
8
Black
10
210.97
20
-79.01
11
211.21
21
-79.35
0
LINE
8
Black
10
211.33
20
-79.71
11
211.27
21
-79.14
0
LINE
8
Black
10
203.14
20
-73
11
203.07
21
-72.8
0
LINE
8
Black
10
203.15
20
-72.84
11
203.14
21
-73
0
LINE
8
Black
10
203.07
20
-73
11
202.822
21
-72.7224
0
LINE
8
Black
10
202.981
20
-72.7976
11
203.234
21
-72.9288
0
LINE
8
Black
10
203.27
20
-72.76
11
203.226
21
-73.1042
0
LINE
8
Black
10
202.822
20
-72.7224
11
204.558
21
-72.7815
0
LINE
8
Black
10
203.401
20
-74.5769
11
202.816
21
-74.8426
0
LINE
8
Black
10
202.816
20
-74.8426
11
203.07
21
-73
0
LINE
8
Black
10
203.7
20
-74.08
11
203.5
21
-74.51
0
LINE
8
Black
10
202.925
20
-74.6577
11
203.618
21
-74.3905
0
LINE
8
Black
10
202.9
20
-74.74
11
203.51
21
-74.48
0
LINE
8
Black
10
203.226
20
-73.1042
11
202.925
21
-74.6577
0
LINE
8
Black
10
203.1
20
-73.22
11
202.94
21
-74.35
0
LINE
8
Black
10
204.13
20
-72.87
11
203.79
21
-73.66
0
LINE
8
Black
10
204.3
20
-72.82
11
204.46
21
-72.81
0
LINE
8
Black
10
204.558
20
-72.7815
11
203.448
21
-74.1221
0
LINE
8
Black
10
203.448
20
-74.1221
11
204.204
21
-73.939
0
LINE
8
Black
10
203.35
20
-72.88
11
204.3
21
-72.82
0
LINE
8
Black
10
208.35
20
-73.08
11
208.46
21
-72.98
0
LINE
8
Black
10
208.66
20
-73.16
11
208.35
21
-73.08
0
LINE
8
Black
10
203.19
20
-72.88
11
203.1
21
-73.28
0
LINE
8
Black
10
203.8
20
-72.91
11
203.27
21
-74.59
0
LINE
8
Black
10
203.52
20
-72.84
11
203.06
21
-74.69
0
LINE
8
Black
10
204.204
20
-73.939
11
202.99
21
-76.06
0
LINE
8
Black
10
204.01
20
-74.01
11
203.57
21
-74.98
0
LINE
8
Black
10
203.13
20
-75.68
11
203.49
21
-74.56
0
LINE
8
Black
10
203.618
20
-74.3905
11
203.234
21
-75.4512
0
LINE
8
Black
10
202.964
20
-76.0592
11
203.401
21
-74.5769
0
LINE
8
Black
10
212.2
20
-74.88
11
212
21
-74.8
0
LINE
8
Black
10
211.87
20
-75.11
11
211.78
21
-75.02
0
LINE
8
Black
10
212
20
-74.8
11
211.78
21
-74.91
0
LINE
8
Black
10
211.78
20
-75.02
11
212.2
21
-74.88
0
LINE
8
Black
10
209.98
20
-74.86
11
209.99
21
-75.34
0
LINE
8
Black
10
210.28
20
-75.34
11
210.48
21
-75.29
0
LINE
8
Black
10
210.19
20
-74.77
11
210.15
21
-75.28
0
LINE
8
Black
10
210.02
20
-74.84
11
210.13
21
-74.73
0
LINE
8
Black
10
211.73
20
-75.22
11
211.87
21
-75.11
0
LINE
8
Black
10
211.38
20
-74.75
11
211.68
21
-75.02
0
LINE
8
Black
10
211.68
20
-75.02
11
211.73
21
-75.22
0
LINE
8
Black
10
211.43
20
-74.75
11
211.86
21
-74.86
0
LINE
8
Black
10
211.78
20
-74.91
11
211.42
21
-74.75
0
LINE
8
Black
10
210.88
20
-74.85
11
211.05
21
-74.73
0
LINE
8
Black
10
210.76
20
-74.73
11
210.92
21
-74.86
0
LINE
8
Black
10
210.87
20
-74.64
11
210.75
21
-74.73
0
LINE
8
Black
10
210.71
20
-74.78
11
210.99
21
-74.6
0
LINE
8
Black
10
211.07
20
-74.75
11
210.98
21
-74.52
0
LINE
8
Black
10
210.16
20
-74.64
11
210.75
21
-74.5
0
LINE
8
Black
10
209.95
20
-74.45
11
210.22
21
-74.57
0
LINE
8
Black
10
210.57
20
-74.62
11
210.17
21
-74.61
0
LINE
8
Black
10
209.97
20
-74.73
11
209.83
21
-74.58
0
LINE
8
Black
10
210.15
20
-74.69
11
210.07
21
-74.7
0
LINE
8
Black
10
210.25
20
-74.19
11
210.05
21
-74.61
0
LINE
8
Black
10
210.25
20
-74.72
11
210.54
21
-74.74
0
LINE
8
Black
10
210.4
20
-74.73
11
210.32
21
-75.29
0
LINE
8
Black
10
210.05
20
-75.33
11
210.28
21
-75.34
0
LINE
8
Black
10
210.47
20
-75.33
11
210.66
21
-74.71
0
LINE
8
Black
10
210.32
20
-75.29
11
210.4
21
-74.73
0
LINE
8
Black
10
211.11
20
-74.28
11
210.58
21
-74.24
0
LINE
8
Black
10
210.65
20
-74.17
11
210.47
21
-74.02
0
LINE
8
Black
10
210.73
20
-74.42
11
210.52
21
-74.1
0
LINE
8
Black
10
210.82
20
-74.43
11
210.49
21
-73.91
0
LINE
8
Black
10
210.55
20
-74.14
11
210.63
21
-74.54
0
LINE
8
Black
10
209.47
20
-74.04
11
209.72
21
-74.2
0
LINE
8
Black
10
209.49
20
-73.96
11
209.58
21
-74.25
0
LINE
8
Black
10
209.71
20
-74.28
11
209.32
21
-73.99
0
LINE
8
Black
10
209.25
20
-73.93
11
209.31
21
-74.56
0
LINE
8
Black
10
209.32
20
-73.93
11
209.49
21
-74.24
0
LINE
8
Black
10
208.68
20
-73.17
11
208.89
21
-72.99
0
LINE
8
Black
10
209.15
20
-73.4
11
208.68
21
-73.17
0
LINE
8
Black
10
208.65
20
-73.08
11
208.86
21
-72.82
0
LINE
8
Black
10
208.89
20
-72.99
11
209.17
21
-73.37
0
LINE
8
Black
10
208.79
20
-72.96
11
208.81
21
-72.77
0
LINE
8
Black
10
208.93
20
-73.16
11
208.86
21
-73.15
0
LINE
8
Black
10
208.46
20
-72.98
11
208.65
21
-73.08
0
LINE
8
Black
10
208.91
20
-75.18
11
208.63
21
-75.24
0
LINE
8
Black
10
208.96
20
-75.45
11
208.98
21
-75.26
0
LINE
8
Black
10
208.86
20
-75.42
11
208.96
21
-75.45
0
LINE
8
Black
10
208.63
20
-75.24
11
208.61
21
-75.36
0
LINE
8
Black
10
208.61
20
-75.36
11
208.84
21
-75.3
0
LINE
8
Black
10
208.84
20
-75.3
11
208.86
21
-75.42
0
LINE
8
Black
10
208.98
20
-75.26
11
209.09
21
-75.05
0
LINE
8
Black
10
209.23
20
-74.9
11
208.91
21
-75.18
0
LINE
8
Black
10
210.06
20
-73.47
11
209.59
21
-73.52
0
LINE
8
Black
10
209.45
20
-73.5
11
209.76
21
-73.27
0
LINE
8
Black
10
209.44
20
-73.94
11
209.6
21
-73.57
0
LINE
8
Black
10
209.32
20
-73.99
11
209.59
21
-73.53
0
LINE
8
Black
10
209.59
20
-73.53
11
209.87
21
-73.34
0
LINE
8
Black
10
209.44
20
-73.51
11
209.24
21
-73.95
0
LINE
8
Black
10
210.1
20
-74.38
11
209.92
21
-74.3
0
LINE
8
Black
10
209.77
20
-74.66
11
209.62
21
-74.8
0
LINE
8
Black
10
210.02
20
-74.79
11
209.84
21
-74.78
0
LINE
8
Black
10
209.97
20
-74.38
11
209.78
21
-74.21
0
LINE
8
Black
10
209.48
20
-74.42
11
209.77
21
-74.48
0
LINE
8
Black
10
210.17
20
-74.23
11
209.52
21
-74.17
0
LINE
8
Black
10
209.32
20
-74.55
11
209.86
21
-74.64
0
LINE
8
Black
10
209.66
20
-74.89
11
209.91
21
-74.79
0
LINE
8
Black
10
211.14
20
-74.18
11
211.26
21
-74.13
0
LINE
8
Black
10
211.29
20
-74.06
11
211.27
21
-74.16
0
LINE
8
Black
10
210.83
20
-74.37
11
211.23
21
-74.01
0
LINE
8
Black
10
211.43
20
-74.28
11
211.09
21
-74.5
0
LINE
8
Black
10
209.82
20
-73.39
11
210.28
21
-73.87
0
LINE
8
Black
10
209.9
20
-73.4
11
209.99
21
-73.53
0
LINE
8
Black
10
210.85
20
-73.38
11
209.9
21
-73.4
0
LINE
8
Black
10
210.94
20
-73.24
11
209.77
21
-73.27
0
LINE
8
Black
10
209.87
20
-73.34
11
210.93
21
-73.35
0
LINE
8
Black
10
211.07
20
-73.55
11
211.31
21
-73.89
0
LINE
8
Black
10
211.37
20
-73.66
11
210.98
21
-73.25
0
LINE
8
Black
10
210.93
20
-73.35
11
211.31
21
-73.77
0
LINE
8
Black
10
211.31
20
-73.77
11
211.35
21
-74.28
0
LINE
8
Black
10
211.43
20
-74.25
11
211.37
21
-73.68
0
LINE
8
Black
10
210.74
20
-73.58
11
210.85
21
-73.51
0
LINE
8
Black
10
210.61
20
-73.64
11
210.07
21
-73.47
0
LINE
8
Black
10
210.07
20
-73.47
11
209.99
21
-73.58
0
LINE
8
Black
10
210.14
20
-73.46
11
210.61
21
-73.64
0
LINE
8
Black
10
212.05
20
-72.77
11
212.01
21
-72.93
0
LINE
8
Black
10
211.66
20
-72.82
11
211.61
21
-72.61
0
LINE
8
Black
10
211.61
20
-72.61
11
211.77
21
-72.6
0
LINE
8
Black
10
211.73
20
-72.93
11
211.5
21
-73.08
0
LINE
8
Black
10
211.73
20
-72.8
11
212.05
21
-72.77
0
LINE
8
Black
10
211.77
20
-72.6
11
211.73
21
-72.8
0
LINE
8
Black
10
212.01
20
-72.93
11
211.73
21
-72.93
0
LINE
8
Black
10
211.37
20
-73.15
11
211.66
21
-72.82
0
LINE
8
Black
10
210.37
20
-73.98
11
210.23
21
-74.16
0
LINE
8
Black
10
210.41
20
-73.72
11
210.56
21
-73.52
0
LINE
8
Black
10
210.28
20
-73.87
11
210.37
21
-73.98
0
LINE
8
Black
10
210.45
20
-73.94
11
210.94
21
-73.4
0
LINE
8
Black
10
210.83
20
-73.34
11
210.51
21
-73.51
0
LINE
8
Black
10
210.16
20
-73.57
11
210.4
21
-73.7
0
LINE
8
Black
10
196.76
20
-73.87
11
196.91
21
-73.67
0
LINE
8
Black
10
197.18
20
-73.49
11
196.86
21
-73.66
0
LINE
8
Black
10
196.22
20
-73.49
11
197.28
21
-73.5
0
LINE
8
Black
10
196.8
20
-74.09
11
197.29
21
-73.55
0
LINE
8
Black
10
197.29
20
-73.39
11
196.12
21
-73.42
0
LINE
8
Black
10
197
20
-74.32
11
196.82
21
-74.17
0
LINE
8
Black
10
196.9
20
-74.29
11
196.98
21
-74.69
0
LINE
8
Black
10
196.72
20
-74.13
11
196.58
21
-74.31
0
LINE
8
Black
10
197.17
20
-74.58
11
196.84
21
-74.06
0
LINE
8
Black
10
197.08
20
-74.57
11
196.87
21
-74.25
0
LINE
8
Black
10
196.49
20
-73.61
11
196.96
21
-73.79
0
LINE
8
Black
10
197.09
20
-73.73
11
197.2
21
-73.66
0
LINE
8
Black
10
196.25
20
-73.55
11
196.34
21
-73.68
0
LINE
8
Black
10
196.42
20
-73.62
11
196.34
21
-73.73
0
LINE
8
Black
10
196.96
20
-73.79
11
196.42
21
-73.62
0
LINE
8
Black
10
197.2
20
-73.53
11
196.25
21
-73.55
0
LINE
8
Black
10
196.32
20
-74.53
11
196.13
21
-74.36
0
LINE
8
Black
10
196.63
20
-74.02
11
196.72
21
-74.13
0
LINE
8
Black
10
196.3
20
-74.6
11
196.57
21
-74.72
0
LINE
8
Black
10
196.45
20
-74.53
11
196.27
21
-74.45
0
LINE
8
Black
10
196.51
20
-73.72
11
196.75
21
-73.85
0
LINE
8
Black
10
196.41
20
-73.62
11
195.94
21
-73.67
0
LINE
8
Black
10
195.94
20
-73.68
11
196.22
21
-73.49
0
LINE
8
Black
10
196.17
20
-73.54
11
196.63
21
-74.02
0
LINE
8
Black
10
190.908
20
-72.9315
11
189.798
21
-74.2721
0
LINE
8
Black
10
190.48
20
-73.02
11
190.14
21
-73.81
0
LINE
8
Black
10
189.172
20
-72.8724
11
190.908
21
-72.9315
0
LINE
8
Black
10
189.798
20
-74.2721
11
190.554
21
-74.089
0
LINE
8
Black
10
189.7
20
-73.03
11
190.65
21
-72.97
0
LINE
8
Black
10
190.65
20
-72.97
11
190.81
21
-72.96
0
LINE
8
Black
10
189.62
20
-72.91
11
189.576
21
-73.2542
0
LINE
8
Black
10
189.331
20
-72.9476
11
189.584
21
-73.0788
0
LINE
8
Black
10
189.751
20
-74.7269
11
189.166
21
-74.9926
0
LINE
8
Black
10
189.25
20
-74.89
11
189.86
21
-74.63
0
LINE
8
Black
10
190.05
20
-74.23
11
189.85
21
-74.66
0
LINE
8
Black
10
189.275
20
-74.8077
11
189.968
21
-74.5405
0
LINE
8
Black
10
189.314
20
-76.2092
11
189.751
21
-74.7269
0
LINE
8
Black
10
189.48
20
-75.83
11
189.84
21
-74.71
0
LINE
8
Black
10
189.968
20
-74.5405
11
189.584
21
-75.6012
0
LINE
8
Black
10
190.36
20
-74.16
11
189.92
21
-75.13
0
LINE
8
Black
10
190.554
20
-74.089
11
189.34
21
-76.21
0
LINE
8
Black
10
189.5
20
-72.99
11
189.49
21
-73.15
0
LINE
8
Black
10
189.49
20
-73.15
11
189.42
21
-72.95
0
LINE
8
Black
10
189.42
20
-73.15
11
189.172
21
-72.8724
0
LINE
8
Black
10
189.576
20
-73.2542
11
189.275
21
-74.8077
0
LINE
8
Black
10
189.45
20
-73.37
11
189.29
21
-74.5
0
LINE
8
Black
10
190.15
20
-73.06
11
189.62
21
-74.74
0
LINE
8
Black
10
189.87
20
-72.99
11
189.41
21
-74.84
0
LINE
8
Black
10
189.166
20
-74.9926
11
189.42
21
-73.15
0
LINE
8
Black
10
189.54
20
-73.03
11
189.45
21
-73.43
0
LINE
8
Black
10
198.35
20
-74.95
11
198.13
21
-75.06
0
LINE
8
Black
10
198.13
20
-75.17
11
198.55
21
-75.03
0
LINE
8
Black
10
198.22
20
-75.26
11
198.13
21
-75.17
0
LINE
8
Black
10
198.55
20
-75.03
11
198.35
21
-74.95
0
LINE
8
Black
10
197.42
20
-73.7
11
197.66
21
-74.04
0
LINE
8
Black
10
197.78
20
-74.4
11
197.72
21
-73.83
0
LINE
8
Black
10
197.28
20
-73.5
11
197.66
21
-73.92
0
LINE
8
Black
10
197.72
20
-73.81
11
197.33
21
-73.4
0
LINE
8
Black
10
196.82
20
-75.48
11
197.01
21
-74.86
0
LINE
8
Black
10
196.67
20
-75.44
11
196.75
21
-74.88
0
LINE
8
Black
10
196.63
20
-75.49
11
196.83
21
-75.44
0
LINE
8
Black
10
196.75
20
-74.88
11
196.67
21
-75.44
0
LINE
8
Black
10
196.33
20
-75.01
11
196.34
21
-75.49
0
LINE
8
Black
10
196.6
20
-74.87
11
196.89
21
-74.89
0
LINE
8
Black
10
196.4
20
-75.48
11
196.63
21
-75.49
0
LINE
8
Black
10
197.73
20
-74.9
11
198.03
21
-75.17
0
LINE
8
Black
10
197.78
20
-74.9
11
198.21
21
-75.01
0
LINE
8
Black
10
198.08
20
-75.37
11
198.22
21
-75.26
0
LINE
8
Black
10
198.03
20
-75.17
11
198.08
21
-75.37
0
LINE
8
Black
10
198.13
20
-75.06
11
197.77
21
-74.9
0
LINE
8
Black
10
197.46
20
-74.43
11
196.93
21
-74.39
0
LINE
8
Black
10
196.92
20
-74.77
11
196.52
21
-74.76
0
LINE
8
Black
10
196.6
20
-74.34
11
196.4
21
-74.76
0
LINE
8
Black
10
196.51
20
-74.79
11
197.1
21
-74.65
0
LINE
8
Black
10
197.23
20
-75
11
197.4
21
-74.88
0
LINE
8
Black
10
197.11
20
-74.88
11
197.27
21
-75.01
0
LINE
8
Black
10
197.22
20
-74.79
11
197.1
21
-74.88
0
LINE
8
Black
10
197.06
20
-74.93
11
197.34
21
-74.75
0
LINE
8
Black
10
197.42
20
-74.9
11
197.33
21
-74.67
0
LINE
8
Black
10
197.64
20
-74.21
11
197.62
21
-74.31
0
LINE
8
Black
10
197.49
20
-74.33
11
197.61
21
-74.28
0
LINE
8
Black
10
197.78
20
-74.43
11
197.44
21
-74.65
0
LINE
8
Black
10
197.18
20
-74.52
11
197.58
21
-74.16
0
LINE
8
Black
10
197.66
20
-73.92
11
197.7
21
-74.43
0
LINE
8
Black
10
198.01
20
-72.97
11
197.96
21
-72.76
0
LINE
8
Black
10
197.96
20
-72.76
11
198.12
21
-72.75
0
LINE
8
Black
10
198.08
20
-73.08
11
197.85
21
-73.23
0
LINE
8
Black
10
198.36
20
-73.08
11
198.08
21
-73.08
0
LINE
8
Black
10
197.72
20
-73.3
11
198.01
21
-72.97
0
LINE
8
Black
10
198.4
20
-72.92
11
198.36
21
-73.08
0
LINE
8
Black
10
198.12
20
-72.75
11
198.08
21
-72.95
0
LINE
8
Black
10
198.08
20
-72.95
11
198.4
21
-72.92
0
LINE
8
Black
10
195.24
20
-73.14
11
195.52
21
-73.52
0
LINE
8
Black
10
195.5
20
-73.55
11
195.03
21
-73.32
0
LINE
8
Black
10
195.28
20
-73.31
11
195.21
21
-73.3
0
LINE
8
Black
10
195.03
20
-73.32
11
195.24
21
-73.14
0
LINE
8
Black
10
196.01
20
-75.04
11
196.26
21
-74.94
0
LINE
8
Black
10
196.37
20
-74.94
11
196.19
21
-74.93
0
LINE
8
Black
10
196.32
20
-74.88
11
196.18
21
-74.73
0
LINE
8
Black
10
196.54
20
-74.92
11
196.5
21
-75.43
0
LINE
8
Black
10
196.12
20
-74.81
11
195.97
21
-74.95
0
LINE
8
Black
10
196.5
20
-74.84
11
196.42
21
-74.85
0
LINE
8
Black
10
196.37
20
-74.99
11
196.48
21
-74.88
0
LINE
8
Black
10
196.06
20
-74.43
11
195.67
21
-74.14
0
LINE
8
Black
10
195.6
20
-74.08
11
195.66
21
-74.71
0
LINE
8
Black
10
195.67
20
-74.08
11
195.84
21
-74.39
0
LINE
8
Black
10
196.52
20
-74.38
11
195.87
21
-74.32
0
LINE
8
Black
10
195.67
20
-74.7
11
196.21
21
-74.79
0
LINE
8
Black
10
195.84
20
-74.11
11
195.93
21
-74.4
0
LINE
8
Black
10
195.83
20
-74.57
11
196.12
21
-74.63
0
LINE
8
Black
10
195.82
20
-74.19
11
196.07
21
-74.35
0
LINE
8
Black
10
195
20
-73.23
11
195.21
21
-72.97
0
LINE
8
Black
10
195.14
20
-73.11
11
195.16
21
-72.92
0
LINE
8
Black
10
194.81
20
-73.13
11
195
21
-73.23
0
LINE
8
Black
10
194.7
20
-73.23
11
194.81
21
-73.13
0
LINE
8
Black
10
195.01
20
-73.31
11
194.7
21
-73.23
0
LINE
8
Black
10
195.31
20
-75.6
11
195.33
21
-75.41
0
LINE
8
Black
10
194.96
20
-75.51
11
195.19
21
-75.45
0
LINE
8
Black
10
195.19
20
-75.45
11
195.21
21
-75.57
0
LINE
8
Black
10
195.58
20
-75.05
11
195.26
21
-75.33
0
LINE
8
Black
10
195.21
20
-75.57
11
195.31
21
-75.6
0
LINE
8
Black
10
195.33
20
-75.41
11
195.44
21
-75.2
0
LINE
8
Black
10
195.26
20
-75.33
11
194.98
21
-75.39
0
LINE
8
Black
10
194.98
20
-75.39
11
194.96
21
-75.51
0
LINE
8
Black
10
195.8
20
-73.65
11
196.11
21
-73.42
0
LINE
8
Black
10
195.79
20
-74.09
11
195.95
21
-73.72
0
LINE
8
Black
10
195.79
20
-73.66
11
195.59
21
-74.1
0
LINE
8
Black
10
195.67
20
-74.14
11
195.94
21
-73.68
0
LINE
8
Black
10
197.14
20
-79.22
11
197.02
21
-79.31
0
LINE
8
Black
10
196.98
20
-79.36
11
197.26
21
-79.18
0
LINE
8
Black
10
196.74
20
-79.91
11
196.93
21
-79.29
0
LINE
8
Black
10
196.42
20
-79.27
11
196.34
21
-79.28
0
LINE
8
Black
10
196.59
20
-79.87
11
196.67
21
-79.31
0
LINE
8
Black
10
196.67
20
-79.31
11
196.59
21
-79.87
0
LINE
8
Black
10
196.52
20
-79.3
11
196.81
21
-79.32
0
LINE
8
Black
10
196.46
20
-79.35
11
196.42
21
-79.86
0
LINE
8
Black
10
196.37
20
-78.96
11
196.19
21
-78.88
0
LINE
8
Black
10
197.1
20
-78.95
11
197.5
21
-78.59
0
LINE
8
Black
10
196.22
20
-79.03
11
196.49
21
-79.15
0
LINE
8
Black
10
195.74
20
-78.62
11
195.99
21
-78.78
0
LINE
8
Black
10
195.76
20
-78.54
11
195.85
21
-78.83
0
LINE
8
Black
10
196.33
20
-78.05
11
195.86
21
-78.1
0
LINE
8
Black
10
196.34
20
-78.05
11
196.26
21
-78.16
0
LINE
8
Black
10
196.88
20
-78.22
11
196.34
21
-78.05
0
LINE
8
Black
10
196.41
20
-78.04
11
196.88
21
-78.22
0
LINE
8
Black
10
197.1
20
-77.92
11
196.78
21
-78.09
0
LINE
8
Black
10
197.01
20
-78.16
11
197.12
21
-78.09
0
LINE
8
Black
10
196.68
20
-78.3
11
196.83
21
-78.1
0
LINE
8
Black
10
196.43
20
-78.15
11
196.67
21
-78.28
0
LINE
8
Black
10
196.17
20
-77.98
11
196.26
21
-78.11
0
LINE
8
Black
10
197.12
20
-77.96
11
196.17
21
-77.98
0
LINE
8
Black
10
197.56
20
-78.64
11
197.54
21
-78.74
0
LINE
8
Black
10
197.41
20
-78.76
11
197.53
21
-78.71
0
LINE
8
Black
10
196.24
20
-79.31
11
196.1
21
-79.16
0
LINE
8
Black
10
196.29
20
-79.37
11
196.11
21
-79.36
0
LINE
8
Black
10
195.75
20
-79
11
196.04
21
-79.06
0
LINE
8
Black
10
195.59
20
-78.51
11
195.76
21
-78.82
0
LINE
8
Black
10
197.7
20
-78.86
11
197.36
21
-79.08
0
LINE
8
Black
10
197.58
20
-78.35
11
197.62
21
-78.86
0
LINE
8
Black
10
197.2
20
-77.93
11
197.58
21
-78.35
0
LINE
8
Black
10
196.14
20
-77.92
11
197.2
21
-77.93
0
LINE
8
Black
10
195.86
20
-78.11
11
196.14
21
-77.92
0
LINE
8
Black
10
195.59
20
-78.57
11
195.86
21
-78.11
0
LINE
8
Black
10
195.98
20
-78.86
11
195.59
21
-78.57
0
LINE
8
Black
10
196.24
20
-78.96
11
196.05
21
-78.79
0
LINE
8
Black
10
196.84
20
-79.2
11
196.44
21
-79.19
0
LINE
8
Black
10
196.82
20
-78.72
11
196.9
21
-79.12
0
LINE
8
Black
10
197
20
-79
11
196.79
21
-78.68
0
LINE
8
Black
10
196.43
20
-79.22
11
197.02
21
-79.08
0
LINE
8
Black
10
196.52
20
-78.77
11
196.32
21
-79.19
0
LINE
8
Black
10
196.92
20
-78.75
11
196.74
21
-78.6
0
LINE
8
Black
10
197.38
20
-78.86
11
196.85
21
-78.82
0
LINE
8
Black
10
197.34
20
-78.13
11
197.58
21
-78.47
0
LINE
8
Black
10
196.72
20
-78.52
11
197.21
21
-77.98
0
LINE
8
Black
10
197.09
20
-79.01
11
196.76
21
-78.49
0
LINE
8
Black
10
196.44
20
-78.81
11
195.79
21
-78.75
0
LINE
8
Black
10
196.64
20
-78.56
11
196.5
21
-78.74
0
LINE
8
Black
10
196.55
20
-78.45
11
196.64
21
-78.56
0
LINE
8
Black
10
196.09
20
-77.97
11
196.55
21
-78.45
0
LINE
8
Black
10
195.71
20
-78.52
11
195.87
21
-78.15
0
LINE
8
Black
10
195.25
20
-79.84
11
195.36
21
-79.63
0
LINE
8
Black
10
195.23
20
-80.03
11
195.25
21
-79.84
0
LINE
8
Black
10
195.13
20
-80
11
195.23
21
-80.03
0
LINE
8
Black
10
195.11
20
-79.88
11
195.13
21
-80
0
LINE
8
Black
10
194.88
20
-79.94
11
195.11
21
-79.88
0
LINE
8
Black
10
194.9
20
-79.82
11
194.88
21
-79.94
0
LINE
8
Black
10
195.18
20
-79.76
11
194.9
21
-79.82
0
LINE
8
Black
10
195.5
20
-79.48
11
195.18
21
-79.76
0
LINE
8
Black
10
198
20
-77.51
11
197.77
21
-77.66
0
LINE
8
Black
10
198.28
20
-77.51
11
198
21
-77.51
0
LINE
8
Black
10
198.32
20
-77.35
11
198.28
21
-77.51
0
LINE
8
Black
10
198
20
-77.38
11
198.32
21
-77.35
0
LINE
8
Black
10
198.04
20
-77.18
11
198
21
-77.38
0
LINE
8
Black
10
197.88
20
-77.19
11
198.04
21
-77.18
0
LINE
8
Black
10
197.93
20
-77.4
11
197.88
21
-77.19
0
LINE
8
Black
10
197.64
20
-77.73
11
197.93
21
-77.4
0
LINE
8
Black
10
197.7
20
-79.33
11
198.13
21
-79.44
0
LINE
8
Black
10
198.05
20
-79.49
11
197.69
21
-79.33
0
LINE
8
Black
10
198.27
20
-79.38
11
198.05
21
-79.49
0
LINE
8
Black
10
198.47
20
-79.46
11
198.27
21
-79.38
0
LINE
8
Black
10
198.05
20
-79.6
11
198.47
21
-79.46
0
LINE
8
Black
10
198.14
20
-79.69
11
198.05
21
-79.6
0
LINE
8
Black
10
198
20
-79.8
11
198.14
21
-79.69
0
LINE
8
Black
10
197.95
20
-79.6
11
198
21
-79.8
0
LINE
8
Black
10
197.65
20
-79.33
11
197.95
21
-79.6
0
LINE
8
Black
10
195.2
20
-77.74
11
195.13
21
-77.73
0
LINE
8
Black
10
195.06
20
-77.54
11
195.08
21
-77.35
0
LINE
8
Black
10
194.92
20
-77.66
11
195.13
21
-77.4
0
LINE
8
Black
10
194.73
20
-77.56
11
194.92
21
-77.66
0
LINE
8
Black
10
194.62
20
-77.66
11
194.73
21
-77.56
0
LINE
8
Black
10
194.93
20
-77.74
11
194.62
21
-77.66
0
LINE
8
Black
10
195.16
20
-77.57
11
195.44
21
-77.95
0
LINE
8
Black
10
194.95
20
-77.75
11
195.16
21
-77.57
0
LINE
8
Black
10
195.42
20
-77.98
11
194.95
21
-77.75
0
LINE
8
Black
10
195.72
20
-78.08
11
196.03
21
-77.85
0
LINE
8
Black
10
195.71
20
-78.09
11
195.51
21
-78.53
0
LINE
8
Black
10
197.21
20
-77.82
11
196.04
21
-77.85
0
LINE
8
Black
10
197.64
20
-78.24
11
197.25
21
-77.83
0
LINE
8
Black
10
197.7
20
-78.83
11
197.64
21
-78.26
0
LINE
8
Black
10
197.34
20
-79.33
11
197.25
21
-79.1
0
LINE
8
Black
10
197.15
20
-79.43
11
197.32
21
-79.31
0
LINE
8
Black
10
197.03
20
-79.31
11
197.19
21
-79.44
0
LINE
8
Black
10
196.55
20
-79.92
11
196.75
21
-79.87
0
LINE
8
Black
10
196.32
20
-79.91
11
196.55
21
-79.92
0
LINE
8
Black
10
196.25
20
-79.44
11
196.26
21
-79.92
0
LINE
8
Black
10
196.29
20
-79.42
11
196.4
21
-79.31
0
LINE
8
Black
10
195.93
20
-79.47
11
196.18
21
-79.37
0
LINE
8
Black
10
196.04
20
-79.24
11
195.89
21
-79.38
0
LINE
8
Black
10
195.59
20
-79.13
11
196.13
21
-79.22
0
LINE
8
Black
10
195.52
20
-78.51
11
195.58
21
-79.14
0
LINE
8
Black
10
190.28
20
-78.59
11
189.84
21
-79.56
0
LINE
8
Black
10
189.97
20
-78.66
11
189.77
21
-79.09
0
LINE
8
Black
10
190.4
20
-77.45
11
190.06
21
-78.24
0
LINE
8
Black
10
190.07
20
-77.49
11
189.54
21
-79.17
0
LINE
8
Black
10
189.79
20
-77.42
11
189.33
21
-79.27
0
LINE
8
Black
10
190.57
20
-77.4
11
190.73
21
-77.39
0
LINE
8
Black
10
189.62
20
-77.46
11
190.57
21
-77.4
0
LINE
8
Black
10
189.4
20
-80.26
11
189.76
21
-79.14
0
LINE
8
Black
10
189.17
20
-79.32
11
189.78
21
-79.06
0
LINE
8
Black
10
189.37
20
-77.8
11
189.21
21
-78.93
0
LINE
8
Black
10
189.41
20
-77.58
11
189.34
21
-77.38
0
LINE
8
Black
10
189.42
20
-77.42
11
189.41
21
-77.58
0
LINE
8
Black
10
189.46
20
-77.46
11
189.37
21
-77.86
0
LINE
8
Black
10
189.234
20
-80.6392
11
189.671
21
-79.1569
0
LINE
8
Black
10
190.474
20
-78.519
11
189.26
21
-80.64
0
LINE
8
Black
10
190.828
20
-77.3615
11
189.718
21
-78.7021
0
LINE
8
Black
10
189.718
20
-78.7021
11
190.474
21
-78.519
0
LINE
8
Black
10
189.092
20
-77.3024
11
190.828
21
-77.3615
0
LINE
8
Black
10
189.496
20
-77.6842
11
189.195
21
-79.2377
0
LINE
8
Black
10
189.54
20
-77.34
11
189.496
21
-77.6842
0
LINE
8
Black
10
189.086
20
-79.4226
11
189.34
21
-77.58
0
LINE
8
Black
10
189.251
20
-77.3776
11
189.504
21
-77.5088
0
LINE
8
Black
10
189.888
20
-78.9705
11
189.504
21
-80.0312
0
LINE
8
Black
10
189.671
20
-79.1569
11
189.086
21
-79.4226
0
LINE
8
Black
10
189.195
20
-79.2377
11
189.888
21
-78.9705
0
LINE
8
Black
10
189.34
20
-77.58
11
189.092
21
-77.3024
  0
ENDSEC
  0
EOF
