M48
;DRILL file {KiCad 4.0.7} date 11/22/17 17:51:56
;FORMAT={-:-/ absolute / metric / decimal}
FMAT,2
METRIC,TZ
T1C0.300
T2C0.600
T3C0.762
T4C0.800
T5C1.000
T6C3.150
%
G90
G05
M71
T1
X1.6Y-27.656
X2.5Y-26.183
X2.527Y-21.288
X2.6Y-16.65
X3.8Y-24.3
X4.7Y-18.05
X4.9Y-26.435
X4.95Y-16.6
X6.343Y-29.117
X6.9Y-16.6
X7.1Y-32.8
X8.778Y-18.628
X8.86Y-19.558
X9.7Y-17.75
X9.79Y-22.438
X13.532Y-37.985
X13.556Y-17.84
X13.6Y-2.
X14.057Y-38.491
X14.159Y-30.468
X14.7Y-21.
X14.7Y-23.7
X14.85Y-1.2
X14.87Y-2.
X15.Y-17.2
X15.95Y-36.55
X16.03Y-27.81
X16.3Y-47.7
X16.7Y-14.3
X16.935Y-22.35
X16.95Y-43.2
X17.Y-31.98
X17.013Y-18.1
X17.243Y-28.856
X17.475Y-54.325
X17.561Y-26.235
X17.6Y-43.7
X17.629Y-26.831
X18.141Y-47.231
X18.7Y-28.331
X18.934Y-54.696
X19.037Y-47.2
X19.255Y-20.6
X19.275Y-26.76
X19.7Y-2.
X19.82Y-26.26
X20.3Y-23.7
X20.3Y-16.4
X20.45Y-32.09
X20.9Y-28.75
X20.966Y-33.106
X21.22Y-37.932
X21.424Y-22.276
X21.46Y-48.45
X21.474Y-19.644
X21.474Y-43.266
X22.73Y-48.55
X22.744Y-21.676
X22.775Y-30.975
X22.78Y-53.868
X23.015Y-52.172
X23.9Y-37.8
X24.Y-48.55
X24.026Y-55.248
X24.1Y-52.05
X24.568Y-43.217
X24.7Y-11.45
X25.27Y-48.55
X25.483Y-52.491
X25.55Y-17.4
X25.67Y-28.07
X25.9Y-53.1
X26.567Y-54.6
X27.02Y-26.3
X27.12Y-47.02
X27.824Y-44.282
X28.84Y-1.975
X28.95Y-2.65
X29.094Y-37.678
X30.12Y-43.19
X30.91Y-37.59
X31.38Y-1.975
X32.65Y-1.975
X33.108Y-34.35
X33.715Y-46.43
X33.8Y-37.2
X33.8Y-41.8
X34.24Y-47.05
T2
X20.35Y-38.5
X20.35Y-40.35
X20.35Y-46.35
X25.95Y-25.05
X27.4Y-38.35
X27.4Y-40.898
X28.579Y-19.776
T3
X35.15Y-12.95
X35.15Y-17.95
X35.2Y-21.3
X35.2Y-26.3
T4
X1.523Y-19.65
X1.575Y-31.275
X4.45Y-19.65
X10.3Y-47.475
X12.393Y-15.536
X12.393Y-20.036
X12.393Y-24.536
X14.143Y-12.036
X14.143Y-28.036
X18.143Y-11.036
X22.143Y-12.036
X22.143Y-28.036
X23.893Y-15.536
X23.893Y-20.036
X23.893Y-24.536
X28.395Y-31.25
X29.856Y-29.042
T5
X11.1Y-2.
X11.1Y-33.
X11.1Y-35.54
X11.1Y-38.08
X11.1Y-40.62
X11.1Y-43.16
X11.1Y-45.7
X35.5Y-33.
X35.5Y-35.54
X35.5Y-38.08
X35.5Y-40.62
X35.5Y-43.16
X35.5Y-45.7
X35.55Y-2.
T6
X3.5Y-7.7
X4.7Y-51.9
X33.03Y-51.9
X33.3Y-7.7
T0
M30
