M48
;DRILL file {KiCad 4.0.7} date 11/19/17 00:58:08
;FORMAT={-:-/ absolute / metric / decimal}
FMAT,2
METRIC,TZ
T1C0.300
T2C0.600
T3C0.762
T4C0.800
T5C1.000
T6C3.150
%
G90
G05
M71
T1
X1.6Y-27.656
X2.2Y-47.8
X2.5Y-43.2
X2.5Y-26.183
X2.527Y-21.288
X2.6Y-16.65
X3.8Y-24.3
X4.7Y-11.5
X4.7Y-18.05
X4.8Y-46.2
X4.9Y-26.435
X4.95Y-16.6
X6.343Y-29.117
X6.6Y-10.3
X6.9Y-16.6
X7.Y-48.9
X7.1Y-32.8
X9.35Y-19.2
X9.7Y-17.75
X9.9Y-10.3
X10.3Y-7.4
X12.2Y-30.95
X13.Y-6.8
X13.2Y-36.6
X13.25Y-17.75
X13.6Y-2.
X13.808Y-37.829
X14.7Y-21.
X14.7Y-23.7
X14.85Y-1.2
X14.85Y-32.55
X14.87Y-2.
X15.Y-17.2
X15.95Y-36.55
X16.1Y-6.7
X16.3Y-47.7
X16.7Y-14.3
X16.95Y-43.2
X16.967Y-22.325
X17.Y-31.98
X17.1Y-18.1
X17.6Y-43.7
X18.141Y-47.231
X18.59Y-52.91
X18.675Y-28.8
X18.7Y-54.4
X19.037Y-47.2
X19.2Y-20.6
X19.7Y-2.
X19.85Y-6.775
X20.3Y-23.7
X20.3Y-16.4
X20.4Y-31.9
X21.455Y-26.825
X21.46Y-48.45
X21.775Y-32.625
X22.05Y-37.85
X22.329Y-31.071
X22.73Y-48.55
X22.78Y-53.868
X23.015Y-52.172
X23.283Y-42.25
X23.9Y-37.8
X24.Y-48.55
X24.026Y-55.245
X24.1Y-52.05
X24.568Y-43.217
X24.7Y-11.45
X24.85Y-32.05
X25.27Y-48.55
X25.483Y-52.491
X25.55Y-17.4
X25.9Y-53.1
X26.567Y-54.6
X26.7Y-44.35
X26.867Y-47.04
X28.84Y-1.975
X28.95Y-2.65
X28.95Y-37.7
X29.889Y-44.019
X30.91Y-37.59
X31.38Y-1.975
X32.65Y-1.975
X33.108Y-34.35
X33.8Y-46.43
X33.8Y-37.2
X33.8Y-41.8
X34.24Y-47.05
T2
X16.7Y-26.2
X20.35Y-38.5
X20.35Y-40.35
X20.35Y-46.35
X25.1Y-22.85
X27.4Y-38.35
X27.4Y-40.898
X29.1Y-21.533
X29.525Y-24.975
X30.2Y-27.3
X32.8Y-28.5
X34.2Y-29.9
T3
X35.15Y-12.95
X35.15Y-17.95
X35.2Y-21.3
X35.2Y-26.3
T4
X1.523Y-19.65
X1.6Y-31.
X4.45Y-19.65
X12.393Y-15.536
X12.393Y-20.036
X12.393Y-24.536
X12.6Y-53.1
X14.143Y-12.036
X14.143Y-28.036
X18.143Y-11.036
X22.143Y-12.036
X22.143Y-28.036
X23.893Y-15.536
X23.893Y-20.036
X23.893Y-24.536
X26.496Y-19.636
X26.9Y-23.55
X27.45Y-28.35
X28.Y-31.25
T5
X11.1Y-2.
X11.1Y-33.
X11.1Y-35.54
X11.1Y-38.08
X11.1Y-40.62
X11.1Y-43.16
X11.1Y-45.7
X35.5Y-33.
X35.5Y-35.54
X35.5Y-38.08
X35.5Y-40.62
X35.5Y-43.16
X35.5Y-45.7
X35.55Y-2.
T6
X3.5Y-7.7
X4.7Y-51.9
X33.03Y-51.9
X33.3Y-7.7
T0
M30
