%TF.GenerationSoftware,KiCad,Pcbnew,4.0.7*%
%TF.CreationDate,2017-11-22T17:51:59+08:00*%
%TF.ProjectId,NixieTube_QS27,4E69786965547562655F515332372E6B,rev?*%
%TF.FileFunction,Copper,L1,Top,Signal*%
%FSLAX46Y46*%
G04 Gerber Fmt 4.6, Leading zero omitted, Abs format (unit mm)*
G04 Created by KiCad (PCBNEW 4.0.7) date 11/22/17 17:51:59*
%MOMM*%
%LPD*%
G01*
G04 APERTURE LIST*
%ADD10C,0.100000*%
%ADD11R,1.300000X1.200000*%
%ADD12R,1.300000X1.400000*%
%ADD13C,3.500000*%
%ADD14R,1.700000X1.700000*%
%ADD15O,1.700000X1.700000*%
%ADD16R,1.524000X1.524000*%
%ADD17C,1.524000*%
%ADD18C,1.800000*%
%ADD19C,0.453000*%
%ADD20C,1.000000*%
%ADD21C,0.400000*%
%ADD22C,0.500000*%
%ADD23C,0.250000*%
%ADD24C,1.000000*%
%ADD25C,0.400000*%
%ADD26C,0.254000*%
G04 APERTURE END LIST*
D10*
D11*
X15950000Y-20900000D03*
X20350000Y-20900000D03*
D12*
X15950000Y-19300000D03*
X20350000Y-19300000D03*
X15950000Y-22500000D03*
X20350000Y-22500000D03*
D13*
X33030000Y-51900000D03*
X4700000Y-51900000D03*
X3500000Y-7700000D03*
X33300000Y-7700000D03*
D14*
X11100000Y-33000000D03*
D15*
X11100000Y-35540000D03*
X11100000Y-38080000D03*
X11100000Y-40620000D03*
X11100000Y-43160000D03*
X11100000Y-45700000D03*
D14*
X35500000Y-33000000D03*
D15*
X35500000Y-35540000D03*
X35500000Y-38080000D03*
X35500000Y-40620000D03*
X35500000Y-43160000D03*
X35500000Y-45700000D03*
D14*
X35550000Y-2000000D03*
X11100000Y-2000000D03*
D16*
X35150000Y-12950000D03*
D17*
X35150000Y-17950000D03*
D16*
X35200000Y-21300000D03*
D17*
X35200000Y-26300000D03*
D18*
X23893155Y-15535798D03*
X23893155Y-20035798D03*
X23893155Y-24535798D03*
X12393155Y-15535798D03*
X12393155Y-20035798D03*
X12393155Y-24535798D03*
X14143155Y-12035798D03*
X22143155Y-12035798D03*
X14143155Y-28035798D03*
X22143155Y-28035798D03*
X18143155Y-11035798D03*
D19*
X13555976Y-17839930D03*
X17475000Y-54325000D03*
X16300000Y-47700000D03*
X9700000Y-17750000D03*
X14700000Y-21000000D03*
X15000000Y-17200000D03*
X14700000Y-23700000D03*
X7100000Y-32800000D03*
D20*
X27400000Y-40898000D03*
X27400000Y-38350000D03*
D19*
X6343028Y-29116972D03*
X4700000Y-18050000D03*
D21*
X6900000Y-16600004D03*
X4950000Y-16599979D03*
D20*
X20350000Y-40350000D03*
X20350000Y-46350000D03*
X20350000Y-38500000D03*
D19*
X3800000Y-24300000D03*
X22780010Y-53868490D03*
X18934000Y-54696000D03*
D20*
X29856000Y-29041982D03*
D21*
X21423562Y-22276010D03*
X21474000Y-19644000D03*
D20*
X1575000Y-31275000D03*
D19*
X26566536Y-54600000D03*
D20*
X4450000Y-19650008D03*
D19*
X24700000Y-11450000D03*
D20*
X1523487Y-19650000D03*
D19*
X1600000Y-27656500D03*
D21*
X20299990Y-23700000D03*
D19*
X17013242Y-18100000D03*
D21*
X16935407Y-22350011D03*
X24100000Y-52050000D03*
X25900000Y-53099994D03*
X34240000Y-47050000D03*
X13532248Y-37984650D03*
D20*
X28579021Y-19776001D03*
D19*
X28950000Y-2650000D03*
X19700000Y-2000000D03*
X14850000Y-1200000D03*
X28840000Y-1975000D03*
X31380000Y-1975000D03*
X32650000Y-1975000D03*
X13600000Y-2000000D03*
X14870000Y-2000000D03*
D20*
X25950000Y-25049992D03*
D21*
X8778000Y-18628000D03*
X9790000Y-22438000D03*
X22744000Y-21676000D03*
X8859728Y-19558272D03*
X16030000Y-27810000D03*
X25670000Y-28070000D03*
X27824000Y-44282000D03*
X20900020Y-28749990D03*
X21474000Y-43266000D03*
X17243028Y-28856211D03*
X19275022Y-26760020D03*
X21220000Y-37932000D03*
X17628843Y-26831178D03*
X20966000Y-33106000D03*
X19820000Y-26260000D03*
X17561034Y-26235010D03*
X17599994Y-43700000D03*
X18700000Y-28331201D03*
X14159225Y-30467968D03*
X14057258Y-38490742D03*
X20450009Y-32090000D03*
X29094000Y-37678000D03*
X23014625Y-52172147D03*
X30910000Y-37590000D03*
X23900000Y-37800000D03*
X24000022Y-48550000D03*
X18141404Y-47231404D03*
X17000000Y-31980000D03*
X25270012Y-48550000D03*
X24567762Y-43216825D03*
X27120000Y-47020000D03*
X30120000Y-43190000D03*
X15950000Y-36550000D03*
X19036951Y-47200433D03*
D19*
X2600000Y-16650000D03*
X2526510Y-21288180D03*
D21*
X21460016Y-48450000D03*
X16950000Y-43200000D03*
X22775000Y-30974998D03*
X22730022Y-48550000D03*
X27020000Y-26300000D03*
D19*
X25550000Y-17400000D03*
D20*
X28395010Y-31250000D03*
X10299996Y-47475000D03*
D21*
X33107919Y-34350000D03*
X33714990Y-46430464D03*
D19*
X24025847Y-55247510D03*
D21*
X33800000Y-37199998D03*
X33800000Y-41800000D03*
X25482722Y-52490736D03*
X4900021Y-26434673D03*
X2500010Y-26182780D03*
X16700000Y-14300000D03*
X20300000Y-16400000D03*
D19*
X19255489Y-20600000D03*
D22*
X22459691Y-53868490D02*
X22780010Y-53868490D01*
X17931510Y-53868490D02*
X22459691Y-53868490D01*
X17475000Y-54325000D02*
X17931510Y-53868490D01*
D23*
X9700000Y-17750000D02*
X13466046Y-17750000D01*
X13466046Y-17750000D02*
X13555976Y-17839930D01*
D22*
X16300000Y-50620000D02*
X16300000Y-47700000D01*
X18589990Y-52909990D02*
X16300000Y-50620000D01*
D23*
X14700000Y-23700000D02*
X14700000Y-21000000D01*
X14700000Y-21000000D02*
X14700000Y-17500000D01*
X14700000Y-17500000D02*
X15000000Y-17200000D01*
D22*
X7100000Y-32800000D02*
X7100000Y-29873944D01*
X7100000Y-29873944D02*
X6343028Y-29116972D01*
X18589990Y-52909990D02*
X21821510Y-52909990D01*
X21821510Y-52909990D02*
X22780010Y-53868490D01*
D24*
X27400000Y-38350000D02*
X27400000Y-40898000D01*
D22*
X4379681Y-18050000D02*
X3499999Y-18929682D01*
X4700000Y-18050000D02*
X4379681Y-18050000D01*
X3499999Y-23999999D02*
X3800000Y-24300000D01*
X3499999Y-18929682D02*
X3499999Y-23999999D01*
X6343028Y-26843028D02*
X6343028Y-29116972D01*
X3800000Y-24300000D02*
X6343028Y-26843028D01*
X4950000Y-16599979D02*
X6899975Y-16599979D01*
X6899975Y-16599979D02*
X6900000Y-16600004D01*
D24*
X20350000Y-38500000D02*
X20350000Y-40350000D01*
X20350000Y-40350000D02*
X20350000Y-46350000D01*
X11100000Y-41075000D02*
X11100000Y-40630000D01*
D23*
X26566536Y-54600000D02*
X19030000Y-54600000D01*
X19030000Y-54600000D02*
X18934000Y-54696000D01*
D24*
X29856000Y-28334876D02*
X29856000Y-29041982D01*
X29856000Y-22750050D02*
X29856000Y-28334876D01*
X26899991Y-19794041D02*
X29856000Y-22750050D01*
X26899991Y-13649991D02*
X26899991Y-19794041D01*
X24700000Y-11450000D02*
X26899991Y-13649991D01*
X5157106Y-19650008D02*
X4450000Y-19650008D01*
X6757098Y-19650008D02*
X5157106Y-19650008D01*
X7877991Y-15272009D02*
X7877991Y-18529115D01*
X14050000Y-9100000D02*
X7877991Y-15272009D01*
X22350000Y-9100000D02*
X14050000Y-9100000D01*
X24700000Y-11450000D02*
X22350000Y-9100000D01*
X7877991Y-18529115D02*
X6757098Y-19650008D01*
D25*
X21474000Y-22225572D02*
X21423562Y-22276010D01*
X21474000Y-19644000D02*
X21474000Y-22225572D01*
D24*
X1600000Y-27656500D02*
X1600000Y-31250000D01*
X1600000Y-31250000D02*
X1575000Y-31275000D01*
X1523487Y-21056987D02*
X1523487Y-19650000D01*
X1600000Y-21133500D02*
X1523487Y-21056987D01*
X1600000Y-27656500D02*
X1600000Y-21133500D01*
D23*
X20350000Y-22500000D02*
X20350000Y-23649990D01*
X20350000Y-23649990D02*
X20299990Y-23700000D01*
X17013242Y-20736758D02*
X17013242Y-18420319D01*
X17013242Y-18420319D02*
X17013242Y-18100000D01*
X15950000Y-20900000D02*
X16850000Y-20900000D01*
X16850000Y-20900000D02*
X17013242Y-20736758D01*
X16300000Y-20900000D02*
X15950000Y-20900000D01*
X16850000Y-22500000D02*
X16935407Y-22414593D01*
X16935407Y-22414593D02*
X16935407Y-22350011D01*
X15950000Y-22500000D02*
X16850000Y-22500000D01*
X30450000Y-45700000D02*
X24100000Y-52050000D01*
X35500000Y-45700000D02*
X30450000Y-45700000D01*
X23199994Y-53099994D02*
X25900000Y-53099994D01*
X28190006Y-53099994D02*
X25900000Y-53099994D01*
X13260000Y-43160000D02*
X23199994Y-53099994D01*
X34240000Y-47050000D02*
X28190006Y-53099994D01*
X11100000Y-43160000D02*
X13260000Y-43160000D01*
X13436898Y-38080000D02*
X13532248Y-37984650D01*
X11100000Y-38080000D02*
X13436898Y-38080000D01*
X30103020Y-21300000D02*
X29079020Y-20276000D01*
D24*
X28100001Y-19296981D02*
X28579021Y-19776001D01*
D23*
X35200000Y-21300000D02*
X30103020Y-21300000D01*
D24*
X28100001Y-12100001D02*
X28100001Y-19296981D01*
D23*
X29079020Y-20276000D02*
X28579021Y-19776001D01*
D24*
X28100001Y-12100001D02*
X28100001Y-10400001D01*
X28100001Y-10400001D02*
X19700000Y-2000000D01*
D23*
X35150000Y-12950000D02*
X34138000Y-12950000D01*
X34138000Y-12950000D02*
X33288001Y-12100001D01*
X33288001Y-12100001D02*
X28100001Y-12100001D01*
D22*
X15876499Y-1926499D02*
X15950000Y-2000000D01*
X15950000Y-2000000D02*
X19700000Y-2000000D01*
X15576499Y-1926499D02*
X14850000Y-1200000D01*
X14870000Y-1220000D02*
X14850000Y-1200000D01*
X15876499Y-1926499D02*
X15576499Y-1926499D01*
X14870000Y-2000000D02*
X14870000Y-1220000D01*
X13600000Y-2000000D02*
X11100000Y-2000000D01*
X14870000Y-2000000D02*
X13600000Y-2000000D01*
X25771841Y-24981841D02*
X25839992Y-25049992D01*
D24*
X23043154Y-27135799D02*
X23864193Y-27135799D01*
X23864193Y-27135799D02*
X25950000Y-25049992D01*
X22143155Y-28035798D02*
X23043154Y-27135799D01*
D22*
X25839992Y-25049992D02*
X25950000Y-25049992D01*
D25*
X9790000Y-22438000D02*
X9790000Y-19640000D01*
X9790000Y-19640000D02*
X8778000Y-18628000D01*
D23*
X22744000Y-23386643D02*
X22744000Y-21676000D01*
X23893155Y-24535798D02*
X22744000Y-23386643D01*
X8859728Y-22752371D02*
X8859728Y-19841114D01*
X8859728Y-19841114D02*
X8859728Y-19558272D01*
X14143155Y-28035798D02*
X8859728Y-22752371D01*
X12393155Y-24535798D02*
X12575798Y-24535798D01*
X12575798Y-24535798D02*
X15850000Y-27810000D01*
X15850000Y-27810000D02*
X16030000Y-27810000D01*
X25670000Y-28352842D02*
X25670000Y-28070000D01*
X27824000Y-44282000D02*
X25670000Y-42128000D01*
X25670000Y-42128000D02*
X25670000Y-28352842D01*
X21745001Y-29594971D02*
X21100019Y-28949989D01*
X21745001Y-42994999D02*
X21745001Y-29594971D01*
X21474000Y-43266000D02*
X21745001Y-42994999D01*
X21100019Y-28949989D02*
X20900020Y-28749990D01*
X17243028Y-28573369D02*
X17243028Y-28856211D01*
X17243028Y-27733438D02*
X17243028Y-28573369D01*
X13618156Y-24108566D02*
X17243028Y-27733438D01*
X12393155Y-20035798D02*
X13618156Y-21260799D01*
X13618156Y-21260799D02*
X13618156Y-24108566D01*
X19275022Y-35987022D02*
X19275022Y-27042862D01*
X21220000Y-37932000D02*
X19275022Y-35987022D01*
X19275022Y-27042862D02*
X19275022Y-26760020D01*
X17346001Y-26831178D02*
X17628843Y-26831178D01*
X14108000Y-23962000D02*
X16977178Y-26831178D01*
X16977178Y-26831178D02*
X17346001Y-26831178D01*
X14108000Y-17250643D02*
X14108000Y-23962000D01*
X12393155Y-15535798D02*
X14108000Y-17250643D01*
X19820000Y-32242842D02*
X19820000Y-26542842D01*
X20683158Y-33106000D02*
X19820000Y-32242842D01*
X20966000Y-33106000D02*
X20683158Y-33106000D01*
X19820000Y-26542842D02*
X19820000Y-26260000D01*
X17561034Y-25952168D02*
X17561034Y-26235010D01*
X17564752Y-25948450D02*
X17561034Y-25952168D01*
X14143155Y-12035798D02*
X15415947Y-12035798D01*
X17564752Y-14184603D02*
X17564752Y-25948450D01*
X15415947Y-12035798D02*
X17564752Y-14184603D01*
X18143155Y-11035798D02*
X18153844Y-11046487D01*
X18149987Y-43150007D02*
X17799993Y-43500001D01*
X18153844Y-11046487D02*
X18153844Y-27083179D01*
X18153844Y-27083179D02*
X18149987Y-27087036D01*
X18149987Y-27087036D02*
X18149987Y-43150007D01*
X17799993Y-43500001D02*
X17599994Y-43700000D01*
X18700000Y-15478953D02*
X18700000Y-28048359D01*
X22143155Y-12035798D02*
X18700000Y-15478953D01*
X18700000Y-28048359D02*
X18700000Y-28331201D01*
X14057258Y-38490742D02*
X14057258Y-30569935D01*
X14057258Y-30569935D02*
X14159225Y-30467968D01*
X20375010Y-27331986D02*
X20375010Y-32015001D01*
X23893155Y-15535798D02*
X21999001Y-17429952D01*
X21999001Y-25707995D02*
X20375010Y-27331986D01*
X20375010Y-32015001D02*
X20450009Y-32090000D01*
X21999001Y-17429952D02*
X21999001Y-25707995D01*
X26299998Y-34883998D02*
X28894001Y-37478001D01*
X26299998Y-25985001D02*
X26299998Y-34883998D01*
X23893155Y-20035798D02*
X26775001Y-22917644D01*
X26775001Y-22917644D02*
X26775001Y-25509998D01*
X26775001Y-25509998D02*
X26299998Y-25985001D01*
X28894001Y-37478001D02*
X29094000Y-37678000D01*
X30910000Y-37590000D02*
X30910000Y-44276772D01*
X30910000Y-44276772D02*
X23014625Y-52172147D01*
X24000022Y-37900022D02*
X23900000Y-37800000D01*
X24000022Y-48550000D02*
X24000022Y-37900022D01*
X15395055Y-33584945D02*
X15395055Y-44485055D01*
X17000000Y-31980000D02*
X15395055Y-33584945D01*
X15395055Y-44485055D02*
X18141404Y-47231404D01*
X24567762Y-47847750D02*
X25270012Y-48550000D01*
X24567762Y-43216825D02*
X24567762Y-47847750D01*
X27319999Y-46820001D02*
X27120000Y-47020000D01*
X30120000Y-44020000D02*
X27319999Y-46820001D01*
X30120000Y-43190000D02*
X30120000Y-44020000D01*
X15950000Y-44113482D02*
X15950000Y-36550000D01*
X19036951Y-47200433D02*
X15950000Y-44113482D01*
X2526510Y-16723490D02*
X2600000Y-16650000D01*
X2526510Y-21288180D02*
X2526510Y-16723490D01*
X21077168Y-48450000D02*
X21460016Y-48450000D01*
X16950000Y-43200000D02*
X16950000Y-44322832D01*
X16950000Y-44322832D02*
X21077168Y-48450000D01*
X22730022Y-31019976D02*
X22775000Y-30974998D01*
X22730022Y-48550000D02*
X22730022Y-31019976D01*
X27219999Y-26100001D02*
X27020000Y-26300000D01*
X25550000Y-17400000D02*
X25550000Y-19610791D01*
X27225012Y-21285803D02*
X27225012Y-26094988D01*
X27225012Y-26094988D02*
X27219999Y-26100001D01*
X25550000Y-19610791D02*
X27225012Y-21285803D01*
D24*
X31495010Y-34350000D02*
X28895009Y-31749999D01*
X33107919Y-34350000D02*
X31495010Y-34350000D01*
X28895009Y-31749999D02*
X28395010Y-31250000D01*
X9100000Y-46275004D02*
X10299996Y-47475000D01*
X11100000Y-35540000D02*
X9100000Y-37540000D01*
X9100000Y-37540000D02*
X9100000Y-46275004D01*
X33107919Y-34350000D02*
X34297919Y-35540000D01*
X34297919Y-35540000D02*
X35500000Y-35540000D01*
D23*
X31542994Y-46430464D02*
X33432148Y-46430464D01*
X25482722Y-52490736D02*
X31542994Y-46430464D01*
X33432148Y-46430464D02*
X33714990Y-46430464D01*
X23771856Y-55501501D02*
X23799348Y-55474009D01*
X11100000Y-33000000D02*
X10000000Y-33000000D01*
X10000000Y-33000000D02*
X8274989Y-34725011D01*
X8274989Y-34725011D02*
X8274989Y-50051729D01*
X8274989Y-50051729D02*
X13724761Y-55501501D01*
X13724761Y-55501501D02*
X23771856Y-55501501D01*
X23799348Y-55474009D02*
X24025847Y-55247510D01*
X33800000Y-41800000D02*
X33800000Y-37199998D01*
X2500010Y-26182780D02*
X2751903Y-26434673D01*
X2751903Y-26434673D02*
X4900021Y-26434673D01*
X16700000Y-17600000D02*
X16700000Y-14300000D01*
X15950000Y-18350000D02*
X16700000Y-17600000D01*
X15950000Y-19300000D02*
X15950000Y-18350000D01*
X16300000Y-18950000D02*
X15950000Y-19300000D01*
X20300000Y-16400000D02*
X20300000Y-19250000D01*
X20300000Y-19250000D02*
X20350000Y-19300000D01*
X19450000Y-20900000D02*
X19255489Y-20705489D01*
X20350000Y-20900000D02*
X19450000Y-20900000D01*
X19255489Y-20705489D02*
X19255489Y-20600000D01*
D26*
G36*
X26965001Y-10870133D02*
X26965001Y-12109869D01*
X23152566Y-8297434D01*
X22965327Y-8172325D01*
X22784346Y-8051397D01*
X22350000Y-7965000D01*
X14050000Y-7965000D01*
X13615654Y-8051397D01*
X13434673Y-8172325D01*
X13247434Y-8297434D01*
X7075425Y-14469443D01*
X6829388Y-14837663D01*
X6742991Y-15272009D01*
X6742991Y-18058983D01*
X6286966Y-18515008D01*
X4450990Y-18515008D01*
X4225225Y-18514811D01*
X3807914Y-18687241D01*
X3488355Y-19006243D01*
X3315197Y-19423252D01*
X3314803Y-19874783D01*
X3487233Y-20292094D01*
X3806235Y-20611653D01*
X4223244Y-20784811D01*
X4674775Y-20785205D01*
X4675252Y-20785008D01*
X6757098Y-20785008D01*
X7191444Y-20698611D01*
X7559664Y-20452574D01*
X8099728Y-19912510D01*
X8099728Y-22752371D01*
X8157580Y-23043210D01*
X8322327Y-23289772D01*
X12653389Y-27620834D01*
X12608422Y-27729128D01*
X12607890Y-28339789D01*
X12841087Y-28904169D01*
X13272512Y-29336349D01*
X13836485Y-29570531D01*
X14447146Y-29571063D01*
X15011526Y-29337866D01*
X15443706Y-28906441D01*
X15598041Y-28534760D01*
X15863179Y-28644855D01*
X16195363Y-28645145D01*
X16474424Y-28529840D01*
X16408173Y-28689390D01*
X16407883Y-29021574D01*
X16534736Y-29328583D01*
X16769421Y-29563677D01*
X17076207Y-29691066D01*
X17389987Y-29691340D01*
X17389987Y-31237812D01*
X17166821Y-31145145D01*
X16834637Y-31144855D01*
X16527628Y-31271708D01*
X16292534Y-31506393D01*
X16217071Y-31688127D01*
X14857654Y-33047544D01*
X14817258Y-33108001D01*
X14817258Y-30990922D01*
X14866691Y-30941575D01*
X14994080Y-30634789D01*
X14994370Y-30302605D01*
X14867517Y-29995596D01*
X14632832Y-29760502D01*
X14326046Y-29633113D01*
X13993862Y-29632823D01*
X13686853Y-29759676D01*
X13451759Y-29994361D01*
X13324370Y-30301147D01*
X13324254Y-30434219D01*
X13297258Y-30569935D01*
X13297258Y-37178274D01*
X13059876Y-37276358D01*
X13016158Y-37320000D01*
X12372954Y-37320000D01*
X12179147Y-37029946D01*
X11849974Y-36810000D01*
X12179147Y-36590054D01*
X12501054Y-36108285D01*
X12614093Y-35540000D01*
X12501054Y-34971715D01*
X12179147Y-34489946D01*
X12137548Y-34462150D01*
X12185317Y-34453162D01*
X12401441Y-34314090D01*
X12546431Y-34101890D01*
X12597440Y-33850000D01*
X12597440Y-32150000D01*
X12553162Y-31914683D01*
X12414090Y-31698559D01*
X12201890Y-31553569D01*
X11950000Y-31502560D01*
X10250000Y-31502560D01*
X10014683Y-31546838D01*
X9798559Y-31685910D01*
X9653569Y-31898110D01*
X9602560Y-32150000D01*
X9602560Y-32369080D01*
X9462599Y-32462599D01*
X7737588Y-34187610D01*
X7572841Y-34434172D01*
X7514989Y-34725011D01*
X7514989Y-50051729D01*
X7572841Y-50342568D01*
X7737588Y-50589130D01*
X12461458Y-55313000D01*
X1056198Y-55313000D01*
X1037590Y-52372325D01*
X2314587Y-52372325D01*
X2676916Y-53249229D01*
X3347242Y-53920726D01*
X4223513Y-54284585D01*
X5172325Y-54285413D01*
X6049229Y-53923084D01*
X6720726Y-53252758D01*
X7084585Y-52376487D01*
X7085413Y-51427675D01*
X6723084Y-50550771D01*
X6052758Y-49879274D01*
X5176487Y-49515415D01*
X4227675Y-49514587D01*
X3350771Y-49876916D01*
X2679274Y-50547242D01*
X2315415Y-51423513D01*
X2314587Y-52372325D01*
X1037590Y-52372325D01*
X910040Y-32215413D01*
X931235Y-32236645D01*
X1348244Y-32409803D01*
X1799775Y-32410197D01*
X2217086Y-32237767D01*
X2536645Y-31918765D01*
X2609987Y-31742139D01*
X2648603Y-31684346D01*
X2662044Y-31616771D01*
X2709803Y-31501756D01*
X2709913Y-31376122D01*
X2735000Y-31250000D01*
X2735000Y-27191311D01*
X2751903Y-27194673D01*
X4552930Y-27194673D01*
X4733200Y-27269528D01*
X5065384Y-27269818D01*
X5372393Y-27142965D01*
X5607487Y-26908280D01*
X5734876Y-26601494D01*
X5735166Y-26269310D01*
X5608313Y-25962301D01*
X5373628Y-25727207D01*
X5066842Y-25599818D01*
X4734658Y-25599528D01*
X4552792Y-25674673D01*
X3172629Y-25674673D01*
X2973617Y-25475314D01*
X2735000Y-25376231D01*
X2735000Y-22134178D01*
X3013873Y-22018950D01*
X3256428Y-21776818D01*
X3387860Y-21460295D01*
X3388159Y-21117569D01*
X3286510Y-20871559D01*
X3286510Y-17181970D01*
X3329918Y-17138638D01*
X3461350Y-16822115D01*
X3461649Y-16479389D01*
X3330770Y-16162637D01*
X3088638Y-15920082D01*
X2772115Y-15788650D01*
X2429389Y-15788351D01*
X2112637Y-15919230D01*
X1870082Y-16161362D01*
X1738650Y-16477885D01*
X1738351Y-16820611D01*
X1766510Y-16888761D01*
X1766510Y-18521952D01*
X1750243Y-18515197D01*
X1298712Y-18514803D01*
X881401Y-18687233D01*
X824793Y-18743742D01*
X757899Y-8172325D01*
X1114587Y-8172325D01*
X1476916Y-9049229D01*
X2147242Y-9720726D01*
X3023513Y-10084585D01*
X3972325Y-10085413D01*
X4849229Y-9723084D01*
X5520726Y-9052758D01*
X5884585Y-8176487D01*
X5885413Y-7227675D01*
X5523084Y-6350771D01*
X4852758Y-5679274D01*
X3976487Y-5315415D01*
X3027675Y-5314587D01*
X2150771Y-5676916D01*
X1479274Y-6347242D01*
X1115415Y-7223513D01*
X1114587Y-8172325D01*
X757899Y-8172325D01*
X738628Y-5127000D01*
X21221868Y-5127000D01*
X26965001Y-10870133D01*
X26965001Y-10870133D01*
G37*
X26965001Y-10870133D02*
X26965001Y-12109869D01*
X23152566Y-8297434D01*
X22965327Y-8172325D01*
X22784346Y-8051397D01*
X22350000Y-7965000D01*
X14050000Y-7965000D01*
X13615654Y-8051397D01*
X13434673Y-8172325D01*
X13247434Y-8297434D01*
X7075425Y-14469443D01*
X6829388Y-14837663D01*
X6742991Y-15272009D01*
X6742991Y-18058983D01*
X6286966Y-18515008D01*
X4450990Y-18515008D01*
X4225225Y-18514811D01*
X3807914Y-18687241D01*
X3488355Y-19006243D01*
X3315197Y-19423252D01*
X3314803Y-19874783D01*
X3487233Y-20292094D01*
X3806235Y-20611653D01*
X4223244Y-20784811D01*
X4674775Y-20785205D01*
X4675252Y-20785008D01*
X6757098Y-20785008D01*
X7191444Y-20698611D01*
X7559664Y-20452574D01*
X8099728Y-19912510D01*
X8099728Y-22752371D01*
X8157580Y-23043210D01*
X8322327Y-23289772D01*
X12653389Y-27620834D01*
X12608422Y-27729128D01*
X12607890Y-28339789D01*
X12841087Y-28904169D01*
X13272512Y-29336349D01*
X13836485Y-29570531D01*
X14447146Y-29571063D01*
X15011526Y-29337866D01*
X15443706Y-28906441D01*
X15598041Y-28534760D01*
X15863179Y-28644855D01*
X16195363Y-28645145D01*
X16474424Y-28529840D01*
X16408173Y-28689390D01*
X16407883Y-29021574D01*
X16534736Y-29328583D01*
X16769421Y-29563677D01*
X17076207Y-29691066D01*
X17389987Y-29691340D01*
X17389987Y-31237812D01*
X17166821Y-31145145D01*
X16834637Y-31144855D01*
X16527628Y-31271708D01*
X16292534Y-31506393D01*
X16217071Y-31688127D01*
X14857654Y-33047544D01*
X14817258Y-33108001D01*
X14817258Y-30990922D01*
X14866691Y-30941575D01*
X14994080Y-30634789D01*
X14994370Y-30302605D01*
X14867517Y-29995596D01*
X14632832Y-29760502D01*
X14326046Y-29633113D01*
X13993862Y-29632823D01*
X13686853Y-29759676D01*
X13451759Y-29994361D01*
X13324370Y-30301147D01*
X13324254Y-30434219D01*
X13297258Y-30569935D01*
X13297258Y-37178274D01*
X13059876Y-37276358D01*
X13016158Y-37320000D01*
X12372954Y-37320000D01*
X12179147Y-37029946D01*
X11849974Y-36810000D01*
X12179147Y-36590054D01*
X12501054Y-36108285D01*
X12614093Y-35540000D01*
X12501054Y-34971715D01*
X12179147Y-34489946D01*
X12137548Y-34462150D01*
X12185317Y-34453162D01*
X12401441Y-34314090D01*
X12546431Y-34101890D01*
X12597440Y-33850000D01*
X12597440Y-32150000D01*
X12553162Y-31914683D01*
X12414090Y-31698559D01*
X12201890Y-31553569D01*
X11950000Y-31502560D01*
X10250000Y-31502560D01*
X10014683Y-31546838D01*
X9798559Y-31685910D01*
X9653569Y-31898110D01*
X9602560Y-32150000D01*
X9602560Y-32369080D01*
X9462599Y-32462599D01*
X7737588Y-34187610D01*
X7572841Y-34434172D01*
X7514989Y-34725011D01*
X7514989Y-50051729D01*
X7572841Y-50342568D01*
X7737588Y-50589130D01*
X12461458Y-55313000D01*
X1056198Y-55313000D01*
X1037590Y-52372325D01*
X2314587Y-52372325D01*
X2676916Y-53249229D01*
X3347242Y-53920726D01*
X4223513Y-54284585D01*
X5172325Y-54285413D01*
X6049229Y-53923084D01*
X6720726Y-53252758D01*
X7084585Y-52376487D01*
X7085413Y-51427675D01*
X6723084Y-50550771D01*
X6052758Y-49879274D01*
X5176487Y-49515415D01*
X4227675Y-49514587D01*
X3350771Y-49876916D01*
X2679274Y-50547242D01*
X2315415Y-51423513D01*
X2314587Y-52372325D01*
X1037590Y-52372325D01*
X910040Y-32215413D01*
X931235Y-32236645D01*
X1348244Y-32409803D01*
X1799775Y-32410197D01*
X2217086Y-32237767D01*
X2536645Y-31918765D01*
X2609987Y-31742139D01*
X2648603Y-31684346D01*
X2662044Y-31616771D01*
X2709803Y-31501756D01*
X2709913Y-31376122D01*
X2735000Y-31250000D01*
X2735000Y-27191311D01*
X2751903Y-27194673D01*
X4552930Y-27194673D01*
X4733200Y-27269528D01*
X5065384Y-27269818D01*
X5372393Y-27142965D01*
X5607487Y-26908280D01*
X5734876Y-26601494D01*
X5735166Y-26269310D01*
X5608313Y-25962301D01*
X5373628Y-25727207D01*
X5066842Y-25599818D01*
X4734658Y-25599528D01*
X4552792Y-25674673D01*
X3172629Y-25674673D01*
X2973617Y-25475314D01*
X2735000Y-25376231D01*
X2735000Y-22134178D01*
X3013873Y-22018950D01*
X3256428Y-21776818D01*
X3387860Y-21460295D01*
X3388159Y-21117569D01*
X3286510Y-20871559D01*
X3286510Y-17181970D01*
X3329918Y-17138638D01*
X3461350Y-16822115D01*
X3461649Y-16479389D01*
X3330770Y-16162637D01*
X3088638Y-15920082D01*
X2772115Y-15788650D01*
X2429389Y-15788351D01*
X2112637Y-15919230D01*
X1870082Y-16161362D01*
X1738650Y-16477885D01*
X1738351Y-16820611D01*
X1766510Y-16888761D01*
X1766510Y-18521952D01*
X1750243Y-18515197D01*
X1298712Y-18514803D01*
X881401Y-18687233D01*
X824793Y-18743742D01*
X757899Y-8172325D01*
X1114587Y-8172325D01*
X1476916Y-9049229D01*
X2147242Y-9720726D01*
X3023513Y-10084585D01*
X3972325Y-10085413D01*
X4849229Y-9723084D01*
X5520726Y-9052758D01*
X5884585Y-8176487D01*
X5885413Y-7227675D01*
X5523084Y-6350771D01*
X4852758Y-5679274D01*
X3976487Y-5315415D01*
X3027675Y-5314587D01*
X2150771Y-5676916D01*
X1479274Y-6347242D01*
X1115415Y-7223513D01*
X1114587Y-8172325D01*
X757899Y-8172325D01*
X738628Y-5127000D01*
X21221868Y-5127000D01*
X26965001Y-10870133D01*
G36*
X22662593Y-53637395D02*
X22909154Y-53802142D01*
X23099478Y-53840000D01*
X19118999Y-53840000D01*
X19106115Y-53834650D01*
X18763389Y-53834351D01*
X18446637Y-53965230D01*
X18204082Y-54207362D01*
X18072650Y-54523885D01*
X18072460Y-54741501D01*
X14039563Y-54741501D01*
X9034989Y-49736927D01*
X9034989Y-47815125D01*
X9497016Y-48277152D01*
X9656231Y-48436645D01*
X10073240Y-48609803D01*
X10524771Y-48610197D01*
X10734341Y-48523604D01*
X10734342Y-48523604D01*
X10734343Y-48523603D01*
X10942082Y-48437767D01*
X11261641Y-48118765D01*
X11434799Y-47701756D01*
X11435193Y-47250225D01*
X11387042Y-47133691D01*
X11697378Y-47071961D01*
X12179147Y-46750054D01*
X12501054Y-46268285D01*
X12614093Y-45700000D01*
X12501054Y-45131715D01*
X12179147Y-44649946D01*
X11849974Y-44430000D01*
X12179147Y-44210054D01*
X12372954Y-43920000D01*
X12945198Y-43920000D01*
X22662593Y-53637395D01*
X22662593Y-53637395D01*
G37*
X22662593Y-53637395D02*
X22909154Y-53802142D01*
X23099478Y-53840000D01*
X19118999Y-53840000D01*
X19106115Y-53834650D01*
X18763389Y-53834351D01*
X18446637Y-53965230D01*
X18204082Y-54207362D01*
X18072650Y-54523885D01*
X18072460Y-54741501D01*
X14039563Y-54741501D01*
X9034989Y-49736927D01*
X9034989Y-47815125D01*
X9497016Y-48277152D01*
X9656231Y-48436645D01*
X10073240Y-48609803D01*
X10524771Y-48610197D01*
X10734341Y-48523604D01*
X10734342Y-48523604D01*
X10734343Y-48523603D01*
X10942082Y-48437767D01*
X11261641Y-48118765D01*
X11434799Y-47701756D01*
X11435193Y-47250225D01*
X11387042Y-47133691D01*
X11697378Y-47071961D01*
X12179147Y-46750054D01*
X12501054Y-46268285D01*
X12614093Y-45700000D01*
X12501054Y-45131715D01*
X12179147Y-44649946D01*
X11849974Y-44430000D01*
X12179147Y-44210054D01*
X12372954Y-43920000D01*
X12945198Y-43920000D01*
X22662593Y-53637395D01*
G36*
X20437168Y-38223970D02*
X20511708Y-38404372D01*
X20746393Y-38639466D01*
X20985001Y-38738545D01*
X20985001Y-42574306D01*
X20766534Y-42792393D01*
X20639145Y-43099179D01*
X20638855Y-43431363D01*
X20765708Y-43738372D01*
X21000393Y-43973466D01*
X21307179Y-44100855D01*
X21639363Y-44101145D01*
X21946372Y-43974292D01*
X21970022Y-43950683D01*
X21970022Y-47778996D01*
X21933623Y-47742534D01*
X21626837Y-47615145D01*
X21316844Y-47614874D01*
X18091330Y-44389360D01*
X18307460Y-44173607D01*
X18382923Y-43991873D01*
X18687388Y-43687408D01*
X18852135Y-43440847D01*
X18909987Y-43150007D01*
X18909987Y-36696789D01*
X20437168Y-38223970D01*
X20437168Y-38223970D01*
G37*
X20437168Y-38223970D02*
X20511708Y-38404372D01*
X20746393Y-38639466D01*
X20985001Y-38738545D01*
X20985001Y-42574306D01*
X20766534Y-42792393D01*
X20639145Y-43099179D01*
X20638855Y-43431363D01*
X20765708Y-43738372D01*
X21000393Y-43973466D01*
X21307179Y-44100855D01*
X21639363Y-44101145D01*
X21946372Y-43974292D01*
X21970022Y-43950683D01*
X21970022Y-47778996D01*
X21933623Y-47742534D01*
X21626837Y-47615145D01*
X21316844Y-47614874D01*
X18091330Y-44389360D01*
X18307460Y-44173607D01*
X18382923Y-43991873D01*
X18687388Y-43687408D01*
X18852135Y-43440847D01*
X18909987Y-43150007D01*
X18909987Y-36696789D01*
X20437168Y-38223970D01*
G36*
X33790560Y-22062000D02*
X33834838Y-22297317D01*
X33973910Y-22513441D01*
X34186110Y-22658431D01*
X34438000Y-22709440D01*
X35962000Y-22709440D01*
X36197317Y-22665162D01*
X36290000Y-22605522D01*
X36290000Y-25414521D01*
X35992370Y-25116371D01*
X35479100Y-24903243D01*
X34923339Y-24902758D01*
X34409697Y-25114990D01*
X34016371Y-25507630D01*
X33803243Y-26020900D01*
X33802758Y-26576661D01*
X34014990Y-27090303D01*
X34407630Y-27483629D01*
X34920900Y-27696757D01*
X35476661Y-27697242D01*
X35990303Y-27485010D01*
X36290000Y-27185836D01*
X36290000Y-31502560D01*
X34650000Y-31502560D01*
X34414683Y-31546838D01*
X34198559Y-31685910D01*
X34053569Y-31898110D01*
X34002560Y-32150000D01*
X34002560Y-33639509D01*
X33910485Y-33547434D01*
X33685105Y-33396840D01*
X33542265Y-33301397D01*
X33107919Y-33215000D01*
X31965142Y-33215000D01*
X29197990Y-30447848D01*
X29038775Y-30288355D01*
X28621766Y-30115197D01*
X28170235Y-30114803D01*
X27752924Y-30287233D01*
X27433365Y-30606235D01*
X27260207Y-31023244D01*
X27259813Y-31474775D01*
X27432243Y-31892086D01*
X27751245Y-32211645D01*
X27751720Y-32211842D01*
X30692444Y-35152566D01*
X31060665Y-35398604D01*
X31495010Y-35485000D01*
X32637787Y-35485000D01*
X33495353Y-36342566D01*
X33569183Y-36391898D01*
X33327628Y-36491706D01*
X33092534Y-36726391D01*
X32965145Y-37033177D01*
X32964855Y-37365361D01*
X33040000Y-37547227D01*
X33040000Y-41452909D01*
X32965145Y-41633179D01*
X32964855Y-41965363D01*
X33091708Y-42272372D01*
X33326393Y-42507466D01*
X33633179Y-42634855D01*
X33965363Y-42635145D01*
X34109805Y-42575463D01*
X34098946Y-42591715D01*
X33985907Y-43160000D01*
X34098946Y-43728285D01*
X34420853Y-44210054D01*
X34750026Y-44430000D01*
X34420853Y-44649946D01*
X34227046Y-44940000D01*
X31321574Y-44940000D01*
X31447401Y-44814173D01*
X31612148Y-44567612D01*
X31621746Y-44519358D01*
X31670000Y-44276772D01*
X31670000Y-37937091D01*
X31744855Y-37756821D01*
X31745145Y-37424637D01*
X31618292Y-37117628D01*
X31383607Y-36882534D01*
X31076821Y-36755145D01*
X30744637Y-36754855D01*
X30437628Y-36881708D01*
X30202534Y-37116393D01*
X30075145Y-37423179D01*
X30074855Y-37755363D01*
X30150000Y-37937229D01*
X30150000Y-42355026D01*
X29954637Y-42354855D01*
X29647628Y-42481708D01*
X29412534Y-42716393D01*
X29285145Y-43023179D01*
X29284855Y-43355363D01*
X29360000Y-43537229D01*
X29360000Y-43705198D01*
X28658892Y-44406306D01*
X28659145Y-44116637D01*
X28532292Y-43809628D01*
X28297607Y-43574534D01*
X28115873Y-43499071D01*
X26430000Y-41813198D01*
X26430000Y-36088802D01*
X28311168Y-37969970D01*
X28385708Y-38150372D01*
X28620393Y-38385466D01*
X28927179Y-38512855D01*
X29259363Y-38513145D01*
X29566372Y-38386292D01*
X29801466Y-38151607D01*
X29928855Y-37844821D01*
X29929145Y-37512637D01*
X29802292Y-37205628D01*
X29567607Y-36970534D01*
X29385873Y-36895071D01*
X27059998Y-34569196D01*
X27059998Y-27135036D01*
X27185363Y-27135145D01*
X27492372Y-27008292D01*
X27727466Y-26773607D01*
X27824998Y-26538723D01*
X27927160Y-26385828D01*
X27950627Y-26267852D01*
X27985012Y-26094988D01*
X27985012Y-22484194D01*
X28721000Y-23220182D01*
X28721000Y-29040829D01*
X28720803Y-29266757D01*
X28893233Y-29684068D01*
X29212235Y-30003627D01*
X29629244Y-30176785D01*
X30080775Y-30177179D01*
X30498086Y-30004749D01*
X30817645Y-29685747D01*
X30990803Y-29268738D01*
X30991197Y-28817207D01*
X30991000Y-28816730D01*
X30991000Y-22750050D01*
X30904603Y-22315704D01*
X30733747Y-22060000D01*
X33790560Y-22060000D01*
X33790560Y-22062000D01*
X33790560Y-22062000D01*
G37*
X33790560Y-22062000D02*
X33834838Y-22297317D01*
X33973910Y-22513441D01*
X34186110Y-22658431D01*
X34438000Y-22709440D01*
X35962000Y-22709440D01*
X36197317Y-22665162D01*
X36290000Y-22605522D01*
X36290000Y-25414521D01*
X35992370Y-25116371D01*
X35479100Y-24903243D01*
X34923339Y-24902758D01*
X34409697Y-25114990D01*
X34016371Y-25507630D01*
X33803243Y-26020900D01*
X33802758Y-26576661D01*
X34014990Y-27090303D01*
X34407630Y-27483629D01*
X34920900Y-27696757D01*
X35476661Y-27697242D01*
X35990303Y-27485010D01*
X36290000Y-27185836D01*
X36290000Y-31502560D01*
X34650000Y-31502560D01*
X34414683Y-31546838D01*
X34198559Y-31685910D01*
X34053569Y-31898110D01*
X34002560Y-32150000D01*
X34002560Y-33639509D01*
X33910485Y-33547434D01*
X33685105Y-33396840D01*
X33542265Y-33301397D01*
X33107919Y-33215000D01*
X31965142Y-33215000D01*
X29197990Y-30447848D01*
X29038775Y-30288355D01*
X28621766Y-30115197D01*
X28170235Y-30114803D01*
X27752924Y-30287233D01*
X27433365Y-30606235D01*
X27260207Y-31023244D01*
X27259813Y-31474775D01*
X27432243Y-31892086D01*
X27751245Y-32211645D01*
X27751720Y-32211842D01*
X30692444Y-35152566D01*
X31060665Y-35398604D01*
X31495010Y-35485000D01*
X32637787Y-35485000D01*
X33495353Y-36342566D01*
X33569183Y-36391898D01*
X33327628Y-36491706D01*
X33092534Y-36726391D01*
X32965145Y-37033177D01*
X32964855Y-37365361D01*
X33040000Y-37547227D01*
X33040000Y-41452909D01*
X32965145Y-41633179D01*
X32964855Y-41965363D01*
X33091708Y-42272372D01*
X33326393Y-42507466D01*
X33633179Y-42634855D01*
X33965363Y-42635145D01*
X34109805Y-42575463D01*
X34098946Y-42591715D01*
X33985907Y-43160000D01*
X34098946Y-43728285D01*
X34420853Y-44210054D01*
X34750026Y-44430000D01*
X34420853Y-44649946D01*
X34227046Y-44940000D01*
X31321574Y-44940000D01*
X31447401Y-44814173D01*
X31612148Y-44567612D01*
X31621746Y-44519358D01*
X31670000Y-44276772D01*
X31670000Y-37937091D01*
X31744855Y-37756821D01*
X31745145Y-37424637D01*
X31618292Y-37117628D01*
X31383607Y-36882534D01*
X31076821Y-36755145D01*
X30744637Y-36754855D01*
X30437628Y-36881708D01*
X30202534Y-37116393D01*
X30075145Y-37423179D01*
X30074855Y-37755363D01*
X30150000Y-37937229D01*
X30150000Y-42355026D01*
X29954637Y-42354855D01*
X29647628Y-42481708D01*
X29412534Y-42716393D01*
X29285145Y-43023179D01*
X29284855Y-43355363D01*
X29360000Y-43537229D01*
X29360000Y-43705198D01*
X28658892Y-44406306D01*
X28659145Y-44116637D01*
X28532292Y-43809628D01*
X28297607Y-43574534D01*
X28115873Y-43499071D01*
X26430000Y-41813198D01*
X26430000Y-36088802D01*
X28311168Y-37969970D01*
X28385708Y-38150372D01*
X28620393Y-38385466D01*
X28927179Y-38512855D01*
X29259363Y-38513145D01*
X29566372Y-38386292D01*
X29801466Y-38151607D01*
X29928855Y-37844821D01*
X29929145Y-37512637D01*
X29802292Y-37205628D01*
X29567607Y-36970534D01*
X29385873Y-36895071D01*
X27059998Y-34569196D01*
X27059998Y-27135036D01*
X27185363Y-27135145D01*
X27492372Y-27008292D01*
X27727466Y-26773607D01*
X27824998Y-26538723D01*
X27927160Y-26385828D01*
X27950627Y-26267852D01*
X27985012Y-26094988D01*
X27985012Y-22484194D01*
X28721000Y-23220182D01*
X28721000Y-29040829D01*
X28720803Y-29266757D01*
X28893233Y-29684068D01*
X29212235Y-30003627D01*
X29629244Y-30176785D01*
X30080775Y-30177179D01*
X30498086Y-30004749D01*
X30817645Y-29685747D01*
X30990803Y-29268738D01*
X30991197Y-28817207D01*
X30991000Y-28816730D01*
X30991000Y-22750050D01*
X30904603Y-22315704D01*
X30733747Y-22060000D01*
X33790560Y-22060000D01*
X33790560Y-22062000D01*
G36*
X13348966Y-38963114D02*
X13583651Y-39198208D01*
X13890437Y-39325597D01*
X14222621Y-39325887D01*
X14529630Y-39199034D01*
X14635055Y-39093792D01*
X14635055Y-43460253D01*
X13797401Y-42622599D01*
X13550839Y-42457852D01*
X13260000Y-42400000D01*
X12372954Y-42400000D01*
X12179147Y-42109946D01*
X11838447Y-41882298D01*
X11981358Y-41815183D01*
X12371645Y-41386924D01*
X12541476Y-40976890D01*
X12420155Y-40747000D01*
X11227000Y-40747000D01*
X11227000Y-40767000D01*
X10973000Y-40767000D01*
X10973000Y-40747000D01*
X10953000Y-40747000D01*
X10953000Y-40493000D01*
X10973000Y-40493000D01*
X10973000Y-40473000D01*
X11227000Y-40473000D01*
X11227000Y-40493000D01*
X12420155Y-40493000D01*
X12541476Y-40263110D01*
X12371645Y-39853076D01*
X11981358Y-39424817D01*
X11838447Y-39357702D01*
X12179147Y-39130054D01*
X12372954Y-38840000D01*
X13298097Y-38840000D01*
X13348966Y-38963114D01*
X13348966Y-38963114D01*
G37*
X13348966Y-38963114D02*
X13583651Y-39198208D01*
X13890437Y-39325597D01*
X14222621Y-39325887D01*
X14529630Y-39199034D01*
X14635055Y-39093792D01*
X14635055Y-43460253D01*
X13797401Y-42622599D01*
X13550839Y-42457852D01*
X13260000Y-42400000D01*
X12372954Y-42400000D01*
X12179147Y-42109946D01*
X11838447Y-41882298D01*
X11981358Y-41815183D01*
X12371645Y-41386924D01*
X12541476Y-40976890D01*
X12420155Y-40747000D01*
X11227000Y-40747000D01*
X11227000Y-40767000D01*
X10973000Y-40767000D01*
X10973000Y-40747000D01*
X10953000Y-40747000D01*
X10953000Y-40493000D01*
X10973000Y-40493000D01*
X10973000Y-40473000D01*
X11227000Y-40473000D01*
X11227000Y-40493000D01*
X12420155Y-40493000D01*
X12541476Y-40263110D01*
X12371645Y-39853076D01*
X11981358Y-39424817D01*
X11838447Y-39357702D01*
X12179147Y-39130054D01*
X12372954Y-38840000D01*
X13298097Y-38840000D01*
X13348966Y-38963114D01*
G36*
X35627000Y-40493000D02*
X35647000Y-40493000D01*
X35647000Y-40747000D01*
X35627000Y-40747000D01*
X35627000Y-40767000D01*
X35373000Y-40767000D01*
X35373000Y-40747000D01*
X35353000Y-40747000D01*
X35353000Y-40493000D01*
X35373000Y-40493000D01*
X35373000Y-40473000D01*
X35627000Y-40473000D01*
X35627000Y-40493000D01*
X35627000Y-40493000D01*
G37*
X35627000Y-40493000D02*
X35647000Y-40493000D01*
X35647000Y-40747000D01*
X35627000Y-40747000D01*
X35627000Y-40767000D01*
X35373000Y-40767000D01*
X35373000Y-40747000D01*
X35353000Y-40747000D01*
X35353000Y-40493000D01*
X35373000Y-40493000D01*
X35373000Y-40473000D01*
X35627000Y-40473000D01*
X35627000Y-40493000D01*
G36*
X12607890Y-12339789D02*
X12841087Y-12904169D01*
X13272512Y-13336349D01*
X13836485Y-13570531D01*
X14447146Y-13571063D01*
X15011526Y-13337866D01*
X15327646Y-13022299D01*
X16062198Y-13756851D01*
X15992534Y-13826393D01*
X15865145Y-14133179D01*
X15864855Y-14465363D01*
X15940000Y-14647229D01*
X15940000Y-17285198D01*
X15412599Y-17812599D01*
X15319080Y-17952560D01*
X15300000Y-17952560D01*
X15064683Y-17996838D01*
X14868000Y-18123400D01*
X14868000Y-17250643D01*
X14810148Y-16959804D01*
X14645401Y-16713242D01*
X13882921Y-15950762D01*
X13927888Y-15842468D01*
X13928420Y-15231807D01*
X13695223Y-14667427D01*
X13263798Y-14235247D01*
X12699825Y-14001065D01*
X12089164Y-14000533D01*
X11524784Y-14233730D01*
X11092604Y-14665155D01*
X10858422Y-15229128D01*
X10857890Y-15839789D01*
X11091087Y-16404169D01*
X11522512Y-16836349D01*
X12086485Y-17070531D01*
X12697146Y-17071063D01*
X12807868Y-17025313D01*
X13348000Y-17565445D01*
X13348000Y-18819596D01*
X13263798Y-18735247D01*
X12699825Y-18501065D01*
X12089164Y-18500533D01*
X11524784Y-18733730D01*
X11092604Y-19165155D01*
X10858422Y-19729128D01*
X10857890Y-20339789D01*
X11091087Y-20904169D01*
X11522512Y-21336349D01*
X12086485Y-21570531D01*
X12697146Y-21571063D01*
X12807868Y-21525313D01*
X12858156Y-21575601D01*
X12858156Y-23066810D01*
X12699825Y-23001065D01*
X12089164Y-23000533D01*
X11524784Y-23233730D01*
X11092604Y-23665155D01*
X11020635Y-23838476D01*
X10295440Y-23113281D01*
X10497466Y-22911607D01*
X10624855Y-22604821D01*
X10625145Y-22272637D01*
X10625000Y-22272286D01*
X10625000Y-19640000D01*
X10561439Y-19320459D01*
X10380434Y-19049566D01*
X9369236Y-18038368D01*
X9251607Y-17920534D01*
X9012991Y-17821452D01*
X9012991Y-15742141D01*
X12608058Y-12147074D01*
X12607890Y-12339789D01*
X12607890Y-12339789D01*
G37*
X12607890Y-12339789D02*
X12841087Y-12904169D01*
X13272512Y-13336349D01*
X13836485Y-13570531D01*
X14447146Y-13571063D01*
X15011526Y-13337866D01*
X15327646Y-13022299D01*
X16062198Y-13756851D01*
X15992534Y-13826393D01*
X15865145Y-14133179D01*
X15864855Y-14465363D01*
X15940000Y-14647229D01*
X15940000Y-17285198D01*
X15412599Y-17812599D01*
X15319080Y-17952560D01*
X15300000Y-17952560D01*
X15064683Y-17996838D01*
X14868000Y-18123400D01*
X14868000Y-17250643D01*
X14810148Y-16959804D01*
X14645401Y-16713242D01*
X13882921Y-15950762D01*
X13927888Y-15842468D01*
X13928420Y-15231807D01*
X13695223Y-14667427D01*
X13263798Y-14235247D01*
X12699825Y-14001065D01*
X12089164Y-14000533D01*
X11524784Y-14233730D01*
X11092604Y-14665155D01*
X10858422Y-15229128D01*
X10857890Y-15839789D01*
X11091087Y-16404169D01*
X11522512Y-16836349D01*
X12086485Y-17070531D01*
X12697146Y-17071063D01*
X12807868Y-17025313D01*
X13348000Y-17565445D01*
X13348000Y-18819596D01*
X13263798Y-18735247D01*
X12699825Y-18501065D01*
X12089164Y-18500533D01*
X11524784Y-18733730D01*
X11092604Y-19165155D01*
X10858422Y-19729128D01*
X10857890Y-20339789D01*
X11091087Y-20904169D01*
X11522512Y-21336349D01*
X12086485Y-21570531D01*
X12697146Y-21571063D01*
X12807868Y-21525313D01*
X12858156Y-21575601D01*
X12858156Y-23066810D01*
X12699825Y-23001065D01*
X12089164Y-23000533D01*
X11524784Y-23233730D01*
X11092604Y-23665155D01*
X11020635Y-23838476D01*
X10295440Y-23113281D01*
X10497466Y-22911607D01*
X10624855Y-22604821D01*
X10625145Y-22272637D01*
X10625000Y-22272286D01*
X10625000Y-19640000D01*
X10561439Y-19320459D01*
X10380434Y-19049566D01*
X9369236Y-18038368D01*
X9251607Y-17920534D01*
X9012991Y-17821452D01*
X9012991Y-15742141D01*
X12608058Y-12147074D01*
X12607890Y-12339789D01*
G36*
X9711673Y-790301D02*
X9615000Y-1023690D01*
X9615000Y-1714250D01*
X9773750Y-1873000D01*
X10973000Y-1873000D01*
X10973000Y-1853000D01*
X11227000Y-1853000D01*
X11227000Y-1873000D01*
X12426250Y-1873000D01*
X12585000Y-1714250D01*
X12585000Y-1023690D01*
X12488327Y-790301D01*
X12408026Y-710000D01*
X34241974Y-710000D01*
X34161673Y-790301D01*
X34065000Y-1023690D01*
X34065000Y-1714250D01*
X34223750Y-1873000D01*
X35423000Y-1873000D01*
X35423000Y-1853000D01*
X35677000Y-1853000D01*
X35677000Y-1873000D01*
X35697000Y-1873000D01*
X35697000Y-2127000D01*
X35677000Y-2127000D01*
X35677000Y-3326250D01*
X35835750Y-3485000D01*
X36290000Y-3485000D01*
X36290000Y-3501583D01*
X12159438Y-3450567D01*
X12309698Y-3388327D01*
X12488327Y-3209699D01*
X12585000Y-2976310D01*
X12585000Y-2285750D01*
X34065000Y-2285750D01*
X34065000Y-2976310D01*
X34161673Y-3209699D01*
X34340302Y-3388327D01*
X34573691Y-3485000D01*
X35264250Y-3485000D01*
X35423000Y-3326250D01*
X35423000Y-2127000D01*
X34223750Y-2127000D01*
X34065000Y-2285750D01*
X12585000Y-2285750D01*
X12426250Y-2127000D01*
X11227000Y-2127000D01*
X11227000Y-2147000D01*
X10973000Y-2147000D01*
X10973000Y-2127000D01*
X9773750Y-2127000D01*
X9615000Y-2285750D01*
X9615000Y-2976310D01*
X9711673Y-3209699D01*
X9890302Y-3388327D01*
X10029692Y-3446064D01*
X8704668Y-3443263D01*
X8653895Y-710000D01*
X9791974Y-710000D01*
X9711673Y-790301D01*
X9711673Y-790301D01*
G37*
X9711673Y-790301D02*
X9615000Y-1023690D01*
X9615000Y-1714250D01*
X9773750Y-1873000D01*
X10973000Y-1873000D01*
X10973000Y-1853000D01*
X11227000Y-1853000D01*
X11227000Y-1873000D01*
X12426250Y-1873000D01*
X12585000Y-1714250D01*
X12585000Y-1023690D01*
X12488327Y-790301D01*
X12408026Y-710000D01*
X34241974Y-710000D01*
X34161673Y-790301D01*
X34065000Y-1023690D01*
X34065000Y-1714250D01*
X34223750Y-1873000D01*
X35423000Y-1873000D01*
X35423000Y-1853000D01*
X35677000Y-1853000D01*
X35677000Y-1873000D01*
X35697000Y-1873000D01*
X35697000Y-2127000D01*
X35677000Y-2127000D01*
X35677000Y-3326250D01*
X35835750Y-3485000D01*
X36290000Y-3485000D01*
X36290000Y-3501583D01*
X12159438Y-3450567D01*
X12309698Y-3388327D01*
X12488327Y-3209699D01*
X12585000Y-2976310D01*
X12585000Y-2285750D01*
X34065000Y-2285750D01*
X34065000Y-2976310D01*
X34161673Y-3209699D01*
X34340302Y-3388327D01*
X34573691Y-3485000D01*
X35264250Y-3485000D01*
X35423000Y-3326250D01*
X35423000Y-2127000D01*
X34223750Y-2127000D01*
X34065000Y-2285750D01*
X12585000Y-2285750D01*
X12426250Y-2127000D01*
X11227000Y-2127000D01*
X11227000Y-2147000D01*
X10973000Y-2147000D01*
X10973000Y-2127000D01*
X9773750Y-2127000D01*
X9615000Y-2285750D01*
X9615000Y-2976310D01*
X9711673Y-3209699D01*
X9890302Y-3388327D01*
X10029692Y-3446064D01*
X8704668Y-3443263D01*
X8653895Y-710000D01*
X9791974Y-710000D01*
X9711673Y-790301D01*
M02*
