%TF.GenerationSoftware,KiCad,Pcbnew,4.0.7*%
%TF.CreationDate,2017-11-19T01:16:01+08:00*%
%TF.ProjectId,Nixie-Tube-with-shiftR,4E697869652D547562652D776974682D,rev?*%
%TF.FileFunction,Legend,Top*%
%FSLAX46Y46*%
G04 Gerber Fmt 4.6, Leading zero omitted, Abs format (unit mm)*
G04 Created by KiCad (PCBNEW 4.0.7) date 11/19/17 01:16:01*
%MOMM*%
%LPD*%
G01*
G04 APERTURE LIST*
%ADD10C,0.100000*%
%ADD11C,0.300000*%
%ADD12C,0.250000*%
%ADD13C,0.153000*%
%ADD14C,0.150000*%
%ADD15C,0.120000*%
G04 APERTURE END LIST*
D10*
D11*
X22928572Y-2878571D02*
X22928572Y-1378571D01*
X22928572Y-2092857D02*
X23785715Y-2092857D01*
X23785715Y-2878571D02*
X23785715Y-1378571D01*
X24285715Y-1378571D02*
X24785715Y-2878571D01*
X25285715Y-1378571D01*
D12*
X12678572Y-46252381D02*
X12678572Y-45252381D01*
X13011906Y-45966667D01*
X13345239Y-45252381D01*
X13345239Y-46252381D01*
X13821429Y-46252381D02*
X13821429Y-45252381D01*
X14250000Y-46204762D02*
X14392857Y-46252381D01*
X14630953Y-46252381D01*
X14726191Y-46204762D01*
X14773810Y-46157143D01*
X14821429Y-46061905D01*
X14821429Y-45966667D01*
X14773810Y-45871429D01*
X14726191Y-45823810D01*
X14630953Y-45776190D01*
X14440476Y-45728571D01*
X14345238Y-45680952D01*
X14297619Y-45633333D01*
X14250000Y-45538095D01*
X14250000Y-45442857D01*
X14297619Y-45347619D01*
X14345238Y-45300000D01*
X14440476Y-45252381D01*
X14678572Y-45252381D01*
X14821429Y-45300000D01*
X15440476Y-45252381D02*
X15630953Y-45252381D01*
X15726191Y-45300000D01*
X15821429Y-45395238D01*
X15869048Y-45585714D01*
X15869048Y-45919048D01*
X15821429Y-46109524D01*
X15726191Y-46204762D01*
X15630953Y-46252381D01*
X15440476Y-46252381D01*
X15345238Y-46204762D01*
X15250000Y-46109524D01*
X15202381Y-45919048D01*
X15202381Y-45585714D01*
X15250000Y-45395238D01*
X15345238Y-45300000D01*
X15440476Y-45252381D01*
X30478572Y-46152381D02*
X30478572Y-45152381D01*
X30811906Y-45866667D01*
X31145239Y-45152381D01*
X31145239Y-46152381D01*
X31811905Y-45152381D02*
X32002382Y-45152381D01*
X32097620Y-45200000D01*
X32192858Y-45295238D01*
X32240477Y-45485714D01*
X32240477Y-45819048D01*
X32192858Y-46009524D01*
X32097620Y-46104762D01*
X32002382Y-46152381D01*
X31811905Y-46152381D01*
X31716667Y-46104762D01*
X31621429Y-46009524D01*
X31573810Y-45819048D01*
X31573810Y-45485714D01*
X31621429Y-45295238D01*
X31716667Y-45200000D01*
X31811905Y-45152381D01*
X32621429Y-46104762D02*
X32764286Y-46152381D01*
X33002382Y-46152381D01*
X33097620Y-46104762D01*
X33145239Y-46057143D01*
X33192858Y-45961905D01*
X33192858Y-45866667D01*
X33145239Y-45771429D01*
X33097620Y-45723810D01*
X33002382Y-45676190D01*
X32811905Y-45628571D01*
X32716667Y-45580952D01*
X32669048Y-45533333D01*
X32621429Y-45438095D01*
X32621429Y-45342857D01*
X32669048Y-45247619D01*
X32716667Y-45200000D01*
X32811905Y-45152381D01*
X33050001Y-45152381D01*
X33192858Y-45200000D01*
X33621429Y-46152381D02*
X33621429Y-45152381D01*
X31064286Y-43604762D02*
X31207143Y-43652381D01*
X31445239Y-43652381D01*
X31540477Y-43604762D01*
X31588096Y-43557143D01*
X31635715Y-43461905D01*
X31635715Y-43366667D01*
X31588096Y-43271429D01*
X31540477Y-43223810D01*
X31445239Y-43176190D01*
X31254762Y-43128571D01*
X31159524Y-43080952D01*
X31111905Y-43033333D01*
X31064286Y-42938095D01*
X31064286Y-42842857D01*
X31111905Y-42747619D01*
X31159524Y-42700000D01*
X31254762Y-42652381D01*
X31492858Y-42652381D01*
X31635715Y-42700000D01*
X32635715Y-43557143D02*
X32588096Y-43604762D01*
X32445239Y-43652381D01*
X32350001Y-43652381D01*
X32207143Y-43604762D01*
X32111905Y-43509524D01*
X32064286Y-43414286D01*
X32016667Y-43223810D01*
X32016667Y-43080952D01*
X32064286Y-42890476D01*
X32111905Y-42795238D01*
X32207143Y-42700000D01*
X32350001Y-42652381D01*
X32445239Y-42652381D01*
X32588096Y-42700000D01*
X32635715Y-42747619D01*
X33064286Y-43652381D02*
X33064286Y-42652381D01*
X33635715Y-43652381D02*
X33207143Y-43080952D01*
X33635715Y-42652381D02*
X33064286Y-43223810D01*
X31538096Y-40100000D02*
X31442858Y-40052381D01*
X31300001Y-40052381D01*
X31157143Y-40100000D01*
X31061905Y-40195238D01*
X31014286Y-40290476D01*
X30966667Y-40480952D01*
X30966667Y-40623810D01*
X31014286Y-40814286D01*
X31061905Y-40909524D01*
X31157143Y-41004762D01*
X31300001Y-41052381D01*
X31395239Y-41052381D01*
X31538096Y-41004762D01*
X31585715Y-40957143D01*
X31585715Y-40623810D01*
X31395239Y-40623810D01*
X32014286Y-41052381D02*
X32014286Y-40052381D01*
X32585715Y-41052381D01*
X32585715Y-40052381D01*
X33061905Y-41052381D02*
X33061905Y-40052381D01*
X33300000Y-40052381D01*
X33442858Y-40100000D01*
X33538096Y-40195238D01*
X33585715Y-40290476D01*
X33633334Y-40480952D01*
X33633334Y-40623810D01*
X33585715Y-40814286D01*
X33538096Y-40909524D01*
X33442858Y-41004762D01*
X33300000Y-41052381D01*
X33061905Y-41052381D01*
X28990476Y-38452381D02*
X28990476Y-37452381D01*
X29371429Y-37452381D01*
X29466667Y-37500000D01*
X29514286Y-37547619D01*
X29561905Y-37642857D01*
X29561905Y-37785714D01*
X29514286Y-37880952D01*
X29466667Y-37928571D01*
X29371429Y-37976190D01*
X28990476Y-37976190D01*
X29895238Y-37452381D02*
X30133333Y-38452381D01*
X30323810Y-37738095D01*
X30514286Y-38452381D01*
X30752381Y-37452381D01*
X31704762Y-38452381D02*
X31371428Y-37976190D01*
X31133333Y-38452381D02*
X31133333Y-37452381D01*
X31514286Y-37452381D01*
X31609524Y-37500000D01*
X31657143Y-37547619D01*
X31704762Y-37642857D01*
X31704762Y-37785714D01*
X31657143Y-37880952D01*
X31609524Y-37928571D01*
X31514286Y-37976190D01*
X31133333Y-37976190D01*
X32133333Y-37928571D02*
X32466667Y-37928571D01*
X32609524Y-38452381D02*
X32133333Y-38452381D01*
X32133333Y-37452381D01*
X32609524Y-37452381D01*
X33038095Y-38452381D02*
X33038095Y-37452381D01*
X33609524Y-38452381D01*
X33609524Y-37452381D01*
X31016667Y-35052381D02*
X31350000Y-36052381D01*
X31683334Y-35052381D01*
X32016667Y-36052381D02*
X32016667Y-35052381D01*
X32254762Y-35052381D01*
X32397620Y-35100000D01*
X32492858Y-35195238D01*
X32540477Y-35290476D01*
X32588096Y-35480952D01*
X32588096Y-35623810D01*
X32540477Y-35814286D01*
X32492858Y-35909524D01*
X32397620Y-36004762D01*
X32254762Y-36052381D01*
X32016667Y-36052381D01*
X33588096Y-35957143D02*
X33540477Y-36004762D01*
X33397620Y-36052381D01*
X33302382Y-36052381D01*
X33159524Y-36004762D01*
X33064286Y-35909524D01*
X33016667Y-35814286D01*
X32969048Y-35623810D01*
X32969048Y-35480952D01*
X33016667Y-35290476D01*
X33064286Y-35195238D01*
X33159524Y-35100000D01*
X33302382Y-35052381D01*
X33397620Y-35052381D01*
X33540477Y-35100000D01*
X33588096Y-35147619D01*
X29357143Y-33604762D02*
X29500000Y-33652381D01*
X29738096Y-33652381D01*
X29833334Y-33604762D01*
X29880953Y-33557143D01*
X29928572Y-33461905D01*
X29928572Y-33366667D01*
X29880953Y-33271429D01*
X29833334Y-33223810D01*
X29738096Y-33176190D01*
X29547619Y-33128571D01*
X29452381Y-33080952D01*
X29404762Y-33033333D01*
X29357143Y-32938095D01*
X29357143Y-32842857D01*
X29404762Y-32747619D01*
X29452381Y-32700000D01*
X29547619Y-32652381D01*
X29785715Y-32652381D01*
X29928572Y-32700000D01*
X30214286Y-32652381D02*
X30785715Y-32652381D01*
X30500000Y-33652381D02*
X30500000Y-32652381D01*
X31309524Y-32652381D02*
X31500001Y-32652381D01*
X31595239Y-32700000D01*
X31690477Y-32795238D01*
X31738096Y-32985714D01*
X31738096Y-33319048D01*
X31690477Y-33509524D01*
X31595239Y-33604762D01*
X31500001Y-33652381D01*
X31309524Y-33652381D01*
X31214286Y-33604762D01*
X31119048Y-33509524D01*
X31071429Y-33319048D01*
X31071429Y-32985714D01*
X31119048Y-32795238D01*
X31214286Y-32700000D01*
X31309524Y-32652381D01*
X32738096Y-33652381D02*
X32404762Y-33176190D01*
X32166667Y-33652381D02*
X32166667Y-32652381D01*
X32547620Y-32652381D01*
X32642858Y-32700000D01*
X32690477Y-32747619D01*
X32738096Y-32842857D01*
X32738096Y-32985714D01*
X32690477Y-33080952D01*
X32642858Y-33128571D01*
X32547620Y-33176190D01*
X32166667Y-33176190D01*
X33166667Y-33128571D02*
X33500001Y-33128571D01*
X33642858Y-33652381D02*
X33166667Y-33652381D01*
X33166667Y-32652381D01*
X33642858Y-32652381D01*
D13*
X19865000Y-26270000D02*
X19405000Y-28120000D01*
X19535000Y-26310000D02*
X19445000Y-26710000D01*
X20549000Y-27369000D02*
X19335000Y-29490000D01*
X19475000Y-29110000D02*
X19835000Y-27990000D01*
X20145000Y-26340000D02*
X19615000Y-28020000D01*
X20355000Y-27440000D02*
X19915000Y-28410000D01*
X19963000Y-27820500D02*
X19579000Y-28881200D01*
X19309000Y-29489200D02*
X19746000Y-28006900D01*
X19485000Y-26430000D02*
X19415000Y-26230000D01*
X19615000Y-26190000D02*
X19571000Y-26534200D01*
X19167000Y-26152400D02*
X20903000Y-26211500D01*
X19746000Y-28006900D02*
X19161000Y-28272600D01*
X19270000Y-28087700D02*
X19963000Y-27820500D01*
X20475000Y-26300000D02*
X20135000Y-27090000D01*
X20645000Y-26250000D02*
X20805000Y-26240000D01*
X20903000Y-26211500D02*
X19793000Y-27552100D01*
X19161000Y-28272600D02*
X19415000Y-26430000D01*
X19793000Y-27552100D02*
X20549000Y-27369000D01*
X19445000Y-26650000D02*
X19285000Y-27780000D01*
X19695000Y-26310000D02*
X20645000Y-26250000D01*
X19495000Y-26270000D02*
X19485000Y-26430000D01*
X19326000Y-26227600D02*
X19579000Y-26358800D01*
X20045000Y-27510000D02*
X19845000Y-27940000D01*
X19245000Y-28170000D02*
X19855000Y-27910000D01*
X19571000Y-26534200D02*
X19270000Y-28087700D01*
X19415000Y-26430000D02*
X19167000Y-26152400D01*
X30140000Y-820000D02*
X29680000Y-2670000D01*
X29810000Y-860000D02*
X29720000Y-1260000D01*
X30824000Y-1919000D02*
X29610000Y-4040000D01*
X29750000Y-3660000D02*
X30110000Y-2540000D01*
X30420000Y-890000D02*
X29890000Y-2570000D01*
X30630000Y-1990000D02*
X30190000Y-2960000D01*
X30238000Y-2370500D02*
X29854000Y-3431200D01*
X29584000Y-4039200D02*
X30021000Y-2556900D01*
X29760000Y-980000D02*
X29690000Y-780000D01*
X29890000Y-740000D02*
X29846000Y-1084200D01*
X29442000Y-702400D02*
X31178000Y-761500D01*
X30021000Y-2556900D02*
X29436000Y-2822600D01*
X29545000Y-2637700D02*
X30238000Y-2370500D01*
X30750000Y-850000D02*
X30410000Y-1640000D01*
X30920000Y-800000D02*
X31080000Y-790000D01*
X31178000Y-761500D02*
X30068000Y-2102100D01*
X29436000Y-2822600D02*
X29690000Y-980000D01*
X30068000Y-2102100D02*
X30824000Y-1919000D01*
X29720000Y-1200000D02*
X29560000Y-2330000D01*
X29970000Y-860000D02*
X30920000Y-800000D01*
X29770000Y-820000D02*
X29760000Y-980000D01*
X29601000Y-777600D02*
X29854000Y-908800D01*
X30320000Y-2060000D02*
X30120000Y-2490000D01*
X29520000Y-2720000D02*
X30130000Y-2460000D01*
X29846000Y-1084200D02*
X29545000Y-2637700D01*
X29690000Y-980000D02*
X29442000Y-702400D01*
X18850000Y-3150000D02*
X19270000Y-3010000D01*
X15930000Y-3550000D02*
X16030000Y-3580000D01*
X17800000Y-2550000D02*
X17590000Y-2230000D01*
X16540000Y-2170000D02*
X16790000Y-2330000D01*
X17620000Y-2270000D02*
X17700000Y-2670000D01*
X17040000Y-2860000D02*
X16900000Y-2710000D01*
X17090000Y-2920000D02*
X16910000Y-2910000D01*
X17720000Y-2300000D02*
X17540000Y-2150000D01*
X17090000Y-2970000D02*
X17200000Y-2860000D01*
X15750000Y-1300000D02*
X15960000Y-1120000D01*
X15530000Y-1110000D02*
X15720000Y-1210000D01*
X16050000Y-3390000D02*
X16160000Y-3180000D01*
X16510000Y-1640000D02*
X16310000Y-2080000D01*
X17040000Y-2510000D02*
X16850000Y-2340000D01*
X17640000Y-2750000D02*
X17240000Y-2740000D01*
X16780000Y-2410000D02*
X16390000Y-2120000D01*
X16550000Y-2550000D02*
X16840000Y-2610000D01*
X18450000Y-2880000D02*
X18750000Y-3150000D01*
X16000000Y-1290000D02*
X15930000Y-1280000D01*
X17240000Y-2360000D02*
X16590000Y-2300000D01*
X16390000Y-2680000D02*
X16930000Y-2770000D01*
X17540000Y-3460000D02*
X17730000Y-2840000D01*
X16730000Y-3020000D02*
X16980000Y-2920000D01*
X18500000Y-2880000D02*
X18930000Y-2990000D01*
X18210000Y-2310000D02*
X18330000Y-2260000D01*
X15980000Y-3310000D02*
X15700000Y-3370000D01*
X17170000Y-2510000D02*
X16990000Y-2430000D01*
X17470000Y-2860000D02*
X17390000Y-3420000D01*
X18140000Y-2880000D02*
X18050000Y-2650000D01*
X16390000Y-2060000D02*
X16560000Y-2370000D01*
X15910000Y-3430000D02*
X15930000Y-3550000D01*
X16510000Y-2070000D02*
X16670000Y-1700000D01*
X17830000Y-2860000D02*
X17990000Y-2990000D01*
X17320000Y-2320000D02*
X17120000Y-2740000D01*
X18850000Y-3040000D02*
X18490000Y-2880000D01*
X18750000Y-3150000D02*
X18800000Y-3350000D01*
X17020000Y-2580000D02*
X17290000Y-2700000D01*
X17220000Y-2820000D02*
X17140000Y-2830000D01*
X17890000Y-2560000D02*
X17560000Y-2040000D01*
X16320000Y-2060000D02*
X16380000Y-2690000D01*
X16220000Y-1530000D02*
X15750000Y-1300000D01*
X15960000Y-1120000D02*
X16240000Y-1500000D01*
X16030000Y-3580000D02*
X16050000Y-3390000D01*
X15680000Y-3490000D02*
X15910000Y-3430000D01*
X17950000Y-2980000D02*
X18120000Y-2860000D01*
X18180000Y-2410000D02*
X17650000Y-2370000D01*
X16300000Y-3030000D02*
X15980000Y-3310000D01*
X17130000Y-1600000D02*
X16660000Y-1650000D01*
X15700000Y-3370000D02*
X15680000Y-3490000D01*
X16390000Y-2120000D02*
X16660000Y-1660000D01*
X17390000Y-3420000D02*
X17470000Y-2860000D01*
X16560000Y-2090000D02*
X16650000Y-2380000D01*
X15720000Y-1210000D02*
X15930000Y-950000D01*
X17120000Y-3460000D02*
X17350000Y-3470000D01*
X17940000Y-2770000D02*
X17820000Y-2860000D01*
X15860000Y-1090000D02*
X15880000Y-900000D01*
X17780000Y-2910000D02*
X18060000Y-2730000D01*
X17350000Y-3470000D02*
X17550000Y-3420000D01*
X16520000Y-1630000D02*
X16830000Y-1400000D01*
X16660000Y-1660000D02*
X16940000Y-1470000D01*
X16840000Y-2790000D02*
X16690000Y-2930000D01*
X17260000Y-2900000D02*
X17220000Y-3410000D01*
X17230000Y-2770000D02*
X17820000Y-2630000D01*
X17320000Y-2850000D02*
X17610000Y-2870000D01*
X18800000Y-3350000D02*
X18940000Y-3240000D01*
X17680000Y-1770000D02*
X17140000Y-1600000D01*
X17230000Y-1700000D02*
X17470000Y-1830000D01*
X18500000Y-2410000D02*
X18160000Y-2630000D01*
X18360000Y-2190000D02*
X18340000Y-2290000D01*
X17480000Y-1850000D02*
X17630000Y-1650000D01*
X18440000Y-1280000D02*
X18730000Y-950000D01*
X18800000Y-930000D02*
X19120000Y-900000D01*
X18730000Y-950000D02*
X18680000Y-740000D01*
X18800000Y-1060000D02*
X18570000Y-1210000D01*
X18440000Y-1790000D02*
X18050000Y-1380000D01*
X17920000Y-1510000D02*
X16970000Y-1530000D01*
X17350000Y-2000000D02*
X17440000Y-2110000D01*
X17440000Y-2110000D02*
X17300000Y-2290000D01*
X17900000Y-1470000D02*
X17580000Y-1640000D01*
X18500000Y-2380000D02*
X18440000Y-1810000D01*
X18680000Y-740000D02*
X18840000Y-730000D01*
X16890000Y-1520000D02*
X17350000Y-2000000D01*
X17900000Y-2500000D02*
X18300000Y-2140000D01*
X18010000Y-1370000D02*
X16840000Y-1400000D01*
X17140000Y-1600000D02*
X17060000Y-1710000D01*
X16970000Y-1530000D02*
X17060000Y-1660000D01*
X17210000Y-1590000D02*
X17680000Y-1770000D01*
X16940000Y-1470000D02*
X18000000Y-1480000D01*
X18840000Y-730000D02*
X18800000Y-930000D01*
X17520000Y-2070000D02*
X18010000Y-1530000D01*
X19080000Y-1060000D02*
X18800000Y-1060000D01*
X17810000Y-1710000D02*
X17920000Y-1640000D01*
X18380000Y-1900000D02*
X18420000Y-2410000D01*
X18000000Y-1480000D02*
X18380000Y-1900000D01*
X19120000Y-900000D02*
X19080000Y-1060000D01*
X18140000Y-1680000D02*
X18380000Y-2020000D01*
X19270000Y-3010000D02*
X19070000Y-2930000D01*
X19070000Y-2930000D02*
X18850000Y-3040000D01*
X18940000Y-3240000D02*
X18850000Y-3150000D01*
X15420000Y-1210000D02*
X15530000Y-1110000D01*
X15730000Y-1290000D02*
X15420000Y-1210000D01*
X17050000Y-2990000D02*
X17060000Y-3470000D01*
D14*
X36350000Y-18950000D02*
X36350000Y-11850000D01*
X33950000Y-18950000D02*
X36350000Y-18950000D01*
X33950000Y-11850000D02*
X33950000Y-18950000D01*
X36350000Y-11850000D02*
X33950000Y-11850000D01*
X36400000Y-27300000D02*
X36400000Y-20200000D01*
X34000000Y-27300000D02*
X36400000Y-27300000D01*
X34000000Y-20200000D02*
X34000000Y-27300000D01*
X36400000Y-20200000D02*
X34000000Y-20200000D01*
D15*
X14550000Y-18200000D02*
X20650000Y-18200000D01*
X14550000Y-19300000D02*
X14550000Y-18200000D01*
X20650000Y-23600000D02*
X15650000Y-23600000D01*
D13*
X16952381Y-27884524D02*
X16952381Y-28572619D01*
X16992857Y-28653571D01*
X17033333Y-28694048D01*
X17114286Y-28734524D01*
X17276190Y-28734524D01*
X17357143Y-28694048D01*
X17397619Y-28653571D01*
X17438095Y-28572619D01*
X17438095Y-27884524D01*
X17802381Y-27965476D02*
X17842857Y-27925000D01*
X17923809Y-27884524D01*
X18126190Y-27884524D01*
X18207143Y-27925000D01*
X18247619Y-27965476D01*
X18288095Y-28046429D01*
X18288095Y-28127381D01*
X18247619Y-28248810D01*
X17761905Y-28734524D01*
X18288095Y-28734524D01*
X33534524Y-17332143D02*
X32684524Y-17332143D01*
X33534524Y-16846429D01*
X32684524Y-16846429D01*
X33089286Y-16441667D02*
X33089286Y-16158334D01*
X33534524Y-16036905D02*
X33534524Y-16441667D01*
X32684524Y-16441667D01*
X32684524Y-16036905D01*
X32765476Y-15713095D02*
X32725000Y-15672619D01*
X32684524Y-15591667D01*
X32684524Y-15389286D01*
X32725000Y-15308333D01*
X32765476Y-15267857D01*
X32846429Y-15227381D01*
X32927381Y-15227381D01*
X33048810Y-15267857D01*
X33534524Y-15753571D01*
X33534524Y-15227381D01*
X33584524Y-25682143D02*
X32734524Y-25682143D01*
X33584524Y-25196429D01*
X32734524Y-25196429D01*
X33139286Y-24791667D02*
X33139286Y-24508334D01*
X33584524Y-24386905D02*
X33584524Y-24791667D01*
X32734524Y-24791667D01*
X32734524Y-24386905D01*
X33584524Y-23577381D02*
X33584524Y-24063095D01*
X33584524Y-23820238D02*
X32734524Y-23820238D01*
X32855952Y-23901190D01*
X32936905Y-23982143D01*
X32977381Y-24063095D01*
D14*
X17411905Y-17852381D02*
X17411905Y-16852381D01*
X17650000Y-16852381D01*
X17792858Y-16900000D01*
X17888096Y-16995238D01*
X17935715Y-17090476D01*
X17983334Y-17280952D01*
X17983334Y-17423810D01*
X17935715Y-17614286D01*
X17888096Y-17709524D01*
X17792858Y-17804762D01*
X17650000Y-17852381D01*
X17411905Y-17852381D01*
X18935715Y-17852381D02*
X18364286Y-17852381D01*
X18650000Y-17852381D02*
X18650000Y-16852381D01*
X18554762Y-16995238D01*
X18459524Y-17090476D01*
X18364286Y-17138095D01*
M02*
