%TF.GenerationSoftware,KiCad,Pcbnew,4.0.7*%
%TF.CreationDate,2017-11-22T17:51:59+08:00*%
%TF.ProjectId,NixieTube_QS27,4E69786965547562655F515332372E6B,rev?*%
%TF.FileFunction,Copper,L2,Bot,Signal*%
%FSLAX46Y46*%
G04 Gerber Fmt 4.6, Leading zero omitted, Abs format (unit mm)*
G04 Created by KiCad (PCBNEW 4.0.7) date 11/22/17 17:51:59*
%MOMM*%
%LPD*%
G01*
G04 APERTURE LIST*
%ADD10C,0.100000*%
%ADD11C,0.300000*%
%ADD12R,0.900000X0.800000*%
%ADD13R,2.000000X0.600000*%
%ADD14O,2.000000X0.600000*%
%ADD15R,0.900000X0.500000*%
%ADD16R,2.000000X3.800000*%
%ADD17R,2.000000X1.500000*%
%ADD18R,0.800000X0.750000*%
%ADD19R,0.600000X2.000000*%
%ADD20O,0.600000X2.000000*%
%ADD21R,0.500000X0.900000*%
%ADD22C,3.500000*%
%ADD23R,1.700000X1.700000*%
%ADD24O,1.700000X1.700000*%
%ADD25R,1.524000X1.524000*%
%ADD26C,1.524000*%
%ADD27C,1.800000*%
%ADD28C,0.453000*%
%ADD29C,1.000000*%
%ADD30C,0.400000*%
%ADD31C,1.000000*%
%ADD32C,0.250000*%
%ADD33C,0.500000*%
%ADD34C,0.400000*%
%ADD35C,0.254000*%
G04 APERTURE END LIST*
D10*
D11*
X25740952Y-7248095D02*
X25307619Y-8548095D01*
X24874286Y-7248095D01*
X24440952Y-8424286D02*
X24379047Y-8486190D01*
X24440952Y-8548095D01*
X24502857Y-8486190D01*
X24440952Y-8424286D01*
X24440952Y-8548095D01*
X23574285Y-7248095D02*
X23450476Y-7248095D01*
X23326666Y-7310000D01*
X23264761Y-7371905D01*
X23202857Y-7495714D01*
X23140952Y-7743333D01*
X23140952Y-8052857D01*
X23202857Y-8300476D01*
X23264761Y-8424286D01*
X23326666Y-8486190D01*
X23450476Y-8548095D01*
X23574285Y-8548095D01*
X23698095Y-8486190D01*
X23759999Y-8424286D01*
X23821904Y-8300476D01*
X23883809Y-8052857D01*
X23883809Y-7743333D01*
X23821904Y-7495714D01*
X23759999Y-7371905D01*
X23698095Y-7310000D01*
X23574285Y-7248095D01*
X21902857Y-8548095D02*
X22645714Y-8548095D01*
X22274285Y-8548095D02*
X22274285Y-7248095D01*
X22398095Y-7433810D01*
X22521904Y-7557619D01*
X22645714Y-7619524D01*
D12*
X17650000Y-15250000D03*
X17650000Y-17150000D03*
X15650000Y-16200000D03*
D13*
X7500000Y-20580000D03*
D14*
X7500000Y-21850000D03*
X7500000Y-23120000D03*
X7500000Y-24390000D03*
X7500000Y-25660000D03*
X7500000Y-26930000D03*
X7500000Y-28200000D03*
X1650000Y-28200000D03*
X1650000Y-26930000D03*
X1650000Y-25660000D03*
X1650000Y-24390000D03*
X1650000Y-23120000D03*
X1650000Y-21850000D03*
X1650000Y-20580000D03*
X7500000Y-29470000D03*
X1650000Y-29470000D03*
D15*
X21950000Y-44250000D03*
X21950000Y-45750000D03*
D16*
X16600000Y-51700000D03*
D17*
X10300000Y-51700000D03*
X10300000Y-49400000D03*
X10300000Y-54000000D03*
D18*
X31760000Y-31940000D03*
X30260000Y-31940000D03*
D15*
X33000000Y-12700000D03*
X33000000Y-14200000D03*
X31000000Y-14200000D03*
X31000000Y-12700000D03*
D12*
X33050000Y-15950000D03*
X33050000Y-17850000D03*
X31050000Y-16900000D03*
D19*
X19490000Y-48570000D03*
D20*
X20760000Y-48570000D03*
X22030000Y-48570000D03*
X23300000Y-48570000D03*
X24570000Y-48570000D03*
X25840000Y-48570000D03*
X27110000Y-48570000D03*
X27110000Y-54420000D03*
X25840000Y-54420000D03*
X24570000Y-54420000D03*
X23300000Y-54420000D03*
X22030000Y-54420000D03*
X20760000Y-54420000D03*
X19490000Y-54420000D03*
X28380000Y-48570000D03*
X28380000Y-54420000D03*
D15*
X32950000Y-21050000D03*
X32950000Y-22550000D03*
X31050000Y-22600000D03*
X31050000Y-21100000D03*
D21*
X23900000Y-36625000D03*
X25400000Y-36625000D03*
X30800000Y-36625000D03*
X32300000Y-36625000D03*
X23950000Y-42275000D03*
X25450000Y-42275000D03*
X16950000Y-31000000D03*
X18450000Y-31000000D03*
X31000000Y-42125000D03*
X32500000Y-42125000D03*
X16750000Y-36625000D03*
X18250000Y-36625000D03*
X16950000Y-42250000D03*
X18450000Y-42250000D03*
X1800000Y-13150000D03*
X3300000Y-13150000D03*
X24100000Y-31000000D03*
X25600000Y-31000000D03*
X7675000Y-13175000D03*
X6175000Y-13175000D03*
X21100000Y-23000000D03*
X19600000Y-23000000D03*
X21100000Y-18950000D03*
X19600000Y-18950000D03*
X21100000Y-15100000D03*
X19600000Y-15100000D03*
D15*
X29000000Y-38625000D03*
X29000000Y-40125000D03*
X14950000Y-33400000D03*
X14950000Y-34900000D03*
X14950000Y-38625000D03*
X14950000Y-40125000D03*
X14950000Y-44425000D03*
X14950000Y-45925000D03*
X21950000Y-33400000D03*
X21950000Y-34900000D03*
X22100000Y-38625000D03*
X22100000Y-40125000D03*
X29000000Y-44350000D03*
X29000000Y-45850000D03*
D21*
X3350000Y-18150000D03*
X1850000Y-18150000D03*
X7725000Y-18075000D03*
X6225000Y-18075000D03*
D12*
X33150000Y-24200000D03*
X33150000Y-26100000D03*
X31150000Y-25150000D03*
X17650000Y-23050000D03*
X17650000Y-24950000D03*
X15650000Y-24000000D03*
X17650000Y-19050000D03*
X17650000Y-20950000D03*
X15650000Y-20000000D03*
X25750000Y-38425000D03*
X25750000Y-40325000D03*
X23750000Y-39375000D03*
X32800000Y-38425000D03*
X32800000Y-40325000D03*
X30800000Y-39375000D03*
X25750000Y-44000000D03*
X25750000Y-45900000D03*
X23750000Y-44950000D03*
X18750000Y-33050000D03*
X18750000Y-34950000D03*
X16750000Y-34000000D03*
X32800000Y-43925000D03*
X32800000Y-45825000D03*
X30800000Y-44875000D03*
X18750000Y-38425000D03*
X18750000Y-40325000D03*
X16750000Y-39375000D03*
X18750000Y-44000000D03*
X18750000Y-45900000D03*
X16750000Y-44950000D03*
X25750000Y-33050000D03*
X25750000Y-34950000D03*
X23750000Y-34000000D03*
X7875000Y-14725000D03*
X7875000Y-16625000D03*
X5875000Y-15675000D03*
D18*
X30250000Y-34350000D03*
X31750000Y-34350000D03*
D12*
X3600000Y-14700000D03*
X3600000Y-16600000D03*
X1600000Y-15650000D03*
D22*
X33030000Y-51900000D03*
X4700000Y-51900000D03*
X3500000Y-7700000D03*
X33300000Y-7700000D03*
D18*
X31750000Y-30500000D03*
X30250000Y-30500000D03*
D23*
X11100000Y-33000000D03*
D24*
X11100000Y-35540000D03*
X11100000Y-38080000D03*
X11100000Y-40620000D03*
X11100000Y-43160000D03*
X11100000Y-45700000D03*
D23*
X35500000Y-33000000D03*
D24*
X35500000Y-35540000D03*
X35500000Y-38080000D03*
X35500000Y-40620000D03*
X35500000Y-43160000D03*
X35500000Y-45700000D03*
D23*
X35550000Y-2000000D03*
X11100000Y-2000000D03*
D25*
X35150000Y-12950000D03*
D26*
X35150000Y-17950000D03*
D25*
X35200000Y-21300000D03*
D26*
X35200000Y-26300000D03*
D27*
X23893155Y-15535798D03*
X23893155Y-20035798D03*
X23893155Y-24535798D03*
X12393155Y-15535798D03*
X12393155Y-20035798D03*
X12393155Y-24535798D03*
X14143155Y-12035798D03*
X22143155Y-12035798D03*
X14143155Y-28035798D03*
X22143155Y-28035798D03*
X18143155Y-11035798D03*
D28*
X13555976Y-17839930D03*
X17475000Y-54325000D03*
X16300000Y-47700000D03*
X9700000Y-17750000D03*
X14700000Y-21000000D03*
X15000000Y-17200000D03*
X14700000Y-23700000D03*
X7100000Y-32800000D03*
D29*
X27400000Y-40898000D03*
X27400000Y-38350000D03*
D28*
X6343028Y-29116972D03*
X4700000Y-18050000D03*
D30*
X6900000Y-16600004D03*
X4950000Y-16599979D03*
D29*
X20350000Y-40350000D03*
X20350000Y-46350000D03*
X20350000Y-38500000D03*
D28*
X3800000Y-24300000D03*
X22780010Y-53868490D03*
X18934000Y-54696000D03*
D29*
X29856000Y-29041982D03*
D30*
X21423562Y-22276010D03*
X21474000Y-19644000D03*
D29*
X1575000Y-31275000D03*
D28*
X26566536Y-54600000D03*
D29*
X4450000Y-19650008D03*
D28*
X24700000Y-11450000D03*
D29*
X1523487Y-19650000D03*
D28*
X1600000Y-27656500D03*
D30*
X20299990Y-23700000D03*
D28*
X17013242Y-18100000D03*
D30*
X16935407Y-22350011D03*
X24100000Y-52050000D03*
X25900000Y-53099994D03*
X34240000Y-47050000D03*
X13532248Y-37984650D03*
D29*
X28579021Y-19776001D03*
D28*
X28950000Y-2650000D03*
X19700000Y-2000000D03*
X14850000Y-1200000D03*
X28840000Y-1975000D03*
X31380000Y-1975000D03*
X32650000Y-1975000D03*
X13600000Y-2000000D03*
X14870000Y-2000000D03*
D29*
X25950000Y-25049992D03*
D30*
X8778000Y-18628000D03*
X9790000Y-22438000D03*
X22744000Y-21676000D03*
X8859728Y-19558272D03*
X16030000Y-27810000D03*
X25670000Y-28070000D03*
X27824000Y-44282000D03*
X20900020Y-28749990D03*
X21474000Y-43266000D03*
X17243028Y-28856211D03*
X19275022Y-26760020D03*
X21220000Y-37932000D03*
X17628843Y-26831178D03*
X20966000Y-33106000D03*
X19820000Y-26260000D03*
X17561034Y-26235010D03*
X17599994Y-43700000D03*
X18700000Y-28331201D03*
X14159225Y-30467968D03*
X14057258Y-38490742D03*
X20450009Y-32090000D03*
X29094000Y-37678000D03*
X23014625Y-52172147D03*
X30910000Y-37590000D03*
X23900000Y-37800000D03*
X24000022Y-48550000D03*
X18141404Y-47231404D03*
X17000000Y-31980000D03*
X25270012Y-48550000D03*
X24567762Y-43216825D03*
X27120000Y-47020000D03*
X30120000Y-43190000D03*
X15950000Y-36550000D03*
X19036951Y-47200433D03*
D28*
X2600000Y-16650000D03*
X2526510Y-21288180D03*
D30*
X21460016Y-48450000D03*
X16950000Y-43200000D03*
X22775000Y-30974998D03*
X22730022Y-48550000D03*
X27020000Y-26300000D03*
D28*
X25550000Y-17400000D03*
D29*
X28395010Y-31250000D03*
X10299996Y-47475000D03*
D30*
X33107919Y-34350000D03*
X33714990Y-46430464D03*
D28*
X24025847Y-55247510D03*
D30*
X33800000Y-37199998D03*
X33800000Y-41800000D03*
X25482722Y-52490736D03*
X4900021Y-26434673D03*
X2500010Y-26182780D03*
X16700000Y-14300000D03*
X20300000Y-16400000D03*
D28*
X19255489Y-20600000D03*
D31*
X25750000Y-45900000D02*
X27322004Y-45900000D01*
X27322004Y-45900000D02*
X28322004Y-46900000D01*
X28322004Y-46900000D02*
X28700000Y-46900000D01*
X31750000Y-30500000D02*
X31750000Y-31930000D01*
X31750000Y-31930000D02*
X31760000Y-31940000D01*
X30250000Y-34350000D02*
X30250000Y-33940000D01*
X30250000Y-33940000D02*
X31750000Y-32440000D01*
X31750000Y-32440000D02*
X31750000Y-32070000D01*
X20340000Y-35400000D02*
X20340000Y-35090000D01*
X20200000Y-34950000D02*
X18750000Y-34950000D01*
X20340000Y-35090000D02*
X20200000Y-34950000D01*
X31750000Y-30500000D02*
X31750000Y-27500000D01*
X31750000Y-27500000D02*
X33150000Y-26100000D01*
X20065999Y-38215999D02*
X20350000Y-38500000D01*
X20065999Y-35674001D02*
X20065999Y-38215999D01*
X20340000Y-35400000D02*
X20065999Y-35674001D01*
D32*
X13782475Y-17613431D02*
X13555976Y-17839930D01*
X14195906Y-17200000D02*
X13782475Y-17613431D01*
X15000000Y-17200000D02*
X14195906Y-17200000D01*
D33*
X12125000Y-54325000D02*
X17475000Y-54325000D01*
X10300000Y-54000000D02*
X11800000Y-54000000D01*
X11800000Y-54000000D02*
X12125000Y-54325000D01*
D32*
X3600000Y-16600000D02*
X3650000Y-16600000D01*
X14700000Y-24485002D02*
X14700000Y-23700000D01*
X15164998Y-24950000D02*
X14700000Y-24485002D01*
X17650000Y-24950000D02*
X15164998Y-24950000D01*
X18750000Y-45900000D02*
X18700000Y-45900000D01*
X18700000Y-45900000D02*
X16900000Y-47700000D01*
X16900000Y-47700000D02*
X16300000Y-47700000D01*
X7875000Y-16625000D02*
X8575000Y-16625000D01*
X8575000Y-16625000D02*
X9700000Y-17750000D01*
X14750000Y-20950000D02*
X14700000Y-21000000D01*
X17650000Y-20950000D02*
X14750000Y-20950000D01*
X15000000Y-17200000D02*
X17600000Y-17200000D01*
X17600000Y-17200000D02*
X17650000Y-17150000D01*
D33*
X7100000Y-36620000D02*
X7100000Y-32800000D01*
X11100000Y-40620000D02*
X7100000Y-36620000D01*
D31*
X18750000Y-45900000D02*
X18599999Y-46050001D01*
X26827000Y-40325000D02*
X27400000Y-40898000D01*
X27400000Y-40898000D02*
X28362002Y-41860002D01*
X27423630Y-34350000D02*
X27423630Y-38326370D01*
X27423630Y-38326370D02*
X27400000Y-38350000D01*
D33*
X6343028Y-29116972D02*
X6343028Y-29193028D01*
X7420000Y-29550000D02*
X7500000Y-29470000D01*
X6343028Y-29193028D02*
X6700000Y-29550000D01*
X6700000Y-29550000D02*
X7420000Y-29550000D01*
X1650000Y-24390000D02*
X3710000Y-24390000D01*
X3710000Y-24390000D02*
X3800000Y-24300000D01*
X4700000Y-18050000D02*
X4700000Y-16849979D01*
X4700000Y-16849979D02*
X4950000Y-16599979D01*
X6924996Y-16625000D02*
X6900000Y-16600004D01*
X7875000Y-16625000D02*
X6924996Y-16625000D01*
X3600000Y-16600000D02*
X4949979Y-16600000D01*
X4949979Y-16600000D02*
X4950000Y-16599979D01*
D31*
X20350000Y-46350000D02*
X20350000Y-40350000D01*
X20350000Y-40350000D02*
X20325000Y-40325000D01*
X20350000Y-40350000D02*
X21350000Y-41350000D01*
X21350000Y-41350000D02*
X22850000Y-41350000D01*
X22850000Y-41350000D02*
X23724999Y-40475001D01*
X23724999Y-40475001D02*
X25599999Y-40475001D01*
X25599999Y-40475001D02*
X25750000Y-40325000D01*
X18750000Y-40325000D02*
X20325000Y-40325000D01*
X18750000Y-45900000D02*
X19900000Y-45900000D01*
X19900000Y-45900000D02*
X20350000Y-46350000D01*
X25750000Y-45900000D02*
X24800001Y-46849999D01*
X24800001Y-46849999D02*
X20849999Y-46849999D01*
X20849999Y-46849999D02*
X20350000Y-46350000D01*
X20340000Y-35400000D02*
X20950000Y-36010000D01*
X28700000Y-46900000D02*
X31675000Y-46900000D01*
D34*
X28380000Y-47170000D02*
X28650000Y-46900000D01*
X28380000Y-48570000D02*
X28380000Y-47170000D01*
X28650000Y-46900000D02*
X28700000Y-46900000D01*
D31*
X31675000Y-46900000D02*
X32750000Y-45825000D01*
X32750000Y-45825000D02*
X32800000Y-45825000D01*
D34*
X28380000Y-49270000D02*
X28380000Y-48570000D01*
D31*
X11100000Y-40620000D02*
X12302081Y-40620000D01*
X12302081Y-40620000D02*
X12952081Y-41270000D01*
X12952081Y-41270000D02*
X15940000Y-41270000D01*
X20950000Y-36010000D02*
X22800002Y-36010000D01*
X22800002Y-36010000D02*
X23710001Y-35100001D01*
X23710001Y-35100001D02*
X25599999Y-35100001D01*
X25599999Y-35100001D02*
X25750000Y-34950000D01*
X26823630Y-34950000D02*
X27423630Y-34350000D01*
X27423630Y-34350000D02*
X30250000Y-34350000D01*
X25750000Y-40325000D02*
X26827000Y-40325000D01*
X29309998Y-41860002D02*
X30500000Y-40670000D01*
X28362002Y-41860002D02*
X29309998Y-41860002D01*
X30500000Y-40670000D02*
X31505000Y-40670000D01*
X31505000Y-40670000D02*
X31850000Y-40325000D01*
X31850000Y-40325000D02*
X32800000Y-40325000D01*
X18750000Y-40325000D02*
X18800000Y-40325000D01*
X17495000Y-40630000D02*
X16580000Y-40630000D01*
X16580000Y-40630000D02*
X15940000Y-41270000D01*
D32*
X28380000Y-48890060D02*
X28380000Y-48570000D01*
D33*
X23300000Y-54420000D02*
X23300000Y-54388480D01*
X23300000Y-54388480D02*
X23006509Y-54094989D01*
X23006509Y-54094989D02*
X22780010Y-53868490D01*
D32*
X1650000Y-24390000D02*
X2540000Y-24390000D01*
D31*
X26823630Y-34950000D02*
X25750000Y-34950000D01*
X18700000Y-40325000D02*
X18750000Y-40325000D01*
X17800000Y-40325000D02*
X18750000Y-40325000D01*
X17495000Y-40630000D02*
X17800000Y-40325000D01*
X32800000Y-40325000D02*
X35105000Y-40325000D01*
X35105000Y-40325000D02*
X35550000Y-40770000D01*
D32*
X17750000Y-24950000D02*
X17700000Y-24950000D01*
X17525000Y-17275000D02*
X17650000Y-17150000D01*
X33175000Y-26100000D02*
X33150000Y-26100000D01*
X33100000Y-17850000D02*
X33050000Y-17850000D01*
D33*
X10300000Y-54000000D02*
X10560002Y-54000000D01*
X10560002Y-54000000D02*
X10570002Y-53990000D01*
X18864931Y-54544191D02*
X18934000Y-54613260D01*
X18934000Y-54613260D02*
X18934000Y-54696000D01*
D32*
X18864931Y-54495069D02*
X18864931Y-54544191D01*
D33*
X18864931Y-52464931D02*
X18864931Y-54544191D01*
X18100000Y-51700000D02*
X18864931Y-52464931D01*
X16600000Y-51700000D02*
X18100000Y-51700000D01*
D32*
X18940000Y-54420000D02*
X18864931Y-54495069D01*
X19490000Y-54420000D02*
X18940000Y-54420000D01*
D31*
X30166982Y-29041982D02*
X29856000Y-29041982D01*
X30250000Y-29125000D02*
X30166982Y-29041982D01*
X30250000Y-30500000D02*
X30250000Y-29125000D01*
D34*
X21100000Y-23000000D02*
X21100000Y-22599572D01*
X21100000Y-22599572D02*
X21223563Y-22476009D01*
X21223563Y-22476009D02*
X21423562Y-22276010D01*
X21274001Y-19444001D02*
X21474000Y-19644000D01*
X21100000Y-19270000D02*
X21274001Y-19444001D01*
X21100000Y-18950000D02*
X21100000Y-19270000D01*
D31*
X1575000Y-44975000D02*
X1575000Y-31275000D01*
X8300000Y-51700000D02*
X1575000Y-44975000D01*
X10300000Y-51700000D02*
X8300000Y-51700000D01*
X10300000Y-51700000D02*
X9800000Y-51700000D01*
X16600000Y-51700000D02*
X10300000Y-51700000D01*
D32*
X27110000Y-54420000D02*
X26930000Y-54600000D01*
X26886855Y-54600000D02*
X26566536Y-54600000D01*
X26930000Y-54600000D02*
X26886855Y-54600000D01*
D31*
X1523487Y-19650000D02*
X2950000Y-19650000D01*
D33*
X2950000Y-20200000D02*
X2950000Y-19650000D01*
D31*
X2950000Y-19650000D02*
X4449992Y-19650000D01*
D33*
X2570000Y-20580000D02*
X2950000Y-20200000D01*
X1650000Y-20580000D02*
X2570000Y-20580000D01*
D31*
X4449992Y-19650000D02*
X4450000Y-19650008D01*
X30250000Y-32200000D02*
X30250000Y-30500000D01*
D34*
X21100000Y-15500000D02*
X21100000Y-15300000D01*
X21100000Y-15300000D02*
X24700000Y-11700000D01*
X24700000Y-11700000D02*
X24700000Y-11450000D01*
X21100000Y-15500000D02*
X21100000Y-18950000D01*
D32*
X1650000Y-27706500D02*
X1600000Y-27656500D01*
X1650000Y-28200000D02*
X1650000Y-27706500D01*
X19999990Y-24000000D02*
X20299990Y-23700000D01*
X15650000Y-24000000D02*
X19999990Y-24000000D01*
X17333561Y-18100000D02*
X17013242Y-18100000D01*
X18250000Y-18100000D02*
X17333561Y-18100000D01*
X19100000Y-18950000D02*
X18250000Y-18100000D01*
X19600000Y-18950000D02*
X19100000Y-18950000D01*
X19600000Y-19150000D02*
X19600000Y-18950000D01*
X18375012Y-22275012D02*
X17010406Y-22275012D01*
X19100000Y-23000000D02*
X18375012Y-22275012D01*
X19600000Y-23000000D02*
X19100000Y-23000000D01*
X17010406Y-22275012D02*
X16935407Y-22350011D01*
X19600000Y-23200000D02*
X19600000Y-23000000D01*
X19550000Y-23050000D02*
X19600000Y-23000000D01*
X22030000Y-53720000D02*
X22722169Y-53027831D01*
X22030000Y-54420000D02*
X22030000Y-53720000D01*
X22722169Y-53027831D02*
X23122169Y-53027831D01*
X23122169Y-53027831D02*
X24100000Y-52050000D01*
X34240000Y-44420000D02*
X35500000Y-43160000D01*
X34240000Y-47050000D02*
X34240000Y-44420000D01*
X25840000Y-53159994D02*
X25900000Y-53099994D01*
X25840000Y-54420000D02*
X25840000Y-53159994D01*
X3175020Y-35235020D02*
X11100000Y-43160000D01*
X3175020Y-27755020D02*
X3175020Y-35235020D01*
X1650000Y-26930000D02*
X2350000Y-26930000D01*
X2350000Y-26930000D02*
X3175020Y-27755020D01*
X32107853Y-39179999D02*
X34600001Y-39179999D01*
X13532248Y-37984650D02*
X13732247Y-37784651D01*
X18170002Y-39360000D02*
X22720000Y-39360000D01*
X13732247Y-37784651D02*
X16594653Y-37784651D01*
X16594653Y-37784651D02*
X18170002Y-39360000D01*
X24270000Y-38380000D02*
X25250000Y-39360000D01*
X22950000Y-39130000D02*
X22950000Y-38739998D01*
X22720000Y-39360000D02*
X22950000Y-39130000D01*
X23309998Y-38380000D02*
X24270000Y-38380000D01*
X22950000Y-38739998D02*
X23309998Y-38380000D01*
X34600001Y-39179999D02*
X35550000Y-38230000D01*
X25250000Y-39360000D02*
X29680000Y-39360000D01*
X29680000Y-39360000D02*
X29870000Y-39170000D01*
X30160000Y-38550000D02*
X31477854Y-38550000D01*
X29870000Y-39170000D02*
X29870000Y-38840000D01*
X29870000Y-38840000D02*
X30160000Y-38550000D01*
X31477854Y-38550000D02*
X32107853Y-39179999D01*
D31*
X28579021Y-19776001D02*
X28579021Y-22420971D01*
D33*
X29625000Y-1975000D02*
X28950000Y-2650000D01*
X31380000Y-1975000D02*
X29625000Y-1975000D01*
X28840000Y-2540000D02*
X28950000Y-2650000D01*
X28840000Y-1975000D02*
X28840000Y-2540000D01*
X11375000Y-2000000D02*
X19700000Y-2000000D01*
X11350000Y-1975000D02*
X11375000Y-2000000D01*
X19725000Y-1975000D02*
X19700000Y-2000000D01*
X28840000Y-1975000D02*
X19725000Y-1975000D01*
X31380000Y-1975000D02*
X33920000Y-1975000D01*
X32650000Y-1975000D02*
X31380000Y-1975000D01*
X33920000Y-1975000D02*
X34850000Y-1975000D01*
X33920000Y-1975000D02*
X32650000Y-1975000D01*
D31*
X34850000Y-1975000D02*
X34900000Y-1925000D01*
X35150000Y-2175000D02*
X34900000Y-1925000D01*
X28579021Y-22420971D02*
X26449999Y-24549993D01*
X26449999Y-24549993D02*
X25950000Y-25049992D01*
D32*
X2725009Y-30308269D02*
X1886740Y-29470000D01*
X1886740Y-29470000D02*
X1650000Y-29470000D01*
X2725009Y-37325009D02*
X2725009Y-30308269D01*
X11100000Y-45700000D02*
X2725009Y-37325009D01*
X7875000Y-14725000D02*
X7875000Y-13375000D01*
X7875000Y-13375000D02*
X7675000Y-13175000D01*
X5875000Y-15675000D02*
X5875000Y-17025000D01*
X6225000Y-17375000D02*
X6225000Y-18075000D01*
X5875000Y-17025000D02*
X6225000Y-17375000D01*
D33*
X25750000Y-33050000D02*
X25750000Y-31150000D01*
X25750000Y-31150000D02*
X25600000Y-31000000D01*
D32*
X25600000Y-32900000D02*
X25750000Y-33050000D01*
X23750000Y-34000000D02*
X22950000Y-34000000D01*
X22950000Y-34000000D02*
X22250000Y-34700000D01*
X3600000Y-14700000D02*
X3600000Y-13450000D01*
X3600000Y-13450000D02*
X3300000Y-13150000D01*
X1600000Y-15650000D02*
X1600000Y-17900000D01*
X1600000Y-17900000D02*
X1850000Y-18150000D01*
X18750000Y-44000000D02*
X18750000Y-42750000D01*
X18750000Y-42750000D02*
X18450000Y-42450000D01*
X16750000Y-44950000D02*
X16025000Y-44950000D01*
X16025000Y-44950000D02*
X15250000Y-45725000D01*
X18750000Y-38425000D02*
X18750000Y-37125000D01*
X18750000Y-37125000D02*
X18450000Y-36825000D01*
X16750000Y-39375000D02*
X15800000Y-39375000D01*
X15800000Y-39375000D02*
X15250000Y-39925000D01*
X32800000Y-43925000D02*
X32800000Y-42625000D01*
X32800000Y-42625000D02*
X32500000Y-42325000D01*
X30800000Y-44875000D02*
X30075000Y-44875000D01*
X30075000Y-44875000D02*
X29300000Y-45650000D01*
D33*
X18450000Y-31000000D02*
X18450000Y-32750000D01*
X18450000Y-32750000D02*
X18750000Y-33050000D01*
D32*
X16750000Y-34000000D02*
X15950000Y-34000000D01*
X15950000Y-34000000D02*
X15250000Y-34700000D01*
X25750000Y-44000000D02*
X25750000Y-42775000D01*
X25750000Y-42775000D02*
X25450000Y-42475000D01*
X23750000Y-44950000D02*
X22950000Y-44950000D01*
X22950000Y-44950000D02*
X22150000Y-45750000D01*
X22150000Y-45750000D02*
X21950000Y-45750000D01*
X32800000Y-38425000D02*
X32800000Y-37125000D01*
X32800000Y-37125000D02*
X32500000Y-36825000D01*
X29414989Y-39810011D02*
X29300000Y-39925000D01*
X30364989Y-39810011D02*
X29414989Y-39810011D01*
X30800000Y-39375000D02*
X30364989Y-39810011D01*
X25750000Y-38425000D02*
X25750000Y-36975000D01*
X25750000Y-36975000D02*
X25600000Y-36825000D01*
X23341410Y-39375000D02*
X22791410Y-39925000D01*
X23750000Y-39375000D02*
X23341410Y-39375000D01*
X22791410Y-39925000D02*
X22400000Y-39925000D01*
X7500000Y-21850000D02*
X12550000Y-21850000D01*
X14700000Y-19250000D02*
X14900000Y-19050000D01*
X12550000Y-21850000D02*
X14700000Y-19700000D01*
X14700000Y-19700000D02*
X14700000Y-19250000D01*
X14900000Y-19050000D02*
X17650000Y-19050000D01*
X7500000Y-21850000D02*
X8250000Y-21850000D01*
X7500000Y-21850000D02*
X6800000Y-21850000D01*
X17650000Y-19050000D02*
X17700000Y-19050000D01*
X7500000Y-23120000D02*
X17580000Y-23120000D01*
X17580000Y-23120000D02*
X17650000Y-23050000D01*
X7500000Y-23120000D02*
X8200000Y-23120000D01*
X17750000Y-23050000D02*
X17700000Y-23050000D01*
X7500000Y-24390000D02*
X6800000Y-24390000D01*
X6800000Y-24390000D02*
X5950000Y-23540000D01*
X5950000Y-23540000D02*
X5950000Y-21600000D01*
X15050000Y-15250000D02*
X17650000Y-15250000D01*
X5950000Y-21600000D02*
X6344999Y-21205001D01*
X9094999Y-21205001D02*
X15050000Y-15250000D01*
X6344999Y-21205001D02*
X9094999Y-21205001D01*
X33150000Y-24200000D02*
X32450000Y-24200000D01*
X32450000Y-24200000D02*
X31975000Y-23725000D01*
X31975000Y-23725000D02*
X31975000Y-21825000D01*
X31975000Y-21825000D02*
X31250000Y-21100000D01*
X31250000Y-21100000D02*
X31050000Y-21100000D01*
D34*
X7725000Y-18075000D02*
X8225000Y-18075000D01*
X8225000Y-18075000D02*
X8778000Y-18628000D01*
X13092000Y-22438000D02*
X9790000Y-22438000D01*
X13779999Y-21750001D02*
X13092000Y-22438000D01*
X18494002Y-21676000D02*
X18420001Y-21750001D01*
X22744000Y-21676000D02*
X18494002Y-21676000D01*
X18420001Y-21750001D02*
X13779999Y-21750001D01*
D32*
X13326400Y-27975199D02*
X14136991Y-28785790D01*
X3350000Y-18150000D02*
X3850000Y-18150000D01*
X3850000Y-18150000D02*
X4328000Y-18628000D01*
X8576886Y-19558272D02*
X8859728Y-19558272D01*
X5492998Y-18628000D02*
X6423270Y-19558272D01*
X6423270Y-19558272D02*
X8576886Y-19558272D01*
X4328000Y-18628000D02*
X5492998Y-18628000D01*
X3350000Y-18150000D02*
X3446310Y-18150000D01*
X3446310Y-18150000D02*
X3456532Y-18139778D01*
X12393155Y-24535798D02*
X12393155Y-23676933D01*
X19907224Y-27806191D02*
X16316651Y-27806191D01*
X16316651Y-27806191D02*
X16312842Y-27810000D01*
X20938391Y-26775024D02*
X19907224Y-27806191D01*
X24375024Y-26775024D02*
X20938391Y-26775024D01*
X25670000Y-28070000D02*
X24375024Y-26775024D01*
X16312842Y-27810000D02*
X16030000Y-27810000D01*
X27824000Y-44282000D02*
X28932000Y-44282000D01*
X28932000Y-44282000D02*
X29000000Y-44350000D01*
X20900020Y-28749990D02*
X20617178Y-28749990D01*
X20617178Y-28749990D02*
X20510957Y-28856211D01*
X21474000Y-43266000D02*
X21474000Y-43774000D01*
X21474000Y-43774000D02*
X21950000Y-44250000D01*
X20510957Y-28856211D02*
X17243028Y-28856211D01*
X17628843Y-26831178D02*
X19203864Y-26831178D01*
X19203864Y-26831178D02*
X19275022Y-26760020D01*
X21220000Y-37945000D02*
X21220000Y-37932000D01*
X21900000Y-38625000D02*
X21220000Y-37945000D01*
X22100000Y-38625000D02*
X21900000Y-38625000D01*
X22050000Y-38575000D02*
X22100000Y-38625000D01*
X20966000Y-33106000D02*
X21220000Y-33360000D01*
X21220000Y-33360000D02*
X21910000Y-33360000D01*
X21910000Y-33360000D02*
X21950000Y-33400000D01*
X19795010Y-26235010D02*
X19820000Y-26260000D01*
X17561034Y-26235010D02*
X19795010Y-26235010D01*
X17374994Y-43925000D02*
X17599994Y-43700000D01*
X15650000Y-43925000D02*
X17374994Y-43925000D01*
X14950000Y-44425000D02*
X15150000Y-44425000D01*
X15150000Y-44425000D02*
X15650000Y-43925000D01*
X14159225Y-30467968D02*
X16295992Y-28331201D01*
X18417158Y-28331201D02*
X18700000Y-28331201D01*
X16295992Y-28331201D02*
X18417158Y-28331201D01*
X14950000Y-38625000D02*
X14191516Y-38625000D01*
X14191516Y-38625000D02*
X14057258Y-38490742D01*
X20450009Y-32372842D02*
X20450009Y-32090000D01*
X19367002Y-33868000D02*
X20450009Y-32784993D01*
X18053002Y-33868000D02*
X19367002Y-33868000D01*
X20450009Y-32784993D02*
X20450009Y-32372842D01*
X17085002Y-32900000D02*
X18053002Y-33868000D01*
X15650000Y-32900000D02*
X17085002Y-32900000D01*
X15150000Y-33400000D02*
X15650000Y-32900000D01*
X14950000Y-33400000D02*
X15150000Y-33400000D01*
X15250000Y-33200000D02*
X15050000Y-33200000D01*
X29000000Y-37772000D02*
X29094000Y-37678000D01*
X29000000Y-38625000D02*
X29000000Y-37772000D01*
X28950000Y-38575000D02*
X29000000Y-38625000D01*
X28800000Y-38425000D02*
X29000000Y-38625000D01*
X22307853Y-52172147D02*
X23014625Y-52172147D01*
X20760000Y-54420000D02*
X20760000Y-53720000D01*
X20760000Y-53720000D02*
X22307853Y-52172147D01*
X30910000Y-37590000D02*
X30910000Y-36735000D01*
X30910000Y-36735000D02*
X30800000Y-36625000D01*
X31000000Y-36450000D02*
X30917365Y-36532635D01*
X23900000Y-36625000D02*
X23900000Y-37800000D01*
X24000022Y-48550022D02*
X24000022Y-48550000D01*
X24020000Y-48570000D02*
X24000022Y-48550022D01*
X24570000Y-48570000D02*
X24020000Y-48570000D01*
X24000000Y-36725000D02*
X24100000Y-36825000D01*
X18141404Y-47771404D02*
X18141404Y-47231404D01*
X18940000Y-48570000D02*
X18141404Y-47771404D01*
X19490000Y-48570000D02*
X18940000Y-48570000D01*
X17000000Y-31980000D02*
X17000000Y-31050000D01*
X17000000Y-31050000D02*
X16950000Y-31000000D01*
X25270012Y-48550012D02*
X25270012Y-48550000D01*
X25840000Y-48570000D02*
X25290000Y-48570000D01*
X25290000Y-48570000D02*
X25270012Y-48550012D01*
X23950000Y-42275000D02*
X23950000Y-42475000D01*
X23950000Y-42475000D02*
X23950000Y-42599063D01*
X23950000Y-42599063D02*
X24567762Y-43216825D01*
X23899990Y-42424990D02*
X23780173Y-42424990D01*
X23950000Y-42475000D02*
X23899990Y-42424990D01*
X27110000Y-47030000D02*
X27120000Y-47020000D01*
X27110000Y-48570000D02*
X27110000Y-47030000D01*
X30135000Y-43190000D02*
X30120000Y-43190000D01*
X31000000Y-42325000D02*
X30135000Y-43190000D01*
X31000000Y-42125000D02*
X31000000Y-42325000D01*
X16025000Y-36625000D02*
X15950000Y-36550000D01*
X16750000Y-36625000D02*
X16025000Y-36625000D01*
X20760000Y-48570000D02*
X20760000Y-47960000D01*
X20340000Y-47534998D02*
X20005435Y-47200433D01*
X20760000Y-47960000D02*
X20340000Y-47540000D01*
X20340000Y-47540000D02*
X20340000Y-47534998D01*
X20005435Y-47200433D02*
X19036951Y-47200433D01*
X16835690Y-36825000D02*
X16827024Y-36833666D01*
X16750000Y-36625000D02*
X16750000Y-36825000D01*
X2600000Y-14650000D02*
X2600000Y-16650000D01*
X1800000Y-13150000D02*
X1800000Y-13850000D01*
X1800000Y-13850000D02*
X2600000Y-14650000D01*
X1964690Y-21850000D02*
X2526510Y-21288180D01*
X1650000Y-21850000D02*
X1964690Y-21850000D01*
X1336103Y-21850000D02*
X1650000Y-21850000D01*
X1800000Y-13150000D02*
X1800000Y-13350000D01*
X1825000Y-13175000D02*
X1800000Y-13150000D01*
X21460016Y-48550016D02*
X21460016Y-48450000D01*
X21480000Y-48570000D02*
X21460016Y-48550016D01*
X22030000Y-48570000D02*
X21480000Y-48570000D01*
X16950000Y-42250000D02*
X16950000Y-43200000D01*
X16950000Y-42450000D02*
X16950000Y-42250000D01*
X10300000Y-16683776D02*
X10300000Y-19030000D01*
X10300000Y-19030000D02*
X8750000Y-20580000D01*
X9164722Y-15548498D02*
X10300000Y-16683776D01*
X7263496Y-15548498D02*
X9164722Y-15548498D01*
X6175000Y-13175000D02*
X6175000Y-14460002D01*
X8750000Y-20580000D02*
X7500000Y-20580000D01*
X6175000Y-14460002D02*
X7263496Y-15548498D01*
X24100000Y-31000000D02*
X22800002Y-31000000D01*
X22800002Y-31000000D02*
X22775000Y-30974998D01*
X22730022Y-48550022D02*
X22730022Y-48550000D01*
X23300000Y-48570000D02*
X22750000Y-48570000D01*
X22750000Y-48570000D02*
X22730022Y-48550022D01*
X28380000Y-54420000D02*
X28380000Y-53720000D01*
X28380000Y-53720000D02*
X25430000Y-50770000D01*
X3446741Y-23120000D02*
X1650000Y-23120000D01*
X25430000Y-50770000D02*
X19804998Y-50770000D01*
X4375011Y-24048270D02*
X3446741Y-23120000D01*
X15500000Y-48600000D02*
X12900000Y-46000000D01*
X18800000Y-49160000D02*
X18240000Y-48600000D01*
X19804998Y-50770000D02*
X18800000Y-49765002D01*
X18800000Y-49765002D02*
X18800000Y-49160000D01*
X18240000Y-48600000D02*
X15500000Y-48600000D01*
X12900000Y-46000000D02*
X12900000Y-42750000D01*
X12900000Y-42750000D02*
X12050000Y-41900000D01*
X12050000Y-41900000D02*
X10476410Y-41900000D01*
X10476410Y-41900000D02*
X4375011Y-35798601D01*
X4375011Y-35798601D02*
X4375011Y-24048270D01*
X35200000Y-23838589D02*
X35200000Y-26300000D01*
X33725001Y-21625001D02*
X33725001Y-22363590D01*
X33725001Y-22363590D02*
X35200000Y-23838589D01*
X32950000Y-21050000D02*
X33150000Y-21050000D01*
X33150000Y-21050000D02*
X33725001Y-21625001D01*
X33725001Y-21625001D02*
X32950000Y-21050000D01*
X33000000Y-12700000D02*
X33200000Y-12700000D01*
X33200000Y-12700000D02*
X34000000Y-13500000D01*
X34000000Y-14363589D02*
X35150000Y-15513589D01*
X34000000Y-13500000D02*
X34000000Y-14363589D01*
X35150000Y-15513589D02*
X35150000Y-17950000D01*
X33050000Y-15950000D02*
X33000000Y-15950000D01*
X33000000Y-15950000D02*
X32000000Y-14950000D01*
X32000000Y-14950000D02*
X32000000Y-13350000D01*
X32000000Y-13350000D02*
X31350000Y-12700000D01*
X31350000Y-12700000D02*
X31000000Y-12700000D01*
X31050000Y-22600000D02*
X29721004Y-22600000D01*
X29721004Y-22600000D02*
X26446002Y-25875002D01*
X23254355Y-25710000D02*
X15304731Y-25710000D01*
X26446002Y-25875002D02*
X23419357Y-25875002D01*
X23419357Y-25875002D02*
X23254355Y-25710000D01*
X15304731Y-25710000D02*
X14989742Y-26024989D01*
X14989742Y-26024989D02*
X9114989Y-26024989D01*
X9114989Y-26024989D02*
X8750000Y-25660000D01*
X8750000Y-25660000D02*
X7500000Y-25660000D01*
X26737158Y-26300000D02*
X27020000Y-26300000D01*
X8750000Y-26930000D02*
X9205000Y-26475000D01*
X7500000Y-26930000D02*
X8750000Y-26930000D01*
X20624987Y-26325013D02*
X26712145Y-26325013D01*
X9205000Y-26475000D02*
X16495661Y-26475000D01*
X16495661Y-26475000D02*
X17376841Y-27356180D01*
X17376841Y-27356180D02*
X19593820Y-27356180D01*
X19593820Y-27356180D02*
X20624987Y-26325013D01*
X26712145Y-26325013D02*
X26737158Y-26300000D01*
X31000000Y-14200000D02*
X28750000Y-14200000D01*
X28750000Y-14200000D02*
X25550000Y-17400000D01*
X30950000Y-14250000D02*
X31000000Y-14200000D01*
D31*
X11100000Y-35540000D02*
X12302081Y-35540000D01*
X13580000Y-32320000D02*
X16143788Y-29756212D01*
X12302081Y-35540000D02*
X13580000Y-34262081D01*
X26901222Y-29756212D02*
X27895011Y-30750001D01*
X13580000Y-34262081D02*
X13580000Y-32320000D01*
X16143788Y-29756212D02*
X26901222Y-29756212D01*
X27895011Y-30750001D02*
X28395010Y-31250000D01*
X10300000Y-47475004D02*
X10299996Y-47475000D01*
X10300000Y-49400000D02*
X10300000Y-47475004D01*
D33*
X31750000Y-34350000D02*
X33107919Y-34350000D01*
D32*
X33800000Y-42082842D02*
X33714990Y-42167852D01*
X33800000Y-41800000D02*
X33800000Y-42082842D01*
X33714990Y-42167852D02*
X33714990Y-46430464D01*
X24252346Y-55021011D02*
X24025847Y-55247510D01*
X24570000Y-54703357D02*
X24252346Y-55021011D01*
X24570000Y-54420000D02*
X24570000Y-54703357D01*
X33800000Y-33600000D02*
X33800000Y-37199998D01*
X34400000Y-33000000D02*
X33800000Y-33600000D01*
X35500000Y-33000000D02*
X34400000Y-33000000D01*
X25249264Y-52490736D02*
X25482722Y-52490736D01*
X24570000Y-53170000D02*
X25249264Y-52490736D01*
X24570000Y-54420000D02*
X24570000Y-53170000D01*
X11100000Y-33000000D02*
X8240000Y-33000000D01*
X4900021Y-29660021D02*
X4900021Y-26434673D01*
X8240000Y-33000000D02*
X4900021Y-29660021D01*
X2172780Y-26182780D02*
X2500010Y-26182780D01*
X1650000Y-25660000D02*
X2172780Y-26182780D01*
X1710000Y-25600000D02*
X1650000Y-25660000D01*
X34889998Y-33150000D02*
X35550000Y-33150000D01*
X16700000Y-14300000D02*
X19000000Y-14300000D01*
X19000000Y-14300000D02*
X19600000Y-14900000D01*
X19600000Y-14900000D02*
X19600000Y-15100000D01*
X15650000Y-16200000D02*
X20100000Y-16200000D01*
X20100000Y-16200000D02*
X20300000Y-16400000D01*
X19028990Y-20373501D02*
X19255489Y-20600000D01*
X18655489Y-20000000D02*
X19028990Y-20373501D01*
X15650000Y-20000000D02*
X18655489Y-20000000D01*
X15650000Y-20000000D02*
X15700000Y-20000000D01*
X34250000Y-23525000D02*
X34250000Y-24800000D01*
X32950000Y-22550000D02*
X33275000Y-22550000D01*
X33275000Y-22550000D02*
X34250000Y-23525000D01*
X34250000Y-24800000D02*
X33900000Y-25150000D01*
X33900000Y-25150000D02*
X31150000Y-25150000D01*
X31050000Y-16900000D02*
X33775000Y-16900000D01*
X33775000Y-16900000D02*
X34250000Y-16425000D01*
X34250000Y-15250000D02*
X33200000Y-14200000D01*
X34250000Y-16425000D02*
X34250000Y-15250000D01*
X33200000Y-14200000D02*
X33000000Y-14200000D01*
D31*
X31000000Y-16900000D02*
X31050000Y-16900000D01*
D35*
G36*
X738273Y-45726441D02*
X772434Y-45777566D01*
X4509701Y-49514833D01*
X4227675Y-49514587D01*
X3350771Y-49876916D01*
X2679274Y-50547242D01*
X2315415Y-51423513D01*
X2314587Y-52372325D01*
X2676916Y-53249229D01*
X3347242Y-53920726D01*
X4223513Y-54284585D01*
X5172325Y-54285413D01*
X6049229Y-53923084D01*
X6720726Y-53252758D01*
X7084585Y-52376487D01*
X7084835Y-52089967D01*
X7497434Y-52502566D01*
X7865654Y-52748603D01*
X8300000Y-52835000D01*
X8793156Y-52835000D01*
X8802482Y-52849492D01*
X8761673Y-52890301D01*
X8665000Y-53123690D01*
X8665000Y-53714250D01*
X8823750Y-53873000D01*
X10173000Y-53873000D01*
X10173000Y-53853000D01*
X10427000Y-53853000D01*
X10427000Y-53873000D01*
X11776250Y-53873000D01*
X11935000Y-53714250D01*
X11935000Y-53123690D01*
X11838327Y-52890301D01*
X11796366Y-52848340D01*
X11805481Y-52835000D01*
X14952560Y-52835000D01*
X14952560Y-53600000D01*
X14996838Y-53835317D01*
X15135910Y-54051441D01*
X15348110Y-54196431D01*
X15600000Y-54247440D01*
X17600000Y-54247440D01*
X17835317Y-54203162D01*
X17979931Y-54110105D01*
X17979931Y-54544186D01*
X17979930Y-54544191D01*
X18024969Y-54770611D01*
X18047298Y-54882866D01*
X18102648Y-54965703D01*
X18116367Y-55034675D01*
X18182996Y-55134393D01*
X18203230Y-55183363D01*
X18232815Y-55213000D01*
X11735025Y-55213000D01*
X11838327Y-55109699D01*
X11935000Y-54876310D01*
X11935000Y-54285750D01*
X11776250Y-54127000D01*
X10427000Y-54127000D01*
X10427000Y-54147000D01*
X10173000Y-54147000D01*
X10173000Y-54127000D01*
X8823750Y-54127000D01*
X8665000Y-54285750D01*
X8665000Y-54876310D01*
X8761673Y-55109699D01*
X8864975Y-55213000D01*
X756630Y-55213000D01*
X728963Y-45712507D01*
X738273Y-45726441D01*
X738273Y-45726441D01*
G37*
X738273Y-45726441D02*
X772434Y-45777566D01*
X4509701Y-49514833D01*
X4227675Y-49514587D01*
X3350771Y-49876916D01*
X2679274Y-50547242D01*
X2315415Y-51423513D01*
X2314587Y-52372325D01*
X2676916Y-53249229D01*
X3347242Y-53920726D01*
X4223513Y-54284585D01*
X5172325Y-54285413D01*
X6049229Y-53923084D01*
X6720726Y-53252758D01*
X7084585Y-52376487D01*
X7084835Y-52089967D01*
X7497434Y-52502566D01*
X7865654Y-52748603D01*
X8300000Y-52835000D01*
X8793156Y-52835000D01*
X8802482Y-52849492D01*
X8761673Y-52890301D01*
X8665000Y-53123690D01*
X8665000Y-53714250D01*
X8823750Y-53873000D01*
X10173000Y-53873000D01*
X10173000Y-53853000D01*
X10427000Y-53853000D01*
X10427000Y-53873000D01*
X11776250Y-53873000D01*
X11935000Y-53714250D01*
X11935000Y-53123690D01*
X11838327Y-52890301D01*
X11796366Y-52848340D01*
X11805481Y-52835000D01*
X14952560Y-52835000D01*
X14952560Y-53600000D01*
X14996838Y-53835317D01*
X15135910Y-54051441D01*
X15348110Y-54196431D01*
X15600000Y-54247440D01*
X17600000Y-54247440D01*
X17835317Y-54203162D01*
X17979931Y-54110105D01*
X17979931Y-54544186D01*
X17979930Y-54544191D01*
X18024969Y-54770611D01*
X18047298Y-54882866D01*
X18102648Y-54965703D01*
X18116367Y-55034675D01*
X18182996Y-55134393D01*
X18203230Y-55183363D01*
X18232815Y-55213000D01*
X11735025Y-55213000D01*
X11838327Y-55109699D01*
X11935000Y-54876310D01*
X11935000Y-54285750D01*
X11776250Y-54127000D01*
X10427000Y-54127000D01*
X10427000Y-54147000D01*
X10173000Y-54147000D01*
X10173000Y-54127000D01*
X8823750Y-54127000D01*
X8665000Y-54285750D01*
X8665000Y-54876310D01*
X8761673Y-55109699D01*
X8864975Y-55213000D01*
X756630Y-55213000D01*
X728963Y-45712507D01*
X738273Y-45726441D01*
G36*
X30348110Y-23446431D02*
X30600000Y-23497440D01*
X31215000Y-23497440D01*
X31215000Y-23725000D01*
X31272852Y-24015839D01*
X31330797Y-24102560D01*
X30700000Y-24102560D01*
X30464683Y-24146838D01*
X30248559Y-24285910D01*
X30103569Y-24498110D01*
X30052560Y-24750000D01*
X30052560Y-25550000D01*
X30096838Y-25785317D01*
X30235910Y-26001441D01*
X30448110Y-26146431D01*
X30700000Y-26197440D01*
X31600000Y-26197440D01*
X31835317Y-26153162D01*
X32051441Y-26014090D01*
X32122563Y-25910000D01*
X32160750Y-25910000D01*
X32223750Y-25973000D01*
X33023000Y-25973000D01*
X33023000Y-25953000D01*
X33277000Y-25953000D01*
X33277000Y-25973000D01*
X33297000Y-25973000D01*
X33297000Y-26227000D01*
X33277000Y-26227000D01*
X33277000Y-26976250D01*
X33435750Y-27135000D01*
X33726309Y-27135000D01*
X33959698Y-27038327D01*
X33983627Y-27014398D01*
X34014990Y-27090303D01*
X34407630Y-27483629D01*
X34920900Y-27696757D01*
X35476661Y-27697242D01*
X35990303Y-27485010D01*
X36290000Y-27185836D01*
X36290000Y-31502560D01*
X34650000Y-31502560D01*
X34414683Y-31546838D01*
X34198559Y-31685910D01*
X34053569Y-31898110D01*
X34002560Y-32150000D01*
X34002560Y-32369080D01*
X33862599Y-32462599D01*
X33262599Y-33062599D01*
X33097852Y-33309161D01*
X33066853Y-33465000D01*
X32528386Y-33465000D01*
X32401890Y-33378569D01*
X32150000Y-33327560D01*
X31350000Y-33327560D01*
X31114683Y-33371838D01*
X31011354Y-33438329D01*
X31009698Y-33436673D01*
X30776309Y-33340000D01*
X30535750Y-33340000D01*
X30377000Y-33498750D01*
X30377000Y-34223000D01*
X30397000Y-34223000D01*
X30397000Y-34477000D01*
X30377000Y-34477000D01*
X30377000Y-35201250D01*
X30535750Y-35360000D01*
X30776309Y-35360000D01*
X31009698Y-35263327D01*
X31011068Y-35261957D01*
X31098110Y-35321431D01*
X31350000Y-35372440D01*
X32150000Y-35372440D01*
X32385317Y-35328162D01*
X32530095Y-35235000D01*
X33040000Y-35235000D01*
X33040000Y-35763824D01*
X33014090Y-35723559D01*
X32801890Y-35578569D01*
X32550000Y-35527560D01*
X32050000Y-35527560D01*
X31814683Y-35571838D01*
X31598559Y-35710910D01*
X31550866Y-35780711D01*
X31514090Y-35723559D01*
X31301890Y-35578569D01*
X31050000Y-35527560D01*
X30550000Y-35527560D01*
X30314683Y-35571838D01*
X30098559Y-35710910D01*
X29953569Y-35923110D01*
X29902560Y-36175000D01*
X29902560Y-37075000D01*
X29946838Y-37310317D01*
X30075070Y-37509594D01*
X30074855Y-37755363D01*
X30094546Y-37803020D01*
X29928863Y-37835976D01*
X29929145Y-37512637D01*
X29802292Y-37205628D01*
X29567607Y-36970534D01*
X29260821Y-36843145D01*
X28928637Y-36842855D01*
X28621628Y-36969708D01*
X28386534Y-37204393D01*
X28259145Y-37511179D01*
X28259001Y-37676478D01*
X28240000Y-37772000D01*
X28240000Y-37819895D01*
X28098559Y-37910910D01*
X27953569Y-38123110D01*
X27902560Y-38375000D01*
X27902560Y-38600000D01*
X26847440Y-38600000D01*
X26847440Y-38025000D01*
X26803162Y-37789683D01*
X26664090Y-37573559D01*
X26510000Y-37468274D01*
X26510000Y-36975000D01*
X26452148Y-36684161D01*
X26297440Y-36452623D01*
X26297440Y-36175000D01*
X26261689Y-35985000D01*
X26326309Y-35985000D01*
X26559698Y-35888327D01*
X26738327Y-35709699D01*
X26835000Y-35476310D01*
X26835000Y-35235750D01*
X26676250Y-35077000D01*
X25877000Y-35077000D01*
X25877000Y-35097000D01*
X25623000Y-35097000D01*
X25623000Y-35077000D01*
X24823750Y-35077000D01*
X24665000Y-35235750D01*
X24665000Y-35476310D01*
X24748787Y-35678589D01*
X24698559Y-35710910D01*
X24650866Y-35780711D01*
X24614090Y-35723559D01*
X24401890Y-35578569D01*
X24150000Y-35527560D01*
X23650000Y-35527560D01*
X23414683Y-35571838D01*
X23198559Y-35710910D01*
X23053569Y-35923110D01*
X23002560Y-36175000D01*
X23002560Y-37075000D01*
X23046838Y-37310317D01*
X23139448Y-37454237D01*
X23065145Y-37633179D01*
X23065114Y-37668711D01*
X23019159Y-37677852D01*
X22834786Y-37801046D01*
X22801890Y-37778569D01*
X22550000Y-37727560D01*
X22077362Y-37727560D01*
X22011986Y-37662184D01*
X21928292Y-37459628D01*
X21693607Y-37224534D01*
X21386821Y-37097145D01*
X21054637Y-37096855D01*
X20747628Y-37223708D01*
X20512534Y-37458393D01*
X20385145Y-37765179D01*
X20384855Y-38097363D01*
X20511708Y-38404372D01*
X20706996Y-38600000D01*
X19847440Y-38600000D01*
X19847440Y-38025000D01*
X19803162Y-37789683D01*
X19664090Y-37573559D01*
X19510000Y-37468274D01*
X19510000Y-37125000D01*
X19452148Y-36834161D01*
X19287401Y-36587599D01*
X19147440Y-36447638D01*
X19147440Y-36175000D01*
X19111689Y-35985000D01*
X19326309Y-35985000D01*
X19559698Y-35888327D01*
X19738327Y-35709699D01*
X19835000Y-35476310D01*
X19835000Y-35235750D01*
X19676250Y-35077000D01*
X18877000Y-35077000D01*
X18877000Y-35097000D01*
X18623000Y-35097000D01*
X18623000Y-35077000D01*
X17823750Y-35077000D01*
X17665000Y-35235750D01*
X17665000Y-35476310D01*
X17717220Y-35602380D01*
X17548559Y-35710910D01*
X17500866Y-35780711D01*
X17464090Y-35723559D01*
X17251890Y-35578569D01*
X17000000Y-35527560D01*
X16500000Y-35527560D01*
X16264683Y-35571838D01*
X16048559Y-35710910D01*
X16045708Y-35715083D01*
X15784637Y-35714855D01*
X15477628Y-35841708D01*
X15242534Y-36076393D01*
X15115145Y-36383179D01*
X15114855Y-36715363D01*
X15241708Y-37022372D01*
X15243983Y-37024651D01*
X13732247Y-37024651D01*
X13441407Y-37082503D01*
X13299400Y-37177389D01*
X13059876Y-37276358D01*
X12824782Y-37511043D01*
X12697393Y-37817829D01*
X12697103Y-38150013D01*
X12823956Y-38457022D01*
X13058641Y-38692116D01*
X13273930Y-38781512D01*
X13348966Y-38963114D01*
X13583651Y-39198208D01*
X13890437Y-39325597D01*
X13898366Y-39325604D01*
X13900677Y-39327148D01*
X14092907Y-39365385D01*
X14105711Y-39374134D01*
X14048559Y-39410910D01*
X13903569Y-39623110D01*
X13852560Y-39875000D01*
X13852560Y-40375000D01*
X13896838Y-40610317D01*
X14035910Y-40826441D01*
X14248110Y-40971431D01*
X14500000Y-41022440D01*
X15400000Y-41022440D01*
X15635317Y-40978162D01*
X15851441Y-40839090D01*
X15996431Y-40626890D01*
X16047440Y-40375000D01*
X16047440Y-40370973D01*
X16048110Y-40371431D01*
X16300000Y-40422440D01*
X17200000Y-40422440D01*
X17435317Y-40378162D01*
X17651441Y-40239090D01*
X17738064Y-40112314D01*
X17823750Y-40198000D01*
X18623000Y-40198000D01*
X18623000Y-40178000D01*
X18877000Y-40178000D01*
X18877000Y-40198000D01*
X19676250Y-40198000D01*
X19754250Y-40120000D01*
X21002560Y-40120000D01*
X21002560Y-40375000D01*
X21046838Y-40610317D01*
X21185910Y-40826441D01*
X21398110Y-40971431D01*
X21650000Y-41022440D01*
X22550000Y-41022440D01*
X22785317Y-40978162D01*
X23001441Y-40839090D01*
X23146431Y-40626890D01*
X23156414Y-40577593D01*
X23328811Y-40462401D01*
X23368772Y-40422440D01*
X24200000Y-40422440D01*
X24435317Y-40378162D01*
X24651441Y-40239090D01*
X24738064Y-40112314D01*
X24823750Y-40198000D01*
X25623000Y-40198000D01*
X25623000Y-40178000D01*
X25877000Y-40178000D01*
X25877000Y-40198000D01*
X26676250Y-40198000D01*
X26754250Y-40120000D01*
X27902560Y-40120000D01*
X27902560Y-40375000D01*
X27946838Y-40610317D01*
X28085910Y-40826441D01*
X28298110Y-40971431D01*
X28550000Y-41022440D01*
X29450000Y-41022440D01*
X29685317Y-40978162D01*
X29901441Y-40839090D01*
X30046431Y-40626890D01*
X30057949Y-40570011D01*
X30364989Y-40570011D01*
X30655828Y-40512159D01*
X30790102Y-40422440D01*
X31250000Y-40422440D01*
X31485317Y-40378162D01*
X31701441Y-40239090D01*
X31788064Y-40112314D01*
X31873750Y-40198000D01*
X32673000Y-40198000D01*
X32673000Y-40178000D01*
X32927000Y-40178000D01*
X32927000Y-40198000D01*
X33726250Y-40198000D01*
X33885000Y-40039250D01*
X33885000Y-39939999D01*
X34192353Y-39939999D01*
X34058524Y-40263110D01*
X34179845Y-40493000D01*
X35373000Y-40493000D01*
X35373000Y-40473000D01*
X35627000Y-40473000D01*
X35627000Y-40493000D01*
X35647000Y-40493000D01*
X35647000Y-40747000D01*
X35627000Y-40747000D01*
X35627000Y-40767000D01*
X35373000Y-40767000D01*
X35373000Y-40747000D01*
X34179845Y-40747000D01*
X34058524Y-40976890D01*
X34071697Y-41008693D01*
X33966821Y-40965145D01*
X33837895Y-40965032D01*
X33885000Y-40851310D01*
X33885000Y-40610750D01*
X33726250Y-40452000D01*
X32927000Y-40452000D01*
X32927000Y-40472000D01*
X32673000Y-40472000D01*
X32673000Y-40452000D01*
X31873750Y-40452000D01*
X31715000Y-40610750D01*
X31715000Y-40851310D01*
X31811673Y-41084699D01*
X31883333Y-41156359D01*
X31798559Y-41210910D01*
X31750866Y-41280711D01*
X31714090Y-41223559D01*
X31501890Y-41078569D01*
X31250000Y-41027560D01*
X30750000Y-41027560D01*
X30514683Y-41071838D01*
X30298559Y-41210910D01*
X30153569Y-41423110D01*
X30102560Y-41675000D01*
X30102560Y-42147638D01*
X29853592Y-42396606D01*
X29647628Y-42481708D01*
X29412534Y-42716393D01*
X29285145Y-43023179D01*
X29284855Y-43355363D01*
X29325016Y-43452560D01*
X28550000Y-43452560D01*
X28314683Y-43496838D01*
X28275580Y-43522000D01*
X28171091Y-43522000D01*
X27990821Y-43447145D01*
X27658637Y-43446855D01*
X27351628Y-43573708D01*
X27116534Y-43808393D01*
X26989145Y-44115179D01*
X26988855Y-44447363D01*
X27115708Y-44754372D01*
X27350393Y-44989466D01*
X27657179Y-45116855D01*
X27989363Y-45117145D01*
X28109451Y-45067526D01*
X28155711Y-45099134D01*
X28098559Y-45135910D01*
X27953569Y-45348110D01*
X27902560Y-45600000D01*
X27902560Y-46100000D01*
X27946838Y-46335317D01*
X28085910Y-46551441D01*
X28298110Y-46696431D01*
X28550000Y-46747440D01*
X29450000Y-46747440D01*
X29685317Y-46703162D01*
X29901441Y-46564090D01*
X30046431Y-46351890D01*
X30095263Y-46110750D01*
X31715000Y-46110750D01*
X31715000Y-46351310D01*
X31811673Y-46584699D01*
X31990302Y-46763327D01*
X32223691Y-46860000D01*
X32514250Y-46860000D01*
X32673000Y-46701250D01*
X32673000Y-45952000D01*
X31873750Y-45952000D01*
X31715000Y-46110750D01*
X30095263Y-46110750D01*
X30097440Y-46100000D01*
X30097440Y-45927362D01*
X30144065Y-45880737D01*
X30350000Y-45922440D01*
X31250000Y-45922440D01*
X31485317Y-45878162D01*
X31701441Y-45739090D01*
X31788064Y-45612314D01*
X31873750Y-45698000D01*
X32673000Y-45698000D01*
X32673000Y-45678000D01*
X32927000Y-45678000D01*
X32927000Y-45698000D01*
X32947000Y-45698000D01*
X32947000Y-45952000D01*
X32927000Y-45952000D01*
X32927000Y-46150780D01*
X32880135Y-46263643D01*
X32879845Y-46595827D01*
X33006698Y-46902836D01*
X33241383Y-47137930D01*
X33404863Y-47205813D01*
X33404855Y-47215363D01*
X33531708Y-47522372D01*
X33766393Y-47757466D01*
X34073179Y-47884855D01*
X34405363Y-47885145D01*
X34712372Y-47758292D01*
X34947466Y-47523607D01*
X35074855Y-47216821D01*
X35074952Y-47106240D01*
X35470907Y-47185000D01*
X35529093Y-47185000D01*
X36097378Y-47071961D01*
X36290000Y-46943255D01*
X36290000Y-55213000D01*
X29302873Y-55213000D01*
X29315000Y-55152032D01*
X29315000Y-53687968D01*
X29243827Y-53330159D01*
X29041145Y-53026823D01*
X28737809Y-52824141D01*
X28514530Y-52779728D01*
X28107127Y-52372325D01*
X30644587Y-52372325D01*
X31006916Y-53249229D01*
X31677242Y-53920726D01*
X32553513Y-54284585D01*
X33502325Y-54285413D01*
X34379229Y-53923084D01*
X35050726Y-53252758D01*
X35414585Y-52376487D01*
X35415413Y-51427675D01*
X35053084Y-50550771D01*
X34382758Y-49879274D01*
X33506487Y-49515415D01*
X32557675Y-49514587D01*
X31680771Y-49876916D01*
X31009274Y-50547242D01*
X30645415Y-51423513D01*
X30644587Y-52372325D01*
X28107127Y-52372325D01*
X25967401Y-50232599D01*
X25943287Y-50216487D01*
X26197809Y-50165859D01*
X26475000Y-49980646D01*
X26752191Y-50165859D01*
X27110000Y-50237032D01*
X27467809Y-50165859D01*
X27762613Y-49968878D01*
X27808657Y-50020948D01*
X28109653Y-50165063D01*
X28253000Y-50035790D01*
X28253000Y-48697000D01*
X28507000Y-48697000D01*
X28507000Y-50035790D01*
X28650347Y-50165063D01*
X28951343Y-50020948D01*
X29195227Y-49745142D01*
X29315000Y-49397000D01*
X29315000Y-48697000D01*
X28507000Y-48697000D01*
X28253000Y-48697000D01*
X28233000Y-48697000D01*
X28233000Y-48443000D01*
X28253000Y-48443000D01*
X28253000Y-47104210D01*
X28507000Y-47104210D01*
X28507000Y-48443000D01*
X29315000Y-48443000D01*
X29315000Y-47743000D01*
X29195227Y-47394858D01*
X28951343Y-47119052D01*
X28650347Y-46974937D01*
X28507000Y-47104210D01*
X28253000Y-47104210D01*
X28109653Y-46974937D01*
X27954975Y-47048996D01*
X27955145Y-46854637D01*
X27828292Y-46547628D01*
X27593607Y-46312534D01*
X27286821Y-46185145D01*
X26954637Y-46184855D01*
X26835000Y-46234288D01*
X26835000Y-46185750D01*
X26676250Y-46027000D01*
X25877000Y-46027000D01*
X25877000Y-46047000D01*
X25623000Y-46047000D01*
X25623000Y-46027000D01*
X24823750Y-46027000D01*
X24665000Y-46185750D01*
X24665000Y-46426310D01*
X24761673Y-46659699D01*
X24940302Y-46838327D01*
X25173691Y-46935000D01*
X25464250Y-46935000D01*
X25622998Y-46776252D01*
X25622998Y-46935000D01*
X25678965Y-46935000D01*
X25482191Y-46974141D01*
X25205000Y-47159354D01*
X24927809Y-46974141D01*
X24570000Y-46902968D01*
X24212191Y-46974141D01*
X23935000Y-47159354D01*
X23657809Y-46974141D01*
X23300000Y-46902968D01*
X22942191Y-46974141D01*
X22665000Y-47159354D01*
X22387809Y-46974141D01*
X22030000Y-46902968D01*
X21672191Y-46974141D01*
X21395000Y-47159354D01*
X21117809Y-46974141D01*
X20788426Y-46908622D01*
X20542836Y-46663032D01*
X20296274Y-46498285D01*
X20005435Y-46440433D01*
X19829150Y-46440433D01*
X19835000Y-46426310D01*
X19835000Y-46185750D01*
X19676250Y-46027000D01*
X18877000Y-46027000D01*
X18877000Y-46047000D01*
X18623000Y-46047000D01*
X18623000Y-46027000D01*
X17823750Y-46027000D01*
X17665000Y-46185750D01*
X17665000Y-46426310D01*
X17699826Y-46510388D01*
X17669032Y-46523112D01*
X17433938Y-46757797D01*
X17306549Y-47064583D01*
X17306259Y-47396767D01*
X17381404Y-47578633D01*
X17381404Y-47771404D01*
X17395049Y-47840000D01*
X15814802Y-47840000D01*
X14797242Y-46822440D01*
X15400000Y-46822440D01*
X15635317Y-46778162D01*
X15851441Y-46639090D01*
X15996431Y-46426890D01*
X16047440Y-46175000D01*
X16047440Y-46002362D01*
X16094065Y-45955737D01*
X16300000Y-45997440D01*
X17200000Y-45997440D01*
X17435317Y-45953162D01*
X17651441Y-45814090D01*
X17738064Y-45687314D01*
X17823750Y-45773000D01*
X18623000Y-45773000D01*
X18623000Y-45753000D01*
X18877000Y-45753000D01*
X18877000Y-45773000D01*
X19676250Y-45773000D01*
X19835000Y-45614250D01*
X19835000Y-45373690D01*
X19738327Y-45140301D01*
X19559698Y-44961673D01*
X19523253Y-44946577D01*
X19651441Y-44864090D01*
X19796431Y-44651890D01*
X19847440Y-44400000D01*
X19847440Y-43600000D01*
X19815709Y-43431363D01*
X20638855Y-43431363D01*
X20714000Y-43613229D01*
X20714000Y-43774000D01*
X20771852Y-44064839D01*
X20852560Y-44185627D01*
X20852560Y-44500000D01*
X20896838Y-44735317D01*
X21035910Y-44951441D01*
X21105711Y-44999134D01*
X21048559Y-45035910D01*
X20903569Y-45248110D01*
X20852560Y-45500000D01*
X20852560Y-46000000D01*
X20896838Y-46235317D01*
X21035910Y-46451441D01*
X21248110Y-46596431D01*
X21500000Y-46647440D01*
X22400000Y-46647440D01*
X22635317Y-46603162D01*
X22851441Y-46464090D01*
X22996431Y-46251890D01*
X23047440Y-46000000D01*
X23047440Y-45945973D01*
X23048110Y-45946431D01*
X23300000Y-45997440D01*
X24200000Y-45997440D01*
X24435317Y-45953162D01*
X24651441Y-45814090D01*
X24738064Y-45687314D01*
X24823750Y-45773000D01*
X25623000Y-45773000D01*
X25623000Y-45753000D01*
X25877000Y-45753000D01*
X25877000Y-45773000D01*
X26676250Y-45773000D01*
X26835000Y-45614250D01*
X26835000Y-45373690D01*
X26738327Y-45140301D01*
X26559698Y-44961673D01*
X26523253Y-44946577D01*
X26651441Y-44864090D01*
X26796431Y-44651890D01*
X26847440Y-44400000D01*
X26847440Y-43600000D01*
X26803162Y-43364683D01*
X26664090Y-43148559D01*
X26510000Y-43043274D01*
X26510000Y-42775000D01*
X26452148Y-42484161D01*
X26347440Y-42327454D01*
X26347440Y-41825000D01*
X26303162Y-41589683D01*
X26164090Y-41373559D01*
X26144246Y-41360000D01*
X26326309Y-41360000D01*
X26559698Y-41263327D01*
X26738327Y-41084699D01*
X26835000Y-40851310D01*
X26835000Y-40610750D01*
X26676250Y-40452000D01*
X25877000Y-40452000D01*
X25877000Y-40472000D01*
X25623000Y-40472000D01*
X25623000Y-40452000D01*
X24823750Y-40452000D01*
X24665000Y-40610750D01*
X24665000Y-40851310D01*
X24761673Y-41084699D01*
X24924603Y-41247629D01*
X24748559Y-41360910D01*
X24700866Y-41430711D01*
X24664090Y-41373559D01*
X24451890Y-41228569D01*
X24200000Y-41177560D01*
X23700000Y-41177560D01*
X23464683Y-41221838D01*
X23248559Y-41360910D01*
X23103569Y-41573110D01*
X23052560Y-41825000D01*
X23052560Y-42262171D01*
X23020173Y-42424990D01*
X23052560Y-42587809D01*
X23052560Y-42725000D01*
X23096838Y-42960317D01*
X23235910Y-43176441D01*
X23448110Y-43321431D01*
X23635517Y-43359382D01*
X23784930Y-43508795D01*
X23859470Y-43689197D01*
X24072462Y-43902560D01*
X23300000Y-43902560D01*
X23064683Y-43946838D01*
X23040380Y-43962477D01*
X23003162Y-43764683D01*
X22864090Y-43548559D01*
X22651890Y-43403569D01*
X22400000Y-43352560D01*
X22308925Y-43352560D01*
X22309145Y-43100637D01*
X22182292Y-42793628D01*
X21947607Y-42558534D01*
X21640821Y-42431145D01*
X21308637Y-42430855D01*
X21001628Y-42557708D01*
X20766534Y-42792393D01*
X20639145Y-43099179D01*
X20638855Y-43431363D01*
X19815709Y-43431363D01*
X19803162Y-43364683D01*
X19664090Y-43148559D01*
X19510000Y-43043274D01*
X19510000Y-42750000D01*
X19452148Y-42459161D01*
X19347440Y-42302454D01*
X19347440Y-41800000D01*
X19303162Y-41564683D01*
X19171452Y-41360000D01*
X19326309Y-41360000D01*
X19559698Y-41263327D01*
X19738327Y-41084699D01*
X19835000Y-40851310D01*
X19835000Y-40610750D01*
X19676250Y-40452000D01*
X18877000Y-40452000D01*
X18877000Y-40472000D01*
X18623000Y-40472000D01*
X18623000Y-40452000D01*
X17823750Y-40452000D01*
X17665000Y-40610750D01*
X17665000Y-40851310D01*
X17761673Y-41084699D01*
X17909392Y-41232417D01*
X17748559Y-41335910D01*
X17700866Y-41405711D01*
X17664090Y-41348559D01*
X17451890Y-41203569D01*
X17200000Y-41152560D01*
X16700000Y-41152560D01*
X16464683Y-41196838D01*
X16248559Y-41335910D01*
X16103569Y-41548110D01*
X16052560Y-41800000D01*
X16052560Y-42700000D01*
X16096838Y-42935317D01*
X16132663Y-42990991D01*
X16115145Y-43033179D01*
X16115030Y-43165000D01*
X15650000Y-43165000D01*
X15359161Y-43222852D01*
X15112599Y-43387599D01*
X14972638Y-43527560D01*
X14500000Y-43527560D01*
X14264683Y-43571838D01*
X14048559Y-43710910D01*
X13903569Y-43923110D01*
X13852560Y-44175000D01*
X13852560Y-44675000D01*
X13896838Y-44910317D01*
X14035910Y-45126441D01*
X14105711Y-45174134D01*
X14048559Y-45210910D01*
X13903569Y-45423110D01*
X13852560Y-45675000D01*
X13852560Y-45877758D01*
X13660000Y-45685198D01*
X13660000Y-42750000D01*
X13602148Y-42459161D01*
X13437401Y-42212599D01*
X12587401Y-41362599D01*
X12426304Y-41254958D01*
X12541476Y-40976890D01*
X12420155Y-40747000D01*
X11227000Y-40747000D01*
X11227000Y-40767000D01*
X10973000Y-40767000D01*
X10973000Y-40747000D01*
X10953000Y-40747000D01*
X10953000Y-40493000D01*
X10973000Y-40493000D01*
X10973000Y-40473000D01*
X11227000Y-40473000D01*
X11227000Y-40493000D01*
X12420155Y-40493000D01*
X12541476Y-40263110D01*
X12371645Y-39853076D01*
X11981358Y-39424817D01*
X11838447Y-39357702D01*
X12179147Y-39130054D01*
X12501054Y-38648285D01*
X12614093Y-38080000D01*
X12501054Y-37511715D01*
X12179147Y-37029946D01*
X11849974Y-36810000D01*
X12052016Y-36675000D01*
X12302081Y-36675000D01*
X12736427Y-36588603D01*
X13104647Y-36342566D01*
X13961464Y-35485749D01*
X14035910Y-35601441D01*
X14248110Y-35746431D01*
X14500000Y-35797440D01*
X15400000Y-35797440D01*
X15635317Y-35753162D01*
X15851441Y-35614090D01*
X15996431Y-35401890D01*
X16047440Y-35150000D01*
X16047440Y-34995973D01*
X16048110Y-34996431D01*
X16300000Y-35047440D01*
X17200000Y-35047440D01*
X17435317Y-35003162D01*
X17651441Y-34864090D01*
X17738064Y-34737314D01*
X17823750Y-34823000D01*
X18623000Y-34823000D01*
X18623000Y-34803000D01*
X18877000Y-34803000D01*
X18877000Y-34823000D01*
X19676250Y-34823000D01*
X19835000Y-34664250D01*
X19835000Y-34451774D01*
X19904403Y-34405401D01*
X20495181Y-33814623D01*
X20674127Y-33888929D01*
X20682599Y-33897401D01*
X20929160Y-34062148D01*
X21022584Y-34080731D01*
X21035910Y-34101441D01*
X21105711Y-34149134D01*
X21048559Y-34185910D01*
X20903569Y-34398110D01*
X20852560Y-34650000D01*
X20852560Y-35150000D01*
X20896838Y-35385317D01*
X21035910Y-35601441D01*
X21248110Y-35746431D01*
X21500000Y-35797440D01*
X22400000Y-35797440D01*
X22635317Y-35753162D01*
X22851441Y-35614090D01*
X22996431Y-35401890D01*
X23047440Y-35150000D01*
X23047440Y-34995973D01*
X23048110Y-34996431D01*
X23300000Y-35047440D01*
X24200000Y-35047440D01*
X24435317Y-35003162D01*
X24651441Y-34864090D01*
X24738064Y-34737314D01*
X24823750Y-34823000D01*
X25623000Y-34823000D01*
X25623000Y-34803000D01*
X25877000Y-34803000D01*
X25877000Y-34823000D01*
X26676250Y-34823000D01*
X26835000Y-34664250D01*
X26835000Y-34635750D01*
X29215000Y-34635750D01*
X29215000Y-34851310D01*
X29311673Y-35084699D01*
X29490302Y-35263327D01*
X29723691Y-35360000D01*
X29964250Y-35360000D01*
X30123000Y-35201250D01*
X30123000Y-34477000D01*
X29373750Y-34477000D01*
X29215000Y-34635750D01*
X26835000Y-34635750D01*
X26835000Y-34423690D01*
X26738327Y-34190301D01*
X26559698Y-34011673D01*
X26523253Y-33996577D01*
X26651441Y-33914090D01*
X26696126Y-33848690D01*
X29215000Y-33848690D01*
X29215000Y-34064250D01*
X29373750Y-34223000D01*
X30123000Y-34223000D01*
X30123000Y-33498750D01*
X29964250Y-33340000D01*
X29723691Y-33340000D01*
X29490302Y-33436673D01*
X29311673Y-33615301D01*
X29215000Y-33848690D01*
X26696126Y-33848690D01*
X26796431Y-33701890D01*
X26847440Y-33450000D01*
X26847440Y-32650000D01*
X26803162Y-32414683D01*
X26664090Y-32198559D01*
X26635000Y-32178683D01*
X26635000Y-31150005D01*
X26635001Y-31150000D01*
X26621374Y-31081496D01*
X27592030Y-32052152D01*
X27751245Y-32211645D01*
X28168254Y-32384803D01*
X28619785Y-32385197D01*
X29037096Y-32212767D01*
X29115000Y-32134999D01*
X29115000Y-32200000D01*
X29201397Y-32634346D01*
X29447434Y-33002566D01*
X29815654Y-33248603D01*
X30250000Y-33335000D01*
X30684346Y-33248603D01*
X31052566Y-33002566D01*
X31119339Y-32902634D01*
X31233691Y-32950000D01*
X31474250Y-32950000D01*
X31633000Y-32791250D01*
X31633000Y-32067000D01*
X31887000Y-32067000D01*
X31887000Y-32791250D01*
X32045750Y-32950000D01*
X32286309Y-32950000D01*
X32519698Y-32853327D01*
X32698327Y-32674699D01*
X32795000Y-32441310D01*
X32795000Y-32225750D01*
X32636250Y-32067000D01*
X31887000Y-32067000D01*
X31633000Y-32067000D01*
X31613000Y-32067000D01*
X31613000Y-31813000D01*
X31633000Y-31813000D01*
X31633000Y-31088750D01*
X31623000Y-31078750D01*
X31623000Y-30627000D01*
X31877000Y-30627000D01*
X31877000Y-31351250D01*
X31887000Y-31361250D01*
X31887000Y-31813000D01*
X32636250Y-31813000D01*
X32795000Y-31654250D01*
X32795000Y-31438690D01*
X32699416Y-31207929D01*
X32785000Y-31001310D01*
X32785000Y-30785750D01*
X32626250Y-30627000D01*
X31877000Y-30627000D01*
X31623000Y-30627000D01*
X31603000Y-30627000D01*
X31603000Y-30373000D01*
X31623000Y-30373000D01*
X31623000Y-29648750D01*
X31877000Y-29648750D01*
X31877000Y-30373000D01*
X32626250Y-30373000D01*
X32785000Y-30214250D01*
X32785000Y-29998690D01*
X32688327Y-29765301D01*
X32509698Y-29586673D01*
X32276309Y-29490000D01*
X32035750Y-29490000D01*
X31877000Y-29648750D01*
X31623000Y-29648750D01*
X31464250Y-29490000D01*
X31385000Y-29490000D01*
X31385000Y-29125000D01*
X31298603Y-28690654D01*
X31052566Y-28322434D01*
X30969548Y-28239416D01*
X30963482Y-28235363D01*
X30601328Y-27993379D01*
X30166982Y-27906982D01*
X29856990Y-27906982D01*
X29631225Y-27906785D01*
X29213914Y-28079215D01*
X28894355Y-28398217D01*
X28721197Y-28815226D01*
X28720803Y-29266757D01*
X28893233Y-29684068D01*
X29115000Y-29906222D01*
X29115000Y-30364713D01*
X29038775Y-30288355D01*
X29038300Y-30288158D01*
X27703788Y-28953646D01*
X27672289Y-28932599D01*
X27335568Y-28707609D01*
X26901222Y-28621212D01*
X26299726Y-28621212D01*
X26377466Y-28543607D01*
X26504855Y-28236821D01*
X26505145Y-27904637D01*
X26378292Y-27597628D01*
X26143607Y-27362534D01*
X25961873Y-27287071D01*
X25759815Y-27085013D01*
X26712145Y-27085013D01*
X26726344Y-27082189D01*
X26853179Y-27134855D01*
X27185363Y-27135145D01*
X27492372Y-27008292D01*
X27727466Y-26773607D01*
X27854855Y-26466821D01*
X27854925Y-26385750D01*
X32065000Y-26385750D01*
X32065000Y-26626310D01*
X32161673Y-26859699D01*
X32340302Y-27038327D01*
X32573691Y-27135000D01*
X32864250Y-27135000D01*
X33023000Y-26976250D01*
X33023000Y-26227000D01*
X32223750Y-26227000D01*
X32065000Y-26385750D01*
X27854925Y-26385750D01*
X27855145Y-26134637D01*
X27728292Y-25827628D01*
X27648305Y-25747501D01*
X30035806Y-23360000D01*
X30221614Y-23360000D01*
X30348110Y-23446431D01*
X30348110Y-23446431D01*
G37*
X30348110Y-23446431D02*
X30600000Y-23497440D01*
X31215000Y-23497440D01*
X31215000Y-23725000D01*
X31272852Y-24015839D01*
X31330797Y-24102560D01*
X30700000Y-24102560D01*
X30464683Y-24146838D01*
X30248559Y-24285910D01*
X30103569Y-24498110D01*
X30052560Y-24750000D01*
X30052560Y-25550000D01*
X30096838Y-25785317D01*
X30235910Y-26001441D01*
X30448110Y-26146431D01*
X30700000Y-26197440D01*
X31600000Y-26197440D01*
X31835317Y-26153162D01*
X32051441Y-26014090D01*
X32122563Y-25910000D01*
X32160750Y-25910000D01*
X32223750Y-25973000D01*
X33023000Y-25973000D01*
X33023000Y-25953000D01*
X33277000Y-25953000D01*
X33277000Y-25973000D01*
X33297000Y-25973000D01*
X33297000Y-26227000D01*
X33277000Y-26227000D01*
X33277000Y-26976250D01*
X33435750Y-27135000D01*
X33726309Y-27135000D01*
X33959698Y-27038327D01*
X33983627Y-27014398D01*
X34014990Y-27090303D01*
X34407630Y-27483629D01*
X34920900Y-27696757D01*
X35476661Y-27697242D01*
X35990303Y-27485010D01*
X36290000Y-27185836D01*
X36290000Y-31502560D01*
X34650000Y-31502560D01*
X34414683Y-31546838D01*
X34198559Y-31685910D01*
X34053569Y-31898110D01*
X34002560Y-32150000D01*
X34002560Y-32369080D01*
X33862599Y-32462599D01*
X33262599Y-33062599D01*
X33097852Y-33309161D01*
X33066853Y-33465000D01*
X32528386Y-33465000D01*
X32401890Y-33378569D01*
X32150000Y-33327560D01*
X31350000Y-33327560D01*
X31114683Y-33371838D01*
X31011354Y-33438329D01*
X31009698Y-33436673D01*
X30776309Y-33340000D01*
X30535750Y-33340000D01*
X30377000Y-33498750D01*
X30377000Y-34223000D01*
X30397000Y-34223000D01*
X30397000Y-34477000D01*
X30377000Y-34477000D01*
X30377000Y-35201250D01*
X30535750Y-35360000D01*
X30776309Y-35360000D01*
X31009698Y-35263327D01*
X31011068Y-35261957D01*
X31098110Y-35321431D01*
X31350000Y-35372440D01*
X32150000Y-35372440D01*
X32385317Y-35328162D01*
X32530095Y-35235000D01*
X33040000Y-35235000D01*
X33040000Y-35763824D01*
X33014090Y-35723559D01*
X32801890Y-35578569D01*
X32550000Y-35527560D01*
X32050000Y-35527560D01*
X31814683Y-35571838D01*
X31598559Y-35710910D01*
X31550866Y-35780711D01*
X31514090Y-35723559D01*
X31301890Y-35578569D01*
X31050000Y-35527560D01*
X30550000Y-35527560D01*
X30314683Y-35571838D01*
X30098559Y-35710910D01*
X29953569Y-35923110D01*
X29902560Y-36175000D01*
X29902560Y-37075000D01*
X29946838Y-37310317D01*
X30075070Y-37509594D01*
X30074855Y-37755363D01*
X30094546Y-37803020D01*
X29928863Y-37835976D01*
X29929145Y-37512637D01*
X29802292Y-37205628D01*
X29567607Y-36970534D01*
X29260821Y-36843145D01*
X28928637Y-36842855D01*
X28621628Y-36969708D01*
X28386534Y-37204393D01*
X28259145Y-37511179D01*
X28259001Y-37676478D01*
X28240000Y-37772000D01*
X28240000Y-37819895D01*
X28098559Y-37910910D01*
X27953569Y-38123110D01*
X27902560Y-38375000D01*
X27902560Y-38600000D01*
X26847440Y-38600000D01*
X26847440Y-38025000D01*
X26803162Y-37789683D01*
X26664090Y-37573559D01*
X26510000Y-37468274D01*
X26510000Y-36975000D01*
X26452148Y-36684161D01*
X26297440Y-36452623D01*
X26297440Y-36175000D01*
X26261689Y-35985000D01*
X26326309Y-35985000D01*
X26559698Y-35888327D01*
X26738327Y-35709699D01*
X26835000Y-35476310D01*
X26835000Y-35235750D01*
X26676250Y-35077000D01*
X25877000Y-35077000D01*
X25877000Y-35097000D01*
X25623000Y-35097000D01*
X25623000Y-35077000D01*
X24823750Y-35077000D01*
X24665000Y-35235750D01*
X24665000Y-35476310D01*
X24748787Y-35678589D01*
X24698559Y-35710910D01*
X24650866Y-35780711D01*
X24614090Y-35723559D01*
X24401890Y-35578569D01*
X24150000Y-35527560D01*
X23650000Y-35527560D01*
X23414683Y-35571838D01*
X23198559Y-35710910D01*
X23053569Y-35923110D01*
X23002560Y-36175000D01*
X23002560Y-37075000D01*
X23046838Y-37310317D01*
X23139448Y-37454237D01*
X23065145Y-37633179D01*
X23065114Y-37668711D01*
X23019159Y-37677852D01*
X22834786Y-37801046D01*
X22801890Y-37778569D01*
X22550000Y-37727560D01*
X22077362Y-37727560D01*
X22011986Y-37662184D01*
X21928292Y-37459628D01*
X21693607Y-37224534D01*
X21386821Y-37097145D01*
X21054637Y-37096855D01*
X20747628Y-37223708D01*
X20512534Y-37458393D01*
X20385145Y-37765179D01*
X20384855Y-38097363D01*
X20511708Y-38404372D01*
X20706996Y-38600000D01*
X19847440Y-38600000D01*
X19847440Y-38025000D01*
X19803162Y-37789683D01*
X19664090Y-37573559D01*
X19510000Y-37468274D01*
X19510000Y-37125000D01*
X19452148Y-36834161D01*
X19287401Y-36587599D01*
X19147440Y-36447638D01*
X19147440Y-36175000D01*
X19111689Y-35985000D01*
X19326309Y-35985000D01*
X19559698Y-35888327D01*
X19738327Y-35709699D01*
X19835000Y-35476310D01*
X19835000Y-35235750D01*
X19676250Y-35077000D01*
X18877000Y-35077000D01*
X18877000Y-35097000D01*
X18623000Y-35097000D01*
X18623000Y-35077000D01*
X17823750Y-35077000D01*
X17665000Y-35235750D01*
X17665000Y-35476310D01*
X17717220Y-35602380D01*
X17548559Y-35710910D01*
X17500866Y-35780711D01*
X17464090Y-35723559D01*
X17251890Y-35578569D01*
X17000000Y-35527560D01*
X16500000Y-35527560D01*
X16264683Y-35571838D01*
X16048559Y-35710910D01*
X16045708Y-35715083D01*
X15784637Y-35714855D01*
X15477628Y-35841708D01*
X15242534Y-36076393D01*
X15115145Y-36383179D01*
X15114855Y-36715363D01*
X15241708Y-37022372D01*
X15243983Y-37024651D01*
X13732247Y-37024651D01*
X13441407Y-37082503D01*
X13299400Y-37177389D01*
X13059876Y-37276358D01*
X12824782Y-37511043D01*
X12697393Y-37817829D01*
X12697103Y-38150013D01*
X12823956Y-38457022D01*
X13058641Y-38692116D01*
X13273930Y-38781512D01*
X13348966Y-38963114D01*
X13583651Y-39198208D01*
X13890437Y-39325597D01*
X13898366Y-39325604D01*
X13900677Y-39327148D01*
X14092907Y-39365385D01*
X14105711Y-39374134D01*
X14048559Y-39410910D01*
X13903569Y-39623110D01*
X13852560Y-39875000D01*
X13852560Y-40375000D01*
X13896838Y-40610317D01*
X14035910Y-40826441D01*
X14248110Y-40971431D01*
X14500000Y-41022440D01*
X15400000Y-41022440D01*
X15635317Y-40978162D01*
X15851441Y-40839090D01*
X15996431Y-40626890D01*
X16047440Y-40375000D01*
X16047440Y-40370973D01*
X16048110Y-40371431D01*
X16300000Y-40422440D01*
X17200000Y-40422440D01*
X17435317Y-40378162D01*
X17651441Y-40239090D01*
X17738064Y-40112314D01*
X17823750Y-40198000D01*
X18623000Y-40198000D01*
X18623000Y-40178000D01*
X18877000Y-40178000D01*
X18877000Y-40198000D01*
X19676250Y-40198000D01*
X19754250Y-40120000D01*
X21002560Y-40120000D01*
X21002560Y-40375000D01*
X21046838Y-40610317D01*
X21185910Y-40826441D01*
X21398110Y-40971431D01*
X21650000Y-41022440D01*
X22550000Y-41022440D01*
X22785317Y-40978162D01*
X23001441Y-40839090D01*
X23146431Y-40626890D01*
X23156414Y-40577593D01*
X23328811Y-40462401D01*
X23368772Y-40422440D01*
X24200000Y-40422440D01*
X24435317Y-40378162D01*
X24651441Y-40239090D01*
X24738064Y-40112314D01*
X24823750Y-40198000D01*
X25623000Y-40198000D01*
X25623000Y-40178000D01*
X25877000Y-40178000D01*
X25877000Y-40198000D01*
X26676250Y-40198000D01*
X26754250Y-40120000D01*
X27902560Y-40120000D01*
X27902560Y-40375000D01*
X27946838Y-40610317D01*
X28085910Y-40826441D01*
X28298110Y-40971431D01*
X28550000Y-41022440D01*
X29450000Y-41022440D01*
X29685317Y-40978162D01*
X29901441Y-40839090D01*
X30046431Y-40626890D01*
X30057949Y-40570011D01*
X30364989Y-40570011D01*
X30655828Y-40512159D01*
X30790102Y-40422440D01*
X31250000Y-40422440D01*
X31485317Y-40378162D01*
X31701441Y-40239090D01*
X31788064Y-40112314D01*
X31873750Y-40198000D01*
X32673000Y-40198000D01*
X32673000Y-40178000D01*
X32927000Y-40178000D01*
X32927000Y-40198000D01*
X33726250Y-40198000D01*
X33885000Y-40039250D01*
X33885000Y-39939999D01*
X34192353Y-39939999D01*
X34058524Y-40263110D01*
X34179845Y-40493000D01*
X35373000Y-40493000D01*
X35373000Y-40473000D01*
X35627000Y-40473000D01*
X35627000Y-40493000D01*
X35647000Y-40493000D01*
X35647000Y-40747000D01*
X35627000Y-40747000D01*
X35627000Y-40767000D01*
X35373000Y-40767000D01*
X35373000Y-40747000D01*
X34179845Y-40747000D01*
X34058524Y-40976890D01*
X34071697Y-41008693D01*
X33966821Y-40965145D01*
X33837895Y-40965032D01*
X33885000Y-40851310D01*
X33885000Y-40610750D01*
X33726250Y-40452000D01*
X32927000Y-40452000D01*
X32927000Y-40472000D01*
X32673000Y-40472000D01*
X32673000Y-40452000D01*
X31873750Y-40452000D01*
X31715000Y-40610750D01*
X31715000Y-40851310D01*
X31811673Y-41084699D01*
X31883333Y-41156359D01*
X31798559Y-41210910D01*
X31750866Y-41280711D01*
X31714090Y-41223559D01*
X31501890Y-41078569D01*
X31250000Y-41027560D01*
X30750000Y-41027560D01*
X30514683Y-41071838D01*
X30298559Y-41210910D01*
X30153569Y-41423110D01*
X30102560Y-41675000D01*
X30102560Y-42147638D01*
X29853592Y-42396606D01*
X29647628Y-42481708D01*
X29412534Y-42716393D01*
X29285145Y-43023179D01*
X29284855Y-43355363D01*
X29325016Y-43452560D01*
X28550000Y-43452560D01*
X28314683Y-43496838D01*
X28275580Y-43522000D01*
X28171091Y-43522000D01*
X27990821Y-43447145D01*
X27658637Y-43446855D01*
X27351628Y-43573708D01*
X27116534Y-43808393D01*
X26989145Y-44115179D01*
X26988855Y-44447363D01*
X27115708Y-44754372D01*
X27350393Y-44989466D01*
X27657179Y-45116855D01*
X27989363Y-45117145D01*
X28109451Y-45067526D01*
X28155711Y-45099134D01*
X28098559Y-45135910D01*
X27953569Y-45348110D01*
X27902560Y-45600000D01*
X27902560Y-46100000D01*
X27946838Y-46335317D01*
X28085910Y-46551441D01*
X28298110Y-46696431D01*
X28550000Y-46747440D01*
X29450000Y-46747440D01*
X29685317Y-46703162D01*
X29901441Y-46564090D01*
X30046431Y-46351890D01*
X30095263Y-46110750D01*
X31715000Y-46110750D01*
X31715000Y-46351310D01*
X31811673Y-46584699D01*
X31990302Y-46763327D01*
X32223691Y-46860000D01*
X32514250Y-46860000D01*
X32673000Y-46701250D01*
X32673000Y-45952000D01*
X31873750Y-45952000D01*
X31715000Y-46110750D01*
X30095263Y-46110750D01*
X30097440Y-46100000D01*
X30097440Y-45927362D01*
X30144065Y-45880737D01*
X30350000Y-45922440D01*
X31250000Y-45922440D01*
X31485317Y-45878162D01*
X31701441Y-45739090D01*
X31788064Y-45612314D01*
X31873750Y-45698000D01*
X32673000Y-45698000D01*
X32673000Y-45678000D01*
X32927000Y-45678000D01*
X32927000Y-45698000D01*
X32947000Y-45698000D01*
X32947000Y-45952000D01*
X32927000Y-45952000D01*
X32927000Y-46150780D01*
X32880135Y-46263643D01*
X32879845Y-46595827D01*
X33006698Y-46902836D01*
X33241383Y-47137930D01*
X33404863Y-47205813D01*
X33404855Y-47215363D01*
X33531708Y-47522372D01*
X33766393Y-47757466D01*
X34073179Y-47884855D01*
X34405363Y-47885145D01*
X34712372Y-47758292D01*
X34947466Y-47523607D01*
X35074855Y-47216821D01*
X35074952Y-47106240D01*
X35470907Y-47185000D01*
X35529093Y-47185000D01*
X36097378Y-47071961D01*
X36290000Y-46943255D01*
X36290000Y-55213000D01*
X29302873Y-55213000D01*
X29315000Y-55152032D01*
X29315000Y-53687968D01*
X29243827Y-53330159D01*
X29041145Y-53026823D01*
X28737809Y-52824141D01*
X28514530Y-52779728D01*
X28107127Y-52372325D01*
X30644587Y-52372325D01*
X31006916Y-53249229D01*
X31677242Y-53920726D01*
X32553513Y-54284585D01*
X33502325Y-54285413D01*
X34379229Y-53923084D01*
X35050726Y-53252758D01*
X35414585Y-52376487D01*
X35415413Y-51427675D01*
X35053084Y-50550771D01*
X34382758Y-49879274D01*
X33506487Y-49515415D01*
X32557675Y-49514587D01*
X31680771Y-49876916D01*
X31009274Y-50547242D01*
X30645415Y-51423513D01*
X30644587Y-52372325D01*
X28107127Y-52372325D01*
X25967401Y-50232599D01*
X25943287Y-50216487D01*
X26197809Y-50165859D01*
X26475000Y-49980646D01*
X26752191Y-50165859D01*
X27110000Y-50237032D01*
X27467809Y-50165859D01*
X27762613Y-49968878D01*
X27808657Y-50020948D01*
X28109653Y-50165063D01*
X28253000Y-50035790D01*
X28253000Y-48697000D01*
X28507000Y-48697000D01*
X28507000Y-50035790D01*
X28650347Y-50165063D01*
X28951343Y-50020948D01*
X29195227Y-49745142D01*
X29315000Y-49397000D01*
X29315000Y-48697000D01*
X28507000Y-48697000D01*
X28253000Y-48697000D01*
X28233000Y-48697000D01*
X28233000Y-48443000D01*
X28253000Y-48443000D01*
X28253000Y-47104210D01*
X28507000Y-47104210D01*
X28507000Y-48443000D01*
X29315000Y-48443000D01*
X29315000Y-47743000D01*
X29195227Y-47394858D01*
X28951343Y-47119052D01*
X28650347Y-46974937D01*
X28507000Y-47104210D01*
X28253000Y-47104210D01*
X28109653Y-46974937D01*
X27954975Y-47048996D01*
X27955145Y-46854637D01*
X27828292Y-46547628D01*
X27593607Y-46312534D01*
X27286821Y-46185145D01*
X26954637Y-46184855D01*
X26835000Y-46234288D01*
X26835000Y-46185750D01*
X26676250Y-46027000D01*
X25877000Y-46027000D01*
X25877000Y-46047000D01*
X25623000Y-46047000D01*
X25623000Y-46027000D01*
X24823750Y-46027000D01*
X24665000Y-46185750D01*
X24665000Y-46426310D01*
X24761673Y-46659699D01*
X24940302Y-46838327D01*
X25173691Y-46935000D01*
X25464250Y-46935000D01*
X25622998Y-46776252D01*
X25622998Y-46935000D01*
X25678965Y-46935000D01*
X25482191Y-46974141D01*
X25205000Y-47159354D01*
X24927809Y-46974141D01*
X24570000Y-46902968D01*
X24212191Y-46974141D01*
X23935000Y-47159354D01*
X23657809Y-46974141D01*
X23300000Y-46902968D01*
X22942191Y-46974141D01*
X22665000Y-47159354D01*
X22387809Y-46974141D01*
X22030000Y-46902968D01*
X21672191Y-46974141D01*
X21395000Y-47159354D01*
X21117809Y-46974141D01*
X20788426Y-46908622D01*
X20542836Y-46663032D01*
X20296274Y-46498285D01*
X20005435Y-46440433D01*
X19829150Y-46440433D01*
X19835000Y-46426310D01*
X19835000Y-46185750D01*
X19676250Y-46027000D01*
X18877000Y-46027000D01*
X18877000Y-46047000D01*
X18623000Y-46047000D01*
X18623000Y-46027000D01*
X17823750Y-46027000D01*
X17665000Y-46185750D01*
X17665000Y-46426310D01*
X17699826Y-46510388D01*
X17669032Y-46523112D01*
X17433938Y-46757797D01*
X17306549Y-47064583D01*
X17306259Y-47396767D01*
X17381404Y-47578633D01*
X17381404Y-47771404D01*
X17395049Y-47840000D01*
X15814802Y-47840000D01*
X14797242Y-46822440D01*
X15400000Y-46822440D01*
X15635317Y-46778162D01*
X15851441Y-46639090D01*
X15996431Y-46426890D01*
X16047440Y-46175000D01*
X16047440Y-46002362D01*
X16094065Y-45955737D01*
X16300000Y-45997440D01*
X17200000Y-45997440D01*
X17435317Y-45953162D01*
X17651441Y-45814090D01*
X17738064Y-45687314D01*
X17823750Y-45773000D01*
X18623000Y-45773000D01*
X18623000Y-45753000D01*
X18877000Y-45753000D01*
X18877000Y-45773000D01*
X19676250Y-45773000D01*
X19835000Y-45614250D01*
X19835000Y-45373690D01*
X19738327Y-45140301D01*
X19559698Y-44961673D01*
X19523253Y-44946577D01*
X19651441Y-44864090D01*
X19796431Y-44651890D01*
X19847440Y-44400000D01*
X19847440Y-43600000D01*
X19815709Y-43431363D01*
X20638855Y-43431363D01*
X20714000Y-43613229D01*
X20714000Y-43774000D01*
X20771852Y-44064839D01*
X20852560Y-44185627D01*
X20852560Y-44500000D01*
X20896838Y-44735317D01*
X21035910Y-44951441D01*
X21105711Y-44999134D01*
X21048559Y-45035910D01*
X20903569Y-45248110D01*
X20852560Y-45500000D01*
X20852560Y-46000000D01*
X20896838Y-46235317D01*
X21035910Y-46451441D01*
X21248110Y-46596431D01*
X21500000Y-46647440D01*
X22400000Y-46647440D01*
X22635317Y-46603162D01*
X22851441Y-46464090D01*
X22996431Y-46251890D01*
X23047440Y-46000000D01*
X23047440Y-45945973D01*
X23048110Y-45946431D01*
X23300000Y-45997440D01*
X24200000Y-45997440D01*
X24435317Y-45953162D01*
X24651441Y-45814090D01*
X24738064Y-45687314D01*
X24823750Y-45773000D01*
X25623000Y-45773000D01*
X25623000Y-45753000D01*
X25877000Y-45753000D01*
X25877000Y-45773000D01*
X26676250Y-45773000D01*
X26835000Y-45614250D01*
X26835000Y-45373690D01*
X26738327Y-45140301D01*
X26559698Y-44961673D01*
X26523253Y-44946577D01*
X26651441Y-44864090D01*
X26796431Y-44651890D01*
X26847440Y-44400000D01*
X26847440Y-43600000D01*
X26803162Y-43364683D01*
X26664090Y-43148559D01*
X26510000Y-43043274D01*
X26510000Y-42775000D01*
X26452148Y-42484161D01*
X26347440Y-42327454D01*
X26347440Y-41825000D01*
X26303162Y-41589683D01*
X26164090Y-41373559D01*
X26144246Y-41360000D01*
X26326309Y-41360000D01*
X26559698Y-41263327D01*
X26738327Y-41084699D01*
X26835000Y-40851310D01*
X26835000Y-40610750D01*
X26676250Y-40452000D01*
X25877000Y-40452000D01*
X25877000Y-40472000D01*
X25623000Y-40472000D01*
X25623000Y-40452000D01*
X24823750Y-40452000D01*
X24665000Y-40610750D01*
X24665000Y-40851310D01*
X24761673Y-41084699D01*
X24924603Y-41247629D01*
X24748559Y-41360910D01*
X24700866Y-41430711D01*
X24664090Y-41373559D01*
X24451890Y-41228569D01*
X24200000Y-41177560D01*
X23700000Y-41177560D01*
X23464683Y-41221838D01*
X23248559Y-41360910D01*
X23103569Y-41573110D01*
X23052560Y-41825000D01*
X23052560Y-42262171D01*
X23020173Y-42424990D01*
X23052560Y-42587809D01*
X23052560Y-42725000D01*
X23096838Y-42960317D01*
X23235910Y-43176441D01*
X23448110Y-43321431D01*
X23635517Y-43359382D01*
X23784930Y-43508795D01*
X23859470Y-43689197D01*
X24072462Y-43902560D01*
X23300000Y-43902560D01*
X23064683Y-43946838D01*
X23040380Y-43962477D01*
X23003162Y-43764683D01*
X22864090Y-43548559D01*
X22651890Y-43403569D01*
X22400000Y-43352560D01*
X22308925Y-43352560D01*
X22309145Y-43100637D01*
X22182292Y-42793628D01*
X21947607Y-42558534D01*
X21640821Y-42431145D01*
X21308637Y-42430855D01*
X21001628Y-42557708D01*
X20766534Y-42792393D01*
X20639145Y-43099179D01*
X20638855Y-43431363D01*
X19815709Y-43431363D01*
X19803162Y-43364683D01*
X19664090Y-43148559D01*
X19510000Y-43043274D01*
X19510000Y-42750000D01*
X19452148Y-42459161D01*
X19347440Y-42302454D01*
X19347440Y-41800000D01*
X19303162Y-41564683D01*
X19171452Y-41360000D01*
X19326309Y-41360000D01*
X19559698Y-41263327D01*
X19738327Y-41084699D01*
X19835000Y-40851310D01*
X19835000Y-40610750D01*
X19676250Y-40452000D01*
X18877000Y-40452000D01*
X18877000Y-40472000D01*
X18623000Y-40472000D01*
X18623000Y-40452000D01*
X17823750Y-40452000D01*
X17665000Y-40610750D01*
X17665000Y-40851310D01*
X17761673Y-41084699D01*
X17909392Y-41232417D01*
X17748559Y-41335910D01*
X17700866Y-41405711D01*
X17664090Y-41348559D01*
X17451890Y-41203569D01*
X17200000Y-41152560D01*
X16700000Y-41152560D01*
X16464683Y-41196838D01*
X16248559Y-41335910D01*
X16103569Y-41548110D01*
X16052560Y-41800000D01*
X16052560Y-42700000D01*
X16096838Y-42935317D01*
X16132663Y-42990991D01*
X16115145Y-43033179D01*
X16115030Y-43165000D01*
X15650000Y-43165000D01*
X15359161Y-43222852D01*
X15112599Y-43387599D01*
X14972638Y-43527560D01*
X14500000Y-43527560D01*
X14264683Y-43571838D01*
X14048559Y-43710910D01*
X13903569Y-43923110D01*
X13852560Y-44175000D01*
X13852560Y-44675000D01*
X13896838Y-44910317D01*
X14035910Y-45126441D01*
X14105711Y-45174134D01*
X14048559Y-45210910D01*
X13903569Y-45423110D01*
X13852560Y-45675000D01*
X13852560Y-45877758D01*
X13660000Y-45685198D01*
X13660000Y-42750000D01*
X13602148Y-42459161D01*
X13437401Y-42212599D01*
X12587401Y-41362599D01*
X12426304Y-41254958D01*
X12541476Y-40976890D01*
X12420155Y-40747000D01*
X11227000Y-40747000D01*
X11227000Y-40767000D01*
X10973000Y-40767000D01*
X10973000Y-40747000D01*
X10953000Y-40747000D01*
X10953000Y-40493000D01*
X10973000Y-40493000D01*
X10973000Y-40473000D01*
X11227000Y-40473000D01*
X11227000Y-40493000D01*
X12420155Y-40493000D01*
X12541476Y-40263110D01*
X12371645Y-39853076D01*
X11981358Y-39424817D01*
X11838447Y-39357702D01*
X12179147Y-39130054D01*
X12501054Y-38648285D01*
X12614093Y-38080000D01*
X12501054Y-37511715D01*
X12179147Y-37029946D01*
X11849974Y-36810000D01*
X12052016Y-36675000D01*
X12302081Y-36675000D01*
X12736427Y-36588603D01*
X13104647Y-36342566D01*
X13961464Y-35485749D01*
X14035910Y-35601441D01*
X14248110Y-35746431D01*
X14500000Y-35797440D01*
X15400000Y-35797440D01*
X15635317Y-35753162D01*
X15851441Y-35614090D01*
X15996431Y-35401890D01*
X16047440Y-35150000D01*
X16047440Y-34995973D01*
X16048110Y-34996431D01*
X16300000Y-35047440D01*
X17200000Y-35047440D01*
X17435317Y-35003162D01*
X17651441Y-34864090D01*
X17738064Y-34737314D01*
X17823750Y-34823000D01*
X18623000Y-34823000D01*
X18623000Y-34803000D01*
X18877000Y-34803000D01*
X18877000Y-34823000D01*
X19676250Y-34823000D01*
X19835000Y-34664250D01*
X19835000Y-34451774D01*
X19904403Y-34405401D01*
X20495181Y-33814623D01*
X20674127Y-33888929D01*
X20682599Y-33897401D01*
X20929160Y-34062148D01*
X21022584Y-34080731D01*
X21035910Y-34101441D01*
X21105711Y-34149134D01*
X21048559Y-34185910D01*
X20903569Y-34398110D01*
X20852560Y-34650000D01*
X20852560Y-35150000D01*
X20896838Y-35385317D01*
X21035910Y-35601441D01*
X21248110Y-35746431D01*
X21500000Y-35797440D01*
X22400000Y-35797440D01*
X22635317Y-35753162D01*
X22851441Y-35614090D01*
X22996431Y-35401890D01*
X23047440Y-35150000D01*
X23047440Y-34995973D01*
X23048110Y-34996431D01*
X23300000Y-35047440D01*
X24200000Y-35047440D01*
X24435317Y-35003162D01*
X24651441Y-34864090D01*
X24738064Y-34737314D01*
X24823750Y-34823000D01*
X25623000Y-34823000D01*
X25623000Y-34803000D01*
X25877000Y-34803000D01*
X25877000Y-34823000D01*
X26676250Y-34823000D01*
X26835000Y-34664250D01*
X26835000Y-34635750D01*
X29215000Y-34635750D01*
X29215000Y-34851310D01*
X29311673Y-35084699D01*
X29490302Y-35263327D01*
X29723691Y-35360000D01*
X29964250Y-35360000D01*
X30123000Y-35201250D01*
X30123000Y-34477000D01*
X29373750Y-34477000D01*
X29215000Y-34635750D01*
X26835000Y-34635750D01*
X26835000Y-34423690D01*
X26738327Y-34190301D01*
X26559698Y-34011673D01*
X26523253Y-33996577D01*
X26651441Y-33914090D01*
X26696126Y-33848690D01*
X29215000Y-33848690D01*
X29215000Y-34064250D01*
X29373750Y-34223000D01*
X30123000Y-34223000D01*
X30123000Y-33498750D01*
X29964250Y-33340000D01*
X29723691Y-33340000D01*
X29490302Y-33436673D01*
X29311673Y-33615301D01*
X29215000Y-33848690D01*
X26696126Y-33848690D01*
X26796431Y-33701890D01*
X26847440Y-33450000D01*
X26847440Y-32650000D01*
X26803162Y-32414683D01*
X26664090Y-32198559D01*
X26635000Y-32178683D01*
X26635000Y-31150005D01*
X26635001Y-31150000D01*
X26621374Y-31081496D01*
X27592030Y-32052152D01*
X27751245Y-32211645D01*
X28168254Y-32384803D01*
X28619785Y-32385197D01*
X29037096Y-32212767D01*
X29115000Y-32134999D01*
X29115000Y-32200000D01*
X29201397Y-32634346D01*
X29447434Y-33002566D01*
X29815654Y-33248603D01*
X30250000Y-33335000D01*
X30684346Y-33248603D01*
X31052566Y-33002566D01*
X31119339Y-32902634D01*
X31233691Y-32950000D01*
X31474250Y-32950000D01*
X31633000Y-32791250D01*
X31633000Y-32067000D01*
X31887000Y-32067000D01*
X31887000Y-32791250D01*
X32045750Y-32950000D01*
X32286309Y-32950000D01*
X32519698Y-32853327D01*
X32698327Y-32674699D01*
X32795000Y-32441310D01*
X32795000Y-32225750D01*
X32636250Y-32067000D01*
X31887000Y-32067000D01*
X31633000Y-32067000D01*
X31613000Y-32067000D01*
X31613000Y-31813000D01*
X31633000Y-31813000D01*
X31633000Y-31088750D01*
X31623000Y-31078750D01*
X31623000Y-30627000D01*
X31877000Y-30627000D01*
X31877000Y-31351250D01*
X31887000Y-31361250D01*
X31887000Y-31813000D01*
X32636250Y-31813000D01*
X32795000Y-31654250D01*
X32795000Y-31438690D01*
X32699416Y-31207929D01*
X32785000Y-31001310D01*
X32785000Y-30785750D01*
X32626250Y-30627000D01*
X31877000Y-30627000D01*
X31623000Y-30627000D01*
X31603000Y-30627000D01*
X31603000Y-30373000D01*
X31623000Y-30373000D01*
X31623000Y-29648750D01*
X31877000Y-29648750D01*
X31877000Y-30373000D01*
X32626250Y-30373000D01*
X32785000Y-30214250D01*
X32785000Y-29998690D01*
X32688327Y-29765301D01*
X32509698Y-29586673D01*
X32276309Y-29490000D01*
X32035750Y-29490000D01*
X31877000Y-29648750D01*
X31623000Y-29648750D01*
X31464250Y-29490000D01*
X31385000Y-29490000D01*
X31385000Y-29125000D01*
X31298603Y-28690654D01*
X31052566Y-28322434D01*
X30969548Y-28239416D01*
X30963482Y-28235363D01*
X30601328Y-27993379D01*
X30166982Y-27906982D01*
X29856990Y-27906982D01*
X29631225Y-27906785D01*
X29213914Y-28079215D01*
X28894355Y-28398217D01*
X28721197Y-28815226D01*
X28720803Y-29266757D01*
X28893233Y-29684068D01*
X29115000Y-29906222D01*
X29115000Y-30364713D01*
X29038775Y-30288355D01*
X29038300Y-30288158D01*
X27703788Y-28953646D01*
X27672289Y-28932599D01*
X27335568Y-28707609D01*
X26901222Y-28621212D01*
X26299726Y-28621212D01*
X26377466Y-28543607D01*
X26504855Y-28236821D01*
X26505145Y-27904637D01*
X26378292Y-27597628D01*
X26143607Y-27362534D01*
X25961873Y-27287071D01*
X25759815Y-27085013D01*
X26712145Y-27085013D01*
X26726344Y-27082189D01*
X26853179Y-27134855D01*
X27185363Y-27135145D01*
X27492372Y-27008292D01*
X27727466Y-26773607D01*
X27854855Y-26466821D01*
X27854925Y-26385750D01*
X32065000Y-26385750D01*
X32065000Y-26626310D01*
X32161673Y-26859699D01*
X32340302Y-27038327D01*
X32573691Y-27135000D01*
X32864250Y-27135000D01*
X33023000Y-26976250D01*
X33023000Y-26227000D01*
X32223750Y-26227000D01*
X32065000Y-26385750D01*
X27854925Y-26385750D01*
X27855145Y-26134637D01*
X27728292Y-25827628D01*
X27648305Y-25747501D01*
X30035806Y-23360000D01*
X30221614Y-23360000D01*
X30348110Y-23446431D01*
G36*
X23427000Y-54293000D02*
X23447000Y-54293000D01*
X23447000Y-54547000D01*
X23427000Y-54547000D01*
X23427000Y-54567000D01*
X23173000Y-54567000D01*
X23173000Y-54547000D01*
X23153000Y-54547000D01*
X23153000Y-54293000D01*
X23173000Y-54293000D01*
X23173000Y-54273000D01*
X23427000Y-54273000D01*
X23427000Y-54293000D01*
X23427000Y-54293000D01*
G37*
X23427000Y-54293000D02*
X23447000Y-54293000D01*
X23447000Y-54547000D01*
X23427000Y-54547000D01*
X23427000Y-54567000D01*
X23173000Y-54567000D01*
X23173000Y-54547000D01*
X23153000Y-54547000D01*
X23153000Y-54293000D01*
X23173000Y-54293000D01*
X23173000Y-54273000D01*
X23427000Y-54273000D01*
X23427000Y-54293000D01*
G36*
X7702599Y-33537401D02*
X7949161Y-33702148D01*
X8240000Y-33760000D01*
X9602560Y-33760000D01*
X9602560Y-33850000D01*
X9646838Y-34085317D01*
X9785910Y-34301441D01*
X9998110Y-34446431D01*
X10065541Y-34460086D01*
X10020853Y-34489946D01*
X9698946Y-34971715D01*
X9585907Y-35540000D01*
X9698946Y-36108285D01*
X10020853Y-36590054D01*
X10350026Y-36810000D01*
X10020853Y-37029946D01*
X9698946Y-37511715D01*
X9585907Y-38080000D01*
X9698946Y-38648285D01*
X10020853Y-39130054D01*
X10361553Y-39357702D01*
X10218642Y-39424817D01*
X9828355Y-39853076D01*
X9733442Y-40082230D01*
X5135011Y-35483799D01*
X5135011Y-30969813D01*
X7702599Y-33537401D01*
X7702599Y-33537401D01*
G37*
X7702599Y-33537401D02*
X7949161Y-33702148D01*
X8240000Y-33760000D01*
X9602560Y-33760000D01*
X9602560Y-33850000D01*
X9646838Y-34085317D01*
X9785910Y-34301441D01*
X9998110Y-34446431D01*
X10065541Y-34460086D01*
X10020853Y-34489946D01*
X9698946Y-34971715D01*
X9585907Y-35540000D01*
X9698946Y-36108285D01*
X10020853Y-36590054D01*
X10350026Y-36810000D01*
X10020853Y-37029946D01*
X9698946Y-37511715D01*
X9585907Y-38080000D01*
X9698946Y-38648285D01*
X10020853Y-39130054D01*
X10361553Y-39357702D01*
X10218642Y-39424817D01*
X9828355Y-39853076D01*
X9733442Y-40082230D01*
X5135011Y-35483799D01*
X5135011Y-30969813D01*
X7702599Y-33537401D01*
G36*
X5885869Y-20095673D02*
X5889408Y-20098038D01*
X5852560Y-20280000D01*
X5852560Y-20637557D01*
X5807598Y-20667600D01*
X5412599Y-21062599D01*
X5247852Y-21309161D01*
X5190000Y-21600000D01*
X5190000Y-23540000D01*
X5247852Y-23830839D01*
X5412599Y-24077401D01*
X5859728Y-24524530D01*
X5904141Y-24747809D01*
X6089354Y-25025000D01*
X5904141Y-25302191D01*
X5832968Y-25660000D01*
X5904141Y-26017809D01*
X6089354Y-26295000D01*
X5904141Y-26572191D01*
X5832968Y-26930000D01*
X5904141Y-27287809D01*
X6089354Y-27565000D01*
X5904141Y-27842191D01*
X5832968Y-28200000D01*
X5904141Y-28557809D01*
X6101122Y-28852613D01*
X6049052Y-28898657D01*
X5904937Y-29199653D01*
X6034210Y-29343000D01*
X7373000Y-29343000D01*
X7373000Y-29323000D01*
X7627000Y-29323000D01*
X7627000Y-29343000D01*
X8965790Y-29343000D01*
X9095063Y-29199653D01*
X8950948Y-28898657D01*
X8898878Y-28852613D01*
X9095859Y-28557809D01*
X9167032Y-28200000D01*
X9095859Y-27842191D01*
X8965523Y-27647129D01*
X9040839Y-27632148D01*
X9287401Y-27467401D01*
X9519802Y-27235000D01*
X12813602Y-27235000D01*
X12631541Y-27673451D01*
X12624252Y-27684360D01*
X12621715Y-27697115D01*
X12608422Y-27729128D01*
X12608392Y-27764095D01*
X12566400Y-27975199D01*
X12608025Y-28184462D01*
X12607890Y-28339789D01*
X12841087Y-28904169D01*
X13272512Y-29336349D01*
X13836485Y-29570531D01*
X13981733Y-29570658D01*
X13867255Y-29685136D01*
X13686853Y-29759676D01*
X13451759Y-29994361D01*
X13324370Y-30301147D01*
X13324080Y-30633331D01*
X13422746Y-30872122D01*
X12777434Y-31517434D01*
X12532969Y-31883302D01*
X12414090Y-31698559D01*
X12201890Y-31553569D01*
X11950000Y-31502560D01*
X10250000Y-31502560D01*
X10014683Y-31546838D01*
X9798559Y-31685910D01*
X9653569Y-31898110D01*
X9602560Y-32150000D01*
X9602560Y-32240000D01*
X8554802Y-32240000D01*
X6719802Y-30405000D01*
X7373000Y-30405000D01*
X7373000Y-29597000D01*
X7627000Y-29597000D01*
X7627000Y-30405000D01*
X8327000Y-30405000D01*
X8675142Y-30285227D01*
X8950948Y-30041343D01*
X9095063Y-29740347D01*
X8965790Y-29597000D01*
X7627000Y-29597000D01*
X7373000Y-29597000D01*
X6034210Y-29597000D01*
X5976166Y-29661364D01*
X5660021Y-29345219D01*
X5660021Y-26781764D01*
X5734876Y-26601494D01*
X5735166Y-26269310D01*
X5608313Y-25962301D01*
X5373628Y-25727207D01*
X5135011Y-25628124D01*
X5135011Y-24048270D01*
X5077159Y-23757431D01*
X4912412Y-23510869D01*
X3984142Y-22582599D01*
X3737580Y-22417852D01*
X3446741Y-22360000D01*
X3144169Y-22360000D01*
X3245859Y-22207809D01*
X3317032Y-21850000D01*
X3287561Y-21701841D01*
X3387860Y-21460295D01*
X3388159Y-21117569D01*
X3357708Y-21043872D01*
X3575787Y-20825792D01*
X3575790Y-20825790D01*
X3603045Y-20785000D01*
X4439841Y-20785000D01*
X4674775Y-20785205D01*
X5092086Y-20612775D01*
X5411645Y-20293773D01*
X5584803Y-19876764D01*
X5584875Y-19794679D01*
X5885869Y-20095673D01*
X5885869Y-20095673D01*
G37*
X5885869Y-20095673D02*
X5889408Y-20098038D01*
X5852560Y-20280000D01*
X5852560Y-20637557D01*
X5807598Y-20667600D01*
X5412599Y-21062599D01*
X5247852Y-21309161D01*
X5190000Y-21600000D01*
X5190000Y-23540000D01*
X5247852Y-23830839D01*
X5412599Y-24077401D01*
X5859728Y-24524530D01*
X5904141Y-24747809D01*
X6089354Y-25025000D01*
X5904141Y-25302191D01*
X5832968Y-25660000D01*
X5904141Y-26017809D01*
X6089354Y-26295000D01*
X5904141Y-26572191D01*
X5832968Y-26930000D01*
X5904141Y-27287809D01*
X6089354Y-27565000D01*
X5904141Y-27842191D01*
X5832968Y-28200000D01*
X5904141Y-28557809D01*
X6101122Y-28852613D01*
X6049052Y-28898657D01*
X5904937Y-29199653D01*
X6034210Y-29343000D01*
X7373000Y-29343000D01*
X7373000Y-29323000D01*
X7627000Y-29323000D01*
X7627000Y-29343000D01*
X8965790Y-29343000D01*
X9095063Y-29199653D01*
X8950948Y-28898657D01*
X8898878Y-28852613D01*
X9095859Y-28557809D01*
X9167032Y-28200000D01*
X9095859Y-27842191D01*
X8965523Y-27647129D01*
X9040839Y-27632148D01*
X9287401Y-27467401D01*
X9519802Y-27235000D01*
X12813602Y-27235000D01*
X12631541Y-27673451D01*
X12624252Y-27684360D01*
X12621715Y-27697115D01*
X12608422Y-27729128D01*
X12608392Y-27764095D01*
X12566400Y-27975199D01*
X12608025Y-28184462D01*
X12607890Y-28339789D01*
X12841087Y-28904169D01*
X13272512Y-29336349D01*
X13836485Y-29570531D01*
X13981733Y-29570658D01*
X13867255Y-29685136D01*
X13686853Y-29759676D01*
X13451759Y-29994361D01*
X13324370Y-30301147D01*
X13324080Y-30633331D01*
X13422746Y-30872122D01*
X12777434Y-31517434D01*
X12532969Y-31883302D01*
X12414090Y-31698559D01*
X12201890Y-31553569D01*
X11950000Y-31502560D01*
X10250000Y-31502560D01*
X10014683Y-31546838D01*
X9798559Y-31685910D01*
X9653569Y-31898110D01*
X9602560Y-32150000D01*
X9602560Y-32240000D01*
X8554802Y-32240000D01*
X6719802Y-30405000D01*
X7373000Y-30405000D01*
X7373000Y-29597000D01*
X7627000Y-29597000D01*
X7627000Y-30405000D01*
X8327000Y-30405000D01*
X8675142Y-30285227D01*
X8950948Y-30041343D01*
X9095063Y-29740347D01*
X8965790Y-29597000D01*
X7627000Y-29597000D01*
X7373000Y-29597000D01*
X6034210Y-29597000D01*
X5976166Y-29661364D01*
X5660021Y-29345219D01*
X5660021Y-26781764D01*
X5734876Y-26601494D01*
X5735166Y-26269310D01*
X5608313Y-25962301D01*
X5373628Y-25727207D01*
X5135011Y-25628124D01*
X5135011Y-24048270D01*
X5077159Y-23757431D01*
X4912412Y-23510869D01*
X3984142Y-22582599D01*
X3737580Y-22417852D01*
X3446741Y-22360000D01*
X3144169Y-22360000D01*
X3245859Y-22207809D01*
X3317032Y-21850000D01*
X3287561Y-21701841D01*
X3387860Y-21460295D01*
X3388159Y-21117569D01*
X3357708Y-21043872D01*
X3575787Y-20825792D01*
X3575790Y-20825790D01*
X3603045Y-20785000D01*
X4439841Y-20785000D01*
X4674775Y-20785205D01*
X5092086Y-20612775D01*
X5411645Y-20293773D01*
X5584803Y-19876764D01*
X5584875Y-19794679D01*
X5885869Y-20095673D01*
G36*
X3615011Y-24363072D02*
X3615011Y-27120209D01*
X3290272Y-26795470D01*
X3245859Y-26572191D01*
X3243749Y-26569033D01*
X3334865Y-26349601D01*
X3335155Y-26017417D01*
X3274930Y-25871660D01*
X3317032Y-25660000D01*
X3245859Y-25302191D01*
X3048878Y-25007387D01*
X3100948Y-24961343D01*
X3245063Y-24660347D01*
X3115790Y-24517000D01*
X1777000Y-24517000D01*
X1777000Y-24537000D01*
X1523000Y-24537000D01*
X1523000Y-24517000D01*
X1503000Y-24517000D01*
X1503000Y-24263000D01*
X1523000Y-24263000D01*
X1523000Y-24243000D01*
X1777000Y-24243000D01*
X1777000Y-24263000D01*
X3115790Y-24263000D01*
X3245063Y-24119653D01*
X3130319Y-23880000D01*
X3131939Y-23880000D01*
X3615011Y-24363072D01*
X3615011Y-24363072D01*
G37*
X3615011Y-24363072D02*
X3615011Y-27120209D01*
X3290272Y-26795470D01*
X3245859Y-26572191D01*
X3243749Y-26569033D01*
X3334865Y-26349601D01*
X3335155Y-26017417D01*
X3274930Y-25871660D01*
X3317032Y-25660000D01*
X3245859Y-25302191D01*
X3048878Y-25007387D01*
X3100948Y-24961343D01*
X3245063Y-24660347D01*
X3115790Y-24517000D01*
X1777000Y-24517000D01*
X1777000Y-24537000D01*
X1523000Y-24537000D01*
X1523000Y-24517000D01*
X1503000Y-24517000D01*
X1503000Y-24263000D01*
X1523000Y-24263000D01*
X1523000Y-24243000D01*
X1777000Y-24243000D01*
X1777000Y-24263000D01*
X3115790Y-24263000D01*
X3245063Y-24119653D01*
X3130319Y-23880000D01*
X3131939Y-23880000D01*
X3615011Y-24363072D01*
G36*
X36290000Y-11677736D02*
X36163890Y-11591569D01*
X35912000Y-11540560D01*
X34388000Y-11540560D01*
X34152683Y-11584838D01*
X33936559Y-11723910D01*
X33801475Y-11921612D01*
X33701890Y-11853569D01*
X33450000Y-11802560D01*
X32550000Y-11802560D01*
X32314683Y-11846838D01*
X32098559Y-11985910D01*
X31999367Y-12131083D01*
X31914090Y-11998559D01*
X31701890Y-11853569D01*
X31450000Y-11802560D01*
X30550000Y-11802560D01*
X30314683Y-11846838D01*
X30098559Y-11985910D01*
X29953569Y-12198110D01*
X29902560Y-12450000D01*
X29902560Y-12950000D01*
X29946838Y-13185317D01*
X30085910Y-13401441D01*
X30142343Y-13440000D01*
X28750000Y-13440000D01*
X28459160Y-13497852D01*
X28212599Y-13662599D01*
X25306892Y-16568306D01*
X25062637Y-16669230D01*
X24820082Y-16911362D01*
X24688650Y-17227885D01*
X24688351Y-17570611D01*
X24819230Y-17887363D01*
X25061362Y-18129918D01*
X25377885Y-18261350D01*
X25720611Y-18261649D01*
X26025310Y-18135750D01*
X31965000Y-18135750D01*
X31965000Y-18376310D01*
X32061673Y-18609699D01*
X32240302Y-18788327D01*
X32473691Y-18885000D01*
X32764250Y-18885000D01*
X32923000Y-18726250D01*
X32923000Y-17977000D01*
X32123750Y-17977000D01*
X31965000Y-18135750D01*
X26025310Y-18135750D01*
X26037363Y-18130770D01*
X26279918Y-17888638D01*
X26381997Y-17642805D01*
X29064802Y-14960000D01*
X30171614Y-14960000D01*
X30298110Y-15046431D01*
X30550000Y-15097440D01*
X31269328Y-15097440D01*
X31297852Y-15240839D01*
X31462599Y-15487401D01*
X31952560Y-15977362D01*
X31952560Y-16040681D01*
X31751890Y-15903569D01*
X31500000Y-15852560D01*
X31486087Y-15852560D01*
X31484346Y-15851397D01*
X31050000Y-15765000D01*
X31000000Y-15765000D01*
X30565654Y-15851397D01*
X30549768Y-15862012D01*
X30364683Y-15896838D01*
X30148559Y-16035910D01*
X30003569Y-16248110D01*
X29963046Y-16448221D01*
X29951397Y-16465654D01*
X29865000Y-16900000D01*
X29951397Y-17334346D01*
X29962012Y-17350232D01*
X29996838Y-17535317D01*
X30135910Y-17751441D01*
X30348110Y-17896431D01*
X30548221Y-17936954D01*
X30565654Y-17948603D01*
X31000000Y-18035000D01*
X31050000Y-18035000D01*
X31484346Y-17948603D01*
X31486087Y-17947440D01*
X31500000Y-17947440D01*
X31735317Y-17903162D01*
X31951441Y-17764090D01*
X32022563Y-17660000D01*
X32060750Y-17660000D01*
X32123750Y-17723000D01*
X32923000Y-17723000D01*
X32923000Y-17703000D01*
X33177000Y-17703000D01*
X33177000Y-17723000D01*
X33197000Y-17723000D01*
X33197000Y-17977000D01*
X33177000Y-17977000D01*
X33177000Y-18726250D01*
X33335750Y-18885000D01*
X33626309Y-18885000D01*
X33859698Y-18788327D01*
X33948246Y-18699779D01*
X33964990Y-18740303D01*
X34357630Y-19133629D01*
X34870900Y-19346757D01*
X35426661Y-19347242D01*
X35940303Y-19135010D01*
X36290000Y-18785923D01*
X36290000Y-19993573D01*
X36213890Y-19941569D01*
X35962000Y-19890560D01*
X34438000Y-19890560D01*
X34202683Y-19934838D01*
X33986559Y-20073910D01*
X33841569Y-20286110D01*
X33833197Y-20327451D01*
X33651890Y-20203569D01*
X33400000Y-20152560D01*
X32500000Y-20152560D01*
X32264683Y-20196838D01*
X32048559Y-20335910D01*
X31984297Y-20429961D01*
X31964090Y-20398559D01*
X31751890Y-20253569D01*
X31500000Y-20202560D01*
X30600000Y-20202560D01*
X30364683Y-20246838D01*
X30148559Y-20385910D01*
X30003569Y-20598110D01*
X29952560Y-20850000D01*
X29952560Y-21350000D01*
X29996838Y-21585317D01*
X30135910Y-21801441D01*
X30192343Y-21840000D01*
X29721004Y-21840000D01*
X29714021Y-21841389D01*
X29714021Y-19776992D01*
X29714218Y-19551226D01*
X29541788Y-19133915D01*
X29222786Y-18814356D01*
X28805777Y-18641198D01*
X28354246Y-18640804D01*
X27936935Y-18813234D01*
X27617376Y-19132236D01*
X27444218Y-19549245D01*
X27443824Y-20000776D01*
X27444021Y-20001253D01*
X27444021Y-21950839D01*
X25350832Y-24044028D01*
X25195223Y-23667427D01*
X24763798Y-23235247D01*
X24199825Y-23001065D01*
X23589164Y-23000533D01*
X23024784Y-23233730D01*
X22592604Y-23665155D01*
X22358422Y-24229128D01*
X22357890Y-24839789D01*
X22403428Y-24950000D01*
X16417933Y-24950000D01*
X16551441Y-24864090D01*
X16622563Y-24760000D01*
X16660750Y-24760000D01*
X16723750Y-24823000D01*
X17523000Y-24823000D01*
X17523000Y-24803000D01*
X17777000Y-24803000D01*
X17777000Y-24823000D01*
X18576250Y-24823000D01*
X18639250Y-24760000D01*
X19999990Y-24760000D01*
X20290829Y-24702148D01*
X20537391Y-24537401D01*
X20591960Y-24482832D01*
X20772362Y-24408292D01*
X21007456Y-24173607D01*
X21039083Y-24097440D01*
X21350000Y-24097440D01*
X21585317Y-24053162D01*
X21801441Y-23914090D01*
X21946431Y-23701890D01*
X21997440Y-23450000D01*
X21997440Y-22883000D01*
X22013194Y-22867246D01*
X22131028Y-22749617D01*
X22230111Y-22511000D01*
X22743271Y-22511000D01*
X22909363Y-22511145D01*
X23216372Y-22384292D01*
X23451466Y-22149607D01*
X23578855Y-21842821D01*
X23579095Y-21567463D01*
X23586485Y-21570531D01*
X24197146Y-21571063D01*
X24761526Y-21337866D01*
X25193706Y-20906441D01*
X25427888Y-20342468D01*
X25428420Y-19731807D01*
X25195223Y-19167427D01*
X24763798Y-18735247D01*
X24199825Y-18501065D01*
X23589164Y-18500533D01*
X23024784Y-18733730D01*
X22592604Y-19165155D01*
X22358422Y-19729128D01*
X22357890Y-20339789D01*
X22564986Y-20841000D01*
X20088235Y-20841000D01*
X20116839Y-20772115D01*
X20117138Y-20429389D01*
X19986259Y-20112637D01*
X19909921Y-20036165D01*
X20085317Y-20003162D01*
X20301441Y-19864090D01*
X20349134Y-19794289D01*
X20385910Y-19851441D01*
X20598110Y-19996431D01*
X20657613Y-20008481D01*
X20882764Y-20233632D01*
X21000393Y-20351466D01*
X21307179Y-20478855D01*
X21639363Y-20479145D01*
X21946372Y-20352292D01*
X22181466Y-20117607D01*
X22308855Y-19810821D01*
X22309145Y-19478637D01*
X22182292Y-19171628D01*
X21997440Y-18986454D01*
X21997440Y-18500000D01*
X21953162Y-18264683D01*
X21935000Y-18236458D01*
X21935000Y-15818620D01*
X21946431Y-15801890D01*
X21988952Y-15591916D01*
X22363167Y-15217701D01*
X22358422Y-15229128D01*
X22357890Y-15839789D01*
X22591087Y-16404169D01*
X23022512Y-16836349D01*
X23586485Y-17070531D01*
X24197146Y-17071063D01*
X24761526Y-16837866D01*
X25193706Y-16406441D01*
X25427888Y-15842468D01*
X25428420Y-15231807D01*
X25195223Y-14667427D01*
X24763798Y-14235247D01*
X24199825Y-14001065D01*
X23589164Y-14000533D01*
X23574118Y-14006750D01*
X25290434Y-12290434D01*
X25471439Y-12019541D01*
X25535000Y-11700000D01*
X25535000Y-11685573D01*
X25561350Y-11622115D01*
X25561649Y-11279389D01*
X25430770Y-10962637D01*
X25188638Y-10720082D01*
X24872115Y-10588650D01*
X24529389Y-10588351D01*
X24212637Y-10719230D01*
X23970082Y-10961362D01*
X23838650Y-11277885D01*
X23838560Y-11380572D01*
X23622547Y-11596585D01*
X23445223Y-11167427D01*
X23013798Y-10735247D01*
X22449825Y-10501065D01*
X21839164Y-10500533D01*
X21274784Y-10733730D01*
X20842604Y-11165155D01*
X20608422Y-11729128D01*
X20607890Y-12339789D01*
X20841087Y-12904169D01*
X21272512Y-13336349D01*
X21703727Y-13515405D01*
X21216572Y-14002560D01*
X20850000Y-14002560D01*
X20614683Y-14046838D01*
X20398559Y-14185910D01*
X20350866Y-14255711D01*
X20314090Y-14198559D01*
X20101890Y-14053569D01*
X19850000Y-14002560D01*
X19777362Y-14002560D01*
X19537401Y-13762599D01*
X19290839Y-13597852D01*
X19000000Y-13540000D01*
X17047091Y-13540000D01*
X16866821Y-13465145D01*
X16534637Y-13464855D01*
X16227628Y-13591708D01*
X15992534Y-13826393D01*
X15865145Y-14133179D01*
X15864855Y-14465363D01*
X15875035Y-14490000D01*
X15050000Y-14490000D01*
X14759160Y-14547852D01*
X14512599Y-14712599D01*
X13928363Y-15296835D01*
X13928420Y-15231807D01*
X13695223Y-14667427D01*
X13263798Y-14235247D01*
X12699825Y-14001065D01*
X12089164Y-14000533D01*
X11524784Y-14233730D01*
X11092604Y-14665155D01*
X10858422Y-15229128D01*
X10857890Y-15839789D01*
X11091087Y-16404169D01*
X11522512Y-16836349D01*
X12086485Y-17070531D01*
X12154608Y-17070590D01*
X11060000Y-18165198D01*
X11060000Y-16683776D01*
X11002148Y-16392937D01*
X10837401Y-16146375D01*
X9702123Y-15011097D01*
X9455561Y-14846350D01*
X9164722Y-14788498D01*
X8972440Y-14788498D01*
X8972440Y-14325000D01*
X8928162Y-14089683D01*
X8789090Y-13873559D01*
X8635000Y-13768274D01*
X8635000Y-13375000D01*
X8577148Y-13084161D01*
X8572440Y-13077115D01*
X8572440Y-12725000D01*
X8528162Y-12489683D01*
X8431708Y-12339789D01*
X12607890Y-12339789D01*
X12841087Y-12904169D01*
X13272512Y-13336349D01*
X13836485Y-13570531D01*
X14447146Y-13571063D01*
X15011526Y-13337866D01*
X15443706Y-12906441D01*
X15677888Y-12342468D01*
X15678420Y-11731807D01*
X15516442Y-11339789D01*
X16607890Y-11339789D01*
X16841087Y-11904169D01*
X17272512Y-12336349D01*
X17836485Y-12570531D01*
X18447146Y-12571063D01*
X19011526Y-12337866D01*
X19443706Y-11906441D01*
X19677888Y-11342468D01*
X19678420Y-10731807D01*
X19445223Y-10167427D01*
X19013798Y-9735247D01*
X18449825Y-9501065D01*
X17839164Y-9500533D01*
X17274784Y-9733730D01*
X16842604Y-10165155D01*
X16608422Y-10729128D01*
X16607890Y-11339789D01*
X15516442Y-11339789D01*
X15445223Y-11167427D01*
X15013798Y-10735247D01*
X14449825Y-10501065D01*
X13839164Y-10500533D01*
X13274784Y-10733730D01*
X12842604Y-11165155D01*
X12608422Y-11729128D01*
X12607890Y-12339789D01*
X8431708Y-12339789D01*
X8389090Y-12273559D01*
X8176890Y-12128569D01*
X7925000Y-12077560D01*
X7425000Y-12077560D01*
X7189683Y-12121838D01*
X6973559Y-12260910D01*
X6925866Y-12330711D01*
X6889090Y-12273559D01*
X6676890Y-12128569D01*
X6425000Y-12077560D01*
X5925000Y-12077560D01*
X5689683Y-12121838D01*
X5473559Y-12260910D01*
X5328569Y-12473110D01*
X5277560Y-12725000D01*
X5277560Y-13625000D01*
X5321838Y-13860317D01*
X5415000Y-14005095D01*
X5415000Y-14460002D01*
X5448330Y-14627560D01*
X5425000Y-14627560D01*
X5189683Y-14671838D01*
X4973559Y-14810910D01*
X4828569Y-15023110D01*
X4777560Y-15275000D01*
X4777560Y-16075000D01*
X4821838Y-16310317D01*
X4960910Y-16526441D01*
X5115000Y-16631726D01*
X5115000Y-17025000D01*
X5172852Y-17315839D01*
X5337599Y-17562401D01*
X5339792Y-17564594D01*
X5327560Y-17625000D01*
X5327560Y-17868000D01*
X4642802Y-17868000D01*
X4387401Y-17612599D01*
X4327315Y-17572451D01*
X4409698Y-17538327D01*
X4588327Y-17359699D01*
X4685000Y-17126310D01*
X4685000Y-16885750D01*
X4526250Y-16727000D01*
X3727000Y-16727000D01*
X3727000Y-16747000D01*
X3473000Y-16747000D01*
X3473000Y-16727000D01*
X3461433Y-16727000D01*
X3461649Y-16479389D01*
X3459009Y-16473000D01*
X3473000Y-16473000D01*
X3473000Y-16453000D01*
X3727000Y-16453000D01*
X3727000Y-16473000D01*
X4526250Y-16473000D01*
X4685000Y-16314250D01*
X4685000Y-16073690D01*
X4588327Y-15840301D01*
X4409698Y-15661673D01*
X4373253Y-15646577D01*
X4501441Y-15564090D01*
X4646431Y-15351890D01*
X4697440Y-15100000D01*
X4697440Y-14300000D01*
X4653162Y-14064683D01*
X4514090Y-13848559D01*
X4360000Y-13743274D01*
X4360000Y-13450000D01*
X4302148Y-13159161D01*
X4197440Y-13002454D01*
X4197440Y-12700000D01*
X4153162Y-12464683D01*
X4014090Y-12248559D01*
X3801890Y-12103569D01*
X3550000Y-12052560D01*
X3050000Y-12052560D01*
X2814683Y-12096838D01*
X2598559Y-12235910D01*
X2550866Y-12305711D01*
X2514090Y-12248559D01*
X2301890Y-12103569D01*
X2050000Y-12052560D01*
X1550000Y-12052560D01*
X1314683Y-12096838D01*
X1098559Y-12235910D01*
X953569Y-12448110D01*
X902560Y-12700000D01*
X902560Y-13600000D01*
X946838Y-13835317D01*
X1077456Y-14038303D01*
X1097852Y-14140839D01*
X1262599Y-14387401D01*
X1477758Y-14602560D01*
X1150000Y-14602560D01*
X914683Y-14646838D01*
X710000Y-14778548D01*
X710000Y-8172325D01*
X1114587Y-8172325D01*
X1476916Y-9049229D01*
X2147242Y-9720726D01*
X3023513Y-10084585D01*
X3972325Y-10085413D01*
X4849229Y-9723084D01*
X5520726Y-9052758D01*
X5884585Y-8176487D01*
X5885413Y-7227675D01*
X5523084Y-6350771D01*
X5437463Y-6265000D01*
X21020238Y-6265000D01*
X21020238Y-9785000D01*
X26499762Y-9785000D01*
X26499762Y-8172325D01*
X30914587Y-8172325D01*
X31276916Y-9049229D01*
X31947242Y-9720726D01*
X32823513Y-10084585D01*
X33772325Y-10085413D01*
X34649229Y-9723084D01*
X35320726Y-9052758D01*
X35684585Y-8176487D01*
X35685413Y-7227675D01*
X35323084Y-6350771D01*
X34652758Y-5679274D01*
X33776487Y-5315415D01*
X32827675Y-5314587D01*
X31950771Y-5676916D01*
X31279274Y-6347242D01*
X30915415Y-7223513D01*
X30914587Y-8172325D01*
X26499762Y-8172325D01*
X26499762Y-6265000D01*
X21020238Y-6265000D01*
X5437463Y-6265000D01*
X4852758Y-5679274D01*
X3976487Y-5315415D01*
X3027675Y-5314587D01*
X2150771Y-5676916D01*
X1479274Y-6347242D01*
X1115415Y-7223513D01*
X1114587Y-8172325D01*
X710000Y-8172325D01*
X710000Y-5017000D01*
X36290000Y-5017000D01*
X36290000Y-11677736D01*
X36290000Y-11677736D01*
G37*
X36290000Y-11677736D02*
X36163890Y-11591569D01*
X35912000Y-11540560D01*
X34388000Y-11540560D01*
X34152683Y-11584838D01*
X33936559Y-11723910D01*
X33801475Y-11921612D01*
X33701890Y-11853569D01*
X33450000Y-11802560D01*
X32550000Y-11802560D01*
X32314683Y-11846838D01*
X32098559Y-11985910D01*
X31999367Y-12131083D01*
X31914090Y-11998559D01*
X31701890Y-11853569D01*
X31450000Y-11802560D01*
X30550000Y-11802560D01*
X30314683Y-11846838D01*
X30098559Y-11985910D01*
X29953569Y-12198110D01*
X29902560Y-12450000D01*
X29902560Y-12950000D01*
X29946838Y-13185317D01*
X30085910Y-13401441D01*
X30142343Y-13440000D01*
X28750000Y-13440000D01*
X28459160Y-13497852D01*
X28212599Y-13662599D01*
X25306892Y-16568306D01*
X25062637Y-16669230D01*
X24820082Y-16911362D01*
X24688650Y-17227885D01*
X24688351Y-17570611D01*
X24819230Y-17887363D01*
X25061362Y-18129918D01*
X25377885Y-18261350D01*
X25720611Y-18261649D01*
X26025310Y-18135750D01*
X31965000Y-18135750D01*
X31965000Y-18376310D01*
X32061673Y-18609699D01*
X32240302Y-18788327D01*
X32473691Y-18885000D01*
X32764250Y-18885000D01*
X32923000Y-18726250D01*
X32923000Y-17977000D01*
X32123750Y-17977000D01*
X31965000Y-18135750D01*
X26025310Y-18135750D01*
X26037363Y-18130770D01*
X26279918Y-17888638D01*
X26381997Y-17642805D01*
X29064802Y-14960000D01*
X30171614Y-14960000D01*
X30298110Y-15046431D01*
X30550000Y-15097440D01*
X31269328Y-15097440D01*
X31297852Y-15240839D01*
X31462599Y-15487401D01*
X31952560Y-15977362D01*
X31952560Y-16040681D01*
X31751890Y-15903569D01*
X31500000Y-15852560D01*
X31486087Y-15852560D01*
X31484346Y-15851397D01*
X31050000Y-15765000D01*
X31000000Y-15765000D01*
X30565654Y-15851397D01*
X30549768Y-15862012D01*
X30364683Y-15896838D01*
X30148559Y-16035910D01*
X30003569Y-16248110D01*
X29963046Y-16448221D01*
X29951397Y-16465654D01*
X29865000Y-16900000D01*
X29951397Y-17334346D01*
X29962012Y-17350232D01*
X29996838Y-17535317D01*
X30135910Y-17751441D01*
X30348110Y-17896431D01*
X30548221Y-17936954D01*
X30565654Y-17948603D01*
X31000000Y-18035000D01*
X31050000Y-18035000D01*
X31484346Y-17948603D01*
X31486087Y-17947440D01*
X31500000Y-17947440D01*
X31735317Y-17903162D01*
X31951441Y-17764090D01*
X32022563Y-17660000D01*
X32060750Y-17660000D01*
X32123750Y-17723000D01*
X32923000Y-17723000D01*
X32923000Y-17703000D01*
X33177000Y-17703000D01*
X33177000Y-17723000D01*
X33197000Y-17723000D01*
X33197000Y-17977000D01*
X33177000Y-17977000D01*
X33177000Y-18726250D01*
X33335750Y-18885000D01*
X33626309Y-18885000D01*
X33859698Y-18788327D01*
X33948246Y-18699779D01*
X33964990Y-18740303D01*
X34357630Y-19133629D01*
X34870900Y-19346757D01*
X35426661Y-19347242D01*
X35940303Y-19135010D01*
X36290000Y-18785923D01*
X36290000Y-19993573D01*
X36213890Y-19941569D01*
X35962000Y-19890560D01*
X34438000Y-19890560D01*
X34202683Y-19934838D01*
X33986559Y-20073910D01*
X33841569Y-20286110D01*
X33833197Y-20327451D01*
X33651890Y-20203569D01*
X33400000Y-20152560D01*
X32500000Y-20152560D01*
X32264683Y-20196838D01*
X32048559Y-20335910D01*
X31984297Y-20429961D01*
X31964090Y-20398559D01*
X31751890Y-20253569D01*
X31500000Y-20202560D01*
X30600000Y-20202560D01*
X30364683Y-20246838D01*
X30148559Y-20385910D01*
X30003569Y-20598110D01*
X29952560Y-20850000D01*
X29952560Y-21350000D01*
X29996838Y-21585317D01*
X30135910Y-21801441D01*
X30192343Y-21840000D01*
X29721004Y-21840000D01*
X29714021Y-21841389D01*
X29714021Y-19776992D01*
X29714218Y-19551226D01*
X29541788Y-19133915D01*
X29222786Y-18814356D01*
X28805777Y-18641198D01*
X28354246Y-18640804D01*
X27936935Y-18813234D01*
X27617376Y-19132236D01*
X27444218Y-19549245D01*
X27443824Y-20000776D01*
X27444021Y-20001253D01*
X27444021Y-21950839D01*
X25350832Y-24044028D01*
X25195223Y-23667427D01*
X24763798Y-23235247D01*
X24199825Y-23001065D01*
X23589164Y-23000533D01*
X23024784Y-23233730D01*
X22592604Y-23665155D01*
X22358422Y-24229128D01*
X22357890Y-24839789D01*
X22403428Y-24950000D01*
X16417933Y-24950000D01*
X16551441Y-24864090D01*
X16622563Y-24760000D01*
X16660750Y-24760000D01*
X16723750Y-24823000D01*
X17523000Y-24823000D01*
X17523000Y-24803000D01*
X17777000Y-24803000D01*
X17777000Y-24823000D01*
X18576250Y-24823000D01*
X18639250Y-24760000D01*
X19999990Y-24760000D01*
X20290829Y-24702148D01*
X20537391Y-24537401D01*
X20591960Y-24482832D01*
X20772362Y-24408292D01*
X21007456Y-24173607D01*
X21039083Y-24097440D01*
X21350000Y-24097440D01*
X21585317Y-24053162D01*
X21801441Y-23914090D01*
X21946431Y-23701890D01*
X21997440Y-23450000D01*
X21997440Y-22883000D01*
X22013194Y-22867246D01*
X22131028Y-22749617D01*
X22230111Y-22511000D01*
X22743271Y-22511000D01*
X22909363Y-22511145D01*
X23216372Y-22384292D01*
X23451466Y-22149607D01*
X23578855Y-21842821D01*
X23579095Y-21567463D01*
X23586485Y-21570531D01*
X24197146Y-21571063D01*
X24761526Y-21337866D01*
X25193706Y-20906441D01*
X25427888Y-20342468D01*
X25428420Y-19731807D01*
X25195223Y-19167427D01*
X24763798Y-18735247D01*
X24199825Y-18501065D01*
X23589164Y-18500533D01*
X23024784Y-18733730D01*
X22592604Y-19165155D01*
X22358422Y-19729128D01*
X22357890Y-20339789D01*
X22564986Y-20841000D01*
X20088235Y-20841000D01*
X20116839Y-20772115D01*
X20117138Y-20429389D01*
X19986259Y-20112637D01*
X19909921Y-20036165D01*
X20085317Y-20003162D01*
X20301441Y-19864090D01*
X20349134Y-19794289D01*
X20385910Y-19851441D01*
X20598110Y-19996431D01*
X20657613Y-20008481D01*
X20882764Y-20233632D01*
X21000393Y-20351466D01*
X21307179Y-20478855D01*
X21639363Y-20479145D01*
X21946372Y-20352292D01*
X22181466Y-20117607D01*
X22308855Y-19810821D01*
X22309145Y-19478637D01*
X22182292Y-19171628D01*
X21997440Y-18986454D01*
X21997440Y-18500000D01*
X21953162Y-18264683D01*
X21935000Y-18236458D01*
X21935000Y-15818620D01*
X21946431Y-15801890D01*
X21988952Y-15591916D01*
X22363167Y-15217701D01*
X22358422Y-15229128D01*
X22357890Y-15839789D01*
X22591087Y-16404169D01*
X23022512Y-16836349D01*
X23586485Y-17070531D01*
X24197146Y-17071063D01*
X24761526Y-16837866D01*
X25193706Y-16406441D01*
X25427888Y-15842468D01*
X25428420Y-15231807D01*
X25195223Y-14667427D01*
X24763798Y-14235247D01*
X24199825Y-14001065D01*
X23589164Y-14000533D01*
X23574118Y-14006750D01*
X25290434Y-12290434D01*
X25471439Y-12019541D01*
X25535000Y-11700000D01*
X25535000Y-11685573D01*
X25561350Y-11622115D01*
X25561649Y-11279389D01*
X25430770Y-10962637D01*
X25188638Y-10720082D01*
X24872115Y-10588650D01*
X24529389Y-10588351D01*
X24212637Y-10719230D01*
X23970082Y-10961362D01*
X23838650Y-11277885D01*
X23838560Y-11380572D01*
X23622547Y-11596585D01*
X23445223Y-11167427D01*
X23013798Y-10735247D01*
X22449825Y-10501065D01*
X21839164Y-10500533D01*
X21274784Y-10733730D01*
X20842604Y-11165155D01*
X20608422Y-11729128D01*
X20607890Y-12339789D01*
X20841087Y-12904169D01*
X21272512Y-13336349D01*
X21703727Y-13515405D01*
X21216572Y-14002560D01*
X20850000Y-14002560D01*
X20614683Y-14046838D01*
X20398559Y-14185910D01*
X20350866Y-14255711D01*
X20314090Y-14198559D01*
X20101890Y-14053569D01*
X19850000Y-14002560D01*
X19777362Y-14002560D01*
X19537401Y-13762599D01*
X19290839Y-13597852D01*
X19000000Y-13540000D01*
X17047091Y-13540000D01*
X16866821Y-13465145D01*
X16534637Y-13464855D01*
X16227628Y-13591708D01*
X15992534Y-13826393D01*
X15865145Y-14133179D01*
X15864855Y-14465363D01*
X15875035Y-14490000D01*
X15050000Y-14490000D01*
X14759160Y-14547852D01*
X14512599Y-14712599D01*
X13928363Y-15296835D01*
X13928420Y-15231807D01*
X13695223Y-14667427D01*
X13263798Y-14235247D01*
X12699825Y-14001065D01*
X12089164Y-14000533D01*
X11524784Y-14233730D01*
X11092604Y-14665155D01*
X10858422Y-15229128D01*
X10857890Y-15839789D01*
X11091087Y-16404169D01*
X11522512Y-16836349D01*
X12086485Y-17070531D01*
X12154608Y-17070590D01*
X11060000Y-18165198D01*
X11060000Y-16683776D01*
X11002148Y-16392937D01*
X10837401Y-16146375D01*
X9702123Y-15011097D01*
X9455561Y-14846350D01*
X9164722Y-14788498D01*
X8972440Y-14788498D01*
X8972440Y-14325000D01*
X8928162Y-14089683D01*
X8789090Y-13873559D01*
X8635000Y-13768274D01*
X8635000Y-13375000D01*
X8577148Y-13084161D01*
X8572440Y-13077115D01*
X8572440Y-12725000D01*
X8528162Y-12489683D01*
X8431708Y-12339789D01*
X12607890Y-12339789D01*
X12841087Y-12904169D01*
X13272512Y-13336349D01*
X13836485Y-13570531D01*
X14447146Y-13571063D01*
X15011526Y-13337866D01*
X15443706Y-12906441D01*
X15677888Y-12342468D01*
X15678420Y-11731807D01*
X15516442Y-11339789D01*
X16607890Y-11339789D01*
X16841087Y-11904169D01*
X17272512Y-12336349D01*
X17836485Y-12570531D01*
X18447146Y-12571063D01*
X19011526Y-12337866D01*
X19443706Y-11906441D01*
X19677888Y-11342468D01*
X19678420Y-10731807D01*
X19445223Y-10167427D01*
X19013798Y-9735247D01*
X18449825Y-9501065D01*
X17839164Y-9500533D01*
X17274784Y-9733730D01*
X16842604Y-10165155D01*
X16608422Y-10729128D01*
X16607890Y-11339789D01*
X15516442Y-11339789D01*
X15445223Y-11167427D01*
X15013798Y-10735247D01*
X14449825Y-10501065D01*
X13839164Y-10500533D01*
X13274784Y-10733730D01*
X12842604Y-11165155D01*
X12608422Y-11729128D01*
X12607890Y-12339789D01*
X8431708Y-12339789D01*
X8389090Y-12273559D01*
X8176890Y-12128569D01*
X7925000Y-12077560D01*
X7425000Y-12077560D01*
X7189683Y-12121838D01*
X6973559Y-12260910D01*
X6925866Y-12330711D01*
X6889090Y-12273559D01*
X6676890Y-12128569D01*
X6425000Y-12077560D01*
X5925000Y-12077560D01*
X5689683Y-12121838D01*
X5473559Y-12260910D01*
X5328569Y-12473110D01*
X5277560Y-12725000D01*
X5277560Y-13625000D01*
X5321838Y-13860317D01*
X5415000Y-14005095D01*
X5415000Y-14460002D01*
X5448330Y-14627560D01*
X5425000Y-14627560D01*
X5189683Y-14671838D01*
X4973559Y-14810910D01*
X4828569Y-15023110D01*
X4777560Y-15275000D01*
X4777560Y-16075000D01*
X4821838Y-16310317D01*
X4960910Y-16526441D01*
X5115000Y-16631726D01*
X5115000Y-17025000D01*
X5172852Y-17315839D01*
X5337599Y-17562401D01*
X5339792Y-17564594D01*
X5327560Y-17625000D01*
X5327560Y-17868000D01*
X4642802Y-17868000D01*
X4387401Y-17612599D01*
X4327315Y-17572451D01*
X4409698Y-17538327D01*
X4588327Y-17359699D01*
X4685000Y-17126310D01*
X4685000Y-16885750D01*
X4526250Y-16727000D01*
X3727000Y-16727000D01*
X3727000Y-16747000D01*
X3473000Y-16747000D01*
X3473000Y-16727000D01*
X3461433Y-16727000D01*
X3461649Y-16479389D01*
X3459009Y-16473000D01*
X3473000Y-16473000D01*
X3473000Y-16453000D01*
X3727000Y-16453000D01*
X3727000Y-16473000D01*
X4526250Y-16473000D01*
X4685000Y-16314250D01*
X4685000Y-16073690D01*
X4588327Y-15840301D01*
X4409698Y-15661673D01*
X4373253Y-15646577D01*
X4501441Y-15564090D01*
X4646431Y-15351890D01*
X4697440Y-15100000D01*
X4697440Y-14300000D01*
X4653162Y-14064683D01*
X4514090Y-13848559D01*
X4360000Y-13743274D01*
X4360000Y-13450000D01*
X4302148Y-13159161D01*
X4197440Y-13002454D01*
X4197440Y-12700000D01*
X4153162Y-12464683D01*
X4014090Y-12248559D01*
X3801890Y-12103569D01*
X3550000Y-12052560D01*
X3050000Y-12052560D01*
X2814683Y-12096838D01*
X2598559Y-12235910D01*
X2550866Y-12305711D01*
X2514090Y-12248559D01*
X2301890Y-12103569D01*
X2050000Y-12052560D01*
X1550000Y-12052560D01*
X1314683Y-12096838D01*
X1098559Y-12235910D01*
X953569Y-12448110D01*
X902560Y-12700000D01*
X902560Y-13600000D01*
X946838Y-13835317D01*
X1077456Y-14038303D01*
X1097852Y-14140839D01*
X1262599Y-14387401D01*
X1477758Y-14602560D01*
X1150000Y-14602560D01*
X914683Y-14646838D01*
X710000Y-14778548D01*
X710000Y-8172325D01*
X1114587Y-8172325D01*
X1476916Y-9049229D01*
X2147242Y-9720726D01*
X3023513Y-10084585D01*
X3972325Y-10085413D01*
X4849229Y-9723084D01*
X5520726Y-9052758D01*
X5884585Y-8176487D01*
X5885413Y-7227675D01*
X5523084Y-6350771D01*
X5437463Y-6265000D01*
X21020238Y-6265000D01*
X21020238Y-9785000D01*
X26499762Y-9785000D01*
X26499762Y-8172325D01*
X30914587Y-8172325D01*
X31276916Y-9049229D01*
X31947242Y-9720726D01*
X32823513Y-10084585D01*
X33772325Y-10085413D01*
X34649229Y-9723084D01*
X35320726Y-9052758D01*
X35684585Y-8176487D01*
X35685413Y-7227675D01*
X35323084Y-6350771D01*
X34652758Y-5679274D01*
X33776487Y-5315415D01*
X32827675Y-5314587D01*
X31950771Y-5676916D01*
X31279274Y-6347242D01*
X30915415Y-7223513D01*
X30914587Y-8172325D01*
X26499762Y-8172325D01*
X26499762Y-6265000D01*
X21020238Y-6265000D01*
X5437463Y-6265000D01*
X4852758Y-5679274D01*
X3976487Y-5315415D01*
X3027675Y-5314587D01*
X2150771Y-5676916D01*
X1479274Y-6347242D01*
X1115415Y-7223513D01*
X1114587Y-8172325D01*
X710000Y-8172325D01*
X710000Y-5017000D01*
X36290000Y-5017000D01*
X36290000Y-11677736D01*
G36*
X14596838Y-16835317D02*
X14735910Y-17051441D01*
X14948110Y-17196431D01*
X15200000Y-17247440D01*
X16100000Y-17247440D01*
X16335317Y-17203162D01*
X16551441Y-17064090D01*
X16622563Y-16960000D01*
X16660750Y-16960000D01*
X16723750Y-17023000D01*
X17523000Y-17023000D01*
X17523000Y-17003000D01*
X17777000Y-17003000D01*
X17777000Y-17023000D01*
X18576250Y-17023000D01*
X18639250Y-16960000D01*
X19679184Y-16960000D01*
X19826393Y-17107466D01*
X20133179Y-17234855D01*
X20265000Y-17234970D01*
X20265000Y-18015017D01*
X20101890Y-17903569D01*
X19850000Y-17852560D01*
X19350000Y-17852560D01*
X19120538Y-17895736D01*
X18787401Y-17562599D01*
X18735000Y-17527586D01*
X18735000Y-17435750D01*
X18576250Y-17277000D01*
X17777000Y-17277000D01*
X17777000Y-17297000D01*
X17523000Y-17297000D01*
X17523000Y-17277000D01*
X17277714Y-17277000D01*
X17185357Y-17238650D01*
X16842631Y-17238351D01*
X16749093Y-17277000D01*
X16723750Y-17277000D01*
X16705905Y-17294845D01*
X16525879Y-17369230D01*
X16283324Y-17611362D01*
X16151892Y-17927885D01*
X16151593Y-18270611D01*
X16159604Y-18290000D01*
X14900000Y-18290000D01*
X14609161Y-18347852D01*
X14362599Y-18512599D01*
X14162599Y-18712599D01*
X13997852Y-18959161D01*
X13940000Y-19250000D01*
X13940000Y-19385198D01*
X13830464Y-19494734D01*
X13695223Y-19167427D01*
X13263798Y-18735247D01*
X12822710Y-18552092D01*
X14587755Y-16787047D01*
X14596838Y-16835317D01*
X14596838Y-16835317D01*
G37*
X14596838Y-16835317D02*
X14735910Y-17051441D01*
X14948110Y-17196431D01*
X15200000Y-17247440D01*
X16100000Y-17247440D01*
X16335317Y-17203162D01*
X16551441Y-17064090D01*
X16622563Y-16960000D01*
X16660750Y-16960000D01*
X16723750Y-17023000D01*
X17523000Y-17023000D01*
X17523000Y-17003000D01*
X17777000Y-17003000D01*
X17777000Y-17023000D01*
X18576250Y-17023000D01*
X18639250Y-16960000D01*
X19679184Y-16960000D01*
X19826393Y-17107466D01*
X20133179Y-17234855D01*
X20265000Y-17234970D01*
X20265000Y-18015017D01*
X20101890Y-17903569D01*
X19850000Y-17852560D01*
X19350000Y-17852560D01*
X19120538Y-17895736D01*
X18787401Y-17562599D01*
X18735000Y-17527586D01*
X18735000Y-17435750D01*
X18576250Y-17277000D01*
X17777000Y-17277000D01*
X17777000Y-17297000D01*
X17523000Y-17297000D01*
X17523000Y-17277000D01*
X17277714Y-17277000D01*
X17185357Y-17238650D01*
X16842631Y-17238351D01*
X16749093Y-17277000D01*
X16723750Y-17277000D01*
X16705905Y-17294845D01*
X16525879Y-17369230D01*
X16283324Y-17611362D01*
X16151892Y-17927885D01*
X16151593Y-18270611D01*
X16159604Y-18290000D01*
X14900000Y-18290000D01*
X14609161Y-18347852D01*
X14362599Y-18512599D01*
X14162599Y-18712599D01*
X13997852Y-18959161D01*
X13940000Y-19250000D01*
X13940000Y-19385198D01*
X13830464Y-19494734D01*
X13695223Y-19167427D01*
X13263798Y-18735247D01*
X12822710Y-18552092D01*
X14587755Y-16787047D01*
X14596838Y-16835317D01*
G36*
X9540000Y-16998578D02*
X9540000Y-18285612D01*
X9486292Y-18155628D01*
X9251607Y-17920534D01*
X9251256Y-17920388D01*
X8815434Y-17484566D01*
X8784278Y-17463748D01*
X8863327Y-17384699D01*
X8960000Y-17151310D01*
X8960000Y-16910750D01*
X8801250Y-16752000D01*
X8002000Y-16752000D01*
X8002000Y-16772000D01*
X7748000Y-16772000D01*
X7748000Y-16752000D01*
X6948750Y-16752000D01*
X6802756Y-16897994D01*
X6762401Y-16837599D01*
X6635000Y-16710198D01*
X6635000Y-16630105D01*
X6776441Y-16539090D01*
X6863064Y-16412314D01*
X6948750Y-16498000D01*
X7748000Y-16498000D01*
X7748000Y-16478000D01*
X8002000Y-16478000D01*
X8002000Y-16498000D01*
X8801250Y-16498000D01*
X8920336Y-16378914D01*
X9540000Y-16998578D01*
X9540000Y-16998578D01*
G37*
X9540000Y-16998578D02*
X9540000Y-18285612D01*
X9486292Y-18155628D01*
X9251607Y-17920534D01*
X9251256Y-17920388D01*
X8815434Y-17484566D01*
X8784278Y-17463748D01*
X8863327Y-17384699D01*
X8960000Y-17151310D01*
X8960000Y-16910750D01*
X8801250Y-16752000D01*
X8002000Y-16752000D01*
X8002000Y-16772000D01*
X7748000Y-16772000D01*
X7748000Y-16752000D01*
X6948750Y-16752000D01*
X6802756Y-16897994D01*
X6762401Y-16837599D01*
X6635000Y-16710198D01*
X6635000Y-16630105D01*
X6776441Y-16539090D01*
X6863064Y-16412314D01*
X6948750Y-16498000D01*
X7748000Y-16498000D01*
X7748000Y-16478000D01*
X8002000Y-16478000D01*
X8002000Y-16498000D01*
X8801250Y-16498000D01*
X8920336Y-16378914D01*
X9540000Y-16998578D01*
G36*
X9711673Y-790301D02*
X9615000Y-1023690D01*
X9615000Y-1714250D01*
X9773750Y-1873000D01*
X10973000Y-1873000D01*
X10973000Y-1853000D01*
X11227000Y-1853000D01*
X11227000Y-1873000D01*
X12426250Y-1873000D01*
X12585000Y-1714250D01*
X12585000Y-1023690D01*
X12488327Y-790301D01*
X12408026Y-710000D01*
X34241974Y-710000D01*
X34161673Y-790301D01*
X34065000Y-1023690D01*
X34065000Y-1714250D01*
X34223750Y-1873000D01*
X35423000Y-1873000D01*
X35423000Y-1853000D01*
X35677000Y-1853000D01*
X35677000Y-1873000D01*
X35697000Y-1873000D01*
X35697000Y-2127000D01*
X35677000Y-2127000D01*
X35677000Y-3326250D01*
X35835750Y-3485000D01*
X36290000Y-3485000D01*
X36290000Y-3501583D01*
X12159438Y-3450567D01*
X12309698Y-3388327D01*
X12488327Y-3209699D01*
X12585000Y-2976310D01*
X12585000Y-2285750D01*
X34065000Y-2285750D01*
X34065000Y-2976310D01*
X34161673Y-3209699D01*
X34340302Y-3388327D01*
X34573691Y-3485000D01*
X35264250Y-3485000D01*
X35423000Y-3326250D01*
X35423000Y-2127000D01*
X34223750Y-2127000D01*
X34065000Y-2285750D01*
X12585000Y-2285750D01*
X12426250Y-2127000D01*
X11227000Y-2127000D01*
X11227000Y-2147000D01*
X10973000Y-2147000D01*
X10973000Y-2127000D01*
X9773750Y-2127000D01*
X9615000Y-2285750D01*
X9615000Y-2976310D01*
X9711673Y-3209699D01*
X9890302Y-3388327D01*
X10029692Y-3446064D01*
X8704668Y-3443263D01*
X8653895Y-710000D01*
X9791974Y-710000D01*
X9711673Y-790301D01*
X9711673Y-790301D01*
G37*
X9711673Y-790301D02*
X9615000Y-1023690D01*
X9615000Y-1714250D01*
X9773750Y-1873000D01*
X10973000Y-1873000D01*
X10973000Y-1853000D01*
X11227000Y-1853000D01*
X11227000Y-1873000D01*
X12426250Y-1873000D01*
X12585000Y-1714250D01*
X12585000Y-1023690D01*
X12488327Y-790301D01*
X12408026Y-710000D01*
X34241974Y-710000D01*
X34161673Y-790301D01*
X34065000Y-1023690D01*
X34065000Y-1714250D01*
X34223750Y-1873000D01*
X35423000Y-1873000D01*
X35423000Y-1853000D01*
X35677000Y-1853000D01*
X35677000Y-1873000D01*
X35697000Y-1873000D01*
X35697000Y-2127000D01*
X35677000Y-2127000D01*
X35677000Y-3326250D01*
X35835750Y-3485000D01*
X36290000Y-3485000D01*
X36290000Y-3501583D01*
X12159438Y-3450567D01*
X12309698Y-3388327D01*
X12488327Y-3209699D01*
X12585000Y-2976310D01*
X12585000Y-2285750D01*
X34065000Y-2285750D01*
X34065000Y-2976310D01*
X34161673Y-3209699D01*
X34340302Y-3388327D01*
X34573691Y-3485000D01*
X35264250Y-3485000D01*
X35423000Y-3326250D01*
X35423000Y-2127000D01*
X34223750Y-2127000D01*
X34065000Y-2285750D01*
X12585000Y-2285750D01*
X12426250Y-2127000D01*
X11227000Y-2127000D01*
X11227000Y-2147000D01*
X10973000Y-2147000D01*
X10973000Y-2127000D01*
X9773750Y-2127000D01*
X9615000Y-2285750D01*
X9615000Y-2976310D01*
X9711673Y-3209699D01*
X9890302Y-3388327D01*
X10029692Y-3446064D01*
X8704668Y-3443263D01*
X8653895Y-710000D01*
X9791974Y-710000D01*
X9711673Y-790301D01*
M02*
