%TF.GenerationSoftware,KiCad,Pcbnew,4.0.7*%
%TF.CreationDate,2017-11-16T20:56:22+08:00*%
%TF.ProjectId,Nixie-Tube-with-shiftR,4E697869652D547562652D776974682D,rev?*%
%TF.FileFunction,Legend,Top*%
%FSLAX46Y46*%
G04 Gerber Fmt 4.6, Leading zero omitted, Abs format (unit mm)*
G04 Created by KiCad (PCBNEW 4.0.7) date 11/16/17 20:56:22*
%MOMM*%
%LPD*%
G01*
G04 APERTURE LIST*
%ADD10C,0.100000*%
%ADD11C,0.300000*%
%ADD12C,0.200000*%
%ADD13C,0.150000*%
%ADD14C,0.153000*%
G04 APERTURE END LIST*
D10*
D11*
X12932857Y-46498571D02*
X12932857Y-44998571D01*
X13432857Y-46070000D01*
X13932857Y-44998571D01*
X13932857Y-46498571D01*
X14647143Y-46498571D02*
X14647143Y-44998571D01*
X15290000Y-46427143D02*
X15504286Y-46498571D01*
X15861429Y-46498571D01*
X16004286Y-46427143D01*
X16075715Y-46355714D01*
X16147143Y-46212857D01*
X16147143Y-46070000D01*
X16075715Y-45927143D01*
X16004286Y-45855714D01*
X15861429Y-45784286D01*
X15575715Y-45712857D01*
X15432857Y-45641429D01*
X15361429Y-45570000D01*
X15290000Y-45427143D01*
X15290000Y-45284286D01*
X15361429Y-45141429D01*
X15432857Y-45070000D01*
X15575715Y-44998571D01*
X15932857Y-44998571D01*
X16147143Y-45070000D01*
X17075714Y-44998571D02*
X17361428Y-44998571D01*
X17504286Y-45070000D01*
X17647143Y-45212857D01*
X17718571Y-45498571D01*
X17718571Y-45998571D01*
X17647143Y-46284286D01*
X17504286Y-46427143D01*
X17361428Y-46498571D01*
X17075714Y-46498571D01*
X16932857Y-46427143D01*
X16790000Y-46284286D01*
X16718571Y-45998571D01*
X16718571Y-45498571D01*
X16790000Y-45212857D01*
X16932857Y-45070000D01*
X17075714Y-44998571D01*
X28862857Y-46838571D02*
X28862857Y-45338571D01*
X29362857Y-46410000D01*
X29862857Y-45338571D01*
X29862857Y-46838571D01*
X30862857Y-45338571D02*
X31148571Y-45338571D01*
X31291429Y-45410000D01*
X31434286Y-45552857D01*
X31505714Y-45838571D01*
X31505714Y-46338571D01*
X31434286Y-46624286D01*
X31291429Y-46767143D01*
X31148571Y-46838571D01*
X30862857Y-46838571D01*
X30720000Y-46767143D01*
X30577143Y-46624286D01*
X30505714Y-46338571D01*
X30505714Y-45838571D01*
X30577143Y-45552857D01*
X30720000Y-45410000D01*
X30862857Y-45338571D01*
X32077143Y-46767143D02*
X32291429Y-46838571D01*
X32648572Y-46838571D01*
X32791429Y-46767143D01*
X32862858Y-46695714D01*
X32934286Y-46552857D01*
X32934286Y-46410000D01*
X32862858Y-46267143D01*
X32791429Y-46195714D01*
X32648572Y-46124286D01*
X32362858Y-46052857D01*
X32220000Y-45981429D01*
X32148572Y-45910000D01*
X32077143Y-45767143D01*
X32077143Y-45624286D01*
X32148572Y-45481429D01*
X32220000Y-45410000D01*
X32362858Y-45338571D01*
X32720000Y-45338571D01*
X32934286Y-45410000D01*
X33577143Y-46838571D02*
X33577143Y-45338571D01*
X21431429Y-44057143D02*
X21645715Y-44128571D01*
X22002858Y-44128571D01*
X22145715Y-44057143D01*
X22217144Y-43985714D01*
X22288572Y-43842857D01*
X22288572Y-43700000D01*
X22217144Y-43557143D01*
X22145715Y-43485714D01*
X22002858Y-43414286D01*
X21717144Y-43342857D01*
X21574286Y-43271429D01*
X21502858Y-43200000D01*
X21431429Y-43057143D01*
X21431429Y-42914286D01*
X21502858Y-42771429D01*
X21574286Y-42700000D01*
X21717144Y-42628571D01*
X22074286Y-42628571D01*
X22288572Y-42700000D01*
X23788572Y-43985714D02*
X23717143Y-44057143D01*
X23502857Y-44128571D01*
X23360000Y-44128571D01*
X23145715Y-44057143D01*
X23002857Y-43914286D01*
X22931429Y-43771429D01*
X22860000Y-43485714D01*
X22860000Y-43271429D01*
X22931429Y-42985714D01*
X23002857Y-42842857D01*
X23145715Y-42700000D01*
X23360000Y-42628571D01*
X23502857Y-42628571D01*
X23717143Y-42700000D01*
X23788572Y-42771429D01*
X24431429Y-44128571D02*
X24431429Y-42628571D01*
X25288572Y-44128571D02*
X24645715Y-43271429D01*
X25288572Y-42628571D02*
X24431429Y-43485714D01*
X22027143Y-40120000D02*
X21884286Y-40048571D01*
X21670000Y-40048571D01*
X21455715Y-40120000D01*
X21312857Y-40262857D01*
X21241429Y-40405714D01*
X21170000Y-40691429D01*
X21170000Y-40905714D01*
X21241429Y-41191429D01*
X21312857Y-41334286D01*
X21455715Y-41477143D01*
X21670000Y-41548571D01*
X21812857Y-41548571D01*
X22027143Y-41477143D01*
X22098572Y-41405714D01*
X22098572Y-40905714D01*
X21812857Y-40905714D01*
X22741429Y-41548571D02*
X22741429Y-40048571D01*
X23598572Y-41548571D01*
X23598572Y-40048571D01*
X24312858Y-41548571D02*
X24312858Y-40048571D01*
X24670001Y-40048571D01*
X24884286Y-40120000D01*
X25027144Y-40262857D01*
X25098572Y-40405714D01*
X25170001Y-40691429D01*
X25170001Y-40905714D01*
X25098572Y-41191429D01*
X25027144Y-41334286D01*
X24884286Y-41477143D01*
X24670001Y-41548571D01*
X24312858Y-41548571D01*
X20085714Y-39028571D02*
X20085714Y-37528571D01*
X20657142Y-37528571D01*
X20800000Y-37600000D01*
X20871428Y-37671429D01*
X20942857Y-37814286D01*
X20942857Y-38028571D01*
X20871428Y-38171429D01*
X20800000Y-38242857D01*
X20657142Y-38314286D01*
X20085714Y-38314286D01*
X21442857Y-37528571D02*
X21800000Y-39028571D01*
X22085714Y-37957143D01*
X22371428Y-39028571D01*
X22728571Y-37528571D01*
X24157143Y-39028571D02*
X23657143Y-38314286D01*
X23300000Y-39028571D02*
X23300000Y-37528571D01*
X23871428Y-37528571D01*
X24014286Y-37600000D01*
X24085714Y-37671429D01*
X24157143Y-37814286D01*
X24157143Y-38028571D01*
X24085714Y-38171429D01*
X24014286Y-38242857D01*
X23871428Y-38314286D01*
X23300000Y-38314286D01*
X24800000Y-38242857D02*
X25300000Y-38242857D01*
X25514286Y-39028571D02*
X24800000Y-39028571D01*
X24800000Y-37528571D01*
X25514286Y-37528571D01*
X26157143Y-39028571D02*
X26157143Y-37528571D01*
X27014286Y-39028571D01*
X27014286Y-37528571D01*
X20510000Y-34908571D02*
X21010000Y-36408571D01*
X21510000Y-34908571D01*
X22010000Y-36408571D02*
X22010000Y-34908571D01*
X22367143Y-34908571D01*
X22581428Y-34980000D01*
X22724286Y-35122857D01*
X22795714Y-35265714D01*
X22867143Y-35551429D01*
X22867143Y-35765714D01*
X22795714Y-36051429D01*
X22724286Y-36194286D01*
X22581428Y-36337143D01*
X22367143Y-36408571D01*
X22010000Y-36408571D01*
X24367143Y-36265714D02*
X24295714Y-36337143D01*
X24081428Y-36408571D01*
X23938571Y-36408571D01*
X23724286Y-36337143D01*
X23581428Y-36194286D01*
X23510000Y-36051429D01*
X23438571Y-35765714D01*
X23438571Y-35551429D01*
X23510000Y-35265714D01*
X23581428Y-35122857D01*
X23724286Y-34980000D01*
X23938571Y-34908571D01*
X24081428Y-34908571D01*
X24295714Y-34980000D01*
X24367143Y-35051429D01*
X19635714Y-33577143D02*
X19850000Y-33648571D01*
X20207143Y-33648571D01*
X20350000Y-33577143D01*
X20421429Y-33505714D01*
X20492857Y-33362857D01*
X20492857Y-33220000D01*
X20421429Y-33077143D01*
X20350000Y-33005714D01*
X20207143Y-32934286D01*
X19921429Y-32862857D01*
X19778571Y-32791429D01*
X19707143Y-32720000D01*
X19635714Y-32577143D01*
X19635714Y-32434286D01*
X19707143Y-32291429D01*
X19778571Y-32220000D01*
X19921429Y-32148571D01*
X20278571Y-32148571D01*
X20492857Y-32220000D01*
X20921428Y-32148571D02*
X21778571Y-32148571D01*
X21350000Y-33648571D02*
X21350000Y-32148571D01*
X22564285Y-32148571D02*
X22849999Y-32148571D01*
X22992857Y-32220000D01*
X23135714Y-32362857D01*
X23207142Y-32648571D01*
X23207142Y-33148571D01*
X23135714Y-33434286D01*
X22992857Y-33577143D01*
X22849999Y-33648571D01*
X22564285Y-33648571D01*
X22421428Y-33577143D01*
X22278571Y-33434286D01*
X22207142Y-33148571D01*
X22207142Y-32648571D01*
X22278571Y-32362857D01*
X22421428Y-32220000D01*
X22564285Y-32148571D01*
X24707143Y-33648571D02*
X24207143Y-32934286D01*
X23850000Y-33648571D02*
X23850000Y-32148571D01*
X24421428Y-32148571D01*
X24564286Y-32220000D01*
X24635714Y-32291429D01*
X24707143Y-32434286D01*
X24707143Y-32648571D01*
X24635714Y-32791429D01*
X24564286Y-32862857D01*
X24421428Y-32934286D01*
X23850000Y-32934286D01*
X25350000Y-32862857D02*
X25850000Y-32862857D01*
X26064286Y-33648571D02*
X25350000Y-33648571D01*
X25350000Y-32148571D01*
X26064286Y-32148571D01*
D12*
X34880000Y-11640000D02*
X34880000Y-11920000D01*
X29360000Y-11640000D02*
X34880000Y-11640000D01*
D13*
X29143155Y-6035798D02*
X7143155Y-6035798D01*
X29143155Y-34035798D02*
X29143155Y-6035798D01*
X7143155Y-34035798D02*
X29143155Y-34035798D01*
X7143155Y-6035798D02*
X7143155Y-8227142D01*
X7143155Y-8227142D02*
X7143155Y-34035798D01*
X20900000Y-23350000D02*
X20800000Y-23350000D01*
X15250000Y-18500000D02*
X15250000Y-18600000D01*
X20900000Y-18500000D02*
X15250000Y-18500000D01*
X20900000Y-23350000D02*
X20900000Y-23350000D01*
X15250000Y-23350000D02*
X20806510Y-23350000D01*
X15250000Y-18600000D02*
X15250000Y-23350000D01*
X20900000Y-23350000D02*
X20900000Y-18500000D01*
X36150000Y-18700000D02*
X36150000Y-12200000D01*
X34150000Y-18700000D02*
X36150000Y-18700000D01*
X34150000Y-12200000D02*
X34150000Y-18700000D01*
X36150000Y-12200000D02*
X34150000Y-12200000D01*
X36200000Y-27050000D02*
X36200000Y-20550000D01*
X34200000Y-27050000D02*
X36200000Y-27050000D01*
X34200000Y-20550000D02*
X34200000Y-27050000D01*
X36200000Y-20550000D02*
X34200000Y-20550000D01*
D14*
X29532381Y-27764524D02*
X29532381Y-28452619D01*
X29572857Y-28533571D01*
X29613333Y-28574048D01*
X29694286Y-28614524D01*
X29856190Y-28614524D01*
X29937143Y-28574048D01*
X29977619Y-28533571D01*
X30018095Y-28452619D01*
X30018095Y-27764524D01*
X30382381Y-27845476D02*
X30422857Y-27805000D01*
X30503809Y-27764524D01*
X30706190Y-27764524D01*
X30787143Y-27805000D01*
X30827619Y-27845476D01*
X30868095Y-27926429D01*
X30868095Y-28007381D01*
X30827619Y-28128810D01*
X30341905Y-28614524D01*
X30868095Y-28614524D01*
X18892619Y-24984524D02*
X18892619Y-24134524D01*
X19095000Y-24134524D01*
X19216428Y-24175000D01*
X19297381Y-24255952D01*
X19337857Y-24336905D01*
X19378333Y-24498810D01*
X19378333Y-24620238D01*
X19337857Y-24782143D01*
X19297381Y-24863095D01*
X19216428Y-24944048D01*
X19095000Y-24984524D01*
X18892619Y-24984524D01*
X20187857Y-24984524D02*
X19702143Y-24984524D01*
X19945000Y-24984524D02*
X19945000Y-24134524D01*
X19864048Y-24255952D01*
X19783095Y-24336905D01*
X19702143Y-24377381D01*
X34287857Y-11414524D02*
X34287857Y-10564524D01*
X34773571Y-11414524D01*
X34773571Y-10564524D01*
X35178333Y-10969286D02*
X35461666Y-10969286D01*
X35583095Y-11414524D02*
X35178333Y-11414524D01*
X35178333Y-10564524D01*
X35583095Y-10564524D01*
X35906905Y-10645476D02*
X35947381Y-10605000D01*
X36028333Y-10564524D01*
X36230714Y-10564524D01*
X36311667Y-10605000D01*
X36352143Y-10645476D01*
X36392619Y-10726429D01*
X36392619Y-10807381D01*
X36352143Y-10928810D01*
X35866429Y-11414524D01*
X36392619Y-11414524D01*
X34357857Y-20064524D02*
X34357857Y-19214524D01*
X34843571Y-20064524D01*
X34843571Y-19214524D01*
X35248333Y-19619286D02*
X35531666Y-19619286D01*
X35653095Y-20064524D02*
X35248333Y-20064524D01*
X35248333Y-19214524D01*
X35653095Y-19214524D01*
X36462619Y-20064524D02*
X35976905Y-20064524D01*
X36219762Y-20064524D02*
X36219762Y-19214524D01*
X36138810Y-19335952D01*
X36057857Y-19416905D01*
X35976905Y-19457381D01*
M02*
