M48
;DRILL file {KiCad 4.0.7} date 11/15/17 23:48:24
;FORMAT={-:-/ absolute / metric / decimal}
FMAT,2
METRIC,TZ
T1C0.300
T2C0.600
T3C0.762
T4C0.800
T5C1.000
T6C3.150
%
G90
G05
M71
T1
X1.59Y-21.123
X1.6Y-27.656
X1.6Y-30.74
X2.361Y-26.23
X2.425Y-19.771
X3.05Y-21.15
X3.09Y-24.38
X3.57Y-26.36
X3.785Y-19.815
X3.95Y-19.15
X4.625Y-16.6
X6.073Y-20.394
X6.16Y-29.3
X6.925Y-16.7
X7.85Y-19.08
X8.85Y-19.68
X9.947Y-23.224
X10.498Y-22.361
X10.6Y-24.4
X11.15Y-26.635
X12.05Y-29.3
X12.125Y-21.8
X12.28Y-52.89
X12.729Y-23.23
X13.Y-22.5
X13.3Y-18.65
X13.6Y-2.
X14.045Y-37.295
X14.55Y-18.15
X14.55Y-19.475
X14.62Y-36.42
X14.775Y-21.575
X14.85Y-32.55
X14.87Y-2.
X16.001Y-36.644
X16.06Y-34.95
X16.083Y-25.275
X16.2Y-2.
X16.223Y-17.06
X16.471Y-37.823
X16.85Y-19.175
X16.95Y-43.2
X17.Y-31.98
X17.6Y-43.7
X18.14Y-47.23
X18.61Y-52.93
X18.68Y-1.975
X18.75Y-45.1
X19.14Y-47.12
X20.425Y-17.989
X21.254Y-17.16
X21.455Y-26.774
X21.61Y-47.47
X21.8Y-32.6
X21.911Y-52.259
X22.Y-42.95
X22.05Y-37.85
X22.78Y-53.868
X22.843Y-31.69
X23.101Y-47.47
X23.15Y-42.1
X23.5Y-23.1
X24.026Y-55.1
X24.075Y-37.65
X24.1Y-52.05
X24.14Y-47.416
X24.568Y-43.217
X24.726Y-52.234
X25.13Y-47.03
X25.45Y-52.6
X25.5Y-24.95
X25.916Y-52.978
X26.4Y-29.3
X27.135Y-50.135
X27.18Y-47.28
X27.35Y-29.25
X27.85Y-44.3
X27.971Y-30.129
X28.8Y-37.6
X28.84Y-1.975
X29.5Y-16.25
X29.5Y-21.65
X29.525Y-24.975
X29.92Y-44.05
X30.11Y-1.975
X30.91Y-37.59
X31.38Y-1.975
X32.35Y-33.4
X32.65Y-1.975
X33.8Y-46.43
X33.97Y-36.12
X34.04Y-41.86
X34.24Y-47.05
T2
X30.45Y-20.15
T3
X35.15Y-12.95
X35.15Y-17.95
X35.2Y-21.3
X35.2Y-26.3
T4
X12.393Y-15.536
X12.393Y-20.036
X12.393Y-24.536
X14.143Y-12.036
X14.143Y-28.036
X18.143Y-11.036
X22.143Y-12.036
X22.143Y-28.036
X23.893Y-15.536
X23.893Y-20.036
X23.893Y-24.536
T5
X11.1Y-2.
X11.1Y-33.
X11.1Y-35.54
X11.1Y-38.08
X11.1Y-40.62
X11.1Y-43.16
X11.1Y-45.7
X35.5Y-33.
X35.5Y-35.54
X35.5Y-38.08
X35.5Y-40.62
X35.5Y-43.16
X35.5Y-45.7
X35.55Y-2.
T6
X3.5Y-7.7
X4.7Y-51.9
X33.03Y-51.9
X33.3Y-7.7
T0
M30
