%TF.GenerationSoftware,KiCad,Pcbnew,4.0.7*%
%TF.CreationDate,2017-11-15T23:48:28+08:00*%
%TF.ProjectId,Nixie-Tube-with-shiftR,4E697869652D547562652D776974682D,rev?*%
%TF.FileFunction,Legend,Top*%
%FSLAX46Y46*%
G04 Gerber Fmt 4.6, Leading zero omitted, Abs format (unit mm)*
G04 Created by KiCad (PCBNEW 4.0.7) date 11/15/17 23:48:28*
%MOMM*%
%LPD*%
G01*
G04 APERTURE LIST*
%ADD10C,0.100000*%
%ADD11C,0.150000*%
G04 APERTURE END LIST*
D10*
D11*
X29143155Y-6035798D02*
X7143155Y-6035798D01*
X29143155Y-34035798D02*
X29143155Y-6035798D01*
X7143155Y-34035798D02*
X29143155Y-34035798D01*
X7143155Y-6035798D02*
X7143155Y-8227142D01*
X7143155Y-8227142D02*
X7143155Y-34035798D01*
X35150000Y-14550000D02*
X35150000Y-16550000D01*
X35750000Y-14550000D02*
X34550000Y-14550000D01*
X36150000Y-18700000D02*
X36150000Y-12200000D01*
X34150000Y-18700000D02*
X36150000Y-18700000D01*
X34150000Y-12200000D02*
X34150000Y-18700000D01*
X36150000Y-12200000D02*
X34150000Y-12200000D01*
X35200000Y-22900000D02*
X35200000Y-24900000D01*
X35800000Y-22900000D02*
X34600000Y-22900000D01*
X36200000Y-27050000D02*
X36200000Y-20550000D01*
X34200000Y-27050000D02*
X36200000Y-27050000D01*
X34200000Y-20550000D02*
X34200000Y-27050000D01*
X36200000Y-20550000D02*
X34200000Y-20550000D01*
X20900000Y-23350000D02*
X20800000Y-23350000D01*
X15250000Y-18500000D02*
X15250000Y-18600000D01*
X20900000Y-18500000D02*
X15250000Y-18500000D01*
X20900000Y-23350000D02*
X20900000Y-23350000D01*
X15250000Y-23350000D02*
X20806510Y-23350000D01*
X15250000Y-18600000D02*
X15250000Y-23350000D01*
X20900000Y-23350000D02*
X20900000Y-18500000D01*
X23131250Y-20488179D02*
X23131250Y-21297703D01*
X23178869Y-21392941D01*
X23226488Y-21440560D01*
X23321726Y-21488179D01*
X23512203Y-21488179D01*
X23607441Y-21440560D01*
X23655060Y-21392941D01*
X23702679Y-21297703D01*
X23702679Y-20488179D01*
X24131250Y-20583417D02*
X24178869Y-20535798D01*
X24274107Y-20488179D01*
X24512203Y-20488179D01*
X24607441Y-20535798D01*
X24655060Y-20583417D01*
X24702679Y-20678655D01*
X24702679Y-20773893D01*
X24655060Y-20916750D01*
X24083631Y-21488179D01*
X24702679Y-21488179D01*
D10*
X34542858Y-11676190D02*
X34542858Y-11176190D01*
X34828572Y-11676190D01*
X34828572Y-11176190D01*
X35066668Y-11414286D02*
X35233334Y-11414286D01*
X35304763Y-11676190D02*
X35066668Y-11676190D01*
X35066668Y-11176190D01*
X35304763Y-11176190D01*
X35495239Y-11223810D02*
X35519049Y-11200000D01*
X35566668Y-11176190D01*
X35685715Y-11176190D01*
X35733334Y-11200000D01*
X35757144Y-11223810D01*
X35780953Y-11271429D01*
X35780953Y-11319048D01*
X35757144Y-11390476D01*
X35471430Y-11676190D01*
X35780953Y-11676190D01*
X34592858Y-20026190D02*
X34592858Y-19526190D01*
X34878572Y-20026190D01*
X34878572Y-19526190D01*
X35116668Y-19764286D02*
X35283334Y-19764286D01*
X35354763Y-20026190D02*
X35116668Y-20026190D01*
X35116668Y-19526190D01*
X35354763Y-19526190D01*
X35830953Y-20026190D02*
X35545239Y-20026190D01*
X35688096Y-20026190D02*
X35688096Y-19526190D01*
X35640477Y-19597619D01*
X35592858Y-19645238D01*
X35545239Y-19669048D01*
X17730953Y-24976190D02*
X17730953Y-24476190D01*
X17850000Y-24476190D01*
X17921429Y-24500000D01*
X17969048Y-24547619D01*
X17992857Y-24595238D01*
X18016667Y-24690476D01*
X18016667Y-24761905D01*
X17992857Y-24857143D01*
X17969048Y-24904762D01*
X17921429Y-24952381D01*
X17850000Y-24976190D01*
X17730953Y-24976190D01*
X18492857Y-24976190D02*
X18207143Y-24976190D01*
X18350000Y-24976190D02*
X18350000Y-24476190D01*
X18302381Y-24547619D01*
X18254762Y-24595238D01*
X18207143Y-24619048D01*
X32413334Y-56926190D02*
X32246667Y-56688095D01*
X32127620Y-56926190D02*
X32127620Y-56426190D01*
X32318096Y-56426190D01*
X32365715Y-56450000D01*
X32389524Y-56473810D01*
X32413334Y-56521429D01*
X32413334Y-56592857D01*
X32389524Y-56640476D01*
X32365715Y-56664286D01*
X32318096Y-56688095D01*
X32127620Y-56688095D01*
X32627620Y-56664286D02*
X32794286Y-56664286D01*
X32865715Y-56926190D02*
X32627620Y-56926190D01*
X32627620Y-56426190D01*
X32865715Y-56426190D01*
X33246667Y-56664286D02*
X33080001Y-56664286D01*
X33080001Y-56926190D02*
X33080001Y-56426190D01*
X33318096Y-56426190D01*
X33580000Y-56426190D02*
X33580000Y-56545238D01*
X33460953Y-56497619D02*
X33580000Y-56545238D01*
X33699048Y-56497619D01*
X33508572Y-56640476D02*
X33580000Y-56545238D01*
X33651429Y-56640476D01*
X33960952Y-56426190D02*
X33960952Y-56545238D01*
X33841905Y-56497619D02*
X33960952Y-56545238D01*
X34080000Y-56497619D01*
X33889524Y-56640476D02*
X33960952Y-56545238D01*
X34032381Y-56640476D01*
X4083334Y-56926190D02*
X3916667Y-56688095D01*
X3797620Y-56926190D02*
X3797620Y-56426190D01*
X3988096Y-56426190D01*
X4035715Y-56450000D01*
X4059524Y-56473810D01*
X4083334Y-56521429D01*
X4083334Y-56592857D01*
X4059524Y-56640476D01*
X4035715Y-56664286D01*
X3988096Y-56688095D01*
X3797620Y-56688095D01*
X4297620Y-56664286D02*
X4464286Y-56664286D01*
X4535715Y-56926190D02*
X4297620Y-56926190D01*
X4297620Y-56426190D01*
X4535715Y-56426190D01*
X4916667Y-56664286D02*
X4750001Y-56664286D01*
X4750001Y-56926190D02*
X4750001Y-56426190D01*
X4988096Y-56426190D01*
X5250000Y-56426190D02*
X5250000Y-56545238D01*
X5130953Y-56497619D02*
X5250000Y-56545238D01*
X5369048Y-56497619D01*
X5178572Y-56640476D02*
X5250000Y-56545238D01*
X5321429Y-56640476D01*
X5630952Y-56426190D02*
X5630952Y-56545238D01*
X5511905Y-56497619D02*
X5630952Y-56545238D01*
X5750000Y-56497619D01*
X5559524Y-56640476D02*
X5630952Y-56545238D01*
X5702381Y-56640476D01*
X32683334Y-12726190D02*
X32516667Y-12488095D01*
X32397620Y-12726190D02*
X32397620Y-12226190D01*
X32588096Y-12226190D01*
X32635715Y-12250000D01*
X32659524Y-12273810D01*
X32683334Y-12321429D01*
X32683334Y-12392857D01*
X32659524Y-12440476D01*
X32635715Y-12464286D01*
X32588096Y-12488095D01*
X32397620Y-12488095D01*
X32897620Y-12464286D02*
X33064286Y-12464286D01*
X33135715Y-12726190D02*
X32897620Y-12726190D01*
X32897620Y-12226190D01*
X33135715Y-12226190D01*
X33516667Y-12464286D02*
X33350001Y-12464286D01*
X33350001Y-12726190D02*
X33350001Y-12226190D01*
X33588096Y-12226190D01*
X33850000Y-12226190D02*
X33850000Y-12345238D01*
X33730953Y-12297619D02*
X33850000Y-12345238D01*
X33969048Y-12297619D01*
X33778572Y-12440476D02*
X33850000Y-12345238D01*
X33921429Y-12440476D01*
X34230952Y-12226190D02*
X34230952Y-12345238D01*
X34111905Y-12297619D02*
X34230952Y-12345238D01*
X34350000Y-12297619D01*
X34159524Y-12440476D02*
X34230952Y-12345238D01*
X34302381Y-12440476D01*
M02*
