%TF.GenerationSoftware,KiCad,Pcbnew,4.0.7*%
%TF.CreationDate,2017-11-15T23:48:28+08:00*%
%TF.ProjectId,Nixie-Tube-with-shiftR,4E697869652D547562652D776974682D,rev?*%
%TF.FileFunction,Other,User*%
%FSLAX46Y46*%
G04 Gerber Fmt 4.6, Leading zero omitted, Abs format (unit mm)*
G04 Created by KiCad (PCBNEW 4.0.7) date 11/15/17 23:48:28*
%MOMM*%
%LPD*%
G01*
G04 APERTURE LIST*
%ADD10C,0.100000*%
%ADD11C,0.050000*%
G04 APERTURE END LIST*
D10*
D11*
X17850000Y-55300000D02*
X9050000Y-55300000D01*
X17850000Y-48100000D02*
X17850000Y-55300000D01*
X9050000Y-48100000D02*
X17850000Y-48100000D01*
X9050000Y-55300000D02*
X9050000Y-48100000D01*
X32400000Y-31550000D02*
X29600000Y-31550000D01*
X32400000Y-31550000D02*
X32400000Y-32850000D01*
X29600000Y-32850000D02*
X29600000Y-31550000D01*
X29600000Y-32850000D02*
X32400000Y-32850000D01*
X33700000Y-31200000D02*
X33700000Y-47500000D01*
X33700000Y-47500000D02*
X46050000Y-47500000D01*
X46050000Y-47500000D02*
X46050000Y-31200000D01*
X46050000Y-31200000D02*
X33700000Y-31200000D01*
X12900000Y-31200000D02*
X12900000Y-47500000D01*
X12900000Y-47500000D02*
X550000Y-47500000D01*
X550000Y-47500000D02*
X550000Y-31200000D01*
X550000Y-31200000D02*
X12900000Y-31200000D01*
X32300000Y-12200000D02*
X32300000Y-14700000D01*
X32300000Y-12200000D02*
X33700000Y-12200000D01*
X33700000Y-14700000D02*
X32300000Y-14700000D01*
X33700000Y-14700000D02*
X33700000Y-12200000D01*
X31700000Y-14700000D02*
X31700000Y-12200000D01*
X31700000Y-14700000D02*
X30300000Y-14700000D01*
X30300000Y-12200000D02*
X31700000Y-12200000D01*
X30300000Y-12200000D02*
X30300000Y-14700000D01*
X33750000Y-15150000D02*
X30350000Y-15150000D01*
X30350000Y-15150000D02*
X30350000Y-18650000D01*
X30350000Y-18650000D02*
X33750000Y-18650000D01*
X33750000Y-18650000D02*
X33750000Y-15150000D01*
X32250000Y-20550000D02*
X32250000Y-23050000D01*
X32250000Y-20550000D02*
X33650000Y-20550000D01*
X33650000Y-23050000D02*
X32250000Y-23050000D01*
X33650000Y-23050000D02*
X33650000Y-20550000D01*
X31750000Y-23100000D02*
X31750000Y-20600000D01*
X31750000Y-23100000D02*
X30350000Y-23100000D01*
X30350000Y-20600000D02*
X31750000Y-20600000D01*
X30350000Y-20600000D02*
X30350000Y-23100000D01*
X23400000Y-37325000D02*
X25900000Y-37325000D01*
X23400000Y-37325000D02*
X23400000Y-35925000D01*
X25900000Y-35925000D02*
X25900000Y-37325000D01*
X25900000Y-35925000D02*
X23400000Y-35925000D01*
X30300000Y-37325000D02*
X32800000Y-37325000D01*
X30300000Y-37325000D02*
X30300000Y-35925000D01*
X32800000Y-35925000D02*
X32800000Y-37325000D01*
X32800000Y-35925000D02*
X30300000Y-35925000D01*
X23450000Y-42975000D02*
X25950000Y-42975000D01*
X23450000Y-42975000D02*
X23450000Y-41575000D01*
X25950000Y-41575000D02*
X25950000Y-42975000D01*
X25950000Y-41575000D02*
X23450000Y-41575000D01*
X16450000Y-31700000D02*
X18950000Y-31700000D01*
X16450000Y-31700000D02*
X16450000Y-30300000D01*
X18950000Y-30300000D02*
X18950000Y-31700000D01*
X18950000Y-30300000D02*
X16450000Y-30300000D01*
X30500000Y-42825000D02*
X33000000Y-42825000D01*
X30500000Y-42825000D02*
X30500000Y-41425000D01*
X33000000Y-41425000D02*
X33000000Y-42825000D01*
X33000000Y-41425000D02*
X30500000Y-41425000D01*
X16250000Y-37325000D02*
X18750000Y-37325000D01*
X16250000Y-37325000D02*
X16250000Y-35925000D01*
X18750000Y-35925000D02*
X18750000Y-37325000D01*
X18750000Y-35925000D02*
X16250000Y-35925000D01*
X16450000Y-42950000D02*
X18950000Y-42950000D01*
X16450000Y-42950000D02*
X16450000Y-41550000D01*
X18950000Y-41550000D02*
X18950000Y-42950000D01*
X18950000Y-41550000D02*
X16450000Y-41550000D01*
X1300000Y-13850000D02*
X3800000Y-13850000D01*
X1300000Y-13850000D02*
X1300000Y-12450000D01*
X3800000Y-12450000D02*
X3800000Y-13850000D01*
X3800000Y-12450000D02*
X1300000Y-12450000D01*
X23600000Y-31700000D02*
X26100000Y-31700000D01*
X23600000Y-31700000D02*
X23600000Y-30300000D01*
X26100000Y-30300000D02*
X26100000Y-31700000D01*
X26100000Y-30300000D02*
X23600000Y-30300000D01*
X8175000Y-12475000D02*
X5675000Y-12475000D01*
X8175000Y-12475000D02*
X8175000Y-13875000D01*
X5675000Y-13875000D02*
X5675000Y-12475000D01*
X5675000Y-13875000D02*
X8175000Y-13875000D01*
X21600000Y-14800000D02*
X19100000Y-14800000D01*
X21600000Y-14800000D02*
X21600000Y-16200000D01*
X19100000Y-16200000D02*
X19100000Y-14800000D01*
X19100000Y-16200000D02*
X21600000Y-16200000D01*
X21600000Y-18250000D02*
X19100000Y-18250000D01*
X21600000Y-18250000D02*
X21600000Y-19650000D01*
X19100000Y-19650000D02*
X19100000Y-18250000D01*
X19100000Y-19650000D02*
X21600000Y-19650000D01*
X21600000Y-22300000D02*
X19100000Y-22300000D01*
X21600000Y-22300000D02*
X21600000Y-23700000D01*
X19100000Y-23700000D02*
X19100000Y-22300000D01*
X19100000Y-23700000D02*
X21600000Y-23700000D01*
X28300000Y-38125000D02*
X28300000Y-40625000D01*
X28300000Y-38125000D02*
X29700000Y-38125000D01*
X29700000Y-40625000D02*
X28300000Y-40625000D01*
X29700000Y-40625000D02*
X29700000Y-38125000D01*
X14250000Y-32900000D02*
X14250000Y-35400000D01*
X14250000Y-32900000D02*
X15650000Y-32900000D01*
X15650000Y-35400000D02*
X14250000Y-35400000D01*
X15650000Y-35400000D02*
X15650000Y-32900000D01*
X14250000Y-38125000D02*
X14250000Y-40625000D01*
X14250000Y-38125000D02*
X15650000Y-38125000D01*
X15650000Y-40625000D02*
X14250000Y-40625000D01*
X15650000Y-40625000D02*
X15650000Y-38125000D01*
X14250000Y-43925000D02*
X14250000Y-46425000D01*
X14250000Y-43925000D02*
X15650000Y-43925000D01*
X15650000Y-46425000D02*
X14250000Y-46425000D01*
X15650000Y-46425000D02*
X15650000Y-43925000D01*
X21250000Y-32900000D02*
X21250000Y-35400000D01*
X21250000Y-32900000D02*
X22650000Y-32900000D01*
X22650000Y-35400000D02*
X21250000Y-35400000D01*
X22650000Y-35400000D02*
X22650000Y-32900000D01*
X21400000Y-38125000D02*
X21400000Y-40625000D01*
X21400000Y-38125000D02*
X22800000Y-38125000D01*
X22800000Y-40625000D02*
X21400000Y-40625000D01*
X22800000Y-40625000D02*
X22800000Y-38125000D01*
X21250000Y-43925000D02*
X21250000Y-46425000D01*
X21250000Y-43925000D02*
X22650000Y-43925000D01*
X22650000Y-46425000D02*
X21250000Y-46425000D01*
X22650000Y-46425000D02*
X22650000Y-43925000D01*
X28300000Y-43850000D02*
X28300000Y-46350000D01*
X28300000Y-43850000D02*
X29700000Y-43850000D01*
X29700000Y-46350000D02*
X28300000Y-46350000D01*
X29700000Y-46350000D02*
X29700000Y-43850000D01*
X3850000Y-17450000D02*
X1350000Y-17450000D01*
X3850000Y-17450000D02*
X3850000Y-18850000D01*
X1350000Y-18850000D02*
X1350000Y-17450000D01*
X1350000Y-18850000D02*
X3850000Y-18850000D01*
X8225000Y-17375000D02*
X5725000Y-17375000D01*
X8225000Y-17375000D02*
X8225000Y-18775000D01*
X5725000Y-18775000D02*
X5725000Y-17375000D01*
X5725000Y-18775000D02*
X8225000Y-18775000D01*
X33850000Y-23400000D02*
X30450000Y-23400000D01*
X30450000Y-23400000D02*
X30450000Y-26900000D01*
X30450000Y-26900000D02*
X33850000Y-26900000D01*
X33850000Y-26900000D02*
X33850000Y-23400000D01*
X18350000Y-14450000D02*
X14950000Y-14450000D01*
X14950000Y-14450000D02*
X14950000Y-17950000D01*
X14950000Y-17950000D02*
X18350000Y-17950000D01*
X18350000Y-17950000D02*
X18350000Y-14450000D01*
X18350000Y-18250000D02*
X14950000Y-18250000D01*
X14950000Y-18250000D02*
X14950000Y-21750000D01*
X14950000Y-21750000D02*
X18350000Y-21750000D01*
X18350000Y-21750000D02*
X18350000Y-18250000D01*
X18450000Y-22250000D02*
X15050000Y-22250000D01*
X15050000Y-22250000D02*
X15050000Y-25750000D01*
X15050000Y-25750000D02*
X18450000Y-25750000D01*
X18450000Y-25750000D02*
X18450000Y-22250000D01*
X26450000Y-37625000D02*
X23050000Y-37625000D01*
X23050000Y-37625000D02*
X23050000Y-41125000D01*
X23050000Y-41125000D02*
X26450000Y-41125000D01*
X26450000Y-41125000D02*
X26450000Y-37625000D01*
X33500000Y-37625000D02*
X30100000Y-37625000D01*
X30100000Y-37625000D02*
X30100000Y-41125000D01*
X30100000Y-41125000D02*
X33500000Y-41125000D01*
X33500000Y-41125000D02*
X33500000Y-37625000D01*
X26450000Y-43200000D02*
X23050000Y-43200000D01*
X23050000Y-43200000D02*
X23050000Y-46700000D01*
X23050000Y-46700000D02*
X26450000Y-46700000D01*
X26450000Y-46700000D02*
X26450000Y-43200000D01*
X19450000Y-32250000D02*
X16050000Y-32250000D01*
X16050000Y-32250000D02*
X16050000Y-35750000D01*
X16050000Y-35750000D02*
X19450000Y-35750000D01*
X19450000Y-35750000D02*
X19450000Y-32250000D01*
X33500000Y-43125000D02*
X30100000Y-43125000D01*
X30100000Y-43125000D02*
X30100000Y-46625000D01*
X30100000Y-46625000D02*
X33500000Y-46625000D01*
X33500000Y-46625000D02*
X33500000Y-43125000D01*
X19450000Y-37625000D02*
X16050000Y-37625000D01*
X16050000Y-37625000D02*
X16050000Y-41125000D01*
X16050000Y-41125000D02*
X19450000Y-41125000D01*
X19450000Y-41125000D02*
X19450000Y-37625000D01*
X19450000Y-43200000D02*
X16050000Y-43200000D01*
X16050000Y-43200000D02*
X16050000Y-46700000D01*
X16050000Y-46700000D02*
X19450000Y-46700000D01*
X19450000Y-46700000D02*
X19450000Y-43200000D01*
X26450000Y-32250000D02*
X23050000Y-32250000D01*
X23050000Y-32250000D02*
X23050000Y-35750000D01*
X23050000Y-35750000D02*
X26450000Y-35750000D01*
X26450000Y-35750000D02*
X26450000Y-32250000D01*
X8575000Y-13925000D02*
X5175000Y-13925000D01*
X5175000Y-13925000D02*
X5175000Y-17425000D01*
X5175000Y-17425000D02*
X8575000Y-17425000D01*
X8575000Y-17425000D02*
X8575000Y-13925000D01*
X12900000Y-200000D02*
X12900000Y-3800000D01*
X12900000Y-3800000D02*
X550000Y-3800000D01*
X550000Y-3800000D02*
X550000Y-200000D01*
X550000Y-200000D02*
X12900000Y-200000D01*
X33750000Y-200000D02*
X33750000Y-3800000D01*
X33750000Y-3800000D02*
X46100000Y-3800000D01*
X46100000Y-3800000D02*
X46100000Y-200000D01*
X46100000Y-200000D02*
X33750000Y-200000D01*
X29600000Y-35000000D02*
X32400000Y-35000000D01*
X29600000Y-35000000D02*
X29600000Y-33700000D01*
X32400000Y-33700000D02*
X32400000Y-35000000D01*
X32400000Y-33700000D02*
X29600000Y-33700000D01*
X4300000Y-13900000D02*
X900000Y-13900000D01*
X900000Y-13900000D02*
X900000Y-17400000D01*
X900000Y-17400000D02*
X4300000Y-17400000D01*
X4300000Y-17400000D02*
X4300000Y-13900000D01*
X32400000Y-29850000D02*
X29600000Y-29850000D01*
X32400000Y-29850000D02*
X32400000Y-31150000D01*
X29600000Y-31150000D02*
X29600000Y-29850000D01*
X29600000Y-31150000D02*
X32400000Y-31150000D01*
M02*
