%TF.GenerationSoftware,KiCad,Pcbnew,4.0.7*%
%TF.CreationDate,2017-11-15T23:48:28+08:00*%
%TF.ProjectId,Nixie-Tube-with-shiftR,4E697869652D547562652D776974682D,rev?*%
%TF.FileFunction,Copper,L2,Bot,Signal*%
%FSLAX46Y46*%
G04 Gerber Fmt 4.6, Leading zero omitted, Abs format (unit mm)*
G04 Created by KiCad (PCBNEW 4.0.7) date 11/15/17 23:48:28*
%MOMM*%
%LPD*%
G01*
G04 APERTURE LIST*
%ADD10C,0.100000*%
%ADD11C,0.300000*%
%ADD12C,1.800000*%
%ADD13R,2.000000X3.800000*%
%ADD14R,2.000000X1.500000*%
%ADD15R,0.800000X0.750000*%
%ADD16R,1.700000X1.700000*%
%ADD17O,1.700000X1.700000*%
%ADD18R,0.900000X0.500000*%
%ADD19R,0.900000X0.800000*%
%ADD20R,1.524000X1.524000*%
%ADD21C,1.524000*%
%ADD22R,2.000000X0.600000*%
%ADD23O,2.000000X0.600000*%
%ADD24R,0.600000X2.000000*%
%ADD25O,0.600000X2.000000*%
%ADD26R,0.500000X0.900000*%
%ADD27C,3.500000*%
%ADD28C,0.453000*%
%ADD29C,0.400000*%
%ADD30C,1.000000*%
%ADD31C,0.250000*%
%ADD32C,0.500000*%
%ADD33C,1.000000*%
%ADD34C,0.400000*%
%ADD35C,0.254000*%
G04 APERTURE END LIST*
D10*
D11*
X25740952Y-7248095D02*
X25307619Y-8548095D01*
X24874286Y-7248095D01*
X24440952Y-8424286D02*
X24379047Y-8486190D01*
X24440952Y-8548095D01*
X24502857Y-8486190D01*
X24440952Y-8424286D01*
X24440952Y-8548095D01*
X23574285Y-7248095D02*
X23450476Y-7248095D01*
X23326666Y-7310000D01*
X23264761Y-7371905D01*
X23202857Y-7495714D01*
X23140952Y-7743333D01*
X23140952Y-8052857D01*
X23202857Y-8300476D01*
X23264761Y-8424286D01*
X23326666Y-8486190D01*
X23450476Y-8548095D01*
X23574285Y-8548095D01*
X23698095Y-8486190D01*
X23759999Y-8424286D01*
X23821904Y-8300476D01*
X23883809Y-8052857D01*
X23883809Y-7743333D01*
X23821904Y-7495714D01*
X23759999Y-7371905D01*
X23698095Y-7310000D01*
X23574285Y-7248095D01*
X21902857Y-8548095D02*
X22645714Y-8548095D01*
X22274285Y-8548095D02*
X22274285Y-7248095D01*
X22398095Y-7433810D01*
X22521904Y-7557619D01*
X22645714Y-7619524D01*
D12*
X23893155Y-15535798D03*
X23893155Y-20035798D03*
X23893155Y-24535798D03*
X12393155Y-15535798D03*
X12393155Y-20035798D03*
X12393155Y-24535798D03*
X14143155Y-12035798D03*
X22143155Y-12035798D03*
X14143155Y-28035798D03*
X22143155Y-28035798D03*
X18143155Y-11035798D03*
D13*
X16600000Y-51700000D03*
D14*
X10300000Y-51700000D03*
X10300000Y-49400000D03*
X10300000Y-54000000D03*
D15*
X31750000Y-32200000D03*
X30250000Y-32200000D03*
D16*
X35500000Y-33000000D03*
D17*
X35500000Y-35540000D03*
X35500000Y-38080000D03*
X35500000Y-40620000D03*
X35500000Y-43160000D03*
X35500000Y-45700000D03*
D16*
X11100000Y-33000000D03*
D17*
X11100000Y-35540000D03*
X11100000Y-38080000D03*
X11100000Y-40620000D03*
X11100000Y-43160000D03*
X11100000Y-45700000D03*
D18*
X33000000Y-12700000D03*
X33000000Y-14200000D03*
X31000000Y-14200000D03*
X31000000Y-12700000D03*
D19*
X33050000Y-15950000D03*
X33050000Y-17850000D03*
X31050000Y-16900000D03*
D20*
X35150000Y-12950000D03*
D21*
X35150000Y-17950000D03*
D20*
X35200000Y-21300000D03*
D21*
X35200000Y-26300000D03*
D22*
X7500000Y-20580000D03*
D23*
X7500000Y-21850000D03*
X7500000Y-23120000D03*
X7500000Y-24390000D03*
X7500000Y-25660000D03*
X7500000Y-26930000D03*
X7500000Y-28200000D03*
X1650000Y-28200000D03*
X1650000Y-26930000D03*
X1650000Y-25660000D03*
X1650000Y-24390000D03*
X1650000Y-23120000D03*
X1650000Y-21850000D03*
X1650000Y-20580000D03*
X7500000Y-29470000D03*
X1650000Y-29470000D03*
D24*
X19490000Y-48570000D03*
D25*
X20760000Y-48570000D03*
X22030000Y-48570000D03*
X23300000Y-48570000D03*
X24570000Y-48570000D03*
X25840000Y-48570000D03*
X27110000Y-48570000D03*
X27110000Y-54420000D03*
X25840000Y-54420000D03*
X24570000Y-54420000D03*
X23300000Y-54420000D03*
X22030000Y-54420000D03*
X20760000Y-54420000D03*
X19490000Y-54420000D03*
X28380000Y-48570000D03*
X28380000Y-54420000D03*
D18*
X32950000Y-21050000D03*
X32950000Y-22550000D03*
X31050000Y-22600000D03*
X31050000Y-21100000D03*
D26*
X23900000Y-36625000D03*
X25400000Y-36625000D03*
X30800000Y-36625000D03*
X32300000Y-36625000D03*
X23950000Y-42275000D03*
X25450000Y-42275000D03*
X16950000Y-31000000D03*
X18450000Y-31000000D03*
X31000000Y-42125000D03*
X32500000Y-42125000D03*
X16750000Y-36625000D03*
X18250000Y-36625000D03*
X16950000Y-42250000D03*
X18450000Y-42250000D03*
X1800000Y-13150000D03*
X3300000Y-13150000D03*
X24100000Y-31000000D03*
X25600000Y-31000000D03*
X7675000Y-13175000D03*
X6175000Y-13175000D03*
X21100000Y-15500000D03*
X19600000Y-15500000D03*
X21100000Y-18950000D03*
X19600000Y-18950000D03*
X21100000Y-23000000D03*
X19600000Y-23000000D03*
D18*
X29000000Y-38625000D03*
X29000000Y-40125000D03*
X14950000Y-33400000D03*
X14950000Y-34900000D03*
X14950000Y-38625000D03*
X14950000Y-40125000D03*
X14950000Y-44425000D03*
X14950000Y-45925000D03*
X21950000Y-33400000D03*
X21950000Y-34900000D03*
X22100000Y-38625000D03*
X22100000Y-40125000D03*
X21950000Y-44425000D03*
X21950000Y-45925000D03*
X29000000Y-44350000D03*
X29000000Y-45850000D03*
D26*
X3350000Y-18150000D03*
X1850000Y-18150000D03*
X7725000Y-18075000D03*
X6225000Y-18075000D03*
D19*
X33150000Y-24200000D03*
X33150000Y-26100000D03*
X31150000Y-25150000D03*
X17650000Y-15250000D03*
X17650000Y-17150000D03*
X15650000Y-16200000D03*
X17650000Y-19050000D03*
X17650000Y-20950000D03*
X15650000Y-20000000D03*
X17750000Y-23050000D03*
X17750000Y-24950000D03*
X15750000Y-24000000D03*
X25750000Y-38425000D03*
X25750000Y-40325000D03*
X23750000Y-39375000D03*
X32800000Y-38425000D03*
X32800000Y-40325000D03*
X30800000Y-39375000D03*
X25750000Y-44000000D03*
X25750000Y-45900000D03*
X23750000Y-44950000D03*
X18750000Y-33050000D03*
X18750000Y-34950000D03*
X16750000Y-34000000D03*
X32800000Y-43925000D03*
X32800000Y-45825000D03*
X30800000Y-44875000D03*
X18750000Y-38425000D03*
X18750000Y-40325000D03*
X16750000Y-39375000D03*
X18750000Y-44000000D03*
X18750000Y-45900000D03*
X16750000Y-44950000D03*
X25750000Y-33050000D03*
X25750000Y-34950000D03*
X23750000Y-34000000D03*
X7875000Y-14725000D03*
X7875000Y-16625000D03*
X5875000Y-15675000D03*
D16*
X11100000Y-2000000D03*
X35550000Y-2000000D03*
D15*
X30250000Y-34350000D03*
X31750000Y-34350000D03*
D19*
X3600000Y-14700000D03*
X3600000Y-16600000D03*
X1600000Y-15650000D03*
D27*
X33030000Y-51900000D03*
X4700000Y-51900000D03*
X3500000Y-7700000D03*
X33300000Y-7700000D03*
D15*
X31750000Y-30500000D03*
X30250000Y-30500000D03*
D28*
X3785023Y-19814977D03*
X27135030Y-50135030D03*
X24725741Y-52234319D03*
X18610000Y-52930000D03*
X22780010Y-53868490D03*
X6160000Y-29300000D03*
X3090000Y-24380000D03*
D29*
X14620000Y-36420000D03*
X16059998Y-34950000D03*
X6925000Y-16700000D03*
X4625000Y-16600000D03*
X29525000Y-24975000D03*
X29500000Y-21650000D03*
X22000000Y-42950000D03*
X18750000Y-45100000D03*
D28*
X1600000Y-27656500D03*
X27350000Y-29250000D03*
X25500000Y-24950000D03*
X6073498Y-20393545D03*
X13300000Y-18650000D03*
X1590000Y-21123500D03*
X1600000Y-30740000D03*
D29*
X21254048Y-17159568D03*
X20425000Y-17988616D03*
X16223499Y-17060279D03*
X14775000Y-21575000D03*
X16850014Y-19175000D03*
X24100000Y-52050000D03*
X25916120Y-52977817D03*
X34240000Y-47050000D03*
X16470864Y-37822533D03*
D28*
X23500000Y-23100000D03*
D29*
X16083479Y-25274979D03*
D28*
X28840000Y-1975000D03*
X30110000Y-1975000D03*
X31380000Y-1975000D03*
X32650000Y-1975000D03*
X18680000Y-1975000D03*
X13600000Y-2000000D03*
X14870000Y-2000000D03*
X16200000Y-2000000D03*
D30*
X30450010Y-20149999D03*
D28*
X12728948Y-23230211D03*
X10600000Y-24400000D03*
X13000000Y-22500000D03*
X9946971Y-23223792D03*
D29*
X14550000Y-19475000D03*
D28*
X14550000Y-18150000D03*
D29*
X12125032Y-21800000D03*
D28*
X10498481Y-22360968D03*
X7850000Y-19080000D03*
X8850000Y-19680000D03*
D29*
X11150000Y-26635021D03*
X3950000Y-19150000D03*
X27850000Y-44300000D03*
X23150000Y-42100000D03*
X22050000Y-37850000D03*
X21800000Y-32600000D03*
X17599994Y-43700000D03*
X14044990Y-37294990D03*
X14850000Y-32550000D03*
X28800000Y-37600000D03*
X26400000Y-29300000D03*
X12050000Y-29300000D03*
X22843146Y-31690000D03*
X23101246Y-47470010D03*
D28*
X2425001Y-19771104D03*
X3050000Y-21150000D03*
D29*
X16950000Y-43200000D03*
X21610000Y-47470010D03*
X16001067Y-36643534D03*
X19140000Y-47120000D03*
X27180000Y-47280000D03*
X29920000Y-44050000D03*
X17000000Y-31980000D03*
X18140000Y-47230000D03*
X24567762Y-43216825D03*
X25130000Y-47030000D03*
X21911239Y-52258761D03*
X30910000Y-37590000D03*
X24075010Y-37650000D03*
X24139602Y-47415920D03*
X21455179Y-26774433D03*
X29500000Y-16250000D03*
X27971239Y-30128761D03*
X12280000Y-52890000D03*
X32350000Y-33400000D03*
X25450000Y-52600000D03*
D28*
X24026500Y-55100000D03*
D29*
X3570000Y-26360000D03*
X2361109Y-26230088D03*
X33799989Y-46430464D03*
X33970000Y-36120000D03*
X34040000Y-41860000D03*
D31*
X4625000Y-19295319D02*
X4105342Y-19814977D01*
X4105342Y-19814977D02*
X3785023Y-19814977D01*
X4625000Y-16600000D02*
X4625000Y-19295319D01*
D32*
X22000000Y-42287998D02*
X22000000Y-42950000D01*
X24662998Y-40325000D02*
X23962998Y-40325000D01*
X23962998Y-40325000D02*
X22000000Y-42287998D01*
D31*
X27135030Y-50135030D02*
X28380000Y-48890060D01*
X28380000Y-48890060D02*
X28380000Y-48570000D01*
X23300000Y-54420000D02*
X23300000Y-53720000D01*
X23300000Y-53720000D02*
X24725741Y-52294259D01*
X24725741Y-52294259D02*
X24725741Y-52234319D01*
X7875000Y-16625000D02*
X7000000Y-16625000D01*
X7000000Y-16625000D02*
X6925000Y-16700000D01*
X3600000Y-16600000D02*
X4625000Y-16600000D01*
D33*
X31350000Y-47225000D02*
X32750000Y-45825000D01*
X28525000Y-47225000D02*
X31350000Y-47225000D01*
D32*
X16600000Y-51700000D02*
X17380000Y-51700000D01*
X17380000Y-51700000D02*
X18610000Y-52930000D01*
D33*
X16600000Y-51700000D02*
X10300000Y-51700000D01*
D32*
X12800001Y-39780001D02*
X14290000Y-41270000D01*
X14290000Y-41270000D02*
X16855000Y-41270000D01*
X16855000Y-41270000D02*
X17495000Y-40630000D01*
X11949999Y-39780001D02*
X12800001Y-39780001D01*
D33*
X25750000Y-34950000D02*
X25599999Y-35100001D01*
X21298188Y-36010000D02*
X20238188Y-34950000D01*
X25599999Y-35100001D02*
X23710001Y-35100001D01*
X23710001Y-35100001D02*
X22800002Y-36010000D01*
X22800002Y-36010000D02*
X21298188Y-36010000D01*
D32*
X26700000Y-40325000D02*
X26700000Y-40963617D01*
X28592002Y-41630002D02*
X29299998Y-41630002D01*
X26700000Y-40963617D02*
X27596385Y-41860002D01*
X27596385Y-41860002D02*
X28362002Y-41860002D01*
X28362002Y-41860002D02*
X28592002Y-41630002D01*
X29299998Y-41630002D02*
X30605000Y-40325000D01*
X30605000Y-40325000D02*
X31850000Y-40325000D01*
D33*
X20600000Y-41225000D02*
X20600000Y-41550000D01*
X20600000Y-41550000D02*
X22000000Y-42950000D01*
D32*
X20620000Y-46820000D02*
X23880000Y-46820000D01*
X23880000Y-46820000D02*
X24800000Y-45900000D01*
X20225001Y-46425001D02*
X20620000Y-46820000D01*
D31*
X23300000Y-54420000D02*
X23423500Y-54420000D01*
D32*
X23300000Y-54420000D02*
X23378009Y-54341991D01*
X23300000Y-54420000D02*
X23300000Y-54388480D01*
X23300000Y-54388480D02*
X23006509Y-54094989D01*
X23006509Y-54094989D02*
X22780010Y-53868490D01*
D31*
X6160000Y-29300000D02*
X7330000Y-29300000D01*
X7330000Y-29300000D02*
X7500000Y-29470000D01*
X1650000Y-24390000D02*
X3080000Y-24390000D01*
X3080000Y-24390000D02*
X3090000Y-24380000D01*
X1650000Y-24390000D02*
X2540000Y-24390000D01*
D32*
X16212998Y-38515000D02*
X14620000Y-36922002D01*
X18700000Y-40325000D02*
X17800000Y-39425000D01*
X17800000Y-38515000D02*
X16212998Y-38515000D01*
X17800000Y-39425000D02*
X17800000Y-38515000D01*
X14620000Y-36922002D02*
X14620000Y-36420000D01*
X18750000Y-34950000D02*
X16059998Y-34950000D01*
D33*
X25750000Y-40325000D02*
X26700000Y-40325000D01*
X28380000Y-48570000D02*
X28380000Y-47370000D01*
X28380000Y-47370000D02*
X28525000Y-47225000D01*
X25750000Y-45900000D02*
X24800000Y-45900000D01*
X27200000Y-45900000D02*
X28525000Y-47225000D01*
X32750000Y-45825000D02*
X32800000Y-45825000D01*
X25750000Y-45900000D02*
X27200000Y-45900000D01*
X30850000Y-16700000D02*
X31050000Y-16900000D01*
X29525000Y-24975000D02*
X30975000Y-24975000D01*
X30975000Y-24975000D02*
X31150000Y-25150000D01*
D32*
X29500000Y-19350000D02*
X29500000Y-21650000D01*
D33*
X31050000Y-16900000D02*
X31050000Y-17800000D01*
X31050000Y-17800000D02*
X29500000Y-19350000D01*
X31750000Y-32200000D02*
X31750000Y-25750000D01*
X31750000Y-25750000D02*
X31150000Y-25150000D01*
X26823630Y-34950000D02*
X25750000Y-34950000D01*
D32*
X27456575Y-33555216D02*
X27456575Y-34317055D01*
X27456575Y-34317055D02*
X26823630Y-34950000D01*
X29536994Y-32974990D02*
X29484258Y-32922254D01*
X29638178Y-32974990D02*
X29536994Y-32974990D01*
X30250000Y-33586812D02*
X29638178Y-32974990D01*
X28089537Y-32922254D02*
X27456575Y-33555216D01*
D33*
X30250000Y-34350000D02*
X30250000Y-33586812D01*
D32*
X29484258Y-32922254D02*
X28089537Y-32922254D01*
D33*
X18700000Y-40325000D02*
X18750000Y-40325000D01*
X31850000Y-40325000D02*
X32800000Y-40325000D01*
X17800000Y-40325000D02*
X18750000Y-40325000D01*
X17495000Y-40630000D02*
X17800000Y-40325000D01*
X11100000Y-40630000D02*
X11949999Y-39780001D01*
D32*
X18750000Y-34950000D02*
X20238188Y-34950000D01*
X31750000Y-32200000D02*
X31750000Y-32850000D01*
X31750000Y-32850000D02*
X30250000Y-34350000D01*
D33*
X24662998Y-40325000D02*
X25750000Y-40325000D01*
X18750000Y-40325000D02*
X19700000Y-40325000D01*
X19700000Y-40325000D02*
X20600000Y-41225000D01*
D32*
X18750000Y-45100000D02*
X18750000Y-45900000D01*
D33*
X18750000Y-45900000D02*
X19700000Y-45900000D01*
X19700000Y-45900000D02*
X20225001Y-46425001D01*
X32800000Y-40325000D02*
X35105000Y-40325000D01*
X35105000Y-40325000D02*
X35550000Y-40770000D01*
D31*
X13526499Y-18876499D02*
X13300000Y-18650000D01*
X15859912Y-18876499D02*
X13526499Y-18876499D01*
X16811411Y-17925000D02*
X15859912Y-18876499D01*
X20361384Y-17925000D02*
X16811411Y-17925000D01*
X20425000Y-17988616D02*
X20361384Y-17925000D01*
X1650000Y-27706500D02*
X1600000Y-27656500D01*
X1650000Y-28200000D02*
X1650000Y-27706500D01*
X27350000Y-29250000D02*
X27576499Y-29476499D01*
X27576499Y-29476499D02*
X28576499Y-29476499D01*
X28576499Y-29476499D02*
X29600000Y-30500000D01*
X29600000Y-30500000D02*
X30250000Y-30500000D01*
X25500000Y-24283776D02*
X25500000Y-24950000D01*
X23516224Y-22300000D02*
X25500000Y-24283776D01*
X30225000Y-30500000D02*
X30250000Y-30500000D01*
X22300000Y-22300000D02*
X23516224Y-22300000D01*
X21100000Y-23000000D02*
X21600000Y-23000000D01*
X21600000Y-23000000D02*
X22300000Y-22300000D01*
X21100000Y-23000000D02*
X21100000Y-18950000D01*
X1650000Y-20580000D02*
X5887043Y-20580000D01*
X5887043Y-20580000D02*
X6073498Y-20393545D01*
D34*
X20674989Y-51295011D02*
X19490000Y-52480000D01*
X27110000Y-53311996D02*
X25093015Y-51295011D01*
X27110000Y-54420000D02*
X27110000Y-53311996D01*
X25093015Y-51295011D02*
X20674989Y-51295011D01*
D32*
X10300000Y-49400000D02*
X10300000Y-47820000D01*
X10300000Y-47820000D02*
X1600000Y-39120000D01*
X1600000Y-39120000D02*
X1600000Y-30740000D01*
D34*
X11700000Y-49400000D02*
X10300000Y-49400000D01*
X11960000Y-49140000D02*
X11700000Y-49400000D01*
X17980000Y-49140000D02*
X11960000Y-49140000D01*
X19490000Y-52480000D02*
X18274989Y-51264989D01*
X18274989Y-49434991D02*
X17980000Y-49140000D01*
X18274989Y-51264989D02*
X18274989Y-49434991D01*
D31*
X1650000Y-20580000D02*
X1650000Y-21063500D01*
X1650000Y-21063500D02*
X1590000Y-21123500D01*
D34*
X19490000Y-54420000D02*
X19490000Y-52480000D01*
X30250000Y-30500000D02*
X30250000Y-32200000D01*
X21100000Y-18950000D02*
X21100000Y-18663616D01*
X21100000Y-18663616D02*
X20425000Y-17988616D01*
X21100000Y-17005520D02*
X21254048Y-17159568D01*
X21100000Y-15500000D02*
X21100000Y-17005520D01*
X21100000Y-19150000D02*
X21100000Y-18950000D01*
D31*
X16950000Y-15900000D02*
X16950000Y-16333778D01*
X17650000Y-15250000D02*
X17600000Y-15250000D01*
X17600000Y-15250000D02*
X16950000Y-15900000D01*
X16950000Y-16333778D02*
X16223499Y-17060279D01*
X17750000Y-23050000D02*
X17700000Y-23050000D01*
X17700000Y-23050000D02*
X16225000Y-21575000D01*
X16225000Y-21575000D02*
X14775000Y-21575000D01*
X17650000Y-19050000D02*
X16950000Y-19050000D01*
X16850014Y-19149986D02*
X16850014Y-19175000D01*
X16950000Y-19050000D02*
X16850014Y-19149986D01*
X17650000Y-19050000D02*
X17700000Y-19050000D01*
X23700000Y-52050000D02*
X24100000Y-52050000D01*
X22030000Y-53720000D02*
X23700000Y-52050000D01*
X22030000Y-54420000D02*
X22030000Y-53720000D01*
X25840000Y-53053937D02*
X25916120Y-52977817D01*
X25840000Y-54420000D02*
X25840000Y-53053937D01*
X3120000Y-35180000D02*
X11100000Y-43160000D01*
X3120000Y-27700000D02*
X3120000Y-35180000D01*
X1650000Y-26930000D02*
X2350000Y-26930000D01*
X2350000Y-26930000D02*
X3120000Y-27700000D01*
X34240000Y-47050000D02*
X34240000Y-47040000D01*
X34240000Y-47040000D02*
X34324999Y-46955001D01*
X34324999Y-46955001D02*
X34324999Y-44335001D01*
X34324999Y-44335001D02*
X35500000Y-43160000D01*
X29430000Y-39360000D02*
X25249998Y-39360000D01*
X22356139Y-37192852D02*
X21092852Y-37192852D01*
X25249998Y-39360000D02*
X24539997Y-38649999D01*
X24539997Y-38649999D02*
X23813286Y-38649999D01*
X23813286Y-38649999D02*
X22356139Y-37192852D01*
X21092852Y-37192852D02*
X19600000Y-35700000D01*
X19600000Y-35700000D02*
X17750000Y-35700000D01*
X17750000Y-35700000D02*
X17450000Y-36000000D01*
X16753706Y-37822533D02*
X16470864Y-37822533D01*
X17450000Y-36000000D02*
X17450000Y-37126239D01*
X17450000Y-37126239D02*
X16753706Y-37822533D01*
X32107853Y-39179999D02*
X31547855Y-38620001D01*
X30169999Y-38620001D02*
X29430000Y-39360000D01*
X34600001Y-39179999D02*
X32107853Y-39179999D01*
X31547855Y-38620001D02*
X30169999Y-38620001D01*
X35550000Y-38230000D02*
X34600001Y-39179999D01*
D32*
X36362001Y-19125999D02*
X35200000Y-20288000D01*
X36362001Y-15174001D02*
X35150000Y-13962000D01*
D31*
X17039999Y-25675001D02*
X16639977Y-25274979D01*
X21000011Y-25599989D02*
X18535013Y-25599989D01*
X16639977Y-25274979D02*
X16083479Y-25274979D01*
X23500000Y-23100000D02*
X21000011Y-25599989D01*
X18460001Y-25675001D02*
X17039999Y-25675001D01*
X18535013Y-25599989D02*
X18460001Y-25675001D01*
D33*
X18680000Y-1975000D02*
X28840000Y-1975000D01*
X30110000Y-1975000D02*
X28840000Y-1975000D01*
X31380000Y-1975000D02*
X30110000Y-1975000D01*
X31380000Y-1975000D02*
X33920000Y-1975000D01*
X32650000Y-1975000D02*
X31380000Y-1975000D01*
X33920000Y-1975000D02*
X34850000Y-1975000D01*
X33920000Y-1975000D02*
X32650000Y-1975000D01*
X11350000Y-1975000D02*
X18680000Y-1975000D01*
D32*
X36362001Y-19125999D02*
X36362001Y-15174001D01*
D33*
X35200000Y-21300000D02*
X34550011Y-21300000D01*
X34550011Y-21300000D02*
X34550010Y-21283270D01*
X34550010Y-21283270D02*
X34100001Y-20833261D01*
X34100001Y-20833261D02*
X34100001Y-20239999D01*
X34100001Y-20239999D02*
X33960001Y-20099999D01*
X31939999Y-20099999D02*
X31889999Y-20149999D01*
X33960001Y-20099999D02*
X31939999Y-20099999D01*
X31889999Y-20149999D02*
X30450010Y-20149999D01*
X34850000Y-1975000D02*
X34900000Y-1925000D01*
X35200000Y-21300000D02*
X35200000Y-20288000D01*
X35150000Y-13962000D02*
X35150000Y-12950000D01*
X35150000Y-2175000D02*
X34900000Y-1925000D01*
D31*
X13326400Y-27975199D02*
X14136991Y-28785790D01*
X2175011Y-29995011D02*
X1650000Y-29470000D01*
X2175011Y-36775011D02*
X2175011Y-29995011D01*
X11100000Y-45700000D02*
X2175011Y-36775011D01*
X7875000Y-14725000D02*
X7875000Y-13375000D01*
X7875000Y-13375000D02*
X7675000Y-13175000D01*
X5875000Y-15675000D02*
X5875000Y-17725000D01*
X5875000Y-17725000D02*
X6225000Y-18075000D01*
D32*
X25750000Y-33050000D02*
X25750000Y-31150000D01*
X25750000Y-31150000D02*
X25600000Y-31000000D01*
D31*
X25600000Y-32900000D02*
X25750000Y-33050000D01*
X23750000Y-34000000D02*
X22950000Y-34000000D01*
X22950000Y-34000000D02*
X22250000Y-34700000D01*
X3600000Y-14700000D02*
X3600000Y-13450000D01*
X3600000Y-13450000D02*
X3300000Y-13150000D01*
X1600000Y-15650000D02*
X1600000Y-17900000D01*
X1600000Y-17900000D02*
X1850000Y-18150000D01*
X18750000Y-44000000D02*
X18750000Y-42750000D01*
X18750000Y-42750000D02*
X18450000Y-42450000D01*
X16750000Y-44950000D02*
X16025000Y-44950000D01*
X16025000Y-44950000D02*
X15250000Y-45725000D01*
X18750000Y-38425000D02*
X18750000Y-37125000D01*
X18750000Y-37125000D02*
X18450000Y-36825000D01*
X16750000Y-39375000D02*
X15800000Y-39375000D01*
X15800000Y-39375000D02*
X15250000Y-39925000D01*
X32800000Y-43925000D02*
X32800000Y-42625000D01*
X32800000Y-42625000D02*
X32500000Y-42325000D01*
X30800000Y-44875000D02*
X30075000Y-44875000D01*
X30075000Y-44875000D02*
X29300000Y-45650000D01*
D32*
X18450000Y-31000000D02*
X18450000Y-32750000D01*
X18450000Y-32750000D02*
X18750000Y-33050000D01*
D31*
X16750000Y-34000000D02*
X15950000Y-34000000D01*
X15950000Y-34000000D02*
X15250000Y-34700000D01*
X25750000Y-44000000D02*
X25750000Y-42775000D01*
X25750000Y-42775000D02*
X25450000Y-42475000D01*
X23750000Y-44950000D02*
X23025000Y-44950000D01*
X23025000Y-44950000D02*
X22250000Y-45725000D01*
X32800000Y-38425000D02*
X32800000Y-37125000D01*
X32800000Y-37125000D02*
X32500000Y-36825000D01*
X30522002Y-39375000D02*
X29902001Y-39995001D01*
X29902001Y-39995001D02*
X29370001Y-39995001D01*
X29370001Y-39995001D02*
X29300000Y-39925000D01*
X30800000Y-39375000D02*
X30522002Y-39375000D01*
X25750000Y-38425000D02*
X25750000Y-36975000D01*
X25750000Y-36975000D02*
X25600000Y-36825000D01*
X23750000Y-39375000D02*
X22950000Y-39375000D01*
X22950000Y-39375000D02*
X22400000Y-39925000D01*
X13108637Y-23230211D02*
X12728948Y-23230211D01*
X17050000Y-24950000D02*
X16849978Y-24749978D01*
X17750000Y-24950000D02*
X17050000Y-24950000D01*
X14628404Y-24749978D02*
X13108637Y-23230211D01*
X16849978Y-24749978D02*
X14628404Y-24749978D01*
X7500000Y-21850000D02*
X8200000Y-21850000D01*
X8200000Y-21850000D02*
X8750000Y-21300000D01*
X8750000Y-21300000D02*
X10286392Y-21300000D01*
X10286392Y-21300000D02*
X11124987Y-22138595D01*
X11124987Y-22138595D02*
X11124987Y-23875013D01*
X11124987Y-23875013D02*
X10600000Y-24400000D01*
X17750000Y-24950000D02*
X17700000Y-24950000D01*
X14550000Y-20950000D02*
X13000000Y-22500000D01*
X17650000Y-20950000D02*
X14550000Y-20950000D01*
X9843179Y-23120000D02*
X9946971Y-23223792D01*
X7500000Y-23120000D02*
X9843179Y-23120000D01*
X14870319Y-18150000D02*
X14550000Y-18150000D01*
X15950000Y-18150000D02*
X14870319Y-18150000D01*
X16950000Y-17150000D02*
X15950000Y-18150000D01*
X17650000Y-17150000D02*
X16950000Y-17150000D01*
X14550000Y-19657874D02*
X14550000Y-19475000D01*
X12125032Y-21800000D02*
X12407874Y-21800000D01*
X12407874Y-21800000D02*
X14550000Y-19657874D01*
X7500000Y-24390000D02*
X9826222Y-24390000D01*
X9826222Y-24390000D02*
X10498481Y-23717741D01*
X10498481Y-23717741D02*
X10498481Y-22360968D01*
X17525000Y-17275000D02*
X17650000Y-17150000D01*
X33150000Y-24200000D02*
X32450000Y-24200000D01*
X32450000Y-24200000D02*
X31825001Y-23575001D01*
X31825001Y-23575001D02*
X31825001Y-21675001D01*
X31825001Y-21675001D02*
X31250000Y-21100000D01*
X31250000Y-21100000D02*
X31050000Y-21100000D01*
X32950000Y-22550000D02*
X32950000Y-23050000D01*
X32950000Y-23050000D02*
X33150000Y-23250000D01*
X33150000Y-23250000D02*
X33825000Y-23250000D01*
X34425000Y-23850000D02*
X34425000Y-24850000D01*
X33825000Y-23250000D02*
X34425000Y-23850000D01*
X34425000Y-24850000D02*
X33175000Y-26100000D01*
X33175000Y-26100000D02*
X33150000Y-26100000D01*
X11600022Y-23742665D02*
X12393155Y-24535798D01*
X10080000Y-19680000D02*
X11600022Y-21200022D01*
X8850000Y-19680000D02*
X10080000Y-19680000D01*
X11600022Y-21200022D02*
X11600022Y-23742665D01*
X7850000Y-19080000D02*
X7850000Y-18200000D01*
X7850000Y-18200000D02*
X7725000Y-18075000D01*
X7725000Y-18075000D02*
X7725000Y-18275000D01*
X14731156Y-26810797D02*
X11325776Y-26810797D01*
X22143155Y-28035798D02*
X15956157Y-28035798D01*
X15956157Y-28035798D02*
X14731156Y-26810797D01*
X11325776Y-26810797D02*
X11150000Y-26635021D01*
X3950000Y-19150000D02*
X3950000Y-18750000D01*
X3950000Y-18750000D02*
X3350000Y-18150000D01*
X3350000Y-18150000D02*
X3350000Y-18350000D01*
X27850000Y-44300000D02*
X28950000Y-44300000D01*
X28950000Y-44300000D02*
X29000000Y-44350000D01*
X23150000Y-42100000D02*
X22825009Y-42424991D01*
X22825009Y-42424991D02*
X22825009Y-43291731D01*
X22825009Y-43291731D02*
X21950000Y-44166740D01*
X21950000Y-44166740D02*
X21950000Y-44425000D01*
X22050000Y-37850000D02*
X22050000Y-38575000D01*
X22050000Y-38575000D02*
X22100000Y-38625000D01*
X21800000Y-32600000D02*
X21800000Y-33250000D01*
X21800000Y-33250000D02*
X21950000Y-33400000D01*
X17374994Y-43925000D02*
X17599994Y-43700000D01*
X15650000Y-43925000D02*
X17374994Y-43925000D01*
X14950000Y-44425000D02*
X15150000Y-44425000D01*
X15150000Y-44425000D02*
X15650000Y-43925000D01*
X14950000Y-38625000D02*
X14950000Y-38200000D01*
X14950000Y-38200000D02*
X14044990Y-37294990D01*
X14950000Y-33400000D02*
X14950000Y-32650000D01*
X14950000Y-32650000D02*
X14850000Y-32550000D01*
X15250000Y-33200000D02*
X15050000Y-33200000D01*
X28800000Y-37600000D02*
X28800000Y-38425000D01*
X28800000Y-38425000D02*
X29000000Y-38625000D01*
X12050000Y-29300000D02*
X26400000Y-29300000D01*
X7500000Y-20246222D02*
X7500000Y-20580000D01*
X8700009Y-16015007D02*
X8700009Y-19046213D01*
X8700009Y-19046213D02*
X7500000Y-20246222D01*
X8484993Y-15799991D02*
X8700009Y-16015007D01*
X7514989Y-15799991D02*
X8484993Y-15799991D01*
X6175000Y-14460002D02*
X7514989Y-15799991D01*
X6175000Y-13175000D02*
X6175000Y-14460002D01*
X24100000Y-31000000D02*
X23533146Y-31000000D01*
X23533146Y-31000000D02*
X22843146Y-31690000D01*
X23300000Y-48570000D02*
X23101246Y-48371246D01*
X23101246Y-48371246D02*
X23101246Y-47752852D01*
X23101246Y-47752852D02*
X23101246Y-47470010D01*
X2350000Y-21850000D02*
X3050000Y-21150000D01*
X1650000Y-21850000D02*
X2350000Y-21850000D01*
X1336103Y-21850000D02*
X1650000Y-21850000D01*
X2425001Y-14960003D02*
X2425001Y-19771104D01*
X1800000Y-14335002D02*
X2425001Y-14960003D01*
X1800000Y-13150000D02*
X1800000Y-14335002D01*
X1800000Y-13150000D02*
X1800000Y-13350000D01*
X1825000Y-13175000D02*
X1800000Y-13150000D01*
X16950000Y-42250000D02*
X16950000Y-43200000D01*
X21610000Y-48150000D02*
X21610000Y-47470010D01*
X22030000Y-48570000D02*
X21610000Y-48150000D01*
X16950000Y-42450000D02*
X16950000Y-42250000D01*
X16750000Y-36625000D02*
X16019601Y-36625000D01*
X16019601Y-36625000D02*
X16001067Y-36643534D01*
X16835690Y-36825000D02*
X16827024Y-36833666D01*
X16750000Y-36625000D02*
X16750000Y-36825000D01*
X20760000Y-48570000D02*
X20760000Y-47954998D01*
X20760000Y-47954998D02*
X20050001Y-47244999D01*
X20050001Y-47244999D02*
X19264999Y-47244999D01*
X19264999Y-47244999D02*
X19140000Y-47120000D01*
X27180000Y-47280000D02*
X27180000Y-48500000D01*
X27180000Y-48500000D02*
X27110000Y-48570000D01*
X29920000Y-42705000D02*
X29920000Y-44050000D01*
X31000000Y-42125000D02*
X30500000Y-42125000D01*
X30500000Y-42125000D02*
X29920000Y-42705000D01*
X31125000Y-42350000D02*
X31150000Y-42325000D01*
X17000000Y-31980000D02*
X17000000Y-31050000D01*
X17000000Y-31050000D02*
X16950000Y-31000000D01*
X19490000Y-48570000D02*
X19480000Y-48570000D01*
X19480000Y-48570000D02*
X18140000Y-47230000D01*
X23950000Y-42275000D02*
X23950000Y-42475000D01*
X23950000Y-42475000D02*
X23950000Y-42599063D01*
X23950000Y-42599063D02*
X24567762Y-43216825D01*
X25840000Y-48570000D02*
X25840000Y-47740000D01*
X25840000Y-47740000D02*
X25130000Y-47030000D01*
X23899990Y-42424990D02*
X23780173Y-42424990D01*
X23950000Y-42475000D02*
X23899990Y-42424990D01*
X21911239Y-52568761D02*
X21911239Y-52258761D01*
X20760000Y-53720000D02*
X21911239Y-52568761D01*
X20760000Y-54420000D02*
X20760000Y-53720000D01*
X30910000Y-37590000D02*
X30910000Y-36735000D01*
X30910000Y-36735000D02*
X30800000Y-36625000D01*
X31000000Y-36450000D02*
X30917365Y-36532635D01*
X23900000Y-37474990D02*
X24075010Y-37650000D01*
X23900000Y-36625000D02*
X23900000Y-37474990D01*
X24139602Y-48139602D02*
X24139602Y-47415920D01*
X24570000Y-48570000D02*
X24139602Y-48139602D01*
X24000000Y-36725000D02*
X24100000Y-36825000D01*
X28380000Y-54420000D02*
X28380000Y-53720000D01*
X25430000Y-50770000D02*
X19804998Y-50770000D01*
X28380000Y-53720000D02*
X25430000Y-50770000D01*
X19804998Y-50770000D02*
X18800000Y-49765002D01*
X16910000Y-47270000D02*
X15009998Y-47270000D01*
X12900000Y-42750000D02*
X12050000Y-41900000D01*
X18800000Y-49765002D02*
X18800000Y-49160000D01*
X2975010Y-25891214D02*
X3761502Y-25104722D01*
X18800000Y-49160000D02*
X16910000Y-47270000D01*
X10476410Y-41900000D02*
X3770011Y-35193601D01*
X15009998Y-47270000D02*
X12900000Y-45160002D01*
X12900000Y-45160002D02*
X12900000Y-42750000D01*
X12050000Y-41900000D02*
X10476410Y-41900000D01*
X2975010Y-26622014D02*
X2975010Y-25891214D01*
X3770011Y-35193601D02*
X3770011Y-27417015D01*
X3770011Y-27417015D02*
X2975010Y-26622014D01*
X3761502Y-25104722D02*
X3761502Y-23905278D01*
X3761502Y-23905278D02*
X2976224Y-23120000D01*
X2976224Y-23120000D02*
X1650000Y-23120000D01*
X35200000Y-23988589D02*
X35200000Y-26300000D01*
X33725001Y-22513590D02*
X35200000Y-23988589D01*
X33725001Y-21625001D02*
X33725001Y-22513590D01*
X32950000Y-21050000D02*
X33150000Y-21050000D01*
X33150000Y-21050000D02*
X33725001Y-21625001D01*
X33725001Y-21625001D02*
X32950000Y-21050000D01*
X35150000Y-15513589D02*
X35150000Y-17950000D01*
X34050009Y-14413598D02*
X35150000Y-15513589D01*
X34050009Y-13550009D02*
X34050009Y-14413598D01*
X33200000Y-12700000D02*
X34050009Y-13550009D01*
X33000000Y-12700000D02*
X33200000Y-12700000D01*
X33050000Y-15950000D02*
X33000000Y-15950000D01*
X33000000Y-15950000D02*
X31775001Y-14725001D01*
X31775001Y-14725001D02*
X31775001Y-13275001D01*
X31775001Y-13275001D02*
X31200000Y-12700000D01*
X31200000Y-12700000D02*
X31000000Y-12700000D01*
X33000000Y-14200000D02*
X33200000Y-14200000D01*
X33825001Y-14825001D02*
X33825001Y-17124999D01*
X33200000Y-14200000D02*
X33825001Y-14825001D01*
X33825001Y-17124999D02*
X33100000Y-17850000D01*
X33100000Y-17850000D02*
X33050000Y-17850000D01*
X11944844Y-25910775D02*
X11694069Y-25660000D01*
X11694069Y-25660000D02*
X7500000Y-25660000D01*
X18646401Y-26125012D02*
X15318193Y-26125012D01*
X15318193Y-26125012D02*
X15103956Y-25910775D01*
X15103956Y-25910775D02*
X11944844Y-25910775D01*
X26900000Y-26050000D02*
X18721413Y-26050000D01*
X18721413Y-26050000D02*
X18646401Y-26125012D01*
X18646401Y-26125012D02*
X26900000Y-26050000D01*
X31050000Y-22600000D02*
X30350000Y-22600000D01*
X30350000Y-22600000D02*
X26900000Y-26050000D01*
X10762985Y-26110011D02*
X11507669Y-26110011D01*
X14917556Y-26360786D02*
X15331202Y-26774433D01*
X11758444Y-26360786D02*
X14917556Y-26360786D01*
X11507669Y-26110011D02*
X11758444Y-26360786D01*
X15331202Y-26774433D02*
X21455179Y-26774433D01*
X7500000Y-26930000D02*
X9942996Y-26930000D01*
X9942996Y-26930000D02*
X10762985Y-26110011D01*
X29994904Y-16250000D02*
X29500000Y-16250000D01*
X31000000Y-15244904D02*
X29994904Y-16250000D01*
X31000000Y-14200000D02*
X31000000Y-15244904D01*
X30950000Y-14250000D02*
X31000000Y-14200000D01*
D34*
X16521239Y-30128761D02*
X27971239Y-30128761D01*
X15950000Y-30700000D02*
X16521239Y-30128761D01*
D32*
X15950000Y-30700000D02*
X13350000Y-30700000D01*
X13350000Y-30700000D02*
X12600000Y-31450000D01*
X12600000Y-31450000D02*
X12600000Y-34050000D01*
X12600000Y-34050000D02*
X12350000Y-34300000D01*
D34*
X11100000Y-35550000D02*
X12350000Y-34300000D01*
D32*
X10300000Y-54000000D02*
X11170000Y-54000000D01*
X11170000Y-54000000D02*
X12280000Y-52890000D01*
X10300000Y-54000000D02*
X10560002Y-54000000D01*
X10560002Y-54000000D02*
X10570002Y-53990000D01*
D34*
X31750000Y-34350000D02*
X31750000Y-34000000D01*
X31750000Y-34000000D02*
X32350000Y-33400000D01*
D31*
X24570000Y-53170000D02*
X25140000Y-52600000D01*
X24570000Y-54420000D02*
X24570000Y-53170000D01*
X25140000Y-52600000D02*
X25450000Y-52600000D01*
X24026500Y-55100000D02*
X24026500Y-54963500D01*
X24026500Y-54963500D02*
X24570000Y-54420000D01*
X11100000Y-33000000D02*
X8240000Y-33000000D01*
X8240000Y-33000000D02*
X4369999Y-29129999D01*
X4369999Y-29129999D02*
X4369999Y-27159999D01*
X4369999Y-27159999D02*
X3570000Y-26360000D01*
X1650000Y-25660000D02*
X1791021Y-25660000D01*
X1791021Y-25660000D02*
X2361109Y-26230088D01*
X33799989Y-42100011D02*
X33799989Y-46430464D01*
X34040000Y-41860000D02*
X33799989Y-42100011D01*
X1710000Y-25600000D02*
X1650000Y-25660000D01*
X33970000Y-36120000D02*
X33970000Y-33430000D01*
X34400000Y-33000000D02*
X35500000Y-33000000D01*
X33970000Y-33430000D02*
X34400000Y-33000000D01*
X34889998Y-33150000D02*
X35550000Y-33150000D01*
X15750000Y-24000000D02*
X18800000Y-24000000D01*
X18800000Y-24000000D02*
X19600000Y-23200000D01*
X19600000Y-23200000D02*
X19600000Y-23000000D01*
X19550000Y-23050000D02*
X19600000Y-23000000D01*
X15650000Y-20000000D02*
X18750000Y-20000000D01*
X18750000Y-20000000D02*
X19600000Y-19150000D01*
X19600000Y-19150000D02*
X19600000Y-18950000D01*
X15650000Y-20000000D02*
X15700000Y-20000000D01*
X15650000Y-16200000D02*
X15650000Y-15550000D01*
X15650000Y-15550000D02*
X16675001Y-14524999D01*
X16675001Y-14524999D02*
X18624999Y-14524999D01*
X18624999Y-14524999D02*
X19350000Y-15250000D01*
X19350000Y-15250000D02*
X19600000Y-15500000D01*
D35*
G36*
X796108Y-30380760D02*
X782367Y-30401325D01*
X758970Y-30518949D01*
X738650Y-30567885D01*
X738603Y-30621338D01*
X715000Y-30740000D01*
X715000Y-39119995D01*
X714999Y-39120000D01*
X757766Y-39335000D01*
X782367Y-39458675D01*
X946395Y-39704161D01*
X974210Y-39745790D01*
X9241911Y-48013490D01*
X9064683Y-48046838D01*
X8848559Y-48185910D01*
X8703569Y-48398110D01*
X8652560Y-48650000D01*
X8652560Y-50150000D01*
X8696838Y-50385317D01*
X8802482Y-50549492D01*
X8761673Y-50590301D01*
X8665000Y-50823690D01*
X8665000Y-51414250D01*
X8823750Y-51573000D01*
X10173000Y-51573000D01*
X10173000Y-51553000D01*
X10427000Y-51553000D01*
X10427000Y-51573000D01*
X11776250Y-51573000D01*
X11935000Y-51414250D01*
X11935000Y-50823690D01*
X11838327Y-50590301D01*
X11796366Y-50548340D01*
X11896431Y-50401890D01*
X11939890Y-50187283D01*
X12019541Y-50171439D01*
X12290434Y-49990434D01*
X12305868Y-49975000D01*
X14965000Y-49975000D01*
X14965000Y-51414250D01*
X15123750Y-51573000D01*
X16473000Y-51573000D01*
X16473000Y-51553000D01*
X16727000Y-51553000D01*
X16727000Y-51573000D01*
X16747000Y-51573000D01*
X16747000Y-51827000D01*
X16727000Y-51827000D01*
X16727000Y-54076250D01*
X16885750Y-54235000D01*
X17726309Y-54235000D01*
X17959698Y-54138327D01*
X18138327Y-53959699D01*
X18235000Y-53726310D01*
X18235000Y-52405868D01*
X18655000Y-52825868D01*
X18655000Y-53287016D01*
X18626173Y-53330159D01*
X18555000Y-53687968D01*
X18555000Y-55152032D01*
X18567127Y-55213000D01*
X11752186Y-55213000D01*
X11896431Y-55001890D01*
X11947440Y-54750000D01*
X11947440Y-54474140D01*
X12905789Y-53515790D01*
X13097633Y-53228674D01*
X13165001Y-52890000D01*
X13097633Y-52551326D01*
X12905789Y-52264211D01*
X12618674Y-52072367D01*
X12280000Y-52004999D01*
X11941326Y-52072367D01*
X11935000Y-52076594D01*
X11935000Y-51985750D01*
X14965000Y-51985750D01*
X14965000Y-53726310D01*
X15061673Y-53959699D01*
X15240302Y-54138327D01*
X15473691Y-54235000D01*
X16314250Y-54235000D01*
X16473000Y-54076250D01*
X16473000Y-51827000D01*
X15123750Y-51827000D01*
X14965000Y-51985750D01*
X11935000Y-51985750D01*
X11776250Y-51827000D01*
X10427000Y-51827000D01*
X10427000Y-51847000D01*
X10173000Y-51847000D01*
X10173000Y-51827000D01*
X8823750Y-51827000D01*
X8665000Y-51985750D01*
X8665000Y-52576310D01*
X8761673Y-52809699D01*
X8803634Y-52851660D01*
X8703569Y-52998110D01*
X8652560Y-53250000D01*
X8652560Y-54750000D01*
X8696838Y-54985317D01*
X8835910Y-55201441D01*
X8852827Y-55213000D01*
X756630Y-55213000D01*
X748358Y-52372325D01*
X2314587Y-52372325D01*
X2676916Y-53249229D01*
X3347242Y-53920726D01*
X4223513Y-54284585D01*
X5172325Y-54285413D01*
X6049229Y-53923084D01*
X6720726Y-53252758D01*
X7084585Y-52376487D01*
X7085413Y-51427675D01*
X6723084Y-50550771D01*
X6052758Y-49879274D01*
X5176487Y-49515415D01*
X4227675Y-49514587D01*
X3350771Y-49876916D01*
X2679274Y-50547242D01*
X2315415Y-51423513D01*
X2314587Y-52372325D01*
X748358Y-52372325D01*
X710000Y-39200947D01*
X710000Y-30363632D01*
X796108Y-30380760D01*
X796108Y-30380760D01*
G37*
X796108Y-30380760D02*
X782367Y-30401325D01*
X758970Y-30518949D01*
X738650Y-30567885D01*
X738603Y-30621338D01*
X715000Y-30740000D01*
X715000Y-39119995D01*
X714999Y-39120000D01*
X757766Y-39335000D01*
X782367Y-39458675D01*
X946395Y-39704161D01*
X974210Y-39745790D01*
X9241911Y-48013490D01*
X9064683Y-48046838D01*
X8848559Y-48185910D01*
X8703569Y-48398110D01*
X8652560Y-48650000D01*
X8652560Y-50150000D01*
X8696838Y-50385317D01*
X8802482Y-50549492D01*
X8761673Y-50590301D01*
X8665000Y-50823690D01*
X8665000Y-51414250D01*
X8823750Y-51573000D01*
X10173000Y-51573000D01*
X10173000Y-51553000D01*
X10427000Y-51553000D01*
X10427000Y-51573000D01*
X11776250Y-51573000D01*
X11935000Y-51414250D01*
X11935000Y-50823690D01*
X11838327Y-50590301D01*
X11796366Y-50548340D01*
X11896431Y-50401890D01*
X11939890Y-50187283D01*
X12019541Y-50171439D01*
X12290434Y-49990434D01*
X12305868Y-49975000D01*
X14965000Y-49975000D01*
X14965000Y-51414250D01*
X15123750Y-51573000D01*
X16473000Y-51573000D01*
X16473000Y-51553000D01*
X16727000Y-51553000D01*
X16727000Y-51573000D01*
X16747000Y-51573000D01*
X16747000Y-51827000D01*
X16727000Y-51827000D01*
X16727000Y-54076250D01*
X16885750Y-54235000D01*
X17726309Y-54235000D01*
X17959698Y-54138327D01*
X18138327Y-53959699D01*
X18235000Y-53726310D01*
X18235000Y-52405868D01*
X18655000Y-52825868D01*
X18655000Y-53287016D01*
X18626173Y-53330159D01*
X18555000Y-53687968D01*
X18555000Y-55152032D01*
X18567127Y-55213000D01*
X11752186Y-55213000D01*
X11896431Y-55001890D01*
X11947440Y-54750000D01*
X11947440Y-54474140D01*
X12905789Y-53515790D01*
X13097633Y-53228674D01*
X13165001Y-52890000D01*
X13097633Y-52551326D01*
X12905789Y-52264211D01*
X12618674Y-52072367D01*
X12280000Y-52004999D01*
X11941326Y-52072367D01*
X11935000Y-52076594D01*
X11935000Y-51985750D01*
X14965000Y-51985750D01*
X14965000Y-53726310D01*
X15061673Y-53959699D01*
X15240302Y-54138327D01*
X15473691Y-54235000D01*
X16314250Y-54235000D01*
X16473000Y-54076250D01*
X16473000Y-51827000D01*
X15123750Y-51827000D01*
X14965000Y-51985750D01*
X11935000Y-51985750D01*
X11776250Y-51827000D01*
X10427000Y-51827000D01*
X10427000Y-51847000D01*
X10173000Y-51847000D01*
X10173000Y-51827000D01*
X8823750Y-51827000D01*
X8665000Y-51985750D01*
X8665000Y-52576310D01*
X8761673Y-52809699D01*
X8803634Y-52851660D01*
X8703569Y-52998110D01*
X8652560Y-53250000D01*
X8652560Y-54750000D01*
X8696838Y-54985317D01*
X8835910Y-55201441D01*
X8852827Y-55213000D01*
X756630Y-55213000D01*
X748358Y-52372325D01*
X2314587Y-52372325D01*
X2676916Y-53249229D01*
X3347242Y-53920726D01*
X4223513Y-54284585D01*
X5172325Y-54285413D01*
X6049229Y-53923084D01*
X6720726Y-53252758D01*
X7084585Y-52376487D01*
X7085413Y-51427675D01*
X6723084Y-50550771D01*
X6052758Y-49879274D01*
X5176487Y-49515415D01*
X4227675Y-49514587D01*
X3350771Y-49876916D01*
X2679274Y-50547242D01*
X2315415Y-51423513D01*
X2314587Y-52372325D01*
X748358Y-52372325D01*
X710000Y-39200947D01*
X710000Y-30363632D01*
X796108Y-30380760D01*
G36*
X30600000Y-23497440D02*
X31065001Y-23497440D01*
X31065001Y-23575001D01*
X31122853Y-23865840D01*
X31287600Y-24112402D01*
X31362974Y-24187776D01*
X31277000Y-24273750D01*
X31277000Y-25023000D01*
X32076250Y-25023000D01*
X32162262Y-24936988D01*
X32235910Y-25051441D01*
X32381083Y-25150633D01*
X32248559Y-25235910D01*
X32161936Y-25362686D01*
X32076250Y-25277000D01*
X31277000Y-25277000D01*
X31277000Y-26026250D01*
X31435750Y-26185000D01*
X31726309Y-26185000D01*
X31959698Y-26088327D01*
X32052560Y-25995466D01*
X32052560Y-26500000D01*
X32096838Y-26735317D01*
X32235910Y-26951441D01*
X32448110Y-27096431D01*
X32700000Y-27147440D01*
X33600000Y-27147440D01*
X33835317Y-27103162D01*
X33981449Y-27009128D01*
X34014990Y-27090303D01*
X34407630Y-27483629D01*
X34920900Y-27696757D01*
X35476661Y-27697242D01*
X35990303Y-27485010D01*
X36290000Y-27185836D01*
X36290000Y-31502560D01*
X34650000Y-31502560D01*
X34414683Y-31546838D01*
X34198559Y-31685910D01*
X34053569Y-31898110D01*
X34002560Y-32150000D01*
X34002560Y-32369080D01*
X33862599Y-32462599D01*
X33432599Y-32892599D01*
X33267852Y-33139161D01*
X33210000Y-33430000D01*
X33210000Y-35772909D01*
X33145617Y-35927959D01*
X33014090Y-35723559D01*
X32801890Y-35578569D01*
X32550000Y-35527560D01*
X32050000Y-35527560D01*
X31814683Y-35571838D01*
X31598559Y-35710910D01*
X31550866Y-35780711D01*
X31514090Y-35723559D01*
X31301890Y-35578569D01*
X31050000Y-35527560D01*
X30550000Y-35527560D01*
X30314683Y-35571838D01*
X30098559Y-35710910D01*
X29953569Y-35923110D01*
X29902560Y-36175000D01*
X29902560Y-37075000D01*
X29946838Y-37310317D01*
X30075070Y-37509594D01*
X30074855Y-37755363D01*
X30122033Y-37869542D01*
X29899746Y-37913758D01*
X29701890Y-37778569D01*
X29634857Y-37764994D01*
X29635145Y-37434637D01*
X29508292Y-37127628D01*
X29273607Y-36892534D01*
X28966821Y-36765145D01*
X28634637Y-36764855D01*
X28327628Y-36891708D01*
X28092534Y-37126393D01*
X27965145Y-37433179D01*
X27964855Y-37765363D01*
X28040000Y-37947229D01*
X28040000Y-37996614D01*
X27953569Y-38123110D01*
X27902560Y-38375000D01*
X27902560Y-38600000D01*
X26847440Y-38600000D01*
X26847440Y-38025000D01*
X26803162Y-37789683D01*
X26664090Y-37573559D01*
X26510000Y-37468274D01*
X26510000Y-36975000D01*
X26452148Y-36684161D01*
X26297440Y-36452623D01*
X26297440Y-36175000D01*
X26261689Y-35985000D01*
X26326309Y-35985000D01*
X26559698Y-35888327D01*
X26738327Y-35709699D01*
X26835000Y-35476310D01*
X26835000Y-35235750D01*
X26676250Y-35077000D01*
X25877000Y-35077000D01*
X25877000Y-35097000D01*
X25623000Y-35097000D01*
X25623000Y-35077000D01*
X24823750Y-35077000D01*
X24665000Y-35235750D01*
X24665000Y-35476310D01*
X24748787Y-35678589D01*
X24698559Y-35710910D01*
X24650866Y-35780711D01*
X24614090Y-35723559D01*
X24401890Y-35578569D01*
X24150000Y-35527560D01*
X23650000Y-35527560D01*
X23414683Y-35571838D01*
X23198559Y-35710910D01*
X23053569Y-35923110D01*
X23002560Y-36175000D01*
X23002560Y-36764471D01*
X22893540Y-36655451D01*
X22646978Y-36490704D01*
X22356139Y-36432852D01*
X21407654Y-36432852D01*
X20137401Y-35162599D01*
X19890839Y-34997852D01*
X19600000Y-34940000D01*
X17750000Y-34940000D01*
X17459161Y-34997852D01*
X17212599Y-35162599D01*
X16912599Y-35462599D01*
X16869194Y-35527560D01*
X16500000Y-35527560D01*
X16264683Y-35571838D01*
X16048559Y-35710910D01*
X15981867Y-35808517D01*
X15835704Y-35808389D01*
X15528695Y-35935242D01*
X15293601Y-36169927D01*
X15166212Y-36476713D01*
X15165922Y-36808897D01*
X15292775Y-37115906D01*
X15527460Y-37351000D01*
X15727965Y-37434257D01*
X15636009Y-37655712D01*
X15635905Y-37775332D01*
X15551276Y-37758194D01*
X15487401Y-37662599D01*
X14827822Y-37003020D01*
X14753282Y-36822618D01*
X14518597Y-36587524D01*
X14211811Y-36460135D01*
X13879627Y-36459845D01*
X13572618Y-36586698D01*
X13337524Y-36821383D01*
X13210135Y-37128169D01*
X13209845Y-37460353D01*
X13336698Y-37767362D01*
X13571383Y-38002456D01*
X13753117Y-38077919D01*
X13885843Y-38210645D01*
X13852560Y-38375000D01*
X13852560Y-38875000D01*
X13896838Y-39110317D01*
X14035910Y-39326441D01*
X14105711Y-39374134D01*
X14048559Y-39410910D01*
X13903569Y-39623110D01*
X13852560Y-39875000D01*
X13852560Y-40375000D01*
X13896838Y-40610317D01*
X14035910Y-40826441D01*
X14248110Y-40971431D01*
X14500000Y-41022440D01*
X15400000Y-41022440D01*
X15635317Y-40978162D01*
X15851441Y-40839090D01*
X15996431Y-40626890D01*
X16047440Y-40375000D01*
X16047440Y-40370973D01*
X16048110Y-40371431D01*
X16300000Y-40422440D01*
X17200000Y-40422440D01*
X17435317Y-40378162D01*
X17651441Y-40239090D01*
X17738064Y-40112314D01*
X17823750Y-40198000D01*
X18623000Y-40198000D01*
X18623000Y-40178000D01*
X18877000Y-40178000D01*
X18877000Y-40198000D01*
X19676250Y-40198000D01*
X19835000Y-40039250D01*
X19835000Y-39798690D01*
X19738327Y-39565301D01*
X19559698Y-39386673D01*
X19523253Y-39371577D01*
X19651441Y-39289090D01*
X19796431Y-39076890D01*
X19847440Y-38825000D01*
X19847440Y-38025000D01*
X19803162Y-37789683D01*
X19664090Y-37573559D01*
X19510000Y-37468274D01*
X19510000Y-37125000D01*
X19452148Y-36834161D01*
X19287401Y-36587599D01*
X19159802Y-36460000D01*
X19285198Y-36460000D01*
X20555451Y-37730253D01*
X20802013Y-37895000D01*
X21092852Y-37952852D01*
X21169901Y-37952852D01*
X21053569Y-38123110D01*
X21002560Y-38375000D01*
X21002560Y-38875000D01*
X21046838Y-39110317D01*
X21185910Y-39326441D01*
X21255711Y-39374134D01*
X21198559Y-39410910D01*
X21053569Y-39623110D01*
X21002560Y-39875000D01*
X21002560Y-40375000D01*
X21046838Y-40610317D01*
X21185910Y-40826441D01*
X21398110Y-40971431D01*
X21650000Y-41022440D01*
X22550000Y-41022440D01*
X22785317Y-40978162D01*
X23001441Y-40839090D01*
X23146431Y-40626890D01*
X23192252Y-40400620D01*
X23300000Y-40422440D01*
X24200000Y-40422440D01*
X24435317Y-40378162D01*
X24651441Y-40239090D01*
X24738064Y-40112314D01*
X24823750Y-40198000D01*
X25623000Y-40198000D01*
X25623000Y-40178000D01*
X25877000Y-40178000D01*
X25877000Y-40198000D01*
X26676250Y-40198000D01*
X26754250Y-40120000D01*
X27902560Y-40120000D01*
X27902560Y-40375000D01*
X27946838Y-40610317D01*
X28085910Y-40826441D01*
X28298110Y-40971431D01*
X28550000Y-41022440D01*
X29450000Y-41022440D01*
X29685317Y-40978162D01*
X29901441Y-40839090D01*
X29967846Y-40741904D01*
X30192840Y-40697149D01*
X30439402Y-40532402D01*
X30549364Y-40422440D01*
X31250000Y-40422440D01*
X31485317Y-40378162D01*
X31701441Y-40239090D01*
X31788064Y-40112314D01*
X31873750Y-40198000D01*
X32673000Y-40198000D01*
X32673000Y-40178000D01*
X32927000Y-40178000D01*
X32927000Y-40198000D01*
X33726250Y-40198000D01*
X33885000Y-40039250D01*
X33885000Y-39939999D01*
X34192353Y-39939999D01*
X34058524Y-40263110D01*
X34179845Y-40493000D01*
X35373000Y-40493000D01*
X35373000Y-40473000D01*
X35627000Y-40473000D01*
X35627000Y-40493000D01*
X35647000Y-40493000D01*
X35647000Y-40747000D01*
X35627000Y-40747000D01*
X35627000Y-40767000D01*
X35373000Y-40767000D01*
X35373000Y-40747000D01*
X34179845Y-40747000D01*
X34058524Y-40976890D01*
X34078464Y-41025033D01*
X33874637Y-41024855D01*
X33800412Y-41055524D01*
X33885000Y-40851310D01*
X33885000Y-40610750D01*
X33726250Y-40452000D01*
X32927000Y-40452000D01*
X32927000Y-40472000D01*
X32673000Y-40472000D01*
X32673000Y-40452000D01*
X31873750Y-40452000D01*
X31715000Y-40610750D01*
X31715000Y-40851310D01*
X31811673Y-41084699D01*
X31883333Y-41156359D01*
X31798559Y-41210910D01*
X31750866Y-41280711D01*
X31714090Y-41223559D01*
X31501890Y-41078569D01*
X31250000Y-41027560D01*
X30750000Y-41027560D01*
X30514683Y-41071838D01*
X30298559Y-41210910D01*
X30153569Y-41423110D01*
X30144930Y-41465770D01*
X29962599Y-41587599D01*
X29382599Y-42167599D01*
X29217852Y-42414161D01*
X29160000Y-42705000D01*
X29160000Y-43452560D01*
X28550000Y-43452560D01*
X28314683Y-43496838D01*
X28247607Y-43540000D01*
X28197091Y-43540000D01*
X28016821Y-43465145D01*
X27684637Y-43464855D01*
X27377628Y-43591708D01*
X27142534Y-43826393D01*
X27015145Y-44133179D01*
X27014855Y-44465363D01*
X27141708Y-44772372D01*
X27376393Y-45007466D01*
X27683179Y-45134855D01*
X28015363Y-45135145D01*
X28135665Y-45085437D01*
X28155711Y-45099134D01*
X28098559Y-45135910D01*
X27953569Y-45348110D01*
X27902560Y-45600000D01*
X27902560Y-46100000D01*
X27946838Y-46335317D01*
X28085910Y-46551441D01*
X28298110Y-46696431D01*
X28550000Y-46747440D01*
X29450000Y-46747440D01*
X29685317Y-46703162D01*
X29901441Y-46564090D01*
X30046431Y-46351890D01*
X30095263Y-46110750D01*
X31715000Y-46110750D01*
X31715000Y-46351310D01*
X31811673Y-46584699D01*
X31990302Y-46763327D01*
X32223691Y-46860000D01*
X32514250Y-46860000D01*
X32673000Y-46701250D01*
X32673000Y-45952000D01*
X31873750Y-45952000D01*
X31715000Y-46110750D01*
X30095263Y-46110750D01*
X30097440Y-46100000D01*
X30097440Y-45927362D01*
X30144065Y-45880737D01*
X30350000Y-45922440D01*
X31250000Y-45922440D01*
X31485317Y-45878162D01*
X31701441Y-45739090D01*
X31788064Y-45612314D01*
X31873750Y-45698000D01*
X32673000Y-45698000D01*
X32673000Y-45678000D01*
X32927000Y-45678000D01*
X32927000Y-45698000D01*
X32947000Y-45698000D01*
X32947000Y-45952000D01*
X32927000Y-45952000D01*
X32927000Y-46701250D01*
X33065722Y-46839972D01*
X33091697Y-46902836D01*
X33326382Y-47137930D01*
X33404894Y-47170531D01*
X33404855Y-47215363D01*
X33531708Y-47522372D01*
X33766393Y-47757466D01*
X34073179Y-47884855D01*
X34405363Y-47885145D01*
X34712372Y-47758292D01*
X34947466Y-47523607D01*
X35074855Y-47216821D01*
X35074952Y-47106240D01*
X35470907Y-47185000D01*
X35529093Y-47185000D01*
X36097378Y-47071961D01*
X36290000Y-46943255D01*
X36290000Y-55213000D01*
X29302873Y-55213000D01*
X29315000Y-55152032D01*
X29315000Y-53687968D01*
X29243827Y-53330159D01*
X29041145Y-53026823D01*
X28737809Y-52824141D01*
X28514530Y-52779728D01*
X28107127Y-52372325D01*
X30644587Y-52372325D01*
X31006916Y-53249229D01*
X31677242Y-53920726D01*
X32553513Y-54284585D01*
X33502325Y-54285413D01*
X34379229Y-53923084D01*
X35050726Y-53252758D01*
X35414585Y-52376487D01*
X35415413Y-51427675D01*
X35053084Y-50550771D01*
X34382758Y-49879274D01*
X33506487Y-49515415D01*
X32557675Y-49514587D01*
X31680771Y-49876916D01*
X31009274Y-50547242D01*
X30645415Y-51423513D01*
X30644587Y-52372325D01*
X28107127Y-52372325D01*
X25967401Y-50232599D01*
X25943287Y-50216487D01*
X26197809Y-50165859D01*
X26475000Y-49980646D01*
X26752191Y-50165859D01*
X27110000Y-50237032D01*
X27467809Y-50165859D01*
X27762613Y-49968878D01*
X27808657Y-50020948D01*
X28109653Y-50165063D01*
X28253000Y-50035790D01*
X28253000Y-48697000D01*
X28507000Y-48697000D01*
X28507000Y-50035790D01*
X28650347Y-50165063D01*
X28951343Y-50020948D01*
X29195227Y-49745142D01*
X29315000Y-49397000D01*
X29315000Y-48697000D01*
X28507000Y-48697000D01*
X28253000Y-48697000D01*
X28233000Y-48697000D01*
X28233000Y-48443000D01*
X28253000Y-48443000D01*
X28253000Y-47104210D01*
X28507000Y-47104210D01*
X28507000Y-48443000D01*
X29315000Y-48443000D01*
X29315000Y-47743000D01*
X29195227Y-47394858D01*
X28951343Y-47119052D01*
X28650347Y-46974937D01*
X28507000Y-47104210D01*
X28253000Y-47104210D01*
X28109653Y-46974937D01*
X27982565Y-47035786D01*
X27888292Y-46807628D01*
X27653607Y-46572534D01*
X27346821Y-46445145D01*
X27014637Y-46444855D01*
X26788639Y-46538235D01*
X26835000Y-46426310D01*
X26835000Y-46185750D01*
X26676250Y-46027000D01*
X25877000Y-46027000D01*
X25877000Y-46047000D01*
X25623000Y-46047000D01*
X25623000Y-46027000D01*
X24823750Y-46027000D01*
X24665000Y-46185750D01*
X24665000Y-46318662D01*
X24657628Y-46321708D01*
X24422534Y-46556393D01*
X24396720Y-46618560D01*
X24306423Y-46581065D01*
X23974239Y-46580775D01*
X23667230Y-46707628D01*
X23593503Y-46781227D01*
X23574853Y-46762544D01*
X23268067Y-46635155D01*
X22935883Y-46634865D01*
X22718282Y-46724776D01*
X22851441Y-46639090D01*
X22996431Y-46426890D01*
X23047440Y-46175000D01*
X23047440Y-46002362D01*
X23094065Y-45955737D01*
X23300000Y-45997440D01*
X24200000Y-45997440D01*
X24435317Y-45953162D01*
X24651441Y-45814090D01*
X24738064Y-45687314D01*
X24823750Y-45773000D01*
X25623000Y-45773000D01*
X25623000Y-45753000D01*
X25877000Y-45753000D01*
X25877000Y-45773000D01*
X26676250Y-45773000D01*
X26835000Y-45614250D01*
X26835000Y-45373690D01*
X26738327Y-45140301D01*
X26559698Y-44961673D01*
X26523253Y-44946577D01*
X26651441Y-44864090D01*
X26796431Y-44651890D01*
X26847440Y-44400000D01*
X26847440Y-43600000D01*
X26803162Y-43364683D01*
X26664090Y-43148559D01*
X26510000Y-43043274D01*
X26510000Y-42775000D01*
X26452148Y-42484161D01*
X26347440Y-42327454D01*
X26347440Y-41825000D01*
X26303162Y-41589683D01*
X26164090Y-41373559D01*
X26144246Y-41360000D01*
X26326309Y-41360000D01*
X26559698Y-41263327D01*
X26738327Y-41084699D01*
X26835000Y-40851310D01*
X26835000Y-40610750D01*
X26676250Y-40452000D01*
X25877000Y-40452000D01*
X25877000Y-40472000D01*
X25623000Y-40472000D01*
X25623000Y-40452000D01*
X24823750Y-40452000D01*
X24665000Y-40610750D01*
X24665000Y-40851310D01*
X24761673Y-41084699D01*
X24924603Y-41247629D01*
X24748559Y-41360910D01*
X24700866Y-41430711D01*
X24664090Y-41373559D01*
X24451890Y-41228569D01*
X24200000Y-41177560D01*
X23700000Y-41177560D01*
X23464683Y-41221838D01*
X23365785Y-41285477D01*
X23316821Y-41265145D01*
X22984637Y-41264855D01*
X22677628Y-41391708D01*
X22442534Y-41626393D01*
X22367071Y-41808127D01*
X22287608Y-41887590D01*
X22122861Y-42134152D01*
X22065009Y-42424991D01*
X22065009Y-42976929D01*
X21514378Y-43527560D01*
X21500000Y-43527560D01*
X21264683Y-43571838D01*
X21048559Y-43710910D01*
X20903569Y-43923110D01*
X20852560Y-44175000D01*
X20852560Y-44675000D01*
X20896838Y-44910317D01*
X21035910Y-45126441D01*
X21105711Y-45174134D01*
X21048559Y-45210910D01*
X20903569Y-45423110D01*
X20852560Y-45675000D01*
X20852560Y-46175000D01*
X20896838Y-46410317D01*
X21035910Y-46626441D01*
X21197617Y-46736931D01*
X21137628Y-46761718D01*
X20956898Y-46942134D01*
X20788426Y-46908622D01*
X20587402Y-46707598D01*
X20340840Y-46542851D01*
X20050001Y-46484999D01*
X19810690Y-46484999D01*
X19835000Y-46426310D01*
X19835000Y-46185750D01*
X19676250Y-46027000D01*
X18877000Y-46027000D01*
X18877000Y-46047000D01*
X18623000Y-46047000D01*
X18623000Y-46027000D01*
X17823750Y-46027000D01*
X17665000Y-46185750D01*
X17665000Y-46426310D01*
X17699125Y-46508694D01*
X17667628Y-46521708D01*
X17451881Y-46737079D01*
X17447401Y-46732599D01*
X17200839Y-46567852D01*
X16910000Y-46510000D01*
X15939644Y-46510000D01*
X15996431Y-46426890D01*
X16047440Y-46175000D01*
X16047440Y-46002362D01*
X16094065Y-45955737D01*
X16300000Y-45997440D01*
X17200000Y-45997440D01*
X17435317Y-45953162D01*
X17651441Y-45814090D01*
X17738064Y-45687314D01*
X17823750Y-45773000D01*
X18623000Y-45773000D01*
X18623000Y-45753000D01*
X18877000Y-45753000D01*
X18877000Y-45773000D01*
X19676250Y-45773000D01*
X19835000Y-45614250D01*
X19835000Y-45373690D01*
X19738327Y-45140301D01*
X19559698Y-44961673D01*
X19523253Y-44946577D01*
X19651441Y-44864090D01*
X19796431Y-44651890D01*
X19847440Y-44400000D01*
X19847440Y-43600000D01*
X19803162Y-43364683D01*
X19664090Y-43148559D01*
X19510000Y-43043274D01*
X19510000Y-42750000D01*
X19452148Y-42459161D01*
X19347440Y-42302454D01*
X19347440Y-41800000D01*
X19303162Y-41564683D01*
X19171452Y-41360000D01*
X19326309Y-41360000D01*
X19559698Y-41263327D01*
X19738327Y-41084699D01*
X19835000Y-40851310D01*
X19835000Y-40610750D01*
X19676250Y-40452000D01*
X18877000Y-40452000D01*
X18877000Y-40472000D01*
X18623000Y-40472000D01*
X18623000Y-40452000D01*
X17823750Y-40452000D01*
X17665000Y-40610750D01*
X17665000Y-40851310D01*
X17761673Y-41084699D01*
X17909392Y-41232417D01*
X17748559Y-41335910D01*
X17700866Y-41405711D01*
X17664090Y-41348559D01*
X17451890Y-41203569D01*
X17200000Y-41152560D01*
X16700000Y-41152560D01*
X16464683Y-41196838D01*
X16248559Y-41335910D01*
X16103569Y-41548110D01*
X16052560Y-41800000D01*
X16052560Y-42700000D01*
X16096838Y-42935317D01*
X16132663Y-42990991D01*
X16115145Y-43033179D01*
X16115030Y-43165000D01*
X15650000Y-43165000D01*
X15359161Y-43222852D01*
X15112599Y-43387599D01*
X14972638Y-43527560D01*
X14500000Y-43527560D01*
X14264683Y-43571838D01*
X14048559Y-43710910D01*
X13903569Y-43923110D01*
X13852560Y-44175000D01*
X13852560Y-44675000D01*
X13896838Y-44910317D01*
X14035910Y-45126441D01*
X14105711Y-45174134D01*
X14048559Y-45210910D01*
X14039284Y-45224484D01*
X13660000Y-44845200D01*
X13660000Y-42750000D01*
X13602148Y-42459161D01*
X13437401Y-42212599D01*
X12587401Y-41362599D01*
X12426304Y-41254958D01*
X12541476Y-40976890D01*
X12420155Y-40747000D01*
X11227000Y-40747000D01*
X11227000Y-40767000D01*
X10973000Y-40767000D01*
X10973000Y-40747000D01*
X10953000Y-40747000D01*
X10953000Y-40493000D01*
X10973000Y-40493000D01*
X10973000Y-40473000D01*
X11227000Y-40473000D01*
X11227000Y-40493000D01*
X12420155Y-40493000D01*
X12541476Y-40263110D01*
X12371645Y-39853076D01*
X11981358Y-39424817D01*
X11838447Y-39357702D01*
X12179147Y-39130054D01*
X12501054Y-38648285D01*
X12614093Y-38080000D01*
X12501054Y-37511715D01*
X12179147Y-37029946D01*
X11849974Y-36810000D01*
X12179147Y-36590054D01*
X12501054Y-36108285D01*
X12614093Y-35540000D01*
X12560466Y-35270402D01*
X12762691Y-35068177D01*
X12975790Y-34925790D01*
X13225787Y-34675792D01*
X13225790Y-34675790D01*
X13417633Y-34388675D01*
X13485000Y-34050000D01*
X13485000Y-31816580D01*
X13716579Y-31585000D01*
X15950000Y-31585000D01*
X16073345Y-31560465D01*
X16096838Y-31685317D01*
X16170624Y-31799984D01*
X16165145Y-31813179D01*
X16164855Y-32145363D01*
X16291708Y-32452372D01*
X16526393Y-32687466D01*
X16833179Y-32814855D01*
X17165363Y-32815145D01*
X17472372Y-32688292D01*
X17565000Y-32595825D01*
X17565000Y-32749995D01*
X17564999Y-32750000D01*
X17605292Y-32952560D01*
X17632367Y-33088675D01*
X17652560Y-33118896D01*
X17652560Y-33140681D01*
X17451890Y-33003569D01*
X17200000Y-32952560D01*
X16300000Y-32952560D01*
X16064683Y-32996838D01*
X16023595Y-33023277D01*
X16003162Y-32914683D01*
X15864090Y-32698559D01*
X15696942Y-32584351D01*
X15693092Y-32565000D01*
X15685023Y-32524433D01*
X15685145Y-32384637D01*
X15558292Y-32077628D01*
X15323607Y-31842534D01*
X15016821Y-31715145D01*
X14684637Y-31714855D01*
X14377628Y-31841708D01*
X14142534Y-32076393D01*
X14015145Y-32383179D01*
X14014855Y-32715363D01*
X14019972Y-32727748D01*
X13903569Y-32898110D01*
X13852560Y-33150000D01*
X13852560Y-33650000D01*
X13896838Y-33885317D01*
X14035910Y-34101441D01*
X14105711Y-34149134D01*
X14048559Y-34185910D01*
X13903569Y-34398110D01*
X13852560Y-34650000D01*
X13852560Y-35150000D01*
X13896838Y-35385317D01*
X14035910Y-35601441D01*
X14248110Y-35746431D01*
X14500000Y-35797440D01*
X15400000Y-35797440D01*
X15635317Y-35753162D01*
X15851441Y-35614090D01*
X15996431Y-35401890D01*
X16047440Y-35150000D01*
X16047440Y-34995973D01*
X16048110Y-34996431D01*
X16300000Y-35047440D01*
X17200000Y-35047440D01*
X17435317Y-35003162D01*
X17651441Y-34864090D01*
X17738064Y-34737314D01*
X17823750Y-34823000D01*
X18623000Y-34823000D01*
X18623000Y-34803000D01*
X18877000Y-34803000D01*
X18877000Y-34823000D01*
X19676250Y-34823000D01*
X19835000Y-34664250D01*
X19835000Y-34423690D01*
X19738327Y-34190301D01*
X19559698Y-34011673D01*
X19523253Y-33996577D01*
X19651441Y-33914090D01*
X19796431Y-33701890D01*
X19847440Y-33450000D01*
X19847440Y-32650000D01*
X19803162Y-32414683D01*
X19664090Y-32198559D01*
X19451890Y-32053569D01*
X19335000Y-32029898D01*
X19335000Y-31511431D01*
X19347440Y-31450000D01*
X19347440Y-30963761D01*
X22414209Y-30963761D01*
X22370774Y-30981708D01*
X22135680Y-31216393D01*
X22008291Y-31523179D01*
X22008065Y-31782271D01*
X21966821Y-31765145D01*
X21634637Y-31764855D01*
X21327628Y-31891708D01*
X21092534Y-32126393D01*
X20965145Y-32433179D01*
X20964855Y-32765363D01*
X20975940Y-32792191D01*
X20903569Y-32898110D01*
X20852560Y-33150000D01*
X20852560Y-33650000D01*
X20896838Y-33885317D01*
X21035910Y-34101441D01*
X21105711Y-34149134D01*
X21048559Y-34185910D01*
X20903569Y-34398110D01*
X20852560Y-34650000D01*
X20852560Y-35150000D01*
X20896838Y-35385317D01*
X21035910Y-35601441D01*
X21248110Y-35746431D01*
X21500000Y-35797440D01*
X22400000Y-35797440D01*
X22635317Y-35753162D01*
X22851441Y-35614090D01*
X22996431Y-35401890D01*
X23047440Y-35150000D01*
X23047440Y-34995973D01*
X23048110Y-34996431D01*
X23300000Y-35047440D01*
X24200000Y-35047440D01*
X24435317Y-35003162D01*
X24651441Y-34864090D01*
X24738064Y-34737314D01*
X24823750Y-34823000D01*
X25623000Y-34823000D01*
X25623000Y-34803000D01*
X25877000Y-34803000D01*
X25877000Y-34823000D01*
X26676250Y-34823000D01*
X26835000Y-34664250D01*
X26835000Y-34635750D01*
X29215000Y-34635750D01*
X29215000Y-34851310D01*
X29311673Y-35084699D01*
X29490302Y-35263327D01*
X29723691Y-35360000D01*
X29964250Y-35360000D01*
X30123000Y-35201250D01*
X30123000Y-34477000D01*
X29373750Y-34477000D01*
X29215000Y-34635750D01*
X26835000Y-34635750D01*
X26835000Y-34423690D01*
X26738327Y-34190301D01*
X26559698Y-34011673D01*
X26523253Y-33996577D01*
X26651441Y-33914090D01*
X26696126Y-33848690D01*
X29215000Y-33848690D01*
X29215000Y-34064250D01*
X29373750Y-34223000D01*
X30123000Y-34223000D01*
X30123000Y-33498750D01*
X29964250Y-33340000D01*
X29723691Y-33340000D01*
X29490302Y-33436673D01*
X29311673Y-33615301D01*
X29215000Y-33848690D01*
X26696126Y-33848690D01*
X26796431Y-33701890D01*
X26847440Y-33450000D01*
X26847440Y-32650000D01*
X26803162Y-32414683D01*
X26664090Y-32198559D01*
X26635000Y-32178683D01*
X26635000Y-31150005D01*
X26635001Y-31150000D01*
X26597955Y-30963761D01*
X27970510Y-30963761D01*
X28136602Y-30963906D01*
X28443611Y-30837053D01*
X28653113Y-30627915D01*
X29062599Y-31037401D01*
X29303492Y-31198360D01*
X29385910Y-31326441D01*
X29415000Y-31346317D01*
X29415000Y-31350331D01*
X29398559Y-31360910D01*
X29253569Y-31573110D01*
X29202560Y-31825000D01*
X29202560Y-32575000D01*
X29246838Y-32810317D01*
X29385910Y-33026441D01*
X29598110Y-33171431D01*
X29850000Y-33222440D01*
X30650000Y-33222440D01*
X30885317Y-33178162D01*
X30988646Y-33111671D01*
X30990302Y-33113327D01*
X31223691Y-33210000D01*
X31359132Y-33210000D01*
X31216441Y-33352691D01*
X31114683Y-33371838D01*
X31011354Y-33438329D01*
X31009698Y-33436673D01*
X30776309Y-33340000D01*
X30535750Y-33340000D01*
X30377000Y-33498750D01*
X30377000Y-34223000D01*
X30397000Y-34223000D01*
X30397000Y-34477000D01*
X30377000Y-34477000D01*
X30377000Y-35201250D01*
X30535750Y-35360000D01*
X30776309Y-35360000D01*
X31009698Y-35263327D01*
X31011068Y-35261957D01*
X31098110Y-35321431D01*
X31350000Y-35372440D01*
X32150000Y-35372440D01*
X32385317Y-35328162D01*
X32601441Y-35189090D01*
X32746431Y-34976890D01*
X32797440Y-34725000D01*
X32797440Y-34133428D01*
X32939632Y-33991236D01*
X33057466Y-33873607D01*
X33184855Y-33566821D01*
X33185145Y-33234637D01*
X33058292Y-32927628D01*
X32823607Y-32692534D01*
X32785000Y-32676503D01*
X32785000Y-32485750D01*
X32626250Y-32327000D01*
X31877000Y-32327000D01*
X31877000Y-32347000D01*
X31623000Y-32347000D01*
X31623000Y-32327000D01*
X31603000Y-32327000D01*
X31603000Y-32073000D01*
X31623000Y-32073000D01*
X31623000Y-30627000D01*
X31877000Y-30627000D01*
X31877000Y-32073000D01*
X32626250Y-32073000D01*
X32785000Y-31914250D01*
X32785000Y-31698690D01*
X32688327Y-31465301D01*
X32573025Y-31350000D01*
X32688327Y-31234699D01*
X32785000Y-31001310D01*
X32785000Y-30785750D01*
X32626250Y-30627000D01*
X31877000Y-30627000D01*
X31623000Y-30627000D01*
X31603000Y-30627000D01*
X31603000Y-30373000D01*
X31623000Y-30373000D01*
X31623000Y-29648750D01*
X31877000Y-29648750D01*
X31877000Y-30373000D01*
X32626250Y-30373000D01*
X32785000Y-30214250D01*
X32785000Y-29998690D01*
X32688327Y-29765301D01*
X32509698Y-29586673D01*
X32276309Y-29490000D01*
X32035750Y-29490000D01*
X31877000Y-29648750D01*
X31623000Y-29648750D01*
X31464250Y-29490000D01*
X31223691Y-29490000D01*
X30990302Y-29586673D01*
X30988932Y-29588043D01*
X30901890Y-29528569D01*
X30650000Y-29477560D01*
X29850000Y-29477560D01*
X29683661Y-29508859D01*
X29113900Y-28939098D01*
X28867338Y-28774351D01*
X28576499Y-28716499D01*
X28034712Y-28716499D01*
X27838638Y-28520082D01*
X27522115Y-28388650D01*
X27179389Y-28388351D01*
X26862637Y-28519230D01*
X26813999Y-28567783D01*
X26566821Y-28465145D01*
X26234637Y-28464855D01*
X26052771Y-28540000D01*
X23595866Y-28540000D01*
X23677888Y-28342468D01*
X23678420Y-27731807D01*
X23445223Y-27167427D01*
X23122722Y-26844361D01*
X26906907Y-26809969D01*
X27048771Y-26780407D01*
X27190839Y-26752148D01*
X27193764Y-26750194D01*
X27197208Y-26749476D01*
X27316949Y-26667884D01*
X27437401Y-26587401D01*
X28589052Y-25435750D01*
X30065000Y-25435750D01*
X30065000Y-25676310D01*
X30161673Y-25909699D01*
X30340302Y-26088327D01*
X30573691Y-26185000D01*
X30864250Y-26185000D01*
X31023000Y-26026250D01*
X31023000Y-25277000D01*
X30223750Y-25277000D01*
X30065000Y-25435750D01*
X28589052Y-25435750D01*
X29401112Y-24623690D01*
X30065000Y-24623690D01*
X30065000Y-24864250D01*
X30223750Y-25023000D01*
X31023000Y-25023000D01*
X31023000Y-24273750D01*
X30864250Y-24115000D01*
X30573691Y-24115000D01*
X30340302Y-24211673D01*
X30161673Y-24390301D01*
X30065000Y-24623690D01*
X29401112Y-24623690D01*
X30539594Y-23485208D01*
X30600000Y-23497440D01*
X30600000Y-23497440D01*
G37*
X30600000Y-23497440D02*
X31065001Y-23497440D01*
X31065001Y-23575001D01*
X31122853Y-23865840D01*
X31287600Y-24112402D01*
X31362974Y-24187776D01*
X31277000Y-24273750D01*
X31277000Y-25023000D01*
X32076250Y-25023000D01*
X32162262Y-24936988D01*
X32235910Y-25051441D01*
X32381083Y-25150633D01*
X32248559Y-25235910D01*
X32161936Y-25362686D01*
X32076250Y-25277000D01*
X31277000Y-25277000D01*
X31277000Y-26026250D01*
X31435750Y-26185000D01*
X31726309Y-26185000D01*
X31959698Y-26088327D01*
X32052560Y-25995466D01*
X32052560Y-26500000D01*
X32096838Y-26735317D01*
X32235910Y-26951441D01*
X32448110Y-27096431D01*
X32700000Y-27147440D01*
X33600000Y-27147440D01*
X33835317Y-27103162D01*
X33981449Y-27009128D01*
X34014990Y-27090303D01*
X34407630Y-27483629D01*
X34920900Y-27696757D01*
X35476661Y-27697242D01*
X35990303Y-27485010D01*
X36290000Y-27185836D01*
X36290000Y-31502560D01*
X34650000Y-31502560D01*
X34414683Y-31546838D01*
X34198559Y-31685910D01*
X34053569Y-31898110D01*
X34002560Y-32150000D01*
X34002560Y-32369080D01*
X33862599Y-32462599D01*
X33432599Y-32892599D01*
X33267852Y-33139161D01*
X33210000Y-33430000D01*
X33210000Y-35772909D01*
X33145617Y-35927959D01*
X33014090Y-35723559D01*
X32801890Y-35578569D01*
X32550000Y-35527560D01*
X32050000Y-35527560D01*
X31814683Y-35571838D01*
X31598559Y-35710910D01*
X31550866Y-35780711D01*
X31514090Y-35723559D01*
X31301890Y-35578569D01*
X31050000Y-35527560D01*
X30550000Y-35527560D01*
X30314683Y-35571838D01*
X30098559Y-35710910D01*
X29953569Y-35923110D01*
X29902560Y-36175000D01*
X29902560Y-37075000D01*
X29946838Y-37310317D01*
X30075070Y-37509594D01*
X30074855Y-37755363D01*
X30122033Y-37869542D01*
X29899746Y-37913758D01*
X29701890Y-37778569D01*
X29634857Y-37764994D01*
X29635145Y-37434637D01*
X29508292Y-37127628D01*
X29273607Y-36892534D01*
X28966821Y-36765145D01*
X28634637Y-36764855D01*
X28327628Y-36891708D01*
X28092534Y-37126393D01*
X27965145Y-37433179D01*
X27964855Y-37765363D01*
X28040000Y-37947229D01*
X28040000Y-37996614D01*
X27953569Y-38123110D01*
X27902560Y-38375000D01*
X27902560Y-38600000D01*
X26847440Y-38600000D01*
X26847440Y-38025000D01*
X26803162Y-37789683D01*
X26664090Y-37573559D01*
X26510000Y-37468274D01*
X26510000Y-36975000D01*
X26452148Y-36684161D01*
X26297440Y-36452623D01*
X26297440Y-36175000D01*
X26261689Y-35985000D01*
X26326309Y-35985000D01*
X26559698Y-35888327D01*
X26738327Y-35709699D01*
X26835000Y-35476310D01*
X26835000Y-35235750D01*
X26676250Y-35077000D01*
X25877000Y-35077000D01*
X25877000Y-35097000D01*
X25623000Y-35097000D01*
X25623000Y-35077000D01*
X24823750Y-35077000D01*
X24665000Y-35235750D01*
X24665000Y-35476310D01*
X24748787Y-35678589D01*
X24698559Y-35710910D01*
X24650866Y-35780711D01*
X24614090Y-35723559D01*
X24401890Y-35578569D01*
X24150000Y-35527560D01*
X23650000Y-35527560D01*
X23414683Y-35571838D01*
X23198559Y-35710910D01*
X23053569Y-35923110D01*
X23002560Y-36175000D01*
X23002560Y-36764471D01*
X22893540Y-36655451D01*
X22646978Y-36490704D01*
X22356139Y-36432852D01*
X21407654Y-36432852D01*
X20137401Y-35162599D01*
X19890839Y-34997852D01*
X19600000Y-34940000D01*
X17750000Y-34940000D01*
X17459161Y-34997852D01*
X17212599Y-35162599D01*
X16912599Y-35462599D01*
X16869194Y-35527560D01*
X16500000Y-35527560D01*
X16264683Y-35571838D01*
X16048559Y-35710910D01*
X15981867Y-35808517D01*
X15835704Y-35808389D01*
X15528695Y-35935242D01*
X15293601Y-36169927D01*
X15166212Y-36476713D01*
X15165922Y-36808897D01*
X15292775Y-37115906D01*
X15527460Y-37351000D01*
X15727965Y-37434257D01*
X15636009Y-37655712D01*
X15635905Y-37775332D01*
X15551276Y-37758194D01*
X15487401Y-37662599D01*
X14827822Y-37003020D01*
X14753282Y-36822618D01*
X14518597Y-36587524D01*
X14211811Y-36460135D01*
X13879627Y-36459845D01*
X13572618Y-36586698D01*
X13337524Y-36821383D01*
X13210135Y-37128169D01*
X13209845Y-37460353D01*
X13336698Y-37767362D01*
X13571383Y-38002456D01*
X13753117Y-38077919D01*
X13885843Y-38210645D01*
X13852560Y-38375000D01*
X13852560Y-38875000D01*
X13896838Y-39110317D01*
X14035910Y-39326441D01*
X14105711Y-39374134D01*
X14048559Y-39410910D01*
X13903569Y-39623110D01*
X13852560Y-39875000D01*
X13852560Y-40375000D01*
X13896838Y-40610317D01*
X14035910Y-40826441D01*
X14248110Y-40971431D01*
X14500000Y-41022440D01*
X15400000Y-41022440D01*
X15635317Y-40978162D01*
X15851441Y-40839090D01*
X15996431Y-40626890D01*
X16047440Y-40375000D01*
X16047440Y-40370973D01*
X16048110Y-40371431D01*
X16300000Y-40422440D01*
X17200000Y-40422440D01*
X17435317Y-40378162D01*
X17651441Y-40239090D01*
X17738064Y-40112314D01*
X17823750Y-40198000D01*
X18623000Y-40198000D01*
X18623000Y-40178000D01*
X18877000Y-40178000D01*
X18877000Y-40198000D01*
X19676250Y-40198000D01*
X19835000Y-40039250D01*
X19835000Y-39798690D01*
X19738327Y-39565301D01*
X19559698Y-39386673D01*
X19523253Y-39371577D01*
X19651441Y-39289090D01*
X19796431Y-39076890D01*
X19847440Y-38825000D01*
X19847440Y-38025000D01*
X19803162Y-37789683D01*
X19664090Y-37573559D01*
X19510000Y-37468274D01*
X19510000Y-37125000D01*
X19452148Y-36834161D01*
X19287401Y-36587599D01*
X19159802Y-36460000D01*
X19285198Y-36460000D01*
X20555451Y-37730253D01*
X20802013Y-37895000D01*
X21092852Y-37952852D01*
X21169901Y-37952852D01*
X21053569Y-38123110D01*
X21002560Y-38375000D01*
X21002560Y-38875000D01*
X21046838Y-39110317D01*
X21185910Y-39326441D01*
X21255711Y-39374134D01*
X21198559Y-39410910D01*
X21053569Y-39623110D01*
X21002560Y-39875000D01*
X21002560Y-40375000D01*
X21046838Y-40610317D01*
X21185910Y-40826441D01*
X21398110Y-40971431D01*
X21650000Y-41022440D01*
X22550000Y-41022440D01*
X22785317Y-40978162D01*
X23001441Y-40839090D01*
X23146431Y-40626890D01*
X23192252Y-40400620D01*
X23300000Y-40422440D01*
X24200000Y-40422440D01*
X24435317Y-40378162D01*
X24651441Y-40239090D01*
X24738064Y-40112314D01*
X24823750Y-40198000D01*
X25623000Y-40198000D01*
X25623000Y-40178000D01*
X25877000Y-40178000D01*
X25877000Y-40198000D01*
X26676250Y-40198000D01*
X26754250Y-40120000D01*
X27902560Y-40120000D01*
X27902560Y-40375000D01*
X27946838Y-40610317D01*
X28085910Y-40826441D01*
X28298110Y-40971431D01*
X28550000Y-41022440D01*
X29450000Y-41022440D01*
X29685317Y-40978162D01*
X29901441Y-40839090D01*
X29967846Y-40741904D01*
X30192840Y-40697149D01*
X30439402Y-40532402D01*
X30549364Y-40422440D01*
X31250000Y-40422440D01*
X31485317Y-40378162D01*
X31701441Y-40239090D01*
X31788064Y-40112314D01*
X31873750Y-40198000D01*
X32673000Y-40198000D01*
X32673000Y-40178000D01*
X32927000Y-40178000D01*
X32927000Y-40198000D01*
X33726250Y-40198000D01*
X33885000Y-40039250D01*
X33885000Y-39939999D01*
X34192353Y-39939999D01*
X34058524Y-40263110D01*
X34179845Y-40493000D01*
X35373000Y-40493000D01*
X35373000Y-40473000D01*
X35627000Y-40473000D01*
X35627000Y-40493000D01*
X35647000Y-40493000D01*
X35647000Y-40747000D01*
X35627000Y-40747000D01*
X35627000Y-40767000D01*
X35373000Y-40767000D01*
X35373000Y-40747000D01*
X34179845Y-40747000D01*
X34058524Y-40976890D01*
X34078464Y-41025033D01*
X33874637Y-41024855D01*
X33800412Y-41055524D01*
X33885000Y-40851310D01*
X33885000Y-40610750D01*
X33726250Y-40452000D01*
X32927000Y-40452000D01*
X32927000Y-40472000D01*
X32673000Y-40472000D01*
X32673000Y-40452000D01*
X31873750Y-40452000D01*
X31715000Y-40610750D01*
X31715000Y-40851310D01*
X31811673Y-41084699D01*
X31883333Y-41156359D01*
X31798559Y-41210910D01*
X31750866Y-41280711D01*
X31714090Y-41223559D01*
X31501890Y-41078569D01*
X31250000Y-41027560D01*
X30750000Y-41027560D01*
X30514683Y-41071838D01*
X30298559Y-41210910D01*
X30153569Y-41423110D01*
X30144930Y-41465770D01*
X29962599Y-41587599D01*
X29382599Y-42167599D01*
X29217852Y-42414161D01*
X29160000Y-42705000D01*
X29160000Y-43452560D01*
X28550000Y-43452560D01*
X28314683Y-43496838D01*
X28247607Y-43540000D01*
X28197091Y-43540000D01*
X28016821Y-43465145D01*
X27684637Y-43464855D01*
X27377628Y-43591708D01*
X27142534Y-43826393D01*
X27015145Y-44133179D01*
X27014855Y-44465363D01*
X27141708Y-44772372D01*
X27376393Y-45007466D01*
X27683179Y-45134855D01*
X28015363Y-45135145D01*
X28135665Y-45085437D01*
X28155711Y-45099134D01*
X28098559Y-45135910D01*
X27953569Y-45348110D01*
X27902560Y-45600000D01*
X27902560Y-46100000D01*
X27946838Y-46335317D01*
X28085910Y-46551441D01*
X28298110Y-46696431D01*
X28550000Y-46747440D01*
X29450000Y-46747440D01*
X29685317Y-46703162D01*
X29901441Y-46564090D01*
X30046431Y-46351890D01*
X30095263Y-46110750D01*
X31715000Y-46110750D01*
X31715000Y-46351310D01*
X31811673Y-46584699D01*
X31990302Y-46763327D01*
X32223691Y-46860000D01*
X32514250Y-46860000D01*
X32673000Y-46701250D01*
X32673000Y-45952000D01*
X31873750Y-45952000D01*
X31715000Y-46110750D01*
X30095263Y-46110750D01*
X30097440Y-46100000D01*
X30097440Y-45927362D01*
X30144065Y-45880737D01*
X30350000Y-45922440D01*
X31250000Y-45922440D01*
X31485317Y-45878162D01*
X31701441Y-45739090D01*
X31788064Y-45612314D01*
X31873750Y-45698000D01*
X32673000Y-45698000D01*
X32673000Y-45678000D01*
X32927000Y-45678000D01*
X32927000Y-45698000D01*
X32947000Y-45698000D01*
X32947000Y-45952000D01*
X32927000Y-45952000D01*
X32927000Y-46701250D01*
X33065722Y-46839972D01*
X33091697Y-46902836D01*
X33326382Y-47137930D01*
X33404894Y-47170531D01*
X33404855Y-47215363D01*
X33531708Y-47522372D01*
X33766393Y-47757466D01*
X34073179Y-47884855D01*
X34405363Y-47885145D01*
X34712372Y-47758292D01*
X34947466Y-47523607D01*
X35074855Y-47216821D01*
X35074952Y-47106240D01*
X35470907Y-47185000D01*
X35529093Y-47185000D01*
X36097378Y-47071961D01*
X36290000Y-46943255D01*
X36290000Y-55213000D01*
X29302873Y-55213000D01*
X29315000Y-55152032D01*
X29315000Y-53687968D01*
X29243827Y-53330159D01*
X29041145Y-53026823D01*
X28737809Y-52824141D01*
X28514530Y-52779728D01*
X28107127Y-52372325D01*
X30644587Y-52372325D01*
X31006916Y-53249229D01*
X31677242Y-53920726D01*
X32553513Y-54284585D01*
X33502325Y-54285413D01*
X34379229Y-53923084D01*
X35050726Y-53252758D01*
X35414585Y-52376487D01*
X35415413Y-51427675D01*
X35053084Y-50550771D01*
X34382758Y-49879274D01*
X33506487Y-49515415D01*
X32557675Y-49514587D01*
X31680771Y-49876916D01*
X31009274Y-50547242D01*
X30645415Y-51423513D01*
X30644587Y-52372325D01*
X28107127Y-52372325D01*
X25967401Y-50232599D01*
X25943287Y-50216487D01*
X26197809Y-50165859D01*
X26475000Y-49980646D01*
X26752191Y-50165859D01*
X27110000Y-50237032D01*
X27467809Y-50165859D01*
X27762613Y-49968878D01*
X27808657Y-50020948D01*
X28109653Y-50165063D01*
X28253000Y-50035790D01*
X28253000Y-48697000D01*
X28507000Y-48697000D01*
X28507000Y-50035790D01*
X28650347Y-50165063D01*
X28951343Y-50020948D01*
X29195227Y-49745142D01*
X29315000Y-49397000D01*
X29315000Y-48697000D01*
X28507000Y-48697000D01*
X28253000Y-48697000D01*
X28233000Y-48697000D01*
X28233000Y-48443000D01*
X28253000Y-48443000D01*
X28253000Y-47104210D01*
X28507000Y-47104210D01*
X28507000Y-48443000D01*
X29315000Y-48443000D01*
X29315000Y-47743000D01*
X29195227Y-47394858D01*
X28951343Y-47119052D01*
X28650347Y-46974937D01*
X28507000Y-47104210D01*
X28253000Y-47104210D01*
X28109653Y-46974937D01*
X27982565Y-47035786D01*
X27888292Y-46807628D01*
X27653607Y-46572534D01*
X27346821Y-46445145D01*
X27014637Y-46444855D01*
X26788639Y-46538235D01*
X26835000Y-46426310D01*
X26835000Y-46185750D01*
X26676250Y-46027000D01*
X25877000Y-46027000D01*
X25877000Y-46047000D01*
X25623000Y-46047000D01*
X25623000Y-46027000D01*
X24823750Y-46027000D01*
X24665000Y-46185750D01*
X24665000Y-46318662D01*
X24657628Y-46321708D01*
X24422534Y-46556393D01*
X24396720Y-46618560D01*
X24306423Y-46581065D01*
X23974239Y-46580775D01*
X23667230Y-46707628D01*
X23593503Y-46781227D01*
X23574853Y-46762544D01*
X23268067Y-46635155D01*
X22935883Y-46634865D01*
X22718282Y-46724776D01*
X22851441Y-46639090D01*
X22996431Y-46426890D01*
X23047440Y-46175000D01*
X23047440Y-46002362D01*
X23094065Y-45955737D01*
X23300000Y-45997440D01*
X24200000Y-45997440D01*
X24435317Y-45953162D01*
X24651441Y-45814090D01*
X24738064Y-45687314D01*
X24823750Y-45773000D01*
X25623000Y-45773000D01*
X25623000Y-45753000D01*
X25877000Y-45753000D01*
X25877000Y-45773000D01*
X26676250Y-45773000D01*
X26835000Y-45614250D01*
X26835000Y-45373690D01*
X26738327Y-45140301D01*
X26559698Y-44961673D01*
X26523253Y-44946577D01*
X26651441Y-44864090D01*
X26796431Y-44651890D01*
X26847440Y-44400000D01*
X26847440Y-43600000D01*
X26803162Y-43364683D01*
X26664090Y-43148559D01*
X26510000Y-43043274D01*
X26510000Y-42775000D01*
X26452148Y-42484161D01*
X26347440Y-42327454D01*
X26347440Y-41825000D01*
X26303162Y-41589683D01*
X26164090Y-41373559D01*
X26144246Y-41360000D01*
X26326309Y-41360000D01*
X26559698Y-41263327D01*
X26738327Y-41084699D01*
X26835000Y-40851310D01*
X26835000Y-40610750D01*
X26676250Y-40452000D01*
X25877000Y-40452000D01*
X25877000Y-40472000D01*
X25623000Y-40472000D01*
X25623000Y-40452000D01*
X24823750Y-40452000D01*
X24665000Y-40610750D01*
X24665000Y-40851310D01*
X24761673Y-41084699D01*
X24924603Y-41247629D01*
X24748559Y-41360910D01*
X24700866Y-41430711D01*
X24664090Y-41373559D01*
X24451890Y-41228569D01*
X24200000Y-41177560D01*
X23700000Y-41177560D01*
X23464683Y-41221838D01*
X23365785Y-41285477D01*
X23316821Y-41265145D01*
X22984637Y-41264855D01*
X22677628Y-41391708D01*
X22442534Y-41626393D01*
X22367071Y-41808127D01*
X22287608Y-41887590D01*
X22122861Y-42134152D01*
X22065009Y-42424991D01*
X22065009Y-42976929D01*
X21514378Y-43527560D01*
X21500000Y-43527560D01*
X21264683Y-43571838D01*
X21048559Y-43710910D01*
X20903569Y-43923110D01*
X20852560Y-44175000D01*
X20852560Y-44675000D01*
X20896838Y-44910317D01*
X21035910Y-45126441D01*
X21105711Y-45174134D01*
X21048559Y-45210910D01*
X20903569Y-45423110D01*
X20852560Y-45675000D01*
X20852560Y-46175000D01*
X20896838Y-46410317D01*
X21035910Y-46626441D01*
X21197617Y-46736931D01*
X21137628Y-46761718D01*
X20956898Y-46942134D01*
X20788426Y-46908622D01*
X20587402Y-46707598D01*
X20340840Y-46542851D01*
X20050001Y-46484999D01*
X19810690Y-46484999D01*
X19835000Y-46426310D01*
X19835000Y-46185750D01*
X19676250Y-46027000D01*
X18877000Y-46027000D01*
X18877000Y-46047000D01*
X18623000Y-46047000D01*
X18623000Y-46027000D01*
X17823750Y-46027000D01*
X17665000Y-46185750D01*
X17665000Y-46426310D01*
X17699125Y-46508694D01*
X17667628Y-46521708D01*
X17451881Y-46737079D01*
X17447401Y-46732599D01*
X17200839Y-46567852D01*
X16910000Y-46510000D01*
X15939644Y-46510000D01*
X15996431Y-46426890D01*
X16047440Y-46175000D01*
X16047440Y-46002362D01*
X16094065Y-45955737D01*
X16300000Y-45997440D01*
X17200000Y-45997440D01*
X17435317Y-45953162D01*
X17651441Y-45814090D01*
X17738064Y-45687314D01*
X17823750Y-45773000D01*
X18623000Y-45773000D01*
X18623000Y-45753000D01*
X18877000Y-45753000D01*
X18877000Y-45773000D01*
X19676250Y-45773000D01*
X19835000Y-45614250D01*
X19835000Y-45373690D01*
X19738327Y-45140301D01*
X19559698Y-44961673D01*
X19523253Y-44946577D01*
X19651441Y-44864090D01*
X19796431Y-44651890D01*
X19847440Y-44400000D01*
X19847440Y-43600000D01*
X19803162Y-43364683D01*
X19664090Y-43148559D01*
X19510000Y-43043274D01*
X19510000Y-42750000D01*
X19452148Y-42459161D01*
X19347440Y-42302454D01*
X19347440Y-41800000D01*
X19303162Y-41564683D01*
X19171452Y-41360000D01*
X19326309Y-41360000D01*
X19559698Y-41263327D01*
X19738327Y-41084699D01*
X19835000Y-40851310D01*
X19835000Y-40610750D01*
X19676250Y-40452000D01*
X18877000Y-40452000D01*
X18877000Y-40472000D01*
X18623000Y-40472000D01*
X18623000Y-40452000D01*
X17823750Y-40452000D01*
X17665000Y-40610750D01*
X17665000Y-40851310D01*
X17761673Y-41084699D01*
X17909392Y-41232417D01*
X17748559Y-41335910D01*
X17700866Y-41405711D01*
X17664090Y-41348559D01*
X17451890Y-41203569D01*
X17200000Y-41152560D01*
X16700000Y-41152560D01*
X16464683Y-41196838D01*
X16248559Y-41335910D01*
X16103569Y-41548110D01*
X16052560Y-41800000D01*
X16052560Y-42700000D01*
X16096838Y-42935317D01*
X16132663Y-42990991D01*
X16115145Y-43033179D01*
X16115030Y-43165000D01*
X15650000Y-43165000D01*
X15359161Y-43222852D01*
X15112599Y-43387599D01*
X14972638Y-43527560D01*
X14500000Y-43527560D01*
X14264683Y-43571838D01*
X14048559Y-43710910D01*
X13903569Y-43923110D01*
X13852560Y-44175000D01*
X13852560Y-44675000D01*
X13896838Y-44910317D01*
X14035910Y-45126441D01*
X14105711Y-45174134D01*
X14048559Y-45210910D01*
X14039284Y-45224484D01*
X13660000Y-44845200D01*
X13660000Y-42750000D01*
X13602148Y-42459161D01*
X13437401Y-42212599D01*
X12587401Y-41362599D01*
X12426304Y-41254958D01*
X12541476Y-40976890D01*
X12420155Y-40747000D01*
X11227000Y-40747000D01*
X11227000Y-40767000D01*
X10973000Y-40767000D01*
X10973000Y-40747000D01*
X10953000Y-40747000D01*
X10953000Y-40493000D01*
X10973000Y-40493000D01*
X10973000Y-40473000D01*
X11227000Y-40473000D01*
X11227000Y-40493000D01*
X12420155Y-40493000D01*
X12541476Y-40263110D01*
X12371645Y-39853076D01*
X11981358Y-39424817D01*
X11838447Y-39357702D01*
X12179147Y-39130054D01*
X12501054Y-38648285D01*
X12614093Y-38080000D01*
X12501054Y-37511715D01*
X12179147Y-37029946D01*
X11849974Y-36810000D01*
X12179147Y-36590054D01*
X12501054Y-36108285D01*
X12614093Y-35540000D01*
X12560466Y-35270402D01*
X12762691Y-35068177D01*
X12975790Y-34925790D01*
X13225787Y-34675792D01*
X13225790Y-34675790D01*
X13417633Y-34388675D01*
X13485000Y-34050000D01*
X13485000Y-31816580D01*
X13716579Y-31585000D01*
X15950000Y-31585000D01*
X16073345Y-31560465D01*
X16096838Y-31685317D01*
X16170624Y-31799984D01*
X16165145Y-31813179D01*
X16164855Y-32145363D01*
X16291708Y-32452372D01*
X16526393Y-32687466D01*
X16833179Y-32814855D01*
X17165363Y-32815145D01*
X17472372Y-32688292D01*
X17565000Y-32595825D01*
X17565000Y-32749995D01*
X17564999Y-32750000D01*
X17605292Y-32952560D01*
X17632367Y-33088675D01*
X17652560Y-33118896D01*
X17652560Y-33140681D01*
X17451890Y-33003569D01*
X17200000Y-32952560D01*
X16300000Y-32952560D01*
X16064683Y-32996838D01*
X16023595Y-33023277D01*
X16003162Y-32914683D01*
X15864090Y-32698559D01*
X15696942Y-32584351D01*
X15693092Y-32565000D01*
X15685023Y-32524433D01*
X15685145Y-32384637D01*
X15558292Y-32077628D01*
X15323607Y-31842534D01*
X15016821Y-31715145D01*
X14684637Y-31714855D01*
X14377628Y-31841708D01*
X14142534Y-32076393D01*
X14015145Y-32383179D01*
X14014855Y-32715363D01*
X14019972Y-32727748D01*
X13903569Y-32898110D01*
X13852560Y-33150000D01*
X13852560Y-33650000D01*
X13896838Y-33885317D01*
X14035910Y-34101441D01*
X14105711Y-34149134D01*
X14048559Y-34185910D01*
X13903569Y-34398110D01*
X13852560Y-34650000D01*
X13852560Y-35150000D01*
X13896838Y-35385317D01*
X14035910Y-35601441D01*
X14248110Y-35746431D01*
X14500000Y-35797440D01*
X15400000Y-35797440D01*
X15635317Y-35753162D01*
X15851441Y-35614090D01*
X15996431Y-35401890D01*
X16047440Y-35150000D01*
X16047440Y-34995973D01*
X16048110Y-34996431D01*
X16300000Y-35047440D01*
X17200000Y-35047440D01*
X17435317Y-35003162D01*
X17651441Y-34864090D01*
X17738064Y-34737314D01*
X17823750Y-34823000D01*
X18623000Y-34823000D01*
X18623000Y-34803000D01*
X18877000Y-34803000D01*
X18877000Y-34823000D01*
X19676250Y-34823000D01*
X19835000Y-34664250D01*
X19835000Y-34423690D01*
X19738327Y-34190301D01*
X19559698Y-34011673D01*
X19523253Y-33996577D01*
X19651441Y-33914090D01*
X19796431Y-33701890D01*
X19847440Y-33450000D01*
X19847440Y-32650000D01*
X19803162Y-32414683D01*
X19664090Y-32198559D01*
X19451890Y-32053569D01*
X19335000Y-32029898D01*
X19335000Y-31511431D01*
X19347440Y-31450000D01*
X19347440Y-30963761D01*
X22414209Y-30963761D01*
X22370774Y-30981708D01*
X22135680Y-31216393D01*
X22008291Y-31523179D01*
X22008065Y-31782271D01*
X21966821Y-31765145D01*
X21634637Y-31764855D01*
X21327628Y-31891708D01*
X21092534Y-32126393D01*
X20965145Y-32433179D01*
X20964855Y-32765363D01*
X20975940Y-32792191D01*
X20903569Y-32898110D01*
X20852560Y-33150000D01*
X20852560Y-33650000D01*
X20896838Y-33885317D01*
X21035910Y-34101441D01*
X21105711Y-34149134D01*
X21048559Y-34185910D01*
X20903569Y-34398110D01*
X20852560Y-34650000D01*
X20852560Y-35150000D01*
X20896838Y-35385317D01*
X21035910Y-35601441D01*
X21248110Y-35746431D01*
X21500000Y-35797440D01*
X22400000Y-35797440D01*
X22635317Y-35753162D01*
X22851441Y-35614090D01*
X22996431Y-35401890D01*
X23047440Y-35150000D01*
X23047440Y-34995973D01*
X23048110Y-34996431D01*
X23300000Y-35047440D01*
X24200000Y-35047440D01*
X24435317Y-35003162D01*
X24651441Y-34864090D01*
X24738064Y-34737314D01*
X24823750Y-34823000D01*
X25623000Y-34823000D01*
X25623000Y-34803000D01*
X25877000Y-34803000D01*
X25877000Y-34823000D01*
X26676250Y-34823000D01*
X26835000Y-34664250D01*
X26835000Y-34635750D01*
X29215000Y-34635750D01*
X29215000Y-34851310D01*
X29311673Y-35084699D01*
X29490302Y-35263327D01*
X29723691Y-35360000D01*
X29964250Y-35360000D01*
X30123000Y-35201250D01*
X30123000Y-34477000D01*
X29373750Y-34477000D01*
X29215000Y-34635750D01*
X26835000Y-34635750D01*
X26835000Y-34423690D01*
X26738327Y-34190301D01*
X26559698Y-34011673D01*
X26523253Y-33996577D01*
X26651441Y-33914090D01*
X26696126Y-33848690D01*
X29215000Y-33848690D01*
X29215000Y-34064250D01*
X29373750Y-34223000D01*
X30123000Y-34223000D01*
X30123000Y-33498750D01*
X29964250Y-33340000D01*
X29723691Y-33340000D01*
X29490302Y-33436673D01*
X29311673Y-33615301D01*
X29215000Y-33848690D01*
X26696126Y-33848690D01*
X26796431Y-33701890D01*
X26847440Y-33450000D01*
X26847440Y-32650000D01*
X26803162Y-32414683D01*
X26664090Y-32198559D01*
X26635000Y-32178683D01*
X26635000Y-31150005D01*
X26635001Y-31150000D01*
X26597955Y-30963761D01*
X27970510Y-30963761D01*
X28136602Y-30963906D01*
X28443611Y-30837053D01*
X28653113Y-30627915D01*
X29062599Y-31037401D01*
X29303492Y-31198360D01*
X29385910Y-31326441D01*
X29415000Y-31346317D01*
X29415000Y-31350331D01*
X29398559Y-31360910D01*
X29253569Y-31573110D01*
X29202560Y-31825000D01*
X29202560Y-32575000D01*
X29246838Y-32810317D01*
X29385910Y-33026441D01*
X29598110Y-33171431D01*
X29850000Y-33222440D01*
X30650000Y-33222440D01*
X30885317Y-33178162D01*
X30988646Y-33111671D01*
X30990302Y-33113327D01*
X31223691Y-33210000D01*
X31359132Y-33210000D01*
X31216441Y-33352691D01*
X31114683Y-33371838D01*
X31011354Y-33438329D01*
X31009698Y-33436673D01*
X30776309Y-33340000D01*
X30535750Y-33340000D01*
X30377000Y-33498750D01*
X30377000Y-34223000D01*
X30397000Y-34223000D01*
X30397000Y-34477000D01*
X30377000Y-34477000D01*
X30377000Y-35201250D01*
X30535750Y-35360000D01*
X30776309Y-35360000D01*
X31009698Y-35263327D01*
X31011068Y-35261957D01*
X31098110Y-35321431D01*
X31350000Y-35372440D01*
X32150000Y-35372440D01*
X32385317Y-35328162D01*
X32601441Y-35189090D01*
X32746431Y-34976890D01*
X32797440Y-34725000D01*
X32797440Y-34133428D01*
X32939632Y-33991236D01*
X33057466Y-33873607D01*
X33184855Y-33566821D01*
X33185145Y-33234637D01*
X33058292Y-32927628D01*
X32823607Y-32692534D01*
X32785000Y-32676503D01*
X32785000Y-32485750D01*
X32626250Y-32327000D01*
X31877000Y-32327000D01*
X31877000Y-32347000D01*
X31623000Y-32347000D01*
X31623000Y-32327000D01*
X31603000Y-32327000D01*
X31603000Y-32073000D01*
X31623000Y-32073000D01*
X31623000Y-30627000D01*
X31877000Y-30627000D01*
X31877000Y-32073000D01*
X32626250Y-32073000D01*
X32785000Y-31914250D01*
X32785000Y-31698690D01*
X32688327Y-31465301D01*
X32573025Y-31350000D01*
X32688327Y-31234699D01*
X32785000Y-31001310D01*
X32785000Y-30785750D01*
X32626250Y-30627000D01*
X31877000Y-30627000D01*
X31623000Y-30627000D01*
X31603000Y-30627000D01*
X31603000Y-30373000D01*
X31623000Y-30373000D01*
X31623000Y-29648750D01*
X31877000Y-29648750D01*
X31877000Y-30373000D01*
X32626250Y-30373000D01*
X32785000Y-30214250D01*
X32785000Y-29998690D01*
X32688327Y-29765301D01*
X32509698Y-29586673D01*
X32276309Y-29490000D01*
X32035750Y-29490000D01*
X31877000Y-29648750D01*
X31623000Y-29648750D01*
X31464250Y-29490000D01*
X31223691Y-29490000D01*
X30990302Y-29586673D01*
X30988932Y-29588043D01*
X30901890Y-29528569D01*
X30650000Y-29477560D01*
X29850000Y-29477560D01*
X29683661Y-29508859D01*
X29113900Y-28939098D01*
X28867338Y-28774351D01*
X28576499Y-28716499D01*
X28034712Y-28716499D01*
X27838638Y-28520082D01*
X27522115Y-28388650D01*
X27179389Y-28388351D01*
X26862637Y-28519230D01*
X26813999Y-28567783D01*
X26566821Y-28465145D01*
X26234637Y-28464855D01*
X26052771Y-28540000D01*
X23595866Y-28540000D01*
X23677888Y-28342468D01*
X23678420Y-27731807D01*
X23445223Y-27167427D01*
X23122722Y-26844361D01*
X26906907Y-26809969D01*
X27048771Y-26780407D01*
X27190839Y-26752148D01*
X27193764Y-26750194D01*
X27197208Y-26749476D01*
X27316949Y-26667884D01*
X27437401Y-26587401D01*
X28589052Y-25435750D01*
X30065000Y-25435750D01*
X30065000Y-25676310D01*
X30161673Y-25909699D01*
X30340302Y-26088327D01*
X30573691Y-26185000D01*
X30864250Y-26185000D01*
X31023000Y-26026250D01*
X31023000Y-25277000D01*
X30223750Y-25277000D01*
X30065000Y-25435750D01*
X28589052Y-25435750D01*
X29401112Y-24623690D01*
X30065000Y-24623690D01*
X30065000Y-24864250D01*
X30223750Y-25023000D01*
X31023000Y-25023000D01*
X31023000Y-24273750D01*
X30864250Y-24115000D01*
X30573691Y-24115000D01*
X30340302Y-24211673D01*
X30161673Y-24390301D01*
X30065000Y-24623690D01*
X29401112Y-24623690D01*
X30539594Y-23485208D01*
X30600000Y-23497440D01*
G36*
X23427000Y-54293000D02*
X23447000Y-54293000D01*
X23447000Y-54461206D01*
X23341021Y-54567000D01*
X23173000Y-54567000D01*
X23173000Y-54547000D01*
X23153000Y-54547000D01*
X23153000Y-54293000D01*
X23173000Y-54293000D01*
X23173000Y-54273000D01*
X23427000Y-54273000D01*
X23427000Y-54293000D01*
X23427000Y-54293000D01*
G37*
X23427000Y-54293000D02*
X23447000Y-54293000D01*
X23447000Y-54461206D01*
X23341021Y-54567000D01*
X23173000Y-54567000D01*
X23173000Y-54547000D01*
X23153000Y-54547000D01*
X23153000Y-54293000D01*
X23173000Y-54293000D01*
X23173000Y-54273000D01*
X23427000Y-54273000D01*
X23427000Y-54293000D01*
G36*
X6023959Y-21312869D02*
X5904141Y-21492191D01*
X5832968Y-21850000D01*
X5904141Y-22207809D01*
X6089354Y-22485000D01*
X5904141Y-22762191D01*
X5832968Y-23120000D01*
X5904141Y-23477809D01*
X6089354Y-23755000D01*
X5904141Y-24032191D01*
X5832968Y-24390000D01*
X5904141Y-24747809D01*
X6089354Y-25025000D01*
X5904141Y-25302191D01*
X5832968Y-25660000D01*
X5904141Y-26017809D01*
X6089354Y-26295000D01*
X5904141Y-26572191D01*
X5832968Y-26930000D01*
X5904141Y-27287809D01*
X6089354Y-27565000D01*
X5904141Y-27842191D01*
X5832968Y-28200000D01*
X5904141Y-28557809D01*
X6101122Y-28852613D01*
X6049052Y-28898657D01*
X5904937Y-29199653D01*
X6034210Y-29343000D01*
X7373000Y-29343000D01*
X7373000Y-29323000D01*
X7627000Y-29323000D01*
X7627000Y-29343000D01*
X8965790Y-29343000D01*
X9095063Y-29199653D01*
X8950948Y-28898657D01*
X8898878Y-28852613D01*
X9095859Y-28557809D01*
X9167032Y-28200000D01*
X9095859Y-27842191D01*
X8994169Y-27690000D01*
X9942996Y-27690000D01*
X10233835Y-27632148D01*
X10480397Y-27467401D01*
X10640883Y-27306915D01*
X10676393Y-27342487D01*
X10949631Y-27455946D01*
X11034937Y-27512945D01*
X11325776Y-27570797D01*
X12674167Y-27570797D01*
X12631541Y-27673451D01*
X12624252Y-27684360D01*
X12621715Y-27697115D01*
X12608422Y-27729128D01*
X12608392Y-27764095D01*
X12566400Y-27975199D01*
X12608025Y-28184462D01*
X12607890Y-28339789D01*
X12690615Y-28540000D01*
X12397091Y-28540000D01*
X12216821Y-28465145D01*
X11884637Y-28464855D01*
X11577628Y-28591708D01*
X11342534Y-28826393D01*
X11215145Y-29133179D01*
X11214855Y-29465363D01*
X11341708Y-29772372D01*
X11576393Y-30007466D01*
X11883179Y-30134855D01*
X12215363Y-30135145D01*
X12397229Y-30060000D01*
X12745477Y-30060000D01*
X12724210Y-30074210D01*
X12724208Y-30074213D01*
X11974210Y-30824210D01*
X11782367Y-31111325D01*
X11775640Y-31145145D01*
X11714999Y-31450000D01*
X11715000Y-31450005D01*
X11715000Y-31502560D01*
X10250000Y-31502560D01*
X10014683Y-31546838D01*
X9798559Y-31685910D01*
X9653569Y-31898110D01*
X9602560Y-32150000D01*
X9602560Y-32240000D01*
X8554802Y-32240000D01*
X6719802Y-30405000D01*
X7373000Y-30405000D01*
X7373000Y-29597000D01*
X7627000Y-29597000D01*
X7627000Y-30405000D01*
X8327000Y-30405000D01*
X8675142Y-30285227D01*
X8950948Y-30041343D01*
X9095063Y-29740347D01*
X8965790Y-29597000D01*
X7627000Y-29597000D01*
X7373000Y-29597000D01*
X6034210Y-29597000D01*
X5976166Y-29661364D01*
X5129999Y-28815197D01*
X5129999Y-27159999D01*
X5075294Y-26884981D01*
X5072147Y-26869159D01*
X4907400Y-26622598D01*
X4352832Y-26068030D01*
X4278292Y-25887628D01*
X4165943Y-25775083D01*
X4298903Y-25642123D01*
X4463650Y-25395561D01*
X4521502Y-25104722D01*
X4521502Y-23905278D01*
X4463650Y-23614439D01*
X4298903Y-23367877D01*
X3513625Y-22582599D01*
X3267063Y-22417852D01*
X3124466Y-22389487D01*
X3245859Y-22207809D01*
X3290272Y-21984530D01*
X3293109Y-21981693D01*
X3537363Y-21880770D01*
X3779918Y-21638638D01*
X3903923Y-21340000D01*
X5887043Y-21340000D01*
X6023900Y-21312777D01*
X6023959Y-21312869D01*
X6023959Y-21312869D01*
G37*
X6023959Y-21312869D02*
X5904141Y-21492191D01*
X5832968Y-21850000D01*
X5904141Y-22207809D01*
X6089354Y-22485000D01*
X5904141Y-22762191D01*
X5832968Y-23120000D01*
X5904141Y-23477809D01*
X6089354Y-23755000D01*
X5904141Y-24032191D01*
X5832968Y-24390000D01*
X5904141Y-24747809D01*
X6089354Y-25025000D01*
X5904141Y-25302191D01*
X5832968Y-25660000D01*
X5904141Y-26017809D01*
X6089354Y-26295000D01*
X5904141Y-26572191D01*
X5832968Y-26930000D01*
X5904141Y-27287809D01*
X6089354Y-27565000D01*
X5904141Y-27842191D01*
X5832968Y-28200000D01*
X5904141Y-28557809D01*
X6101122Y-28852613D01*
X6049052Y-28898657D01*
X5904937Y-29199653D01*
X6034210Y-29343000D01*
X7373000Y-29343000D01*
X7373000Y-29323000D01*
X7627000Y-29323000D01*
X7627000Y-29343000D01*
X8965790Y-29343000D01*
X9095063Y-29199653D01*
X8950948Y-28898657D01*
X8898878Y-28852613D01*
X9095859Y-28557809D01*
X9167032Y-28200000D01*
X9095859Y-27842191D01*
X8994169Y-27690000D01*
X9942996Y-27690000D01*
X10233835Y-27632148D01*
X10480397Y-27467401D01*
X10640883Y-27306915D01*
X10676393Y-27342487D01*
X10949631Y-27455946D01*
X11034937Y-27512945D01*
X11325776Y-27570797D01*
X12674167Y-27570797D01*
X12631541Y-27673451D01*
X12624252Y-27684360D01*
X12621715Y-27697115D01*
X12608422Y-27729128D01*
X12608392Y-27764095D01*
X12566400Y-27975199D01*
X12608025Y-28184462D01*
X12607890Y-28339789D01*
X12690615Y-28540000D01*
X12397091Y-28540000D01*
X12216821Y-28465145D01*
X11884637Y-28464855D01*
X11577628Y-28591708D01*
X11342534Y-28826393D01*
X11215145Y-29133179D01*
X11214855Y-29465363D01*
X11341708Y-29772372D01*
X11576393Y-30007466D01*
X11883179Y-30134855D01*
X12215363Y-30135145D01*
X12397229Y-30060000D01*
X12745477Y-30060000D01*
X12724210Y-30074210D01*
X12724208Y-30074213D01*
X11974210Y-30824210D01*
X11782367Y-31111325D01*
X11775640Y-31145145D01*
X11714999Y-31450000D01*
X11715000Y-31450005D01*
X11715000Y-31502560D01*
X10250000Y-31502560D01*
X10014683Y-31546838D01*
X9798559Y-31685910D01*
X9653569Y-31898110D01*
X9602560Y-32150000D01*
X9602560Y-32240000D01*
X8554802Y-32240000D01*
X6719802Y-30405000D01*
X7373000Y-30405000D01*
X7373000Y-29597000D01*
X7627000Y-29597000D01*
X7627000Y-30405000D01*
X8327000Y-30405000D01*
X8675142Y-30285227D01*
X8950948Y-30041343D01*
X9095063Y-29740347D01*
X8965790Y-29597000D01*
X7627000Y-29597000D01*
X7373000Y-29597000D01*
X6034210Y-29597000D01*
X5976166Y-29661364D01*
X5129999Y-28815197D01*
X5129999Y-27159999D01*
X5075294Y-26884981D01*
X5072147Y-26869159D01*
X4907400Y-26622598D01*
X4352832Y-26068030D01*
X4278292Y-25887628D01*
X4165943Y-25775083D01*
X4298903Y-25642123D01*
X4463650Y-25395561D01*
X4521502Y-25104722D01*
X4521502Y-23905278D01*
X4463650Y-23614439D01*
X4298903Y-23367877D01*
X3513625Y-22582599D01*
X3267063Y-22417852D01*
X3124466Y-22389487D01*
X3245859Y-22207809D01*
X3290272Y-21984530D01*
X3293109Y-21981693D01*
X3537363Y-21880770D01*
X3779918Y-21638638D01*
X3903923Y-21340000D01*
X5887043Y-21340000D01*
X6023900Y-21312777D01*
X6023959Y-21312869D01*
G36*
X36290000Y-11677736D02*
X36163890Y-11591569D01*
X35912000Y-11540560D01*
X34388000Y-11540560D01*
X34152683Y-11584838D01*
X33936559Y-11723910D01*
X33801475Y-11921612D01*
X33701890Y-11853569D01*
X33450000Y-11802560D01*
X32550000Y-11802560D01*
X32314683Y-11846838D01*
X32098559Y-11985910D01*
X31999367Y-12131083D01*
X31914090Y-11998559D01*
X31701890Y-11853569D01*
X31450000Y-11802560D01*
X30550000Y-11802560D01*
X30314683Y-11846838D01*
X30098559Y-11985910D01*
X29953569Y-12198110D01*
X29902560Y-12450000D01*
X29902560Y-12950000D01*
X29946838Y-13185317D01*
X30085910Y-13401441D01*
X30155711Y-13449134D01*
X30098559Y-13485910D01*
X29953569Y-13698110D01*
X29902560Y-13950000D01*
X29902560Y-14450000D01*
X29946838Y-14685317D01*
X30085910Y-14901441D01*
X30194479Y-14975623D01*
X29729097Y-15441005D01*
X29666821Y-15415145D01*
X29334637Y-15414855D01*
X29027628Y-15541708D01*
X28792534Y-15776393D01*
X28665145Y-16083179D01*
X28664855Y-16415363D01*
X28791708Y-16722372D01*
X29026393Y-16957466D01*
X29333179Y-17084855D01*
X29665363Y-17085145D01*
X29847229Y-17010000D01*
X29965000Y-17010000D01*
X29965000Y-17027002D01*
X30123748Y-17027002D01*
X29965000Y-17185750D01*
X29965000Y-17426310D01*
X30061673Y-17659699D01*
X30240302Y-17838327D01*
X30473691Y-17935000D01*
X30764250Y-17935000D01*
X30923000Y-17776250D01*
X30923000Y-17027000D01*
X30903000Y-17027000D01*
X30903000Y-16773000D01*
X30923000Y-16773000D01*
X30923000Y-16753000D01*
X31177000Y-16753000D01*
X31177000Y-16773000D01*
X31976250Y-16773000D01*
X32062262Y-16686988D01*
X32135910Y-16801441D01*
X32281083Y-16900633D01*
X32148559Y-16985910D01*
X32061936Y-17112686D01*
X31976250Y-17027000D01*
X31177000Y-17027000D01*
X31177000Y-17776250D01*
X31335750Y-17935000D01*
X31626309Y-17935000D01*
X31859698Y-17838327D01*
X31952560Y-17745466D01*
X31952560Y-18250000D01*
X31996838Y-18485317D01*
X32135910Y-18701441D01*
X32348110Y-18846431D01*
X32600000Y-18897440D01*
X33500000Y-18897440D01*
X33735317Y-18853162D01*
X33951441Y-18714090D01*
X33953135Y-18711611D01*
X33964990Y-18740303D01*
X34246105Y-19021909D01*
X33960001Y-18964999D01*
X31939999Y-18964999D01*
X31688630Y-19014999D01*
X30451000Y-19014999D01*
X30225235Y-19014802D01*
X29807924Y-19187232D01*
X29488365Y-19506234D01*
X29315207Y-19923243D01*
X29314813Y-20374774D01*
X29487243Y-20792085D01*
X29806245Y-21111644D01*
X29952560Y-21172400D01*
X29952560Y-21350000D01*
X29996838Y-21585317D01*
X30135910Y-21801441D01*
X30205711Y-21849134D01*
X30161697Y-21877456D01*
X30059161Y-21897852D01*
X29812599Y-22062599D01*
X26585198Y-25290000D01*
X26291638Y-25290000D01*
X26361350Y-25122115D01*
X26361649Y-24779389D01*
X26260000Y-24533379D01*
X26260000Y-24283776D01*
X26202148Y-23992937D01*
X26037401Y-23746375D01*
X24053625Y-21762599D01*
X23807063Y-21597852D01*
X23670078Y-21570604D01*
X24197146Y-21571063D01*
X24761526Y-21337866D01*
X25193706Y-20906441D01*
X25427888Y-20342468D01*
X25428420Y-19731807D01*
X25195223Y-19167427D01*
X24763798Y-18735247D01*
X24199825Y-18501065D01*
X23589164Y-18500533D01*
X23024784Y-18733730D01*
X22592604Y-19165155D01*
X22358422Y-19729128D01*
X22357890Y-20339789D01*
X22591087Y-20904169D01*
X23022512Y-21336349D01*
X23512958Y-21540000D01*
X22300000Y-21540000D01*
X22009161Y-21597852D01*
X21949972Y-21637401D01*
X21860000Y-21697518D01*
X21860000Y-19778386D01*
X21946431Y-19651890D01*
X21997440Y-19400000D01*
X21997440Y-18500000D01*
X21953162Y-18264683D01*
X21814090Y-18048559D01*
X21616250Y-17913381D01*
X21726420Y-17867860D01*
X21961514Y-17633175D01*
X22088903Y-17326389D01*
X22089193Y-16994205D01*
X21962340Y-16687196D01*
X21935000Y-16659808D01*
X21935000Y-16218620D01*
X21946431Y-16201890D01*
X21997440Y-15950000D01*
X21997440Y-15839789D01*
X22357890Y-15839789D01*
X22591087Y-16404169D01*
X23022512Y-16836349D01*
X23586485Y-17070531D01*
X24197146Y-17071063D01*
X24761526Y-16837866D01*
X25193706Y-16406441D01*
X25427888Y-15842468D01*
X25428420Y-15231807D01*
X25195223Y-14667427D01*
X24763798Y-14235247D01*
X24199825Y-14001065D01*
X23589164Y-14000533D01*
X23024784Y-14233730D01*
X22592604Y-14665155D01*
X22358422Y-15229128D01*
X22357890Y-15839789D01*
X21997440Y-15839789D01*
X21997440Y-15050000D01*
X21953162Y-14814683D01*
X21814090Y-14598559D01*
X21601890Y-14453569D01*
X21350000Y-14402560D01*
X20850000Y-14402560D01*
X20614683Y-14446838D01*
X20398559Y-14585910D01*
X20350866Y-14655711D01*
X20314090Y-14598559D01*
X20101890Y-14453569D01*
X19850000Y-14402560D01*
X19577362Y-14402560D01*
X19162400Y-13987598D01*
X18915838Y-13822851D01*
X18624999Y-13764999D01*
X16675001Y-13764999D01*
X16384161Y-13822851D01*
X16137600Y-13987598D01*
X15112599Y-15012599D01*
X14993063Y-15191498D01*
X14964683Y-15196838D01*
X14748559Y-15335910D01*
X14603569Y-15548110D01*
X14552560Y-15800000D01*
X14552560Y-16600000D01*
X14596838Y-16835317D01*
X14735910Y-17051441D01*
X14948110Y-17196431D01*
X15200000Y-17247440D01*
X15397361Y-17247440D01*
X15456265Y-17390000D01*
X14966193Y-17390000D01*
X14722115Y-17288650D01*
X14379389Y-17288351D01*
X14062637Y-17419230D01*
X13820082Y-17661362D01*
X13723827Y-17893170D01*
X13472115Y-17788650D01*
X13129389Y-17788351D01*
X12812637Y-17919230D01*
X12570082Y-18161362D01*
X12438650Y-18477885D01*
X12438630Y-18500837D01*
X12089164Y-18500533D01*
X11524784Y-18733730D01*
X11092604Y-19165155D01*
X10959795Y-19484993D01*
X10617401Y-19142599D01*
X10370839Y-18977852D01*
X10080000Y-18920000D01*
X9460009Y-18920000D01*
X9460009Y-16015007D01*
X9425156Y-15839789D01*
X10857890Y-15839789D01*
X11091087Y-16404169D01*
X11522512Y-16836349D01*
X12086485Y-17070531D01*
X12697146Y-17071063D01*
X13261526Y-16837866D01*
X13693706Y-16406441D01*
X13927888Y-15842468D01*
X13928420Y-15231807D01*
X13695223Y-14667427D01*
X13263798Y-14235247D01*
X12699825Y-14001065D01*
X12089164Y-14000533D01*
X11524784Y-14233730D01*
X11092604Y-14665155D01*
X10858422Y-15229128D01*
X10857890Y-15839789D01*
X9425156Y-15839789D01*
X9402157Y-15724168D01*
X9237410Y-15477606D01*
X9022394Y-15262590D01*
X8953852Y-15216792D01*
X8972440Y-15125000D01*
X8972440Y-14325000D01*
X8928162Y-14089683D01*
X8789090Y-13873559D01*
X8635000Y-13768274D01*
X8635000Y-13375000D01*
X8577148Y-13084161D01*
X8572440Y-13077115D01*
X8572440Y-12725000D01*
X8528162Y-12489683D01*
X8431708Y-12339789D01*
X12607890Y-12339789D01*
X12841087Y-12904169D01*
X13272512Y-13336349D01*
X13836485Y-13570531D01*
X14447146Y-13571063D01*
X15011526Y-13337866D01*
X15443706Y-12906441D01*
X15677888Y-12342468D01*
X15678420Y-11731807D01*
X15516442Y-11339789D01*
X16607890Y-11339789D01*
X16841087Y-11904169D01*
X17272512Y-12336349D01*
X17836485Y-12570531D01*
X18447146Y-12571063D01*
X19006871Y-12339789D01*
X20607890Y-12339789D01*
X20841087Y-12904169D01*
X21272512Y-13336349D01*
X21836485Y-13570531D01*
X22447146Y-13571063D01*
X23011526Y-13337866D01*
X23443706Y-12906441D01*
X23677888Y-12342468D01*
X23678420Y-11731807D01*
X23445223Y-11167427D01*
X23013798Y-10735247D01*
X22449825Y-10501065D01*
X21839164Y-10500533D01*
X21274784Y-10733730D01*
X20842604Y-11165155D01*
X20608422Y-11729128D01*
X20607890Y-12339789D01*
X19006871Y-12339789D01*
X19011526Y-12337866D01*
X19443706Y-11906441D01*
X19677888Y-11342468D01*
X19678420Y-10731807D01*
X19445223Y-10167427D01*
X19013798Y-9735247D01*
X18449825Y-9501065D01*
X17839164Y-9500533D01*
X17274784Y-9733730D01*
X16842604Y-10165155D01*
X16608422Y-10729128D01*
X16607890Y-11339789D01*
X15516442Y-11339789D01*
X15445223Y-11167427D01*
X15013798Y-10735247D01*
X14449825Y-10501065D01*
X13839164Y-10500533D01*
X13274784Y-10733730D01*
X12842604Y-11165155D01*
X12608422Y-11729128D01*
X12607890Y-12339789D01*
X8431708Y-12339789D01*
X8389090Y-12273559D01*
X8176890Y-12128569D01*
X7925000Y-12077560D01*
X7425000Y-12077560D01*
X7189683Y-12121838D01*
X6973559Y-12260910D01*
X6925866Y-12330711D01*
X6889090Y-12273559D01*
X6676890Y-12128569D01*
X6425000Y-12077560D01*
X5925000Y-12077560D01*
X5689683Y-12121838D01*
X5473559Y-12260910D01*
X5328569Y-12473110D01*
X5277560Y-12725000D01*
X5277560Y-13625000D01*
X5321838Y-13860317D01*
X5415000Y-14005095D01*
X5415000Y-14460002D01*
X5448330Y-14627560D01*
X5425000Y-14627560D01*
X5189683Y-14671838D01*
X4973559Y-14810910D01*
X4828569Y-15023110D01*
X4777560Y-15275000D01*
X4777560Y-16075000D01*
X4821838Y-16310317D01*
X4960910Y-16526441D01*
X5115000Y-16631726D01*
X5115000Y-17725000D01*
X5172852Y-18015839D01*
X5327560Y-18247377D01*
X5327560Y-18525000D01*
X5371838Y-18760317D01*
X5510910Y-18976441D01*
X5723110Y-19121431D01*
X5975000Y-19172440D01*
X6475000Y-19172440D01*
X6710317Y-19128162D01*
X6926441Y-18989090D01*
X6974134Y-18919289D01*
X6988620Y-18941802D01*
X6988351Y-19250611D01*
X7114794Y-19556626D01*
X7038860Y-19632560D01*
X6500000Y-19632560D01*
X6491273Y-19634202D01*
X6245613Y-19532195D01*
X5902887Y-19531896D01*
X5586135Y-19662775D01*
X5428635Y-19820000D01*
X4460731Y-19820000D01*
X4657466Y-19623607D01*
X4784855Y-19316821D01*
X4785145Y-18984637D01*
X4710000Y-18802771D01*
X4710000Y-18750000D01*
X4652148Y-18459161D01*
X4487401Y-18212599D01*
X4247440Y-17972638D01*
X4247440Y-17700000D01*
X4230951Y-17612367D01*
X4409698Y-17538327D01*
X4588327Y-17359699D01*
X4685000Y-17126310D01*
X4685000Y-16885750D01*
X4526250Y-16727000D01*
X3727000Y-16727000D01*
X3727000Y-16747000D01*
X3473000Y-16747000D01*
X3473000Y-16727000D01*
X3453000Y-16727000D01*
X3453000Y-16473000D01*
X3473000Y-16473000D01*
X3473000Y-16453000D01*
X3727000Y-16453000D01*
X3727000Y-16473000D01*
X4526250Y-16473000D01*
X4685000Y-16314250D01*
X4685000Y-16073690D01*
X4588327Y-15840301D01*
X4409698Y-15661673D01*
X4373253Y-15646577D01*
X4501441Y-15564090D01*
X4646431Y-15351890D01*
X4697440Y-15100000D01*
X4697440Y-14300000D01*
X4653162Y-14064683D01*
X4514090Y-13848559D01*
X4360000Y-13743274D01*
X4360000Y-13450000D01*
X4302148Y-13159161D01*
X4197440Y-13002454D01*
X4197440Y-12700000D01*
X4153162Y-12464683D01*
X4014090Y-12248559D01*
X3801890Y-12103569D01*
X3550000Y-12052560D01*
X3050000Y-12052560D01*
X2814683Y-12096838D01*
X2598559Y-12235910D01*
X2550866Y-12305711D01*
X2514090Y-12248559D01*
X2301890Y-12103569D01*
X2050000Y-12052560D01*
X1550000Y-12052560D01*
X1314683Y-12096838D01*
X1098559Y-12235910D01*
X953569Y-12448110D01*
X902560Y-12700000D01*
X902560Y-13600000D01*
X946838Y-13835317D01*
X1040000Y-13980095D01*
X1040000Y-14335002D01*
X1095270Y-14612858D01*
X914683Y-14646838D01*
X710000Y-14778548D01*
X710000Y-8172325D01*
X1114587Y-8172325D01*
X1476916Y-9049229D01*
X2147242Y-9720726D01*
X3023513Y-10084585D01*
X3972325Y-10085413D01*
X4849229Y-9723084D01*
X5520726Y-9052758D01*
X5884585Y-8176487D01*
X5885413Y-7227675D01*
X5523084Y-6350771D01*
X5437463Y-6265000D01*
X21020238Y-6265000D01*
X21020238Y-9785000D01*
X26499762Y-9785000D01*
X26499762Y-8172325D01*
X30914587Y-8172325D01*
X31276916Y-9049229D01*
X31947242Y-9720726D01*
X32823513Y-10084585D01*
X33772325Y-10085413D01*
X34649229Y-9723084D01*
X35320726Y-9052758D01*
X35684585Y-8176487D01*
X35685413Y-7227675D01*
X35323084Y-6350771D01*
X34652758Y-5679274D01*
X33776487Y-5315415D01*
X32827675Y-5314587D01*
X31950771Y-5676916D01*
X31279274Y-6347242D01*
X30915415Y-7223513D01*
X30914587Y-8172325D01*
X26499762Y-8172325D01*
X26499762Y-6265000D01*
X21020238Y-6265000D01*
X5437463Y-6265000D01*
X4852758Y-5679274D01*
X3976487Y-5315415D01*
X3027675Y-5314587D01*
X2150771Y-5676916D01*
X1479274Y-6347242D01*
X1115415Y-7223513D01*
X1114587Y-8172325D01*
X710000Y-8172325D01*
X710000Y-5017000D01*
X36290000Y-5017000D01*
X36290000Y-11677736D01*
X36290000Y-11677736D01*
G37*
X36290000Y-11677736D02*
X36163890Y-11591569D01*
X35912000Y-11540560D01*
X34388000Y-11540560D01*
X34152683Y-11584838D01*
X33936559Y-11723910D01*
X33801475Y-11921612D01*
X33701890Y-11853569D01*
X33450000Y-11802560D01*
X32550000Y-11802560D01*
X32314683Y-11846838D01*
X32098559Y-11985910D01*
X31999367Y-12131083D01*
X31914090Y-11998559D01*
X31701890Y-11853569D01*
X31450000Y-11802560D01*
X30550000Y-11802560D01*
X30314683Y-11846838D01*
X30098559Y-11985910D01*
X29953569Y-12198110D01*
X29902560Y-12450000D01*
X29902560Y-12950000D01*
X29946838Y-13185317D01*
X30085910Y-13401441D01*
X30155711Y-13449134D01*
X30098559Y-13485910D01*
X29953569Y-13698110D01*
X29902560Y-13950000D01*
X29902560Y-14450000D01*
X29946838Y-14685317D01*
X30085910Y-14901441D01*
X30194479Y-14975623D01*
X29729097Y-15441005D01*
X29666821Y-15415145D01*
X29334637Y-15414855D01*
X29027628Y-15541708D01*
X28792534Y-15776393D01*
X28665145Y-16083179D01*
X28664855Y-16415363D01*
X28791708Y-16722372D01*
X29026393Y-16957466D01*
X29333179Y-17084855D01*
X29665363Y-17085145D01*
X29847229Y-17010000D01*
X29965000Y-17010000D01*
X29965000Y-17027002D01*
X30123748Y-17027002D01*
X29965000Y-17185750D01*
X29965000Y-17426310D01*
X30061673Y-17659699D01*
X30240302Y-17838327D01*
X30473691Y-17935000D01*
X30764250Y-17935000D01*
X30923000Y-17776250D01*
X30923000Y-17027000D01*
X30903000Y-17027000D01*
X30903000Y-16773000D01*
X30923000Y-16773000D01*
X30923000Y-16753000D01*
X31177000Y-16753000D01*
X31177000Y-16773000D01*
X31976250Y-16773000D01*
X32062262Y-16686988D01*
X32135910Y-16801441D01*
X32281083Y-16900633D01*
X32148559Y-16985910D01*
X32061936Y-17112686D01*
X31976250Y-17027000D01*
X31177000Y-17027000D01*
X31177000Y-17776250D01*
X31335750Y-17935000D01*
X31626309Y-17935000D01*
X31859698Y-17838327D01*
X31952560Y-17745466D01*
X31952560Y-18250000D01*
X31996838Y-18485317D01*
X32135910Y-18701441D01*
X32348110Y-18846431D01*
X32600000Y-18897440D01*
X33500000Y-18897440D01*
X33735317Y-18853162D01*
X33951441Y-18714090D01*
X33953135Y-18711611D01*
X33964990Y-18740303D01*
X34246105Y-19021909D01*
X33960001Y-18964999D01*
X31939999Y-18964999D01*
X31688630Y-19014999D01*
X30451000Y-19014999D01*
X30225235Y-19014802D01*
X29807924Y-19187232D01*
X29488365Y-19506234D01*
X29315207Y-19923243D01*
X29314813Y-20374774D01*
X29487243Y-20792085D01*
X29806245Y-21111644D01*
X29952560Y-21172400D01*
X29952560Y-21350000D01*
X29996838Y-21585317D01*
X30135910Y-21801441D01*
X30205711Y-21849134D01*
X30161697Y-21877456D01*
X30059161Y-21897852D01*
X29812599Y-22062599D01*
X26585198Y-25290000D01*
X26291638Y-25290000D01*
X26361350Y-25122115D01*
X26361649Y-24779389D01*
X26260000Y-24533379D01*
X26260000Y-24283776D01*
X26202148Y-23992937D01*
X26037401Y-23746375D01*
X24053625Y-21762599D01*
X23807063Y-21597852D01*
X23670078Y-21570604D01*
X24197146Y-21571063D01*
X24761526Y-21337866D01*
X25193706Y-20906441D01*
X25427888Y-20342468D01*
X25428420Y-19731807D01*
X25195223Y-19167427D01*
X24763798Y-18735247D01*
X24199825Y-18501065D01*
X23589164Y-18500533D01*
X23024784Y-18733730D01*
X22592604Y-19165155D01*
X22358422Y-19729128D01*
X22357890Y-20339789D01*
X22591087Y-20904169D01*
X23022512Y-21336349D01*
X23512958Y-21540000D01*
X22300000Y-21540000D01*
X22009161Y-21597852D01*
X21949972Y-21637401D01*
X21860000Y-21697518D01*
X21860000Y-19778386D01*
X21946431Y-19651890D01*
X21997440Y-19400000D01*
X21997440Y-18500000D01*
X21953162Y-18264683D01*
X21814090Y-18048559D01*
X21616250Y-17913381D01*
X21726420Y-17867860D01*
X21961514Y-17633175D01*
X22088903Y-17326389D01*
X22089193Y-16994205D01*
X21962340Y-16687196D01*
X21935000Y-16659808D01*
X21935000Y-16218620D01*
X21946431Y-16201890D01*
X21997440Y-15950000D01*
X21997440Y-15839789D01*
X22357890Y-15839789D01*
X22591087Y-16404169D01*
X23022512Y-16836349D01*
X23586485Y-17070531D01*
X24197146Y-17071063D01*
X24761526Y-16837866D01*
X25193706Y-16406441D01*
X25427888Y-15842468D01*
X25428420Y-15231807D01*
X25195223Y-14667427D01*
X24763798Y-14235247D01*
X24199825Y-14001065D01*
X23589164Y-14000533D01*
X23024784Y-14233730D01*
X22592604Y-14665155D01*
X22358422Y-15229128D01*
X22357890Y-15839789D01*
X21997440Y-15839789D01*
X21997440Y-15050000D01*
X21953162Y-14814683D01*
X21814090Y-14598559D01*
X21601890Y-14453569D01*
X21350000Y-14402560D01*
X20850000Y-14402560D01*
X20614683Y-14446838D01*
X20398559Y-14585910D01*
X20350866Y-14655711D01*
X20314090Y-14598559D01*
X20101890Y-14453569D01*
X19850000Y-14402560D01*
X19577362Y-14402560D01*
X19162400Y-13987598D01*
X18915838Y-13822851D01*
X18624999Y-13764999D01*
X16675001Y-13764999D01*
X16384161Y-13822851D01*
X16137600Y-13987598D01*
X15112599Y-15012599D01*
X14993063Y-15191498D01*
X14964683Y-15196838D01*
X14748559Y-15335910D01*
X14603569Y-15548110D01*
X14552560Y-15800000D01*
X14552560Y-16600000D01*
X14596838Y-16835317D01*
X14735910Y-17051441D01*
X14948110Y-17196431D01*
X15200000Y-17247440D01*
X15397361Y-17247440D01*
X15456265Y-17390000D01*
X14966193Y-17390000D01*
X14722115Y-17288650D01*
X14379389Y-17288351D01*
X14062637Y-17419230D01*
X13820082Y-17661362D01*
X13723827Y-17893170D01*
X13472115Y-17788650D01*
X13129389Y-17788351D01*
X12812637Y-17919230D01*
X12570082Y-18161362D01*
X12438650Y-18477885D01*
X12438630Y-18500837D01*
X12089164Y-18500533D01*
X11524784Y-18733730D01*
X11092604Y-19165155D01*
X10959795Y-19484993D01*
X10617401Y-19142599D01*
X10370839Y-18977852D01*
X10080000Y-18920000D01*
X9460009Y-18920000D01*
X9460009Y-16015007D01*
X9425156Y-15839789D01*
X10857890Y-15839789D01*
X11091087Y-16404169D01*
X11522512Y-16836349D01*
X12086485Y-17070531D01*
X12697146Y-17071063D01*
X13261526Y-16837866D01*
X13693706Y-16406441D01*
X13927888Y-15842468D01*
X13928420Y-15231807D01*
X13695223Y-14667427D01*
X13263798Y-14235247D01*
X12699825Y-14001065D01*
X12089164Y-14000533D01*
X11524784Y-14233730D01*
X11092604Y-14665155D01*
X10858422Y-15229128D01*
X10857890Y-15839789D01*
X9425156Y-15839789D01*
X9402157Y-15724168D01*
X9237410Y-15477606D01*
X9022394Y-15262590D01*
X8953852Y-15216792D01*
X8972440Y-15125000D01*
X8972440Y-14325000D01*
X8928162Y-14089683D01*
X8789090Y-13873559D01*
X8635000Y-13768274D01*
X8635000Y-13375000D01*
X8577148Y-13084161D01*
X8572440Y-13077115D01*
X8572440Y-12725000D01*
X8528162Y-12489683D01*
X8431708Y-12339789D01*
X12607890Y-12339789D01*
X12841087Y-12904169D01*
X13272512Y-13336349D01*
X13836485Y-13570531D01*
X14447146Y-13571063D01*
X15011526Y-13337866D01*
X15443706Y-12906441D01*
X15677888Y-12342468D01*
X15678420Y-11731807D01*
X15516442Y-11339789D01*
X16607890Y-11339789D01*
X16841087Y-11904169D01*
X17272512Y-12336349D01*
X17836485Y-12570531D01*
X18447146Y-12571063D01*
X19006871Y-12339789D01*
X20607890Y-12339789D01*
X20841087Y-12904169D01*
X21272512Y-13336349D01*
X21836485Y-13570531D01*
X22447146Y-13571063D01*
X23011526Y-13337866D01*
X23443706Y-12906441D01*
X23677888Y-12342468D01*
X23678420Y-11731807D01*
X23445223Y-11167427D01*
X23013798Y-10735247D01*
X22449825Y-10501065D01*
X21839164Y-10500533D01*
X21274784Y-10733730D01*
X20842604Y-11165155D01*
X20608422Y-11729128D01*
X20607890Y-12339789D01*
X19006871Y-12339789D01*
X19011526Y-12337866D01*
X19443706Y-11906441D01*
X19677888Y-11342468D01*
X19678420Y-10731807D01*
X19445223Y-10167427D01*
X19013798Y-9735247D01*
X18449825Y-9501065D01*
X17839164Y-9500533D01*
X17274784Y-9733730D01*
X16842604Y-10165155D01*
X16608422Y-10729128D01*
X16607890Y-11339789D01*
X15516442Y-11339789D01*
X15445223Y-11167427D01*
X15013798Y-10735247D01*
X14449825Y-10501065D01*
X13839164Y-10500533D01*
X13274784Y-10733730D01*
X12842604Y-11165155D01*
X12608422Y-11729128D01*
X12607890Y-12339789D01*
X8431708Y-12339789D01*
X8389090Y-12273559D01*
X8176890Y-12128569D01*
X7925000Y-12077560D01*
X7425000Y-12077560D01*
X7189683Y-12121838D01*
X6973559Y-12260910D01*
X6925866Y-12330711D01*
X6889090Y-12273559D01*
X6676890Y-12128569D01*
X6425000Y-12077560D01*
X5925000Y-12077560D01*
X5689683Y-12121838D01*
X5473559Y-12260910D01*
X5328569Y-12473110D01*
X5277560Y-12725000D01*
X5277560Y-13625000D01*
X5321838Y-13860317D01*
X5415000Y-14005095D01*
X5415000Y-14460002D01*
X5448330Y-14627560D01*
X5425000Y-14627560D01*
X5189683Y-14671838D01*
X4973559Y-14810910D01*
X4828569Y-15023110D01*
X4777560Y-15275000D01*
X4777560Y-16075000D01*
X4821838Y-16310317D01*
X4960910Y-16526441D01*
X5115000Y-16631726D01*
X5115000Y-17725000D01*
X5172852Y-18015839D01*
X5327560Y-18247377D01*
X5327560Y-18525000D01*
X5371838Y-18760317D01*
X5510910Y-18976441D01*
X5723110Y-19121431D01*
X5975000Y-19172440D01*
X6475000Y-19172440D01*
X6710317Y-19128162D01*
X6926441Y-18989090D01*
X6974134Y-18919289D01*
X6988620Y-18941802D01*
X6988351Y-19250611D01*
X7114794Y-19556626D01*
X7038860Y-19632560D01*
X6500000Y-19632560D01*
X6491273Y-19634202D01*
X6245613Y-19532195D01*
X5902887Y-19531896D01*
X5586135Y-19662775D01*
X5428635Y-19820000D01*
X4460731Y-19820000D01*
X4657466Y-19623607D01*
X4784855Y-19316821D01*
X4785145Y-18984637D01*
X4710000Y-18802771D01*
X4710000Y-18750000D01*
X4652148Y-18459161D01*
X4487401Y-18212599D01*
X4247440Y-17972638D01*
X4247440Y-17700000D01*
X4230951Y-17612367D01*
X4409698Y-17538327D01*
X4588327Y-17359699D01*
X4685000Y-17126310D01*
X4685000Y-16885750D01*
X4526250Y-16727000D01*
X3727000Y-16727000D01*
X3727000Y-16747000D01*
X3473000Y-16747000D01*
X3473000Y-16727000D01*
X3453000Y-16727000D01*
X3453000Y-16473000D01*
X3473000Y-16473000D01*
X3473000Y-16453000D01*
X3727000Y-16453000D01*
X3727000Y-16473000D01*
X4526250Y-16473000D01*
X4685000Y-16314250D01*
X4685000Y-16073690D01*
X4588327Y-15840301D01*
X4409698Y-15661673D01*
X4373253Y-15646577D01*
X4501441Y-15564090D01*
X4646431Y-15351890D01*
X4697440Y-15100000D01*
X4697440Y-14300000D01*
X4653162Y-14064683D01*
X4514090Y-13848559D01*
X4360000Y-13743274D01*
X4360000Y-13450000D01*
X4302148Y-13159161D01*
X4197440Y-13002454D01*
X4197440Y-12700000D01*
X4153162Y-12464683D01*
X4014090Y-12248559D01*
X3801890Y-12103569D01*
X3550000Y-12052560D01*
X3050000Y-12052560D01*
X2814683Y-12096838D01*
X2598559Y-12235910D01*
X2550866Y-12305711D01*
X2514090Y-12248559D01*
X2301890Y-12103569D01*
X2050000Y-12052560D01*
X1550000Y-12052560D01*
X1314683Y-12096838D01*
X1098559Y-12235910D01*
X953569Y-12448110D01*
X902560Y-12700000D01*
X902560Y-13600000D01*
X946838Y-13835317D01*
X1040000Y-13980095D01*
X1040000Y-14335002D01*
X1095270Y-14612858D01*
X914683Y-14646838D01*
X710000Y-14778548D01*
X710000Y-8172325D01*
X1114587Y-8172325D01*
X1476916Y-9049229D01*
X2147242Y-9720726D01*
X3023513Y-10084585D01*
X3972325Y-10085413D01*
X4849229Y-9723084D01*
X5520726Y-9052758D01*
X5884585Y-8176487D01*
X5885413Y-7227675D01*
X5523084Y-6350771D01*
X5437463Y-6265000D01*
X21020238Y-6265000D01*
X21020238Y-9785000D01*
X26499762Y-9785000D01*
X26499762Y-8172325D01*
X30914587Y-8172325D01*
X31276916Y-9049229D01*
X31947242Y-9720726D01*
X32823513Y-10084585D01*
X33772325Y-10085413D01*
X34649229Y-9723084D01*
X35320726Y-9052758D01*
X35684585Y-8176487D01*
X35685413Y-7227675D01*
X35323084Y-6350771D01*
X34652758Y-5679274D01*
X33776487Y-5315415D01*
X32827675Y-5314587D01*
X31950771Y-5676916D01*
X31279274Y-6347242D01*
X30915415Y-7223513D01*
X30914587Y-8172325D01*
X26499762Y-8172325D01*
X26499762Y-6265000D01*
X21020238Y-6265000D01*
X5437463Y-6265000D01*
X4852758Y-5679274D01*
X3976487Y-5315415D01*
X3027675Y-5314587D01*
X2150771Y-5676916D01*
X1479274Y-6347242D01*
X1115415Y-7223513D01*
X1114587Y-8172325D01*
X710000Y-8172325D01*
X710000Y-5017000D01*
X36290000Y-5017000D01*
X36290000Y-11677736D01*
G36*
X1777000Y-24263000D02*
X1797000Y-24263000D01*
X1797000Y-24517000D01*
X1777000Y-24517000D01*
X1777000Y-24537000D01*
X1523000Y-24537000D01*
X1523000Y-24517000D01*
X1503000Y-24517000D01*
X1503000Y-24263000D01*
X1523000Y-24263000D01*
X1523000Y-24243000D01*
X1777000Y-24243000D01*
X1777000Y-24263000D01*
X1777000Y-24263000D01*
G37*
X1777000Y-24263000D02*
X1797000Y-24263000D01*
X1797000Y-24517000D01*
X1777000Y-24517000D01*
X1777000Y-24537000D01*
X1523000Y-24537000D01*
X1523000Y-24517000D01*
X1503000Y-24517000D01*
X1503000Y-24263000D01*
X1523000Y-24263000D01*
X1523000Y-24243000D01*
X1777000Y-24243000D01*
X1777000Y-24263000D01*
G36*
X6948750Y-16498000D02*
X7217956Y-16498000D01*
X7224150Y-16502139D01*
X7514989Y-16559991D01*
X7940009Y-16559991D01*
X7940009Y-16772000D01*
X7748000Y-16772000D01*
X7748000Y-16752000D01*
X6948750Y-16752000D01*
X6790000Y-16910750D01*
X6790000Y-17071690D01*
X6726890Y-17028569D01*
X6635000Y-17009961D01*
X6635000Y-16630105D01*
X6776441Y-16539090D01*
X6863064Y-16412314D01*
X6948750Y-16498000D01*
X6948750Y-16498000D01*
G37*
X6948750Y-16498000D02*
X7217956Y-16498000D01*
X7224150Y-16502139D01*
X7514989Y-16559991D01*
X7940009Y-16559991D01*
X7940009Y-16772000D01*
X7748000Y-16772000D01*
X7748000Y-16752000D01*
X6948750Y-16752000D01*
X6790000Y-16910750D01*
X6790000Y-17071690D01*
X6726890Y-17028569D01*
X6635000Y-17009961D01*
X6635000Y-16630105D01*
X6776441Y-16539090D01*
X6863064Y-16412314D01*
X6948750Y-16498000D01*
G36*
X9711673Y-790301D02*
X9615000Y-1023690D01*
X9615000Y-1714250D01*
X9773750Y-1873000D01*
X10973000Y-1873000D01*
X10973000Y-1853000D01*
X11227000Y-1853000D01*
X11227000Y-1873000D01*
X12426250Y-1873000D01*
X12585000Y-1714250D01*
X12585000Y-1023690D01*
X12488327Y-790301D01*
X12408026Y-710000D01*
X34241974Y-710000D01*
X34161673Y-790301D01*
X34065000Y-1023690D01*
X34065000Y-1714250D01*
X34223750Y-1873000D01*
X35423000Y-1873000D01*
X35423000Y-1853000D01*
X35677000Y-1853000D01*
X35677000Y-1873000D01*
X35697000Y-1873000D01*
X35697000Y-2127000D01*
X35677000Y-2127000D01*
X35677000Y-3326250D01*
X35835750Y-3485000D01*
X36290000Y-3485000D01*
X36290000Y-3501583D01*
X12159438Y-3450567D01*
X12309698Y-3388327D01*
X12488327Y-3209699D01*
X12585000Y-2976310D01*
X12585000Y-2285750D01*
X34065000Y-2285750D01*
X34065000Y-2976310D01*
X34161673Y-3209699D01*
X34340302Y-3388327D01*
X34573691Y-3485000D01*
X35264250Y-3485000D01*
X35423000Y-3326250D01*
X35423000Y-2127000D01*
X34223750Y-2127000D01*
X34065000Y-2285750D01*
X12585000Y-2285750D01*
X12426250Y-2127000D01*
X11227000Y-2127000D01*
X11227000Y-2147000D01*
X10973000Y-2147000D01*
X10973000Y-2127000D01*
X9773750Y-2127000D01*
X9615000Y-2285750D01*
X9615000Y-2976310D01*
X9711673Y-3209699D01*
X9890302Y-3388327D01*
X10029692Y-3446064D01*
X8704668Y-3443263D01*
X8653895Y-710000D01*
X9791974Y-710000D01*
X9711673Y-790301D01*
X9711673Y-790301D01*
G37*
X9711673Y-790301D02*
X9615000Y-1023690D01*
X9615000Y-1714250D01*
X9773750Y-1873000D01*
X10973000Y-1873000D01*
X10973000Y-1853000D01*
X11227000Y-1853000D01*
X11227000Y-1873000D01*
X12426250Y-1873000D01*
X12585000Y-1714250D01*
X12585000Y-1023690D01*
X12488327Y-790301D01*
X12408026Y-710000D01*
X34241974Y-710000D01*
X34161673Y-790301D01*
X34065000Y-1023690D01*
X34065000Y-1714250D01*
X34223750Y-1873000D01*
X35423000Y-1873000D01*
X35423000Y-1853000D01*
X35677000Y-1853000D01*
X35677000Y-1873000D01*
X35697000Y-1873000D01*
X35697000Y-2127000D01*
X35677000Y-2127000D01*
X35677000Y-3326250D01*
X35835750Y-3485000D01*
X36290000Y-3485000D01*
X36290000Y-3501583D01*
X12159438Y-3450567D01*
X12309698Y-3388327D01*
X12488327Y-3209699D01*
X12585000Y-2976310D01*
X12585000Y-2285750D01*
X34065000Y-2285750D01*
X34065000Y-2976310D01*
X34161673Y-3209699D01*
X34340302Y-3388327D01*
X34573691Y-3485000D01*
X35264250Y-3485000D01*
X35423000Y-3326250D01*
X35423000Y-2127000D01*
X34223750Y-2127000D01*
X34065000Y-2285750D01*
X12585000Y-2285750D01*
X12426250Y-2127000D01*
X11227000Y-2127000D01*
X11227000Y-2147000D01*
X10973000Y-2147000D01*
X10973000Y-2127000D01*
X9773750Y-2127000D01*
X9615000Y-2285750D01*
X9615000Y-2976310D01*
X9711673Y-3209699D01*
X9890302Y-3388327D01*
X10029692Y-3446064D01*
X8704668Y-3443263D01*
X8653895Y-710000D01*
X9791974Y-710000D01*
X9711673Y-790301D01*
M02*
