M48
;DRILL file {KiCad 4.0.7} date 11/15/17 23:52:32
;FORMAT={-:-/ absolute / metric / decimal}
FMAT,2
METRIC,TZ
T1C0.300
T2C0.600
T3C0.762
T4C0.800
T5C1.000
T6C3.150
%
G90
G05
M71
T1
X1.59Y-21.123
X1.6Y-30.74
X1.65Y-28.72
X2.361Y-26.23
X2.425Y-19.771
X3.05Y-21.15
X3.09Y-24.38
X3.57Y-26.36
X3.85Y-19.75
X4.475Y-18.95
X4.625Y-16.6
X5.79Y-20.72
X6.16Y-29.3
X6.925Y-16.7
X7.85Y-19.08
X8.83Y-23.28
X8.85Y-19.68
X9.85Y-23.3
X10.62Y-24.399
X12.28Y-52.89
X12.655Y-34.91
X12.929Y-34.335
X12.965Y-40.864
X13.274Y-19.024
X13.33Y-19.85
X13.55Y-34.285
X13.55Y-38.7
X13.57Y-22.51
X13.6Y-2.
X13.85Y-15.75
X14.025Y-32.299
X14.025Y-33.091
X14.07Y-23.72
X14.337Y-28.986
X14.62Y-36.42
X14.8Y-21.825
X14.87Y-2.
X15.298Y-17.345
X16.001Y-36.644
X16.06Y-34.95
X16.2Y-2.
X16.471Y-37.823
X16.65Y-16.45
X16.775Y-15.025
X16.9Y-26.025
X16.99Y-43.23
X17.Y-31.98
X17.375Y-19.7
X17.6Y-36.575
X18.14Y-47.23
X18.61Y-52.93
X18.68Y-1.975
X18.75Y-45.1
X18.8Y-15.525
X19.137Y-26.55
X19.14Y-47.12
X20.35Y-26.7
X20.425Y-17.989
X20.45Y-24.7
X20.85Y-25.25
X21.125Y-30.062
X21.254Y-17.16
X21.52Y-29.14
X21.61Y-47.47
X21.911Y-52.259
X22.Y-42.95
X22.356Y-36.91
X22.78Y-53.868
X22.87Y-29.79
X23.101Y-47.47
X23.17Y-31.69
X23.23Y-28.87
X23.7Y-37.65
X23.845Y-27.098
X23.845Y-27.698
X24.026Y-55.1
X24.1Y-52.05
X24.14Y-47.416
X24.225Y-43.27
X24.726Y-52.234
X25.09Y-39.2
X25.13Y-47.03
X25.45Y-52.6
X25.916Y-52.978
X27.135Y-50.135
X27.14Y-32.055
X27.18Y-47.28
X27.499Y-40.82
X27.636Y-31.701
X27.9Y-30.075
X28.032Y-36.783
X28.05Y-41.21
X28.107Y-34.098
X28.299Y-42.51
X28.475Y-33.6
X28.581Y-37.025
X28.625Y-36.028
X28.775Y-35.229
X28.84Y-1.975
X28.995Y-42.425
X29.011Y-31.516
X29.175Y-33.575
X29.38Y-39.36
X29.5Y-21.65
X29.525Y-24.975
X29.92Y-44.05
X30.11Y-1.975
X30.91Y-37.59
X31.38Y-1.975
X32.35Y-33.4
X32.65Y-1.975
X33.8Y-46.43
X33.97Y-36.12
X34.04Y-41.86
X34.24Y-47.05
T2
X30.45Y-20.15
T3
X35.15Y-12.95
X35.15Y-17.95
X35.2Y-21.3
X35.2Y-26.3
T4
X10.1Y-18.2
X10.1Y-21.872
X11.693Y-14.892
X11.693Y-25.18
X14.564Y-12.603
X14.564Y-27.469
X18.143Y-11.786
X18.143Y-28.286
X21.723Y-12.603
X24.593Y-14.892
X24.593Y-25.18
X26.186Y-18.2
X26.186Y-21.872
T5
X11.1Y-2.
X11.1Y-33.
X11.1Y-35.54
X11.1Y-38.08
X11.1Y-40.62
X11.1Y-43.16
X11.1Y-45.7
X35.5Y-33.
X35.5Y-35.54
X35.5Y-38.08
X35.5Y-40.62
X35.5Y-43.16
X35.5Y-45.7
X35.55Y-2.
T6
X3.5Y-7.7
X4.7Y-51.9
X33.03Y-51.9
X33.3Y-7.7
T0
M30
