%TF.GenerationSoftware,KiCad,Pcbnew,4.0.7*%
%TF.CreationDate,2017-11-19T00:55:32+08:00*%
%TF.ProjectId,finalRoundNixie,66696E616C526F756E644E697869652E,rev?*%
%TF.FileFunction,Soldermask,Bot*%
%FSLAX46Y46*%
G04 Gerber Fmt 4.6, Leading zero omitted, Abs format (unit mm)*
G04 Created by KiCad (PCBNEW 4.0.7) date 11/19/17 00:55:32*
%MOMM*%
%LPD*%
G01*
G04 APERTURE LIST*
%ADD10C,0.100000*%
%ADD11R,0.740000X2.140000*%
%ADD12O,0.740000X2.140000*%
%ADD13R,2.400000X4.200000*%
%ADD14R,2.400000X1.900000*%
%ADD15R,1.200000X1.150000*%
%ADD16C,3.900000*%
%ADD17R,1.300000X1.200000*%
%ADD18R,2.100000X2.100000*%
%ADD19R,0.900000X1.300000*%
%ADD20R,1.300000X0.900000*%
%ADD21R,2.140000X0.740000*%
%ADD22O,2.140000X0.740000*%
%ADD23O,2.100000X2.100000*%
%ADD24R,1.924000X1.924000*%
%ADD25C,1.924000*%
%ADD26C,2.200000*%
G04 APERTURE END LIST*
D10*
D11*
X19490000Y-48570000D03*
D12*
X20760000Y-48570000D03*
X22030000Y-48570000D03*
X23300000Y-48570000D03*
X24570000Y-48570000D03*
X25840000Y-48570000D03*
X27110000Y-48570000D03*
X27110000Y-54420000D03*
X25840000Y-54420000D03*
X24570000Y-54420000D03*
X23300000Y-54420000D03*
X22030000Y-54420000D03*
X20760000Y-54420000D03*
X19490000Y-54420000D03*
X28380000Y-48570000D03*
X28380000Y-54420000D03*
D13*
X16600000Y-51700000D03*
D14*
X10300000Y-51700000D03*
X10300000Y-49400000D03*
X10300000Y-54000000D03*
D15*
X31750000Y-30500000D03*
X30250000Y-30500000D03*
D16*
X33300000Y-7700000D03*
X3500000Y-7700000D03*
X4700000Y-51900000D03*
X33030000Y-51900000D03*
D17*
X3600000Y-14700000D03*
X3600000Y-16600000D03*
X1600000Y-15650000D03*
D15*
X30250000Y-34350000D03*
X31750000Y-34350000D03*
D18*
X11100000Y-2000000D03*
D17*
X7875000Y-14725000D03*
X7875000Y-16625000D03*
X5875000Y-15675000D03*
X25750000Y-33050000D03*
X25750000Y-34950000D03*
X23750000Y-34000000D03*
X18750000Y-44000000D03*
X18750000Y-45900000D03*
X16750000Y-44950000D03*
X18750000Y-38425000D03*
X18750000Y-40325000D03*
X16750000Y-39375000D03*
X32800000Y-43925000D03*
X32800000Y-45825000D03*
X30800000Y-44875000D03*
X18750000Y-33050000D03*
X18750000Y-34950000D03*
X16750000Y-34000000D03*
X25750000Y-44000000D03*
X25750000Y-45900000D03*
X23750000Y-44950000D03*
X32800000Y-38425000D03*
X32800000Y-40325000D03*
X30800000Y-39375000D03*
X25750000Y-38425000D03*
X25750000Y-40325000D03*
X23750000Y-39375000D03*
X17750000Y-23050000D03*
X17750000Y-24950000D03*
X15750000Y-24000000D03*
X17650000Y-19050000D03*
X17650000Y-20950000D03*
X15650000Y-20000000D03*
X17650000Y-15250000D03*
X17650000Y-17150000D03*
X15650000Y-16200000D03*
X33150000Y-24200000D03*
X33150000Y-26100000D03*
X31150000Y-25150000D03*
D19*
X7725000Y-18075000D03*
X6225000Y-18075000D03*
X3350000Y-18150000D03*
X1850000Y-18150000D03*
D20*
X29000000Y-44350000D03*
X29000000Y-45850000D03*
X21950000Y-33400000D03*
X21950000Y-34900000D03*
X14950000Y-44425000D03*
X14950000Y-45925000D03*
X14950000Y-38625000D03*
X14950000Y-40125000D03*
X14950000Y-33400000D03*
X14950000Y-34900000D03*
X29000000Y-38625000D03*
X29000000Y-40125000D03*
D19*
X21100000Y-23000000D03*
X19600000Y-23000000D03*
X21100000Y-18950000D03*
X19600000Y-18950000D03*
X21100000Y-15500000D03*
X19600000Y-15500000D03*
X7675000Y-13175000D03*
X6175000Y-13175000D03*
X24100000Y-31000000D03*
X25600000Y-31000000D03*
X1800000Y-13150000D03*
X3300000Y-13150000D03*
X16950000Y-42250000D03*
X18450000Y-42250000D03*
X16800000Y-36800000D03*
X18300000Y-36800000D03*
X31000000Y-42125000D03*
X32500000Y-42125000D03*
X16950000Y-31000000D03*
X18450000Y-31000000D03*
X23950000Y-42275000D03*
X25450000Y-42275000D03*
X30800000Y-36625000D03*
X32300000Y-36625000D03*
X23900000Y-36625000D03*
X25400000Y-36625000D03*
D20*
X31050000Y-22600000D03*
X31050000Y-21100000D03*
X32950000Y-21050000D03*
X32950000Y-22550000D03*
D21*
X7500000Y-20580000D03*
D22*
X7500000Y-21850000D03*
X7500000Y-23120000D03*
X7500000Y-24390000D03*
X7500000Y-25660000D03*
X7500000Y-26930000D03*
X7500000Y-28200000D03*
X1650000Y-28200000D03*
X1650000Y-26930000D03*
X1650000Y-25660000D03*
X1650000Y-24390000D03*
X1650000Y-23120000D03*
X1650000Y-21850000D03*
X1650000Y-20580000D03*
X7500000Y-29470000D03*
X1650000Y-29470000D03*
D17*
X33050000Y-15950000D03*
X33050000Y-17850000D03*
X31050000Y-16900000D03*
D20*
X31000000Y-14200000D03*
X31000000Y-12700000D03*
X33000000Y-12700000D03*
X33000000Y-14200000D03*
D18*
X11100000Y-33000000D03*
D23*
X11100000Y-35540000D03*
X11100000Y-38080000D03*
X11100000Y-40620000D03*
X11100000Y-43160000D03*
X11100000Y-45700000D03*
D15*
X31750000Y-32200000D03*
X30250000Y-32200000D03*
D20*
X21950000Y-44000000D03*
X21950000Y-45500000D03*
X22100000Y-38625000D03*
X22100000Y-40125000D03*
D18*
X35550000Y-2000000D03*
X35500000Y-33000000D03*
D23*
X35500000Y-35540000D03*
X35500000Y-38080000D03*
X35500000Y-40620000D03*
X35500000Y-43160000D03*
X35500000Y-45700000D03*
D24*
X35150000Y-12950000D03*
D25*
X35150000Y-17950000D03*
D24*
X35200000Y-21300000D03*
D25*
X35200000Y-26300000D03*
D26*
X18143155Y-11785798D03*
X14563614Y-12602805D03*
X11693045Y-14892007D03*
X10100000Y-18200000D03*
X10100000Y-21871596D03*
X11693045Y-25179589D03*
X14563614Y-27468791D03*
X18143155Y-28285798D03*
X24593265Y-25179589D03*
X26186310Y-21871596D03*
X26186310Y-18200000D03*
X24593265Y-14892007D03*
X21722696Y-12602805D03*
M02*
