%TF.GenerationSoftware,KiCad,Pcbnew,4.0.7*%
%TF.CreationDate,2017-11-16T21:01:15+08:00*%
%TF.ProjectId,finalRoundNixie,66696E616C526F756E644E697869652E,rev?*%
%TF.FileFunction,Legend,Top*%
%FSLAX46Y46*%
G04 Gerber Fmt 4.6, Leading zero omitted, Abs format (unit mm)*
G04 Created by KiCad (PCBNEW 4.0.7) date 11/16/17 21:01:15*
%MOMM*%
%LPD*%
G01*
G04 APERTURE LIST*
%ADD10C,0.100000*%
%ADD11C,0.300000*%
%ADD12C,0.200000*%
%ADD13C,0.150000*%
%ADD14C,0.153000*%
G04 APERTURE END LIST*
D10*
D11*
X14142857Y-46628571D02*
X14142857Y-45128571D01*
X14642857Y-46200000D01*
X15142857Y-45128571D01*
X15142857Y-46628571D01*
X15857143Y-46628571D02*
X15857143Y-45128571D01*
X16500000Y-46557143D02*
X16714286Y-46628571D01*
X17071429Y-46628571D01*
X17214286Y-46557143D01*
X17285715Y-46485714D01*
X17357143Y-46342857D01*
X17357143Y-46200000D01*
X17285715Y-46057143D01*
X17214286Y-45985714D01*
X17071429Y-45914286D01*
X16785715Y-45842857D01*
X16642857Y-45771429D01*
X16571429Y-45700000D01*
X16500000Y-45557143D01*
X16500000Y-45414286D01*
X16571429Y-45271429D01*
X16642857Y-45200000D01*
X16785715Y-45128571D01*
X17142857Y-45128571D01*
X17357143Y-45200000D01*
X18285714Y-45128571D02*
X18571428Y-45128571D01*
X18714286Y-45200000D01*
X18857143Y-45342857D01*
X18928571Y-45628571D01*
X18928571Y-46128571D01*
X18857143Y-46414286D01*
X18714286Y-46557143D01*
X18571428Y-46628571D01*
X18285714Y-46628571D01*
X18142857Y-46557143D01*
X18000000Y-46414286D01*
X17928571Y-46128571D01*
X17928571Y-45628571D01*
X18000000Y-45342857D01*
X18142857Y-45200000D01*
X18285714Y-45128571D01*
X27872857Y-46868571D02*
X27872857Y-45368571D01*
X28372857Y-46440000D01*
X28872857Y-45368571D01*
X28872857Y-46868571D01*
X29872857Y-45368571D02*
X30158571Y-45368571D01*
X30301429Y-45440000D01*
X30444286Y-45582857D01*
X30515714Y-45868571D01*
X30515714Y-46368571D01*
X30444286Y-46654286D01*
X30301429Y-46797143D01*
X30158571Y-46868571D01*
X29872857Y-46868571D01*
X29730000Y-46797143D01*
X29587143Y-46654286D01*
X29515714Y-46368571D01*
X29515714Y-45868571D01*
X29587143Y-45582857D01*
X29730000Y-45440000D01*
X29872857Y-45368571D01*
X31087143Y-46797143D02*
X31301429Y-46868571D01*
X31658572Y-46868571D01*
X31801429Y-46797143D01*
X31872858Y-46725714D01*
X31944286Y-46582857D01*
X31944286Y-46440000D01*
X31872858Y-46297143D01*
X31801429Y-46225714D01*
X31658572Y-46154286D01*
X31372858Y-46082857D01*
X31230000Y-46011429D01*
X31158572Y-45940000D01*
X31087143Y-45797143D01*
X31087143Y-45654286D01*
X31158572Y-45511429D01*
X31230000Y-45440000D01*
X31372858Y-45368571D01*
X31730000Y-45368571D01*
X31944286Y-45440000D01*
X32587143Y-46868571D02*
X32587143Y-45368571D01*
X20731429Y-43807143D02*
X20945715Y-43878571D01*
X21302858Y-43878571D01*
X21445715Y-43807143D01*
X21517144Y-43735714D01*
X21588572Y-43592857D01*
X21588572Y-43450000D01*
X21517144Y-43307143D01*
X21445715Y-43235714D01*
X21302858Y-43164286D01*
X21017144Y-43092857D01*
X20874286Y-43021429D01*
X20802858Y-42950000D01*
X20731429Y-42807143D01*
X20731429Y-42664286D01*
X20802858Y-42521429D01*
X20874286Y-42450000D01*
X21017144Y-42378571D01*
X21374286Y-42378571D01*
X21588572Y-42450000D01*
X23088572Y-43735714D02*
X23017143Y-43807143D01*
X22802857Y-43878571D01*
X22660000Y-43878571D01*
X22445715Y-43807143D01*
X22302857Y-43664286D01*
X22231429Y-43521429D01*
X22160000Y-43235714D01*
X22160000Y-43021429D01*
X22231429Y-42735714D01*
X22302857Y-42592857D01*
X22445715Y-42450000D01*
X22660000Y-42378571D01*
X22802857Y-42378571D01*
X23017143Y-42450000D01*
X23088572Y-42521429D01*
X23731429Y-43878571D02*
X23731429Y-42378571D01*
X24588572Y-43878571D02*
X23945715Y-43021429D01*
X24588572Y-42378571D02*
X23731429Y-43235714D01*
X21517143Y-40040000D02*
X21374286Y-39968571D01*
X21160000Y-39968571D01*
X20945715Y-40040000D01*
X20802857Y-40182857D01*
X20731429Y-40325714D01*
X20660000Y-40611429D01*
X20660000Y-40825714D01*
X20731429Y-41111429D01*
X20802857Y-41254286D01*
X20945715Y-41397143D01*
X21160000Y-41468571D01*
X21302857Y-41468571D01*
X21517143Y-41397143D01*
X21588572Y-41325714D01*
X21588572Y-40825714D01*
X21302857Y-40825714D01*
X22231429Y-41468571D02*
X22231429Y-39968571D01*
X23088572Y-41468571D01*
X23088572Y-39968571D01*
X23802858Y-41468571D02*
X23802858Y-39968571D01*
X24160001Y-39968571D01*
X24374286Y-40040000D01*
X24517144Y-40182857D01*
X24588572Y-40325714D01*
X24660001Y-40611429D01*
X24660001Y-40825714D01*
X24588572Y-41111429D01*
X24517144Y-41254286D01*
X24374286Y-41397143D01*
X24160001Y-41468571D01*
X23802858Y-41468571D01*
X19195714Y-38868571D02*
X19195714Y-37368571D01*
X19767142Y-37368571D01*
X19910000Y-37440000D01*
X19981428Y-37511429D01*
X20052857Y-37654286D01*
X20052857Y-37868571D01*
X19981428Y-38011429D01*
X19910000Y-38082857D01*
X19767142Y-38154286D01*
X19195714Y-38154286D01*
X20552857Y-37368571D02*
X20910000Y-38868571D01*
X21195714Y-37797143D01*
X21481428Y-38868571D01*
X21838571Y-37368571D01*
X23267143Y-38868571D02*
X22767143Y-38154286D01*
X22410000Y-38868571D02*
X22410000Y-37368571D01*
X22981428Y-37368571D01*
X23124286Y-37440000D01*
X23195714Y-37511429D01*
X23267143Y-37654286D01*
X23267143Y-37868571D01*
X23195714Y-38011429D01*
X23124286Y-38082857D01*
X22981428Y-38154286D01*
X22410000Y-38154286D01*
X23910000Y-38082857D02*
X24410000Y-38082857D01*
X24624286Y-38868571D02*
X23910000Y-38868571D01*
X23910000Y-37368571D01*
X24624286Y-37368571D01*
X25267143Y-38868571D02*
X25267143Y-37368571D01*
X26124286Y-38868571D01*
X26124286Y-37368571D01*
X20710000Y-34718571D02*
X21210000Y-36218571D01*
X21710000Y-34718571D01*
X22210000Y-36218571D02*
X22210000Y-34718571D01*
X22567143Y-34718571D01*
X22781428Y-34790000D01*
X22924286Y-34932857D01*
X22995714Y-35075714D01*
X23067143Y-35361429D01*
X23067143Y-35575714D01*
X22995714Y-35861429D01*
X22924286Y-36004286D01*
X22781428Y-36147143D01*
X22567143Y-36218571D01*
X22210000Y-36218571D01*
X24567143Y-36075714D02*
X24495714Y-36147143D01*
X24281428Y-36218571D01*
X24138571Y-36218571D01*
X23924286Y-36147143D01*
X23781428Y-36004286D01*
X23710000Y-35861429D01*
X23638571Y-35575714D01*
X23638571Y-35361429D01*
X23710000Y-35075714D01*
X23781428Y-34932857D01*
X23924286Y-34790000D01*
X24138571Y-34718571D01*
X24281428Y-34718571D01*
X24495714Y-34790000D01*
X24567143Y-34861429D01*
X19065714Y-33597143D02*
X19280000Y-33668571D01*
X19637143Y-33668571D01*
X19780000Y-33597143D01*
X19851429Y-33525714D01*
X19922857Y-33382857D01*
X19922857Y-33240000D01*
X19851429Y-33097143D01*
X19780000Y-33025714D01*
X19637143Y-32954286D01*
X19351429Y-32882857D01*
X19208571Y-32811429D01*
X19137143Y-32740000D01*
X19065714Y-32597143D01*
X19065714Y-32454286D01*
X19137143Y-32311429D01*
X19208571Y-32240000D01*
X19351429Y-32168571D01*
X19708571Y-32168571D01*
X19922857Y-32240000D01*
X20351428Y-32168571D02*
X21208571Y-32168571D01*
X20780000Y-33668571D02*
X20780000Y-32168571D01*
X21994285Y-32168571D02*
X22279999Y-32168571D01*
X22422857Y-32240000D01*
X22565714Y-32382857D01*
X22637142Y-32668571D01*
X22637142Y-33168571D01*
X22565714Y-33454286D01*
X22422857Y-33597143D01*
X22279999Y-33668571D01*
X21994285Y-33668571D01*
X21851428Y-33597143D01*
X21708571Y-33454286D01*
X21637142Y-33168571D01*
X21637142Y-32668571D01*
X21708571Y-32382857D01*
X21851428Y-32240000D01*
X21994285Y-32168571D01*
X24137143Y-33668571D02*
X23637143Y-32954286D01*
X23280000Y-33668571D02*
X23280000Y-32168571D01*
X23851428Y-32168571D01*
X23994286Y-32240000D01*
X24065714Y-32311429D01*
X24137143Y-32454286D01*
X24137143Y-32668571D01*
X24065714Y-32811429D01*
X23994286Y-32882857D01*
X23851428Y-32954286D01*
X23280000Y-32954286D01*
X24780000Y-32882857D02*
X25280000Y-32882857D01*
X25494286Y-33668571D02*
X24780000Y-33668571D01*
X24780000Y-32168571D01*
X25494286Y-32168571D01*
D12*
X34930000Y-11600000D02*
X35010000Y-11840000D01*
X29880000Y-11600000D02*
X34930000Y-11600000D01*
D13*
X20900000Y-23350000D02*
X20800000Y-23350000D01*
X15250000Y-18500000D02*
X15250000Y-18600000D01*
X20900000Y-18500000D02*
X15250000Y-18500000D01*
X20900000Y-23350000D02*
X20900000Y-23350000D01*
X15250000Y-23350000D02*
X20806510Y-23350000D01*
X15250000Y-18600000D02*
X15250000Y-23350000D01*
X20900000Y-23350000D02*
X20900000Y-18500000D01*
X36200000Y-27050000D02*
X36200000Y-20550000D01*
X34200000Y-27050000D02*
X36200000Y-27050000D01*
X34200000Y-20550000D02*
X34200000Y-27050000D01*
X36200000Y-20550000D02*
X34200000Y-20550000D01*
X36150000Y-18700000D02*
X36150000Y-12200000D01*
X34150000Y-18700000D02*
X36150000Y-18700000D01*
X34150000Y-12200000D02*
X34150000Y-18700000D01*
X36150000Y-12200000D02*
X34150000Y-12200000D01*
D14*
X3616667Y-57084524D02*
X3333334Y-56679762D01*
X3130953Y-57084524D02*
X3130953Y-56234524D01*
X3454762Y-56234524D01*
X3535715Y-56275000D01*
X3576191Y-56315476D01*
X3616667Y-56396429D01*
X3616667Y-56517857D01*
X3576191Y-56598810D01*
X3535715Y-56639286D01*
X3454762Y-56679762D01*
X3130953Y-56679762D01*
X3980953Y-56639286D02*
X4264286Y-56639286D01*
X4385715Y-57084524D02*
X3980953Y-57084524D01*
X3980953Y-56234524D01*
X4385715Y-56234524D01*
X5033334Y-56639286D02*
X4750001Y-56639286D01*
X4750001Y-57084524D02*
X4750001Y-56234524D01*
X5154763Y-56234524D01*
X5600001Y-56234524D02*
X5600001Y-56436905D01*
X5397620Y-56355952D02*
X5600001Y-56436905D01*
X5802381Y-56355952D01*
X5478572Y-56598810D02*
X5600001Y-56436905D01*
X5721429Y-56598810D01*
X6247620Y-56234524D02*
X6247620Y-56436905D01*
X6045239Y-56355952D02*
X6247620Y-56436905D01*
X6450000Y-56355952D01*
X6126191Y-56598810D02*
X6247620Y-56436905D01*
X6369048Y-56598810D01*
X31946667Y-57084524D02*
X31663334Y-56679762D01*
X31460953Y-57084524D02*
X31460953Y-56234524D01*
X31784762Y-56234524D01*
X31865715Y-56275000D01*
X31906191Y-56315476D01*
X31946667Y-56396429D01*
X31946667Y-56517857D01*
X31906191Y-56598810D01*
X31865715Y-56639286D01*
X31784762Y-56679762D01*
X31460953Y-56679762D01*
X32310953Y-56639286D02*
X32594286Y-56639286D01*
X32715715Y-57084524D02*
X32310953Y-57084524D01*
X32310953Y-56234524D01*
X32715715Y-56234524D01*
X33363334Y-56639286D02*
X33080001Y-56639286D01*
X33080001Y-57084524D02*
X33080001Y-56234524D01*
X33484763Y-56234524D01*
X33930001Y-56234524D02*
X33930001Y-56436905D01*
X33727620Y-56355952D02*
X33930001Y-56436905D01*
X34132381Y-56355952D01*
X33808572Y-56598810D02*
X33930001Y-56436905D01*
X34051429Y-56598810D01*
X34577620Y-56234524D02*
X34577620Y-56436905D01*
X34375239Y-56355952D02*
X34577620Y-56436905D01*
X34780000Y-56355952D01*
X34456191Y-56598810D02*
X34577620Y-56436905D01*
X34699048Y-56598810D01*
X26252381Y-31534524D02*
X26252381Y-32222619D01*
X26292857Y-32303571D01*
X26333333Y-32344048D01*
X26414286Y-32384524D01*
X26576190Y-32384524D01*
X26657143Y-32344048D01*
X26697619Y-32303571D01*
X26738095Y-32222619D01*
X26738095Y-31534524D01*
X27102381Y-31615476D02*
X27142857Y-31575000D01*
X27223809Y-31534524D01*
X27426190Y-31534524D01*
X27507143Y-31575000D01*
X27547619Y-31615476D01*
X27588095Y-31696429D01*
X27588095Y-31777381D01*
X27547619Y-31898810D01*
X27061905Y-32384524D01*
X27588095Y-32384524D01*
X18942619Y-25094524D02*
X18942619Y-24244524D01*
X19145000Y-24244524D01*
X19266428Y-24285000D01*
X19347381Y-24365952D01*
X19387857Y-24446905D01*
X19428333Y-24608810D01*
X19428333Y-24730238D01*
X19387857Y-24892143D01*
X19347381Y-24973095D01*
X19266428Y-25054048D01*
X19145000Y-25094524D01*
X18942619Y-25094524D01*
X20237857Y-25094524D02*
X19752143Y-25094524D01*
X19995000Y-25094524D02*
X19995000Y-24244524D01*
X19914048Y-24365952D01*
X19833095Y-24446905D01*
X19752143Y-24487381D01*
X27627857Y-20264524D02*
X27627857Y-19414524D01*
X28113571Y-20264524D01*
X28113571Y-19414524D01*
X28518333Y-19819286D02*
X28801666Y-19819286D01*
X28923095Y-20264524D02*
X28518333Y-20264524D01*
X28518333Y-19414524D01*
X28923095Y-19414524D01*
X29732619Y-20264524D02*
X29246905Y-20264524D01*
X29489762Y-20264524D02*
X29489762Y-19414524D01*
X29408810Y-19535952D01*
X29327857Y-19616905D01*
X29246905Y-19657381D01*
X27577857Y-11914524D02*
X27577857Y-11064524D01*
X28063571Y-11914524D01*
X28063571Y-11064524D01*
X28468333Y-11469286D02*
X28751666Y-11469286D01*
X28873095Y-11914524D02*
X28468333Y-11914524D01*
X28468333Y-11064524D01*
X28873095Y-11064524D01*
X29196905Y-11145476D02*
X29237381Y-11105000D01*
X29318333Y-11064524D01*
X29520714Y-11064524D01*
X29601667Y-11105000D01*
X29642143Y-11145476D01*
X29682619Y-11226429D01*
X29682619Y-11307381D01*
X29642143Y-11428810D01*
X29156429Y-11914524D01*
X29682619Y-11914524D01*
M02*
