%TF.GenerationSoftware,KiCad,Pcbnew,4.0.7*%
%TF.CreationDate,2017-11-17T19:54:21+08:00*%
%TF.ProjectId,finalRoundNixie,66696E616C526F756E644E697869652E,rev?*%
%TF.FileFunction,Copper,L2,Bot,Signal*%
%FSLAX46Y46*%
G04 Gerber Fmt 4.6, Leading zero omitted, Abs format (unit mm)*
G04 Created by KiCad (PCBNEW 4.0.7) date 11/17/17 19:54:21*
%MOMM*%
%LPD*%
G01*
G04 APERTURE LIST*
%ADD10C,0.100000*%
%ADD11C,0.300000*%
%ADD12R,0.600000X2.000000*%
%ADD13O,0.600000X2.000000*%
%ADD14R,2.000000X3.800000*%
%ADD15R,2.000000X1.500000*%
%ADD16R,0.800000X0.750000*%
%ADD17C,3.500000*%
%ADD18C,1.800000*%
%ADD19R,0.900000X0.800000*%
%ADD20R,1.700000X1.700000*%
%ADD21R,0.500000X0.900000*%
%ADD22R,0.900000X0.500000*%
%ADD23R,2.000000X0.600000*%
%ADD24O,2.000000X0.600000*%
%ADD25O,1.700000X1.700000*%
%ADD26R,1.524000X1.524000*%
%ADD27C,1.524000*%
%ADD28C,0.453000*%
%ADD29C,1.000000*%
%ADD30C,0.400000*%
%ADD31C,0.500000*%
%ADD32C,1.000000*%
%ADD33C,0.250000*%
%ADD34C,0.400000*%
%ADD35C,0.254000*%
G04 APERTURE END LIST*
D10*
D11*
X25740952Y-7248095D02*
X25307619Y-8548095D01*
X24874286Y-7248095D01*
X24440952Y-8424286D02*
X24379047Y-8486190D01*
X24440952Y-8548095D01*
X24502857Y-8486190D01*
X24440952Y-8424286D01*
X24440952Y-8548095D01*
X23574285Y-7248095D02*
X23450476Y-7248095D01*
X23326666Y-7310000D01*
X23264761Y-7371905D01*
X23202857Y-7495714D01*
X23140952Y-7743333D01*
X23140952Y-8052857D01*
X23202857Y-8300476D01*
X23264761Y-8424286D01*
X23326666Y-8486190D01*
X23450476Y-8548095D01*
X23574285Y-8548095D01*
X23698095Y-8486190D01*
X23759999Y-8424286D01*
X23821904Y-8300476D01*
X23883809Y-8052857D01*
X23883809Y-7743333D01*
X23821904Y-7495714D01*
X23759999Y-7371905D01*
X23698095Y-7310000D01*
X23574285Y-7248095D01*
X21902857Y-8548095D02*
X22645714Y-8548095D01*
X22274285Y-8548095D02*
X22274285Y-7248095D01*
X22398095Y-7433810D01*
X22521904Y-7557619D01*
X22645714Y-7619524D01*
D12*
X19490000Y-48570000D03*
D13*
X20760000Y-48570000D03*
X22030000Y-48570000D03*
X23300000Y-48570000D03*
X24570000Y-48570000D03*
X25840000Y-48570000D03*
X27110000Y-48570000D03*
X27110000Y-54420000D03*
X25840000Y-54420000D03*
X24570000Y-54420000D03*
X23300000Y-54420000D03*
X22030000Y-54420000D03*
X20760000Y-54420000D03*
X19490000Y-54420000D03*
X28380000Y-48570000D03*
X28380000Y-54420000D03*
D14*
X16600000Y-51700000D03*
D15*
X10300000Y-51700000D03*
X10300000Y-49400000D03*
X10300000Y-54000000D03*
D16*
X31750000Y-30500000D03*
X30250000Y-30500000D03*
D17*
X33300000Y-7700000D03*
X3500000Y-7700000D03*
X4700000Y-51900000D03*
X33030000Y-51900000D03*
D18*
X18143155Y-11785798D03*
X14563614Y-12602805D03*
X11693045Y-14892007D03*
X10100000Y-18200000D03*
X10100000Y-21871596D03*
X11693045Y-25179589D03*
X14563614Y-27468791D03*
X18143155Y-28285798D03*
X24593265Y-25179589D03*
X26186310Y-21871596D03*
X26186310Y-18200000D03*
X24593265Y-14892007D03*
X21722696Y-12602805D03*
D19*
X3600000Y-14700000D03*
X3600000Y-16600000D03*
X1600000Y-15650000D03*
D16*
X30250000Y-34350000D03*
X31750000Y-34350000D03*
D20*
X11100000Y-2000000D03*
D19*
X7875000Y-14725000D03*
X7875000Y-16625000D03*
X5875000Y-15675000D03*
X25750000Y-33050000D03*
X25750000Y-34950000D03*
X23750000Y-34000000D03*
X18750000Y-44000000D03*
X18750000Y-45900000D03*
X16750000Y-44950000D03*
X18750000Y-38425000D03*
X18750000Y-40325000D03*
X16750000Y-39375000D03*
X32800000Y-43925000D03*
X32800000Y-45825000D03*
X30800000Y-44875000D03*
X18750000Y-33050000D03*
X18750000Y-34950000D03*
X16750000Y-34000000D03*
X25750000Y-44000000D03*
X25750000Y-45900000D03*
X23750000Y-44950000D03*
X32800000Y-38425000D03*
X32800000Y-40325000D03*
X30800000Y-39375000D03*
X25750000Y-38425000D03*
X25750000Y-40325000D03*
X23750000Y-39375000D03*
X17750000Y-23050000D03*
X17750000Y-24950000D03*
X15750000Y-24000000D03*
X17650000Y-19050000D03*
X17650000Y-20950000D03*
X15650000Y-20000000D03*
X17650000Y-15250000D03*
X17650000Y-17150000D03*
X15650000Y-16200000D03*
X33150000Y-24200000D03*
X33150000Y-26100000D03*
X31150000Y-25150000D03*
D21*
X7725000Y-18075000D03*
X6225000Y-18075000D03*
X3350000Y-18150000D03*
X1850000Y-18150000D03*
D22*
X29000000Y-44350000D03*
X29000000Y-45850000D03*
X21950000Y-33400000D03*
X21950000Y-34900000D03*
X14950000Y-44425000D03*
X14950000Y-45925000D03*
X14950000Y-38625000D03*
X14950000Y-40125000D03*
X14950000Y-33400000D03*
X14950000Y-34900000D03*
X29000000Y-38625000D03*
X29000000Y-40125000D03*
D21*
X21100000Y-23000000D03*
X19600000Y-23000000D03*
X21100000Y-18950000D03*
X19600000Y-18950000D03*
X21100000Y-15500000D03*
X19600000Y-15500000D03*
X7675000Y-13175000D03*
X6175000Y-13175000D03*
X24100000Y-31000000D03*
X25600000Y-31000000D03*
X1800000Y-13150000D03*
X3300000Y-13150000D03*
X16950000Y-42250000D03*
X18450000Y-42250000D03*
X16800000Y-36800000D03*
X18300000Y-36800000D03*
X31000000Y-42125000D03*
X32500000Y-42125000D03*
X16950000Y-31000000D03*
X18450000Y-31000000D03*
X23950000Y-42275000D03*
X25450000Y-42275000D03*
X30800000Y-36625000D03*
X32300000Y-36625000D03*
X23900000Y-36625000D03*
X25400000Y-36625000D03*
D22*
X31050000Y-22600000D03*
X31050000Y-21100000D03*
X32950000Y-21050000D03*
X32950000Y-22550000D03*
D23*
X7500000Y-20580000D03*
D24*
X7500000Y-21850000D03*
X7500000Y-23120000D03*
X7500000Y-24390000D03*
X7500000Y-25660000D03*
X7500000Y-26930000D03*
X7500000Y-28200000D03*
X1650000Y-28200000D03*
X1650000Y-26930000D03*
X1650000Y-25660000D03*
X1650000Y-24390000D03*
X1650000Y-23120000D03*
X1650000Y-21850000D03*
X1650000Y-20580000D03*
X7500000Y-29470000D03*
X1650000Y-29470000D03*
D19*
X33050000Y-15950000D03*
X33050000Y-17850000D03*
X31050000Y-16900000D03*
D22*
X31000000Y-14200000D03*
X31000000Y-12700000D03*
X33000000Y-12700000D03*
X33000000Y-14200000D03*
D20*
X11100000Y-33000000D03*
D25*
X11100000Y-35540000D03*
X11100000Y-38080000D03*
X11100000Y-40620000D03*
X11100000Y-43160000D03*
X11100000Y-45700000D03*
D16*
X31750000Y-32200000D03*
X30250000Y-32200000D03*
D22*
X21950000Y-44000000D03*
X21950000Y-45500000D03*
X22100000Y-38625000D03*
X22100000Y-40125000D03*
D20*
X35550000Y-2000000D03*
X35500000Y-33000000D03*
D25*
X35500000Y-35540000D03*
X35500000Y-38080000D03*
X35500000Y-40620000D03*
X35500000Y-43160000D03*
X35500000Y-45700000D03*
D26*
X35200000Y-21300000D03*
D27*
X35200000Y-26300000D03*
D26*
X35150000Y-12950000D03*
D27*
X35150000Y-17950000D03*
D28*
X6149996Y-32650000D03*
X18500000Y-53800000D03*
D29*
X14103370Y-51586629D03*
X16050000Y-47000000D03*
X20400000Y-38150000D03*
X20400000Y-35500000D03*
X20400000Y-41150000D03*
X20400000Y-46100000D03*
X29550000Y-25200000D03*
X29450000Y-23050000D03*
D28*
X31049998Y-18650000D03*
X29900000Y-14850000D03*
X4700000Y-16400000D03*
X23500000Y-19350000D03*
X22780010Y-53868490D03*
X6160000Y-29300000D03*
X3090000Y-24380000D03*
D30*
X6925000Y-16700000D03*
X26550000Y-54600000D03*
D29*
X27799999Y-19749999D03*
D28*
X21150000Y-16500000D03*
X21100000Y-17800000D03*
D30*
X18800000Y-54650000D03*
D28*
X22250000Y-14300000D03*
D29*
X7050000Y-19350000D03*
X1650000Y-19500000D03*
D30*
X1650000Y-28719990D03*
D28*
X1600000Y-30740000D03*
D30*
X16775000Y-15025000D03*
X14800000Y-21825000D03*
X16850024Y-19100000D03*
X24100000Y-52050000D03*
X25916120Y-52977817D03*
X34240000Y-47050000D03*
X24850000Y-38450000D03*
X14240000Y-37660000D03*
X29000000Y-39350000D03*
D28*
X29400000Y-1600000D03*
X32150000Y-1400000D03*
X14250000Y-1250000D03*
D29*
X16450000Y-26050000D03*
X20170000Y-26050000D03*
D28*
X28840000Y-1975000D03*
X32650000Y-1975000D03*
X18680000Y-1975000D03*
X13600000Y-2000000D03*
X14870000Y-2000000D03*
X10620155Y-24399500D03*
X14070000Y-23720000D03*
X8830000Y-23280000D03*
X13570000Y-22510000D03*
X15298490Y-17344685D03*
X9850000Y-23300000D03*
X8880351Y-19719004D03*
X7992924Y-19010254D03*
D30*
X5000000Y-18100000D03*
X23777459Y-27630064D03*
X21668480Y-27730000D03*
X27850000Y-39450000D03*
X27849998Y-35300000D03*
X29044277Y-42530012D03*
X13273761Y-19023761D03*
X27140256Y-32054796D03*
X23850865Y-27034560D03*
X27771650Y-32050011D03*
X19540000Y-27070010D03*
X27200002Y-43200000D03*
X27200000Y-37050000D03*
X27207998Y-39424990D03*
X13850000Y-15750000D03*
X13627808Y-28680000D03*
X13850000Y-35650000D03*
X12470296Y-35695216D03*
X13600000Y-43700000D03*
X13550000Y-38700000D03*
X13102798Y-35641999D03*
X14100000Y-34250000D03*
X29449988Y-32050011D03*
X29300000Y-35900000D03*
X23404832Y-32050011D03*
X22998109Y-47720010D03*
D28*
X2622954Y-21253286D03*
X2600000Y-18200000D03*
D30*
X21481076Y-47720010D03*
X16990000Y-43230000D03*
D28*
X17550000Y-36950000D03*
D30*
X19140000Y-47120000D03*
X27180000Y-47280000D03*
X29920000Y-44050000D03*
X17000000Y-32050011D03*
X18140000Y-47230000D03*
X24225010Y-43270000D03*
X25130000Y-47030000D03*
X21911239Y-52258761D03*
X30910000Y-37590000D03*
X24242497Y-47573304D03*
X23700000Y-37650000D03*
D28*
X28150000Y-24750000D03*
X21398490Y-29508778D03*
X21108705Y-30093969D03*
X22700000Y-30150000D03*
D29*
X12280000Y-52890000D03*
X15500000Y-31650000D03*
D30*
X32350000Y-33400000D03*
D28*
X24026500Y-55245010D03*
D30*
X25450000Y-52474990D03*
X33914488Y-36231958D03*
X3570000Y-26360000D03*
X2361109Y-26230088D03*
X33799989Y-46430464D03*
X34040000Y-41860000D03*
X18800000Y-15525000D03*
X16650000Y-16450000D03*
D31*
X6160000Y-29300000D02*
X7330000Y-29300000D01*
X7330000Y-29300000D02*
X7500000Y-29470000D01*
X6149996Y-32970319D02*
X6149996Y-32650000D01*
X6149996Y-35669996D02*
X6149996Y-32970319D01*
X11100000Y-40620000D02*
X6149996Y-35669996D01*
X18273501Y-53573501D02*
X18500000Y-53800000D01*
X16600000Y-51900000D02*
X18273501Y-53573501D01*
X16600000Y-51700000D02*
X16600000Y-51900000D01*
D32*
X10413371Y-51586629D02*
X13396264Y-51586629D01*
X16600000Y-51700000D02*
X14216741Y-51700000D01*
X10300000Y-51700000D02*
X10413371Y-51586629D01*
X14216741Y-51700000D02*
X14103370Y-51586629D01*
X13396264Y-51586629D02*
X14103370Y-51586629D01*
X16050000Y-47000000D02*
X16757106Y-47000000D01*
X16757106Y-47000000D02*
X17857106Y-45900000D01*
X17857106Y-45900000D02*
X18750000Y-45900000D01*
X18750000Y-40325000D02*
X19575000Y-40325000D01*
X19575000Y-40325000D02*
X20400000Y-41150000D01*
X23309987Y-40955011D02*
X23114998Y-41150000D01*
X23114998Y-41150000D02*
X20400000Y-41150000D01*
X20400000Y-35500000D02*
X20400000Y-38150000D01*
X18750000Y-34950000D02*
X19850000Y-34950000D01*
X19850000Y-34950000D02*
X20400000Y-35500000D01*
X22810003Y-35999999D02*
X20899999Y-35999999D01*
X23710001Y-35100001D02*
X22810003Y-35999999D01*
X25599999Y-35100001D02*
X23710001Y-35100001D01*
X20899999Y-35999999D02*
X20400000Y-35500000D01*
X25750000Y-34950000D02*
X25599999Y-35100001D01*
X20400000Y-41857106D02*
X20400000Y-41150000D01*
X20400000Y-45700000D02*
X20400000Y-41857106D01*
X20200000Y-45900000D02*
X20400000Y-45700000D01*
X29600000Y-25150000D02*
X29550000Y-25200000D01*
X31150000Y-25150000D02*
X29600000Y-25150000D01*
X29450000Y-22342894D02*
X29450000Y-23050000D01*
X29450000Y-20249998D02*
X29450000Y-22342894D01*
X31049998Y-18650000D02*
X29450000Y-20249998D01*
X31050000Y-18649998D02*
X31049998Y-18650000D01*
X31050000Y-16900000D02*
X31050000Y-18649998D01*
D31*
X27538308Y-14850000D02*
X29579681Y-14850000D01*
X23500000Y-19350000D02*
X23500000Y-18888308D01*
X29579681Y-14850000D02*
X29900000Y-14850000D01*
X23500000Y-18888308D02*
X27538308Y-14850000D01*
X4622927Y-16449980D02*
X4650020Y-16449980D01*
X4550000Y-16600000D02*
X4700000Y-16450000D01*
X4650020Y-16449980D02*
X4700000Y-16400000D01*
X4700000Y-16450000D02*
X4700000Y-16400000D01*
X3600000Y-16600000D02*
X4550000Y-16600000D01*
X3090000Y-24380000D02*
X1660000Y-24380000D01*
X1660000Y-24380000D02*
X1650000Y-24390000D01*
D32*
X25119989Y-40955011D02*
X23309987Y-40955011D01*
X25750000Y-40325000D02*
X25119989Y-40955011D01*
X25750000Y-40325000D02*
X27200000Y-40325000D01*
X27200000Y-40325000D02*
X28505002Y-41630002D01*
X28505002Y-41630002D02*
X29534996Y-41630002D01*
X29534996Y-41630002D02*
X30464998Y-40700000D01*
X30464998Y-40700000D02*
X32425000Y-40700000D01*
X32425000Y-40700000D02*
X32800000Y-40325000D01*
X31750000Y-32200000D02*
X31650000Y-32700000D01*
X31650000Y-32700000D02*
X31750000Y-25750000D01*
X30250000Y-34350000D02*
X30250000Y-33814998D01*
X31075001Y-33274999D02*
X31650000Y-32700000D01*
X30250000Y-33814998D02*
X30789999Y-33274999D01*
X30789999Y-33274999D02*
X31075001Y-33274999D01*
X27423630Y-34350000D02*
X30250000Y-34350000D01*
X26823630Y-34950000D02*
X27423630Y-34350000D01*
X23750000Y-46820000D02*
X21120000Y-46820000D01*
X18750000Y-45900000D02*
X20200000Y-45900000D01*
X20200000Y-45900000D02*
X21120000Y-46820000D01*
X25750000Y-45900000D02*
X24670000Y-45900000D01*
X24670000Y-45900000D02*
X23750000Y-46820000D01*
X11100000Y-40630000D02*
X12730000Y-40630000D01*
X13800000Y-41700000D02*
X15600000Y-41700000D01*
X12730000Y-40630000D02*
X13800000Y-41700000D01*
X18425000Y-40650000D02*
X18750000Y-40325000D01*
X15600000Y-41700000D02*
X16650000Y-40650000D01*
X16650000Y-40650000D02*
X18425000Y-40650000D01*
D33*
X28380000Y-48890060D02*
X28380000Y-48570000D01*
X23300000Y-54420000D02*
X23300000Y-53720000D01*
X7875000Y-16625000D02*
X7000000Y-16625000D01*
X7000000Y-16625000D02*
X6925000Y-16700000D01*
D32*
X31350000Y-47225000D02*
X32750000Y-45825000D01*
X28525000Y-47225000D02*
X31350000Y-47225000D01*
D33*
X23300000Y-54420000D02*
X23423500Y-54420000D01*
D31*
X23300000Y-54420000D02*
X23378009Y-54341991D01*
X23300000Y-54420000D02*
X23300000Y-54388480D01*
X23300000Y-54388480D02*
X23006509Y-54094989D01*
X23006509Y-54094989D02*
X22780010Y-53868490D01*
D33*
X1650000Y-24390000D02*
X2540000Y-24390000D01*
D32*
X28380000Y-48570000D02*
X28380000Y-47370000D01*
X28380000Y-47370000D02*
X28525000Y-47225000D01*
X27200000Y-45900000D02*
X28525000Y-47225000D01*
X32750000Y-45825000D02*
X32800000Y-45825000D01*
X25750000Y-45900000D02*
X27200000Y-45900000D01*
X30850000Y-16700000D02*
X31050000Y-16900000D01*
X30975000Y-24975000D02*
X31150000Y-25150000D01*
X31750000Y-25750000D02*
X31150000Y-25150000D01*
X26823630Y-34950000D02*
X25750000Y-34950000D01*
X18700000Y-40325000D02*
X18750000Y-40325000D01*
X32800000Y-40325000D02*
X35105000Y-40325000D01*
X35105000Y-40325000D02*
X35550000Y-40770000D01*
D31*
X27110000Y-54420000D02*
X26730000Y-54420000D01*
X26730000Y-54420000D02*
X26590010Y-54559990D01*
D32*
X27223498Y-26098498D02*
X27223498Y-23905278D01*
X30250000Y-29125000D02*
X27223498Y-26098498D01*
X30250000Y-30500000D02*
X30250000Y-29125000D01*
X27223498Y-23905278D02*
X27799999Y-23328777D01*
X27799999Y-20457105D02*
X27799999Y-19749999D01*
X27799999Y-23328777D02*
X27799999Y-20457105D01*
D34*
X21100000Y-16450000D02*
X21150000Y-16500000D01*
X21100000Y-15500000D02*
X21100000Y-16450000D01*
D31*
X21100000Y-17800000D02*
X21100000Y-18950000D01*
D34*
X21100000Y-23000000D02*
X21100000Y-19150000D01*
X21100000Y-19150000D02*
X21100000Y-18950000D01*
D31*
X19490000Y-54420000D02*
X19030000Y-54420000D01*
X19030000Y-54420000D02*
X18800000Y-54650000D01*
D32*
X1650000Y-19500000D02*
X1650000Y-20580000D01*
D31*
X21100000Y-15500000D02*
X21100000Y-15450000D01*
X21100000Y-15450000D02*
X22250000Y-14300000D01*
D32*
X2357106Y-19500000D02*
X6900000Y-19500000D01*
X6900000Y-19500000D02*
X7050000Y-19350000D01*
X1650000Y-19500000D02*
X2357106Y-19500000D01*
D31*
X1650000Y-28200000D02*
X1650000Y-28719990D01*
X10300000Y-49400000D02*
X10300000Y-47820000D01*
X10300000Y-47820000D02*
X1600000Y-39120000D01*
X1600000Y-39120000D02*
X1600000Y-30740000D01*
D34*
X11700000Y-49400000D02*
X10300000Y-49400000D01*
X11960000Y-49140000D02*
X11700000Y-49400000D01*
X17980000Y-49140000D02*
X11960000Y-49140000D01*
X19490000Y-52480000D02*
X18274989Y-51264989D01*
X18274989Y-49434991D02*
X17980000Y-49140000D01*
X18274989Y-51264989D02*
X18274989Y-49434991D01*
X19490000Y-54420000D02*
X19490000Y-52480000D01*
X30250000Y-30500000D02*
X30250000Y-32200000D01*
X21100000Y-18950000D02*
X21100000Y-18663616D01*
D33*
X17650000Y-15250000D02*
X17000000Y-15250000D01*
X17000000Y-15250000D02*
X16775000Y-15025000D01*
X17750000Y-23050000D02*
X16025000Y-23050000D01*
X16025000Y-23050000D02*
X14800000Y-21825000D01*
X16900024Y-19050000D02*
X16850024Y-19100000D01*
X17650000Y-19050000D02*
X16900024Y-19050000D01*
X17650000Y-19050000D02*
X17700000Y-19050000D01*
X23700000Y-52050000D02*
X24100000Y-52050000D01*
X22030000Y-53720000D02*
X23700000Y-52050000D01*
X22030000Y-54420000D02*
X22030000Y-53720000D01*
X25840000Y-53053937D02*
X25916120Y-52977817D01*
X25840000Y-54420000D02*
X25840000Y-53053937D01*
X3120000Y-35180000D02*
X11100000Y-43160000D01*
X3120000Y-27700000D02*
X3120000Y-35180000D01*
X1650000Y-26930000D02*
X2350000Y-26930000D01*
X2350000Y-26930000D02*
X3120000Y-27700000D01*
X34240000Y-47050000D02*
X34240000Y-47040000D01*
X34240000Y-47040000D02*
X34324999Y-46955001D01*
X34324999Y-46955001D02*
X34324999Y-44335001D01*
X34324999Y-44335001D02*
X35500000Y-43160000D01*
X22950000Y-38739998D02*
X23239998Y-38450000D01*
X22950000Y-39060002D02*
X22950000Y-38739998D01*
X14240000Y-37660000D02*
X16470002Y-37660000D01*
X24567158Y-38450000D02*
X24850000Y-38450000D01*
X23239998Y-38450000D02*
X24567158Y-38450000D01*
X16470002Y-37660000D02*
X18235015Y-39425013D01*
X22584989Y-39425013D02*
X22950000Y-39060002D01*
X18235015Y-39425013D02*
X22584989Y-39425013D01*
X29000000Y-39350000D02*
X29700000Y-39350000D01*
X30200000Y-38400000D02*
X31327854Y-38400000D01*
X29700000Y-39350000D02*
X29950000Y-39100000D01*
X31327854Y-38400000D02*
X32327854Y-39400000D01*
X29950000Y-39100000D02*
X29950000Y-38650000D01*
X34380000Y-39400000D02*
X35550000Y-38230000D01*
X29950000Y-38650000D02*
X30200000Y-38400000D01*
X32327854Y-39400000D02*
X34380000Y-39400000D01*
D31*
X32150000Y-1400000D02*
X29600000Y-1400000D01*
X29215000Y-1600000D02*
X29400000Y-1600000D01*
X29600000Y-1400000D02*
X29400000Y-1600000D01*
X28840000Y-1975000D02*
X29215000Y-1600000D01*
X31875000Y-1675000D02*
X31923501Y-1626499D01*
X31875000Y-1975000D02*
X31875000Y-1675000D01*
X31923501Y-1626499D02*
X32150000Y-1400000D01*
X32650000Y-1975000D02*
X31875000Y-1975000D01*
X33920000Y-1975000D02*
X31875000Y-1975000D01*
X35150000Y-12950000D02*
X35150000Y-14212000D01*
X35200000Y-20038000D02*
X35200000Y-21300000D01*
X35150000Y-14212000D02*
X36362001Y-15424001D01*
X36362001Y-15424001D02*
X36362001Y-18875999D01*
X36362001Y-18875999D02*
X35200000Y-20038000D01*
D32*
X16570000Y-26170000D02*
X20050000Y-26170000D01*
X16450000Y-26050000D02*
X16570000Y-26170000D01*
X20050000Y-26170000D02*
X20170000Y-26050000D01*
D31*
X18680000Y-1975000D02*
X28840000Y-1975000D01*
X33920000Y-1975000D02*
X34850000Y-1975000D01*
X33920000Y-1975000D02*
X32650000Y-1975000D01*
X11350000Y-1975000D02*
X18680000Y-1975000D01*
D32*
X34850000Y-1975000D02*
X34900000Y-1925000D01*
X35150000Y-2175000D02*
X34900000Y-1925000D01*
D33*
X2175011Y-29995011D02*
X1650000Y-29470000D01*
X2175011Y-36775011D02*
X2175011Y-29995011D01*
X11100000Y-45700000D02*
X2175011Y-36775011D01*
X7875000Y-14725000D02*
X7875000Y-13375000D01*
X7875000Y-13375000D02*
X7675000Y-13175000D01*
X5875000Y-15675000D02*
X5875000Y-17725000D01*
X5875000Y-17725000D02*
X6225000Y-18075000D01*
D31*
X25750000Y-33050000D02*
X25750000Y-31150000D01*
X25750000Y-31150000D02*
X25600000Y-31000000D01*
D33*
X25600000Y-32900000D02*
X25750000Y-33050000D01*
X23750000Y-34000000D02*
X22950000Y-34000000D01*
X22950000Y-34000000D02*
X22250000Y-34700000D01*
X3600000Y-14700000D02*
X3600000Y-13450000D01*
X3600000Y-13450000D02*
X3300000Y-13150000D01*
X1600000Y-15650000D02*
X1600000Y-17900000D01*
X1600000Y-17900000D02*
X1850000Y-18150000D01*
X18750000Y-44000000D02*
X18750000Y-42750000D01*
X18750000Y-42750000D02*
X18450000Y-42450000D01*
X16750000Y-44950000D02*
X16025000Y-44950000D01*
X16025000Y-44950000D02*
X15250000Y-45725000D01*
X18300000Y-36800000D02*
X18300000Y-37975000D01*
X18300000Y-37975000D02*
X18750000Y-38425000D01*
X16750000Y-39375000D02*
X15800000Y-39375000D01*
X15800000Y-39375000D02*
X15250000Y-39925000D01*
X32800000Y-43925000D02*
X32800000Y-42625000D01*
X32800000Y-42625000D02*
X32500000Y-42325000D01*
X30800000Y-44875000D02*
X30075000Y-44875000D01*
X30075000Y-44875000D02*
X29300000Y-45650000D01*
D31*
X18450000Y-31000000D02*
X18450000Y-32750000D01*
X18450000Y-32750000D02*
X18750000Y-33050000D01*
D33*
X16750000Y-34000000D02*
X15950000Y-34000000D01*
X15950000Y-34000000D02*
X15250000Y-34700000D01*
X25750000Y-44000000D02*
X25750000Y-42775000D01*
X25750000Y-42775000D02*
X25450000Y-42475000D01*
X23750000Y-44950000D02*
X22700000Y-44950000D01*
X22700000Y-44950000D02*
X22150000Y-45500000D01*
X22150000Y-45500000D02*
X21950000Y-45500000D01*
X32800000Y-38425000D02*
X32800000Y-37125000D01*
X32800000Y-37125000D02*
X32500000Y-36825000D01*
X29700000Y-40125000D02*
X29000000Y-40125000D01*
X30450000Y-39375000D02*
X29700000Y-40125000D01*
X30800000Y-39375000D02*
X30450000Y-39375000D01*
X30800000Y-39375000D02*
X30522002Y-39375000D01*
X25750000Y-38425000D02*
X25750000Y-36975000D01*
X25750000Y-36975000D02*
X25600000Y-36825000D01*
X23645000Y-40130000D02*
X23640000Y-40125000D01*
X23640000Y-40125000D02*
X22100000Y-40125000D01*
X23750000Y-39375000D02*
X23750000Y-40025000D01*
X23750000Y-40025000D02*
X23645000Y-40130000D01*
X11357432Y-23662223D02*
X10620155Y-24399500D01*
X11357432Y-21127432D02*
X11357432Y-23662223D01*
X9590000Y-20460000D02*
X10690000Y-20460000D01*
X8200000Y-21850000D02*
X9590000Y-20460000D01*
X7500000Y-21850000D02*
X8200000Y-21850000D01*
X10690000Y-20460000D02*
X11357432Y-21127432D01*
X17750000Y-24950000D02*
X15300000Y-24950000D01*
X15300000Y-24950000D02*
X14070000Y-23720000D01*
X17750000Y-24950000D02*
X17700000Y-24950000D01*
X14809681Y-20950000D02*
X13570000Y-22189681D01*
X13570000Y-22189681D02*
X13570000Y-22510000D01*
X17650000Y-20950000D02*
X14809681Y-20950000D01*
X8830000Y-23280000D02*
X7660000Y-23280000D01*
X7660000Y-23280000D02*
X7500000Y-23120000D01*
X15493175Y-17150000D02*
X15298490Y-17344685D01*
X17650000Y-17150000D02*
X15493175Y-17150000D01*
X8760000Y-24390000D02*
X9850000Y-23300000D01*
X7500000Y-24390000D02*
X8760000Y-24390000D01*
X17525000Y-17275000D02*
X17650000Y-17150000D01*
X33150000Y-24200000D02*
X32450000Y-24200000D01*
X32450000Y-24200000D02*
X32000000Y-23750000D01*
X31250000Y-21100000D02*
X31050000Y-21100000D01*
X32000000Y-23750000D02*
X32000000Y-21850000D01*
X32000000Y-21850000D02*
X31250000Y-21100000D01*
X32950000Y-22550000D02*
X32950000Y-23050000D01*
X32950000Y-23050000D02*
X33150000Y-23250000D01*
X33150000Y-23250000D02*
X33825000Y-23250000D01*
X34425000Y-23850000D02*
X34425000Y-24850000D01*
X33825000Y-23250000D02*
X34425000Y-23850000D01*
X34425000Y-24850000D02*
X33175000Y-26100000D01*
X33175000Y-26100000D02*
X33150000Y-26100000D01*
X10585415Y-19719004D02*
X9200670Y-19719004D01*
X11830000Y-20963589D02*
X10585415Y-19719004D01*
X11830000Y-25042634D02*
X11830000Y-20963589D01*
X11693045Y-25179589D02*
X11830000Y-25042634D01*
X7725000Y-18075000D02*
X7725000Y-18775000D01*
X7725000Y-18775000D02*
X7960254Y-19010254D01*
X7960254Y-19010254D02*
X7992924Y-19010254D01*
X9200670Y-19719004D02*
X8880351Y-19719004D01*
X7725000Y-18075000D02*
X7725000Y-18275000D01*
X3350000Y-18150000D02*
X4950000Y-18150000D01*
X4950000Y-18150000D02*
X5000000Y-18100000D01*
X13273761Y-19023761D02*
X13273761Y-17141237D01*
X13273761Y-17141237D02*
X14939999Y-15474999D01*
X14939999Y-15474999D02*
X16452003Y-15474999D01*
X22000000Y-27115638D02*
X21668480Y-27447158D01*
X16452003Y-15474999D02*
X17402003Y-16424999D01*
X17402003Y-16424999D02*
X20124999Y-16424999D01*
X20124999Y-16424999D02*
X20924990Y-17224990D01*
X20924990Y-17224990D02*
X21338176Y-17224990D01*
X21338176Y-17224990D02*
X22000000Y-17886814D01*
X22000000Y-17886814D02*
X22000000Y-27115638D01*
X21668480Y-27447158D02*
X21668480Y-27730000D01*
X23977458Y-27830063D02*
X23777459Y-27630064D01*
X27140256Y-30992861D02*
X23977458Y-27830063D01*
X27140256Y-32054796D02*
X27140256Y-30992861D01*
X29044277Y-42530012D02*
X29044277Y-44305723D01*
X29044277Y-44305723D02*
X29000000Y-44350000D01*
X27849998Y-39449998D02*
X27850000Y-39450000D01*
X27849998Y-35300000D02*
X27849998Y-39449998D01*
X24133707Y-27034560D02*
X23850865Y-27034560D01*
X27771650Y-30672503D02*
X24133707Y-27034560D01*
X27771650Y-32050011D02*
X27771650Y-30672503D01*
X16293269Y-27060010D02*
X19247158Y-27060010D01*
X12793177Y-20842538D02*
X12793177Y-23559918D01*
X12748760Y-20798121D02*
X12793177Y-20842538D01*
X12793177Y-23559918D02*
X16293269Y-27060010D01*
X12748760Y-16851240D02*
X12748760Y-20798121D01*
X13850000Y-15750000D02*
X12748760Y-16851240D01*
X19247158Y-27060010D02*
X19257158Y-27070010D01*
X19257158Y-27070010D02*
X19540000Y-27070010D01*
X27200002Y-43482842D02*
X27200002Y-43200000D01*
X27200002Y-43882840D02*
X27200002Y-43482842D01*
X26082842Y-45000000D02*
X27200002Y-43882840D01*
X24650000Y-44335002D02*
X25314998Y-45000000D01*
X25314998Y-45000000D02*
X26082842Y-45000000D01*
X27207998Y-37057998D02*
X27200000Y-37050000D01*
X27207998Y-39424990D02*
X27207998Y-37057998D01*
X24539998Y-44225000D02*
X24650000Y-44335002D01*
X21950000Y-44000000D02*
X24314998Y-44000000D01*
X24314998Y-44000000D02*
X24650000Y-44335002D01*
X21049998Y-38975002D02*
X21400000Y-38625000D01*
X19574998Y-36396000D02*
X19574998Y-38546002D01*
X14100000Y-35900000D02*
X19078998Y-35900000D01*
X19574998Y-38546002D02*
X20003998Y-38975002D01*
X21400000Y-38625000D02*
X22100000Y-38625000D01*
X19078998Y-35900000D02*
X19574998Y-36396000D01*
X13850000Y-35650000D02*
X14100000Y-35900000D01*
X20003998Y-38975002D02*
X21049998Y-38975002D01*
X22400000Y-38425000D02*
X22003998Y-38425000D01*
X13326400Y-24999942D02*
X13326400Y-28378592D01*
X14563614Y-13875597D02*
X12298749Y-16140462D01*
X13427809Y-28480001D02*
X13627808Y-28680000D01*
X12298749Y-16140462D02*
X12298749Y-20984521D01*
X13326400Y-28378592D02*
X13427809Y-28480001D01*
X14563614Y-12602805D02*
X14563614Y-13875597D01*
X12343166Y-21028938D02*
X12343166Y-24016708D01*
X12298749Y-20984521D02*
X12343166Y-21028938D01*
X12343166Y-24016708D02*
X13326400Y-24999942D01*
X21722696Y-12602805D02*
X22924989Y-13805098D01*
X22450011Y-28870747D02*
X21950000Y-29370758D01*
X22924989Y-13805098D02*
X22924989Y-19588177D01*
X22924989Y-19588177D02*
X22450011Y-20063155D01*
X22450011Y-20063155D02*
X22450011Y-28870747D01*
X21950000Y-29370758D02*
X21950000Y-32900000D01*
X21950000Y-32900000D02*
X21950000Y-33400000D01*
X12470296Y-35978058D02*
X12470296Y-35695216D01*
X13550000Y-38700000D02*
X12470296Y-37620296D01*
X12470296Y-37620296D02*
X12470296Y-35978058D01*
X13799999Y-43899999D02*
X13600000Y-43700000D01*
X14125000Y-44225000D02*
X13799999Y-43899999D01*
X15250000Y-44225000D02*
X14125000Y-44225000D01*
X13102798Y-35924841D02*
X13102798Y-35641999D01*
X14227998Y-38425000D02*
X13102798Y-37299800D01*
X15250000Y-38425000D02*
X14227998Y-38425000D01*
X13102798Y-37299800D02*
X13102798Y-35924841D01*
X14299999Y-34050001D02*
X14100000Y-34250000D01*
X15150000Y-33200000D02*
X14299999Y-34050001D01*
X15250000Y-33200000D02*
X15150000Y-33200000D01*
X29424989Y-31742170D02*
X29449988Y-31767169D01*
X29449988Y-31767169D02*
X29449988Y-32050011D01*
X29424989Y-30011313D02*
X29424989Y-31742170D01*
X24593265Y-25179589D02*
X29424989Y-30011313D01*
X29300000Y-36182842D02*
X29300000Y-35900000D01*
X29300000Y-38425000D02*
X29300000Y-36182842D01*
X8484993Y-15799991D02*
X8700009Y-16015007D01*
X7514989Y-15799991D02*
X8484993Y-15799991D01*
X8700009Y-19119393D02*
X7500000Y-20319402D01*
X6175000Y-14460002D02*
X7514989Y-15799991D01*
X6175000Y-13175000D02*
X6175000Y-14460002D01*
X7500000Y-20319402D02*
X7500000Y-20580000D01*
X8700009Y-16015007D02*
X8700009Y-19119393D01*
X24100000Y-31200000D02*
X23404832Y-31895168D01*
X24100000Y-31000000D02*
X24100000Y-31200000D01*
X23404832Y-31895168D02*
X23404832Y-32050011D01*
X22998109Y-48002852D02*
X22998109Y-47720010D01*
X22998109Y-48268109D02*
X22998109Y-48002852D01*
X23300000Y-48570000D02*
X22998109Y-48268109D01*
X2026240Y-21850000D02*
X2396455Y-21479785D01*
X1650000Y-21850000D02*
X2026240Y-21850000D01*
X2396455Y-21479785D02*
X2622954Y-21253286D01*
X1800000Y-13150000D02*
X1800000Y-13850000D01*
X1800000Y-13850000D02*
X2600000Y-14650000D01*
X2600000Y-14650000D02*
X2600000Y-17879681D01*
X2600000Y-17879681D02*
X2600000Y-18200000D01*
X1336103Y-21850000D02*
X1650000Y-21850000D01*
X1800000Y-13150000D02*
X1800000Y-13350000D01*
X1825000Y-13175000D02*
X1800000Y-13150000D01*
X21481076Y-48021076D02*
X21481076Y-48002852D01*
X22030000Y-48570000D02*
X21481076Y-48021076D01*
X21481076Y-48002852D02*
X21481076Y-47720010D01*
X16990000Y-43230000D02*
X16990000Y-42290000D01*
X16990000Y-42290000D02*
X16950000Y-42250000D01*
X16950000Y-42450000D02*
X16950000Y-42250000D01*
X17550000Y-36950000D02*
X16950000Y-36950000D01*
X16950000Y-36950000D02*
X16800000Y-36800000D01*
X16815000Y-36690000D02*
X16750000Y-36625000D01*
X16835690Y-36825000D02*
X16827024Y-36833666D01*
X20760000Y-48570000D02*
X20760000Y-47954998D01*
X20760000Y-47954998D02*
X20050001Y-47244999D01*
X20050001Y-47244999D02*
X19264999Y-47244999D01*
X19264999Y-47244999D02*
X19140000Y-47120000D01*
X27180000Y-47280000D02*
X27180000Y-48500000D01*
X27180000Y-48500000D02*
X27110000Y-48570000D01*
X29920000Y-42705000D02*
X29920000Y-44050000D01*
X31000000Y-42125000D02*
X30500000Y-42125000D01*
X30500000Y-42125000D02*
X29920000Y-42705000D01*
X31125000Y-42350000D02*
X31150000Y-42325000D01*
X16950000Y-32000011D02*
X17000000Y-32050011D01*
X16950000Y-31000000D02*
X16950000Y-32000011D01*
X19490000Y-48570000D02*
X19480000Y-48570000D01*
X19480000Y-48570000D02*
X18140000Y-47230000D01*
X23950000Y-42994990D02*
X24225010Y-43270000D01*
X23950000Y-42275000D02*
X23950000Y-42994990D01*
X25840000Y-48570000D02*
X25840000Y-47740000D01*
X25840000Y-47740000D02*
X25130000Y-47030000D01*
X23899990Y-42424990D02*
X23780173Y-42424990D01*
X23950000Y-42475000D02*
X23899990Y-42424990D01*
X21911239Y-52568761D02*
X21911239Y-52258761D01*
X20760000Y-53720000D02*
X21911239Y-52568761D01*
X20760000Y-54420000D02*
X20760000Y-53720000D01*
X30910000Y-37590000D02*
X30910000Y-36735000D01*
X30910000Y-36735000D02*
X30800000Y-36625000D01*
X31000000Y-36450000D02*
X30917365Y-36532635D01*
X24442496Y-47773303D02*
X24242497Y-47573304D01*
X24570000Y-47900807D02*
X24442496Y-47773303D01*
X24570000Y-48570000D02*
X24570000Y-47900807D01*
X23700000Y-37650000D02*
X23700000Y-36825000D01*
X23700000Y-36825000D02*
X23900000Y-36625000D01*
X24000000Y-36725000D02*
X24100000Y-36825000D01*
X2900000Y-23120000D02*
X1650000Y-23120000D01*
X12900000Y-42750000D02*
X12050000Y-41900000D01*
X3761502Y-23981502D02*
X2900000Y-23120000D01*
X2975010Y-25891214D02*
X3761502Y-25104722D01*
X2975010Y-26622014D02*
X2975010Y-25891214D01*
X3770011Y-27417015D02*
X2975010Y-26622014D01*
X18800000Y-49765002D02*
X18800000Y-49160000D01*
X18800000Y-49160000D02*
X17465001Y-47825001D01*
X12900000Y-45160002D02*
X12900000Y-42750000D01*
X10476410Y-41900000D02*
X3770011Y-35193601D01*
X12050000Y-41900000D02*
X10476410Y-41900000D01*
X19804998Y-50770000D02*
X18800000Y-49765002D01*
X17465001Y-47825001D02*
X15564999Y-47825001D01*
X3770011Y-35193601D02*
X3770011Y-27417015D01*
X15564999Y-47825001D02*
X12900000Y-45160002D01*
X25430000Y-50770000D02*
X19804998Y-50770000D01*
X28380000Y-53720000D02*
X25430000Y-50770000D01*
X28380000Y-54420000D02*
X28380000Y-53720000D01*
X3761502Y-25104722D02*
X3761502Y-23981502D01*
X35200000Y-23988589D02*
X35200000Y-26300000D01*
X33725001Y-22513590D02*
X35200000Y-23988589D01*
X33725001Y-21625001D02*
X33725001Y-22513590D01*
X32950000Y-21050000D02*
X33150000Y-21050000D01*
X33150000Y-21050000D02*
X33725001Y-21625001D01*
X33725001Y-21625001D02*
X32950000Y-21050000D01*
X33000000Y-12700000D02*
X33200000Y-12700000D01*
X33200000Y-12700000D02*
X33950000Y-13450000D01*
X33950000Y-13450000D02*
X33950000Y-14313589D01*
X33950000Y-14313589D02*
X35150000Y-15513589D01*
X35150000Y-15513589D02*
X35150000Y-17950000D01*
X33050000Y-15950000D02*
X33000000Y-15950000D01*
X31950000Y-13450000D02*
X31200000Y-12700000D01*
X33000000Y-15950000D02*
X31950000Y-14900000D01*
X31950000Y-14900000D02*
X31950000Y-13450000D01*
X31200000Y-12700000D02*
X31000000Y-12700000D01*
X33000000Y-14200000D02*
X33200000Y-14200000D01*
X33200000Y-14200000D02*
X34000000Y-15000000D01*
X34000000Y-15000000D02*
X34000000Y-16950000D01*
X34000000Y-16950000D02*
X33100000Y-17850000D01*
X33100000Y-17850000D02*
X33050000Y-17850000D01*
X31050000Y-22600000D02*
X31050000Y-23100000D01*
X31050000Y-23100000D02*
X29825009Y-24324991D01*
X29825009Y-24324991D02*
X28575009Y-24324991D01*
X28575009Y-24324991D02*
X28376499Y-24523501D01*
X28376499Y-24523501D02*
X28150000Y-24750000D01*
X21076150Y-29510799D02*
X21078171Y-29508778D01*
X8750000Y-25660000D02*
X12600799Y-29510799D01*
X7500000Y-25660000D02*
X8750000Y-25660000D01*
X21078171Y-29508778D02*
X21398490Y-29508778D01*
X12600799Y-29510799D02*
X21076150Y-29510799D01*
X22926750Y-29923250D02*
X22926499Y-29923501D01*
X22926499Y-29923501D02*
X22700000Y-30150000D01*
X31000000Y-15178998D02*
X22926750Y-23252248D01*
X22926750Y-23252248D02*
X22926750Y-29923250D01*
X31000000Y-14200000D02*
X31000000Y-15178998D01*
X20788386Y-30093969D02*
X21108705Y-30093969D01*
X7500000Y-26930000D02*
X9383589Y-26930000D01*
X12547558Y-30093969D02*
X20788386Y-30093969D01*
X9383589Y-26930000D02*
X12547558Y-30093969D01*
X30950000Y-14250000D02*
X31000000Y-14200000D01*
D32*
X10300000Y-54000000D02*
X11170000Y-54000000D01*
X11170000Y-54000000D02*
X12269990Y-52900010D01*
X12269990Y-52900010D02*
X12280000Y-52900010D01*
X11100000Y-35540000D02*
X11949999Y-34690001D01*
X11949999Y-34690001D02*
X12370001Y-34690001D01*
X12370001Y-34690001D02*
X13350000Y-33710002D01*
X13350000Y-33710002D02*
X13350000Y-32250000D01*
X13350000Y-32250000D02*
X13950000Y-31650000D01*
X13950000Y-31650000D02*
X15500000Y-31650000D01*
D34*
X11100000Y-35550000D02*
X11100000Y-35466966D01*
X32350000Y-33750000D02*
X32350000Y-33682842D01*
X32350000Y-33682842D02*
X32350000Y-33400000D01*
X31750000Y-34350000D02*
X32350000Y-33750000D01*
D31*
X11170000Y-54000000D02*
X12280000Y-52890000D01*
X10300000Y-54000000D02*
X10560002Y-54000000D01*
X10560002Y-54000000D02*
X10570002Y-53990000D01*
D33*
X24252999Y-55018511D02*
X24026500Y-55245010D01*
X24570000Y-54420000D02*
X24570000Y-54701510D01*
X24570000Y-54701510D02*
X24252999Y-55018511D01*
X24570000Y-54420000D02*
X24570000Y-53170000D01*
X24570000Y-53170000D02*
X25265010Y-52474990D01*
X25265010Y-52474990D02*
X25450000Y-52474990D01*
X33914488Y-35949116D02*
X33914488Y-36231958D01*
X33914488Y-33485512D02*
X33914488Y-35949116D01*
X35500000Y-33000000D02*
X34400000Y-33000000D01*
X34400000Y-33000000D02*
X33914488Y-33485512D01*
X11100000Y-33000000D02*
X8240000Y-33000000D01*
X8240000Y-33000000D02*
X4369999Y-29129999D01*
X4369999Y-29129999D02*
X4369999Y-27159999D01*
X4369999Y-27159999D02*
X3570000Y-26360000D01*
X1650000Y-25660000D02*
X1791021Y-25660000D01*
X1791021Y-25660000D02*
X2361109Y-26230088D01*
X33799989Y-42100011D02*
X33799989Y-46430464D01*
X34040000Y-41860000D02*
X33799989Y-42100011D01*
X1710000Y-25600000D02*
X1650000Y-25660000D01*
X34889998Y-33150000D02*
X35550000Y-33150000D01*
X15750000Y-24000000D02*
X18800000Y-24000000D01*
X18800000Y-24000000D02*
X19600000Y-23200000D01*
X19600000Y-23200000D02*
X19600000Y-23000000D01*
X15750000Y-24000000D02*
X15700000Y-24000000D01*
X19550000Y-23050000D02*
X19600000Y-23000000D01*
X15650000Y-20000000D02*
X18050000Y-20000000D01*
X18050000Y-20000000D02*
X19100000Y-18950000D01*
X19100000Y-18950000D02*
X19600000Y-18950000D01*
X15650000Y-20000000D02*
X15700000Y-20000000D01*
X18800000Y-15525000D02*
X19575000Y-15525000D01*
X19575000Y-15525000D02*
X19600000Y-15500000D01*
X15650000Y-16200000D02*
X16400000Y-16200000D01*
X16400000Y-16200000D02*
X16650000Y-16450000D01*
D35*
G36*
X12767168Y-38991970D02*
X12841708Y-39172372D01*
X13076393Y-39407466D01*
X13383179Y-39534855D01*
X13715363Y-39535145D01*
X14022372Y-39408292D01*
X14076549Y-39354209D01*
X14105711Y-39374134D01*
X14048559Y-39410910D01*
X13903569Y-39623110D01*
X13852560Y-39875000D01*
X13852560Y-40375000D01*
X13896838Y-40610317D01*
X14035910Y-40826441D01*
X14248110Y-40971431D01*
X14500000Y-41022440D01*
X15400000Y-41022440D01*
X15635317Y-40978162D01*
X15851441Y-40839090D01*
X15996431Y-40626890D01*
X16047440Y-40375000D01*
X16047440Y-40370973D01*
X16048110Y-40371431D01*
X16300000Y-40422440D01*
X17200000Y-40422440D01*
X17435317Y-40378162D01*
X17651441Y-40239090D01*
X17738064Y-40112314D01*
X17823750Y-40198000D01*
X18623000Y-40198000D01*
X18623000Y-40185013D01*
X18877000Y-40185013D01*
X18877000Y-40198000D01*
X19676250Y-40198000D01*
X19689237Y-40185013D01*
X21002560Y-40185013D01*
X21002560Y-40375000D01*
X21046838Y-40610317D01*
X21185910Y-40826441D01*
X21398110Y-40971431D01*
X21650000Y-41022440D01*
X22550000Y-41022440D01*
X22785317Y-40978162D01*
X22930095Y-40885000D01*
X23619864Y-40885000D01*
X23645000Y-40890000D01*
X23935839Y-40832148D01*
X24182401Y-40667401D01*
X24287401Y-40562401D01*
X24406938Y-40383502D01*
X24435317Y-40378162D01*
X24651441Y-40239090D01*
X24738064Y-40112314D01*
X24823750Y-40198000D01*
X25623000Y-40198000D01*
X25623000Y-40178000D01*
X25877000Y-40178000D01*
X25877000Y-40198000D01*
X26676250Y-40198000D01*
X26739622Y-40134628D01*
X27041177Y-40259845D01*
X27373361Y-40260135D01*
X27498813Y-40208299D01*
X27683179Y-40284855D01*
X27902560Y-40285047D01*
X27902560Y-40375000D01*
X27946838Y-40610317D01*
X28085910Y-40826441D01*
X28298110Y-40971431D01*
X28550000Y-41022440D01*
X29450000Y-41022440D01*
X29685317Y-40978162D01*
X29888303Y-40847544D01*
X29990839Y-40827148D01*
X30237401Y-40662401D01*
X30477362Y-40422440D01*
X31250000Y-40422440D01*
X31485317Y-40378162D01*
X31701441Y-40239090D01*
X31788064Y-40112314D01*
X31873750Y-40198000D01*
X32673000Y-40198000D01*
X32673000Y-40178000D01*
X32927000Y-40178000D01*
X32927000Y-40198000D01*
X33726250Y-40198000D01*
X33764250Y-40160000D01*
X34101231Y-40160000D01*
X34058524Y-40263110D01*
X34179845Y-40493000D01*
X35373000Y-40493000D01*
X35373000Y-40473000D01*
X35627000Y-40473000D01*
X35627000Y-40493000D01*
X35647000Y-40493000D01*
X35647000Y-40747000D01*
X35627000Y-40747000D01*
X35627000Y-40767000D01*
X35373000Y-40767000D01*
X35373000Y-40747000D01*
X34179845Y-40747000D01*
X34058524Y-40976890D01*
X34078464Y-41025033D01*
X33874637Y-41024855D01*
X33800412Y-41055524D01*
X33885000Y-40851310D01*
X33885000Y-40610750D01*
X33726250Y-40452000D01*
X32927000Y-40452000D01*
X32927000Y-40472000D01*
X32673000Y-40472000D01*
X32673000Y-40452000D01*
X31873750Y-40452000D01*
X31715000Y-40610750D01*
X31715000Y-40851310D01*
X31811673Y-41084699D01*
X31883333Y-41156359D01*
X31798559Y-41210910D01*
X31750866Y-41280711D01*
X31714090Y-41223559D01*
X31501890Y-41078569D01*
X31250000Y-41027560D01*
X30750000Y-41027560D01*
X30514683Y-41071838D01*
X30298559Y-41210910D01*
X30153569Y-41423110D01*
X30144930Y-41465770D01*
X29962599Y-41587599D01*
X29622677Y-41927521D01*
X29517884Y-41822546D01*
X29211098Y-41695157D01*
X28878914Y-41694867D01*
X28571905Y-41821720D01*
X28336811Y-42056405D01*
X28209422Y-42363191D01*
X28209132Y-42695375D01*
X28284277Y-42877241D01*
X28284277Y-43516404D01*
X28098559Y-43635910D01*
X27960002Y-43838695D01*
X27960002Y-43547091D01*
X28034857Y-43366821D01*
X28035147Y-43034637D01*
X27908294Y-42727628D01*
X27673609Y-42492534D01*
X27366823Y-42365145D01*
X27034639Y-42364855D01*
X26727630Y-42491708D01*
X26499040Y-42719900D01*
X26452148Y-42484161D01*
X26347440Y-42327454D01*
X26347440Y-41825000D01*
X26303162Y-41589683D01*
X26164090Y-41373559D01*
X26144246Y-41360000D01*
X26326309Y-41360000D01*
X26559698Y-41263327D01*
X26738327Y-41084699D01*
X26835000Y-40851310D01*
X26835000Y-40610750D01*
X26676250Y-40452000D01*
X25877000Y-40452000D01*
X25877000Y-40472000D01*
X25623000Y-40472000D01*
X25623000Y-40452000D01*
X24823750Y-40452000D01*
X24665000Y-40610750D01*
X24665000Y-40851310D01*
X24761673Y-41084699D01*
X24924603Y-41247629D01*
X24748559Y-41360910D01*
X24700866Y-41430711D01*
X24664090Y-41373559D01*
X24451890Y-41228569D01*
X24200000Y-41177560D01*
X23700000Y-41177560D01*
X23464683Y-41221838D01*
X23248559Y-41360910D01*
X23103569Y-41573110D01*
X23052560Y-41825000D01*
X23052560Y-42262171D01*
X23020173Y-42424990D01*
X23052560Y-42587809D01*
X23052560Y-42725000D01*
X23096838Y-42960317D01*
X23221701Y-43154359D01*
X23238736Y-43240000D01*
X22778386Y-43240000D01*
X22651890Y-43153569D01*
X22400000Y-43102560D01*
X21500000Y-43102560D01*
X21264683Y-43146838D01*
X21048559Y-43285910D01*
X20903569Y-43498110D01*
X20852560Y-43750000D01*
X20852560Y-44250000D01*
X20896838Y-44485317D01*
X21035910Y-44701441D01*
X21105711Y-44749134D01*
X21048559Y-44785910D01*
X20903569Y-44998110D01*
X20852560Y-45250000D01*
X20852560Y-45750000D01*
X20896838Y-45985317D01*
X21035910Y-46201441D01*
X21248110Y-46346431D01*
X21500000Y-46397440D01*
X22400000Y-46397440D01*
X22635317Y-46353162D01*
X22851441Y-46214090D01*
X22996431Y-46001890D01*
X23012578Y-45922153D01*
X23048110Y-45946431D01*
X23300000Y-45997440D01*
X24200000Y-45997440D01*
X24435317Y-45953162D01*
X24651441Y-45814090D01*
X24738064Y-45687314D01*
X24823750Y-45773000D01*
X25623000Y-45773000D01*
X25623000Y-45760000D01*
X25877000Y-45760000D01*
X25877000Y-45773000D01*
X26676250Y-45773000D01*
X26835000Y-45614250D01*
X26835000Y-45373690D01*
X26820049Y-45337595D01*
X27737403Y-44420241D01*
X27902150Y-44173679D01*
X27902560Y-44171618D01*
X27902560Y-44600000D01*
X27946838Y-44835317D01*
X28085910Y-45051441D01*
X28155711Y-45099134D01*
X28098559Y-45135910D01*
X27953569Y-45348110D01*
X27902560Y-45600000D01*
X27902560Y-46100000D01*
X27946838Y-46335317D01*
X28085910Y-46551441D01*
X28298110Y-46696431D01*
X28550000Y-46747440D01*
X29450000Y-46747440D01*
X29685317Y-46703162D01*
X29901441Y-46564090D01*
X30046431Y-46351890D01*
X30095263Y-46110750D01*
X31715000Y-46110750D01*
X31715000Y-46351310D01*
X31811673Y-46584699D01*
X31990302Y-46763327D01*
X32223691Y-46860000D01*
X32514250Y-46860000D01*
X32673000Y-46701250D01*
X32673000Y-45952000D01*
X31873750Y-45952000D01*
X31715000Y-46110750D01*
X30095263Y-46110750D01*
X30097440Y-46100000D01*
X30097440Y-45927362D01*
X30144065Y-45880737D01*
X30350000Y-45922440D01*
X31250000Y-45922440D01*
X31485317Y-45878162D01*
X31701441Y-45739090D01*
X31788064Y-45612314D01*
X31873750Y-45698000D01*
X32673000Y-45698000D01*
X32673000Y-45678000D01*
X32927000Y-45678000D01*
X32927000Y-45698000D01*
X32947000Y-45698000D01*
X32947000Y-45952000D01*
X32927000Y-45952000D01*
X32927000Y-46701250D01*
X33065722Y-46839972D01*
X33091697Y-46902836D01*
X33326382Y-47137930D01*
X33404894Y-47170531D01*
X33404855Y-47215363D01*
X33531708Y-47522372D01*
X33766393Y-47757466D01*
X34073179Y-47884855D01*
X34405363Y-47885145D01*
X34712372Y-47758292D01*
X34947466Y-47523607D01*
X35074855Y-47216821D01*
X35074952Y-47106240D01*
X35470907Y-47185000D01*
X35529093Y-47185000D01*
X36097378Y-47071961D01*
X36290000Y-46943255D01*
X36290000Y-55213000D01*
X29302873Y-55213000D01*
X29315000Y-55152032D01*
X29315000Y-53687968D01*
X29243827Y-53330159D01*
X29041145Y-53026823D01*
X28737809Y-52824141D01*
X28514530Y-52779728D01*
X28107127Y-52372325D01*
X30644587Y-52372325D01*
X31006916Y-53249229D01*
X31677242Y-53920726D01*
X32553513Y-54284585D01*
X33502325Y-54285413D01*
X34379229Y-53923084D01*
X35050726Y-53252758D01*
X35414585Y-52376487D01*
X35415413Y-51427675D01*
X35053084Y-50550771D01*
X34382758Y-49879274D01*
X33506487Y-49515415D01*
X32557675Y-49514587D01*
X31680771Y-49876916D01*
X31009274Y-50547242D01*
X30645415Y-51423513D01*
X30644587Y-52372325D01*
X28107127Y-52372325D01*
X25967401Y-50232599D01*
X25943287Y-50216487D01*
X26197809Y-50165859D01*
X26475000Y-49980646D01*
X26752191Y-50165859D01*
X27110000Y-50237032D01*
X27467809Y-50165859D01*
X27762613Y-49968878D01*
X27808657Y-50020948D01*
X28109653Y-50165063D01*
X28253000Y-50035790D01*
X28253000Y-48697000D01*
X28507000Y-48697000D01*
X28507000Y-50035790D01*
X28650347Y-50165063D01*
X28951343Y-50020948D01*
X29195227Y-49745142D01*
X29315000Y-49397000D01*
X29315000Y-48697000D01*
X28507000Y-48697000D01*
X28253000Y-48697000D01*
X28233000Y-48697000D01*
X28233000Y-48443000D01*
X28253000Y-48443000D01*
X28253000Y-47104210D01*
X28507000Y-47104210D01*
X28507000Y-48443000D01*
X29315000Y-48443000D01*
X29315000Y-47743000D01*
X29195227Y-47394858D01*
X28951343Y-47119052D01*
X28650347Y-46974937D01*
X28507000Y-47104210D01*
X28253000Y-47104210D01*
X28109653Y-46974937D01*
X27982565Y-47035786D01*
X27888292Y-46807628D01*
X27653607Y-46572534D01*
X27346821Y-46445145D01*
X27014637Y-46444855D01*
X26788639Y-46538235D01*
X26835000Y-46426310D01*
X26835000Y-46185750D01*
X26676250Y-46027000D01*
X25877000Y-46027000D01*
X25877000Y-46047000D01*
X25623000Y-46047000D01*
X25623000Y-46027000D01*
X24823750Y-46027000D01*
X24665000Y-46185750D01*
X24665000Y-46318662D01*
X24657628Y-46321708D01*
X24422534Y-46556393D01*
X24346960Y-46738395D01*
X24077134Y-46738159D01*
X23770125Y-46865012D01*
X23659604Y-46975341D01*
X23657809Y-46974141D01*
X23300000Y-46902968D01*
X23237681Y-46915364D01*
X23164930Y-46885155D01*
X22832746Y-46884865D01*
X22525737Y-47011718D01*
X22492983Y-47044415D01*
X22387809Y-46974141D01*
X22030000Y-46902968D01*
X21800658Y-46948587D01*
X21647897Y-46885155D01*
X21315713Y-46884865D01*
X21105550Y-46971702D01*
X20788426Y-46908622D01*
X20587402Y-46707598D01*
X20340840Y-46542851D01*
X20050001Y-46484999D01*
X19810690Y-46484999D01*
X19835000Y-46426310D01*
X19835000Y-46185750D01*
X19676250Y-46027000D01*
X18877000Y-46027000D01*
X18877000Y-46047000D01*
X18623000Y-46047000D01*
X18623000Y-46027000D01*
X17823750Y-46027000D01*
X17665000Y-46185750D01*
X17665000Y-46426310D01*
X17699125Y-46508694D01*
X17667628Y-46521708D01*
X17432534Y-46756393D01*
X17305145Y-47063179D01*
X17305143Y-47065001D01*
X15879801Y-47065001D01*
X15599670Y-46784870D01*
X15635317Y-46778162D01*
X15851441Y-46639090D01*
X15996431Y-46426890D01*
X16047440Y-46175000D01*
X16047440Y-46002362D01*
X16094065Y-45955737D01*
X16300000Y-45997440D01*
X17200000Y-45997440D01*
X17435317Y-45953162D01*
X17651441Y-45814090D01*
X17738064Y-45687314D01*
X17823750Y-45773000D01*
X18623000Y-45773000D01*
X18623000Y-45753000D01*
X18877000Y-45753000D01*
X18877000Y-45773000D01*
X19676250Y-45773000D01*
X19835000Y-45614250D01*
X19835000Y-45373690D01*
X19738327Y-45140301D01*
X19559698Y-44961673D01*
X19523253Y-44946577D01*
X19651441Y-44864090D01*
X19796431Y-44651890D01*
X19847440Y-44400000D01*
X19847440Y-43600000D01*
X19803162Y-43364683D01*
X19664090Y-43148559D01*
X19510000Y-43043274D01*
X19510000Y-42750000D01*
X19452148Y-42459161D01*
X19347440Y-42302454D01*
X19347440Y-41800000D01*
X19303162Y-41564683D01*
X19171452Y-41360000D01*
X19326309Y-41360000D01*
X19559698Y-41263327D01*
X19738327Y-41084699D01*
X19835000Y-40851310D01*
X19835000Y-40610750D01*
X19676250Y-40452000D01*
X18877000Y-40452000D01*
X18877000Y-40472000D01*
X18623000Y-40472000D01*
X18623000Y-40452000D01*
X17823750Y-40452000D01*
X17665000Y-40610750D01*
X17665000Y-40851310D01*
X17761673Y-41084699D01*
X17909392Y-41232417D01*
X17748559Y-41335910D01*
X17700866Y-41405711D01*
X17664090Y-41348559D01*
X17451890Y-41203569D01*
X17200000Y-41152560D01*
X16700000Y-41152560D01*
X16464683Y-41196838D01*
X16248559Y-41335910D01*
X16103569Y-41548110D01*
X16052560Y-41800000D01*
X16052560Y-42700000D01*
X16096838Y-42935317D01*
X16164546Y-43040538D01*
X16155145Y-43063179D01*
X16154855Y-43395363D01*
X16281708Y-43702372D01*
X16481548Y-43902560D01*
X16300000Y-43902560D01*
X16064683Y-43946838D01*
X16011007Y-43981377D01*
X16003162Y-43939683D01*
X15864090Y-43723559D01*
X15651890Y-43578569D01*
X15612195Y-43570531D01*
X15540839Y-43522852D01*
X15250000Y-43465000D01*
X14439802Y-43465000D01*
X14382832Y-43408030D01*
X14308292Y-43227628D01*
X14073607Y-42992534D01*
X13766821Y-42865145D01*
X13660000Y-42865052D01*
X13660000Y-42750000D01*
X13602148Y-42459161D01*
X13437401Y-42212599D01*
X12587401Y-41362599D01*
X12426304Y-41254958D01*
X12541476Y-40976890D01*
X12420155Y-40747000D01*
X11227000Y-40747000D01*
X11227000Y-40767000D01*
X10973000Y-40767000D01*
X10973000Y-40747000D01*
X10953000Y-40747000D01*
X10953000Y-40493000D01*
X10973000Y-40493000D01*
X10973000Y-40473000D01*
X11227000Y-40473000D01*
X11227000Y-40493000D01*
X12420155Y-40493000D01*
X12541476Y-40263110D01*
X12371645Y-39853076D01*
X11981358Y-39424817D01*
X11838447Y-39357702D01*
X12179147Y-39130054D01*
X12469983Y-38694785D01*
X12767168Y-38991970D01*
X12767168Y-38991970D01*
G37*
X12767168Y-38991970D02*
X12841708Y-39172372D01*
X13076393Y-39407466D01*
X13383179Y-39534855D01*
X13715363Y-39535145D01*
X14022372Y-39408292D01*
X14076549Y-39354209D01*
X14105711Y-39374134D01*
X14048559Y-39410910D01*
X13903569Y-39623110D01*
X13852560Y-39875000D01*
X13852560Y-40375000D01*
X13896838Y-40610317D01*
X14035910Y-40826441D01*
X14248110Y-40971431D01*
X14500000Y-41022440D01*
X15400000Y-41022440D01*
X15635317Y-40978162D01*
X15851441Y-40839090D01*
X15996431Y-40626890D01*
X16047440Y-40375000D01*
X16047440Y-40370973D01*
X16048110Y-40371431D01*
X16300000Y-40422440D01*
X17200000Y-40422440D01*
X17435317Y-40378162D01*
X17651441Y-40239090D01*
X17738064Y-40112314D01*
X17823750Y-40198000D01*
X18623000Y-40198000D01*
X18623000Y-40185013D01*
X18877000Y-40185013D01*
X18877000Y-40198000D01*
X19676250Y-40198000D01*
X19689237Y-40185013D01*
X21002560Y-40185013D01*
X21002560Y-40375000D01*
X21046838Y-40610317D01*
X21185910Y-40826441D01*
X21398110Y-40971431D01*
X21650000Y-41022440D01*
X22550000Y-41022440D01*
X22785317Y-40978162D01*
X22930095Y-40885000D01*
X23619864Y-40885000D01*
X23645000Y-40890000D01*
X23935839Y-40832148D01*
X24182401Y-40667401D01*
X24287401Y-40562401D01*
X24406938Y-40383502D01*
X24435317Y-40378162D01*
X24651441Y-40239090D01*
X24738064Y-40112314D01*
X24823750Y-40198000D01*
X25623000Y-40198000D01*
X25623000Y-40178000D01*
X25877000Y-40178000D01*
X25877000Y-40198000D01*
X26676250Y-40198000D01*
X26739622Y-40134628D01*
X27041177Y-40259845D01*
X27373361Y-40260135D01*
X27498813Y-40208299D01*
X27683179Y-40284855D01*
X27902560Y-40285047D01*
X27902560Y-40375000D01*
X27946838Y-40610317D01*
X28085910Y-40826441D01*
X28298110Y-40971431D01*
X28550000Y-41022440D01*
X29450000Y-41022440D01*
X29685317Y-40978162D01*
X29888303Y-40847544D01*
X29990839Y-40827148D01*
X30237401Y-40662401D01*
X30477362Y-40422440D01*
X31250000Y-40422440D01*
X31485317Y-40378162D01*
X31701441Y-40239090D01*
X31788064Y-40112314D01*
X31873750Y-40198000D01*
X32673000Y-40198000D01*
X32673000Y-40178000D01*
X32927000Y-40178000D01*
X32927000Y-40198000D01*
X33726250Y-40198000D01*
X33764250Y-40160000D01*
X34101231Y-40160000D01*
X34058524Y-40263110D01*
X34179845Y-40493000D01*
X35373000Y-40493000D01*
X35373000Y-40473000D01*
X35627000Y-40473000D01*
X35627000Y-40493000D01*
X35647000Y-40493000D01*
X35647000Y-40747000D01*
X35627000Y-40747000D01*
X35627000Y-40767000D01*
X35373000Y-40767000D01*
X35373000Y-40747000D01*
X34179845Y-40747000D01*
X34058524Y-40976890D01*
X34078464Y-41025033D01*
X33874637Y-41024855D01*
X33800412Y-41055524D01*
X33885000Y-40851310D01*
X33885000Y-40610750D01*
X33726250Y-40452000D01*
X32927000Y-40452000D01*
X32927000Y-40472000D01*
X32673000Y-40472000D01*
X32673000Y-40452000D01*
X31873750Y-40452000D01*
X31715000Y-40610750D01*
X31715000Y-40851310D01*
X31811673Y-41084699D01*
X31883333Y-41156359D01*
X31798559Y-41210910D01*
X31750866Y-41280711D01*
X31714090Y-41223559D01*
X31501890Y-41078569D01*
X31250000Y-41027560D01*
X30750000Y-41027560D01*
X30514683Y-41071838D01*
X30298559Y-41210910D01*
X30153569Y-41423110D01*
X30144930Y-41465770D01*
X29962599Y-41587599D01*
X29622677Y-41927521D01*
X29517884Y-41822546D01*
X29211098Y-41695157D01*
X28878914Y-41694867D01*
X28571905Y-41821720D01*
X28336811Y-42056405D01*
X28209422Y-42363191D01*
X28209132Y-42695375D01*
X28284277Y-42877241D01*
X28284277Y-43516404D01*
X28098559Y-43635910D01*
X27960002Y-43838695D01*
X27960002Y-43547091D01*
X28034857Y-43366821D01*
X28035147Y-43034637D01*
X27908294Y-42727628D01*
X27673609Y-42492534D01*
X27366823Y-42365145D01*
X27034639Y-42364855D01*
X26727630Y-42491708D01*
X26499040Y-42719900D01*
X26452148Y-42484161D01*
X26347440Y-42327454D01*
X26347440Y-41825000D01*
X26303162Y-41589683D01*
X26164090Y-41373559D01*
X26144246Y-41360000D01*
X26326309Y-41360000D01*
X26559698Y-41263327D01*
X26738327Y-41084699D01*
X26835000Y-40851310D01*
X26835000Y-40610750D01*
X26676250Y-40452000D01*
X25877000Y-40452000D01*
X25877000Y-40472000D01*
X25623000Y-40472000D01*
X25623000Y-40452000D01*
X24823750Y-40452000D01*
X24665000Y-40610750D01*
X24665000Y-40851310D01*
X24761673Y-41084699D01*
X24924603Y-41247629D01*
X24748559Y-41360910D01*
X24700866Y-41430711D01*
X24664090Y-41373559D01*
X24451890Y-41228569D01*
X24200000Y-41177560D01*
X23700000Y-41177560D01*
X23464683Y-41221838D01*
X23248559Y-41360910D01*
X23103569Y-41573110D01*
X23052560Y-41825000D01*
X23052560Y-42262171D01*
X23020173Y-42424990D01*
X23052560Y-42587809D01*
X23052560Y-42725000D01*
X23096838Y-42960317D01*
X23221701Y-43154359D01*
X23238736Y-43240000D01*
X22778386Y-43240000D01*
X22651890Y-43153569D01*
X22400000Y-43102560D01*
X21500000Y-43102560D01*
X21264683Y-43146838D01*
X21048559Y-43285910D01*
X20903569Y-43498110D01*
X20852560Y-43750000D01*
X20852560Y-44250000D01*
X20896838Y-44485317D01*
X21035910Y-44701441D01*
X21105711Y-44749134D01*
X21048559Y-44785910D01*
X20903569Y-44998110D01*
X20852560Y-45250000D01*
X20852560Y-45750000D01*
X20896838Y-45985317D01*
X21035910Y-46201441D01*
X21248110Y-46346431D01*
X21500000Y-46397440D01*
X22400000Y-46397440D01*
X22635317Y-46353162D01*
X22851441Y-46214090D01*
X22996431Y-46001890D01*
X23012578Y-45922153D01*
X23048110Y-45946431D01*
X23300000Y-45997440D01*
X24200000Y-45997440D01*
X24435317Y-45953162D01*
X24651441Y-45814090D01*
X24738064Y-45687314D01*
X24823750Y-45773000D01*
X25623000Y-45773000D01*
X25623000Y-45760000D01*
X25877000Y-45760000D01*
X25877000Y-45773000D01*
X26676250Y-45773000D01*
X26835000Y-45614250D01*
X26835000Y-45373690D01*
X26820049Y-45337595D01*
X27737403Y-44420241D01*
X27902150Y-44173679D01*
X27902560Y-44171618D01*
X27902560Y-44600000D01*
X27946838Y-44835317D01*
X28085910Y-45051441D01*
X28155711Y-45099134D01*
X28098559Y-45135910D01*
X27953569Y-45348110D01*
X27902560Y-45600000D01*
X27902560Y-46100000D01*
X27946838Y-46335317D01*
X28085910Y-46551441D01*
X28298110Y-46696431D01*
X28550000Y-46747440D01*
X29450000Y-46747440D01*
X29685317Y-46703162D01*
X29901441Y-46564090D01*
X30046431Y-46351890D01*
X30095263Y-46110750D01*
X31715000Y-46110750D01*
X31715000Y-46351310D01*
X31811673Y-46584699D01*
X31990302Y-46763327D01*
X32223691Y-46860000D01*
X32514250Y-46860000D01*
X32673000Y-46701250D01*
X32673000Y-45952000D01*
X31873750Y-45952000D01*
X31715000Y-46110750D01*
X30095263Y-46110750D01*
X30097440Y-46100000D01*
X30097440Y-45927362D01*
X30144065Y-45880737D01*
X30350000Y-45922440D01*
X31250000Y-45922440D01*
X31485317Y-45878162D01*
X31701441Y-45739090D01*
X31788064Y-45612314D01*
X31873750Y-45698000D01*
X32673000Y-45698000D01*
X32673000Y-45678000D01*
X32927000Y-45678000D01*
X32927000Y-45698000D01*
X32947000Y-45698000D01*
X32947000Y-45952000D01*
X32927000Y-45952000D01*
X32927000Y-46701250D01*
X33065722Y-46839972D01*
X33091697Y-46902836D01*
X33326382Y-47137930D01*
X33404894Y-47170531D01*
X33404855Y-47215363D01*
X33531708Y-47522372D01*
X33766393Y-47757466D01*
X34073179Y-47884855D01*
X34405363Y-47885145D01*
X34712372Y-47758292D01*
X34947466Y-47523607D01*
X35074855Y-47216821D01*
X35074952Y-47106240D01*
X35470907Y-47185000D01*
X35529093Y-47185000D01*
X36097378Y-47071961D01*
X36290000Y-46943255D01*
X36290000Y-55213000D01*
X29302873Y-55213000D01*
X29315000Y-55152032D01*
X29315000Y-53687968D01*
X29243827Y-53330159D01*
X29041145Y-53026823D01*
X28737809Y-52824141D01*
X28514530Y-52779728D01*
X28107127Y-52372325D01*
X30644587Y-52372325D01*
X31006916Y-53249229D01*
X31677242Y-53920726D01*
X32553513Y-54284585D01*
X33502325Y-54285413D01*
X34379229Y-53923084D01*
X35050726Y-53252758D01*
X35414585Y-52376487D01*
X35415413Y-51427675D01*
X35053084Y-50550771D01*
X34382758Y-49879274D01*
X33506487Y-49515415D01*
X32557675Y-49514587D01*
X31680771Y-49876916D01*
X31009274Y-50547242D01*
X30645415Y-51423513D01*
X30644587Y-52372325D01*
X28107127Y-52372325D01*
X25967401Y-50232599D01*
X25943287Y-50216487D01*
X26197809Y-50165859D01*
X26475000Y-49980646D01*
X26752191Y-50165859D01*
X27110000Y-50237032D01*
X27467809Y-50165859D01*
X27762613Y-49968878D01*
X27808657Y-50020948D01*
X28109653Y-50165063D01*
X28253000Y-50035790D01*
X28253000Y-48697000D01*
X28507000Y-48697000D01*
X28507000Y-50035790D01*
X28650347Y-50165063D01*
X28951343Y-50020948D01*
X29195227Y-49745142D01*
X29315000Y-49397000D01*
X29315000Y-48697000D01*
X28507000Y-48697000D01*
X28253000Y-48697000D01*
X28233000Y-48697000D01*
X28233000Y-48443000D01*
X28253000Y-48443000D01*
X28253000Y-47104210D01*
X28507000Y-47104210D01*
X28507000Y-48443000D01*
X29315000Y-48443000D01*
X29315000Y-47743000D01*
X29195227Y-47394858D01*
X28951343Y-47119052D01*
X28650347Y-46974937D01*
X28507000Y-47104210D01*
X28253000Y-47104210D01*
X28109653Y-46974937D01*
X27982565Y-47035786D01*
X27888292Y-46807628D01*
X27653607Y-46572534D01*
X27346821Y-46445145D01*
X27014637Y-46444855D01*
X26788639Y-46538235D01*
X26835000Y-46426310D01*
X26835000Y-46185750D01*
X26676250Y-46027000D01*
X25877000Y-46027000D01*
X25877000Y-46047000D01*
X25623000Y-46047000D01*
X25623000Y-46027000D01*
X24823750Y-46027000D01*
X24665000Y-46185750D01*
X24665000Y-46318662D01*
X24657628Y-46321708D01*
X24422534Y-46556393D01*
X24346960Y-46738395D01*
X24077134Y-46738159D01*
X23770125Y-46865012D01*
X23659604Y-46975341D01*
X23657809Y-46974141D01*
X23300000Y-46902968D01*
X23237681Y-46915364D01*
X23164930Y-46885155D01*
X22832746Y-46884865D01*
X22525737Y-47011718D01*
X22492983Y-47044415D01*
X22387809Y-46974141D01*
X22030000Y-46902968D01*
X21800658Y-46948587D01*
X21647897Y-46885155D01*
X21315713Y-46884865D01*
X21105550Y-46971702D01*
X20788426Y-46908622D01*
X20587402Y-46707598D01*
X20340840Y-46542851D01*
X20050001Y-46484999D01*
X19810690Y-46484999D01*
X19835000Y-46426310D01*
X19835000Y-46185750D01*
X19676250Y-46027000D01*
X18877000Y-46027000D01*
X18877000Y-46047000D01*
X18623000Y-46047000D01*
X18623000Y-46027000D01*
X17823750Y-46027000D01*
X17665000Y-46185750D01*
X17665000Y-46426310D01*
X17699125Y-46508694D01*
X17667628Y-46521708D01*
X17432534Y-46756393D01*
X17305145Y-47063179D01*
X17305143Y-47065001D01*
X15879801Y-47065001D01*
X15599670Y-46784870D01*
X15635317Y-46778162D01*
X15851441Y-46639090D01*
X15996431Y-46426890D01*
X16047440Y-46175000D01*
X16047440Y-46002362D01*
X16094065Y-45955737D01*
X16300000Y-45997440D01*
X17200000Y-45997440D01*
X17435317Y-45953162D01*
X17651441Y-45814090D01*
X17738064Y-45687314D01*
X17823750Y-45773000D01*
X18623000Y-45773000D01*
X18623000Y-45753000D01*
X18877000Y-45753000D01*
X18877000Y-45773000D01*
X19676250Y-45773000D01*
X19835000Y-45614250D01*
X19835000Y-45373690D01*
X19738327Y-45140301D01*
X19559698Y-44961673D01*
X19523253Y-44946577D01*
X19651441Y-44864090D01*
X19796431Y-44651890D01*
X19847440Y-44400000D01*
X19847440Y-43600000D01*
X19803162Y-43364683D01*
X19664090Y-43148559D01*
X19510000Y-43043274D01*
X19510000Y-42750000D01*
X19452148Y-42459161D01*
X19347440Y-42302454D01*
X19347440Y-41800000D01*
X19303162Y-41564683D01*
X19171452Y-41360000D01*
X19326309Y-41360000D01*
X19559698Y-41263327D01*
X19738327Y-41084699D01*
X19835000Y-40851310D01*
X19835000Y-40610750D01*
X19676250Y-40452000D01*
X18877000Y-40452000D01*
X18877000Y-40472000D01*
X18623000Y-40472000D01*
X18623000Y-40452000D01*
X17823750Y-40452000D01*
X17665000Y-40610750D01*
X17665000Y-40851310D01*
X17761673Y-41084699D01*
X17909392Y-41232417D01*
X17748559Y-41335910D01*
X17700866Y-41405711D01*
X17664090Y-41348559D01*
X17451890Y-41203569D01*
X17200000Y-41152560D01*
X16700000Y-41152560D01*
X16464683Y-41196838D01*
X16248559Y-41335910D01*
X16103569Y-41548110D01*
X16052560Y-41800000D01*
X16052560Y-42700000D01*
X16096838Y-42935317D01*
X16164546Y-43040538D01*
X16155145Y-43063179D01*
X16154855Y-43395363D01*
X16281708Y-43702372D01*
X16481548Y-43902560D01*
X16300000Y-43902560D01*
X16064683Y-43946838D01*
X16011007Y-43981377D01*
X16003162Y-43939683D01*
X15864090Y-43723559D01*
X15651890Y-43578569D01*
X15612195Y-43570531D01*
X15540839Y-43522852D01*
X15250000Y-43465000D01*
X14439802Y-43465000D01*
X14382832Y-43408030D01*
X14308292Y-43227628D01*
X14073607Y-42992534D01*
X13766821Y-42865145D01*
X13660000Y-42865052D01*
X13660000Y-42750000D01*
X13602148Y-42459161D01*
X13437401Y-42212599D01*
X12587401Y-41362599D01*
X12426304Y-41254958D01*
X12541476Y-40976890D01*
X12420155Y-40747000D01*
X11227000Y-40747000D01*
X11227000Y-40767000D01*
X10973000Y-40767000D01*
X10973000Y-40747000D01*
X10953000Y-40747000D01*
X10953000Y-40493000D01*
X10973000Y-40493000D01*
X10973000Y-40473000D01*
X11227000Y-40473000D01*
X11227000Y-40493000D01*
X12420155Y-40493000D01*
X12541476Y-40263110D01*
X12371645Y-39853076D01*
X11981358Y-39424817D01*
X11838447Y-39357702D01*
X12179147Y-39130054D01*
X12469983Y-38694785D01*
X12767168Y-38991970D01*
G36*
X796108Y-30380760D02*
X782367Y-30401325D01*
X758970Y-30518949D01*
X738650Y-30567885D01*
X738603Y-30621338D01*
X715000Y-30740000D01*
X715000Y-39119995D01*
X714999Y-39120000D01*
X768874Y-39390840D01*
X782367Y-39458675D01*
X937493Y-39690839D01*
X974210Y-39745790D01*
X9241911Y-48013490D01*
X9064683Y-48046838D01*
X8848559Y-48185910D01*
X8703569Y-48398110D01*
X8652560Y-48650000D01*
X8652560Y-50150000D01*
X8696838Y-50385317D01*
X8802482Y-50549492D01*
X8761673Y-50590301D01*
X8665000Y-50823690D01*
X8665000Y-51414250D01*
X8823750Y-51573000D01*
X10173000Y-51573000D01*
X10173000Y-51553000D01*
X10427000Y-51553000D01*
X10427000Y-51573000D01*
X11776250Y-51573000D01*
X11935000Y-51414250D01*
X11935000Y-50823690D01*
X11838327Y-50590301D01*
X11796366Y-50548340D01*
X11896431Y-50401890D01*
X11939890Y-50187283D01*
X12019541Y-50171439D01*
X12290434Y-49990434D01*
X12305868Y-49975000D01*
X14965000Y-49975000D01*
X14965000Y-51414250D01*
X15123750Y-51573000D01*
X16473000Y-51573000D01*
X16473000Y-51553000D01*
X16727000Y-51553000D01*
X16727000Y-51573000D01*
X16747000Y-51573000D01*
X16747000Y-51827000D01*
X16727000Y-51827000D01*
X16727000Y-54076250D01*
X16885750Y-54235000D01*
X17726309Y-54235000D01*
X17959698Y-54138327D01*
X18138327Y-53959699D01*
X18235000Y-53726310D01*
X18235000Y-52405868D01*
X18655000Y-52825868D01*
X18655000Y-53287016D01*
X18626173Y-53330159D01*
X18555000Y-53687968D01*
X18555000Y-53693456D01*
X18404210Y-53794210D01*
X18404208Y-53794213D01*
X18174210Y-54024210D01*
X17982367Y-54311326D01*
X17914999Y-54650000D01*
X17982367Y-54988674D01*
X18132255Y-55213000D01*
X11752186Y-55213000D01*
X11896431Y-55001890D01*
X11931198Y-54830208D01*
X11972566Y-54802566D01*
X13052399Y-53722733D01*
X13082566Y-53702576D01*
X13102651Y-53672517D01*
X13241645Y-53533765D01*
X13317625Y-53350786D01*
X13328603Y-53334356D01*
X13332424Y-53315145D01*
X13414803Y-53116756D01*
X13414992Y-52900050D01*
X13415000Y-52900010D01*
X13414992Y-52899971D01*
X13415197Y-52665225D01*
X13242767Y-52247914D01*
X12981060Y-51985750D01*
X14965000Y-51985750D01*
X14965000Y-53726310D01*
X15061673Y-53959699D01*
X15240302Y-54138327D01*
X15473691Y-54235000D01*
X16314250Y-54235000D01*
X16473000Y-54076250D01*
X16473000Y-51827000D01*
X15123750Y-51827000D01*
X14965000Y-51985750D01*
X12981060Y-51985750D01*
X12923765Y-51928355D01*
X12506756Y-51755197D01*
X12055225Y-51754803D01*
X11806730Y-51857480D01*
X11776250Y-51827000D01*
X10427000Y-51827000D01*
X10427000Y-51847000D01*
X10173000Y-51847000D01*
X10173000Y-51827000D01*
X8823750Y-51827000D01*
X8665000Y-51985750D01*
X8665000Y-52576310D01*
X8761673Y-52809699D01*
X8803634Y-52851660D01*
X8703569Y-52998110D01*
X8652560Y-53250000D01*
X8652560Y-54750000D01*
X8696838Y-54985317D01*
X8835910Y-55201441D01*
X8852827Y-55213000D01*
X756630Y-55213000D01*
X748358Y-52372325D01*
X2314587Y-52372325D01*
X2676916Y-53249229D01*
X3347242Y-53920726D01*
X4223513Y-54284585D01*
X5172325Y-54285413D01*
X6049229Y-53923084D01*
X6720726Y-53252758D01*
X7084585Y-52376487D01*
X7085413Y-51427675D01*
X6723084Y-50550771D01*
X6052758Y-49879274D01*
X5176487Y-49515415D01*
X4227675Y-49514587D01*
X3350771Y-49876916D01*
X2679274Y-50547242D01*
X2315415Y-51423513D01*
X2314587Y-52372325D01*
X748358Y-52372325D01*
X710000Y-39200947D01*
X710000Y-30363632D01*
X796108Y-30380760D01*
X796108Y-30380760D01*
G37*
X796108Y-30380760D02*
X782367Y-30401325D01*
X758970Y-30518949D01*
X738650Y-30567885D01*
X738603Y-30621338D01*
X715000Y-30740000D01*
X715000Y-39119995D01*
X714999Y-39120000D01*
X768874Y-39390840D01*
X782367Y-39458675D01*
X937493Y-39690839D01*
X974210Y-39745790D01*
X9241911Y-48013490D01*
X9064683Y-48046838D01*
X8848559Y-48185910D01*
X8703569Y-48398110D01*
X8652560Y-48650000D01*
X8652560Y-50150000D01*
X8696838Y-50385317D01*
X8802482Y-50549492D01*
X8761673Y-50590301D01*
X8665000Y-50823690D01*
X8665000Y-51414250D01*
X8823750Y-51573000D01*
X10173000Y-51573000D01*
X10173000Y-51553000D01*
X10427000Y-51553000D01*
X10427000Y-51573000D01*
X11776250Y-51573000D01*
X11935000Y-51414250D01*
X11935000Y-50823690D01*
X11838327Y-50590301D01*
X11796366Y-50548340D01*
X11896431Y-50401890D01*
X11939890Y-50187283D01*
X12019541Y-50171439D01*
X12290434Y-49990434D01*
X12305868Y-49975000D01*
X14965000Y-49975000D01*
X14965000Y-51414250D01*
X15123750Y-51573000D01*
X16473000Y-51573000D01*
X16473000Y-51553000D01*
X16727000Y-51553000D01*
X16727000Y-51573000D01*
X16747000Y-51573000D01*
X16747000Y-51827000D01*
X16727000Y-51827000D01*
X16727000Y-54076250D01*
X16885750Y-54235000D01*
X17726309Y-54235000D01*
X17959698Y-54138327D01*
X18138327Y-53959699D01*
X18235000Y-53726310D01*
X18235000Y-52405868D01*
X18655000Y-52825868D01*
X18655000Y-53287016D01*
X18626173Y-53330159D01*
X18555000Y-53687968D01*
X18555000Y-53693456D01*
X18404210Y-53794210D01*
X18404208Y-53794213D01*
X18174210Y-54024210D01*
X17982367Y-54311326D01*
X17914999Y-54650000D01*
X17982367Y-54988674D01*
X18132255Y-55213000D01*
X11752186Y-55213000D01*
X11896431Y-55001890D01*
X11931198Y-54830208D01*
X11972566Y-54802566D01*
X13052399Y-53722733D01*
X13082566Y-53702576D01*
X13102651Y-53672517D01*
X13241645Y-53533765D01*
X13317625Y-53350786D01*
X13328603Y-53334356D01*
X13332424Y-53315145D01*
X13414803Y-53116756D01*
X13414992Y-52900050D01*
X13415000Y-52900010D01*
X13414992Y-52899971D01*
X13415197Y-52665225D01*
X13242767Y-52247914D01*
X12981060Y-51985750D01*
X14965000Y-51985750D01*
X14965000Y-53726310D01*
X15061673Y-53959699D01*
X15240302Y-54138327D01*
X15473691Y-54235000D01*
X16314250Y-54235000D01*
X16473000Y-54076250D01*
X16473000Y-51827000D01*
X15123750Y-51827000D01*
X14965000Y-51985750D01*
X12981060Y-51985750D01*
X12923765Y-51928355D01*
X12506756Y-51755197D01*
X12055225Y-51754803D01*
X11806730Y-51857480D01*
X11776250Y-51827000D01*
X10427000Y-51827000D01*
X10427000Y-51847000D01*
X10173000Y-51847000D01*
X10173000Y-51827000D01*
X8823750Y-51827000D01*
X8665000Y-51985750D01*
X8665000Y-52576310D01*
X8761673Y-52809699D01*
X8803634Y-52851660D01*
X8703569Y-52998110D01*
X8652560Y-53250000D01*
X8652560Y-54750000D01*
X8696838Y-54985317D01*
X8835910Y-55201441D01*
X8852827Y-55213000D01*
X756630Y-55213000D01*
X748358Y-52372325D01*
X2314587Y-52372325D01*
X2676916Y-53249229D01*
X3347242Y-53920726D01*
X4223513Y-54284585D01*
X5172325Y-54285413D01*
X6049229Y-53923084D01*
X6720726Y-53252758D01*
X7084585Y-52376487D01*
X7085413Y-51427675D01*
X6723084Y-50550771D01*
X6052758Y-49879274D01*
X5176487Y-49515415D01*
X4227675Y-49514587D01*
X3350771Y-49876916D01*
X2679274Y-50547242D01*
X2315415Y-51423513D01*
X2314587Y-52372325D01*
X748358Y-52372325D01*
X710000Y-39200947D01*
X710000Y-30363632D01*
X796108Y-30380760D01*
G36*
X23427000Y-54293000D02*
X23447000Y-54293000D01*
X23447000Y-54547000D01*
X23427000Y-54547000D01*
X23427000Y-54567000D01*
X23173000Y-54567000D01*
X23173000Y-54547000D01*
X23153000Y-54547000D01*
X23153000Y-54293000D01*
X23173000Y-54293000D01*
X23173000Y-54273000D01*
X23427000Y-54273000D01*
X23427000Y-54293000D01*
X23427000Y-54293000D01*
G37*
X23427000Y-54293000D02*
X23447000Y-54293000D01*
X23447000Y-54547000D01*
X23427000Y-54547000D01*
X23427000Y-54567000D01*
X23173000Y-54567000D01*
X23173000Y-54547000D01*
X23153000Y-54547000D01*
X23153000Y-54293000D01*
X23173000Y-54293000D01*
X23173000Y-54273000D01*
X23427000Y-54273000D01*
X23427000Y-54293000D01*
G36*
X7702599Y-33537401D02*
X7949161Y-33702148D01*
X8240000Y-33760000D01*
X9602560Y-33760000D01*
X9602560Y-33850000D01*
X9646838Y-34085317D01*
X9785910Y-34301441D01*
X9998110Y-34446431D01*
X10065541Y-34460086D01*
X10020853Y-34489946D01*
X9698946Y-34971715D01*
X9585907Y-35540000D01*
X9698946Y-36108285D01*
X10020853Y-36590054D01*
X10350026Y-36810000D01*
X10020853Y-37029946D01*
X9698946Y-37511715D01*
X9585907Y-38080000D01*
X9698946Y-38648285D01*
X10020853Y-39130054D01*
X10361553Y-39357702D01*
X10218642Y-39424817D01*
X9828355Y-39853076D01*
X9733442Y-40082230D01*
X4530011Y-34878799D01*
X4530011Y-30364813D01*
X7702599Y-33537401D01*
X7702599Y-33537401D01*
G37*
X7702599Y-33537401D02*
X7949161Y-33702148D01*
X8240000Y-33760000D01*
X9602560Y-33760000D01*
X9602560Y-33850000D01*
X9646838Y-34085317D01*
X9785910Y-34301441D01*
X9998110Y-34446431D01*
X10065541Y-34460086D01*
X10020853Y-34489946D01*
X9698946Y-34971715D01*
X9585907Y-35540000D01*
X9698946Y-36108285D01*
X10020853Y-36590054D01*
X10350026Y-36810000D01*
X10020853Y-37029946D01*
X9698946Y-37511715D01*
X9585907Y-38080000D01*
X9698946Y-38648285D01*
X10020853Y-39130054D01*
X10361553Y-39357702D01*
X10218642Y-39424817D01*
X9828355Y-39853076D01*
X9733442Y-40082230D01*
X4530011Y-34878799D01*
X4530011Y-30364813D01*
X7702599Y-33537401D01*
G36*
X28664989Y-30326115D02*
X28664989Y-31742170D01*
X28667807Y-31756337D01*
X28615133Y-31883190D01*
X28614843Y-32215374D01*
X28741696Y-32522383D01*
X28976381Y-32757477D01*
X29283167Y-32884866D01*
X29294816Y-32884876D01*
X29385910Y-33026441D01*
X29598110Y-33171431D01*
X29850000Y-33222440D01*
X30650000Y-33222440D01*
X30885317Y-33178162D01*
X30988646Y-33111671D01*
X30990302Y-33113327D01*
X31223691Y-33210000D01*
X31464250Y-33210000D01*
X31567745Y-33106505D01*
X31515145Y-33233179D01*
X31515063Y-33327560D01*
X31350000Y-33327560D01*
X31114683Y-33371838D01*
X31011354Y-33438329D01*
X31009698Y-33436673D01*
X30776309Y-33340000D01*
X30535750Y-33340000D01*
X30377000Y-33498750D01*
X30377000Y-34223000D01*
X30397000Y-34223000D01*
X30397000Y-34477000D01*
X30377000Y-34477000D01*
X30377000Y-35201250D01*
X30535750Y-35360000D01*
X30776309Y-35360000D01*
X31009698Y-35263327D01*
X31011068Y-35261957D01*
X31098110Y-35321431D01*
X31350000Y-35372440D01*
X32150000Y-35372440D01*
X32385317Y-35328162D01*
X32601441Y-35189090D01*
X32746431Y-34976890D01*
X32797440Y-34725000D01*
X32797440Y-34483428D01*
X32940434Y-34340434D01*
X33121439Y-34069541D01*
X33154488Y-33903393D01*
X33154488Y-35884867D01*
X33140133Y-35919436D01*
X33014090Y-35723559D01*
X32801890Y-35578569D01*
X32550000Y-35527560D01*
X32050000Y-35527560D01*
X31814683Y-35571838D01*
X31598559Y-35710910D01*
X31550866Y-35780711D01*
X31514090Y-35723559D01*
X31301890Y-35578569D01*
X31050000Y-35527560D01*
X30550000Y-35527560D01*
X30314683Y-35571838D01*
X30119716Y-35697296D01*
X30008292Y-35427628D01*
X29940782Y-35360000D01*
X29964250Y-35360000D01*
X30123000Y-35201250D01*
X30123000Y-34477000D01*
X29373750Y-34477000D01*
X29215000Y-34635750D01*
X29215000Y-34851310D01*
X29303514Y-35065002D01*
X29134637Y-35064855D01*
X28827628Y-35191708D01*
X28684969Y-35334119D01*
X28685143Y-35134637D01*
X28558290Y-34827628D01*
X28323605Y-34592534D01*
X28016819Y-34465145D01*
X27684635Y-34464855D01*
X27377626Y-34591708D01*
X27142532Y-34826393D01*
X27015143Y-35133179D01*
X27014853Y-35465363D01*
X27089998Y-35647229D01*
X27089998Y-36214903D01*
X27034637Y-36214855D01*
X26727628Y-36341708D01*
X26492534Y-36576393D01*
X26449457Y-36680134D01*
X26297440Y-36452623D01*
X26297440Y-36175000D01*
X26261689Y-35985000D01*
X26326309Y-35985000D01*
X26559698Y-35888327D01*
X26738327Y-35709699D01*
X26835000Y-35476310D01*
X26835000Y-35235750D01*
X26676250Y-35077000D01*
X25877000Y-35077000D01*
X25877000Y-35097000D01*
X25623000Y-35097000D01*
X25623000Y-35077000D01*
X24823750Y-35077000D01*
X24665000Y-35235750D01*
X24665000Y-35476310D01*
X24748787Y-35678589D01*
X24698559Y-35710910D01*
X24650866Y-35780711D01*
X24614090Y-35723559D01*
X24401890Y-35578569D01*
X24150000Y-35527560D01*
X23650000Y-35527560D01*
X23414683Y-35571838D01*
X23198559Y-35710910D01*
X23053569Y-35923110D01*
X23002560Y-36175000D01*
X23002560Y-36527115D01*
X22997852Y-36534161D01*
X22940000Y-36825000D01*
X22940000Y-37302909D01*
X22865145Y-37483179D01*
X22864865Y-37804175D01*
X22851973Y-37812789D01*
X22801890Y-37778569D01*
X22762195Y-37770531D01*
X22690839Y-37722852D01*
X22400000Y-37665000D01*
X22003998Y-37665000D01*
X21713159Y-37722852D01*
X21706113Y-37727560D01*
X21650000Y-37727560D01*
X21414683Y-37771838D01*
X21211697Y-37902456D01*
X21109161Y-37922852D01*
X20862599Y-38087599D01*
X20735196Y-38215002D01*
X20334998Y-38215002D01*
X20334998Y-36396000D01*
X20277146Y-36105161D01*
X20112399Y-35858599D01*
X19804278Y-35550478D01*
X19835000Y-35476310D01*
X19835000Y-35235750D01*
X19676250Y-35077000D01*
X18877000Y-35077000D01*
X18877000Y-35097000D01*
X18623000Y-35097000D01*
X18623000Y-35077000D01*
X17823750Y-35077000D01*
X17760750Y-35140000D01*
X16047440Y-35140000D01*
X16047440Y-34995973D01*
X16048110Y-34996431D01*
X16300000Y-35047440D01*
X17200000Y-35047440D01*
X17435317Y-35003162D01*
X17651441Y-34864090D01*
X17738064Y-34737314D01*
X17823750Y-34823000D01*
X18623000Y-34823000D01*
X18623000Y-34803000D01*
X18877000Y-34803000D01*
X18877000Y-34823000D01*
X19676250Y-34823000D01*
X19835000Y-34664250D01*
X19835000Y-34423690D01*
X19738327Y-34190301D01*
X19559698Y-34011673D01*
X19523253Y-33996577D01*
X19651441Y-33914090D01*
X19796431Y-33701890D01*
X19847440Y-33450000D01*
X19847440Y-32650000D01*
X19803162Y-32414683D01*
X19664090Y-32198559D01*
X19451890Y-32053569D01*
X19335000Y-32029898D01*
X19335000Y-31511431D01*
X19347440Y-31450000D01*
X19347440Y-30853969D01*
X20692512Y-30853969D01*
X20936590Y-30955319D01*
X21190000Y-30955540D01*
X21190000Y-32594895D01*
X21048559Y-32685910D01*
X20903569Y-32898110D01*
X20852560Y-33150000D01*
X20852560Y-33650000D01*
X20896838Y-33885317D01*
X21035910Y-34101441D01*
X21105711Y-34149134D01*
X21048559Y-34185910D01*
X20903569Y-34398110D01*
X20852560Y-34650000D01*
X20852560Y-35150000D01*
X20896838Y-35385317D01*
X21035910Y-35601441D01*
X21248110Y-35746431D01*
X21500000Y-35797440D01*
X22400000Y-35797440D01*
X22635317Y-35753162D01*
X22851441Y-35614090D01*
X22996431Y-35401890D01*
X23047440Y-35150000D01*
X23047440Y-34995973D01*
X23048110Y-34996431D01*
X23300000Y-35047440D01*
X24200000Y-35047440D01*
X24435317Y-35003162D01*
X24651441Y-34864090D01*
X24738064Y-34737314D01*
X24823750Y-34823000D01*
X25623000Y-34823000D01*
X25623000Y-34803000D01*
X25877000Y-34803000D01*
X25877000Y-34823000D01*
X26676250Y-34823000D01*
X26835000Y-34664250D01*
X26835000Y-34423690D01*
X26738327Y-34190301D01*
X26559698Y-34011673D01*
X26523253Y-33996577D01*
X26651441Y-33914090D01*
X26696126Y-33848690D01*
X29215000Y-33848690D01*
X29215000Y-34064250D01*
X29373750Y-34223000D01*
X30123000Y-34223000D01*
X30123000Y-33498750D01*
X29964250Y-33340000D01*
X29723691Y-33340000D01*
X29490302Y-33436673D01*
X29311673Y-33615301D01*
X29215000Y-33848690D01*
X26696126Y-33848690D01*
X26796431Y-33701890D01*
X26847440Y-33450000D01*
X26847440Y-32837333D01*
X26973435Y-32889651D01*
X27305619Y-32889941D01*
X27461720Y-32825442D01*
X27604829Y-32884866D01*
X27937013Y-32885156D01*
X28244022Y-32758303D01*
X28479116Y-32523618D01*
X28606505Y-32216832D01*
X28606795Y-31884648D01*
X28531650Y-31702782D01*
X28531650Y-30672503D01*
X28510840Y-30567885D01*
X28473798Y-30381663D01*
X28309051Y-30135102D01*
X24888796Y-26714847D01*
X24897256Y-26714854D01*
X25007978Y-26669104D01*
X28664989Y-30326115D01*
X28664989Y-30326115D01*
G37*
X28664989Y-30326115D02*
X28664989Y-31742170D01*
X28667807Y-31756337D01*
X28615133Y-31883190D01*
X28614843Y-32215374D01*
X28741696Y-32522383D01*
X28976381Y-32757477D01*
X29283167Y-32884866D01*
X29294816Y-32884876D01*
X29385910Y-33026441D01*
X29598110Y-33171431D01*
X29850000Y-33222440D01*
X30650000Y-33222440D01*
X30885317Y-33178162D01*
X30988646Y-33111671D01*
X30990302Y-33113327D01*
X31223691Y-33210000D01*
X31464250Y-33210000D01*
X31567745Y-33106505D01*
X31515145Y-33233179D01*
X31515063Y-33327560D01*
X31350000Y-33327560D01*
X31114683Y-33371838D01*
X31011354Y-33438329D01*
X31009698Y-33436673D01*
X30776309Y-33340000D01*
X30535750Y-33340000D01*
X30377000Y-33498750D01*
X30377000Y-34223000D01*
X30397000Y-34223000D01*
X30397000Y-34477000D01*
X30377000Y-34477000D01*
X30377000Y-35201250D01*
X30535750Y-35360000D01*
X30776309Y-35360000D01*
X31009698Y-35263327D01*
X31011068Y-35261957D01*
X31098110Y-35321431D01*
X31350000Y-35372440D01*
X32150000Y-35372440D01*
X32385317Y-35328162D01*
X32601441Y-35189090D01*
X32746431Y-34976890D01*
X32797440Y-34725000D01*
X32797440Y-34483428D01*
X32940434Y-34340434D01*
X33121439Y-34069541D01*
X33154488Y-33903393D01*
X33154488Y-35884867D01*
X33140133Y-35919436D01*
X33014090Y-35723559D01*
X32801890Y-35578569D01*
X32550000Y-35527560D01*
X32050000Y-35527560D01*
X31814683Y-35571838D01*
X31598559Y-35710910D01*
X31550866Y-35780711D01*
X31514090Y-35723559D01*
X31301890Y-35578569D01*
X31050000Y-35527560D01*
X30550000Y-35527560D01*
X30314683Y-35571838D01*
X30119716Y-35697296D01*
X30008292Y-35427628D01*
X29940782Y-35360000D01*
X29964250Y-35360000D01*
X30123000Y-35201250D01*
X30123000Y-34477000D01*
X29373750Y-34477000D01*
X29215000Y-34635750D01*
X29215000Y-34851310D01*
X29303514Y-35065002D01*
X29134637Y-35064855D01*
X28827628Y-35191708D01*
X28684969Y-35334119D01*
X28685143Y-35134637D01*
X28558290Y-34827628D01*
X28323605Y-34592534D01*
X28016819Y-34465145D01*
X27684635Y-34464855D01*
X27377626Y-34591708D01*
X27142532Y-34826393D01*
X27015143Y-35133179D01*
X27014853Y-35465363D01*
X27089998Y-35647229D01*
X27089998Y-36214903D01*
X27034637Y-36214855D01*
X26727628Y-36341708D01*
X26492534Y-36576393D01*
X26449457Y-36680134D01*
X26297440Y-36452623D01*
X26297440Y-36175000D01*
X26261689Y-35985000D01*
X26326309Y-35985000D01*
X26559698Y-35888327D01*
X26738327Y-35709699D01*
X26835000Y-35476310D01*
X26835000Y-35235750D01*
X26676250Y-35077000D01*
X25877000Y-35077000D01*
X25877000Y-35097000D01*
X25623000Y-35097000D01*
X25623000Y-35077000D01*
X24823750Y-35077000D01*
X24665000Y-35235750D01*
X24665000Y-35476310D01*
X24748787Y-35678589D01*
X24698559Y-35710910D01*
X24650866Y-35780711D01*
X24614090Y-35723559D01*
X24401890Y-35578569D01*
X24150000Y-35527560D01*
X23650000Y-35527560D01*
X23414683Y-35571838D01*
X23198559Y-35710910D01*
X23053569Y-35923110D01*
X23002560Y-36175000D01*
X23002560Y-36527115D01*
X22997852Y-36534161D01*
X22940000Y-36825000D01*
X22940000Y-37302909D01*
X22865145Y-37483179D01*
X22864865Y-37804175D01*
X22851973Y-37812789D01*
X22801890Y-37778569D01*
X22762195Y-37770531D01*
X22690839Y-37722852D01*
X22400000Y-37665000D01*
X22003998Y-37665000D01*
X21713159Y-37722852D01*
X21706113Y-37727560D01*
X21650000Y-37727560D01*
X21414683Y-37771838D01*
X21211697Y-37902456D01*
X21109161Y-37922852D01*
X20862599Y-38087599D01*
X20735196Y-38215002D01*
X20334998Y-38215002D01*
X20334998Y-36396000D01*
X20277146Y-36105161D01*
X20112399Y-35858599D01*
X19804278Y-35550478D01*
X19835000Y-35476310D01*
X19835000Y-35235750D01*
X19676250Y-35077000D01*
X18877000Y-35077000D01*
X18877000Y-35097000D01*
X18623000Y-35097000D01*
X18623000Y-35077000D01*
X17823750Y-35077000D01*
X17760750Y-35140000D01*
X16047440Y-35140000D01*
X16047440Y-34995973D01*
X16048110Y-34996431D01*
X16300000Y-35047440D01*
X17200000Y-35047440D01*
X17435317Y-35003162D01*
X17651441Y-34864090D01*
X17738064Y-34737314D01*
X17823750Y-34823000D01*
X18623000Y-34823000D01*
X18623000Y-34803000D01*
X18877000Y-34803000D01*
X18877000Y-34823000D01*
X19676250Y-34823000D01*
X19835000Y-34664250D01*
X19835000Y-34423690D01*
X19738327Y-34190301D01*
X19559698Y-34011673D01*
X19523253Y-33996577D01*
X19651441Y-33914090D01*
X19796431Y-33701890D01*
X19847440Y-33450000D01*
X19847440Y-32650000D01*
X19803162Y-32414683D01*
X19664090Y-32198559D01*
X19451890Y-32053569D01*
X19335000Y-32029898D01*
X19335000Y-31511431D01*
X19347440Y-31450000D01*
X19347440Y-30853969D01*
X20692512Y-30853969D01*
X20936590Y-30955319D01*
X21190000Y-30955540D01*
X21190000Y-32594895D01*
X21048559Y-32685910D01*
X20903569Y-32898110D01*
X20852560Y-33150000D01*
X20852560Y-33650000D01*
X20896838Y-33885317D01*
X21035910Y-34101441D01*
X21105711Y-34149134D01*
X21048559Y-34185910D01*
X20903569Y-34398110D01*
X20852560Y-34650000D01*
X20852560Y-35150000D01*
X20896838Y-35385317D01*
X21035910Y-35601441D01*
X21248110Y-35746431D01*
X21500000Y-35797440D01*
X22400000Y-35797440D01*
X22635317Y-35753162D01*
X22851441Y-35614090D01*
X22996431Y-35401890D01*
X23047440Y-35150000D01*
X23047440Y-34995973D01*
X23048110Y-34996431D01*
X23300000Y-35047440D01*
X24200000Y-35047440D01*
X24435317Y-35003162D01*
X24651441Y-34864090D01*
X24738064Y-34737314D01*
X24823750Y-34823000D01*
X25623000Y-34823000D01*
X25623000Y-34803000D01*
X25877000Y-34803000D01*
X25877000Y-34823000D01*
X26676250Y-34823000D01*
X26835000Y-34664250D01*
X26835000Y-34423690D01*
X26738327Y-34190301D01*
X26559698Y-34011673D01*
X26523253Y-33996577D01*
X26651441Y-33914090D01*
X26696126Y-33848690D01*
X29215000Y-33848690D01*
X29215000Y-34064250D01*
X29373750Y-34223000D01*
X30123000Y-34223000D01*
X30123000Y-33498750D01*
X29964250Y-33340000D01*
X29723691Y-33340000D01*
X29490302Y-33436673D01*
X29311673Y-33615301D01*
X29215000Y-33848690D01*
X26696126Y-33848690D01*
X26796431Y-33701890D01*
X26847440Y-33450000D01*
X26847440Y-32837333D01*
X26973435Y-32889651D01*
X27305619Y-32889941D01*
X27461720Y-32825442D01*
X27604829Y-32884866D01*
X27937013Y-32885156D01*
X28244022Y-32758303D01*
X28479116Y-32523618D01*
X28606505Y-32216832D01*
X28606795Y-31884648D01*
X28531650Y-31702782D01*
X28531650Y-30672503D01*
X28510840Y-30567885D01*
X28473798Y-30381663D01*
X28309051Y-30135102D01*
X24888796Y-26714847D01*
X24897256Y-26714854D01*
X25007978Y-26669104D01*
X28664989Y-30326115D01*
G36*
X31297852Y-24040839D02*
X31382791Y-24167959D01*
X31277000Y-24273750D01*
X31277000Y-25023000D01*
X32076250Y-25023000D01*
X32162262Y-24936988D01*
X32235910Y-25051441D01*
X32381083Y-25150633D01*
X32248559Y-25235910D01*
X32161936Y-25362686D01*
X32076250Y-25277000D01*
X31277000Y-25277000D01*
X31277000Y-26026250D01*
X31435750Y-26185000D01*
X31726309Y-26185000D01*
X31959698Y-26088327D01*
X32052560Y-25995466D01*
X32052560Y-26500000D01*
X32096838Y-26735317D01*
X32235910Y-26951441D01*
X32448110Y-27096431D01*
X32700000Y-27147440D01*
X33600000Y-27147440D01*
X33835317Y-27103162D01*
X33981449Y-27009128D01*
X34014990Y-27090303D01*
X34407630Y-27483629D01*
X34920900Y-27696757D01*
X35476661Y-27697242D01*
X35990303Y-27485010D01*
X36290000Y-27185836D01*
X36290000Y-31502560D01*
X34650000Y-31502560D01*
X34414683Y-31546838D01*
X34198559Y-31685910D01*
X34053569Y-31898110D01*
X34002560Y-32150000D01*
X34002560Y-32369080D01*
X33862599Y-32462599D01*
X33377087Y-32948111D01*
X33212340Y-33194673D01*
X33185060Y-33331817D01*
X33185145Y-33234637D01*
X33058292Y-32927628D01*
X32823607Y-32692534D01*
X32785000Y-32676503D01*
X32785000Y-32485750D01*
X32626250Y-32327000D01*
X31877000Y-32327000D01*
X31877000Y-32347000D01*
X31623000Y-32347000D01*
X31623000Y-32327000D01*
X31603000Y-32327000D01*
X31603000Y-32073000D01*
X31623000Y-32073000D01*
X31623000Y-30627000D01*
X31877000Y-30627000D01*
X31877000Y-32073000D01*
X32626250Y-32073000D01*
X32785000Y-31914250D01*
X32785000Y-31698690D01*
X32688327Y-31465301D01*
X32573025Y-31350000D01*
X32688327Y-31234699D01*
X32785000Y-31001310D01*
X32785000Y-30785750D01*
X32626250Y-30627000D01*
X31877000Y-30627000D01*
X31623000Y-30627000D01*
X31603000Y-30627000D01*
X31603000Y-30373000D01*
X31623000Y-30373000D01*
X31623000Y-29648750D01*
X31877000Y-29648750D01*
X31877000Y-30373000D01*
X32626250Y-30373000D01*
X32785000Y-30214250D01*
X32785000Y-29998690D01*
X32688327Y-29765301D01*
X32509698Y-29586673D01*
X32276309Y-29490000D01*
X32035750Y-29490000D01*
X31877000Y-29648750D01*
X31623000Y-29648750D01*
X31464250Y-29490000D01*
X31385000Y-29490000D01*
X31385000Y-29125000D01*
X31298603Y-28690654D01*
X31052566Y-28322434D01*
X28358498Y-25628366D01*
X28358498Y-25595994D01*
X28637363Y-25480770D01*
X28682461Y-25435750D01*
X30065000Y-25435750D01*
X30065000Y-25676310D01*
X30161673Y-25909699D01*
X30340302Y-26088327D01*
X30573691Y-26185000D01*
X30864250Y-26185000D01*
X31023000Y-26026250D01*
X31023000Y-25277000D01*
X30223750Y-25277000D01*
X30065000Y-25435750D01*
X28682461Y-25435750D01*
X28879918Y-25238638D01*
X28943718Y-25084991D01*
X29825009Y-25084991D01*
X30115848Y-25027139D01*
X30183012Y-24982262D01*
X30223750Y-25023000D01*
X31023000Y-25023000D01*
X31023000Y-24273750D01*
X30987026Y-24237776D01*
X31278956Y-23945846D01*
X31297852Y-24040839D01*
X31297852Y-24040839D01*
G37*
X31297852Y-24040839D02*
X31382791Y-24167959D01*
X31277000Y-24273750D01*
X31277000Y-25023000D01*
X32076250Y-25023000D01*
X32162262Y-24936988D01*
X32235910Y-25051441D01*
X32381083Y-25150633D01*
X32248559Y-25235910D01*
X32161936Y-25362686D01*
X32076250Y-25277000D01*
X31277000Y-25277000D01*
X31277000Y-26026250D01*
X31435750Y-26185000D01*
X31726309Y-26185000D01*
X31959698Y-26088327D01*
X32052560Y-25995466D01*
X32052560Y-26500000D01*
X32096838Y-26735317D01*
X32235910Y-26951441D01*
X32448110Y-27096431D01*
X32700000Y-27147440D01*
X33600000Y-27147440D01*
X33835317Y-27103162D01*
X33981449Y-27009128D01*
X34014990Y-27090303D01*
X34407630Y-27483629D01*
X34920900Y-27696757D01*
X35476661Y-27697242D01*
X35990303Y-27485010D01*
X36290000Y-27185836D01*
X36290000Y-31502560D01*
X34650000Y-31502560D01*
X34414683Y-31546838D01*
X34198559Y-31685910D01*
X34053569Y-31898110D01*
X34002560Y-32150000D01*
X34002560Y-32369080D01*
X33862599Y-32462599D01*
X33377087Y-32948111D01*
X33212340Y-33194673D01*
X33185060Y-33331817D01*
X33185145Y-33234637D01*
X33058292Y-32927628D01*
X32823607Y-32692534D01*
X32785000Y-32676503D01*
X32785000Y-32485750D01*
X32626250Y-32327000D01*
X31877000Y-32327000D01*
X31877000Y-32347000D01*
X31623000Y-32347000D01*
X31623000Y-32327000D01*
X31603000Y-32327000D01*
X31603000Y-32073000D01*
X31623000Y-32073000D01*
X31623000Y-30627000D01*
X31877000Y-30627000D01*
X31877000Y-32073000D01*
X32626250Y-32073000D01*
X32785000Y-31914250D01*
X32785000Y-31698690D01*
X32688327Y-31465301D01*
X32573025Y-31350000D01*
X32688327Y-31234699D01*
X32785000Y-31001310D01*
X32785000Y-30785750D01*
X32626250Y-30627000D01*
X31877000Y-30627000D01*
X31623000Y-30627000D01*
X31603000Y-30627000D01*
X31603000Y-30373000D01*
X31623000Y-30373000D01*
X31623000Y-29648750D01*
X31877000Y-29648750D01*
X31877000Y-30373000D01*
X32626250Y-30373000D01*
X32785000Y-30214250D01*
X32785000Y-29998690D01*
X32688327Y-29765301D01*
X32509698Y-29586673D01*
X32276309Y-29490000D01*
X32035750Y-29490000D01*
X31877000Y-29648750D01*
X31623000Y-29648750D01*
X31464250Y-29490000D01*
X31385000Y-29490000D01*
X31385000Y-29125000D01*
X31298603Y-28690654D01*
X31052566Y-28322434D01*
X28358498Y-25628366D01*
X28358498Y-25595994D01*
X28637363Y-25480770D01*
X28682461Y-25435750D01*
X30065000Y-25435750D01*
X30065000Y-25676310D01*
X30161673Y-25909699D01*
X30340302Y-26088327D01*
X30573691Y-26185000D01*
X30864250Y-26185000D01*
X31023000Y-26026250D01*
X31023000Y-25277000D01*
X30223750Y-25277000D01*
X30065000Y-25435750D01*
X28682461Y-25435750D01*
X28879918Y-25238638D01*
X28943718Y-25084991D01*
X29825009Y-25084991D01*
X30115848Y-25027139D01*
X30183012Y-24982262D01*
X30223750Y-25023000D01*
X31023000Y-25023000D01*
X31023000Y-24273750D01*
X30987026Y-24237776D01*
X31278956Y-23945846D01*
X31297852Y-24040839D01*
G36*
X5852560Y-20880000D02*
X5896838Y-21115317D01*
X6023959Y-21312869D01*
X5904141Y-21492191D01*
X5832968Y-21850000D01*
X5904141Y-22207809D01*
X6089354Y-22485000D01*
X5904141Y-22762191D01*
X5832968Y-23120000D01*
X5904141Y-23477809D01*
X6089354Y-23755000D01*
X5904141Y-24032191D01*
X5832968Y-24390000D01*
X5904141Y-24747809D01*
X6089354Y-25025000D01*
X5904141Y-25302191D01*
X5832968Y-25660000D01*
X5904141Y-26017809D01*
X6089354Y-26295000D01*
X5904141Y-26572191D01*
X5832968Y-26930000D01*
X5904141Y-27287809D01*
X6089354Y-27565000D01*
X5904141Y-27842191D01*
X5832968Y-28200000D01*
X5904141Y-28557809D01*
X6101122Y-28852613D01*
X6049052Y-28898657D01*
X5904937Y-29199653D01*
X6034210Y-29343000D01*
X7373000Y-29343000D01*
X7373000Y-29323000D01*
X7627000Y-29323000D01*
X7627000Y-29343000D01*
X8965790Y-29343000D01*
X9095063Y-29199653D01*
X8950948Y-28898657D01*
X8898878Y-28852613D01*
X9095859Y-28557809D01*
X9167032Y-28200000D01*
X9095859Y-27842191D01*
X8994169Y-27690000D01*
X9068787Y-27690000D01*
X12010157Y-30631370D01*
X12256719Y-30796117D01*
X12547558Y-30853969D01*
X13140899Y-30853969D01*
X12547434Y-31447434D01*
X12390436Y-31682397D01*
X12201890Y-31553569D01*
X11950000Y-31502560D01*
X10250000Y-31502560D01*
X10014683Y-31546838D01*
X9798559Y-31685910D01*
X9653569Y-31898110D01*
X9602560Y-32150000D01*
X9602560Y-32240000D01*
X8554802Y-32240000D01*
X6719802Y-30405000D01*
X7373000Y-30405000D01*
X7373000Y-29597000D01*
X7627000Y-29597000D01*
X7627000Y-30405000D01*
X8327000Y-30405000D01*
X8675142Y-30285227D01*
X8950948Y-30041343D01*
X9095063Y-29740347D01*
X8965790Y-29597000D01*
X7627000Y-29597000D01*
X7373000Y-29597000D01*
X6034210Y-29597000D01*
X5976166Y-29661364D01*
X5129999Y-28815197D01*
X5129999Y-27159999D01*
X5077258Y-26894855D01*
X5072147Y-26869159D01*
X4907400Y-26622598D01*
X4352832Y-26068030D01*
X4278292Y-25887628D01*
X4165943Y-25775083D01*
X4298903Y-25642123D01*
X4463650Y-25395561D01*
X4521502Y-25104722D01*
X4521502Y-23981502D01*
X4463650Y-23690663D01*
X4298903Y-23444101D01*
X3437401Y-22582599D01*
X3190839Y-22417852D01*
X3115523Y-22402871D01*
X3245859Y-22207809D01*
X3317032Y-21850000D01*
X3305033Y-21789679D01*
X3352872Y-21741924D01*
X3484304Y-21425401D01*
X3484603Y-21082675D01*
X3353724Y-20765923D01*
X3292291Y-20704382D01*
X3306092Y-20635000D01*
X5852560Y-20635000D01*
X5852560Y-20880000D01*
X5852560Y-20880000D01*
G37*
X5852560Y-20880000D02*
X5896838Y-21115317D01*
X6023959Y-21312869D01*
X5904141Y-21492191D01*
X5832968Y-21850000D01*
X5904141Y-22207809D01*
X6089354Y-22485000D01*
X5904141Y-22762191D01*
X5832968Y-23120000D01*
X5904141Y-23477809D01*
X6089354Y-23755000D01*
X5904141Y-24032191D01*
X5832968Y-24390000D01*
X5904141Y-24747809D01*
X6089354Y-25025000D01*
X5904141Y-25302191D01*
X5832968Y-25660000D01*
X5904141Y-26017809D01*
X6089354Y-26295000D01*
X5904141Y-26572191D01*
X5832968Y-26930000D01*
X5904141Y-27287809D01*
X6089354Y-27565000D01*
X5904141Y-27842191D01*
X5832968Y-28200000D01*
X5904141Y-28557809D01*
X6101122Y-28852613D01*
X6049052Y-28898657D01*
X5904937Y-29199653D01*
X6034210Y-29343000D01*
X7373000Y-29343000D01*
X7373000Y-29323000D01*
X7627000Y-29323000D01*
X7627000Y-29343000D01*
X8965790Y-29343000D01*
X9095063Y-29199653D01*
X8950948Y-28898657D01*
X8898878Y-28852613D01*
X9095859Y-28557809D01*
X9167032Y-28200000D01*
X9095859Y-27842191D01*
X8994169Y-27690000D01*
X9068787Y-27690000D01*
X12010157Y-30631370D01*
X12256719Y-30796117D01*
X12547558Y-30853969D01*
X13140899Y-30853969D01*
X12547434Y-31447434D01*
X12390436Y-31682397D01*
X12201890Y-31553569D01*
X11950000Y-31502560D01*
X10250000Y-31502560D01*
X10014683Y-31546838D01*
X9798559Y-31685910D01*
X9653569Y-31898110D01*
X9602560Y-32150000D01*
X9602560Y-32240000D01*
X8554802Y-32240000D01*
X6719802Y-30405000D01*
X7373000Y-30405000D01*
X7373000Y-29597000D01*
X7627000Y-29597000D01*
X7627000Y-30405000D01*
X8327000Y-30405000D01*
X8675142Y-30285227D01*
X8950948Y-30041343D01*
X9095063Y-29740347D01*
X8965790Y-29597000D01*
X7627000Y-29597000D01*
X7373000Y-29597000D01*
X6034210Y-29597000D01*
X5976166Y-29661364D01*
X5129999Y-28815197D01*
X5129999Y-27159999D01*
X5077258Y-26894855D01*
X5072147Y-26869159D01*
X4907400Y-26622598D01*
X4352832Y-26068030D01*
X4278292Y-25887628D01*
X4165943Y-25775083D01*
X4298903Y-25642123D01*
X4463650Y-25395561D01*
X4521502Y-25104722D01*
X4521502Y-23981502D01*
X4463650Y-23690663D01*
X4298903Y-23444101D01*
X3437401Y-22582599D01*
X3190839Y-22417852D01*
X3115523Y-22402871D01*
X3245859Y-22207809D01*
X3317032Y-21850000D01*
X3305033Y-21789679D01*
X3352872Y-21741924D01*
X3484304Y-21425401D01*
X3484603Y-21082675D01*
X3353724Y-20765923D01*
X3292291Y-20704382D01*
X3306092Y-20635000D01*
X5852560Y-20635000D01*
X5852560Y-20880000D01*
G36*
X1777000Y-24263000D02*
X1797000Y-24263000D01*
X1797000Y-24517000D01*
X1777000Y-24517000D01*
X1777000Y-24537000D01*
X1523000Y-24537000D01*
X1523000Y-24517000D01*
X1503000Y-24517000D01*
X1503000Y-24263000D01*
X1523000Y-24263000D01*
X1523000Y-24243000D01*
X1777000Y-24243000D01*
X1777000Y-24263000D01*
X1777000Y-24263000D01*
G37*
X1777000Y-24263000D02*
X1797000Y-24263000D01*
X1797000Y-24517000D01*
X1777000Y-24517000D01*
X1777000Y-24537000D01*
X1523000Y-24537000D01*
X1523000Y-24517000D01*
X1503000Y-24517000D01*
X1503000Y-24263000D01*
X1523000Y-24263000D01*
X1523000Y-24243000D01*
X1777000Y-24243000D01*
X1777000Y-24263000D01*
G36*
X32135910Y-16801441D02*
X32281083Y-16900633D01*
X32148559Y-16985910D01*
X32061936Y-17112686D01*
X31976250Y-17027000D01*
X31177000Y-17027000D01*
X31177000Y-17776250D01*
X31335750Y-17935000D01*
X31626309Y-17935000D01*
X31859698Y-17838327D01*
X31952560Y-17745466D01*
X31952560Y-18250000D01*
X31996838Y-18485317D01*
X32135910Y-18701441D01*
X32348110Y-18846431D01*
X32600000Y-18897440D01*
X33500000Y-18897440D01*
X33735317Y-18853162D01*
X33951441Y-18714090D01*
X33953135Y-18711611D01*
X33964990Y-18740303D01*
X34357630Y-19133629D01*
X34707509Y-19278911D01*
X34574210Y-19412210D01*
X34382367Y-19699325D01*
X34380244Y-19710000D01*
X34340685Y-19908871D01*
X34202683Y-19934838D01*
X33986559Y-20073910D01*
X33841569Y-20286110D01*
X33833197Y-20327451D01*
X33651890Y-20203569D01*
X33400000Y-20152560D01*
X32500000Y-20152560D01*
X32264683Y-20196838D01*
X32048559Y-20335910D01*
X31984297Y-20429961D01*
X31964090Y-20398559D01*
X31751890Y-20253569D01*
X31500000Y-20202560D01*
X30600000Y-20202560D01*
X30364683Y-20246838D01*
X30148559Y-20385910D01*
X30003569Y-20598110D01*
X29952560Y-20850000D01*
X29952560Y-21350000D01*
X29996838Y-21585317D01*
X30135910Y-21801441D01*
X30205711Y-21849134D01*
X30148559Y-21885910D01*
X30003569Y-22098110D01*
X29952560Y-22350000D01*
X29952560Y-22850000D01*
X29995736Y-23079462D01*
X29510207Y-23564991D01*
X28888013Y-23564991D01*
X28934999Y-23328777D01*
X28934999Y-19750990D01*
X28935196Y-19525224D01*
X28762766Y-19107913D01*
X28454596Y-18799204D01*
X29965000Y-17288800D01*
X29965000Y-17426310D01*
X30061673Y-17659699D01*
X30240302Y-17838327D01*
X30473691Y-17935000D01*
X30764250Y-17935000D01*
X30923000Y-17776250D01*
X30923000Y-17027000D01*
X30903000Y-17027000D01*
X30903000Y-16773000D01*
X30923000Y-16773000D01*
X30923000Y-16753000D01*
X31177000Y-16753000D01*
X31177000Y-16773000D01*
X31976250Y-16773000D01*
X32062262Y-16686988D01*
X32135910Y-16801441D01*
X32135910Y-16801441D01*
G37*
X32135910Y-16801441D02*
X32281083Y-16900633D01*
X32148559Y-16985910D01*
X32061936Y-17112686D01*
X31976250Y-17027000D01*
X31177000Y-17027000D01*
X31177000Y-17776250D01*
X31335750Y-17935000D01*
X31626309Y-17935000D01*
X31859698Y-17838327D01*
X31952560Y-17745466D01*
X31952560Y-18250000D01*
X31996838Y-18485317D01*
X32135910Y-18701441D01*
X32348110Y-18846431D01*
X32600000Y-18897440D01*
X33500000Y-18897440D01*
X33735317Y-18853162D01*
X33951441Y-18714090D01*
X33953135Y-18711611D01*
X33964990Y-18740303D01*
X34357630Y-19133629D01*
X34707509Y-19278911D01*
X34574210Y-19412210D01*
X34382367Y-19699325D01*
X34380244Y-19710000D01*
X34340685Y-19908871D01*
X34202683Y-19934838D01*
X33986559Y-20073910D01*
X33841569Y-20286110D01*
X33833197Y-20327451D01*
X33651890Y-20203569D01*
X33400000Y-20152560D01*
X32500000Y-20152560D01*
X32264683Y-20196838D01*
X32048559Y-20335910D01*
X31984297Y-20429961D01*
X31964090Y-20398559D01*
X31751890Y-20253569D01*
X31500000Y-20202560D01*
X30600000Y-20202560D01*
X30364683Y-20246838D01*
X30148559Y-20385910D01*
X30003569Y-20598110D01*
X29952560Y-20850000D01*
X29952560Y-21350000D01*
X29996838Y-21585317D01*
X30135910Y-21801441D01*
X30205711Y-21849134D01*
X30148559Y-21885910D01*
X30003569Y-22098110D01*
X29952560Y-22350000D01*
X29952560Y-22850000D01*
X29995736Y-23079462D01*
X29510207Y-23564991D01*
X28888013Y-23564991D01*
X28934999Y-23328777D01*
X28934999Y-19750990D01*
X28935196Y-19525224D01*
X28762766Y-19107913D01*
X28454596Y-18799204D01*
X29965000Y-17288800D01*
X29965000Y-17426310D01*
X30061673Y-17659699D01*
X30240302Y-17838327D01*
X30473691Y-17935000D01*
X30764250Y-17935000D01*
X30923000Y-17776250D01*
X30923000Y-17027000D01*
X30903000Y-17027000D01*
X30903000Y-16773000D01*
X30923000Y-16773000D01*
X30923000Y-16753000D01*
X31177000Y-16753000D01*
X31177000Y-16773000D01*
X31976250Y-16773000D01*
X32062262Y-16686988D01*
X32135910Y-16801441D01*
G36*
X36290000Y-11677736D02*
X36163890Y-11591569D01*
X35912000Y-11540560D01*
X34388000Y-11540560D01*
X34152683Y-11584838D01*
X33936559Y-11723910D01*
X33801475Y-11921612D01*
X33701890Y-11853569D01*
X33450000Y-11802560D01*
X32550000Y-11802560D01*
X32314683Y-11846838D01*
X32098559Y-11985910D01*
X31999367Y-12131083D01*
X31914090Y-11998559D01*
X31701890Y-11853569D01*
X31450000Y-11802560D01*
X30550000Y-11802560D01*
X30314683Y-11846838D01*
X30098559Y-11985910D01*
X29953569Y-12198110D01*
X29902560Y-12450000D01*
X29902560Y-12950000D01*
X29946838Y-13185317D01*
X30085910Y-13401441D01*
X30155711Y-13449134D01*
X30098559Y-13485910D01*
X29953569Y-13698110D01*
X29902560Y-13950000D01*
X29902560Y-14450000D01*
X29946838Y-14685317D01*
X30085910Y-14901441D01*
X30155325Y-14948871D01*
X27571470Y-17532726D01*
X27488378Y-17331629D01*
X27056953Y-16899449D01*
X26492980Y-16665267D01*
X25882319Y-16664735D01*
X25317939Y-16897932D01*
X24885759Y-17329357D01*
X24651577Y-17893330D01*
X24651045Y-18503991D01*
X24884242Y-19068371D01*
X25315667Y-19500551D01*
X25519151Y-19585045D01*
X23210011Y-21894185D01*
X23210011Y-20377957D01*
X23462390Y-20125578D01*
X23627137Y-19879017D01*
X23684989Y-19588177D01*
X23684989Y-16154859D01*
X23722622Y-16192558D01*
X24286595Y-16426740D01*
X24897256Y-16427272D01*
X25461636Y-16194075D01*
X25893816Y-15762650D01*
X26127998Y-15198677D01*
X26128530Y-14588016D01*
X25895333Y-14023636D01*
X25463908Y-13591456D01*
X24899935Y-13357274D01*
X24289274Y-13356742D01*
X23724894Y-13589939D01*
X23655892Y-13658820D01*
X23627137Y-13514259D01*
X23462390Y-13267697D01*
X23212462Y-13017769D01*
X23257429Y-12909475D01*
X23257961Y-12298814D01*
X23024764Y-11734434D01*
X22593339Y-11302254D01*
X22029366Y-11068072D01*
X21418705Y-11067540D01*
X20854325Y-11300737D01*
X20422145Y-11732162D01*
X20187963Y-12296135D01*
X20187431Y-12906796D01*
X20420628Y-13471176D01*
X20852053Y-13903356D01*
X21235743Y-14062678D01*
X20895860Y-14402560D01*
X20850000Y-14402560D01*
X20614683Y-14446838D01*
X20398559Y-14585910D01*
X20350866Y-14655711D01*
X20314090Y-14598559D01*
X20101890Y-14453569D01*
X19850000Y-14402560D01*
X19350000Y-14402560D01*
X19114683Y-14446838D01*
X18898559Y-14585910D01*
X18827421Y-14690023D01*
X18717320Y-14689927D01*
X18703162Y-14614683D01*
X18564090Y-14398559D01*
X18351890Y-14253569D01*
X18100000Y-14202560D01*
X17200000Y-14202560D01*
X17042906Y-14232119D01*
X16941821Y-14190145D01*
X16609637Y-14189855D01*
X16302628Y-14316708D01*
X16067534Y-14551393D01*
X15999599Y-14714999D01*
X14939999Y-14714999D01*
X14764007Y-14750006D01*
X15101015Y-14412998D01*
X15265762Y-14166436D01*
X15307565Y-13956282D01*
X15431985Y-13904873D01*
X15864165Y-13473448D01*
X16098347Y-12909475D01*
X16098879Y-12298814D01*
X16012512Y-12089789D01*
X16607890Y-12089789D01*
X16841087Y-12654169D01*
X17272512Y-13086349D01*
X17836485Y-13320531D01*
X18447146Y-13321063D01*
X19011526Y-13087866D01*
X19443706Y-12656441D01*
X19677888Y-12092468D01*
X19678420Y-11481807D01*
X19445223Y-10917427D01*
X19013798Y-10485247D01*
X18449825Y-10251065D01*
X17839164Y-10250533D01*
X17274784Y-10483730D01*
X16842604Y-10915155D01*
X16608422Y-11479128D01*
X16607890Y-12089789D01*
X16012512Y-12089789D01*
X15865682Y-11734434D01*
X15434257Y-11302254D01*
X14870284Y-11068072D01*
X14259623Y-11067540D01*
X13695243Y-11300737D01*
X13263063Y-11732162D01*
X13028881Y-12296135D01*
X13028349Y-12906796D01*
X13261546Y-13471176D01*
X13577113Y-13787296D01*
X13096178Y-14268231D01*
X12995113Y-14023636D01*
X12563688Y-13591456D01*
X11999715Y-13357274D01*
X11389054Y-13356742D01*
X10824674Y-13589939D01*
X10392494Y-14021364D01*
X10158312Y-14585337D01*
X10157780Y-15195998D01*
X10390977Y-15760378D01*
X10822402Y-16192558D01*
X11386375Y-16426740D01*
X11538749Y-16426873D01*
X11538749Y-17662422D01*
X11402068Y-17331629D01*
X10970643Y-16899449D01*
X10406670Y-16665267D01*
X9796009Y-16664735D01*
X9460009Y-16803567D01*
X9460009Y-16015007D01*
X9402157Y-15724168D01*
X9237410Y-15477606D01*
X9022394Y-15262590D01*
X8953852Y-15216792D01*
X8972440Y-15125000D01*
X8972440Y-14325000D01*
X8928162Y-14089683D01*
X8789090Y-13873559D01*
X8635000Y-13768274D01*
X8635000Y-13375000D01*
X8577148Y-13084161D01*
X8572440Y-13077115D01*
X8572440Y-12725000D01*
X8528162Y-12489683D01*
X8389090Y-12273559D01*
X8176890Y-12128569D01*
X7925000Y-12077560D01*
X7425000Y-12077560D01*
X7189683Y-12121838D01*
X6973559Y-12260910D01*
X6925866Y-12330711D01*
X6889090Y-12273559D01*
X6676890Y-12128569D01*
X6425000Y-12077560D01*
X5925000Y-12077560D01*
X5689683Y-12121838D01*
X5473559Y-12260910D01*
X5328569Y-12473110D01*
X5277560Y-12725000D01*
X5277560Y-13625000D01*
X5321838Y-13860317D01*
X5415000Y-14005095D01*
X5415000Y-14460002D01*
X5448330Y-14627560D01*
X5425000Y-14627560D01*
X5189683Y-14671838D01*
X4973559Y-14810910D01*
X4828569Y-15023110D01*
X4777560Y-15275000D01*
X4777560Y-16075000D01*
X4821838Y-16310317D01*
X4960910Y-16526441D01*
X5115000Y-16631726D01*
X5115000Y-17265100D01*
X4834637Y-17264855D01*
X4576519Y-17371507D01*
X4588327Y-17359699D01*
X4685000Y-17126310D01*
X4685000Y-16885750D01*
X4526250Y-16727000D01*
X3727000Y-16727000D01*
X3727000Y-16747000D01*
X3473000Y-16747000D01*
X3473000Y-16727000D01*
X3453000Y-16727000D01*
X3453000Y-16473000D01*
X3473000Y-16473000D01*
X3473000Y-16453000D01*
X3727000Y-16453000D01*
X3727000Y-16473000D01*
X4526250Y-16473000D01*
X4685000Y-16314250D01*
X4685000Y-16073690D01*
X4588327Y-15840301D01*
X4409698Y-15661673D01*
X4373253Y-15646577D01*
X4501441Y-15564090D01*
X4646431Y-15351890D01*
X4697440Y-15100000D01*
X4697440Y-14300000D01*
X4653162Y-14064683D01*
X4514090Y-13848559D01*
X4360000Y-13743274D01*
X4360000Y-13450000D01*
X4302148Y-13159161D01*
X4197440Y-13002454D01*
X4197440Y-12700000D01*
X4153162Y-12464683D01*
X4014090Y-12248559D01*
X3801890Y-12103569D01*
X3550000Y-12052560D01*
X3050000Y-12052560D01*
X2814683Y-12096838D01*
X2598559Y-12235910D01*
X2550866Y-12305711D01*
X2514090Y-12248559D01*
X2301890Y-12103569D01*
X2050000Y-12052560D01*
X1550000Y-12052560D01*
X1314683Y-12096838D01*
X1098559Y-12235910D01*
X953569Y-12448110D01*
X902560Y-12700000D01*
X902560Y-13600000D01*
X946838Y-13835317D01*
X1077456Y-14038303D01*
X1097852Y-14140839D01*
X1262599Y-14387401D01*
X1477758Y-14602560D01*
X1150000Y-14602560D01*
X914683Y-14646838D01*
X710000Y-14778548D01*
X710000Y-8172325D01*
X1114587Y-8172325D01*
X1476916Y-9049229D01*
X2147242Y-9720726D01*
X3023513Y-10084585D01*
X3972325Y-10085413D01*
X4849229Y-9723084D01*
X5520726Y-9052758D01*
X5884585Y-8176487D01*
X5885413Y-7227675D01*
X5523084Y-6350771D01*
X5437463Y-6265000D01*
X21020238Y-6265000D01*
X21020238Y-9785000D01*
X26499762Y-9785000D01*
X26499762Y-8172325D01*
X30914587Y-8172325D01*
X31276916Y-9049229D01*
X31947242Y-9720726D01*
X32823513Y-10084585D01*
X33772325Y-10085413D01*
X34649229Y-9723084D01*
X35320726Y-9052758D01*
X35684585Y-8176487D01*
X35685413Y-7227675D01*
X35323084Y-6350771D01*
X34652758Y-5679274D01*
X33776487Y-5315415D01*
X32827675Y-5314587D01*
X31950771Y-5676916D01*
X31279274Y-6347242D01*
X30915415Y-7223513D01*
X30914587Y-8172325D01*
X26499762Y-8172325D01*
X26499762Y-6265000D01*
X21020238Y-6265000D01*
X5437463Y-6265000D01*
X4852758Y-5679274D01*
X3976487Y-5315415D01*
X3027675Y-5314587D01*
X2150771Y-5676916D01*
X1479274Y-6347242D01*
X1115415Y-7223513D01*
X1114587Y-8172325D01*
X710000Y-8172325D01*
X710000Y-5017000D01*
X36290000Y-5017000D01*
X36290000Y-11677736D01*
X36290000Y-11677736D01*
G37*
X36290000Y-11677736D02*
X36163890Y-11591569D01*
X35912000Y-11540560D01*
X34388000Y-11540560D01*
X34152683Y-11584838D01*
X33936559Y-11723910D01*
X33801475Y-11921612D01*
X33701890Y-11853569D01*
X33450000Y-11802560D01*
X32550000Y-11802560D01*
X32314683Y-11846838D01*
X32098559Y-11985910D01*
X31999367Y-12131083D01*
X31914090Y-11998559D01*
X31701890Y-11853569D01*
X31450000Y-11802560D01*
X30550000Y-11802560D01*
X30314683Y-11846838D01*
X30098559Y-11985910D01*
X29953569Y-12198110D01*
X29902560Y-12450000D01*
X29902560Y-12950000D01*
X29946838Y-13185317D01*
X30085910Y-13401441D01*
X30155711Y-13449134D01*
X30098559Y-13485910D01*
X29953569Y-13698110D01*
X29902560Y-13950000D01*
X29902560Y-14450000D01*
X29946838Y-14685317D01*
X30085910Y-14901441D01*
X30155325Y-14948871D01*
X27571470Y-17532726D01*
X27488378Y-17331629D01*
X27056953Y-16899449D01*
X26492980Y-16665267D01*
X25882319Y-16664735D01*
X25317939Y-16897932D01*
X24885759Y-17329357D01*
X24651577Y-17893330D01*
X24651045Y-18503991D01*
X24884242Y-19068371D01*
X25315667Y-19500551D01*
X25519151Y-19585045D01*
X23210011Y-21894185D01*
X23210011Y-20377957D01*
X23462390Y-20125578D01*
X23627137Y-19879017D01*
X23684989Y-19588177D01*
X23684989Y-16154859D01*
X23722622Y-16192558D01*
X24286595Y-16426740D01*
X24897256Y-16427272D01*
X25461636Y-16194075D01*
X25893816Y-15762650D01*
X26127998Y-15198677D01*
X26128530Y-14588016D01*
X25895333Y-14023636D01*
X25463908Y-13591456D01*
X24899935Y-13357274D01*
X24289274Y-13356742D01*
X23724894Y-13589939D01*
X23655892Y-13658820D01*
X23627137Y-13514259D01*
X23462390Y-13267697D01*
X23212462Y-13017769D01*
X23257429Y-12909475D01*
X23257961Y-12298814D01*
X23024764Y-11734434D01*
X22593339Y-11302254D01*
X22029366Y-11068072D01*
X21418705Y-11067540D01*
X20854325Y-11300737D01*
X20422145Y-11732162D01*
X20187963Y-12296135D01*
X20187431Y-12906796D01*
X20420628Y-13471176D01*
X20852053Y-13903356D01*
X21235743Y-14062678D01*
X20895860Y-14402560D01*
X20850000Y-14402560D01*
X20614683Y-14446838D01*
X20398559Y-14585910D01*
X20350866Y-14655711D01*
X20314090Y-14598559D01*
X20101890Y-14453569D01*
X19850000Y-14402560D01*
X19350000Y-14402560D01*
X19114683Y-14446838D01*
X18898559Y-14585910D01*
X18827421Y-14690023D01*
X18717320Y-14689927D01*
X18703162Y-14614683D01*
X18564090Y-14398559D01*
X18351890Y-14253569D01*
X18100000Y-14202560D01*
X17200000Y-14202560D01*
X17042906Y-14232119D01*
X16941821Y-14190145D01*
X16609637Y-14189855D01*
X16302628Y-14316708D01*
X16067534Y-14551393D01*
X15999599Y-14714999D01*
X14939999Y-14714999D01*
X14764007Y-14750006D01*
X15101015Y-14412998D01*
X15265762Y-14166436D01*
X15307565Y-13956282D01*
X15431985Y-13904873D01*
X15864165Y-13473448D01*
X16098347Y-12909475D01*
X16098879Y-12298814D01*
X16012512Y-12089789D01*
X16607890Y-12089789D01*
X16841087Y-12654169D01*
X17272512Y-13086349D01*
X17836485Y-13320531D01*
X18447146Y-13321063D01*
X19011526Y-13087866D01*
X19443706Y-12656441D01*
X19677888Y-12092468D01*
X19678420Y-11481807D01*
X19445223Y-10917427D01*
X19013798Y-10485247D01*
X18449825Y-10251065D01*
X17839164Y-10250533D01*
X17274784Y-10483730D01*
X16842604Y-10915155D01*
X16608422Y-11479128D01*
X16607890Y-12089789D01*
X16012512Y-12089789D01*
X15865682Y-11734434D01*
X15434257Y-11302254D01*
X14870284Y-11068072D01*
X14259623Y-11067540D01*
X13695243Y-11300737D01*
X13263063Y-11732162D01*
X13028881Y-12296135D01*
X13028349Y-12906796D01*
X13261546Y-13471176D01*
X13577113Y-13787296D01*
X13096178Y-14268231D01*
X12995113Y-14023636D01*
X12563688Y-13591456D01*
X11999715Y-13357274D01*
X11389054Y-13356742D01*
X10824674Y-13589939D01*
X10392494Y-14021364D01*
X10158312Y-14585337D01*
X10157780Y-15195998D01*
X10390977Y-15760378D01*
X10822402Y-16192558D01*
X11386375Y-16426740D01*
X11538749Y-16426873D01*
X11538749Y-17662422D01*
X11402068Y-17331629D01*
X10970643Y-16899449D01*
X10406670Y-16665267D01*
X9796009Y-16664735D01*
X9460009Y-16803567D01*
X9460009Y-16015007D01*
X9402157Y-15724168D01*
X9237410Y-15477606D01*
X9022394Y-15262590D01*
X8953852Y-15216792D01*
X8972440Y-15125000D01*
X8972440Y-14325000D01*
X8928162Y-14089683D01*
X8789090Y-13873559D01*
X8635000Y-13768274D01*
X8635000Y-13375000D01*
X8577148Y-13084161D01*
X8572440Y-13077115D01*
X8572440Y-12725000D01*
X8528162Y-12489683D01*
X8389090Y-12273559D01*
X8176890Y-12128569D01*
X7925000Y-12077560D01*
X7425000Y-12077560D01*
X7189683Y-12121838D01*
X6973559Y-12260910D01*
X6925866Y-12330711D01*
X6889090Y-12273559D01*
X6676890Y-12128569D01*
X6425000Y-12077560D01*
X5925000Y-12077560D01*
X5689683Y-12121838D01*
X5473559Y-12260910D01*
X5328569Y-12473110D01*
X5277560Y-12725000D01*
X5277560Y-13625000D01*
X5321838Y-13860317D01*
X5415000Y-14005095D01*
X5415000Y-14460002D01*
X5448330Y-14627560D01*
X5425000Y-14627560D01*
X5189683Y-14671838D01*
X4973559Y-14810910D01*
X4828569Y-15023110D01*
X4777560Y-15275000D01*
X4777560Y-16075000D01*
X4821838Y-16310317D01*
X4960910Y-16526441D01*
X5115000Y-16631726D01*
X5115000Y-17265100D01*
X4834637Y-17264855D01*
X4576519Y-17371507D01*
X4588327Y-17359699D01*
X4685000Y-17126310D01*
X4685000Y-16885750D01*
X4526250Y-16727000D01*
X3727000Y-16727000D01*
X3727000Y-16747000D01*
X3473000Y-16747000D01*
X3473000Y-16727000D01*
X3453000Y-16727000D01*
X3453000Y-16473000D01*
X3473000Y-16473000D01*
X3473000Y-16453000D01*
X3727000Y-16453000D01*
X3727000Y-16473000D01*
X4526250Y-16473000D01*
X4685000Y-16314250D01*
X4685000Y-16073690D01*
X4588327Y-15840301D01*
X4409698Y-15661673D01*
X4373253Y-15646577D01*
X4501441Y-15564090D01*
X4646431Y-15351890D01*
X4697440Y-15100000D01*
X4697440Y-14300000D01*
X4653162Y-14064683D01*
X4514090Y-13848559D01*
X4360000Y-13743274D01*
X4360000Y-13450000D01*
X4302148Y-13159161D01*
X4197440Y-13002454D01*
X4197440Y-12700000D01*
X4153162Y-12464683D01*
X4014090Y-12248559D01*
X3801890Y-12103569D01*
X3550000Y-12052560D01*
X3050000Y-12052560D01*
X2814683Y-12096838D01*
X2598559Y-12235910D01*
X2550866Y-12305711D01*
X2514090Y-12248559D01*
X2301890Y-12103569D01*
X2050000Y-12052560D01*
X1550000Y-12052560D01*
X1314683Y-12096838D01*
X1098559Y-12235910D01*
X953569Y-12448110D01*
X902560Y-12700000D01*
X902560Y-13600000D01*
X946838Y-13835317D01*
X1077456Y-14038303D01*
X1097852Y-14140839D01*
X1262599Y-14387401D01*
X1477758Y-14602560D01*
X1150000Y-14602560D01*
X914683Y-14646838D01*
X710000Y-14778548D01*
X710000Y-8172325D01*
X1114587Y-8172325D01*
X1476916Y-9049229D01*
X2147242Y-9720726D01*
X3023513Y-10084585D01*
X3972325Y-10085413D01*
X4849229Y-9723084D01*
X5520726Y-9052758D01*
X5884585Y-8176487D01*
X5885413Y-7227675D01*
X5523084Y-6350771D01*
X5437463Y-6265000D01*
X21020238Y-6265000D01*
X21020238Y-9785000D01*
X26499762Y-9785000D01*
X26499762Y-8172325D01*
X30914587Y-8172325D01*
X31276916Y-9049229D01*
X31947242Y-9720726D01*
X32823513Y-10084585D01*
X33772325Y-10085413D01*
X34649229Y-9723084D01*
X35320726Y-9052758D01*
X35684585Y-8176487D01*
X35685413Y-7227675D01*
X35323084Y-6350771D01*
X34652758Y-5679274D01*
X33776487Y-5315415D01*
X32827675Y-5314587D01*
X31950771Y-5676916D01*
X31279274Y-6347242D01*
X30915415Y-7223513D01*
X30914587Y-8172325D01*
X26499762Y-8172325D01*
X26499762Y-6265000D01*
X21020238Y-6265000D01*
X5437463Y-6265000D01*
X4852758Y-5679274D01*
X3976487Y-5315415D01*
X3027675Y-5314587D01*
X2150771Y-5676916D01*
X1479274Y-6347242D01*
X1115415Y-7223513D01*
X1114587Y-8172325D01*
X710000Y-8172325D01*
X710000Y-5017000D01*
X36290000Y-5017000D01*
X36290000Y-11677736D01*
G36*
X6948750Y-16498000D02*
X7217956Y-16498000D01*
X7224150Y-16502139D01*
X7514989Y-16559991D01*
X7940009Y-16559991D01*
X7940009Y-16772000D01*
X7748000Y-16772000D01*
X7748000Y-16752000D01*
X6948750Y-16752000D01*
X6790000Y-16910750D01*
X6790000Y-17071690D01*
X6726890Y-17028569D01*
X6635000Y-17009961D01*
X6635000Y-16630105D01*
X6776441Y-16539090D01*
X6863064Y-16412314D01*
X6948750Y-16498000D01*
X6948750Y-16498000D01*
G37*
X6948750Y-16498000D02*
X7217956Y-16498000D01*
X7224150Y-16502139D01*
X7514989Y-16559991D01*
X7940009Y-16559991D01*
X7940009Y-16772000D01*
X7748000Y-16772000D01*
X7748000Y-16752000D01*
X6948750Y-16752000D01*
X6790000Y-16910750D01*
X6790000Y-17071690D01*
X6726890Y-17028569D01*
X6635000Y-17009961D01*
X6635000Y-16630105D01*
X6776441Y-16539090D01*
X6863064Y-16412314D01*
X6948750Y-16498000D01*
G36*
X9711673Y-790301D02*
X9615000Y-1023690D01*
X9615000Y-1714250D01*
X9773750Y-1873000D01*
X10973000Y-1873000D01*
X10973000Y-1853000D01*
X11227000Y-1853000D01*
X11227000Y-1873000D01*
X12426250Y-1873000D01*
X12585000Y-1714250D01*
X12585000Y-1023690D01*
X12488327Y-790301D01*
X12408026Y-710000D01*
X34241974Y-710000D01*
X34161673Y-790301D01*
X34065000Y-1023690D01*
X34065000Y-1714250D01*
X34223750Y-1873000D01*
X35423000Y-1873000D01*
X35423000Y-1853000D01*
X35677000Y-1853000D01*
X35677000Y-1873000D01*
X35697000Y-1873000D01*
X35697000Y-2127000D01*
X35677000Y-2127000D01*
X35677000Y-3326250D01*
X35835750Y-3485000D01*
X36290000Y-3485000D01*
X36290000Y-3501583D01*
X12159438Y-3450567D01*
X12309698Y-3388327D01*
X12488327Y-3209699D01*
X12585000Y-2976310D01*
X12585000Y-2285750D01*
X34065000Y-2285750D01*
X34065000Y-2976310D01*
X34161673Y-3209699D01*
X34340302Y-3388327D01*
X34573691Y-3485000D01*
X35264250Y-3485000D01*
X35423000Y-3326250D01*
X35423000Y-2127000D01*
X34223750Y-2127000D01*
X34065000Y-2285750D01*
X12585000Y-2285750D01*
X12426250Y-2127000D01*
X11227000Y-2127000D01*
X11227000Y-2147000D01*
X10973000Y-2147000D01*
X10973000Y-2127000D01*
X9773750Y-2127000D01*
X9615000Y-2285750D01*
X9615000Y-2976310D01*
X9711673Y-3209699D01*
X9890302Y-3388327D01*
X10029692Y-3446064D01*
X8704668Y-3443263D01*
X8653895Y-710000D01*
X9791974Y-710000D01*
X9711673Y-790301D01*
X9711673Y-790301D01*
G37*
X9711673Y-790301D02*
X9615000Y-1023690D01*
X9615000Y-1714250D01*
X9773750Y-1873000D01*
X10973000Y-1873000D01*
X10973000Y-1853000D01*
X11227000Y-1853000D01*
X11227000Y-1873000D01*
X12426250Y-1873000D01*
X12585000Y-1714250D01*
X12585000Y-1023690D01*
X12488327Y-790301D01*
X12408026Y-710000D01*
X34241974Y-710000D01*
X34161673Y-790301D01*
X34065000Y-1023690D01*
X34065000Y-1714250D01*
X34223750Y-1873000D01*
X35423000Y-1873000D01*
X35423000Y-1853000D01*
X35677000Y-1853000D01*
X35677000Y-1873000D01*
X35697000Y-1873000D01*
X35697000Y-2127000D01*
X35677000Y-2127000D01*
X35677000Y-3326250D01*
X35835750Y-3485000D01*
X36290000Y-3485000D01*
X36290000Y-3501583D01*
X12159438Y-3450567D01*
X12309698Y-3388327D01*
X12488327Y-3209699D01*
X12585000Y-2976310D01*
X12585000Y-2285750D01*
X34065000Y-2285750D01*
X34065000Y-2976310D01*
X34161673Y-3209699D01*
X34340302Y-3388327D01*
X34573691Y-3485000D01*
X35264250Y-3485000D01*
X35423000Y-3326250D01*
X35423000Y-2127000D01*
X34223750Y-2127000D01*
X34065000Y-2285750D01*
X12585000Y-2285750D01*
X12426250Y-2127000D01*
X11227000Y-2127000D01*
X11227000Y-2147000D01*
X10973000Y-2147000D01*
X10973000Y-2127000D01*
X9773750Y-2127000D01*
X9615000Y-2285750D01*
X9615000Y-2976310D01*
X9711673Y-3209699D01*
X9890302Y-3388327D01*
X10029692Y-3446064D01*
X8704668Y-3443263D01*
X8653895Y-710000D01*
X9791974Y-710000D01*
X9711673Y-790301D01*
M02*
