%TF.GenerationSoftware,KiCad,Pcbnew,4.0.7*%
%TF.CreationDate,2017-11-19T00:55:32+08:00*%
%TF.ProjectId,finalRoundNixie,66696E616C526F756E644E697869652E,rev?*%
%TF.FileFunction,Copper,L1,Top,Signal*%
%FSLAX46Y46*%
G04 Gerber Fmt 4.6, Leading zero omitted, Abs format (unit mm)*
G04 Created by KiCad (PCBNEW 4.0.7) date 11/19/17 00:55:32*
%MOMM*%
%LPD*%
G01*
G04 APERTURE LIST*
%ADD10C,0.100000*%
%ADD11C,3.500000*%
%ADD12R,1.700000X1.700000*%
%ADD13O,1.700000X1.700000*%
%ADD14R,1.524000X1.524000*%
%ADD15C,1.524000*%
%ADD16C,1.800000*%
%ADD17R,1.300000X1.200000*%
%ADD18R,1.300000X1.400000*%
%ADD19C,0.400000*%
%ADD20C,0.453000*%
%ADD21C,1.000000*%
%ADD22C,0.250000*%
%ADD23C,1.000000*%
%ADD24C,0.500000*%
%ADD25C,0.254000*%
G04 APERTURE END LIST*
D10*
D11*
X33300000Y-7700000D03*
X3500000Y-7700000D03*
X4700000Y-51900000D03*
X33030000Y-51900000D03*
D12*
X11100000Y-2000000D03*
X11100000Y-33000000D03*
D13*
X11100000Y-35540000D03*
X11100000Y-38080000D03*
X11100000Y-40620000D03*
X11100000Y-43160000D03*
X11100000Y-45700000D03*
D12*
X35550000Y-2000000D03*
X35500000Y-33000000D03*
D13*
X35500000Y-35540000D03*
X35500000Y-38080000D03*
X35500000Y-40620000D03*
X35500000Y-43160000D03*
X35500000Y-45700000D03*
D14*
X35150000Y-12950000D03*
D15*
X35150000Y-17950000D03*
D14*
X35200000Y-21300000D03*
D15*
X35200000Y-26300000D03*
D16*
X18143155Y-11785798D03*
X14563614Y-12602805D03*
X11693045Y-14892007D03*
X10100000Y-18200000D03*
X10100000Y-21871596D03*
X11693045Y-25179589D03*
X14563614Y-27468791D03*
X18143155Y-28285798D03*
X24593265Y-25179589D03*
X26186310Y-21871596D03*
X26186310Y-18200000D03*
X24593265Y-14892007D03*
X21722696Y-12602805D03*
D17*
X15950000Y-20900000D03*
X20350000Y-20900000D03*
D18*
X15950000Y-19300000D03*
X20350000Y-19300000D03*
X15950000Y-22500000D03*
X20350000Y-22500000D03*
D19*
X33286404Y-28113596D03*
X35400000Y-29000000D03*
X3100000Y-44600000D03*
D20*
X8914858Y-36414858D03*
X7300000Y-34700000D03*
X25200000Y-10600000D03*
X27000000Y-12100000D03*
X20200000Y-8700000D03*
X18500000Y-8700000D03*
X14200000Y-8400000D03*
X10000000Y-8900000D03*
X7500000Y-10300000D03*
X4600000Y-11100000D03*
D21*
X31000000Y-27100000D03*
X33800000Y-29900000D03*
X2000000Y-42600000D03*
X2000000Y-49300000D03*
X2900000Y-46900000D03*
X5300000Y-47900000D03*
X6900000Y-49300000D03*
D20*
X14051510Y-19400000D03*
X14100000Y-22499999D03*
X10400000Y-16700000D03*
X14400000Y-24000000D03*
X4900000Y-16700000D03*
X6149996Y-32650000D03*
X18500000Y-53800000D03*
D21*
X14103370Y-51586629D03*
X16050000Y-47000000D03*
X20400000Y-35500000D03*
X20400000Y-41150000D03*
X29550000Y-25200000D03*
X29450000Y-23050000D03*
D20*
X31049998Y-18650000D03*
X22780010Y-53868490D03*
X6160000Y-29300000D03*
X3090000Y-24380000D03*
D19*
X6925000Y-16700000D03*
D20*
X26566500Y-54500000D03*
X18800000Y-54500000D03*
D21*
X27799999Y-19749999D03*
D20*
X21150000Y-16500000D03*
X21100000Y-17800000D03*
X22250000Y-14300000D03*
D21*
X7050000Y-19350000D03*
X1650000Y-19500000D03*
D19*
X1650000Y-28719990D03*
D20*
X1600000Y-30740000D03*
D19*
X21700000Y-21000000D03*
X17799978Y-18249978D03*
X19123653Y-14381176D03*
X24100000Y-52050000D03*
X25916120Y-52977817D03*
X34240000Y-47050000D03*
X24850000Y-38450000D03*
X14240000Y-37660000D03*
X29000000Y-39350000D03*
D20*
X29400000Y-1600000D03*
X32150000Y-1400000D03*
X14250000Y-1250000D03*
X28840000Y-1975000D03*
X32650000Y-1975000D03*
X18680000Y-1975000D03*
X13600000Y-2000000D03*
X14870000Y-2000000D03*
D21*
X16450000Y-26050000D03*
X20170000Y-26050000D03*
D19*
X17000000Y-18100000D03*
X10800000Y-20600000D03*
X13200000Y-23100000D03*
X11100000Y-23100000D03*
X13582330Y-23787486D03*
X11000000Y-23800000D03*
D20*
X8880351Y-20051510D03*
X7992924Y-19010254D03*
D19*
X5000000Y-18100000D03*
X12859282Y-19030507D03*
X23777459Y-27630064D03*
X21668480Y-27730000D03*
X27850000Y-39450000D03*
X27849998Y-35300000D03*
X29044277Y-42530012D03*
X27140256Y-32054796D03*
X13424979Y-15750000D03*
X27200002Y-43200000D03*
X23850865Y-27034560D03*
X27771650Y-32050011D03*
X19540000Y-27070010D03*
X27200000Y-37050000D03*
X27207998Y-39424990D03*
X13850000Y-35650000D03*
X13627808Y-28680000D03*
X12470296Y-35695216D03*
X13600000Y-43700000D03*
X13550000Y-38700000D03*
X13102798Y-35641999D03*
X14100000Y-34250000D03*
X29449988Y-32050011D03*
X29300000Y-35900000D03*
X23404832Y-32050011D03*
X22998109Y-47720010D03*
D20*
X2622954Y-21253286D03*
X2600000Y-18200000D03*
D19*
X21481076Y-47720010D03*
X16990000Y-43230000D03*
D20*
X17550000Y-36950000D03*
D19*
X19140000Y-47120000D03*
X27180000Y-47280000D03*
X29920000Y-44050000D03*
X17000000Y-32050011D03*
X18140000Y-47230000D03*
X25300000Y-47600000D03*
X24225010Y-43270000D03*
X21911239Y-52258761D03*
X30910000Y-37590000D03*
X24000000Y-47600000D03*
X23700000Y-37650000D03*
D20*
X28150000Y-24750000D03*
X21398490Y-29508778D03*
X21108705Y-30093969D03*
X22700000Y-30150000D03*
D21*
X12280000Y-52890000D03*
X15500000Y-31650000D03*
D19*
X32350000Y-33400000D03*
X4286512Y-26360000D03*
D20*
X24026500Y-55245010D03*
D19*
X25450000Y-52474990D03*
X33914488Y-36231958D03*
X2361109Y-26230088D03*
X33799989Y-46430464D03*
X34040000Y-41860000D03*
X18779512Y-22921990D03*
D20*
X14751510Y-22093863D03*
D19*
X19300000Y-21399992D03*
D22*
X25500000Y-10600000D02*
X25200000Y-10600000D01*
X27000000Y-12100000D02*
X25500000Y-10600000D01*
X18500000Y-8700000D02*
X20200000Y-8700000D01*
X10000000Y-8900000D02*
X13700000Y-8900000D01*
X13700000Y-8900000D02*
X14200000Y-8400000D01*
X4600000Y-11100000D02*
X6700000Y-11100000D01*
X6700000Y-11100000D02*
X7500000Y-10300000D01*
D23*
X33800000Y-29900000D02*
X31000000Y-27100000D01*
X2900000Y-46900000D02*
X2900000Y-48400000D01*
X2900000Y-48400000D02*
X2000000Y-49300000D01*
X6900000Y-49300000D02*
X6700000Y-49300000D01*
X6700000Y-49300000D02*
X5300000Y-47900000D01*
D24*
X6160000Y-27129681D02*
X3410319Y-24380000D01*
X6160000Y-29300000D02*
X6160000Y-27129681D01*
X3410319Y-24380000D02*
X3090000Y-24380000D01*
D22*
X10400000Y-16700000D02*
X11351510Y-16700000D01*
X13825011Y-19173501D02*
X14051510Y-19400000D01*
X11351510Y-16700000D02*
X13825011Y-19173501D01*
X14100000Y-22820318D02*
X14100000Y-22499999D01*
X14400000Y-24000000D02*
X14100000Y-23700000D01*
X14100000Y-23700000D02*
X14100000Y-22820318D01*
D24*
X22391201Y-53800000D02*
X18500000Y-53800000D01*
X22459691Y-53868490D02*
X22391201Y-53800000D01*
X22780010Y-53868490D02*
X22459691Y-53868490D01*
X4287998Y-16700000D02*
X4900000Y-16700000D01*
X4900000Y-16700000D02*
X6925000Y-16700000D01*
X6160000Y-32639996D02*
X6149996Y-32650000D01*
X6160000Y-29300000D02*
X6160000Y-32639996D01*
D23*
X16050000Y-49639999D02*
X14103370Y-51586629D01*
X16050000Y-47000000D02*
X16050000Y-49639999D01*
X20400000Y-41150000D02*
X20400000Y-35500000D01*
X29450000Y-25100000D02*
X29550000Y-25200000D01*
X29450000Y-23050000D02*
X29450000Y-25100000D01*
D24*
X3649999Y-18062001D02*
X3649999Y-17337999D01*
X3749999Y-18162001D02*
X3649999Y-18062001D01*
X3749999Y-23720001D02*
X3749999Y-18162001D01*
X3090000Y-24380000D02*
X3749999Y-23720001D01*
X3649999Y-17337999D02*
X4287998Y-16700000D01*
D23*
X11100000Y-41075000D02*
X11100000Y-40630000D01*
D22*
X18800000Y-54500000D02*
X26566500Y-54500000D01*
D23*
X22219260Y-10150000D02*
X24350000Y-12280740D01*
X14067050Y-10150000D02*
X22219260Y-10150000D01*
X9173499Y-16455279D02*
X9173499Y-15043551D01*
X7050000Y-18578778D02*
X9173499Y-16455279D01*
X9173499Y-15043551D02*
X14067050Y-10150000D01*
X7050000Y-19350000D02*
X7050000Y-18578778D01*
X27799999Y-15730739D02*
X27799999Y-19749999D01*
X24350000Y-12280740D02*
X27799999Y-15730739D01*
D24*
X22250000Y-14300000D02*
X22330740Y-14300000D01*
X22330740Y-14300000D02*
X24350000Y-12280740D01*
X21100000Y-17800000D02*
X21100000Y-16550000D01*
X21100000Y-16550000D02*
X21150000Y-16500000D01*
X1600000Y-21133500D02*
X1600000Y-19550000D01*
X1600000Y-19550000D02*
X1650000Y-19500000D01*
X1600000Y-30740000D02*
X1650000Y-28719990D01*
X1650000Y-28719990D02*
X1600000Y-21133500D01*
D22*
X21700000Y-22050000D02*
X21700000Y-21282842D01*
X20350000Y-22500000D02*
X21250000Y-22500000D01*
X21250000Y-22500000D02*
X21700000Y-22050000D01*
X21700000Y-21282842D02*
X21700000Y-21000000D01*
X17424965Y-18624991D02*
X17599979Y-18449977D01*
X16850000Y-20900000D02*
X17424965Y-20325035D01*
X15950000Y-20900000D02*
X16850000Y-20900000D01*
X17599979Y-18449977D02*
X17799978Y-18249978D01*
X17424965Y-20325035D02*
X17424965Y-18624991D01*
X15675000Y-20950000D02*
X15850000Y-20950000D01*
X17874976Y-19602202D02*
X18324988Y-19152190D01*
X18923654Y-14581175D02*
X19123653Y-14381176D01*
X18324988Y-15179841D02*
X18923654Y-14581175D01*
X16850000Y-22500000D02*
X17874976Y-21475024D01*
X18324988Y-19152190D02*
X18324988Y-15179841D01*
X17874976Y-21475024D02*
X17874976Y-19602202D01*
X15950000Y-22500000D02*
X16850000Y-22500000D01*
X30450000Y-45700000D02*
X24100000Y-52050000D01*
X35500000Y-45700000D02*
X30450000Y-45700000D01*
X14350000Y-53000000D02*
X12300000Y-50950000D01*
X12300000Y-44360000D02*
X11100000Y-43160000D01*
X25916120Y-52977817D02*
X25893937Y-53000000D01*
X12300000Y-50950000D02*
X12300000Y-44360000D01*
X25893937Y-53000000D02*
X14350000Y-53000000D01*
X31843937Y-47050000D02*
X25916120Y-52977817D01*
X34240000Y-47050000D02*
X31843937Y-47050000D01*
X28100000Y-38450000D02*
X24850000Y-38450000D01*
X29000000Y-39350000D02*
X28100000Y-38450000D01*
X12620000Y-38080000D02*
X13060000Y-37640000D01*
X13060000Y-37640000D02*
X14220000Y-37640000D01*
X14220000Y-37640000D02*
X14240000Y-37660000D01*
X11100000Y-38080000D02*
X12620000Y-38080000D01*
X35150000Y-12950000D02*
X30699991Y-12950000D01*
X30699991Y-12950000D02*
X28949991Y-11200000D01*
D23*
X28949991Y-11200000D02*
X19724991Y-1975000D01*
X19724991Y-1975000D02*
X18680000Y-1975000D01*
X29250000Y-21175908D02*
X29250000Y-19800000D01*
X20877106Y-26050000D02*
X23427106Y-23500000D01*
X26925908Y-23500000D02*
X29250000Y-21175908D01*
X20170000Y-26050000D02*
X20877106Y-26050000D01*
X23427106Y-23500000D02*
X26925908Y-23500000D01*
X29250000Y-19800000D02*
X29250000Y-15543516D01*
D22*
X35200000Y-21300000D02*
X35200000Y-20288000D01*
X35200000Y-20288000D02*
X34712000Y-19800000D01*
X34712000Y-19800000D02*
X29250000Y-19800000D01*
D23*
X28949991Y-15243507D02*
X28949991Y-11200000D01*
D24*
X17955000Y-1250000D02*
X14250000Y-1250000D01*
X18680000Y-1975000D02*
X17955000Y-1250000D01*
X14250000Y-1380000D02*
X14250000Y-1250000D01*
X14870000Y-2000000D02*
X14250000Y-1380000D01*
D23*
X29250000Y-15543516D02*
X28949991Y-15243507D01*
D24*
X13600000Y-2000000D02*
X11100000Y-2000000D01*
X14870000Y-2000000D02*
X13600000Y-2000000D01*
D23*
X14563614Y-27468791D02*
X15982405Y-26050000D01*
X15982405Y-26050000D02*
X16450000Y-26050000D01*
D22*
X16717158Y-18100000D02*
X17000000Y-18100000D01*
X14603011Y-18696989D02*
X15200000Y-18100000D01*
X13667732Y-20600000D02*
X14603011Y-19664721D01*
X10800000Y-20600000D02*
X13667732Y-20600000D01*
X14603011Y-19664721D02*
X14603011Y-18696989D01*
X15200000Y-18100000D02*
X16717158Y-18100000D01*
X11100000Y-23100000D02*
X13200000Y-23100000D01*
X11000000Y-23800000D02*
X13569816Y-23800000D01*
X13569816Y-23800000D02*
X13582330Y-23787486D01*
X8880351Y-19897681D02*
X8880351Y-20051510D01*
X7992924Y-19010254D02*
X8880351Y-19897681D01*
X8250594Y-21871596D02*
X5000000Y-18621002D01*
X5000000Y-18621002D02*
X5000000Y-18100000D01*
X10100000Y-21871596D02*
X8250594Y-21871596D01*
X12659283Y-18830508D02*
X12859282Y-19030507D01*
X12028775Y-18200000D02*
X12659283Y-18830508D01*
X10100000Y-18200000D02*
X12028775Y-18200000D01*
X21668480Y-27730000D02*
X23677523Y-27730000D01*
X23677523Y-27730000D02*
X23777459Y-27630064D01*
X27140256Y-34590258D02*
X27849998Y-35300000D01*
X27140256Y-32054796D02*
X27140256Y-34590258D01*
X29044277Y-40644277D02*
X27850000Y-39450000D01*
X29044277Y-42530012D02*
X29044277Y-40644277D01*
X12593044Y-15792006D02*
X13382973Y-15792006D01*
X11693045Y-14892007D02*
X12593044Y-15792006D01*
X13382973Y-15792006D02*
X13424979Y-15750000D01*
X27207998Y-39424990D02*
X27207998Y-43192004D01*
X27207998Y-43192004D02*
X27200002Y-43200000D01*
X23815415Y-27070010D02*
X23850865Y-27034560D01*
X19540000Y-27070010D02*
X23815415Y-27070010D01*
X28475001Y-32753362D02*
X27771650Y-32050011D01*
X28475001Y-35774999D02*
X28475001Y-32753362D01*
X27200000Y-37050000D02*
X28475001Y-35774999D01*
X13850000Y-35650000D02*
X13574998Y-35374998D01*
X13574998Y-29015652D02*
X13627808Y-28962842D01*
X13574998Y-35374998D02*
X13574998Y-29015652D01*
X13627808Y-28962842D02*
X13627808Y-28680000D01*
X22000000Y-13080109D02*
X21522696Y-12602805D01*
X12470296Y-26745926D02*
X12470296Y-35412374D01*
X15416222Y-23800000D02*
X12470296Y-26745926D01*
X18324987Y-22060015D02*
X16585002Y-23800000D01*
X18324987Y-19788602D02*
X18324987Y-22060015D01*
X24593265Y-14892007D02*
X20584997Y-14892007D01*
X18774999Y-19338590D02*
X18324987Y-19788602D01*
X18774999Y-16702005D02*
X18774999Y-19338590D01*
X20584997Y-14892007D02*
X18774999Y-16702005D01*
X12470296Y-35412374D02*
X12470296Y-35695216D01*
X16585002Y-23800000D02*
X15416222Y-23800000D01*
X13550000Y-43650000D02*
X13600000Y-43700000D01*
X13550000Y-38700000D02*
X13550000Y-43650000D01*
X26186310Y-18200000D02*
X26186310Y-18913690D01*
X26186310Y-18913690D02*
X21300000Y-23800000D01*
X21300000Y-23800000D02*
X17221413Y-23800000D01*
X17221413Y-23800000D02*
X16771402Y-24250011D01*
X16771402Y-24250011D02*
X15821392Y-24250011D01*
X15821392Y-24250011D02*
X13102798Y-26968605D01*
X13102798Y-26968605D02*
X13102798Y-35359157D01*
X13102798Y-35359157D02*
X13102798Y-35641999D01*
X14100000Y-30517160D02*
X14100000Y-33967158D01*
X23864814Y-21871596D02*
X21486399Y-24250011D01*
X14100000Y-33967158D02*
X14100000Y-34250000D01*
X20367149Y-24250011D02*
X14100000Y-30517160D01*
X21486399Y-24250011D02*
X20367149Y-24250011D01*
X26186310Y-21871596D02*
X23864814Y-21871596D01*
X29300000Y-32199999D02*
X29449988Y-32050011D01*
X29300000Y-35900000D02*
X29300000Y-32199999D01*
X22998109Y-47720010D02*
X22998109Y-32456734D01*
X22998109Y-32456734D02*
X23404832Y-32050011D01*
X2600000Y-21230332D02*
X2622954Y-21253286D01*
X2600000Y-18200000D02*
X2600000Y-21230332D01*
X20556824Y-47720010D02*
X21481076Y-47720010D01*
X16990000Y-44153186D02*
X20556824Y-47720010D01*
X16990000Y-43230000D02*
X16990000Y-44153186D01*
X17615013Y-38208402D02*
X17615013Y-37015013D01*
X17615013Y-37015013D02*
X17550000Y-36950000D01*
X15930000Y-39893415D02*
X17615013Y-38208402D01*
X19140000Y-47120000D02*
X15930000Y-43910000D01*
X15930000Y-43910000D02*
X15930000Y-39893415D01*
X29920000Y-44050000D02*
X29920000Y-44540000D01*
X29920000Y-44540000D02*
X27180000Y-47280000D01*
X15404998Y-33645013D02*
X17000000Y-32050011D01*
X15404998Y-44494998D02*
X15404998Y-33645013D01*
X18140000Y-47230000D02*
X15404998Y-44494998D01*
X25300000Y-47317158D02*
X25300000Y-47600000D01*
X24225010Y-43270000D02*
X25300000Y-44344990D01*
X25300000Y-44344990D02*
X25300000Y-47317158D01*
X22974081Y-52258761D02*
X21911239Y-52258761D01*
X30910000Y-37590000D02*
X30910000Y-44322842D01*
X30910000Y-44322842D02*
X22974081Y-52258761D01*
X23800001Y-47400001D02*
X24000000Y-47600000D01*
X23700000Y-37650000D02*
X23700000Y-47300000D01*
X23700000Y-47300000D02*
X23800001Y-47400001D01*
X21398490Y-29508778D02*
X23391222Y-29508778D01*
X23391222Y-29508778D02*
X28150000Y-24750000D01*
X22700000Y-30150000D02*
X21164736Y-30150000D01*
X21164736Y-30150000D02*
X21108705Y-30093969D01*
D23*
X9200000Y-37440000D02*
X10250001Y-36389999D01*
X12280000Y-52890000D02*
X9200000Y-49810000D01*
X9200000Y-49810000D02*
X9200000Y-37440000D01*
X10250001Y-36389999D02*
X11100000Y-35540000D01*
X32350000Y-33400000D02*
X34490000Y-35540000D01*
X34490000Y-35540000D02*
X35500000Y-35540000D01*
X15999999Y-31150001D02*
X30100001Y-31150001D01*
X30100001Y-31150001D02*
X32350000Y-33400000D01*
X15500000Y-31650000D02*
X15999999Y-31150001D01*
D22*
X4156600Y-26230088D02*
X4286512Y-26360000D01*
X2361109Y-26230088D02*
X4156600Y-26230088D01*
X13468270Y-55245010D02*
X24026500Y-55245010D01*
X8360000Y-34640000D02*
X8360000Y-50136740D01*
X10000000Y-33000000D02*
X8360000Y-34640000D01*
X11100000Y-33000000D02*
X10000000Y-33000000D01*
X8360000Y-50136740D02*
X13468270Y-55245010D01*
X31494526Y-46430464D02*
X25450000Y-52474990D01*
X33799989Y-46430464D02*
X31494526Y-46430464D01*
X34040000Y-41860000D02*
X34040000Y-36357470D01*
X34040000Y-36357470D02*
X33914488Y-36231958D01*
X19450000Y-19300000D02*
X18774998Y-19975002D01*
X18779512Y-22639148D02*
X18779512Y-22921990D01*
X18774998Y-22634634D02*
X18779512Y-22639148D01*
X20350000Y-19300000D02*
X19450000Y-19300000D01*
X18774998Y-19975002D02*
X18774998Y-22634634D01*
X15752635Y-19300000D02*
X14751510Y-20301125D01*
X14751510Y-21773544D02*
X14751510Y-22093863D01*
X15950000Y-19300000D02*
X15752635Y-19300000D01*
X14751510Y-20301125D02*
X14751510Y-21773544D01*
X19582842Y-21399992D02*
X19300000Y-21399992D01*
X19850008Y-21399992D02*
X19582842Y-21399992D01*
X20350000Y-20900000D02*
X19850008Y-21399992D01*
X20250000Y-20950000D02*
X20121894Y-21078106D01*
D25*
G36*
X27814991Y-11670132D02*
X27814991Y-14140599D01*
X23021826Y-9347434D01*
X22653606Y-9101397D01*
X22219260Y-9015000D01*
X14067050Y-9015000D01*
X13632704Y-9101397D01*
X13264484Y-9347434D01*
X8370933Y-14240985D01*
X8124896Y-14609205D01*
X8038499Y-15043551D01*
X8038499Y-15985147D01*
X6247434Y-17776212D01*
X6001397Y-18144432D01*
X5934507Y-18480707D01*
X5801338Y-18347538D01*
X5834855Y-18266821D01*
X5835145Y-17934637D01*
X5708292Y-17627628D01*
X5473607Y-17392534D01*
X5166821Y-17265145D01*
X4834637Y-17264855D01*
X4527628Y-17391708D01*
X4292534Y-17626393D01*
X4165145Y-17933179D01*
X4164855Y-18265363D01*
X4240000Y-18447229D01*
X4240000Y-18621002D01*
X4297852Y-18911841D01*
X4462599Y-19158403D01*
X7713193Y-22408997D01*
X7959755Y-22573744D01*
X8250594Y-22631596D01*
X8753154Y-22631596D01*
X8797932Y-22739967D01*
X9229357Y-23172147D01*
X9793330Y-23406329D01*
X10259173Y-23406735D01*
X10165145Y-23633179D01*
X10164855Y-23965363D01*
X10291708Y-24272372D01*
X10373612Y-24354419D01*
X10158312Y-24872919D01*
X10157780Y-25483580D01*
X10390977Y-26047960D01*
X10822402Y-26480140D01*
X11386375Y-26714322D01*
X11716525Y-26714610D01*
X11710296Y-26745926D01*
X11710296Y-31502560D01*
X10250000Y-31502560D01*
X10014683Y-31546838D01*
X9798559Y-31685910D01*
X9653569Y-31898110D01*
X9602560Y-32150000D01*
X9602560Y-32369080D01*
X9462599Y-32462599D01*
X7822599Y-34102599D01*
X7657852Y-34349161D01*
X7600000Y-34640000D01*
X7600000Y-50136740D01*
X7657852Y-50427579D01*
X7822599Y-50674141D01*
X12461458Y-55313000D01*
X1056198Y-55313000D01*
X1037590Y-52372325D01*
X2314587Y-52372325D01*
X2676916Y-53249229D01*
X3347242Y-53920726D01*
X4223513Y-54284585D01*
X5172325Y-54285413D01*
X6049229Y-53923084D01*
X6720726Y-53252758D01*
X7084585Y-52376487D01*
X7085413Y-51427675D01*
X6723084Y-50550771D01*
X6052758Y-49879274D01*
X5176487Y-49515415D01*
X4227675Y-49514587D01*
X3350771Y-49876916D01*
X2679274Y-50547242D01*
X2315415Y-51423513D01*
X2314587Y-52372325D01*
X1037590Y-52372325D01*
X989454Y-44765363D01*
X2264855Y-44765363D01*
X2391708Y-45072372D01*
X2626393Y-45307466D01*
X2933179Y-45434855D01*
X3265363Y-45435145D01*
X3572372Y-45308292D01*
X3807466Y-45073607D01*
X3934855Y-44766821D01*
X3935145Y-44434637D01*
X3808292Y-44127628D01*
X3573607Y-43892534D01*
X3266821Y-43765145D01*
X2934637Y-43764855D01*
X2627628Y-43891708D01*
X2392534Y-44126393D01*
X2265145Y-44433179D01*
X2264855Y-44765363D01*
X989454Y-44765363D01*
X904015Y-31263374D01*
X958917Y-31350113D01*
X1069651Y-31428134D01*
X1111362Y-31469918D01*
X1154201Y-31487706D01*
X1241197Y-31549002D01*
X1373357Y-31578708D01*
X1427885Y-31601350D01*
X1474270Y-31601390D01*
X1578101Y-31624729D01*
X1711571Y-31601597D01*
X1770611Y-31601649D01*
X1813480Y-31583936D01*
X1918339Y-31565763D01*
X2032797Y-31493316D01*
X2087363Y-31470770D01*
X2120190Y-31438000D01*
X2210113Y-31381083D01*
X2288134Y-31270349D01*
X2329918Y-31228638D01*
X2347706Y-31185799D01*
X2409002Y-31098803D01*
X2438708Y-30966643D01*
X2461350Y-30912115D01*
X2461390Y-30865730D01*
X2484729Y-30761899D01*
X2534729Y-28741889D01*
X2532322Y-28728001D01*
X2534981Y-28714158D01*
X2524113Y-27065231D01*
X2526472Y-27065233D01*
X2708338Y-26990088D01*
X3735662Y-26990088D01*
X3812905Y-27067466D01*
X4119691Y-27194855D01*
X4451875Y-27195145D01*
X4758884Y-27068292D01*
X4993978Y-26833607D01*
X5121367Y-26526821D01*
X5121657Y-26194637D01*
X4994804Y-25887628D01*
X4760119Y-25652534D01*
X4453333Y-25525145D01*
X4433300Y-25525128D01*
X4156600Y-25470088D01*
X2708200Y-25470088D01*
X2527930Y-25395233D01*
X2513107Y-25395220D01*
X2491486Y-22114671D01*
X2793565Y-22114935D01*
X3110317Y-21984056D01*
X3352872Y-21741924D01*
X3484304Y-21425401D01*
X3484603Y-21082675D01*
X3360000Y-20781112D01*
X3360000Y-18616193D01*
X3461350Y-18372115D01*
X3461649Y-18029389D01*
X3330770Y-17712637D01*
X3088638Y-17470082D01*
X2772115Y-17338650D01*
X2429389Y-17338351D01*
X2112637Y-17469230D01*
X1870082Y-17711362D01*
X1738650Y-18027885D01*
X1738356Y-18365076D01*
X1425225Y-18364803D01*
X1007914Y-18537233D01*
X824644Y-18720184D01*
X757899Y-8172325D01*
X1114587Y-8172325D01*
X1476916Y-9049229D01*
X2147242Y-9720726D01*
X3023513Y-10084585D01*
X3972325Y-10085413D01*
X4849229Y-9723084D01*
X5520726Y-9052758D01*
X5884585Y-8176487D01*
X5885413Y-7227675D01*
X5523084Y-6350771D01*
X4852758Y-5679274D01*
X3976487Y-5315415D01*
X3027675Y-5314587D01*
X2150771Y-5676916D01*
X1479274Y-6347242D01*
X1115415Y-7223513D01*
X1114587Y-8172325D01*
X757899Y-8172325D01*
X738628Y-5127000D01*
X21271859Y-5127000D01*
X27814991Y-11670132D01*
X27814991Y-11670132D01*
G37*
X27814991Y-11670132D02*
X27814991Y-14140599D01*
X23021826Y-9347434D01*
X22653606Y-9101397D01*
X22219260Y-9015000D01*
X14067050Y-9015000D01*
X13632704Y-9101397D01*
X13264484Y-9347434D01*
X8370933Y-14240985D01*
X8124896Y-14609205D01*
X8038499Y-15043551D01*
X8038499Y-15985147D01*
X6247434Y-17776212D01*
X6001397Y-18144432D01*
X5934507Y-18480707D01*
X5801338Y-18347538D01*
X5834855Y-18266821D01*
X5835145Y-17934637D01*
X5708292Y-17627628D01*
X5473607Y-17392534D01*
X5166821Y-17265145D01*
X4834637Y-17264855D01*
X4527628Y-17391708D01*
X4292534Y-17626393D01*
X4165145Y-17933179D01*
X4164855Y-18265363D01*
X4240000Y-18447229D01*
X4240000Y-18621002D01*
X4297852Y-18911841D01*
X4462599Y-19158403D01*
X7713193Y-22408997D01*
X7959755Y-22573744D01*
X8250594Y-22631596D01*
X8753154Y-22631596D01*
X8797932Y-22739967D01*
X9229357Y-23172147D01*
X9793330Y-23406329D01*
X10259173Y-23406735D01*
X10165145Y-23633179D01*
X10164855Y-23965363D01*
X10291708Y-24272372D01*
X10373612Y-24354419D01*
X10158312Y-24872919D01*
X10157780Y-25483580D01*
X10390977Y-26047960D01*
X10822402Y-26480140D01*
X11386375Y-26714322D01*
X11716525Y-26714610D01*
X11710296Y-26745926D01*
X11710296Y-31502560D01*
X10250000Y-31502560D01*
X10014683Y-31546838D01*
X9798559Y-31685910D01*
X9653569Y-31898110D01*
X9602560Y-32150000D01*
X9602560Y-32369080D01*
X9462599Y-32462599D01*
X7822599Y-34102599D01*
X7657852Y-34349161D01*
X7600000Y-34640000D01*
X7600000Y-50136740D01*
X7657852Y-50427579D01*
X7822599Y-50674141D01*
X12461458Y-55313000D01*
X1056198Y-55313000D01*
X1037590Y-52372325D01*
X2314587Y-52372325D01*
X2676916Y-53249229D01*
X3347242Y-53920726D01*
X4223513Y-54284585D01*
X5172325Y-54285413D01*
X6049229Y-53923084D01*
X6720726Y-53252758D01*
X7084585Y-52376487D01*
X7085413Y-51427675D01*
X6723084Y-50550771D01*
X6052758Y-49879274D01*
X5176487Y-49515415D01*
X4227675Y-49514587D01*
X3350771Y-49876916D01*
X2679274Y-50547242D01*
X2315415Y-51423513D01*
X2314587Y-52372325D01*
X1037590Y-52372325D01*
X989454Y-44765363D01*
X2264855Y-44765363D01*
X2391708Y-45072372D01*
X2626393Y-45307466D01*
X2933179Y-45434855D01*
X3265363Y-45435145D01*
X3572372Y-45308292D01*
X3807466Y-45073607D01*
X3934855Y-44766821D01*
X3935145Y-44434637D01*
X3808292Y-44127628D01*
X3573607Y-43892534D01*
X3266821Y-43765145D01*
X2934637Y-43764855D01*
X2627628Y-43891708D01*
X2392534Y-44126393D01*
X2265145Y-44433179D01*
X2264855Y-44765363D01*
X989454Y-44765363D01*
X904015Y-31263374D01*
X958917Y-31350113D01*
X1069651Y-31428134D01*
X1111362Y-31469918D01*
X1154201Y-31487706D01*
X1241197Y-31549002D01*
X1373357Y-31578708D01*
X1427885Y-31601350D01*
X1474270Y-31601390D01*
X1578101Y-31624729D01*
X1711571Y-31601597D01*
X1770611Y-31601649D01*
X1813480Y-31583936D01*
X1918339Y-31565763D01*
X2032797Y-31493316D01*
X2087363Y-31470770D01*
X2120190Y-31438000D01*
X2210113Y-31381083D01*
X2288134Y-31270349D01*
X2329918Y-31228638D01*
X2347706Y-31185799D01*
X2409002Y-31098803D01*
X2438708Y-30966643D01*
X2461350Y-30912115D01*
X2461390Y-30865730D01*
X2484729Y-30761899D01*
X2534729Y-28741889D01*
X2532322Y-28728001D01*
X2534981Y-28714158D01*
X2524113Y-27065231D01*
X2526472Y-27065233D01*
X2708338Y-26990088D01*
X3735662Y-26990088D01*
X3812905Y-27067466D01*
X4119691Y-27194855D01*
X4451875Y-27195145D01*
X4758884Y-27068292D01*
X4993978Y-26833607D01*
X5121367Y-26526821D01*
X5121657Y-26194637D01*
X4994804Y-25887628D01*
X4760119Y-25652534D01*
X4453333Y-25525145D01*
X4433300Y-25525128D01*
X4156600Y-25470088D01*
X2708200Y-25470088D01*
X2527930Y-25395233D01*
X2513107Y-25395220D01*
X2491486Y-22114671D01*
X2793565Y-22114935D01*
X3110317Y-21984056D01*
X3352872Y-21741924D01*
X3484304Y-21425401D01*
X3484603Y-21082675D01*
X3360000Y-20781112D01*
X3360000Y-18616193D01*
X3461350Y-18372115D01*
X3461649Y-18029389D01*
X3330770Y-17712637D01*
X3088638Y-17470082D01*
X2772115Y-17338650D01*
X2429389Y-17338351D01*
X2112637Y-17469230D01*
X1870082Y-17711362D01*
X1738650Y-18027885D01*
X1738356Y-18365076D01*
X1425225Y-18364803D01*
X1007914Y-18537233D01*
X824644Y-18720184D01*
X757899Y-8172325D01*
X1114587Y-8172325D01*
X1476916Y-9049229D01*
X2147242Y-9720726D01*
X3023513Y-10084585D01*
X3972325Y-10085413D01*
X4849229Y-9723084D01*
X5520726Y-9052758D01*
X5884585Y-8176487D01*
X5885413Y-7227675D01*
X5523084Y-6350771D01*
X4852758Y-5679274D01*
X3976487Y-5315415D01*
X3027675Y-5314587D01*
X2150771Y-5676916D01*
X1479274Y-6347242D01*
X1115415Y-7223513D01*
X1114587Y-8172325D01*
X757899Y-8172325D01*
X738628Y-5127000D01*
X21271859Y-5127000D01*
X27814991Y-11670132D01*
G36*
X33176566Y-35831698D02*
X33079633Y-36065137D01*
X33079343Y-36397321D01*
X33206196Y-36704330D01*
X33280000Y-36778263D01*
X33280000Y-41512909D01*
X33205145Y-41693179D01*
X33204855Y-42025363D01*
X33331708Y-42332372D01*
X33566393Y-42567466D01*
X33873179Y-42694855D01*
X34078395Y-42695034D01*
X33985907Y-43160000D01*
X34098946Y-43728285D01*
X34420853Y-44210054D01*
X34750026Y-44430000D01*
X34420853Y-44649946D01*
X34227046Y-44940000D01*
X31367644Y-44940000D01*
X31447401Y-44860243D01*
X31612148Y-44613682D01*
X31670000Y-44322842D01*
X31670000Y-37937091D01*
X31744855Y-37756821D01*
X31745145Y-37424637D01*
X31618292Y-37117628D01*
X31383607Y-36882534D01*
X31076821Y-36755145D01*
X30744637Y-36754855D01*
X30437628Y-36881708D01*
X30202534Y-37116393D01*
X30075145Y-37423179D01*
X30074855Y-37755363D01*
X30150000Y-37937229D01*
X30150000Y-43241379D01*
X30086821Y-43215145D01*
X29754637Y-43214855D01*
X29447628Y-43341708D01*
X29212534Y-43576393D01*
X29085145Y-43883179D01*
X29084855Y-44215363D01*
X29109702Y-44275496D01*
X26888030Y-46497168D01*
X26707628Y-46571708D01*
X26472534Y-46806393D01*
X26345145Y-47113179D01*
X26344855Y-47445363D01*
X26452399Y-47705641D01*
X22659279Y-51498761D01*
X22258330Y-51498761D01*
X22078060Y-51423906D01*
X21745876Y-51423616D01*
X21438867Y-51550469D01*
X21203773Y-51785154D01*
X21076384Y-52091940D01*
X21076255Y-52240000D01*
X14664802Y-52240000D01*
X13060000Y-50635198D01*
X13060000Y-44360000D01*
X13055270Y-44336219D01*
X13126393Y-44407466D01*
X13433179Y-44534855D01*
X13765363Y-44535145D01*
X14072372Y-44408292D01*
X14307466Y-44173607D01*
X14434855Y-43866821D01*
X14435145Y-43534637D01*
X14310000Y-43231762D01*
X14310000Y-39047091D01*
X14384855Y-38866821D01*
X14385145Y-38534637D01*
X14368814Y-38495113D01*
X14405363Y-38495145D01*
X14644998Y-38396130D01*
X14644998Y-44494998D01*
X14702850Y-44785837D01*
X14867597Y-45032399D01*
X17357168Y-47521970D01*
X17431708Y-47702372D01*
X17666393Y-47937466D01*
X17973179Y-48064855D01*
X18305363Y-48065145D01*
X18612372Y-47938292D01*
X18706647Y-47844181D01*
X18973179Y-47954855D01*
X19305363Y-47955145D01*
X19596756Y-47834744D01*
X20019423Y-48257411D01*
X20265985Y-48422158D01*
X20556824Y-48480010D01*
X21133985Y-48480010D01*
X21314255Y-48554865D01*
X21646439Y-48555155D01*
X21953448Y-48428302D01*
X22188542Y-48193617D01*
X22239560Y-48070751D01*
X22289817Y-48192382D01*
X22524502Y-48427476D01*
X22831288Y-48554865D01*
X23163472Y-48555155D01*
X23470481Y-48428302D01*
X23572393Y-48326567D01*
X23833179Y-48434855D01*
X24165363Y-48435145D01*
X24472372Y-48308292D01*
X24650104Y-48130869D01*
X24826393Y-48307466D01*
X25133179Y-48434855D01*
X25465363Y-48435145D01*
X25772372Y-48308292D01*
X26007466Y-48073607D01*
X26134855Y-47766821D01*
X26135145Y-47434637D01*
X26060000Y-47252771D01*
X26060000Y-44344990D01*
X26002148Y-44054151D01*
X26002148Y-44054150D01*
X25837401Y-43807589D01*
X25007842Y-42978030D01*
X24933302Y-42797628D01*
X24698617Y-42562534D01*
X24460000Y-42463451D01*
X24460000Y-39192183D01*
X24683179Y-39284855D01*
X25015363Y-39285145D01*
X25197229Y-39210000D01*
X26393145Y-39210000D01*
X26373143Y-39258169D01*
X26372853Y-39590353D01*
X26447998Y-39772219D01*
X26447998Y-42833652D01*
X26365147Y-43033179D01*
X26364857Y-43365363D01*
X26491710Y-43672372D01*
X26726395Y-43907466D01*
X27033181Y-44034855D01*
X27365365Y-44035145D01*
X27672374Y-43908292D01*
X27907468Y-43673607D01*
X28034857Y-43366821D01*
X28035147Y-43034637D01*
X27967998Y-42872123D01*
X27967998Y-40642800D01*
X28284277Y-40959079D01*
X28284277Y-42182921D01*
X28209422Y-42363191D01*
X28209132Y-42695375D01*
X28335985Y-43002384D01*
X28570670Y-43237478D01*
X28877456Y-43364867D01*
X29209640Y-43365157D01*
X29516649Y-43238304D01*
X29751743Y-43003619D01*
X29879132Y-42696833D01*
X29879422Y-42364649D01*
X29804277Y-42182783D01*
X29804277Y-40644277D01*
X29746425Y-40353438D01*
X29581678Y-40106876D01*
X29502759Y-40027957D01*
X29707466Y-39823607D01*
X29834855Y-39516821D01*
X29835145Y-39184637D01*
X29708292Y-38877628D01*
X29473607Y-38642534D01*
X29291873Y-38567071D01*
X28637401Y-37912599D01*
X28390839Y-37747852D01*
X28100000Y-37690000D01*
X27740783Y-37690000D01*
X27907466Y-37523607D01*
X27982929Y-37341873D01*
X28771912Y-36552890D01*
X28826393Y-36607466D01*
X29133179Y-36734855D01*
X29465363Y-36735145D01*
X29772372Y-36608292D01*
X30007466Y-36373607D01*
X30134855Y-36066821D01*
X30135145Y-35734637D01*
X30060000Y-35552771D01*
X30060000Y-32715132D01*
X33176566Y-35831698D01*
X33176566Y-35831698D01*
G37*
X33176566Y-35831698D02*
X33079633Y-36065137D01*
X33079343Y-36397321D01*
X33206196Y-36704330D01*
X33280000Y-36778263D01*
X33280000Y-41512909D01*
X33205145Y-41693179D01*
X33204855Y-42025363D01*
X33331708Y-42332372D01*
X33566393Y-42567466D01*
X33873179Y-42694855D01*
X34078395Y-42695034D01*
X33985907Y-43160000D01*
X34098946Y-43728285D01*
X34420853Y-44210054D01*
X34750026Y-44430000D01*
X34420853Y-44649946D01*
X34227046Y-44940000D01*
X31367644Y-44940000D01*
X31447401Y-44860243D01*
X31612148Y-44613682D01*
X31670000Y-44322842D01*
X31670000Y-37937091D01*
X31744855Y-37756821D01*
X31745145Y-37424637D01*
X31618292Y-37117628D01*
X31383607Y-36882534D01*
X31076821Y-36755145D01*
X30744637Y-36754855D01*
X30437628Y-36881708D01*
X30202534Y-37116393D01*
X30075145Y-37423179D01*
X30074855Y-37755363D01*
X30150000Y-37937229D01*
X30150000Y-43241379D01*
X30086821Y-43215145D01*
X29754637Y-43214855D01*
X29447628Y-43341708D01*
X29212534Y-43576393D01*
X29085145Y-43883179D01*
X29084855Y-44215363D01*
X29109702Y-44275496D01*
X26888030Y-46497168D01*
X26707628Y-46571708D01*
X26472534Y-46806393D01*
X26345145Y-47113179D01*
X26344855Y-47445363D01*
X26452399Y-47705641D01*
X22659279Y-51498761D01*
X22258330Y-51498761D01*
X22078060Y-51423906D01*
X21745876Y-51423616D01*
X21438867Y-51550469D01*
X21203773Y-51785154D01*
X21076384Y-52091940D01*
X21076255Y-52240000D01*
X14664802Y-52240000D01*
X13060000Y-50635198D01*
X13060000Y-44360000D01*
X13055270Y-44336219D01*
X13126393Y-44407466D01*
X13433179Y-44534855D01*
X13765363Y-44535145D01*
X14072372Y-44408292D01*
X14307466Y-44173607D01*
X14434855Y-43866821D01*
X14435145Y-43534637D01*
X14310000Y-43231762D01*
X14310000Y-39047091D01*
X14384855Y-38866821D01*
X14385145Y-38534637D01*
X14368814Y-38495113D01*
X14405363Y-38495145D01*
X14644998Y-38396130D01*
X14644998Y-44494998D01*
X14702850Y-44785837D01*
X14867597Y-45032399D01*
X17357168Y-47521970D01*
X17431708Y-47702372D01*
X17666393Y-47937466D01*
X17973179Y-48064855D01*
X18305363Y-48065145D01*
X18612372Y-47938292D01*
X18706647Y-47844181D01*
X18973179Y-47954855D01*
X19305363Y-47955145D01*
X19596756Y-47834744D01*
X20019423Y-48257411D01*
X20265985Y-48422158D01*
X20556824Y-48480010D01*
X21133985Y-48480010D01*
X21314255Y-48554865D01*
X21646439Y-48555155D01*
X21953448Y-48428302D01*
X22188542Y-48193617D01*
X22239560Y-48070751D01*
X22289817Y-48192382D01*
X22524502Y-48427476D01*
X22831288Y-48554865D01*
X23163472Y-48555155D01*
X23470481Y-48428302D01*
X23572393Y-48326567D01*
X23833179Y-48434855D01*
X24165363Y-48435145D01*
X24472372Y-48308292D01*
X24650104Y-48130869D01*
X24826393Y-48307466D01*
X25133179Y-48434855D01*
X25465363Y-48435145D01*
X25772372Y-48308292D01*
X26007466Y-48073607D01*
X26134855Y-47766821D01*
X26135145Y-47434637D01*
X26060000Y-47252771D01*
X26060000Y-44344990D01*
X26002148Y-44054151D01*
X26002148Y-44054150D01*
X25837401Y-43807589D01*
X25007842Y-42978030D01*
X24933302Y-42797628D01*
X24698617Y-42562534D01*
X24460000Y-42463451D01*
X24460000Y-39192183D01*
X24683179Y-39284855D01*
X25015363Y-39285145D01*
X25197229Y-39210000D01*
X26393145Y-39210000D01*
X26373143Y-39258169D01*
X26372853Y-39590353D01*
X26447998Y-39772219D01*
X26447998Y-42833652D01*
X26365147Y-43033179D01*
X26364857Y-43365363D01*
X26491710Y-43672372D01*
X26726395Y-43907466D01*
X27033181Y-44034855D01*
X27365365Y-44035145D01*
X27672374Y-43908292D01*
X27907468Y-43673607D01*
X28034857Y-43366821D01*
X28035147Y-43034637D01*
X27967998Y-42872123D01*
X27967998Y-40642800D01*
X28284277Y-40959079D01*
X28284277Y-42182921D01*
X28209422Y-42363191D01*
X28209132Y-42695375D01*
X28335985Y-43002384D01*
X28570670Y-43237478D01*
X28877456Y-43364867D01*
X29209640Y-43365157D01*
X29516649Y-43238304D01*
X29751743Y-43003619D01*
X29879132Y-42696833D01*
X29879422Y-42364649D01*
X29804277Y-42182783D01*
X29804277Y-40644277D01*
X29746425Y-40353438D01*
X29581678Y-40106876D01*
X29502759Y-40027957D01*
X29707466Y-39823607D01*
X29834855Y-39516821D01*
X29835145Y-39184637D01*
X29708292Y-38877628D01*
X29473607Y-38642534D01*
X29291873Y-38567071D01*
X28637401Y-37912599D01*
X28390839Y-37747852D01*
X28100000Y-37690000D01*
X27740783Y-37690000D01*
X27907466Y-37523607D01*
X27982929Y-37341873D01*
X28771912Y-36552890D01*
X28826393Y-36607466D01*
X29133179Y-36734855D01*
X29465363Y-36735145D01*
X29772372Y-36608292D01*
X30007466Y-36373607D01*
X30134855Y-36066821D01*
X30135145Y-35734637D01*
X30060000Y-35552771D01*
X30060000Y-32715132D01*
X33176566Y-35831698D01*
G36*
X22238109Y-32456734D02*
X22238109Y-47365601D01*
X22189368Y-47247638D01*
X21954683Y-47012544D01*
X21647897Y-46885155D01*
X21315713Y-46884865D01*
X21133847Y-46960010D01*
X20871626Y-46960010D01*
X17750000Y-43838384D01*
X17750000Y-43577091D01*
X17824855Y-43396821D01*
X17825145Y-43064637D01*
X17698292Y-42757628D01*
X17463607Y-42522534D01*
X17156821Y-42395145D01*
X16824637Y-42394855D01*
X16690000Y-42450486D01*
X16690000Y-40208217D01*
X18152414Y-38745803D01*
X18317161Y-38499242D01*
X18375013Y-38208402D01*
X18375013Y-37209624D01*
X18411350Y-37122115D01*
X18411649Y-36779389D01*
X18280770Y-36462637D01*
X18038638Y-36220082D01*
X17722115Y-36088650D01*
X17379389Y-36088351D01*
X17062637Y-36219230D01*
X16820082Y-36461362D01*
X16688650Y-36777885D01*
X16688351Y-37120611D01*
X16819230Y-37437363D01*
X16855013Y-37473209D01*
X16855013Y-37893600D01*
X16164998Y-38583615D01*
X16164998Y-33959815D01*
X17291970Y-32832843D01*
X17472372Y-32758303D01*
X17707466Y-32523618D01*
X17806549Y-32285001D01*
X22272269Y-32285001D01*
X22238109Y-32456734D01*
X22238109Y-32456734D01*
G37*
X22238109Y-32456734D02*
X22238109Y-47365601D01*
X22189368Y-47247638D01*
X21954683Y-47012544D01*
X21647897Y-46885155D01*
X21315713Y-46884865D01*
X21133847Y-46960010D01*
X20871626Y-46960010D01*
X17750000Y-43838384D01*
X17750000Y-43577091D01*
X17824855Y-43396821D01*
X17825145Y-43064637D01*
X17698292Y-42757628D01*
X17463607Y-42522534D01*
X17156821Y-42395145D01*
X16824637Y-42394855D01*
X16690000Y-42450486D01*
X16690000Y-40208217D01*
X18152414Y-38745803D01*
X18317161Y-38499242D01*
X18375013Y-38208402D01*
X18375013Y-37209624D01*
X18411350Y-37122115D01*
X18411649Y-36779389D01*
X18280770Y-36462637D01*
X18038638Y-36220082D01*
X17722115Y-36088650D01*
X17379389Y-36088351D01*
X17062637Y-36219230D01*
X16820082Y-36461362D01*
X16688650Y-36777885D01*
X16688351Y-37120611D01*
X16819230Y-37437363D01*
X16855013Y-37473209D01*
X16855013Y-37893600D01*
X16164998Y-38583615D01*
X16164998Y-33959815D01*
X17291970Y-32832843D01*
X17472372Y-32758303D01*
X17707466Y-32523618D01*
X17806549Y-32285001D01*
X22272269Y-32285001D01*
X22238109Y-32456734D01*
G36*
X12714855Y-38865363D02*
X12790000Y-39047229D01*
X12790000Y-43473322D01*
X12765145Y-43533179D01*
X12764956Y-43750154D01*
X12541210Y-43526408D01*
X12614093Y-43160000D01*
X12501054Y-42591715D01*
X12179147Y-42109946D01*
X11838447Y-41882298D01*
X11981358Y-41815183D01*
X12371645Y-41386924D01*
X12541476Y-40976890D01*
X12420155Y-40747000D01*
X11227000Y-40747000D01*
X11227000Y-40767000D01*
X10973000Y-40767000D01*
X10973000Y-40747000D01*
X10953000Y-40747000D01*
X10953000Y-40493000D01*
X10973000Y-40493000D01*
X10973000Y-40473000D01*
X11227000Y-40473000D01*
X11227000Y-40493000D01*
X12420155Y-40493000D01*
X12541476Y-40263110D01*
X12371645Y-39853076D01*
X11981358Y-39424817D01*
X11838447Y-39357702D01*
X12179147Y-39130054D01*
X12372954Y-38840000D01*
X12620000Y-38840000D01*
X12714894Y-38821124D01*
X12714855Y-38865363D01*
X12714855Y-38865363D01*
G37*
X12714855Y-38865363D02*
X12790000Y-39047229D01*
X12790000Y-43473322D01*
X12765145Y-43533179D01*
X12764956Y-43750154D01*
X12541210Y-43526408D01*
X12614093Y-43160000D01*
X12501054Y-42591715D01*
X12179147Y-42109946D01*
X11838447Y-41882298D01*
X11981358Y-41815183D01*
X12371645Y-41386924D01*
X12541476Y-40976890D01*
X12420155Y-40747000D01*
X11227000Y-40747000D01*
X11227000Y-40767000D01*
X10973000Y-40767000D01*
X10973000Y-40747000D01*
X10953000Y-40747000D01*
X10953000Y-40493000D01*
X10973000Y-40493000D01*
X10973000Y-40473000D01*
X11227000Y-40473000D01*
X11227000Y-40493000D01*
X12420155Y-40493000D01*
X12541476Y-40263110D01*
X12371645Y-39853076D01*
X11981358Y-39424817D01*
X11838447Y-39357702D01*
X12179147Y-39130054D01*
X12372954Y-38840000D01*
X12620000Y-38840000D01*
X12714894Y-38821124D01*
X12714855Y-38865363D01*
G36*
X35627000Y-40493000D02*
X35647000Y-40493000D01*
X35647000Y-40747000D01*
X35627000Y-40747000D01*
X35627000Y-40767000D01*
X35373000Y-40767000D01*
X35373000Y-40747000D01*
X35353000Y-40747000D01*
X35353000Y-40493000D01*
X35373000Y-40493000D01*
X35373000Y-40473000D01*
X35627000Y-40473000D01*
X35627000Y-40493000D01*
X35627000Y-40493000D01*
G37*
X35627000Y-40493000D02*
X35647000Y-40493000D01*
X35647000Y-40747000D01*
X35627000Y-40747000D01*
X35627000Y-40767000D01*
X35373000Y-40767000D01*
X35373000Y-40747000D01*
X35353000Y-40747000D01*
X35353000Y-40493000D01*
X35373000Y-40493000D01*
X35373000Y-40473000D01*
X35627000Y-40473000D01*
X35627000Y-40493000D01*
G36*
X33790560Y-22062000D02*
X33834838Y-22297317D01*
X33973910Y-22513441D01*
X34186110Y-22658431D01*
X34438000Y-22709440D01*
X35962000Y-22709440D01*
X36197317Y-22665162D01*
X36290000Y-22605522D01*
X36290000Y-25414521D01*
X35992370Y-25116371D01*
X35479100Y-24903243D01*
X34923339Y-24902758D01*
X34409697Y-25114990D01*
X34016371Y-25507630D01*
X33803243Y-26020900D01*
X33802758Y-26576661D01*
X34014990Y-27090303D01*
X34407630Y-27483629D01*
X34920900Y-27696757D01*
X35476661Y-27697242D01*
X35990303Y-27485010D01*
X36290000Y-27185836D01*
X36290000Y-31502560D01*
X34650000Y-31502560D01*
X34414683Y-31546838D01*
X34198559Y-31685910D01*
X34053569Y-31898110D01*
X34002560Y-32150000D01*
X34002560Y-33447428D01*
X30902567Y-30347435D01*
X30862422Y-30320611D01*
X30534347Y-30101398D01*
X30100001Y-30015001D01*
X23959801Y-30015001D01*
X24809439Y-29165363D01*
X34564855Y-29165363D01*
X34691708Y-29472372D01*
X34926393Y-29707466D01*
X35233179Y-29834855D01*
X35565363Y-29835145D01*
X35872372Y-29708292D01*
X36107466Y-29473607D01*
X36234855Y-29166821D01*
X36235145Y-28834637D01*
X36108292Y-28527628D01*
X35873607Y-28292534D01*
X35566821Y-28165145D01*
X35234637Y-28164855D01*
X34927628Y-28291708D01*
X34692534Y-28526393D01*
X34565145Y-28833179D01*
X34564855Y-29165363D01*
X24809439Y-29165363D01*
X25695843Y-28278959D01*
X32451259Y-28278959D01*
X32578112Y-28585968D01*
X32812797Y-28821062D01*
X33119583Y-28948451D01*
X33451767Y-28948741D01*
X33758776Y-28821888D01*
X33993870Y-28587203D01*
X34121259Y-28280417D01*
X34121549Y-27948233D01*
X33994696Y-27641224D01*
X33760011Y-27406130D01*
X33453225Y-27278741D01*
X33121041Y-27278451D01*
X32814032Y-27405304D01*
X32578938Y-27639989D01*
X32451549Y-27946775D01*
X32451259Y-28278959D01*
X25695843Y-28278959D01*
X28393108Y-25581694D01*
X28637363Y-25480770D01*
X28879918Y-25238638D01*
X29011350Y-24922115D01*
X29011649Y-24579389D01*
X28880770Y-24262637D01*
X28638638Y-24020082D01*
X28322115Y-23888650D01*
X28142547Y-23888493D01*
X30052566Y-21978474D01*
X30298603Y-21610254D01*
X30304470Y-21580757D01*
X30385000Y-21175908D01*
X30385000Y-20560000D01*
X33790560Y-20560000D01*
X33790560Y-22062000D01*
X33790560Y-22062000D01*
G37*
X33790560Y-22062000D02*
X33834838Y-22297317D01*
X33973910Y-22513441D01*
X34186110Y-22658431D01*
X34438000Y-22709440D01*
X35962000Y-22709440D01*
X36197317Y-22665162D01*
X36290000Y-22605522D01*
X36290000Y-25414521D01*
X35992370Y-25116371D01*
X35479100Y-24903243D01*
X34923339Y-24902758D01*
X34409697Y-25114990D01*
X34016371Y-25507630D01*
X33803243Y-26020900D01*
X33802758Y-26576661D01*
X34014990Y-27090303D01*
X34407630Y-27483629D01*
X34920900Y-27696757D01*
X35476661Y-27697242D01*
X35990303Y-27485010D01*
X36290000Y-27185836D01*
X36290000Y-31502560D01*
X34650000Y-31502560D01*
X34414683Y-31546838D01*
X34198559Y-31685910D01*
X34053569Y-31898110D01*
X34002560Y-32150000D01*
X34002560Y-33447428D01*
X30902567Y-30347435D01*
X30862422Y-30320611D01*
X30534347Y-30101398D01*
X30100001Y-30015001D01*
X23959801Y-30015001D01*
X24809439Y-29165363D01*
X34564855Y-29165363D01*
X34691708Y-29472372D01*
X34926393Y-29707466D01*
X35233179Y-29834855D01*
X35565363Y-29835145D01*
X35872372Y-29708292D01*
X36107466Y-29473607D01*
X36234855Y-29166821D01*
X36235145Y-28834637D01*
X36108292Y-28527628D01*
X35873607Y-28292534D01*
X35566821Y-28165145D01*
X35234637Y-28164855D01*
X34927628Y-28291708D01*
X34692534Y-28526393D01*
X34565145Y-28833179D01*
X34564855Y-29165363D01*
X24809439Y-29165363D01*
X25695843Y-28278959D01*
X32451259Y-28278959D01*
X32578112Y-28585968D01*
X32812797Y-28821062D01*
X33119583Y-28948451D01*
X33451767Y-28948741D01*
X33758776Y-28821888D01*
X33993870Y-28587203D01*
X34121259Y-28280417D01*
X34121549Y-27948233D01*
X33994696Y-27641224D01*
X33760011Y-27406130D01*
X33453225Y-27278741D01*
X33121041Y-27278451D01*
X32814032Y-27405304D01*
X32578938Y-27639989D01*
X32451549Y-27946775D01*
X32451259Y-28278959D01*
X25695843Y-28278959D01*
X28393108Y-25581694D01*
X28637363Y-25480770D01*
X28879918Y-25238638D01*
X29011350Y-24922115D01*
X29011649Y-24579389D01*
X28880770Y-24262637D01*
X28638638Y-24020082D01*
X28322115Y-23888650D01*
X28142547Y-23888493D01*
X30052566Y-21978474D01*
X30298603Y-21610254D01*
X30304470Y-21580757D01*
X30385000Y-21175908D01*
X30385000Y-20560000D01*
X33790560Y-20560000D01*
X33790560Y-22062000D01*
G36*
X13991510Y-21677670D02*
X13890160Y-21921748D01*
X13889861Y-22264474D01*
X14020740Y-22581226D01*
X14262872Y-22823781D01*
X14579395Y-22955213D01*
X14652560Y-22955277D01*
X14652560Y-23200000D01*
X14696838Y-23435317D01*
X14700465Y-23440954D01*
X14417386Y-23724033D01*
X14417475Y-23622123D01*
X14290622Y-23315114D01*
X14055937Y-23080020D01*
X14035026Y-23071337D01*
X14035145Y-22934637D01*
X13908292Y-22627628D01*
X13673607Y-22392534D01*
X13366821Y-22265145D01*
X13034637Y-22264855D01*
X12852771Y-22340000D01*
X11567575Y-22340000D01*
X11634733Y-22178266D01*
X11635265Y-21567605D01*
X11549484Y-21360000D01*
X13667732Y-21360000D01*
X13958571Y-21302148D01*
X13991510Y-21280139D01*
X13991510Y-21677670D01*
X13991510Y-21677670D01*
G37*
X13991510Y-21677670D02*
X13890160Y-21921748D01*
X13889861Y-22264474D01*
X14020740Y-22581226D01*
X14262872Y-22823781D01*
X14579395Y-22955213D01*
X14652560Y-22955277D01*
X14652560Y-23200000D01*
X14696838Y-23435317D01*
X14700465Y-23440954D01*
X14417386Y-23724033D01*
X14417475Y-23622123D01*
X14290622Y-23315114D01*
X14055937Y-23080020D01*
X14035026Y-23071337D01*
X14035145Y-22934637D01*
X13908292Y-22627628D01*
X13673607Y-22392534D01*
X13366821Y-22265145D01*
X13034637Y-22264855D01*
X12852771Y-22340000D01*
X11567575Y-22340000D01*
X11634733Y-22178266D01*
X11635265Y-21567605D01*
X11549484Y-21360000D01*
X13667732Y-21360000D01*
X13958571Y-21302148D01*
X13991510Y-21280139D01*
X13991510Y-21677670D01*
G36*
X16608422Y-11479128D02*
X16607890Y-12089789D01*
X16841087Y-12654169D01*
X17272512Y-13086349D01*
X17836485Y-13320531D01*
X18447146Y-13321063D01*
X19011526Y-13087866D01*
X19443706Y-12656441D01*
X19677888Y-12092468D01*
X19678420Y-11481807D01*
X19597101Y-11285000D01*
X20892411Y-11285000D01*
X20854325Y-11300737D01*
X20422145Y-11732162D01*
X20187963Y-12296135D01*
X20187431Y-12906796D01*
X20420628Y-13471176D01*
X20852053Y-13903356D01*
X21389257Y-14126423D01*
X21388650Y-14127885D01*
X21388646Y-14132007D01*
X20584997Y-14132007D01*
X20294158Y-14189859D01*
X20047596Y-14354606D01*
X19958599Y-14443603D01*
X19958798Y-14215813D01*
X19831945Y-13908804D01*
X19597260Y-13673710D01*
X19290474Y-13546321D01*
X18958290Y-13546031D01*
X18651281Y-13672884D01*
X18416187Y-13907569D01*
X18340724Y-14089303D01*
X17787587Y-14642440D01*
X17622840Y-14889002D01*
X17564988Y-15179841D01*
X17564988Y-17443602D01*
X17536384Y-17455421D01*
X17473607Y-17392534D01*
X17166821Y-17265145D01*
X16834637Y-17264855D01*
X16652771Y-17340000D01*
X15200000Y-17340000D01*
X14909161Y-17397852D01*
X14662599Y-17562599D01*
X14065610Y-18159588D01*
X13900863Y-18406150D01*
X13843011Y-18696989D01*
X13843011Y-19349919D01*
X13352930Y-19840000D01*
X13086728Y-19840000D01*
X13331654Y-19738799D01*
X13566748Y-19504114D01*
X13694137Y-19197328D01*
X13694427Y-18865144D01*
X13567574Y-18558135D01*
X13332889Y-18323041D01*
X13151155Y-18247578D01*
X12566176Y-17662599D01*
X12319614Y-17497852D01*
X12028775Y-17440000D01*
X11446846Y-17440000D01*
X11402068Y-17331629D01*
X10970643Y-16899449D01*
X10406670Y-16665267D01*
X10266754Y-16665145D01*
X10308499Y-16455279D01*
X10308499Y-15560766D01*
X10390977Y-15760378D01*
X10822402Y-16192558D01*
X11386375Y-16426740D01*
X11997036Y-16427272D01*
X12123750Y-16374915D01*
X12302205Y-16494154D01*
X12593044Y-16552006D01*
X13179049Y-16552006D01*
X13258158Y-16584855D01*
X13590342Y-16585145D01*
X13897351Y-16458292D01*
X14132445Y-16223607D01*
X14259834Y-15916821D01*
X14260124Y-15584637D01*
X14133271Y-15277628D01*
X13898586Y-15042534D01*
X13591800Y-14915145D01*
X13259616Y-14914855D01*
X13228014Y-14927913D01*
X13228310Y-14588016D01*
X12995113Y-14023636D01*
X12563688Y-13591456D01*
X12328418Y-13493764D01*
X13028447Y-12793735D01*
X13028349Y-12906796D01*
X13261546Y-13471176D01*
X13692971Y-13903356D01*
X14256944Y-14137538D01*
X14867605Y-14138070D01*
X15431985Y-13904873D01*
X15864165Y-13473448D01*
X16098347Y-12909475D01*
X16098879Y-12298814D01*
X15865682Y-11734434D01*
X15434257Y-11302254D01*
X15392705Y-11285000D01*
X16689031Y-11285000D01*
X16608422Y-11479128D01*
X16608422Y-11479128D01*
G37*
X16608422Y-11479128D02*
X16607890Y-12089789D01*
X16841087Y-12654169D01*
X17272512Y-13086349D01*
X17836485Y-13320531D01*
X18447146Y-13321063D01*
X19011526Y-13087866D01*
X19443706Y-12656441D01*
X19677888Y-12092468D01*
X19678420Y-11481807D01*
X19597101Y-11285000D01*
X20892411Y-11285000D01*
X20854325Y-11300737D01*
X20422145Y-11732162D01*
X20187963Y-12296135D01*
X20187431Y-12906796D01*
X20420628Y-13471176D01*
X20852053Y-13903356D01*
X21389257Y-14126423D01*
X21388650Y-14127885D01*
X21388646Y-14132007D01*
X20584997Y-14132007D01*
X20294158Y-14189859D01*
X20047596Y-14354606D01*
X19958599Y-14443603D01*
X19958798Y-14215813D01*
X19831945Y-13908804D01*
X19597260Y-13673710D01*
X19290474Y-13546321D01*
X18958290Y-13546031D01*
X18651281Y-13672884D01*
X18416187Y-13907569D01*
X18340724Y-14089303D01*
X17787587Y-14642440D01*
X17622840Y-14889002D01*
X17564988Y-15179841D01*
X17564988Y-17443602D01*
X17536384Y-17455421D01*
X17473607Y-17392534D01*
X17166821Y-17265145D01*
X16834637Y-17264855D01*
X16652771Y-17340000D01*
X15200000Y-17340000D01*
X14909161Y-17397852D01*
X14662599Y-17562599D01*
X14065610Y-18159588D01*
X13900863Y-18406150D01*
X13843011Y-18696989D01*
X13843011Y-19349919D01*
X13352930Y-19840000D01*
X13086728Y-19840000D01*
X13331654Y-19738799D01*
X13566748Y-19504114D01*
X13694137Y-19197328D01*
X13694427Y-18865144D01*
X13567574Y-18558135D01*
X13332889Y-18323041D01*
X13151155Y-18247578D01*
X12566176Y-17662599D01*
X12319614Y-17497852D01*
X12028775Y-17440000D01*
X11446846Y-17440000D01*
X11402068Y-17331629D01*
X10970643Y-16899449D01*
X10406670Y-16665267D01*
X10266754Y-16665145D01*
X10308499Y-16455279D01*
X10308499Y-15560766D01*
X10390977Y-15760378D01*
X10822402Y-16192558D01*
X11386375Y-16426740D01*
X11997036Y-16427272D01*
X12123750Y-16374915D01*
X12302205Y-16494154D01*
X12593044Y-16552006D01*
X13179049Y-16552006D01*
X13258158Y-16584855D01*
X13590342Y-16585145D01*
X13897351Y-16458292D01*
X14132445Y-16223607D01*
X14259834Y-15916821D01*
X14260124Y-15584637D01*
X14133271Y-15277628D01*
X13898586Y-15042534D01*
X13591800Y-14915145D01*
X13259616Y-14914855D01*
X13228014Y-14927913D01*
X13228310Y-14588016D01*
X12995113Y-14023636D01*
X12563688Y-13591456D01*
X12328418Y-13493764D01*
X13028447Y-12793735D01*
X13028349Y-12906796D01*
X13261546Y-13471176D01*
X13692971Y-13903356D01*
X14256944Y-14137538D01*
X14867605Y-14138070D01*
X15431985Y-13904873D01*
X15864165Y-13473448D01*
X16098347Y-12909475D01*
X16098879Y-12298814D01*
X15865682Y-11734434D01*
X15434257Y-11302254D01*
X15392705Y-11285000D01*
X16689031Y-11285000D01*
X16608422Y-11479128D01*
G36*
X30162590Y-13487401D02*
X30409152Y-13652148D01*
X30699991Y-13710000D01*
X33740560Y-13710000D01*
X33740560Y-13712000D01*
X33784838Y-13947317D01*
X33923910Y-14163441D01*
X34136110Y-14308431D01*
X34388000Y-14359440D01*
X35912000Y-14359440D01*
X36147317Y-14315162D01*
X36290000Y-14223348D01*
X36290000Y-17114608D01*
X35942370Y-16766371D01*
X35429100Y-16553243D01*
X34873339Y-16552758D01*
X34359697Y-16764990D01*
X33966371Y-17157630D01*
X33753243Y-17670900D01*
X33752758Y-18226661D01*
X33964990Y-18740303D01*
X34264164Y-19040000D01*
X30385000Y-19040000D01*
X30385000Y-15543516D01*
X30298603Y-15109170D01*
X30084991Y-14789477D01*
X30084991Y-13409802D01*
X30162590Y-13487401D01*
X30162590Y-13487401D01*
G37*
X30162590Y-13487401D02*
X30409152Y-13652148D01*
X30699991Y-13710000D01*
X33740560Y-13710000D01*
X33740560Y-13712000D01*
X33784838Y-13947317D01*
X33923910Y-14163441D01*
X34136110Y-14308431D01*
X34388000Y-14359440D01*
X35912000Y-14359440D01*
X36147317Y-14315162D01*
X36290000Y-14223348D01*
X36290000Y-17114608D01*
X35942370Y-16766371D01*
X35429100Y-16553243D01*
X34873339Y-16552758D01*
X34359697Y-16764990D01*
X33966371Y-17157630D01*
X33753243Y-17670900D01*
X33752758Y-18226661D01*
X33964990Y-18740303D01*
X34264164Y-19040000D01*
X30385000Y-19040000D01*
X30385000Y-15543516D01*
X30298603Y-15109170D01*
X30084991Y-14789477D01*
X30084991Y-13409802D01*
X30162590Y-13487401D01*
G36*
X9711673Y-790301D02*
X9615000Y-1023690D01*
X9615000Y-1714250D01*
X9773750Y-1873000D01*
X10973000Y-1873000D01*
X10973000Y-1853000D01*
X11227000Y-1853000D01*
X11227000Y-1873000D01*
X12426250Y-1873000D01*
X12585000Y-1714250D01*
X12585000Y-1023690D01*
X12488327Y-790301D01*
X12408026Y-710000D01*
X34241974Y-710000D01*
X34161673Y-790301D01*
X34065000Y-1023690D01*
X34065000Y-1714250D01*
X34223750Y-1873000D01*
X35423000Y-1873000D01*
X35423000Y-1853000D01*
X35677000Y-1853000D01*
X35677000Y-1873000D01*
X35697000Y-1873000D01*
X35697000Y-2127000D01*
X35677000Y-2127000D01*
X35677000Y-3326250D01*
X35835750Y-3485000D01*
X36290000Y-3485000D01*
X36290000Y-3501583D01*
X12159438Y-3450567D01*
X12309698Y-3388327D01*
X12488327Y-3209699D01*
X12585000Y-2976310D01*
X12585000Y-2285750D01*
X34065000Y-2285750D01*
X34065000Y-2976310D01*
X34161673Y-3209699D01*
X34340302Y-3388327D01*
X34573691Y-3485000D01*
X35264250Y-3485000D01*
X35423000Y-3326250D01*
X35423000Y-2127000D01*
X34223750Y-2127000D01*
X34065000Y-2285750D01*
X12585000Y-2285750D01*
X12426250Y-2127000D01*
X11227000Y-2127000D01*
X11227000Y-2147000D01*
X10973000Y-2147000D01*
X10973000Y-2127000D01*
X9773750Y-2127000D01*
X9615000Y-2285750D01*
X9615000Y-2976310D01*
X9711673Y-3209699D01*
X9890302Y-3388327D01*
X10029692Y-3446064D01*
X8704668Y-3443263D01*
X8653895Y-710000D01*
X9791974Y-710000D01*
X9711673Y-790301D01*
X9711673Y-790301D01*
G37*
X9711673Y-790301D02*
X9615000Y-1023690D01*
X9615000Y-1714250D01*
X9773750Y-1873000D01*
X10973000Y-1873000D01*
X10973000Y-1853000D01*
X11227000Y-1853000D01*
X11227000Y-1873000D01*
X12426250Y-1873000D01*
X12585000Y-1714250D01*
X12585000Y-1023690D01*
X12488327Y-790301D01*
X12408026Y-710000D01*
X34241974Y-710000D01*
X34161673Y-790301D01*
X34065000Y-1023690D01*
X34065000Y-1714250D01*
X34223750Y-1873000D01*
X35423000Y-1873000D01*
X35423000Y-1853000D01*
X35677000Y-1853000D01*
X35677000Y-1873000D01*
X35697000Y-1873000D01*
X35697000Y-2127000D01*
X35677000Y-2127000D01*
X35677000Y-3326250D01*
X35835750Y-3485000D01*
X36290000Y-3485000D01*
X36290000Y-3501583D01*
X12159438Y-3450567D01*
X12309698Y-3388327D01*
X12488327Y-3209699D01*
X12585000Y-2976310D01*
X12585000Y-2285750D01*
X34065000Y-2285750D01*
X34065000Y-2976310D01*
X34161673Y-3209699D01*
X34340302Y-3388327D01*
X34573691Y-3485000D01*
X35264250Y-3485000D01*
X35423000Y-3326250D01*
X35423000Y-2127000D01*
X34223750Y-2127000D01*
X34065000Y-2285750D01*
X12585000Y-2285750D01*
X12426250Y-2127000D01*
X11227000Y-2127000D01*
X11227000Y-2147000D01*
X10973000Y-2147000D01*
X10973000Y-2127000D01*
X9773750Y-2127000D01*
X9615000Y-2285750D01*
X9615000Y-2976310D01*
X9711673Y-3209699D01*
X9890302Y-3388327D01*
X10029692Y-3446064D01*
X8704668Y-3443263D01*
X8653895Y-710000D01*
X9791974Y-710000D01*
X9711673Y-790301D01*
M02*
