%TF.GenerationSoftware,KiCad,Pcbnew,4.0.7*%
%TF.CreationDate,2017-11-16T21:01:15+08:00*%
%TF.ProjectId,finalRoundNixie,66696E616C526F756E644E697869652E,rev?*%
%TF.FileFunction,Copper,L1,Top,Signal*%
%FSLAX46Y46*%
G04 Gerber Fmt 4.6, Leading zero omitted, Abs format (unit mm)*
G04 Created by KiCad (PCBNEW 4.0.7) date 11/16/17 21:01:15*
%MOMM*%
%LPD*%
G01*
G04 APERTURE LIST*
%ADD10C,0.100000*%
%ADD11C,3.500000*%
%ADD12C,1.800000*%
%ADD13R,1.200000X1.200000*%
%ADD14R,1.700000X1.700000*%
%ADD15O,1.700000X1.700000*%
%ADD16R,1.524000X1.524000*%
%ADD17C,1.524000*%
%ADD18C,1.000000*%
%ADD19C,0.453000*%
%ADD20C,0.400000*%
%ADD21C,1.000000*%
%ADD22C,0.250000*%
%ADD23C,0.500000*%
%ADD24C,0.400000*%
%ADD25C,0.254000*%
G04 APERTURE END LIST*
D10*
D11*
X33300000Y-7700000D03*
X3500000Y-7700000D03*
X4700000Y-51900000D03*
X33030000Y-51900000D03*
D12*
X18143155Y-11785798D03*
X14563614Y-12602805D03*
X11693045Y-14892007D03*
X10100000Y-18200000D03*
X10100000Y-21871596D03*
X11693045Y-25179589D03*
X14563614Y-27468791D03*
X18143155Y-28285798D03*
X24593265Y-25179589D03*
X26186310Y-21871596D03*
X26186310Y-18200000D03*
X24593265Y-14892007D03*
X21722696Y-12602805D03*
D13*
X20250000Y-19350000D03*
X20250000Y-20950000D03*
X15850000Y-19350000D03*
X15850000Y-20950000D03*
X15850000Y-22550000D03*
X20250000Y-22550000D03*
D14*
X11100000Y-2000000D03*
X11100000Y-33000000D03*
D15*
X11100000Y-35540000D03*
X11100000Y-38080000D03*
X11100000Y-40620000D03*
X11100000Y-43160000D03*
X11100000Y-45700000D03*
D14*
X35550000Y-2000000D03*
X35500000Y-33000000D03*
D15*
X35500000Y-35540000D03*
X35500000Y-38080000D03*
X35500000Y-40620000D03*
X35500000Y-43160000D03*
X35500000Y-45700000D03*
D16*
X35200000Y-21300000D03*
D17*
X35200000Y-26300000D03*
D16*
X35150000Y-12950000D03*
D17*
X35150000Y-17950000D03*
D18*
X20095000Y-40720000D03*
X21890000Y-36010000D03*
X20200000Y-45900000D03*
D19*
X27135030Y-50135030D03*
X24725741Y-52234319D03*
X3850000Y-19750000D03*
X18610000Y-52930000D03*
X22780010Y-53868490D03*
X6160000Y-29300000D03*
X3090000Y-24380000D03*
D20*
X6925000Y-16700000D03*
X4625000Y-16600000D03*
X29525000Y-24975000D03*
X29500000Y-21650000D03*
X22000000Y-42950000D03*
X21110000Y-26460000D03*
X1650000Y-28719990D03*
D19*
X5790000Y-20720000D03*
X13330000Y-19850000D03*
X1590000Y-21123500D03*
X1600000Y-30740000D03*
D20*
X21254048Y-17159568D03*
X20425000Y-17988616D03*
X27900000Y-30075000D03*
X16775000Y-15025000D03*
X14800000Y-21825000D03*
X17375000Y-19699987D03*
X24100000Y-52050000D03*
X25916120Y-52977817D03*
X34240000Y-47050000D03*
X24850000Y-38450000D03*
X14240000Y-37660000D03*
X29000000Y-39350000D03*
D18*
X16450000Y-26050000D03*
X31910000Y-19650000D03*
X20170000Y-26050000D03*
D19*
X28840000Y-1975000D03*
X30110000Y-1975000D03*
X31380000Y-1975000D03*
X32650000Y-1975000D03*
X18680000Y-1975000D03*
X13600000Y-2000000D03*
X14870000Y-2000000D03*
X16200000Y-2000000D03*
X10620155Y-24399500D03*
X14070000Y-23720000D03*
X8830000Y-23280000D03*
X13570000Y-22510000D03*
X15298490Y-17344685D03*
X9850000Y-23300000D03*
X7850000Y-19080000D03*
X8850000Y-19680000D03*
D20*
X4475000Y-18950000D03*
X21668480Y-27730000D03*
X27850000Y-39450000D03*
X27849998Y-35300000D03*
X29044277Y-42530012D03*
X23845010Y-27697615D03*
X13273761Y-19023761D03*
X27140256Y-32054796D03*
X19540000Y-27070010D03*
X27200002Y-43200000D03*
X27200000Y-37050000D03*
X27207998Y-39424990D03*
X23845010Y-27097602D03*
X27636376Y-31701116D03*
X13850000Y-15750000D03*
X13730000Y-34360000D03*
X13560000Y-28680000D03*
X12555521Y-35027081D03*
X13600000Y-43700000D03*
X13550000Y-38700000D03*
X13053981Y-34669089D03*
X14025010Y-32299140D03*
X29300000Y-35900000D03*
X29010655Y-31516402D03*
X22998109Y-47720010D03*
X23170000Y-31690000D03*
D19*
X2425001Y-19771104D03*
X3050000Y-21150000D03*
D20*
X21481076Y-47720010D03*
X16990000Y-43230000D03*
X17490000Y-36690000D03*
X19140000Y-47120000D03*
X27180000Y-47280000D03*
X29920000Y-44050000D03*
X17000000Y-31980000D03*
X18140000Y-47230000D03*
X24225010Y-43270000D03*
X25130000Y-47030000D03*
X21911239Y-52258761D03*
X30910000Y-37590000D03*
X24242497Y-47573304D03*
X23700000Y-37650000D03*
D19*
X23230000Y-28870000D03*
X21520000Y-29140000D03*
X22850000Y-30040000D03*
X21124624Y-30062309D03*
D20*
X12280000Y-52890000D03*
X14025010Y-33090632D03*
X32350000Y-33400000D03*
X25450000Y-52600000D03*
D19*
X24026500Y-55100000D03*
D20*
X3570000Y-26360000D03*
X2361109Y-26230088D03*
X33799989Y-46430464D03*
X33970000Y-36120000D03*
X34040000Y-41860000D03*
X18800000Y-15525000D03*
X16650000Y-16450000D03*
D21*
X21890000Y-36010000D02*
X21890000Y-38925000D01*
X21890000Y-38925000D02*
X20095000Y-40720000D01*
X20095000Y-44855000D02*
X20095000Y-45795000D01*
X20095000Y-45795000D02*
X20200000Y-45900000D01*
X22000000Y-42950000D02*
X20095000Y-44855000D01*
X20095000Y-44855000D02*
X20095000Y-45100000D01*
D22*
X24725741Y-52234319D02*
X26825030Y-50135030D01*
X26825030Y-50135030D02*
X27135030Y-50135030D01*
X3850000Y-23620000D02*
X3850000Y-19750000D01*
X3090000Y-24380000D02*
X3850000Y-23620000D01*
X4625000Y-16600000D02*
X6825000Y-16600000D01*
X6825000Y-16600000D02*
X6925000Y-16700000D01*
D23*
X18610000Y-52930000D02*
X19548490Y-53868490D01*
X19548490Y-53868490D02*
X22780010Y-53868490D01*
D22*
X5510000Y-26800000D02*
X5510000Y-28650000D01*
X5510000Y-28650000D02*
X6160000Y-29300000D01*
X3090000Y-24380000D02*
X5510000Y-26800000D01*
D21*
X20250000Y-20950000D02*
X20250000Y-22550000D01*
X20250000Y-19350000D02*
X20250000Y-20950000D01*
X29525000Y-21957842D02*
X29525000Y-24975000D01*
D23*
X29500000Y-21650000D02*
X29500000Y-21932842D01*
D21*
X29500000Y-21932842D02*
X29525000Y-21957842D01*
X11100000Y-41075000D02*
X11100000Y-40630000D01*
D24*
X21392842Y-26460000D02*
X21110000Y-26460000D01*
X27900000Y-30075000D02*
X24285000Y-26460000D01*
X24285000Y-26460000D02*
X21392842Y-26460000D01*
D23*
X1600000Y-30740000D02*
X1650000Y-28719990D01*
X1650000Y-28719990D02*
X1600000Y-21133500D01*
D22*
X13330000Y-19850000D02*
X10308594Y-19850000D01*
X10308594Y-19850000D02*
X9438594Y-20720000D01*
X9438594Y-20720000D02*
X5790000Y-20720000D01*
D23*
X1600000Y-21133500D02*
X1590000Y-21123500D01*
D24*
X20425000Y-17988616D02*
X21254048Y-17159568D01*
D22*
X16775000Y-15025000D02*
X15850000Y-15950000D01*
X15850000Y-15950000D02*
X15850000Y-19350000D01*
X14800000Y-21825000D02*
X15675000Y-20950000D01*
X15675000Y-20950000D02*
X15850000Y-20950000D01*
X17375000Y-21875000D02*
X17375000Y-19982829D01*
X16700000Y-22550000D02*
X17375000Y-21875000D01*
X15850000Y-22550000D02*
X16700000Y-22550000D01*
X17375000Y-19982829D02*
X17375000Y-19699987D01*
X30450000Y-45700000D02*
X24100000Y-52050000D01*
X35500000Y-45700000D02*
X30450000Y-45700000D01*
X11100000Y-43160000D02*
X21117816Y-53177816D01*
X25716121Y-53177816D02*
X25916120Y-52977817D01*
X31843937Y-47050000D02*
X25916120Y-52977817D01*
X34240000Y-47050000D02*
X31843937Y-47050000D01*
X21117816Y-53177816D02*
X25716121Y-53177816D01*
X25132842Y-38450000D02*
X24850000Y-38450000D01*
X28100000Y-38450000D02*
X25132842Y-38450000D01*
X29000000Y-39350000D02*
X28100000Y-38450000D01*
X12620000Y-38080000D02*
X13060000Y-37640000D01*
X13060000Y-37640000D02*
X14220000Y-37640000D01*
X14220000Y-37640000D02*
X14240000Y-37660000D01*
X11100000Y-38080000D02*
X12620000Y-38080000D01*
D21*
X21250000Y-25138154D02*
X22888154Y-23500000D01*
X30085772Y-19650000D02*
X31202894Y-19650000D01*
X27950000Y-21785772D02*
X30085772Y-19650000D01*
X21081846Y-25138154D02*
X21250000Y-25138154D01*
X31202894Y-19650000D02*
X31910000Y-19650000D01*
X27950000Y-22475908D02*
X27950000Y-21785772D01*
X20170000Y-26050000D02*
X21081846Y-25138154D01*
X26925908Y-23500000D02*
X27950000Y-22475908D01*
X22888154Y-23500000D02*
X26925908Y-23500000D01*
X14563614Y-27468791D02*
X15982405Y-26050000D01*
X16167158Y-26050000D02*
X16450000Y-26050000D01*
X15982405Y-26050000D02*
X16167158Y-26050000D01*
X16200000Y-2000000D02*
X18655000Y-2000000D01*
X18655000Y-2000000D02*
X18680000Y-1975000D01*
X13600000Y-2000000D02*
X11100000Y-2000000D01*
X14870000Y-2000000D02*
X13600000Y-2000000D01*
X16200000Y-2000000D02*
X14870000Y-2000000D01*
X27100000Y-12900000D02*
X16200000Y-2000000D01*
X35150000Y-12950000D02*
X33388000Y-12950000D01*
X33388000Y-12950000D02*
X33338000Y-12900000D01*
X33338000Y-12900000D02*
X27100000Y-12900000D01*
D22*
X10660132Y-24399500D02*
X10620155Y-24399500D01*
X11339632Y-23720000D02*
X10660132Y-24399500D01*
X14070000Y-23720000D02*
X11339632Y-23720000D01*
X10573222Y-23850000D02*
X10300000Y-23850000D01*
X12920000Y-23160000D02*
X11263222Y-23160000D01*
X11263222Y-23160000D02*
X10573222Y-23850000D01*
X13570000Y-22510000D02*
X12920000Y-23160000D01*
X10300000Y-23850000D02*
X10298499Y-23851501D01*
X10298499Y-23851501D02*
X9401501Y-23851501D01*
X9401501Y-23851501D02*
X8830000Y-23280000D01*
X15071991Y-17571184D02*
X15298490Y-17344685D01*
X14549867Y-18093308D02*
X15071991Y-17571184D01*
X11360330Y-22709989D02*
X14549867Y-19520452D01*
X14549867Y-19520452D02*
X14549867Y-18093308D01*
X11003600Y-22709989D02*
X11360330Y-22709989D01*
X10413589Y-23300000D02*
X11003600Y-22709989D01*
X9850000Y-23300000D02*
X10413589Y-23300000D01*
X8850000Y-19680000D02*
X8450000Y-19680000D01*
X8450000Y-19680000D02*
X7850000Y-19080000D01*
X4475000Y-18950000D02*
X4674999Y-19149999D01*
X4674999Y-19149999D02*
X4674999Y-20421223D01*
X4674999Y-20421223D02*
X6125372Y-21871596D01*
X6125372Y-21871596D02*
X10100000Y-21871596D01*
X21700865Y-27697615D02*
X21668480Y-27730000D01*
X23845010Y-27697615D02*
X21700865Y-27697615D01*
X28049999Y-39649999D02*
X27850000Y-39450000D01*
X29044277Y-40644277D02*
X28049999Y-39649999D01*
X29044277Y-42530012D02*
X29044277Y-40644277D01*
X27849998Y-35017158D02*
X27849998Y-35300000D01*
X27140256Y-32054796D02*
X27849998Y-32764538D01*
X27849998Y-32764538D02*
X27849998Y-35017158D01*
X12450000Y-18200000D02*
X13273761Y-19023761D01*
X10100000Y-18200000D02*
X12450000Y-18200000D01*
X23845010Y-27097602D02*
X19567592Y-27097602D01*
X19567592Y-27097602D02*
X19540000Y-27070010D01*
X27207998Y-39424990D02*
X27207998Y-43192004D01*
X27207998Y-43192004D02*
X27200002Y-43200000D01*
X28475001Y-35774999D02*
X27399999Y-36850001D01*
X27636376Y-31701116D02*
X28475001Y-32539741D01*
X28475001Y-32539741D02*
X28475001Y-35774999D01*
X27399999Y-36850001D02*
X27200000Y-37050000D01*
X13850000Y-15750000D02*
X12551038Y-15750000D01*
X12551038Y-15750000D02*
X11693045Y-14892007D01*
X13530001Y-34160001D02*
X13730000Y-34360000D01*
X13360001Y-28879999D02*
X13360001Y-33990001D01*
X13560000Y-28680000D02*
X13360001Y-28879999D01*
X13360001Y-33990001D02*
X13530001Y-34160001D01*
X22000000Y-13080109D02*
X21522696Y-12602805D01*
X12355522Y-34827082D02*
X12555521Y-35027081D01*
X12355522Y-26546480D02*
X12355522Y-34827082D01*
X15427001Y-23475001D02*
X12355522Y-26546480D01*
X19324999Y-18346140D02*
X19324999Y-20860003D01*
X16710000Y-23475001D02*
X15427001Y-23475001D01*
X19324999Y-20860003D02*
X16710000Y-23475001D01*
X22779132Y-14892007D02*
X19324999Y-18346140D01*
X24593265Y-14892007D02*
X22779132Y-14892007D01*
X13550000Y-43650000D02*
X13600000Y-43700000D01*
X13550000Y-38700000D02*
X13550000Y-43650000D01*
X16146391Y-23925012D02*
X12853982Y-27217421D01*
X20061607Y-23674978D02*
X19811573Y-23925012D01*
X26186310Y-18200000D02*
X25286311Y-19099999D01*
X25286311Y-19210538D02*
X20821871Y-23674978D01*
X12853982Y-34469090D02*
X13053981Y-34669089D01*
X25286311Y-19099999D02*
X25286311Y-19210538D01*
X12853982Y-27217421D02*
X12853982Y-34469090D01*
X19811573Y-23925012D02*
X16146391Y-23925012D01*
X20821871Y-23674978D02*
X20061607Y-23674978D01*
X14025010Y-32016298D02*
X14025010Y-32299140D01*
X21096425Y-24124989D02*
X20248007Y-24124989D01*
X20248007Y-24124989D02*
X14025010Y-30347986D01*
X23349818Y-21871596D02*
X21096425Y-24124989D01*
X26186310Y-21871596D02*
X23349818Y-21871596D01*
X14025010Y-30347986D02*
X14025010Y-32016298D01*
X29100001Y-35700001D02*
X29300000Y-35900000D01*
X29010655Y-35610655D02*
X29100001Y-35700001D01*
X29010655Y-31516402D02*
X29010655Y-35610655D01*
X23170000Y-31690000D02*
X23170000Y-47548119D01*
X23170000Y-47548119D02*
X22998109Y-47720010D01*
X3050000Y-21150000D02*
X3050000Y-20396103D01*
X3050000Y-20396103D02*
X2425001Y-19771104D01*
X21198234Y-47720010D02*
X21481076Y-47720010D01*
X16990000Y-44153186D02*
X20556824Y-47720010D01*
X20556824Y-47720010D02*
X21198234Y-47720010D01*
X16990000Y-43230000D02*
X16990000Y-44153186D01*
X17615013Y-37291598D02*
X17615013Y-36815013D01*
X17615013Y-36815013D02*
X17490000Y-36690000D01*
X17615013Y-38208402D02*
X17615013Y-37291598D01*
X15930000Y-39893415D02*
X17615013Y-38208402D01*
X19140000Y-47120000D02*
X15930000Y-43910000D01*
X15930000Y-43910000D02*
X15930000Y-39893415D01*
X29920000Y-44050000D02*
X29920000Y-44540000D01*
X29920000Y-44540000D02*
X27180000Y-47280000D01*
X18140000Y-47230000D02*
X15404998Y-44494998D01*
X15404998Y-44494998D02*
X15404998Y-39782006D01*
X16800001Y-32179999D02*
X17000000Y-31980000D01*
X15404998Y-39782006D02*
X15880000Y-39307004D01*
X15880000Y-39307004D02*
X15880000Y-37264945D01*
X15880000Y-37264945D02*
X15395055Y-36780000D01*
X15395055Y-36780000D02*
X15395055Y-33584945D01*
X15395055Y-33584945D02*
X16800001Y-32179999D01*
X24225010Y-46125010D02*
X24225010Y-43270000D01*
X25130000Y-47030000D02*
X24225010Y-46125010D01*
X22974081Y-52258761D02*
X21911239Y-52258761D01*
X30910000Y-37590000D02*
X30910000Y-44322842D01*
X30910000Y-44322842D02*
X22974081Y-52258761D01*
X23700000Y-47030807D02*
X24042498Y-47373305D01*
X23700000Y-37650000D02*
X23700000Y-47030807D01*
X24042498Y-47373305D02*
X24242497Y-47573304D01*
X21520000Y-29140000D02*
X22960000Y-29140000D01*
X22960000Y-29140000D02*
X23230000Y-28870000D01*
X21124624Y-30062309D02*
X22827691Y-30062309D01*
X22827691Y-30062309D02*
X22850000Y-30040000D01*
D24*
X14307852Y-33090632D02*
X14025010Y-33090632D01*
X28595595Y-30916401D02*
X28511996Y-31000000D01*
X28511996Y-31000000D02*
X16398484Y-31000000D01*
X29866401Y-30916401D02*
X28595595Y-30916401D01*
X32350000Y-33400000D02*
X29866401Y-30916401D01*
X16398484Y-31000000D02*
X14307852Y-33090632D01*
D23*
X12280000Y-52890000D02*
X9400000Y-50010000D01*
X9400000Y-50010000D02*
X9400000Y-37240000D01*
X9400000Y-37240000D02*
X11100000Y-35540000D01*
D24*
X34640000Y-35690000D02*
X35550000Y-35690000D01*
X32350000Y-33400000D02*
X34640000Y-35690000D01*
D22*
X31619536Y-46430464D02*
X25450000Y-52600000D01*
X33799989Y-46430464D02*
X31619536Y-46430464D01*
X8360000Y-50030000D02*
X13430000Y-55100000D01*
X13430000Y-55100000D02*
X24026500Y-55100000D01*
X8360000Y-34640000D02*
X8360000Y-50030000D01*
X11100000Y-33000000D02*
X10000000Y-33000000D01*
X10000000Y-33000000D02*
X8360000Y-34640000D01*
X3440088Y-26230088D02*
X3570000Y-26360000D01*
X2361109Y-26230088D02*
X3440088Y-26230088D01*
X34040000Y-41860000D02*
X34040000Y-36190000D01*
X34040000Y-36190000D02*
X33970000Y-36120000D01*
X16650000Y-16450000D02*
X17575000Y-15525000D01*
X17575000Y-15525000D02*
X18800000Y-15525000D01*
D25*
G36*
X26297434Y-13702566D02*
X26665654Y-13948603D01*
X27100000Y-14035000D01*
X33136631Y-14035000D01*
X33388000Y-14085000D01*
X33873435Y-14085000D01*
X33923910Y-14163441D01*
X34136110Y-14308431D01*
X34388000Y-14359440D01*
X35912000Y-14359440D01*
X36147317Y-14315162D01*
X36290000Y-14223348D01*
X36290000Y-17114608D01*
X35942370Y-16766371D01*
X35429100Y-16553243D01*
X34873339Y-16552758D01*
X34359697Y-16764990D01*
X33966371Y-17157630D01*
X33753243Y-17670900D01*
X33752758Y-18226661D01*
X33964990Y-18740303D01*
X34357630Y-19133629D01*
X34870900Y-19346757D01*
X35426661Y-19347242D01*
X35940303Y-19135010D01*
X36290000Y-18785923D01*
X36290000Y-19993573D01*
X36213890Y-19941569D01*
X35962000Y-19890560D01*
X34438000Y-19890560D01*
X34202683Y-19934838D01*
X33986559Y-20073910D01*
X33841569Y-20286110D01*
X33790560Y-20538000D01*
X33790560Y-22062000D01*
X33834838Y-22297317D01*
X33973910Y-22513441D01*
X34186110Y-22658431D01*
X34438000Y-22709440D01*
X35962000Y-22709440D01*
X36197317Y-22665162D01*
X36290000Y-22605522D01*
X36290000Y-25414521D01*
X35992370Y-25116371D01*
X35479100Y-24903243D01*
X34923339Y-24902758D01*
X34409697Y-25114990D01*
X34016371Y-25507630D01*
X33803243Y-26020900D01*
X33802758Y-26576661D01*
X34014990Y-27090303D01*
X34407630Y-27483629D01*
X34920900Y-27696757D01*
X35476661Y-27697242D01*
X35990303Y-27485010D01*
X36290000Y-27185836D01*
X36290000Y-31502560D01*
X34650000Y-31502560D01*
X34414683Y-31546838D01*
X34198559Y-31685910D01*
X34053569Y-31898110D01*
X34002560Y-32150000D01*
X34002560Y-33850000D01*
X34007588Y-33876720D01*
X32941236Y-32810368D01*
X32823607Y-32692534D01*
X32823256Y-32692388D01*
X30456835Y-30325967D01*
X30347089Y-30252637D01*
X30185942Y-30144962D01*
X29866401Y-30081401D01*
X28734995Y-30081401D01*
X28735145Y-29909637D01*
X28608292Y-29602628D01*
X28373607Y-29367534D01*
X28373256Y-29367388D01*
X25474592Y-26468724D01*
X25893816Y-26050232D01*
X26127998Y-25486259D01*
X26128530Y-24875598D01*
X26029117Y-24635000D01*
X26925908Y-24635000D01*
X27360254Y-24548603D01*
X27728474Y-24302566D01*
X28752566Y-23278474D01*
X28822598Y-23173664D01*
X28998603Y-22910254D01*
X29085000Y-22475908D01*
X29085000Y-22255904D01*
X30555904Y-20785000D01*
X31909009Y-20785000D01*
X32134775Y-20785197D01*
X32552086Y-20612767D01*
X32871645Y-20293765D01*
X33044803Y-19876756D01*
X33045197Y-19425225D01*
X32872767Y-19007914D01*
X32553765Y-18688355D01*
X32136756Y-18515197D01*
X31685225Y-18514803D01*
X31684748Y-18515000D01*
X30085772Y-18515000D01*
X29651426Y-18601397D01*
X29340487Y-18809160D01*
X29283206Y-18847434D01*
X27308054Y-20822586D01*
X27056953Y-20571045D01*
X26492980Y-20336863D01*
X25882319Y-20336331D01*
X25317939Y-20569528D01*
X24885759Y-21000953D01*
X24839816Y-21111596D01*
X24460055Y-21111596D01*
X25823712Y-19747939D01*
X25842767Y-19719422D01*
X25879640Y-19734733D01*
X26490301Y-19735265D01*
X27054681Y-19502068D01*
X27486861Y-19070643D01*
X27721043Y-18506670D01*
X27721575Y-17896009D01*
X27488378Y-17331629D01*
X27056953Y-16899449D01*
X26492980Y-16665267D01*
X25882319Y-16664735D01*
X25317939Y-16897932D01*
X24885759Y-17329357D01*
X24651577Y-17893330D01*
X24651045Y-18503991D01*
X24703402Y-18630705D01*
X24584163Y-18809160D01*
X24577031Y-18845016D01*
X21485000Y-21937047D01*
X21485000Y-21823690D01*
X21454477Y-21750000D01*
X21485000Y-21676310D01*
X21485000Y-21235750D01*
X21326250Y-21077000D01*
X20377000Y-21077000D01*
X20377000Y-22423000D01*
X20397000Y-22423000D01*
X20397000Y-22677000D01*
X20377000Y-22677000D01*
X20377000Y-22697000D01*
X20123000Y-22697000D01*
X20123000Y-22677000D01*
X19173750Y-22677000D01*
X19015000Y-22835750D01*
X19015000Y-23165012D01*
X18094791Y-23165012D01*
X19015000Y-22244804D01*
X19015000Y-22264250D01*
X19173750Y-22423000D01*
X20123000Y-22423000D01*
X20123000Y-21077000D01*
X20103000Y-21077000D01*
X20103000Y-20823000D01*
X20123000Y-20823000D01*
X20123000Y-19477000D01*
X20377000Y-19477000D01*
X20377000Y-20823000D01*
X21326250Y-20823000D01*
X21485000Y-20664250D01*
X21485000Y-20223690D01*
X21454477Y-20150000D01*
X21485000Y-20076310D01*
X21485000Y-19635750D01*
X21326250Y-19477000D01*
X20377000Y-19477000D01*
X20123000Y-19477000D01*
X20103000Y-19477000D01*
X20103000Y-19223000D01*
X20123000Y-19223000D01*
X20123000Y-19203000D01*
X20377000Y-19203000D01*
X20377000Y-19223000D01*
X21326250Y-19223000D01*
X21485000Y-19064250D01*
X21485000Y-18623690D01*
X21388327Y-18390301D01*
X21296255Y-18298229D01*
X21843680Y-17750804D01*
X21961514Y-17633175D01*
X22088903Y-17326389D01*
X22089193Y-16994205D01*
X21990527Y-16755414D01*
X23093934Y-15652007D01*
X23246419Y-15652007D01*
X23291197Y-15760378D01*
X23722622Y-16192558D01*
X24286595Y-16426740D01*
X24897256Y-16427272D01*
X25461636Y-16194075D01*
X25893816Y-15762650D01*
X26127998Y-15198677D01*
X26128530Y-14588016D01*
X25895333Y-14023636D01*
X25463908Y-13591456D01*
X24899935Y-13357274D01*
X24289274Y-13356742D01*
X23724894Y-13589939D01*
X23292714Y-14021364D01*
X23246771Y-14132007D01*
X22779132Y-14132007D01*
X22488293Y-14189859D01*
X22241731Y-14354606D01*
X18787598Y-17808739D01*
X18622851Y-18055301D01*
X18564999Y-18346140D01*
X18564999Y-20545201D01*
X18135000Y-20975200D01*
X18135000Y-20047078D01*
X18209855Y-19866808D01*
X18210145Y-19534624D01*
X18083292Y-19227615D01*
X17848607Y-18992521D01*
X17541821Y-18865132D01*
X17209637Y-18864842D01*
X17097440Y-18911201D01*
X17097440Y-18750000D01*
X17053162Y-18514683D01*
X16914090Y-18298559D01*
X16701890Y-18153569D01*
X16610000Y-18134961D01*
X16610000Y-17284966D01*
X16815363Y-17285145D01*
X17122372Y-17158292D01*
X17357466Y-16923607D01*
X17432929Y-16741873D01*
X17889802Y-16285000D01*
X18452909Y-16285000D01*
X18633179Y-16359855D01*
X18965363Y-16360145D01*
X19272372Y-16233292D01*
X19507466Y-15998607D01*
X19634855Y-15691821D01*
X19635145Y-15359637D01*
X19508292Y-15052628D01*
X19273607Y-14817534D01*
X18966821Y-14690145D01*
X18634637Y-14689855D01*
X18452771Y-14765000D01*
X17575000Y-14765000D01*
X17571343Y-14765728D01*
X17483292Y-14552628D01*
X17248607Y-14317534D01*
X16941821Y-14190145D01*
X16609637Y-14189855D01*
X16302628Y-14316708D01*
X16067534Y-14551393D01*
X15992071Y-14733127D01*
X15312599Y-15412599D01*
X15147852Y-15659161D01*
X15090000Y-15950000D01*
X15090000Y-16498687D01*
X14811127Y-16613915D01*
X14568572Y-16856047D01*
X14466493Y-17101880D01*
X14012466Y-17555907D01*
X13847719Y-17802469D01*
X13789867Y-18093308D01*
X13789867Y-18358868D01*
X13747368Y-18316295D01*
X13565634Y-18240832D01*
X12987401Y-17662599D01*
X12740839Y-17497852D01*
X12450000Y-17440000D01*
X11446846Y-17440000D01*
X11402068Y-17331629D01*
X10970643Y-16899449D01*
X10406670Y-16665267D01*
X9796009Y-16664735D01*
X9231629Y-16897932D01*
X8799449Y-17329357D01*
X8565267Y-17893330D01*
X8564735Y-18503991D01*
X8694631Y-18818364D01*
X8679389Y-18818351D01*
X8674814Y-18820241D01*
X8580770Y-18592637D01*
X8338638Y-18350082D01*
X8022115Y-18218650D01*
X7679389Y-18218351D01*
X7362637Y-18349230D01*
X7120082Y-18591362D01*
X6988650Y-18907885D01*
X6988351Y-19250611D01*
X7119230Y-19567363D01*
X7361362Y-19809918D01*
X7607195Y-19911997D01*
X7655198Y-19960000D01*
X6206193Y-19960000D01*
X5962115Y-19858650D01*
X5619389Y-19858351D01*
X5434999Y-19934539D01*
X5434999Y-19149999D01*
X5413185Y-19040334D01*
X5377147Y-18859159D01*
X5282261Y-18717152D01*
X5183292Y-18477628D01*
X4948607Y-18242534D01*
X4641821Y-18115145D01*
X4309637Y-18114855D01*
X4002628Y-18241708D01*
X3767534Y-18476393D01*
X3640145Y-18783179D01*
X3639855Y-19115363D01*
X3766708Y-19422372D01*
X3914999Y-19570921D01*
X3914999Y-20421223D01*
X3972851Y-20712062D01*
X4137598Y-20958624D01*
X5587971Y-22408997D01*
X5834532Y-22573744D01*
X6125372Y-22631596D01*
X8260127Y-22631596D01*
X8100082Y-22791362D01*
X7968650Y-23107885D01*
X7968351Y-23450611D01*
X8099230Y-23767363D01*
X8341362Y-24009918D01*
X8587195Y-24111997D01*
X8864100Y-24388902D01*
X9110661Y-24553649D01*
X9158915Y-24563247D01*
X9401501Y-24611501D01*
X9775608Y-24611501D01*
X9889385Y-24886863D01*
X10131517Y-25129418D01*
X10158079Y-25140447D01*
X10157780Y-25483580D01*
X10390977Y-26047960D01*
X10822402Y-26480140D01*
X11386375Y-26714322D01*
X11595522Y-26714504D01*
X11595522Y-31502560D01*
X10250000Y-31502560D01*
X10014683Y-31546838D01*
X9798559Y-31685910D01*
X9653569Y-31898110D01*
X9602560Y-32150000D01*
X9602560Y-32369080D01*
X9462599Y-32462599D01*
X7822599Y-34102599D01*
X7657852Y-34349161D01*
X7600000Y-34640000D01*
X7600000Y-50030000D01*
X7657852Y-50320839D01*
X7822599Y-50567401D01*
X12568198Y-55313000D01*
X1056198Y-55313000D01*
X1037590Y-52372325D01*
X2314587Y-52372325D01*
X2676916Y-53249229D01*
X3347242Y-53920726D01*
X4223513Y-54284585D01*
X5172325Y-54285413D01*
X6049229Y-53923084D01*
X6720726Y-53252758D01*
X7084585Y-52376487D01*
X7085413Y-51427675D01*
X6723084Y-50550771D01*
X6052758Y-49879274D01*
X5176487Y-49515415D01*
X4227675Y-49514587D01*
X3350771Y-49876916D01*
X2679274Y-50547242D01*
X2315415Y-51423513D01*
X2314587Y-52372325D01*
X1037590Y-52372325D01*
X904015Y-31263374D01*
X958917Y-31350113D01*
X1069651Y-31428134D01*
X1111362Y-31469918D01*
X1154201Y-31487706D01*
X1241197Y-31549002D01*
X1373357Y-31578708D01*
X1427885Y-31601350D01*
X1474270Y-31601390D01*
X1578101Y-31624729D01*
X1711571Y-31601597D01*
X1770611Y-31601649D01*
X1813480Y-31583936D01*
X1918339Y-31565763D01*
X2032797Y-31493316D01*
X2087363Y-31470770D01*
X2120190Y-31438000D01*
X2210113Y-31381083D01*
X2288134Y-31270349D01*
X2329918Y-31228638D01*
X2347706Y-31185799D01*
X2409002Y-31098803D01*
X2438708Y-30966643D01*
X2461350Y-30912115D01*
X2461390Y-30865730D01*
X2484729Y-30761899D01*
X2534729Y-28741889D01*
X2532322Y-28728001D01*
X2534981Y-28714158D01*
X2524113Y-27065231D01*
X2526472Y-27065233D01*
X2708338Y-26990088D01*
X3019150Y-26990088D01*
X3096393Y-27067466D01*
X3403179Y-27194855D01*
X3735363Y-27195145D01*
X4042372Y-27068292D01*
X4277466Y-26833607D01*
X4404855Y-26526821D01*
X4405145Y-26194637D01*
X4278292Y-25887628D01*
X4043607Y-25652534D01*
X3736821Y-25525145D01*
X3716788Y-25525128D01*
X3440088Y-25470088D01*
X2708200Y-25470088D01*
X2527930Y-25395233D01*
X2513107Y-25395220D01*
X2489464Y-21807895D01*
X2561362Y-21879918D01*
X2877885Y-22011350D01*
X3220611Y-22011649D01*
X3537363Y-21880770D01*
X3779918Y-21638638D01*
X3911350Y-21322115D01*
X3911649Y-20979389D01*
X3810000Y-20733379D01*
X3810000Y-20396103D01*
X3752148Y-20105264D01*
X3587401Y-19858702D01*
X3256695Y-19527996D01*
X3155771Y-19283741D01*
X2913639Y-19041186D01*
X2597116Y-18909754D01*
X2254390Y-18909455D01*
X1937638Y-19040334D01*
X1695083Y-19282466D01*
X1563651Y-19598989D01*
X1563352Y-19941715D01*
X1694231Y-20258467D01*
X1695184Y-20259422D01*
X1590000Y-20238499D01*
X1472372Y-20261897D01*
X1419389Y-20261851D01*
X1369988Y-20282263D01*
X1251326Y-20305867D01*
X1151609Y-20372495D01*
X1102637Y-20392730D01*
X1064808Y-20430494D01*
X964210Y-20497710D01*
X897581Y-20597429D01*
X860082Y-20634862D01*
X839583Y-20684230D01*
X837096Y-20687953D01*
X802344Y-15195998D01*
X10157780Y-15195998D01*
X10390977Y-15760378D01*
X10822402Y-16192558D01*
X11386375Y-16426740D01*
X11997036Y-16427272D01*
X12136640Y-16369589D01*
X12260198Y-16452148D01*
X12551038Y-16510000D01*
X13502909Y-16510000D01*
X13683179Y-16584855D01*
X14015363Y-16585145D01*
X14322372Y-16458292D01*
X14557466Y-16223607D01*
X14684855Y-15916821D01*
X14685145Y-15584637D01*
X14558292Y-15277628D01*
X14323607Y-15042534D01*
X14016821Y-14915145D01*
X13684637Y-14914855D01*
X13502771Y-14990000D01*
X13227960Y-14990000D01*
X13228310Y-14588016D01*
X12995113Y-14023636D01*
X12563688Y-13591456D01*
X11999715Y-13357274D01*
X11389054Y-13356742D01*
X10824674Y-13589939D01*
X10392494Y-14021364D01*
X10158312Y-14585337D01*
X10157780Y-15195998D01*
X802344Y-15195998D01*
X787859Y-12906796D01*
X13028349Y-12906796D01*
X13261546Y-13471176D01*
X13692971Y-13903356D01*
X14256944Y-14137538D01*
X14867605Y-14138070D01*
X15431985Y-13904873D01*
X15864165Y-13473448D01*
X16098347Y-12909475D01*
X16098879Y-12298814D01*
X16012512Y-12089789D01*
X16607890Y-12089789D01*
X16841087Y-12654169D01*
X17272512Y-13086349D01*
X17836485Y-13320531D01*
X18447146Y-13321063D01*
X19011526Y-13087866D01*
X19192912Y-12906796D01*
X20187431Y-12906796D01*
X20420628Y-13471176D01*
X20852053Y-13903356D01*
X21416026Y-14137538D01*
X22026687Y-14138070D01*
X22591067Y-13904873D01*
X23023247Y-13473448D01*
X23257429Y-12909475D01*
X23257961Y-12298814D01*
X23024764Y-11734434D01*
X22593339Y-11302254D01*
X22029366Y-11068072D01*
X21418705Y-11067540D01*
X20854325Y-11300737D01*
X20422145Y-11732162D01*
X20187963Y-12296135D01*
X20187431Y-12906796D01*
X19192912Y-12906796D01*
X19443706Y-12656441D01*
X19677888Y-12092468D01*
X19678420Y-11481807D01*
X19445223Y-10917427D01*
X19013798Y-10485247D01*
X18449825Y-10251065D01*
X17839164Y-10250533D01*
X17274784Y-10483730D01*
X16842604Y-10915155D01*
X16608422Y-11479128D01*
X16607890Y-12089789D01*
X16012512Y-12089789D01*
X15865682Y-11734434D01*
X15434257Y-11302254D01*
X14870284Y-11068072D01*
X14259623Y-11067540D01*
X13695243Y-11300737D01*
X13263063Y-11732162D01*
X13028881Y-12296135D01*
X13028349Y-12906796D01*
X787859Y-12906796D01*
X757899Y-8172325D01*
X1114587Y-8172325D01*
X1476916Y-9049229D01*
X2147242Y-9720726D01*
X3023513Y-10084585D01*
X3972325Y-10085413D01*
X4849229Y-9723084D01*
X5520726Y-9052758D01*
X5884585Y-8176487D01*
X5885413Y-7227675D01*
X5523084Y-6350771D01*
X4852758Y-5679274D01*
X3976487Y-5315415D01*
X3027675Y-5314587D01*
X2150771Y-5676916D01*
X1479274Y-6347242D01*
X1115415Y-7223513D01*
X1114587Y-8172325D01*
X757899Y-8172325D01*
X738628Y-5127000D01*
X17721868Y-5127000D01*
X26297434Y-13702566D01*
X26297434Y-13702566D01*
G37*
X26297434Y-13702566D02*
X26665654Y-13948603D01*
X27100000Y-14035000D01*
X33136631Y-14035000D01*
X33388000Y-14085000D01*
X33873435Y-14085000D01*
X33923910Y-14163441D01*
X34136110Y-14308431D01*
X34388000Y-14359440D01*
X35912000Y-14359440D01*
X36147317Y-14315162D01*
X36290000Y-14223348D01*
X36290000Y-17114608D01*
X35942370Y-16766371D01*
X35429100Y-16553243D01*
X34873339Y-16552758D01*
X34359697Y-16764990D01*
X33966371Y-17157630D01*
X33753243Y-17670900D01*
X33752758Y-18226661D01*
X33964990Y-18740303D01*
X34357630Y-19133629D01*
X34870900Y-19346757D01*
X35426661Y-19347242D01*
X35940303Y-19135010D01*
X36290000Y-18785923D01*
X36290000Y-19993573D01*
X36213890Y-19941569D01*
X35962000Y-19890560D01*
X34438000Y-19890560D01*
X34202683Y-19934838D01*
X33986559Y-20073910D01*
X33841569Y-20286110D01*
X33790560Y-20538000D01*
X33790560Y-22062000D01*
X33834838Y-22297317D01*
X33973910Y-22513441D01*
X34186110Y-22658431D01*
X34438000Y-22709440D01*
X35962000Y-22709440D01*
X36197317Y-22665162D01*
X36290000Y-22605522D01*
X36290000Y-25414521D01*
X35992370Y-25116371D01*
X35479100Y-24903243D01*
X34923339Y-24902758D01*
X34409697Y-25114990D01*
X34016371Y-25507630D01*
X33803243Y-26020900D01*
X33802758Y-26576661D01*
X34014990Y-27090303D01*
X34407630Y-27483629D01*
X34920900Y-27696757D01*
X35476661Y-27697242D01*
X35990303Y-27485010D01*
X36290000Y-27185836D01*
X36290000Y-31502560D01*
X34650000Y-31502560D01*
X34414683Y-31546838D01*
X34198559Y-31685910D01*
X34053569Y-31898110D01*
X34002560Y-32150000D01*
X34002560Y-33850000D01*
X34007588Y-33876720D01*
X32941236Y-32810368D01*
X32823607Y-32692534D01*
X32823256Y-32692388D01*
X30456835Y-30325967D01*
X30347089Y-30252637D01*
X30185942Y-30144962D01*
X29866401Y-30081401D01*
X28734995Y-30081401D01*
X28735145Y-29909637D01*
X28608292Y-29602628D01*
X28373607Y-29367534D01*
X28373256Y-29367388D01*
X25474592Y-26468724D01*
X25893816Y-26050232D01*
X26127998Y-25486259D01*
X26128530Y-24875598D01*
X26029117Y-24635000D01*
X26925908Y-24635000D01*
X27360254Y-24548603D01*
X27728474Y-24302566D01*
X28752566Y-23278474D01*
X28822598Y-23173664D01*
X28998603Y-22910254D01*
X29085000Y-22475908D01*
X29085000Y-22255904D01*
X30555904Y-20785000D01*
X31909009Y-20785000D01*
X32134775Y-20785197D01*
X32552086Y-20612767D01*
X32871645Y-20293765D01*
X33044803Y-19876756D01*
X33045197Y-19425225D01*
X32872767Y-19007914D01*
X32553765Y-18688355D01*
X32136756Y-18515197D01*
X31685225Y-18514803D01*
X31684748Y-18515000D01*
X30085772Y-18515000D01*
X29651426Y-18601397D01*
X29340487Y-18809160D01*
X29283206Y-18847434D01*
X27308054Y-20822586D01*
X27056953Y-20571045D01*
X26492980Y-20336863D01*
X25882319Y-20336331D01*
X25317939Y-20569528D01*
X24885759Y-21000953D01*
X24839816Y-21111596D01*
X24460055Y-21111596D01*
X25823712Y-19747939D01*
X25842767Y-19719422D01*
X25879640Y-19734733D01*
X26490301Y-19735265D01*
X27054681Y-19502068D01*
X27486861Y-19070643D01*
X27721043Y-18506670D01*
X27721575Y-17896009D01*
X27488378Y-17331629D01*
X27056953Y-16899449D01*
X26492980Y-16665267D01*
X25882319Y-16664735D01*
X25317939Y-16897932D01*
X24885759Y-17329357D01*
X24651577Y-17893330D01*
X24651045Y-18503991D01*
X24703402Y-18630705D01*
X24584163Y-18809160D01*
X24577031Y-18845016D01*
X21485000Y-21937047D01*
X21485000Y-21823690D01*
X21454477Y-21750000D01*
X21485000Y-21676310D01*
X21485000Y-21235750D01*
X21326250Y-21077000D01*
X20377000Y-21077000D01*
X20377000Y-22423000D01*
X20397000Y-22423000D01*
X20397000Y-22677000D01*
X20377000Y-22677000D01*
X20377000Y-22697000D01*
X20123000Y-22697000D01*
X20123000Y-22677000D01*
X19173750Y-22677000D01*
X19015000Y-22835750D01*
X19015000Y-23165012D01*
X18094791Y-23165012D01*
X19015000Y-22244804D01*
X19015000Y-22264250D01*
X19173750Y-22423000D01*
X20123000Y-22423000D01*
X20123000Y-21077000D01*
X20103000Y-21077000D01*
X20103000Y-20823000D01*
X20123000Y-20823000D01*
X20123000Y-19477000D01*
X20377000Y-19477000D01*
X20377000Y-20823000D01*
X21326250Y-20823000D01*
X21485000Y-20664250D01*
X21485000Y-20223690D01*
X21454477Y-20150000D01*
X21485000Y-20076310D01*
X21485000Y-19635750D01*
X21326250Y-19477000D01*
X20377000Y-19477000D01*
X20123000Y-19477000D01*
X20103000Y-19477000D01*
X20103000Y-19223000D01*
X20123000Y-19223000D01*
X20123000Y-19203000D01*
X20377000Y-19203000D01*
X20377000Y-19223000D01*
X21326250Y-19223000D01*
X21485000Y-19064250D01*
X21485000Y-18623690D01*
X21388327Y-18390301D01*
X21296255Y-18298229D01*
X21843680Y-17750804D01*
X21961514Y-17633175D01*
X22088903Y-17326389D01*
X22089193Y-16994205D01*
X21990527Y-16755414D01*
X23093934Y-15652007D01*
X23246419Y-15652007D01*
X23291197Y-15760378D01*
X23722622Y-16192558D01*
X24286595Y-16426740D01*
X24897256Y-16427272D01*
X25461636Y-16194075D01*
X25893816Y-15762650D01*
X26127998Y-15198677D01*
X26128530Y-14588016D01*
X25895333Y-14023636D01*
X25463908Y-13591456D01*
X24899935Y-13357274D01*
X24289274Y-13356742D01*
X23724894Y-13589939D01*
X23292714Y-14021364D01*
X23246771Y-14132007D01*
X22779132Y-14132007D01*
X22488293Y-14189859D01*
X22241731Y-14354606D01*
X18787598Y-17808739D01*
X18622851Y-18055301D01*
X18564999Y-18346140D01*
X18564999Y-20545201D01*
X18135000Y-20975200D01*
X18135000Y-20047078D01*
X18209855Y-19866808D01*
X18210145Y-19534624D01*
X18083292Y-19227615D01*
X17848607Y-18992521D01*
X17541821Y-18865132D01*
X17209637Y-18864842D01*
X17097440Y-18911201D01*
X17097440Y-18750000D01*
X17053162Y-18514683D01*
X16914090Y-18298559D01*
X16701890Y-18153569D01*
X16610000Y-18134961D01*
X16610000Y-17284966D01*
X16815363Y-17285145D01*
X17122372Y-17158292D01*
X17357466Y-16923607D01*
X17432929Y-16741873D01*
X17889802Y-16285000D01*
X18452909Y-16285000D01*
X18633179Y-16359855D01*
X18965363Y-16360145D01*
X19272372Y-16233292D01*
X19507466Y-15998607D01*
X19634855Y-15691821D01*
X19635145Y-15359637D01*
X19508292Y-15052628D01*
X19273607Y-14817534D01*
X18966821Y-14690145D01*
X18634637Y-14689855D01*
X18452771Y-14765000D01*
X17575000Y-14765000D01*
X17571343Y-14765728D01*
X17483292Y-14552628D01*
X17248607Y-14317534D01*
X16941821Y-14190145D01*
X16609637Y-14189855D01*
X16302628Y-14316708D01*
X16067534Y-14551393D01*
X15992071Y-14733127D01*
X15312599Y-15412599D01*
X15147852Y-15659161D01*
X15090000Y-15950000D01*
X15090000Y-16498687D01*
X14811127Y-16613915D01*
X14568572Y-16856047D01*
X14466493Y-17101880D01*
X14012466Y-17555907D01*
X13847719Y-17802469D01*
X13789867Y-18093308D01*
X13789867Y-18358868D01*
X13747368Y-18316295D01*
X13565634Y-18240832D01*
X12987401Y-17662599D01*
X12740839Y-17497852D01*
X12450000Y-17440000D01*
X11446846Y-17440000D01*
X11402068Y-17331629D01*
X10970643Y-16899449D01*
X10406670Y-16665267D01*
X9796009Y-16664735D01*
X9231629Y-16897932D01*
X8799449Y-17329357D01*
X8565267Y-17893330D01*
X8564735Y-18503991D01*
X8694631Y-18818364D01*
X8679389Y-18818351D01*
X8674814Y-18820241D01*
X8580770Y-18592637D01*
X8338638Y-18350082D01*
X8022115Y-18218650D01*
X7679389Y-18218351D01*
X7362637Y-18349230D01*
X7120082Y-18591362D01*
X6988650Y-18907885D01*
X6988351Y-19250611D01*
X7119230Y-19567363D01*
X7361362Y-19809918D01*
X7607195Y-19911997D01*
X7655198Y-19960000D01*
X6206193Y-19960000D01*
X5962115Y-19858650D01*
X5619389Y-19858351D01*
X5434999Y-19934539D01*
X5434999Y-19149999D01*
X5413185Y-19040334D01*
X5377147Y-18859159D01*
X5282261Y-18717152D01*
X5183292Y-18477628D01*
X4948607Y-18242534D01*
X4641821Y-18115145D01*
X4309637Y-18114855D01*
X4002628Y-18241708D01*
X3767534Y-18476393D01*
X3640145Y-18783179D01*
X3639855Y-19115363D01*
X3766708Y-19422372D01*
X3914999Y-19570921D01*
X3914999Y-20421223D01*
X3972851Y-20712062D01*
X4137598Y-20958624D01*
X5587971Y-22408997D01*
X5834532Y-22573744D01*
X6125372Y-22631596D01*
X8260127Y-22631596D01*
X8100082Y-22791362D01*
X7968650Y-23107885D01*
X7968351Y-23450611D01*
X8099230Y-23767363D01*
X8341362Y-24009918D01*
X8587195Y-24111997D01*
X8864100Y-24388902D01*
X9110661Y-24553649D01*
X9158915Y-24563247D01*
X9401501Y-24611501D01*
X9775608Y-24611501D01*
X9889385Y-24886863D01*
X10131517Y-25129418D01*
X10158079Y-25140447D01*
X10157780Y-25483580D01*
X10390977Y-26047960D01*
X10822402Y-26480140D01*
X11386375Y-26714322D01*
X11595522Y-26714504D01*
X11595522Y-31502560D01*
X10250000Y-31502560D01*
X10014683Y-31546838D01*
X9798559Y-31685910D01*
X9653569Y-31898110D01*
X9602560Y-32150000D01*
X9602560Y-32369080D01*
X9462599Y-32462599D01*
X7822599Y-34102599D01*
X7657852Y-34349161D01*
X7600000Y-34640000D01*
X7600000Y-50030000D01*
X7657852Y-50320839D01*
X7822599Y-50567401D01*
X12568198Y-55313000D01*
X1056198Y-55313000D01*
X1037590Y-52372325D01*
X2314587Y-52372325D01*
X2676916Y-53249229D01*
X3347242Y-53920726D01*
X4223513Y-54284585D01*
X5172325Y-54285413D01*
X6049229Y-53923084D01*
X6720726Y-53252758D01*
X7084585Y-52376487D01*
X7085413Y-51427675D01*
X6723084Y-50550771D01*
X6052758Y-49879274D01*
X5176487Y-49515415D01*
X4227675Y-49514587D01*
X3350771Y-49876916D01*
X2679274Y-50547242D01*
X2315415Y-51423513D01*
X2314587Y-52372325D01*
X1037590Y-52372325D01*
X904015Y-31263374D01*
X958917Y-31350113D01*
X1069651Y-31428134D01*
X1111362Y-31469918D01*
X1154201Y-31487706D01*
X1241197Y-31549002D01*
X1373357Y-31578708D01*
X1427885Y-31601350D01*
X1474270Y-31601390D01*
X1578101Y-31624729D01*
X1711571Y-31601597D01*
X1770611Y-31601649D01*
X1813480Y-31583936D01*
X1918339Y-31565763D01*
X2032797Y-31493316D01*
X2087363Y-31470770D01*
X2120190Y-31438000D01*
X2210113Y-31381083D01*
X2288134Y-31270349D01*
X2329918Y-31228638D01*
X2347706Y-31185799D01*
X2409002Y-31098803D01*
X2438708Y-30966643D01*
X2461350Y-30912115D01*
X2461390Y-30865730D01*
X2484729Y-30761899D01*
X2534729Y-28741889D01*
X2532322Y-28728001D01*
X2534981Y-28714158D01*
X2524113Y-27065231D01*
X2526472Y-27065233D01*
X2708338Y-26990088D01*
X3019150Y-26990088D01*
X3096393Y-27067466D01*
X3403179Y-27194855D01*
X3735363Y-27195145D01*
X4042372Y-27068292D01*
X4277466Y-26833607D01*
X4404855Y-26526821D01*
X4405145Y-26194637D01*
X4278292Y-25887628D01*
X4043607Y-25652534D01*
X3736821Y-25525145D01*
X3716788Y-25525128D01*
X3440088Y-25470088D01*
X2708200Y-25470088D01*
X2527930Y-25395233D01*
X2513107Y-25395220D01*
X2489464Y-21807895D01*
X2561362Y-21879918D01*
X2877885Y-22011350D01*
X3220611Y-22011649D01*
X3537363Y-21880770D01*
X3779918Y-21638638D01*
X3911350Y-21322115D01*
X3911649Y-20979389D01*
X3810000Y-20733379D01*
X3810000Y-20396103D01*
X3752148Y-20105264D01*
X3587401Y-19858702D01*
X3256695Y-19527996D01*
X3155771Y-19283741D01*
X2913639Y-19041186D01*
X2597116Y-18909754D01*
X2254390Y-18909455D01*
X1937638Y-19040334D01*
X1695083Y-19282466D01*
X1563651Y-19598989D01*
X1563352Y-19941715D01*
X1694231Y-20258467D01*
X1695184Y-20259422D01*
X1590000Y-20238499D01*
X1472372Y-20261897D01*
X1419389Y-20261851D01*
X1369988Y-20282263D01*
X1251326Y-20305867D01*
X1151609Y-20372495D01*
X1102637Y-20392730D01*
X1064808Y-20430494D01*
X964210Y-20497710D01*
X897581Y-20597429D01*
X860082Y-20634862D01*
X839583Y-20684230D01*
X837096Y-20687953D01*
X802344Y-15195998D01*
X10157780Y-15195998D01*
X10390977Y-15760378D01*
X10822402Y-16192558D01*
X11386375Y-16426740D01*
X11997036Y-16427272D01*
X12136640Y-16369589D01*
X12260198Y-16452148D01*
X12551038Y-16510000D01*
X13502909Y-16510000D01*
X13683179Y-16584855D01*
X14015363Y-16585145D01*
X14322372Y-16458292D01*
X14557466Y-16223607D01*
X14684855Y-15916821D01*
X14685145Y-15584637D01*
X14558292Y-15277628D01*
X14323607Y-15042534D01*
X14016821Y-14915145D01*
X13684637Y-14914855D01*
X13502771Y-14990000D01*
X13227960Y-14990000D01*
X13228310Y-14588016D01*
X12995113Y-14023636D01*
X12563688Y-13591456D01*
X11999715Y-13357274D01*
X11389054Y-13356742D01*
X10824674Y-13589939D01*
X10392494Y-14021364D01*
X10158312Y-14585337D01*
X10157780Y-15195998D01*
X802344Y-15195998D01*
X787859Y-12906796D01*
X13028349Y-12906796D01*
X13261546Y-13471176D01*
X13692971Y-13903356D01*
X14256944Y-14137538D01*
X14867605Y-14138070D01*
X15431985Y-13904873D01*
X15864165Y-13473448D01*
X16098347Y-12909475D01*
X16098879Y-12298814D01*
X16012512Y-12089789D01*
X16607890Y-12089789D01*
X16841087Y-12654169D01*
X17272512Y-13086349D01*
X17836485Y-13320531D01*
X18447146Y-13321063D01*
X19011526Y-13087866D01*
X19192912Y-12906796D01*
X20187431Y-12906796D01*
X20420628Y-13471176D01*
X20852053Y-13903356D01*
X21416026Y-14137538D01*
X22026687Y-14138070D01*
X22591067Y-13904873D01*
X23023247Y-13473448D01*
X23257429Y-12909475D01*
X23257961Y-12298814D01*
X23024764Y-11734434D01*
X22593339Y-11302254D01*
X22029366Y-11068072D01*
X21418705Y-11067540D01*
X20854325Y-11300737D01*
X20422145Y-11732162D01*
X20187963Y-12296135D01*
X20187431Y-12906796D01*
X19192912Y-12906796D01*
X19443706Y-12656441D01*
X19677888Y-12092468D01*
X19678420Y-11481807D01*
X19445223Y-10917427D01*
X19013798Y-10485247D01*
X18449825Y-10251065D01*
X17839164Y-10250533D01*
X17274784Y-10483730D01*
X16842604Y-10915155D01*
X16608422Y-11479128D01*
X16607890Y-12089789D01*
X16012512Y-12089789D01*
X15865682Y-11734434D01*
X15434257Y-11302254D01*
X14870284Y-11068072D01*
X14259623Y-11067540D01*
X13695243Y-11300737D01*
X13263063Y-11732162D01*
X13028881Y-12296135D01*
X13028349Y-12906796D01*
X787859Y-12906796D01*
X757899Y-8172325D01*
X1114587Y-8172325D01*
X1476916Y-9049229D01*
X2147242Y-9720726D01*
X3023513Y-10084585D01*
X3972325Y-10085413D01*
X4849229Y-9723084D01*
X5520726Y-9052758D01*
X5884585Y-8176487D01*
X5885413Y-7227675D01*
X5523084Y-6350771D01*
X4852758Y-5679274D01*
X3976487Y-5315415D01*
X3027675Y-5314587D01*
X2150771Y-5676916D01*
X1479274Y-6347242D01*
X1115415Y-7223513D01*
X1114587Y-8172325D01*
X757899Y-8172325D01*
X738628Y-5127000D01*
X17721868Y-5127000D01*
X26297434Y-13702566D01*
G36*
X20580415Y-53715217D02*
X20826976Y-53879964D01*
X21117816Y-53937816D01*
X25716121Y-53937816D01*
X26006960Y-53879964D01*
X26148967Y-53785078D01*
X26388492Y-53686109D01*
X26623586Y-53451424D01*
X26699049Y-53269690D01*
X27596414Y-52372325D01*
X30644587Y-52372325D01*
X31006916Y-53249229D01*
X31677242Y-53920726D01*
X32553513Y-54284585D01*
X33502325Y-54285413D01*
X34379229Y-53923084D01*
X35050726Y-53252758D01*
X35414585Y-52376487D01*
X35415413Y-51427675D01*
X35053084Y-50550771D01*
X34382758Y-49879274D01*
X33506487Y-49515415D01*
X32557675Y-49514587D01*
X31680771Y-49876916D01*
X31009274Y-50547242D01*
X30645415Y-51423513D01*
X30644587Y-52372325D01*
X27596414Y-52372325D01*
X32158739Y-47810000D01*
X33892909Y-47810000D01*
X34073179Y-47884855D01*
X34405363Y-47885145D01*
X34712372Y-47758292D01*
X34947466Y-47523607D01*
X35074855Y-47216821D01*
X35074952Y-47106240D01*
X35470907Y-47185000D01*
X35529093Y-47185000D01*
X36097378Y-47071961D01*
X36290000Y-46943255D01*
X36290000Y-55313000D01*
X24870873Y-55313000D01*
X24887850Y-55272115D01*
X24888149Y-54929389D01*
X24757270Y-54612637D01*
X24515138Y-54370082D01*
X24198615Y-54238650D01*
X23855889Y-54238351D01*
X23609879Y-54340000D01*
X13744802Y-54340000D01*
X12911718Y-53506916D01*
X13097633Y-53228674D01*
X13165001Y-52890000D01*
X13097633Y-52551326D01*
X12905789Y-52264210D01*
X10285000Y-49643420D01*
X10285000Y-46926551D01*
X10502622Y-47071961D01*
X11070907Y-47185000D01*
X11129093Y-47185000D01*
X11697378Y-47071961D01*
X12179147Y-46750054D01*
X12501054Y-46268285D01*
X12605981Y-45740783D01*
X20580415Y-53715217D01*
X20580415Y-53715217D01*
G37*
X20580415Y-53715217D02*
X20826976Y-53879964D01*
X21117816Y-53937816D01*
X25716121Y-53937816D01*
X26006960Y-53879964D01*
X26148967Y-53785078D01*
X26388492Y-53686109D01*
X26623586Y-53451424D01*
X26699049Y-53269690D01*
X27596414Y-52372325D01*
X30644587Y-52372325D01*
X31006916Y-53249229D01*
X31677242Y-53920726D01*
X32553513Y-54284585D01*
X33502325Y-54285413D01*
X34379229Y-53923084D01*
X35050726Y-53252758D01*
X35414585Y-52376487D01*
X35415413Y-51427675D01*
X35053084Y-50550771D01*
X34382758Y-49879274D01*
X33506487Y-49515415D01*
X32557675Y-49514587D01*
X31680771Y-49876916D01*
X31009274Y-50547242D01*
X30645415Y-51423513D01*
X30644587Y-52372325D01*
X27596414Y-52372325D01*
X32158739Y-47810000D01*
X33892909Y-47810000D01*
X34073179Y-47884855D01*
X34405363Y-47885145D01*
X34712372Y-47758292D01*
X34947466Y-47523607D01*
X35074855Y-47216821D01*
X35074952Y-47106240D01*
X35470907Y-47185000D01*
X35529093Y-47185000D01*
X36097378Y-47071961D01*
X36290000Y-46943255D01*
X36290000Y-55313000D01*
X24870873Y-55313000D01*
X24887850Y-55272115D01*
X24888149Y-54929389D01*
X24757270Y-54612637D01*
X24515138Y-54370082D01*
X24198615Y-54238650D01*
X23855889Y-54238351D01*
X23609879Y-54340000D01*
X13744802Y-54340000D01*
X12911718Y-53506916D01*
X13097633Y-53228674D01*
X13165001Y-52890000D01*
X13097633Y-52551326D01*
X12905789Y-52264210D01*
X10285000Y-49643420D01*
X10285000Y-46926551D01*
X10502622Y-47071961D01*
X11070907Y-47185000D01*
X11129093Y-47185000D01*
X11697378Y-47071961D01*
X12179147Y-46750054D01*
X12501054Y-46268285D01*
X12605981Y-45740783D01*
X20580415Y-53715217D01*
G36*
X22334855Y-31855363D02*
X22410000Y-32037229D01*
X22410000Y-47127254D01*
X22290643Y-47246403D01*
X22239625Y-47369269D01*
X22189368Y-47247638D01*
X21954683Y-47012544D01*
X21647897Y-46885155D01*
X21315713Y-46884865D01*
X21133847Y-46960010D01*
X20871626Y-46960010D01*
X17750000Y-43838384D01*
X17750000Y-43577091D01*
X17824855Y-43396821D01*
X17825145Y-43064637D01*
X17698292Y-42757628D01*
X17463607Y-42522534D01*
X17156821Y-42395145D01*
X16824637Y-42394855D01*
X16690000Y-42450486D01*
X16690000Y-40208217D01*
X18152414Y-38745803D01*
X18317161Y-38499242D01*
X18375013Y-38208402D01*
X18375013Y-36815013D01*
X18325111Y-36564139D01*
X18325145Y-36524637D01*
X18198292Y-36217628D01*
X17963607Y-35982534D01*
X17656821Y-35855145D01*
X17324637Y-35854855D01*
X17017628Y-35981708D01*
X16782534Y-36216393D01*
X16655145Y-36523179D01*
X16654855Y-36855363D01*
X16781708Y-37162372D01*
X16855013Y-37235805D01*
X16855013Y-37893600D01*
X16640000Y-38108613D01*
X16640000Y-37264945D01*
X16582148Y-36974106D01*
X16417401Y-36727544D01*
X16155055Y-36465198D01*
X16155055Y-33899747D01*
X17291970Y-32762832D01*
X17472372Y-32688292D01*
X17707466Y-32453607D01*
X17834855Y-32146821D01*
X17835127Y-31835000D01*
X22334873Y-31835000D01*
X22334855Y-31855363D01*
X22334855Y-31855363D01*
G37*
X22334855Y-31855363D02*
X22410000Y-32037229D01*
X22410000Y-47127254D01*
X22290643Y-47246403D01*
X22239625Y-47369269D01*
X22189368Y-47247638D01*
X21954683Y-47012544D01*
X21647897Y-46885155D01*
X21315713Y-46884865D01*
X21133847Y-46960010D01*
X20871626Y-46960010D01*
X17750000Y-43838384D01*
X17750000Y-43577091D01*
X17824855Y-43396821D01*
X17825145Y-43064637D01*
X17698292Y-42757628D01*
X17463607Y-42522534D01*
X17156821Y-42395145D01*
X16824637Y-42394855D01*
X16690000Y-42450486D01*
X16690000Y-40208217D01*
X18152414Y-38745803D01*
X18317161Y-38499242D01*
X18375013Y-38208402D01*
X18375013Y-36815013D01*
X18325111Y-36564139D01*
X18325145Y-36524637D01*
X18198292Y-36217628D01*
X17963607Y-35982534D01*
X17656821Y-35855145D01*
X17324637Y-35854855D01*
X17017628Y-35981708D01*
X16782534Y-36216393D01*
X16655145Y-36523179D01*
X16654855Y-36855363D01*
X16781708Y-37162372D01*
X16855013Y-37235805D01*
X16855013Y-37893600D01*
X16640000Y-38108613D01*
X16640000Y-37264945D01*
X16582148Y-36974106D01*
X16417401Y-36727544D01*
X16155055Y-36465198D01*
X16155055Y-33899747D01*
X17291970Y-32762832D01*
X17472372Y-32688292D01*
X17707466Y-32453607D01*
X17834855Y-32146821D01*
X17835127Y-31835000D01*
X22334873Y-31835000D01*
X22334855Y-31855363D01*
G36*
X12714855Y-38865363D02*
X12790000Y-39047229D01*
X12790000Y-43473322D01*
X12765145Y-43533179D01*
X12764956Y-43750154D01*
X12541210Y-43526408D01*
X12614093Y-43160000D01*
X12501054Y-42591715D01*
X12179147Y-42109946D01*
X11838447Y-41882298D01*
X11981358Y-41815183D01*
X12371645Y-41386924D01*
X12541476Y-40976890D01*
X12420155Y-40747000D01*
X11227000Y-40747000D01*
X11227000Y-40767000D01*
X10973000Y-40767000D01*
X10973000Y-40747000D01*
X10953000Y-40747000D01*
X10953000Y-40493000D01*
X10973000Y-40493000D01*
X10973000Y-40473000D01*
X11227000Y-40473000D01*
X11227000Y-40493000D01*
X12420155Y-40493000D01*
X12541476Y-40263110D01*
X12371645Y-39853076D01*
X11981358Y-39424817D01*
X11838447Y-39357702D01*
X12179147Y-39130054D01*
X12372954Y-38840000D01*
X12620000Y-38840000D01*
X12714894Y-38821124D01*
X12714855Y-38865363D01*
X12714855Y-38865363D01*
G37*
X12714855Y-38865363D02*
X12790000Y-39047229D01*
X12790000Y-43473322D01*
X12765145Y-43533179D01*
X12764956Y-43750154D01*
X12541210Y-43526408D01*
X12614093Y-43160000D01*
X12501054Y-42591715D01*
X12179147Y-42109946D01*
X11838447Y-41882298D01*
X11981358Y-41815183D01*
X12371645Y-41386924D01*
X12541476Y-40976890D01*
X12420155Y-40747000D01*
X11227000Y-40747000D01*
X11227000Y-40767000D01*
X10973000Y-40767000D01*
X10973000Y-40747000D01*
X10953000Y-40747000D01*
X10953000Y-40493000D01*
X10973000Y-40493000D01*
X10973000Y-40473000D01*
X11227000Y-40473000D01*
X11227000Y-40493000D01*
X12420155Y-40493000D01*
X12541476Y-40263110D01*
X12371645Y-39853076D01*
X11981358Y-39424817D01*
X11838447Y-39357702D01*
X12179147Y-39130054D01*
X12372954Y-38840000D01*
X12620000Y-38840000D01*
X12714894Y-38821124D01*
X12714855Y-38865363D01*
G36*
X35627000Y-40493000D02*
X35647000Y-40493000D01*
X35647000Y-40747000D01*
X35627000Y-40747000D01*
X35627000Y-40767000D01*
X35373000Y-40767000D01*
X35373000Y-40747000D01*
X35353000Y-40747000D01*
X35353000Y-40493000D01*
X35373000Y-40493000D01*
X35373000Y-40473000D01*
X35627000Y-40473000D01*
X35627000Y-40493000D01*
X35627000Y-40493000D01*
G37*
X35627000Y-40493000D02*
X35647000Y-40493000D01*
X35647000Y-40747000D01*
X35627000Y-40747000D01*
X35627000Y-40767000D01*
X35373000Y-40767000D01*
X35373000Y-40747000D01*
X35353000Y-40747000D01*
X35353000Y-40493000D01*
X35373000Y-40493000D01*
X35373000Y-40473000D01*
X35627000Y-40473000D01*
X35627000Y-40493000D01*
G36*
X9711673Y-790301D02*
X9615000Y-1023690D01*
X9615000Y-1714250D01*
X9773750Y-1873000D01*
X10973000Y-1873000D01*
X10973000Y-1853000D01*
X11227000Y-1853000D01*
X11227000Y-1873000D01*
X12426250Y-1873000D01*
X12585000Y-1714250D01*
X12585000Y-1023690D01*
X12488327Y-790301D01*
X12408026Y-710000D01*
X34241974Y-710000D01*
X34161673Y-790301D01*
X34065000Y-1023690D01*
X34065000Y-1714250D01*
X34223750Y-1873000D01*
X35423000Y-1873000D01*
X35423000Y-1853000D01*
X35677000Y-1853000D01*
X35677000Y-1873000D01*
X35697000Y-1873000D01*
X35697000Y-2127000D01*
X35677000Y-2127000D01*
X35677000Y-3326250D01*
X35835750Y-3485000D01*
X36290000Y-3485000D01*
X36290000Y-3501583D01*
X12159438Y-3450567D01*
X12309698Y-3388327D01*
X12488327Y-3209699D01*
X12585000Y-2976310D01*
X12585000Y-2285750D01*
X34065000Y-2285750D01*
X34065000Y-2976310D01*
X34161673Y-3209699D01*
X34340302Y-3388327D01*
X34573691Y-3485000D01*
X35264250Y-3485000D01*
X35423000Y-3326250D01*
X35423000Y-2127000D01*
X34223750Y-2127000D01*
X34065000Y-2285750D01*
X12585000Y-2285750D01*
X12426250Y-2127000D01*
X11227000Y-2127000D01*
X11227000Y-2147000D01*
X10973000Y-2147000D01*
X10973000Y-2127000D01*
X9773750Y-2127000D01*
X9615000Y-2285750D01*
X9615000Y-2976310D01*
X9711673Y-3209699D01*
X9890302Y-3388327D01*
X10029692Y-3446064D01*
X8704668Y-3443263D01*
X8653895Y-710000D01*
X9791974Y-710000D01*
X9711673Y-790301D01*
X9711673Y-790301D01*
G37*
X9711673Y-790301D02*
X9615000Y-1023690D01*
X9615000Y-1714250D01*
X9773750Y-1873000D01*
X10973000Y-1873000D01*
X10973000Y-1853000D01*
X11227000Y-1853000D01*
X11227000Y-1873000D01*
X12426250Y-1873000D01*
X12585000Y-1714250D01*
X12585000Y-1023690D01*
X12488327Y-790301D01*
X12408026Y-710000D01*
X34241974Y-710000D01*
X34161673Y-790301D01*
X34065000Y-1023690D01*
X34065000Y-1714250D01*
X34223750Y-1873000D01*
X35423000Y-1873000D01*
X35423000Y-1853000D01*
X35677000Y-1853000D01*
X35677000Y-1873000D01*
X35697000Y-1873000D01*
X35697000Y-2127000D01*
X35677000Y-2127000D01*
X35677000Y-3326250D01*
X35835750Y-3485000D01*
X36290000Y-3485000D01*
X36290000Y-3501583D01*
X12159438Y-3450567D01*
X12309698Y-3388327D01*
X12488327Y-3209699D01*
X12585000Y-2976310D01*
X12585000Y-2285750D01*
X34065000Y-2285750D01*
X34065000Y-2976310D01*
X34161673Y-3209699D01*
X34340302Y-3388327D01*
X34573691Y-3485000D01*
X35264250Y-3485000D01*
X35423000Y-3326250D01*
X35423000Y-2127000D01*
X34223750Y-2127000D01*
X34065000Y-2285750D01*
X12585000Y-2285750D01*
X12426250Y-2127000D01*
X11227000Y-2127000D01*
X11227000Y-2147000D01*
X10973000Y-2147000D01*
X10973000Y-2127000D01*
X9773750Y-2127000D01*
X9615000Y-2285750D01*
X9615000Y-2976310D01*
X9711673Y-3209699D01*
X9890302Y-3388327D01*
X10029692Y-3446064D01*
X8704668Y-3443263D01*
X8653895Y-710000D01*
X9791974Y-710000D01*
X9711673Y-790301D01*
M02*
