%TF.GenerationSoftware,KiCad,Pcbnew,4.0.7*%
%TF.CreationDate,2017-11-16T21:01:15+08:00*%
%TF.ProjectId,finalRoundNixie,66696E616C526F756E644E697869652E,rev?*%
%TF.FileFunction,Other,Fab,Bot*%
%FSLAX46Y46*%
G04 Gerber Fmt 4.6, Leading zero omitted, Abs format (unit mm)*
G04 Created by KiCad (PCBNEW 4.0.7) date 11/16/17 21:01:15*
%MOMM*%
%LPD*%
G01*
G04 APERTURE LIST*
%ADD10C,0.100000*%
%ADD11C,0.075000*%
%ADD12C,0.150000*%
%ADD13C,0.120000*%
G04 APERTURE END LIST*
D10*
X30200000Y-30900000D02*
X31800000Y-30900000D01*
X31800000Y-30900000D02*
X31800000Y-30100000D01*
X31800000Y-30100000D02*
X30200000Y-30100000D01*
X30200000Y-30100000D02*
X30200000Y-30900000D01*
X3300000Y-14700000D02*
X3300000Y-17150000D01*
X2750000Y-14130000D02*
X1900000Y-14130000D01*
X3300000Y-14700000D02*
X2750000Y-14130000D01*
X1900000Y-14130000D02*
X1900000Y-17170000D01*
X3300000Y-17170000D02*
X1900000Y-17170000D01*
X31800000Y-33950000D02*
X30200000Y-33950000D01*
X30200000Y-33950000D02*
X30200000Y-34750000D01*
X30200000Y-34750000D02*
X31800000Y-34750000D01*
X31800000Y-34750000D02*
X31800000Y-33950000D01*
X8965000Y-730000D02*
X7060000Y-730000D01*
X7060000Y-730000D02*
X7060000Y-3270000D01*
X7060000Y-3270000D02*
X9600000Y-3270000D01*
X9600000Y-3270000D02*
X9600000Y-1365000D01*
X9600000Y-1365000D02*
X8965000Y-730000D01*
X11420000Y-1680000D02*
X9600000Y-1680000D01*
X11420000Y-1680000D02*
X11420000Y-2320000D01*
X11420000Y-2320000D02*
X9600000Y-2320000D01*
X7060000Y-1680000D02*
X1060000Y-1680000D01*
X1060000Y-1680000D02*
X1060000Y-2320000D01*
X7060000Y-2320000D02*
X1060000Y-2320000D01*
X7575000Y-14725000D02*
X7575000Y-17175000D01*
X7025000Y-14155000D02*
X6175000Y-14155000D01*
X7575000Y-14725000D02*
X7025000Y-14155000D01*
X6175000Y-14155000D02*
X6175000Y-17195000D01*
X7575000Y-17195000D02*
X6175000Y-17195000D01*
X25450000Y-33050000D02*
X25450000Y-35500000D01*
X24900000Y-32480000D02*
X24050000Y-32480000D01*
X25450000Y-33050000D02*
X24900000Y-32480000D01*
X24050000Y-32480000D02*
X24050000Y-35520000D01*
X25450000Y-35520000D02*
X24050000Y-35520000D01*
X18450000Y-44000000D02*
X18450000Y-46450000D01*
X17900000Y-43430000D02*
X17050000Y-43430000D01*
X18450000Y-44000000D02*
X17900000Y-43430000D01*
X17050000Y-43430000D02*
X17050000Y-46470000D01*
X18450000Y-46470000D02*
X17050000Y-46470000D01*
X18450000Y-38425000D02*
X18450000Y-40875000D01*
X17900000Y-37855000D02*
X17050000Y-37855000D01*
X18450000Y-38425000D02*
X17900000Y-37855000D01*
X17050000Y-37855000D02*
X17050000Y-40895000D01*
X18450000Y-40895000D02*
X17050000Y-40895000D01*
X32500000Y-43925000D02*
X32500000Y-46375000D01*
X31950000Y-43355000D02*
X31100000Y-43355000D01*
X32500000Y-43925000D02*
X31950000Y-43355000D01*
X31100000Y-43355000D02*
X31100000Y-46395000D01*
X32500000Y-46395000D02*
X31100000Y-46395000D01*
X18450000Y-33050000D02*
X18450000Y-35500000D01*
X17900000Y-32480000D02*
X17050000Y-32480000D01*
X18450000Y-33050000D02*
X17900000Y-32480000D01*
X17050000Y-32480000D02*
X17050000Y-35520000D01*
X18450000Y-35520000D02*
X17050000Y-35520000D01*
X25450000Y-44000000D02*
X25450000Y-46450000D01*
X24900000Y-43430000D02*
X24050000Y-43430000D01*
X25450000Y-44000000D02*
X24900000Y-43430000D01*
X24050000Y-43430000D02*
X24050000Y-46470000D01*
X25450000Y-46470000D02*
X24050000Y-46470000D01*
X32500000Y-38425000D02*
X32500000Y-40875000D01*
X31950000Y-37855000D02*
X31100000Y-37855000D01*
X32500000Y-38425000D02*
X31950000Y-37855000D01*
X31100000Y-37855000D02*
X31100000Y-40895000D01*
X32500000Y-40895000D02*
X31100000Y-40895000D01*
X25450000Y-38425000D02*
X25450000Y-40875000D01*
X24900000Y-37855000D02*
X24050000Y-37855000D01*
X25450000Y-38425000D02*
X24900000Y-37855000D01*
X24050000Y-37855000D02*
X24050000Y-40895000D01*
X25450000Y-40895000D02*
X24050000Y-40895000D01*
X17450000Y-23050000D02*
X17450000Y-25500000D01*
X16900000Y-22480000D02*
X16050000Y-22480000D01*
X17450000Y-23050000D02*
X16900000Y-22480000D01*
X16050000Y-22480000D02*
X16050000Y-25520000D01*
X17450000Y-25520000D02*
X16050000Y-25520000D01*
X17350000Y-19050000D02*
X17350000Y-21500000D01*
X16800000Y-18480000D02*
X15950000Y-18480000D01*
X17350000Y-19050000D02*
X16800000Y-18480000D01*
X15950000Y-18480000D02*
X15950000Y-21520000D01*
X17350000Y-21520000D02*
X15950000Y-21520000D01*
X17350000Y-15250000D02*
X17350000Y-17700000D01*
X16800000Y-14680000D02*
X15950000Y-14680000D01*
X17350000Y-15250000D02*
X16800000Y-14680000D01*
X15950000Y-14680000D02*
X15950000Y-17720000D01*
X17350000Y-17720000D02*
X15950000Y-17720000D01*
X32850000Y-24200000D02*
X32850000Y-26650000D01*
X32300000Y-23630000D02*
X31450000Y-23630000D01*
X32850000Y-24200000D02*
X32300000Y-23630000D01*
X31450000Y-23630000D02*
X31450000Y-26670000D01*
X32850000Y-26670000D02*
X31450000Y-26670000D01*
X7775000Y-18475000D02*
X7775000Y-17675000D01*
X6175000Y-18475000D02*
X7775000Y-18475000D01*
X6175000Y-17675000D02*
X6175000Y-18475000D01*
X7775000Y-17675000D02*
X6175000Y-17675000D01*
X3400000Y-18550000D02*
X3400000Y-17750000D01*
X1800000Y-18550000D02*
X3400000Y-18550000D01*
X1800000Y-17750000D02*
X1800000Y-18550000D01*
X3400000Y-17750000D02*
X1800000Y-17750000D01*
X29400000Y-44300000D02*
X28600000Y-44300000D01*
X29400000Y-45900000D02*
X29400000Y-44300000D01*
X28600000Y-45900000D02*
X29400000Y-45900000D01*
X28600000Y-44300000D02*
X28600000Y-45900000D01*
X22350000Y-33350000D02*
X21550000Y-33350000D01*
X22350000Y-34950000D02*
X22350000Y-33350000D01*
X21550000Y-34950000D02*
X22350000Y-34950000D01*
X21550000Y-33350000D02*
X21550000Y-34950000D01*
X15350000Y-44375000D02*
X14550000Y-44375000D01*
X15350000Y-45975000D02*
X15350000Y-44375000D01*
X14550000Y-45975000D02*
X15350000Y-45975000D01*
X14550000Y-44375000D02*
X14550000Y-45975000D01*
X15350000Y-38575000D02*
X14550000Y-38575000D01*
X15350000Y-40175000D02*
X15350000Y-38575000D01*
X14550000Y-40175000D02*
X15350000Y-40175000D01*
X14550000Y-38575000D02*
X14550000Y-40175000D01*
X15350000Y-33350000D02*
X14550000Y-33350000D01*
X15350000Y-34950000D02*
X15350000Y-33350000D01*
X14550000Y-34950000D02*
X15350000Y-34950000D01*
X14550000Y-33350000D02*
X14550000Y-34950000D01*
X29400000Y-38575000D02*
X28600000Y-38575000D01*
X29400000Y-40175000D02*
X29400000Y-38575000D01*
X28600000Y-40175000D02*
X29400000Y-40175000D01*
X28600000Y-38575000D02*
X28600000Y-40175000D01*
X21150000Y-23400000D02*
X21150000Y-22600000D01*
X19550000Y-23400000D02*
X21150000Y-23400000D01*
X19550000Y-22600000D02*
X19550000Y-23400000D01*
X21150000Y-22600000D02*
X19550000Y-22600000D01*
X21150000Y-19350000D02*
X21150000Y-18550000D01*
X19550000Y-19350000D02*
X21150000Y-19350000D01*
X19550000Y-18550000D02*
X19550000Y-19350000D01*
X21150000Y-18550000D02*
X19550000Y-18550000D01*
X21150000Y-15900000D02*
X21150000Y-15100000D01*
X19550000Y-15900000D02*
X21150000Y-15900000D01*
X19550000Y-15100000D02*
X19550000Y-15900000D01*
X21150000Y-15100000D02*
X19550000Y-15100000D01*
X7725000Y-13575000D02*
X7725000Y-12775000D01*
X6125000Y-13575000D02*
X7725000Y-13575000D01*
X6125000Y-12775000D02*
X6125000Y-13575000D01*
X7725000Y-12775000D02*
X6125000Y-12775000D01*
X24050000Y-30600000D02*
X24050000Y-31400000D01*
X25650000Y-30600000D02*
X24050000Y-30600000D01*
X25650000Y-31400000D02*
X25650000Y-30600000D01*
X24050000Y-31400000D02*
X25650000Y-31400000D01*
X1750000Y-12750000D02*
X1750000Y-13550000D01*
X3350000Y-12750000D02*
X1750000Y-12750000D01*
X3350000Y-13550000D02*
X3350000Y-12750000D01*
X1750000Y-13550000D02*
X3350000Y-13550000D01*
X16900000Y-41850000D02*
X16900000Y-42650000D01*
X18500000Y-41850000D02*
X16900000Y-41850000D01*
X18500000Y-42650000D02*
X18500000Y-41850000D01*
X16900000Y-42650000D02*
X18500000Y-42650000D01*
X16700000Y-36225000D02*
X16700000Y-37025000D01*
X18300000Y-36225000D02*
X16700000Y-36225000D01*
X18300000Y-37025000D02*
X18300000Y-36225000D01*
X16700000Y-37025000D02*
X18300000Y-37025000D01*
X30950000Y-41725000D02*
X30950000Y-42525000D01*
X32550000Y-41725000D02*
X30950000Y-41725000D01*
X32550000Y-42525000D02*
X32550000Y-41725000D01*
X30950000Y-42525000D02*
X32550000Y-42525000D01*
X16900000Y-30600000D02*
X16900000Y-31400000D01*
X18500000Y-30600000D02*
X16900000Y-30600000D01*
X18500000Y-31400000D02*
X18500000Y-30600000D01*
X16900000Y-31400000D02*
X18500000Y-31400000D01*
X23900000Y-41875000D02*
X23900000Y-42675000D01*
X25500000Y-41875000D02*
X23900000Y-41875000D01*
X25500000Y-42675000D02*
X25500000Y-41875000D01*
X23900000Y-42675000D02*
X25500000Y-42675000D01*
X30750000Y-36225000D02*
X30750000Y-37025000D01*
X32350000Y-36225000D02*
X30750000Y-36225000D01*
X32350000Y-37025000D02*
X32350000Y-36225000D01*
X30750000Y-37025000D02*
X32350000Y-37025000D01*
X23850000Y-36225000D02*
X23850000Y-37025000D01*
X25450000Y-36225000D02*
X23850000Y-36225000D01*
X25450000Y-37025000D02*
X25450000Y-36225000D01*
X23850000Y-37025000D02*
X25450000Y-37025000D01*
X30650000Y-22650000D02*
X31450000Y-22650000D01*
X30650000Y-21050000D02*
X30650000Y-22650000D01*
X31450000Y-21050000D02*
X30650000Y-21050000D01*
X31450000Y-22650000D02*
X31450000Y-21050000D01*
X33350000Y-21000000D02*
X32550000Y-21000000D01*
X33350000Y-22600000D02*
X33350000Y-21000000D01*
X32550000Y-22600000D02*
X33350000Y-22600000D01*
X32550000Y-21000000D02*
X32550000Y-22600000D01*
X32750000Y-15950000D02*
X32750000Y-18400000D01*
X32200000Y-15380000D02*
X31350000Y-15380000D01*
X32750000Y-15950000D02*
X32200000Y-15380000D01*
X31350000Y-15380000D02*
X31350000Y-18420000D01*
X32750000Y-18420000D02*
X31350000Y-18420000D01*
X30600000Y-14250000D02*
X31400000Y-14250000D01*
X30600000Y-12650000D02*
X30600000Y-14250000D01*
X31400000Y-12650000D02*
X30600000Y-12650000D01*
X31400000Y-14250000D02*
X31400000Y-12650000D01*
X33400000Y-12650000D02*
X32600000Y-12650000D01*
X33400000Y-14250000D02*
X33400000Y-12650000D01*
X32600000Y-14250000D02*
X33400000Y-14250000D01*
X32600000Y-12650000D02*
X32600000Y-14250000D01*
X8965000Y-31730000D02*
X7060000Y-31730000D01*
X7060000Y-31730000D02*
X7060000Y-46970000D01*
X7060000Y-46970000D02*
X9600000Y-46970000D01*
X9600000Y-46970000D02*
X9600000Y-32365000D01*
X9600000Y-32365000D02*
X8965000Y-31730000D01*
X11420000Y-32680000D02*
X9600000Y-32680000D01*
X11420000Y-32680000D02*
X11420000Y-33320000D01*
X11420000Y-33320000D02*
X9600000Y-33320000D01*
X7060000Y-32680000D02*
X1060000Y-32680000D01*
X1060000Y-32680000D02*
X1060000Y-33320000D01*
X7060000Y-33320000D02*
X1060000Y-33320000D01*
X11420000Y-35220000D02*
X9600000Y-35220000D01*
X11420000Y-35220000D02*
X11420000Y-35860000D01*
X11420000Y-35860000D02*
X9600000Y-35860000D01*
X7060000Y-35220000D02*
X1060000Y-35220000D01*
X1060000Y-35220000D02*
X1060000Y-35860000D01*
X7060000Y-35860000D02*
X1060000Y-35860000D01*
X11420000Y-37760000D02*
X9600000Y-37760000D01*
X11420000Y-37760000D02*
X11420000Y-38400000D01*
X11420000Y-38400000D02*
X9600000Y-38400000D01*
X7060000Y-37760000D02*
X1060000Y-37760000D01*
X1060000Y-37760000D02*
X1060000Y-38400000D01*
X7060000Y-38400000D02*
X1060000Y-38400000D01*
X11420000Y-40300000D02*
X9600000Y-40300000D01*
X11420000Y-40300000D02*
X11420000Y-40940000D01*
X11420000Y-40940000D02*
X9600000Y-40940000D01*
X7060000Y-40300000D02*
X1060000Y-40300000D01*
X1060000Y-40300000D02*
X1060000Y-40940000D01*
X7060000Y-40940000D02*
X1060000Y-40940000D01*
X11420000Y-42840000D02*
X9600000Y-42840000D01*
X11420000Y-42840000D02*
X11420000Y-43480000D01*
X11420000Y-43480000D02*
X9600000Y-43480000D01*
X7060000Y-42840000D02*
X1060000Y-42840000D01*
X1060000Y-42840000D02*
X1060000Y-43480000D01*
X7060000Y-43480000D02*
X1060000Y-43480000D01*
X11420000Y-45380000D02*
X9600000Y-45380000D01*
X11420000Y-45380000D02*
X11420000Y-46020000D01*
X11420000Y-46020000D02*
X9600000Y-46020000D01*
X7060000Y-45380000D02*
X1060000Y-45380000D01*
X1060000Y-45380000D02*
X1060000Y-46020000D01*
X7060000Y-46020000D02*
X1060000Y-46020000D01*
X30200000Y-32600000D02*
X31800000Y-32600000D01*
X31800000Y-32600000D02*
X31800000Y-31800000D01*
X31800000Y-31800000D02*
X30200000Y-31800000D01*
X30200000Y-31800000D02*
X30200000Y-32600000D01*
X22350000Y-43950000D02*
X21550000Y-43950000D01*
X22350000Y-45550000D02*
X22350000Y-43950000D01*
X21550000Y-45550000D02*
X22350000Y-45550000D01*
X21550000Y-43950000D02*
X21550000Y-45550000D01*
X22500000Y-38575000D02*
X21700000Y-38575000D01*
X22500000Y-40175000D02*
X22500000Y-38575000D01*
X21700000Y-40175000D02*
X22500000Y-40175000D01*
X21700000Y-38575000D02*
X21700000Y-40175000D01*
X11600000Y-54050000D02*
X12600000Y-55050000D01*
X11600000Y-54050000D02*
X11600000Y-48350000D01*
X12600000Y-55050000D02*
X15300000Y-55050000D01*
X11600000Y-48350000D02*
X15300000Y-48350000D01*
X15300000Y-55050000D02*
X15300000Y-48350000D01*
X37070000Y-730000D02*
X37070000Y-3270000D01*
X37070000Y-3270000D02*
X45580000Y-3270000D01*
X45580000Y-3270000D02*
X45580000Y-730000D01*
X45580000Y-730000D02*
X37070000Y-730000D01*
X35550000Y-1680000D02*
X35550000Y-2320000D01*
X35550000Y-2320000D02*
X37070000Y-2320000D01*
X37070000Y-2320000D02*
X37070000Y-1680000D01*
X37070000Y-1680000D02*
X35550000Y-1680000D01*
X37020000Y-31730000D02*
X37020000Y-34270000D01*
X37020000Y-34270000D02*
X45530000Y-34270000D01*
X45530000Y-34270000D02*
X45530000Y-31730000D01*
X45530000Y-31730000D02*
X37020000Y-31730000D01*
X35500000Y-32680000D02*
X35500000Y-33320000D01*
X35500000Y-33320000D02*
X37020000Y-33320000D01*
X37020000Y-33320000D02*
X37020000Y-32680000D01*
X37020000Y-32680000D02*
X35500000Y-32680000D01*
X37020000Y-34270000D02*
X37020000Y-36810000D01*
X37020000Y-36810000D02*
X45530000Y-36810000D01*
X45530000Y-36810000D02*
X45530000Y-34270000D01*
X45530000Y-34270000D02*
X37020000Y-34270000D01*
X35500000Y-35220000D02*
X35500000Y-35860000D01*
X35500000Y-35860000D02*
X37020000Y-35860000D01*
X37020000Y-35860000D02*
X37020000Y-35220000D01*
X37020000Y-35220000D02*
X35500000Y-35220000D01*
X37020000Y-36810000D02*
X37020000Y-39350000D01*
X37020000Y-39350000D02*
X45530000Y-39350000D01*
X45530000Y-39350000D02*
X45530000Y-36810000D01*
X45530000Y-36810000D02*
X37020000Y-36810000D01*
X35500000Y-37760000D02*
X35500000Y-38400000D01*
X35500000Y-38400000D02*
X37020000Y-38400000D01*
X37020000Y-38400000D02*
X37020000Y-37760000D01*
X37020000Y-37760000D02*
X35500000Y-37760000D01*
X37020000Y-39350000D02*
X37020000Y-41890000D01*
X37020000Y-41890000D02*
X45530000Y-41890000D01*
X45530000Y-41890000D02*
X45530000Y-39350000D01*
X45530000Y-39350000D02*
X37020000Y-39350000D01*
X35500000Y-40300000D02*
X35500000Y-40940000D01*
X35500000Y-40940000D02*
X37020000Y-40940000D01*
X37020000Y-40940000D02*
X37020000Y-40300000D01*
X37020000Y-40300000D02*
X35500000Y-40300000D01*
X37020000Y-41890000D02*
X37020000Y-44430000D01*
X37020000Y-44430000D02*
X45530000Y-44430000D01*
X45530000Y-44430000D02*
X45530000Y-41890000D01*
X45530000Y-41890000D02*
X37020000Y-41890000D01*
X35500000Y-42840000D02*
X35500000Y-43480000D01*
X35500000Y-43480000D02*
X37020000Y-43480000D01*
X37020000Y-43480000D02*
X37020000Y-42840000D01*
X37020000Y-42840000D02*
X35500000Y-42840000D01*
X37020000Y-44430000D02*
X37020000Y-46970000D01*
X37020000Y-46970000D02*
X45530000Y-46970000D01*
X45530000Y-46970000D02*
X45530000Y-44430000D01*
X45530000Y-44430000D02*
X37020000Y-44430000D01*
X35500000Y-45380000D02*
X35500000Y-46020000D01*
X35500000Y-46020000D02*
X37020000Y-46020000D01*
X37020000Y-46020000D02*
X37020000Y-45380000D01*
X37020000Y-45380000D02*
X35500000Y-45380000D01*
D11*
X31050000Y-30607143D02*
X31064286Y-30621429D01*
X31107143Y-30635714D01*
X31135714Y-30635714D01*
X31178571Y-30621429D01*
X31207143Y-30592857D01*
X31221428Y-30564286D01*
X31235714Y-30507143D01*
X31235714Y-30464286D01*
X31221428Y-30407143D01*
X31207143Y-30378571D01*
X31178571Y-30350000D01*
X31135714Y-30335714D01*
X31107143Y-30335714D01*
X31064286Y-30350000D01*
X31050000Y-30364286D01*
X30950000Y-30335714D02*
X30764286Y-30335714D01*
X30864286Y-30450000D01*
X30821428Y-30450000D01*
X30792857Y-30464286D01*
X30778571Y-30478571D01*
X30764286Y-30507143D01*
X30764286Y-30578571D01*
X30778571Y-30607143D01*
X30792857Y-30621429D01*
X30821428Y-30635714D01*
X30907143Y-30635714D01*
X30935714Y-30621429D01*
X30950000Y-30607143D01*
X2873810Y-15602381D02*
X2850000Y-15554762D01*
X2802381Y-15507143D01*
X2730952Y-15435714D01*
X2707143Y-15388095D01*
X2707143Y-15340476D01*
X2826190Y-15364286D02*
X2802381Y-15316667D01*
X2754762Y-15269048D01*
X2659524Y-15245238D01*
X2492857Y-15245238D01*
X2397619Y-15269048D01*
X2350000Y-15316667D01*
X2326190Y-15364286D01*
X2326190Y-15459524D01*
X2350000Y-15507143D01*
X2397619Y-15554762D01*
X2492857Y-15578571D01*
X2659524Y-15578571D01*
X2754762Y-15554762D01*
X2802381Y-15507143D01*
X2826190Y-15459524D01*
X2826190Y-15364286D01*
X2326190Y-15745239D02*
X2326190Y-16054762D01*
X2516667Y-15888096D01*
X2516667Y-15959524D01*
X2540476Y-16007143D01*
X2564286Y-16030953D01*
X2611905Y-16054762D01*
X2730952Y-16054762D01*
X2778571Y-16030953D01*
X2802381Y-16007143D01*
X2826190Y-15959524D01*
X2826190Y-15816667D01*
X2802381Y-15769048D01*
X2778571Y-15745239D01*
X31050000Y-34457143D02*
X31064286Y-34471429D01*
X31107143Y-34485714D01*
X31135714Y-34485714D01*
X31178571Y-34471429D01*
X31207143Y-34442857D01*
X31221428Y-34414286D01*
X31235714Y-34357143D01*
X31235714Y-34314286D01*
X31221428Y-34257143D01*
X31207143Y-34228571D01*
X31178571Y-34200000D01*
X31135714Y-34185714D01*
X31107143Y-34185714D01*
X31064286Y-34200000D01*
X31050000Y-34214286D01*
X30764286Y-34485714D02*
X30935714Y-34485714D01*
X30850000Y-34485714D02*
X30850000Y-34185714D01*
X30878571Y-34228571D01*
X30907143Y-34257143D01*
X30935714Y-34271429D01*
D12*
X7782381Y-1666667D02*
X8496667Y-1666667D01*
X8639524Y-1619047D01*
X8734762Y-1523809D01*
X8782381Y-1380952D01*
X8782381Y-1285714D01*
X8115714Y-2571429D02*
X8782381Y-2571429D01*
X7734762Y-2333333D02*
X8449048Y-2095238D01*
X8449048Y-2714286D01*
D11*
X7148810Y-15627381D02*
X7125000Y-15579762D01*
X7077381Y-15532143D01*
X7005952Y-15460714D01*
X6982143Y-15413095D01*
X6982143Y-15365476D01*
X7101190Y-15389286D02*
X7077381Y-15341667D01*
X7029762Y-15294048D01*
X6934524Y-15270238D01*
X6767857Y-15270238D01*
X6672619Y-15294048D01*
X6625000Y-15341667D01*
X6601190Y-15389286D01*
X6601190Y-15484524D01*
X6625000Y-15532143D01*
X6672619Y-15579762D01*
X6767857Y-15603571D01*
X6934524Y-15603571D01*
X7029762Y-15579762D01*
X7077381Y-15532143D01*
X7101190Y-15484524D01*
X7101190Y-15389286D01*
X7101190Y-16079762D02*
X7101190Y-15794048D01*
X7101190Y-15936905D02*
X6601190Y-15936905D01*
X6672619Y-15889286D01*
X6720238Y-15841667D01*
X6744048Y-15794048D01*
X25023810Y-33952381D02*
X25000000Y-33904762D01*
X24952381Y-33857143D01*
X24880952Y-33785714D01*
X24857143Y-33738095D01*
X24857143Y-33690476D01*
X24976190Y-33714286D02*
X24952381Y-33666667D01*
X24904762Y-33619048D01*
X24809524Y-33595238D01*
X24642857Y-33595238D01*
X24547619Y-33619048D01*
X24500000Y-33666667D01*
X24476190Y-33714286D01*
X24476190Y-33809524D01*
X24500000Y-33857143D01*
X24547619Y-33904762D01*
X24642857Y-33928571D01*
X24809524Y-33928571D01*
X24904762Y-33904762D01*
X24952381Y-33857143D01*
X24976190Y-33809524D01*
X24976190Y-33714286D01*
X24523810Y-34119048D02*
X24500000Y-34142858D01*
X24476190Y-34190477D01*
X24476190Y-34309524D01*
X24500000Y-34357143D01*
X24523810Y-34380953D01*
X24571429Y-34404762D01*
X24619048Y-34404762D01*
X24690476Y-34380953D01*
X24976190Y-34095239D01*
X24976190Y-34404762D01*
X18023810Y-44902381D02*
X18000000Y-44854762D01*
X17952381Y-44807143D01*
X17880952Y-44735714D01*
X17857143Y-44688095D01*
X17857143Y-44640476D01*
X17976190Y-44664286D02*
X17952381Y-44616667D01*
X17904762Y-44569048D01*
X17809524Y-44545238D01*
X17642857Y-44545238D01*
X17547619Y-44569048D01*
X17500000Y-44616667D01*
X17476190Y-44664286D01*
X17476190Y-44759524D01*
X17500000Y-44807143D01*
X17547619Y-44854762D01*
X17642857Y-44878571D01*
X17809524Y-44878571D01*
X17904762Y-44854762D01*
X17952381Y-44807143D01*
X17976190Y-44759524D01*
X17976190Y-44664286D01*
X17642857Y-45307143D02*
X17976190Y-45307143D01*
X17452381Y-45188096D02*
X17809524Y-45069048D01*
X17809524Y-45378572D01*
X18023810Y-39327381D02*
X18000000Y-39279762D01*
X17952381Y-39232143D01*
X17880952Y-39160714D01*
X17857143Y-39113095D01*
X17857143Y-39065476D01*
X17976190Y-39089286D02*
X17952381Y-39041667D01*
X17904762Y-38994048D01*
X17809524Y-38970238D01*
X17642857Y-38970238D01*
X17547619Y-38994048D01*
X17500000Y-39041667D01*
X17476190Y-39089286D01*
X17476190Y-39184524D01*
X17500000Y-39232143D01*
X17547619Y-39279762D01*
X17642857Y-39303571D01*
X17809524Y-39303571D01*
X17904762Y-39279762D01*
X17952381Y-39232143D01*
X17976190Y-39184524D01*
X17976190Y-39089286D01*
X17476190Y-39755953D02*
X17476190Y-39517858D01*
X17714286Y-39494048D01*
X17690476Y-39517858D01*
X17666667Y-39565477D01*
X17666667Y-39684524D01*
X17690476Y-39732143D01*
X17714286Y-39755953D01*
X17761905Y-39779762D01*
X17880952Y-39779762D01*
X17928571Y-39755953D01*
X17952381Y-39732143D01*
X17976190Y-39684524D01*
X17976190Y-39565477D01*
X17952381Y-39517858D01*
X17928571Y-39494048D01*
X32073810Y-44827381D02*
X32050000Y-44779762D01*
X32002381Y-44732143D01*
X31930952Y-44660714D01*
X31907143Y-44613095D01*
X31907143Y-44565476D01*
X32026190Y-44589286D02*
X32002381Y-44541667D01*
X31954762Y-44494048D01*
X31859524Y-44470238D01*
X31692857Y-44470238D01*
X31597619Y-44494048D01*
X31550000Y-44541667D01*
X31526190Y-44589286D01*
X31526190Y-44684524D01*
X31550000Y-44732143D01*
X31597619Y-44779762D01*
X31692857Y-44803571D01*
X31859524Y-44803571D01*
X31954762Y-44779762D01*
X32002381Y-44732143D01*
X32026190Y-44684524D01*
X32026190Y-44589286D01*
X31526190Y-45232143D02*
X31526190Y-45136905D01*
X31550000Y-45089286D01*
X31573810Y-45065477D01*
X31645238Y-45017858D01*
X31740476Y-44994048D01*
X31930952Y-44994048D01*
X31978571Y-45017858D01*
X32002381Y-45041667D01*
X32026190Y-45089286D01*
X32026190Y-45184524D01*
X32002381Y-45232143D01*
X31978571Y-45255953D01*
X31930952Y-45279762D01*
X31811905Y-45279762D01*
X31764286Y-45255953D01*
X31740476Y-45232143D01*
X31716667Y-45184524D01*
X31716667Y-45089286D01*
X31740476Y-45041667D01*
X31764286Y-45017858D01*
X31811905Y-44994048D01*
X18023810Y-33952381D02*
X18000000Y-33904762D01*
X17952381Y-33857143D01*
X17880952Y-33785714D01*
X17857143Y-33738095D01*
X17857143Y-33690476D01*
X17976190Y-33714286D02*
X17952381Y-33666667D01*
X17904762Y-33619048D01*
X17809524Y-33595238D01*
X17642857Y-33595238D01*
X17547619Y-33619048D01*
X17500000Y-33666667D01*
X17476190Y-33714286D01*
X17476190Y-33809524D01*
X17500000Y-33857143D01*
X17547619Y-33904762D01*
X17642857Y-33928571D01*
X17809524Y-33928571D01*
X17904762Y-33904762D01*
X17952381Y-33857143D01*
X17976190Y-33809524D01*
X17976190Y-33714286D01*
X17476190Y-34095239D02*
X17476190Y-34428572D01*
X17976190Y-34214286D01*
X25023810Y-44902381D02*
X25000000Y-44854762D01*
X24952381Y-44807143D01*
X24880952Y-44735714D01*
X24857143Y-44688095D01*
X24857143Y-44640476D01*
X24976190Y-44664286D02*
X24952381Y-44616667D01*
X24904762Y-44569048D01*
X24809524Y-44545238D01*
X24642857Y-44545238D01*
X24547619Y-44569048D01*
X24500000Y-44616667D01*
X24476190Y-44664286D01*
X24476190Y-44759524D01*
X24500000Y-44807143D01*
X24547619Y-44854762D01*
X24642857Y-44878571D01*
X24809524Y-44878571D01*
X24904762Y-44854762D01*
X24952381Y-44807143D01*
X24976190Y-44759524D01*
X24976190Y-44664286D01*
X24690476Y-45164286D02*
X24666667Y-45116667D01*
X24642857Y-45092858D01*
X24595238Y-45069048D01*
X24571429Y-45069048D01*
X24523810Y-45092858D01*
X24500000Y-45116667D01*
X24476190Y-45164286D01*
X24476190Y-45259524D01*
X24500000Y-45307143D01*
X24523810Y-45330953D01*
X24571429Y-45354762D01*
X24595238Y-45354762D01*
X24642857Y-45330953D01*
X24666667Y-45307143D01*
X24690476Y-45259524D01*
X24690476Y-45164286D01*
X24714286Y-45116667D01*
X24738095Y-45092858D01*
X24785714Y-45069048D01*
X24880952Y-45069048D01*
X24928571Y-45092858D01*
X24952381Y-45116667D01*
X24976190Y-45164286D01*
X24976190Y-45259524D01*
X24952381Y-45307143D01*
X24928571Y-45330953D01*
X24880952Y-45354762D01*
X24785714Y-45354762D01*
X24738095Y-45330953D01*
X24714286Y-45307143D01*
X24690476Y-45259524D01*
X32073810Y-39327381D02*
X32050000Y-39279762D01*
X32002381Y-39232143D01*
X31930952Y-39160714D01*
X31907143Y-39113095D01*
X31907143Y-39065476D01*
X32026190Y-39089286D02*
X32002381Y-39041667D01*
X31954762Y-38994048D01*
X31859524Y-38970238D01*
X31692857Y-38970238D01*
X31597619Y-38994048D01*
X31550000Y-39041667D01*
X31526190Y-39089286D01*
X31526190Y-39184524D01*
X31550000Y-39232143D01*
X31597619Y-39279762D01*
X31692857Y-39303571D01*
X31859524Y-39303571D01*
X31954762Y-39279762D01*
X32002381Y-39232143D01*
X32026190Y-39184524D01*
X32026190Y-39089286D01*
X32026190Y-39541667D02*
X32026190Y-39636905D01*
X32002381Y-39684524D01*
X31978571Y-39708334D01*
X31907143Y-39755953D01*
X31811905Y-39779762D01*
X31621429Y-39779762D01*
X31573810Y-39755953D01*
X31550000Y-39732143D01*
X31526190Y-39684524D01*
X31526190Y-39589286D01*
X31550000Y-39541667D01*
X31573810Y-39517858D01*
X31621429Y-39494048D01*
X31740476Y-39494048D01*
X31788095Y-39517858D01*
X31811905Y-39541667D01*
X31835714Y-39589286D01*
X31835714Y-39684524D01*
X31811905Y-39732143D01*
X31788095Y-39755953D01*
X31740476Y-39779762D01*
X25023810Y-39089286D02*
X25000000Y-39041667D01*
X24952381Y-38994048D01*
X24880952Y-38922619D01*
X24857143Y-38875000D01*
X24857143Y-38827381D01*
X24976190Y-38851191D02*
X24952381Y-38803572D01*
X24904762Y-38755953D01*
X24809524Y-38732143D01*
X24642857Y-38732143D01*
X24547619Y-38755953D01*
X24500000Y-38803572D01*
X24476190Y-38851191D01*
X24476190Y-38946429D01*
X24500000Y-38994048D01*
X24547619Y-39041667D01*
X24642857Y-39065476D01*
X24809524Y-39065476D01*
X24904762Y-39041667D01*
X24952381Y-38994048D01*
X24976190Y-38946429D01*
X24976190Y-38851191D01*
X24976190Y-39541667D02*
X24976190Y-39255953D01*
X24976190Y-39398810D02*
X24476190Y-39398810D01*
X24547619Y-39351191D01*
X24595238Y-39303572D01*
X24619048Y-39255953D01*
X24476190Y-39851191D02*
X24476190Y-39898810D01*
X24500000Y-39946429D01*
X24523810Y-39970238D01*
X24571429Y-39994048D01*
X24666667Y-40017857D01*
X24785714Y-40017857D01*
X24880952Y-39994048D01*
X24928571Y-39970238D01*
X24952381Y-39946429D01*
X24976190Y-39898810D01*
X24976190Y-39851191D01*
X24952381Y-39803572D01*
X24928571Y-39779762D01*
X24880952Y-39755953D01*
X24785714Y-39732143D01*
X24666667Y-39732143D01*
X24571429Y-39755953D01*
X24523810Y-39779762D01*
X24500000Y-39803572D01*
X24476190Y-39851191D01*
X17023810Y-23714286D02*
X17000000Y-23666667D01*
X16952381Y-23619048D01*
X16880952Y-23547619D01*
X16857143Y-23500000D01*
X16857143Y-23452381D01*
X16976190Y-23476191D02*
X16952381Y-23428572D01*
X16904762Y-23380953D01*
X16809524Y-23357143D01*
X16642857Y-23357143D01*
X16547619Y-23380953D01*
X16500000Y-23428572D01*
X16476190Y-23476191D01*
X16476190Y-23571429D01*
X16500000Y-23619048D01*
X16547619Y-23666667D01*
X16642857Y-23690476D01*
X16809524Y-23690476D01*
X16904762Y-23666667D01*
X16952381Y-23619048D01*
X16976190Y-23571429D01*
X16976190Y-23476191D01*
X16976190Y-24166667D02*
X16976190Y-23880953D01*
X16976190Y-24023810D02*
X16476190Y-24023810D01*
X16547619Y-23976191D01*
X16595238Y-23928572D01*
X16619048Y-23880953D01*
X16976190Y-24642857D02*
X16976190Y-24357143D01*
X16976190Y-24500000D02*
X16476190Y-24500000D01*
X16547619Y-24452381D01*
X16595238Y-24404762D01*
X16619048Y-24357143D01*
X16923810Y-19714286D02*
X16900000Y-19666667D01*
X16852381Y-19619048D01*
X16780952Y-19547619D01*
X16757143Y-19500000D01*
X16757143Y-19452381D01*
X16876190Y-19476191D02*
X16852381Y-19428572D01*
X16804762Y-19380953D01*
X16709524Y-19357143D01*
X16542857Y-19357143D01*
X16447619Y-19380953D01*
X16400000Y-19428572D01*
X16376190Y-19476191D01*
X16376190Y-19571429D01*
X16400000Y-19619048D01*
X16447619Y-19666667D01*
X16542857Y-19690476D01*
X16709524Y-19690476D01*
X16804762Y-19666667D01*
X16852381Y-19619048D01*
X16876190Y-19571429D01*
X16876190Y-19476191D01*
X16876190Y-20166667D02*
X16876190Y-19880953D01*
X16876190Y-20023810D02*
X16376190Y-20023810D01*
X16447619Y-19976191D01*
X16495238Y-19928572D01*
X16519048Y-19880953D01*
X16423810Y-20357143D02*
X16400000Y-20380953D01*
X16376190Y-20428572D01*
X16376190Y-20547619D01*
X16400000Y-20595238D01*
X16423810Y-20619048D01*
X16471429Y-20642857D01*
X16519048Y-20642857D01*
X16590476Y-20619048D01*
X16876190Y-20333334D01*
X16876190Y-20642857D01*
X16923810Y-15914286D02*
X16900000Y-15866667D01*
X16852381Y-15819048D01*
X16780952Y-15747619D01*
X16757143Y-15700000D01*
X16757143Y-15652381D01*
X16876190Y-15676191D02*
X16852381Y-15628572D01*
X16804762Y-15580953D01*
X16709524Y-15557143D01*
X16542857Y-15557143D01*
X16447619Y-15580953D01*
X16400000Y-15628572D01*
X16376190Y-15676191D01*
X16376190Y-15771429D01*
X16400000Y-15819048D01*
X16447619Y-15866667D01*
X16542857Y-15890476D01*
X16709524Y-15890476D01*
X16804762Y-15866667D01*
X16852381Y-15819048D01*
X16876190Y-15771429D01*
X16876190Y-15676191D01*
X16876190Y-16366667D02*
X16876190Y-16080953D01*
X16876190Y-16223810D02*
X16376190Y-16223810D01*
X16447619Y-16176191D01*
X16495238Y-16128572D01*
X16519048Y-16080953D01*
X16376190Y-16533334D02*
X16376190Y-16842857D01*
X16566667Y-16676191D01*
X16566667Y-16747619D01*
X16590476Y-16795238D01*
X16614286Y-16819048D01*
X16661905Y-16842857D01*
X16780952Y-16842857D01*
X16828571Y-16819048D01*
X16852381Y-16795238D01*
X16876190Y-16747619D01*
X16876190Y-16604762D01*
X16852381Y-16557143D01*
X16828571Y-16533334D01*
X32423810Y-24864286D02*
X32400000Y-24816667D01*
X32352381Y-24769048D01*
X32280952Y-24697619D01*
X32257143Y-24650000D01*
X32257143Y-24602381D01*
X32376190Y-24626191D02*
X32352381Y-24578572D01*
X32304762Y-24530953D01*
X32209524Y-24507143D01*
X32042857Y-24507143D01*
X31947619Y-24530953D01*
X31900000Y-24578572D01*
X31876190Y-24626191D01*
X31876190Y-24721429D01*
X31900000Y-24769048D01*
X31947619Y-24816667D01*
X32042857Y-24840476D01*
X32209524Y-24840476D01*
X32304762Y-24816667D01*
X32352381Y-24769048D01*
X32376190Y-24721429D01*
X32376190Y-24626191D01*
X32376190Y-25316667D02*
X32376190Y-25030953D01*
X32376190Y-25173810D02*
X31876190Y-25173810D01*
X31947619Y-25126191D01*
X31995238Y-25078572D01*
X32019048Y-25030953D01*
X32042857Y-25745238D02*
X32376190Y-25745238D01*
X31852381Y-25626191D02*
X32209524Y-25507143D01*
X32209524Y-25816667D01*
X7041666Y-18255952D02*
X7175000Y-18065476D01*
X7270238Y-18255952D02*
X7270238Y-17855952D01*
X7117857Y-17855952D01*
X7079762Y-17875000D01*
X7060714Y-17894048D01*
X7041666Y-17932143D01*
X7041666Y-17989286D01*
X7060714Y-18027381D01*
X7079762Y-18046429D01*
X7117857Y-18065476D01*
X7270238Y-18065476D01*
X6660714Y-18255952D02*
X6889286Y-18255952D01*
X6775000Y-18255952D02*
X6775000Y-17855952D01*
X6813095Y-17913095D01*
X6851190Y-17951190D01*
X6889286Y-17970238D01*
X2666666Y-18330952D02*
X2800000Y-18140476D01*
X2895238Y-18330952D02*
X2895238Y-17930952D01*
X2742857Y-17930952D01*
X2704762Y-17950000D01*
X2685714Y-17969048D01*
X2666666Y-18007143D01*
X2666666Y-18064286D01*
X2685714Y-18102381D01*
X2704762Y-18121429D01*
X2742857Y-18140476D01*
X2895238Y-18140476D01*
X2514286Y-17969048D02*
X2495238Y-17950000D01*
X2457143Y-17930952D01*
X2361905Y-17930952D01*
X2323809Y-17950000D01*
X2304762Y-17969048D01*
X2285714Y-18007143D01*
X2285714Y-18045238D01*
X2304762Y-18102381D01*
X2533333Y-18330952D01*
X2285714Y-18330952D01*
X29180952Y-45033334D02*
X28990476Y-44900000D01*
X29180952Y-44804762D02*
X28780952Y-44804762D01*
X28780952Y-44957143D01*
X28800000Y-44995238D01*
X28819048Y-45014286D01*
X28857143Y-45033334D01*
X28914286Y-45033334D01*
X28952381Y-45014286D01*
X28971429Y-44995238D01*
X28990476Y-44957143D01*
X28990476Y-44804762D01*
X28780952Y-45166667D02*
X28780952Y-45414286D01*
X28933333Y-45280953D01*
X28933333Y-45338095D01*
X28952381Y-45376191D01*
X28971429Y-45395238D01*
X29009524Y-45414286D01*
X29104762Y-45414286D01*
X29142857Y-45395238D01*
X29161905Y-45376191D01*
X29180952Y-45338095D01*
X29180952Y-45223810D01*
X29161905Y-45185714D01*
X29142857Y-45166667D01*
X22130952Y-34083334D02*
X21940476Y-33950000D01*
X22130952Y-33854762D02*
X21730952Y-33854762D01*
X21730952Y-34007143D01*
X21750000Y-34045238D01*
X21769048Y-34064286D01*
X21807143Y-34083334D01*
X21864286Y-34083334D01*
X21902381Y-34064286D01*
X21921429Y-34045238D01*
X21940476Y-34007143D01*
X21940476Y-33854762D01*
X21730952Y-34426191D02*
X21730952Y-34350000D01*
X21750000Y-34311905D01*
X21769048Y-34292857D01*
X21826190Y-34254762D01*
X21902381Y-34235714D01*
X22054762Y-34235714D01*
X22092857Y-34254762D01*
X22111905Y-34273810D01*
X22130952Y-34311905D01*
X22130952Y-34388095D01*
X22111905Y-34426191D01*
X22092857Y-34445238D01*
X22054762Y-34464286D01*
X21959524Y-34464286D01*
X21921429Y-34445238D01*
X21902381Y-34426191D01*
X21883333Y-34388095D01*
X21883333Y-34311905D01*
X21902381Y-34273810D01*
X21921429Y-34254762D01*
X21959524Y-34235714D01*
X15130952Y-45108334D02*
X14940476Y-44975000D01*
X15130952Y-44879762D02*
X14730952Y-44879762D01*
X14730952Y-45032143D01*
X14750000Y-45070238D01*
X14769048Y-45089286D01*
X14807143Y-45108334D01*
X14864286Y-45108334D01*
X14902381Y-45089286D01*
X14921429Y-45070238D01*
X14940476Y-45032143D01*
X14940476Y-44879762D01*
X14730952Y-45241667D02*
X14730952Y-45508334D01*
X15130952Y-45336905D01*
X15130952Y-39308334D02*
X14940476Y-39175000D01*
X15130952Y-39079762D02*
X14730952Y-39079762D01*
X14730952Y-39232143D01*
X14750000Y-39270238D01*
X14769048Y-39289286D01*
X14807143Y-39308334D01*
X14864286Y-39308334D01*
X14902381Y-39289286D01*
X14921429Y-39270238D01*
X14940476Y-39232143D01*
X14940476Y-39079762D01*
X14902381Y-39536905D02*
X14883333Y-39498810D01*
X14864286Y-39479762D01*
X14826190Y-39460714D01*
X14807143Y-39460714D01*
X14769048Y-39479762D01*
X14750000Y-39498810D01*
X14730952Y-39536905D01*
X14730952Y-39613095D01*
X14750000Y-39651191D01*
X14769048Y-39670238D01*
X14807143Y-39689286D01*
X14826190Y-39689286D01*
X14864286Y-39670238D01*
X14883333Y-39651191D01*
X14902381Y-39613095D01*
X14902381Y-39536905D01*
X14921429Y-39498810D01*
X14940476Y-39479762D01*
X14978571Y-39460714D01*
X15054762Y-39460714D01*
X15092857Y-39479762D01*
X15111905Y-39498810D01*
X15130952Y-39536905D01*
X15130952Y-39613095D01*
X15111905Y-39651191D01*
X15092857Y-39670238D01*
X15054762Y-39689286D01*
X14978571Y-39689286D01*
X14940476Y-39670238D01*
X14921429Y-39651191D01*
X14902381Y-39613095D01*
X15130952Y-34083334D02*
X14940476Y-33950000D01*
X15130952Y-33854762D02*
X14730952Y-33854762D01*
X14730952Y-34007143D01*
X14750000Y-34045238D01*
X14769048Y-34064286D01*
X14807143Y-34083334D01*
X14864286Y-34083334D01*
X14902381Y-34064286D01*
X14921429Y-34045238D01*
X14940476Y-34007143D01*
X14940476Y-33854762D01*
X15130952Y-34273810D02*
X15130952Y-34350000D01*
X15111905Y-34388095D01*
X15092857Y-34407143D01*
X15035714Y-34445238D01*
X14959524Y-34464286D01*
X14807143Y-34464286D01*
X14769048Y-34445238D01*
X14750000Y-34426191D01*
X14730952Y-34388095D01*
X14730952Y-34311905D01*
X14750000Y-34273810D01*
X14769048Y-34254762D01*
X14807143Y-34235714D01*
X14902381Y-34235714D01*
X14940476Y-34254762D01*
X14959524Y-34273810D01*
X14978571Y-34311905D01*
X14978571Y-34388095D01*
X14959524Y-34426191D01*
X14940476Y-34445238D01*
X14902381Y-34464286D01*
X29180952Y-39117858D02*
X28990476Y-38984524D01*
X29180952Y-38889286D02*
X28780952Y-38889286D01*
X28780952Y-39041667D01*
X28800000Y-39079762D01*
X28819048Y-39098810D01*
X28857143Y-39117858D01*
X28914286Y-39117858D01*
X28952381Y-39098810D01*
X28971429Y-39079762D01*
X28990476Y-39041667D01*
X28990476Y-38889286D01*
X29180952Y-39498810D02*
X29180952Y-39270238D01*
X29180952Y-39384524D02*
X28780952Y-39384524D01*
X28838095Y-39346429D01*
X28876190Y-39308334D01*
X28895238Y-39270238D01*
X28780952Y-39746429D02*
X28780952Y-39784524D01*
X28800000Y-39822619D01*
X28819048Y-39841667D01*
X28857143Y-39860714D01*
X28933333Y-39879762D01*
X29028571Y-39879762D01*
X29104762Y-39860714D01*
X29142857Y-39841667D01*
X29161905Y-39822619D01*
X29180952Y-39784524D01*
X29180952Y-39746429D01*
X29161905Y-39708333D01*
X29142857Y-39689286D01*
X29104762Y-39670238D01*
X29028571Y-39651190D01*
X28933333Y-39651190D01*
X28857143Y-39670238D01*
X28819048Y-39689286D01*
X28800000Y-39708333D01*
X28780952Y-39746429D01*
X20607142Y-23180952D02*
X20740476Y-22990476D01*
X20835714Y-23180952D02*
X20835714Y-22780952D01*
X20683333Y-22780952D01*
X20645238Y-22800000D01*
X20626190Y-22819048D01*
X20607142Y-22857143D01*
X20607142Y-22914286D01*
X20626190Y-22952381D01*
X20645238Y-22971429D01*
X20683333Y-22990476D01*
X20835714Y-22990476D01*
X20226190Y-23180952D02*
X20454762Y-23180952D01*
X20340476Y-23180952D02*
X20340476Y-22780952D01*
X20378571Y-22838095D01*
X20416666Y-22876190D01*
X20454762Y-22895238D01*
X19845238Y-23180952D02*
X20073810Y-23180952D01*
X19959524Y-23180952D02*
X19959524Y-22780952D01*
X19997619Y-22838095D01*
X20035714Y-22876190D01*
X20073810Y-22895238D01*
X20607142Y-19130952D02*
X20740476Y-18940476D01*
X20835714Y-19130952D02*
X20835714Y-18730952D01*
X20683333Y-18730952D01*
X20645238Y-18750000D01*
X20626190Y-18769048D01*
X20607142Y-18807143D01*
X20607142Y-18864286D01*
X20626190Y-18902381D01*
X20645238Y-18921429D01*
X20683333Y-18940476D01*
X20835714Y-18940476D01*
X20226190Y-19130952D02*
X20454762Y-19130952D01*
X20340476Y-19130952D02*
X20340476Y-18730952D01*
X20378571Y-18788095D01*
X20416666Y-18826190D01*
X20454762Y-18845238D01*
X20073810Y-18769048D02*
X20054762Y-18750000D01*
X20016667Y-18730952D01*
X19921429Y-18730952D01*
X19883333Y-18750000D01*
X19864286Y-18769048D01*
X19845238Y-18807143D01*
X19845238Y-18845238D01*
X19864286Y-18902381D01*
X20092857Y-19130952D01*
X19845238Y-19130952D01*
X20607142Y-15680952D02*
X20740476Y-15490476D01*
X20835714Y-15680952D02*
X20835714Y-15280952D01*
X20683333Y-15280952D01*
X20645238Y-15300000D01*
X20626190Y-15319048D01*
X20607142Y-15357143D01*
X20607142Y-15414286D01*
X20626190Y-15452381D01*
X20645238Y-15471429D01*
X20683333Y-15490476D01*
X20835714Y-15490476D01*
X20226190Y-15680952D02*
X20454762Y-15680952D01*
X20340476Y-15680952D02*
X20340476Y-15280952D01*
X20378571Y-15338095D01*
X20416666Y-15376190D01*
X20454762Y-15395238D01*
X20092857Y-15280952D02*
X19845238Y-15280952D01*
X19978571Y-15433333D01*
X19921429Y-15433333D01*
X19883333Y-15452381D01*
X19864286Y-15471429D01*
X19845238Y-15509524D01*
X19845238Y-15604762D01*
X19864286Y-15642857D01*
X19883333Y-15661905D01*
X19921429Y-15680952D01*
X20035714Y-15680952D01*
X20073810Y-15661905D01*
X20092857Y-15642857D01*
X7182142Y-13355952D02*
X7315476Y-13165476D01*
X7410714Y-13355952D02*
X7410714Y-12955952D01*
X7258333Y-12955952D01*
X7220238Y-12975000D01*
X7201190Y-12994048D01*
X7182142Y-13032143D01*
X7182142Y-13089286D01*
X7201190Y-13127381D01*
X7220238Y-13146429D01*
X7258333Y-13165476D01*
X7410714Y-13165476D01*
X6801190Y-13355952D02*
X7029762Y-13355952D01*
X6915476Y-13355952D02*
X6915476Y-12955952D01*
X6953571Y-13013095D01*
X6991666Y-13051190D01*
X7029762Y-13070238D01*
X6458333Y-13089286D02*
X6458333Y-13355952D01*
X6553571Y-12936905D02*
X6648810Y-13222619D01*
X6401190Y-13222619D01*
X25107142Y-31180952D02*
X25240476Y-30990476D01*
X25335714Y-31180952D02*
X25335714Y-30780952D01*
X25183333Y-30780952D01*
X25145238Y-30800000D01*
X25126190Y-30819048D01*
X25107142Y-30857143D01*
X25107142Y-30914286D01*
X25126190Y-30952381D01*
X25145238Y-30971429D01*
X25183333Y-30990476D01*
X25335714Y-30990476D01*
X24726190Y-31180952D02*
X24954762Y-31180952D01*
X24840476Y-31180952D02*
X24840476Y-30780952D01*
X24878571Y-30838095D01*
X24916666Y-30876190D01*
X24954762Y-30895238D01*
X24364286Y-30780952D02*
X24554762Y-30780952D01*
X24573810Y-30971429D01*
X24554762Y-30952381D01*
X24516667Y-30933333D01*
X24421429Y-30933333D01*
X24383333Y-30952381D01*
X24364286Y-30971429D01*
X24345238Y-31009524D01*
X24345238Y-31104762D01*
X24364286Y-31142857D01*
X24383333Y-31161905D01*
X24421429Y-31180952D01*
X24516667Y-31180952D01*
X24554762Y-31161905D01*
X24573810Y-31142857D01*
X2807142Y-13330952D02*
X2940476Y-13140476D01*
X3035714Y-13330952D02*
X3035714Y-12930952D01*
X2883333Y-12930952D01*
X2845238Y-12950000D01*
X2826190Y-12969048D01*
X2807142Y-13007143D01*
X2807142Y-13064286D01*
X2826190Y-13102381D01*
X2845238Y-13121429D01*
X2883333Y-13140476D01*
X3035714Y-13140476D01*
X2426190Y-13330952D02*
X2654762Y-13330952D01*
X2540476Y-13330952D02*
X2540476Y-12930952D01*
X2578571Y-12988095D01*
X2616666Y-13026190D01*
X2654762Y-13045238D01*
X2083333Y-12930952D02*
X2159524Y-12930952D01*
X2197619Y-12950000D01*
X2216667Y-12969048D01*
X2254762Y-13026190D01*
X2273810Y-13102381D01*
X2273810Y-13254762D01*
X2254762Y-13292857D01*
X2235714Y-13311905D01*
X2197619Y-13330952D01*
X2121429Y-13330952D01*
X2083333Y-13311905D01*
X2064286Y-13292857D01*
X2045238Y-13254762D01*
X2045238Y-13159524D01*
X2064286Y-13121429D01*
X2083333Y-13102381D01*
X2121429Y-13083333D01*
X2197619Y-13083333D01*
X2235714Y-13102381D01*
X2254762Y-13121429D01*
X2273810Y-13159524D01*
X17957142Y-42430952D02*
X18090476Y-42240476D01*
X18185714Y-42430952D02*
X18185714Y-42030952D01*
X18033333Y-42030952D01*
X17995238Y-42050000D01*
X17976190Y-42069048D01*
X17957142Y-42107143D01*
X17957142Y-42164286D01*
X17976190Y-42202381D01*
X17995238Y-42221429D01*
X18033333Y-42240476D01*
X18185714Y-42240476D01*
X17576190Y-42430952D02*
X17804762Y-42430952D01*
X17690476Y-42430952D02*
X17690476Y-42030952D01*
X17728571Y-42088095D01*
X17766666Y-42126190D01*
X17804762Y-42145238D01*
X17442857Y-42030952D02*
X17176190Y-42030952D01*
X17347619Y-42430952D01*
X17757142Y-36805952D02*
X17890476Y-36615476D01*
X17985714Y-36805952D02*
X17985714Y-36405952D01*
X17833333Y-36405952D01*
X17795238Y-36425000D01*
X17776190Y-36444048D01*
X17757142Y-36482143D01*
X17757142Y-36539286D01*
X17776190Y-36577381D01*
X17795238Y-36596429D01*
X17833333Y-36615476D01*
X17985714Y-36615476D01*
X17376190Y-36805952D02*
X17604762Y-36805952D01*
X17490476Y-36805952D02*
X17490476Y-36405952D01*
X17528571Y-36463095D01*
X17566666Y-36501190D01*
X17604762Y-36520238D01*
X17147619Y-36577381D02*
X17185714Y-36558333D01*
X17204762Y-36539286D01*
X17223810Y-36501190D01*
X17223810Y-36482143D01*
X17204762Y-36444048D01*
X17185714Y-36425000D01*
X17147619Y-36405952D01*
X17071429Y-36405952D01*
X17033333Y-36425000D01*
X17014286Y-36444048D01*
X16995238Y-36482143D01*
X16995238Y-36501190D01*
X17014286Y-36539286D01*
X17033333Y-36558333D01*
X17071429Y-36577381D01*
X17147619Y-36577381D01*
X17185714Y-36596429D01*
X17204762Y-36615476D01*
X17223810Y-36653571D01*
X17223810Y-36729762D01*
X17204762Y-36767857D01*
X17185714Y-36786905D01*
X17147619Y-36805952D01*
X17071429Y-36805952D01*
X17033333Y-36786905D01*
X17014286Y-36767857D01*
X16995238Y-36729762D01*
X16995238Y-36653571D01*
X17014286Y-36615476D01*
X17033333Y-36596429D01*
X17071429Y-36577381D01*
X32007142Y-42305952D02*
X32140476Y-42115476D01*
X32235714Y-42305952D02*
X32235714Y-41905952D01*
X32083333Y-41905952D01*
X32045238Y-41925000D01*
X32026190Y-41944048D01*
X32007142Y-41982143D01*
X32007142Y-42039286D01*
X32026190Y-42077381D01*
X32045238Y-42096429D01*
X32083333Y-42115476D01*
X32235714Y-42115476D01*
X31626190Y-42305952D02*
X31854762Y-42305952D01*
X31740476Y-42305952D02*
X31740476Y-41905952D01*
X31778571Y-41963095D01*
X31816666Y-42001190D01*
X31854762Y-42020238D01*
X31435714Y-42305952D02*
X31359524Y-42305952D01*
X31321429Y-42286905D01*
X31302381Y-42267857D01*
X31264286Y-42210714D01*
X31245238Y-42134524D01*
X31245238Y-41982143D01*
X31264286Y-41944048D01*
X31283333Y-41925000D01*
X31321429Y-41905952D01*
X31397619Y-41905952D01*
X31435714Y-41925000D01*
X31454762Y-41944048D01*
X31473810Y-41982143D01*
X31473810Y-42077381D01*
X31454762Y-42115476D01*
X31435714Y-42134524D01*
X31397619Y-42153571D01*
X31321429Y-42153571D01*
X31283333Y-42134524D01*
X31264286Y-42115476D01*
X31245238Y-42077381D01*
X17957142Y-31180952D02*
X18090476Y-30990476D01*
X18185714Y-31180952D02*
X18185714Y-30780952D01*
X18033333Y-30780952D01*
X17995238Y-30800000D01*
X17976190Y-30819048D01*
X17957142Y-30857143D01*
X17957142Y-30914286D01*
X17976190Y-30952381D01*
X17995238Y-30971429D01*
X18033333Y-30990476D01*
X18185714Y-30990476D01*
X17804762Y-30819048D02*
X17785714Y-30800000D01*
X17747619Y-30780952D01*
X17652381Y-30780952D01*
X17614285Y-30800000D01*
X17595238Y-30819048D01*
X17576190Y-30857143D01*
X17576190Y-30895238D01*
X17595238Y-30952381D01*
X17823809Y-31180952D01*
X17576190Y-31180952D01*
X17328571Y-30780952D02*
X17290476Y-30780952D01*
X17252381Y-30800000D01*
X17233333Y-30819048D01*
X17214286Y-30857143D01*
X17195238Y-30933333D01*
X17195238Y-31028571D01*
X17214286Y-31104762D01*
X17233333Y-31142857D01*
X17252381Y-31161905D01*
X17290476Y-31180952D01*
X17328571Y-31180952D01*
X17366667Y-31161905D01*
X17385714Y-31142857D01*
X17404762Y-31104762D01*
X17423810Y-31028571D01*
X17423810Y-30933333D01*
X17404762Y-30857143D01*
X17385714Y-30819048D01*
X17366667Y-30800000D01*
X17328571Y-30780952D01*
X24957142Y-42455952D02*
X25090476Y-42265476D01*
X25185714Y-42455952D02*
X25185714Y-42055952D01*
X25033333Y-42055952D01*
X24995238Y-42075000D01*
X24976190Y-42094048D01*
X24957142Y-42132143D01*
X24957142Y-42189286D01*
X24976190Y-42227381D01*
X24995238Y-42246429D01*
X25033333Y-42265476D01*
X25185714Y-42265476D01*
X24804762Y-42094048D02*
X24785714Y-42075000D01*
X24747619Y-42055952D01*
X24652381Y-42055952D01*
X24614285Y-42075000D01*
X24595238Y-42094048D01*
X24576190Y-42132143D01*
X24576190Y-42170238D01*
X24595238Y-42227381D01*
X24823809Y-42455952D01*
X24576190Y-42455952D01*
X24195238Y-42455952D02*
X24423810Y-42455952D01*
X24309524Y-42455952D02*
X24309524Y-42055952D01*
X24347619Y-42113095D01*
X24385714Y-42151190D01*
X24423810Y-42170238D01*
X31807142Y-36805952D02*
X31940476Y-36615476D01*
X32035714Y-36805952D02*
X32035714Y-36405952D01*
X31883333Y-36405952D01*
X31845238Y-36425000D01*
X31826190Y-36444048D01*
X31807142Y-36482143D01*
X31807142Y-36539286D01*
X31826190Y-36577381D01*
X31845238Y-36596429D01*
X31883333Y-36615476D01*
X32035714Y-36615476D01*
X31654762Y-36444048D02*
X31635714Y-36425000D01*
X31597619Y-36405952D01*
X31502381Y-36405952D01*
X31464285Y-36425000D01*
X31445238Y-36444048D01*
X31426190Y-36482143D01*
X31426190Y-36520238D01*
X31445238Y-36577381D01*
X31673809Y-36805952D01*
X31426190Y-36805952D01*
X31273810Y-36444048D02*
X31254762Y-36425000D01*
X31216667Y-36405952D01*
X31121429Y-36405952D01*
X31083333Y-36425000D01*
X31064286Y-36444048D01*
X31045238Y-36482143D01*
X31045238Y-36520238D01*
X31064286Y-36577381D01*
X31292857Y-36805952D01*
X31045238Y-36805952D01*
X24907142Y-36805952D02*
X25040476Y-36615476D01*
X25135714Y-36805952D02*
X25135714Y-36405952D01*
X24983333Y-36405952D01*
X24945238Y-36425000D01*
X24926190Y-36444048D01*
X24907142Y-36482143D01*
X24907142Y-36539286D01*
X24926190Y-36577381D01*
X24945238Y-36596429D01*
X24983333Y-36615476D01*
X25135714Y-36615476D01*
X24754762Y-36444048D02*
X24735714Y-36425000D01*
X24697619Y-36405952D01*
X24602381Y-36405952D01*
X24564285Y-36425000D01*
X24545238Y-36444048D01*
X24526190Y-36482143D01*
X24526190Y-36520238D01*
X24545238Y-36577381D01*
X24773809Y-36805952D01*
X24526190Y-36805952D01*
X24392857Y-36405952D02*
X24145238Y-36405952D01*
X24278571Y-36558333D01*
X24221429Y-36558333D01*
X24183333Y-36577381D01*
X24164286Y-36596429D01*
X24145238Y-36634524D01*
X24145238Y-36729762D01*
X24164286Y-36767857D01*
X24183333Y-36786905D01*
X24221429Y-36805952D01*
X24335714Y-36805952D01*
X24373810Y-36786905D01*
X24392857Y-36767857D01*
X31230952Y-21592858D02*
X31040476Y-21459524D01*
X31230952Y-21364286D02*
X30830952Y-21364286D01*
X30830952Y-21516667D01*
X30850000Y-21554762D01*
X30869048Y-21573810D01*
X30907143Y-21592858D01*
X30964286Y-21592858D01*
X31002381Y-21573810D01*
X31021429Y-21554762D01*
X31040476Y-21516667D01*
X31040476Y-21364286D01*
X30869048Y-21745238D02*
X30850000Y-21764286D01*
X30830952Y-21802381D01*
X30830952Y-21897619D01*
X30850000Y-21935715D01*
X30869048Y-21954762D01*
X30907143Y-21973810D01*
X30945238Y-21973810D01*
X31002381Y-21954762D01*
X31230952Y-21726191D01*
X31230952Y-21973810D01*
X30964286Y-22316667D02*
X31230952Y-22316667D01*
X30811905Y-22221429D02*
X31097619Y-22126190D01*
X31097619Y-22373810D01*
X33130952Y-21542858D02*
X32940476Y-21409524D01*
X33130952Y-21314286D02*
X32730952Y-21314286D01*
X32730952Y-21466667D01*
X32750000Y-21504762D01*
X32769048Y-21523810D01*
X32807143Y-21542858D01*
X32864286Y-21542858D01*
X32902381Y-21523810D01*
X32921429Y-21504762D01*
X32940476Y-21466667D01*
X32940476Y-21314286D01*
X32769048Y-21695238D02*
X32750000Y-21714286D01*
X32730952Y-21752381D01*
X32730952Y-21847619D01*
X32750000Y-21885715D01*
X32769048Y-21904762D01*
X32807143Y-21923810D01*
X32845238Y-21923810D01*
X32902381Y-21904762D01*
X33130952Y-21676191D01*
X33130952Y-21923810D01*
X32730952Y-22285714D02*
X32730952Y-22095238D01*
X32921429Y-22076190D01*
X32902381Y-22095238D01*
X32883333Y-22133333D01*
X32883333Y-22228571D01*
X32902381Y-22266667D01*
X32921429Y-22285714D01*
X32959524Y-22304762D01*
X33054762Y-22304762D01*
X33092857Y-22285714D01*
X33111905Y-22266667D01*
X33130952Y-22228571D01*
X33130952Y-22133333D01*
X33111905Y-22095238D01*
X33092857Y-22076190D01*
X32323810Y-16614286D02*
X32300000Y-16566667D01*
X32252381Y-16519048D01*
X32180952Y-16447619D01*
X32157143Y-16400000D01*
X32157143Y-16352381D01*
X32276190Y-16376191D02*
X32252381Y-16328572D01*
X32204762Y-16280953D01*
X32109524Y-16257143D01*
X31942857Y-16257143D01*
X31847619Y-16280953D01*
X31800000Y-16328572D01*
X31776190Y-16376191D01*
X31776190Y-16471429D01*
X31800000Y-16519048D01*
X31847619Y-16566667D01*
X31942857Y-16590476D01*
X32109524Y-16590476D01*
X32204762Y-16566667D01*
X32252381Y-16519048D01*
X32276190Y-16471429D01*
X32276190Y-16376191D01*
X32276190Y-17066667D02*
X32276190Y-16780953D01*
X32276190Y-16923810D02*
X31776190Y-16923810D01*
X31847619Y-16876191D01*
X31895238Y-16828572D01*
X31919048Y-16780953D01*
X31776190Y-17519048D02*
X31776190Y-17280953D01*
X32014286Y-17257143D01*
X31990476Y-17280953D01*
X31966667Y-17328572D01*
X31966667Y-17447619D01*
X31990476Y-17495238D01*
X32014286Y-17519048D01*
X32061905Y-17542857D01*
X32180952Y-17542857D01*
X32228571Y-17519048D01*
X32252381Y-17495238D01*
X32276190Y-17447619D01*
X32276190Y-17328572D01*
X32252381Y-17280953D01*
X32228571Y-17257143D01*
X31180952Y-13192858D02*
X30990476Y-13059524D01*
X31180952Y-12964286D02*
X30780952Y-12964286D01*
X30780952Y-13116667D01*
X30800000Y-13154762D01*
X30819048Y-13173810D01*
X30857143Y-13192858D01*
X30914286Y-13192858D01*
X30952381Y-13173810D01*
X30971429Y-13154762D01*
X30990476Y-13116667D01*
X30990476Y-12964286D01*
X30819048Y-13345238D02*
X30800000Y-13364286D01*
X30780952Y-13402381D01*
X30780952Y-13497619D01*
X30800000Y-13535715D01*
X30819048Y-13554762D01*
X30857143Y-13573810D01*
X30895238Y-13573810D01*
X30952381Y-13554762D01*
X31180952Y-13326191D01*
X31180952Y-13573810D01*
X30780952Y-13916667D02*
X30780952Y-13840476D01*
X30800000Y-13802381D01*
X30819048Y-13783333D01*
X30876190Y-13745238D01*
X30952381Y-13726190D01*
X31104762Y-13726190D01*
X31142857Y-13745238D01*
X31161905Y-13764286D01*
X31180952Y-13802381D01*
X31180952Y-13878571D01*
X31161905Y-13916667D01*
X31142857Y-13935714D01*
X31104762Y-13954762D01*
X31009524Y-13954762D01*
X30971429Y-13935714D01*
X30952381Y-13916667D01*
X30933333Y-13878571D01*
X30933333Y-13802381D01*
X30952381Y-13764286D01*
X30971429Y-13745238D01*
X31009524Y-13726190D01*
X33180952Y-13192858D02*
X32990476Y-13059524D01*
X33180952Y-12964286D02*
X32780952Y-12964286D01*
X32780952Y-13116667D01*
X32800000Y-13154762D01*
X32819048Y-13173810D01*
X32857143Y-13192858D01*
X32914286Y-13192858D01*
X32952381Y-13173810D01*
X32971429Y-13154762D01*
X32990476Y-13116667D01*
X32990476Y-12964286D01*
X32819048Y-13345238D02*
X32800000Y-13364286D01*
X32780952Y-13402381D01*
X32780952Y-13497619D01*
X32800000Y-13535715D01*
X32819048Y-13554762D01*
X32857143Y-13573810D01*
X32895238Y-13573810D01*
X32952381Y-13554762D01*
X33180952Y-13326191D01*
X33180952Y-13573810D01*
X32780952Y-13707143D02*
X32780952Y-13973810D01*
X33180952Y-13802381D01*
D12*
X7782381Y-39016667D02*
X8496667Y-39016667D01*
X8639524Y-38969047D01*
X8734762Y-38873809D01*
X8782381Y-38730952D01*
X8782381Y-38635714D01*
X8782381Y-40016667D02*
X8782381Y-39445238D01*
X8782381Y-39730952D02*
X7782381Y-39730952D01*
X7925238Y-39635714D01*
X8020476Y-39540476D01*
X8068095Y-39445238D01*
D11*
X31050000Y-32307143D02*
X31064286Y-32321429D01*
X31107143Y-32335714D01*
X31135714Y-32335714D01*
X31178571Y-32321429D01*
X31207143Y-32292857D01*
X31221428Y-32264286D01*
X31235714Y-32207143D01*
X31235714Y-32164286D01*
X31221428Y-32107143D01*
X31207143Y-32078571D01*
X31178571Y-32050000D01*
X31135714Y-32035714D01*
X31107143Y-32035714D01*
X31064286Y-32050000D01*
X31050000Y-32064286D01*
X30935714Y-32064286D02*
X30921428Y-32050000D01*
X30892857Y-32035714D01*
X30821428Y-32035714D01*
X30792857Y-32050000D01*
X30778571Y-32064286D01*
X30764286Y-32092857D01*
X30764286Y-32121429D01*
X30778571Y-32164286D01*
X30950000Y-32335714D01*
X30764286Y-32335714D01*
X22130952Y-44683334D02*
X21940476Y-44550000D01*
X22130952Y-44454762D02*
X21730952Y-44454762D01*
X21730952Y-44607143D01*
X21750000Y-44645238D01*
X21769048Y-44664286D01*
X21807143Y-44683334D01*
X21864286Y-44683334D01*
X21902381Y-44664286D01*
X21921429Y-44645238D01*
X21940476Y-44607143D01*
X21940476Y-44454762D01*
X21864286Y-45026191D02*
X22130952Y-45026191D01*
X21711905Y-44930953D02*
X21997619Y-44835714D01*
X21997619Y-45083334D01*
X22280952Y-39308334D02*
X22090476Y-39175000D01*
X22280952Y-39079762D02*
X21880952Y-39079762D01*
X21880952Y-39232143D01*
X21900000Y-39270238D01*
X21919048Y-39289286D01*
X21957143Y-39308334D01*
X22014286Y-39308334D01*
X22052381Y-39289286D01*
X22071429Y-39270238D01*
X22090476Y-39232143D01*
X22090476Y-39079762D01*
X21880952Y-39670238D02*
X21880952Y-39479762D01*
X22071429Y-39460714D01*
X22052381Y-39479762D01*
X22033333Y-39517857D01*
X22033333Y-39613095D01*
X22052381Y-39651191D01*
X22071429Y-39670238D01*
X22109524Y-39689286D01*
X22204762Y-39689286D01*
X22242857Y-39670238D01*
X22261905Y-39651191D01*
X22280952Y-39613095D01*
X22280952Y-39517857D01*
X22261905Y-39479762D01*
X22242857Y-39460714D01*
D13*
X13011905Y-51090476D02*
X13659524Y-51090476D01*
X13735714Y-51128571D01*
X13773810Y-51166667D01*
X13811905Y-51242857D01*
X13811905Y-51395238D01*
X13773810Y-51471429D01*
X13735714Y-51509524D01*
X13659524Y-51547619D01*
X13011905Y-51547619D01*
X13278571Y-52271428D02*
X13811905Y-52271428D01*
X12973810Y-52080952D02*
X13545238Y-51890476D01*
X13545238Y-52385714D01*
D12*
X40263333Y817619D02*
X40263333Y103333D01*
X40310953Y-39524D01*
X40406191Y-134762D01*
X40549048Y-182381D01*
X40644286Y-182381D01*
X39834762Y722381D02*
X39787143Y770000D01*
X39691905Y817619D01*
X39453809Y817619D01*
X39358571Y770000D01*
X39310952Y722381D01*
X39263333Y627143D01*
X39263333Y531905D01*
X39310952Y389048D01*
X39882381Y-182381D01*
X39263333Y-182381D01*
X40213333Y-30182381D02*
X40213333Y-30896667D01*
X40260953Y-31039524D01*
X40356191Y-31134762D01*
X40499048Y-31182381D01*
X40594286Y-31182381D01*
X39832381Y-30182381D02*
X39213333Y-30182381D01*
X39546667Y-30563333D01*
X39403809Y-30563333D01*
X39308571Y-30610952D01*
X39260952Y-30658571D01*
X39213333Y-30753810D01*
X39213333Y-30991905D01*
X39260952Y-31087143D01*
X39308571Y-31134762D01*
X39403809Y-31182381D01*
X39689524Y-31182381D01*
X39784762Y-31134762D01*
X39832381Y-31087143D01*
M02*
