M48
;DRILL file {KiCad 4.0.7} date 11/17/17 19:54:19
;FORMAT={-:-/ absolute / metric / decimal}
FMAT,2
METRIC,TZ
T1C0.300
T2C0.600
T3C0.762
T4C0.800
T5C1.000
T6C3.150
%
G90
G05
M71
T1
X1.6Y-30.74
X1.65Y-28.72
X2.361Y-26.23
X2.6Y-18.2
X2.623Y-21.253
X3.09Y-24.38
X3.57Y-26.36
X4.7Y-16.4
X5.Y-18.1
X6.15Y-32.65
X6.16Y-29.3
X6.925Y-16.7
X7.993Y-19.01
X8.83Y-23.28
X8.88Y-19.719
X9.85Y-23.3
X10.62Y-24.399
X12.47Y-35.695
X13.103Y-35.642
X13.274Y-19.024
X13.55Y-38.7
X13.57Y-22.51
X13.6Y-2.
X13.6Y-43.7
X13.628Y-28.68
X13.85Y-15.75
X13.85Y-35.65
X14.07Y-23.72
X14.1Y-34.25
X14.24Y-37.66
X14.25Y-1.25
X14.8Y-21.825
X14.87Y-2.
X15.298Y-17.345
X16.65Y-16.45
X16.775Y-15.025
X16.85Y-19.1
X16.99Y-43.23
X17.Y-32.05
X17.55Y-36.95
X18.14Y-47.23
X18.5Y-53.8
X18.68Y-1.975
X18.8Y-15.525
X18.8Y-54.65
X19.14Y-47.12
X19.54Y-27.07
X21.1Y-17.8
X21.109Y-30.094
X21.15Y-16.5
X21.398Y-29.509
X21.481Y-47.72
X21.668Y-27.73
X21.911Y-52.259
X22.25Y-14.3
X22.7Y-30.15
X22.78Y-53.868
X22.998Y-47.72
X23.405Y-32.05
X23.5Y-19.35
X23.7Y-37.65
X23.777Y-27.63
X23.851Y-27.035
X24.026Y-55.245
X24.1Y-52.05
X24.225Y-43.27
X24.242Y-47.573
X24.85Y-38.45
X25.13Y-47.03
X25.45Y-52.475
X25.916Y-52.978
X26.55Y-54.6
X27.14Y-32.055
X27.18Y-47.28
X27.2Y-37.05
X27.2Y-43.2
X27.208Y-39.425
X27.772Y-32.05
X27.85Y-35.3
X27.85Y-39.45
X28.15Y-24.75
X28.84Y-1.975
X29.Y-39.35
X29.044Y-42.53
X29.3Y-35.9
X29.4Y-1.6
X29.45Y-32.05
X29.9Y-14.85
X29.92Y-44.05
X30.91Y-37.59
X31.05Y-18.65
X32.15Y-1.4
X32.35Y-33.4
X32.65Y-1.975
X33.8Y-46.43
X33.914Y-36.232
X34.04Y-41.86
X34.24Y-47.05
T2
X14.103Y-51.587
X16.05Y-47.
X16.45Y-26.05
X20.17Y-26.05
X20.4Y-35.5
X20.4Y-38.15
X20.4Y-41.15
T3
X35.15Y-12.95
X35.15Y-17.95
X35.2Y-21.3
X35.2Y-26.3
T4
X1.65Y-19.5
X7.05Y-19.35
X10.1Y-18.2
X10.1Y-21.872
X11.693Y-14.892
X11.693Y-25.18
X12.28Y-52.89
X14.564Y-12.603
X14.564Y-27.469
X15.5Y-31.65
X18.143Y-11.786
X18.143Y-28.286
X20.4Y-46.1
X21.723Y-12.603
X24.593Y-14.892
X24.593Y-25.18
X26.186Y-18.2
X26.186Y-21.872
X27.8Y-19.75
X29.45Y-23.05
X29.55Y-25.2
T5
X11.1Y-2.
X11.1Y-33.
X11.1Y-35.54
X11.1Y-38.08
X11.1Y-40.62
X11.1Y-43.16
X11.1Y-45.7
X35.5Y-33.
X35.5Y-35.54
X35.5Y-38.08
X35.5Y-40.62
X35.5Y-43.16
X35.5Y-45.7
X35.55Y-2.
T6
X3.5Y-7.7
X4.7Y-51.9
X33.03Y-51.9
X33.3Y-7.7
T0
M30
