%TF.GenerationSoftware,KiCad,Pcbnew,4.0.7*%
%TF.CreationDate,2017-11-16T21:01:15+08:00*%
%TF.ProjectId,finalRoundNixie,66696E616C526F756E644E697869652E,rev?*%
%TF.FileFunction,Paste,Bot*%
%FSLAX46Y46*%
G04 Gerber Fmt 4.6, Leading zero omitted, Abs format (unit mm)*
G04 Created by KiCad (PCBNEW 4.0.7) date 11/16/17 21:01:15*
%MOMM*%
%LPD*%
G01*
G04 APERTURE LIST*
%ADD10C,0.100000*%
%ADD11R,0.800000X0.750000*%
%ADD12R,0.900000X0.800000*%
%ADD13R,0.500000X0.900000*%
%ADD14R,0.900000X0.500000*%
%ADD15R,0.600000X2.000000*%
%ADD16O,0.600000X2.000000*%
%ADD17R,2.000000X0.600000*%
%ADD18O,2.000000X0.600000*%
%ADD19R,2.000000X3.800000*%
%ADD20R,2.000000X1.500000*%
G04 APERTURE END LIST*
D10*
D11*
X31750000Y-30500000D03*
X30250000Y-30500000D03*
D12*
X3600000Y-14700000D03*
X3600000Y-16600000D03*
X1600000Y-15650000D03*
D11*
X30250000Y-34350000D03*
X31750000Y-34350000D03*
D12*
X7875000Y-14725000D03*
X7875000Y-16625000D03*
X5875000Y-15675000D03*
X25750000Y-33050000D03*
X25750000Y-34950000D03*
X23750000Y-34000000D03*
X18750000Y-44000000D03*
X18750000Y-45900000D03*
X16750000Y-44950000D03*
X18750000Y-38425000D03*
X18750000Y-40325000D03*
X16750000Y-39375000D03*
X32800000Y-43925000D03*
X32800000Y-45825000D03*
X30800000Y-44875000D03*
X18750000Y-33050000D03*
X18750000Y-34950000D03*
X16750000Y-34000000D03*
X25750000Y-44000000D03*
X25750000Y-45900000D03*
X23750000Y-44950000D03*
X32800000Y-38425000D03*
X32800000Y-40325000D03*
X30800000Y-39375000D03*
X25750000Y-38425000D03*
X25750000Y-40325000D03*
X23750000Y-39375000D03*
X17750000Y-23050000D03*
X17750000Y-24950000D03*
X15750000Y-24000000D03*
X17650000Y-19050000D03*
X17650000Y-20950000D03*
X15650000Y-20000000D03*
X17650000Y-15250000D03*
X17650000Y-17150000D03*
X15650000Y-16200000D03*
X33150000Y-24200000D03*
X33150000Y-26100000D03*
X31150000Y-25150000D03*
D13*
X7725000Y-18075000D03*
X6225000Y-18075000D03*
X3350000Y-18150000D03*
X1850000Y-18150000D03*
D14*
X29000000Y-44350000D03*
X29000000Y-45850000D03*
X21950000Y-33400000D03*
X21950000Y-34900000D03*
X14950000Y-44425000D03*
X14950000Y-45925000D03*
X14950000Y-38625000D03*
X14950000Y-40125000D03*
X14950000Y-33400000D03*
X14950000Y-34900000D03*
X29000000Y-38625000D03*
X29000000Y-40125000D03*
D13*
X21100000Y-23000000D03*
X19600000Y-23000000D03*
X21100000Y-18950000D03*
X19600000Y-18950000D03*
X21100000Y-15500000D03*
X19600000Y-15500000D03*
X7675000Y-13175000D03*
X6175000Y-13175000D03*
X24100000Y-31000000D03*
X25600000Y-31000000D03*
X1800000Y-13150000D03*
X3300000Y-13150000D03*
X16950000Y-42250000D03*
X18450000Y-42250000D03*
X16750000Y-36625000D03*
X18250000Y-36625000D03*
X31000000Y-42125000D03*
X32500000Y-42125000D03*
X16950000Y-31000000D03*
X18450000Y-31000000D03*
X23950000Y-42275000D03*
X25450000Y-42275000D03*
X30800000Y-36625000D03*
X32300000Y-36625000D03*
X23900000Y-36625000D03*
X25400000Y-36625000D03*
D14*
X31050000Y-22600000D03*
X31050000Y-21100000D03*
X32950000Y-21050000D03*
X32950000Y-22550000D03*
D15*
X19490000Y-48570000D03*
D16*
X20760000Y-48570000D03*
X22030000Y-48570000D03*
X23300000Y-48570000D03*
X24570000Y-48570000D03*
X25840000Y-48570000D03*
X27110000Y-48570000D03*
X27110000Y-54420000D03*
X25840000Y-54420000D03*
X24570000Y-54420000D03*
X23300000Y-54420000D03*
X22030000Y-54420000D03*
X20760000Y-54420000D03*
X19490000Y-54420000D03*
X28380000Y-48570000D03*
X28380000Y-54420000D03*
D17*
X7500000Y-20580000D03*
D18*
X7500000Y-21850000D03*
X7500000Y-23120000D03*
X7500000Y-24390000D03*
X7500000Y-25660000D03*
X7500000Y-26930000D03*
X7500000Y-28200000D03*
X1650000Y-28200000D03*
X1650000Y-26930000D03*
X1650000Y-25660000D03*
X1650000Y-24390000D03*
X1650000Y-23120000D03*
X1650000Y-21850000D03*
X1650000Y-20580000D03*
X7500000Y-29470000D03*
X1650000Y-29470000D03*
D12*
X33050000Y-15950000D03*
X33050000Y-17850000D03*
X31050000Y-16900000D03*
D14*
X31000000Y-14200000D03*
X31000000Y-12700000D03*
X33000000Y-12700000D03*
X33000000Y-14200000D03*
D11*
X31750000Y-32200000D03*
X30250000Y-32200000D03*
D14*
X21950000Y-44000000D03*
X21950000Y-45500000D03*
X22100000Y-38625000D03*
X22100000Y-40125000D03*
D19*
X16600000Y-51700000D03*
D20*
X10300000Y-51700000D03*
X10300000Y-49400000D03*
X10300000Y-54000000D03*
M02*
