%TF.GenerationSoftware,KiCad,Pcbnew,4.0.7*%
%TF.CreationDate,2017-11-16T21:01:15+08:00*%
%TF.ProjectId,finalRoundNixie,66696E616C526F756E644E697869652E,rev?*%
%TF.FileFunction,Legend,Bot*%
%FSLAX46Y46*%
G04 Gerber Fmt 4.6, Leading zero omitted, Abs format (unit mm)*
G04 Created by KiCad (PCBNEW 4.0.7) date 11/16/17 21:01:15*
%MOMM*%
%LPD*%
G01*
G04 APERTURE LIST*
%ADD10C,0.100000*%
%ADD11C,0.300000*%
%ADD12C,0.200000*%
%ADD13C,0.120000*%
%ADD14C,0.150000*%
%ADD15C,0.153000*%
G04 APERTURE END LIST*
D10*
D11*
X24071428Y-2708571D02*
X24071428Y-1208571D01*
X24071428Y-1922857D02*
X23214285Y-1922857D01*
X23214285Y-2708571D02*
X23214285Y-1208571D01*
X22714285Y-1208571D02*
X22214285Y-2708571D01*
X21714285Y-1208571D01*
D12*
X32900000Y-11600000D02*
X32900000Y-11900000D01*
X29900000Y-11600000D02*
X32900000Y-11600000D01*
D13*
X31350000Y-29900000D02*
X30650000Y-29900000D01*
X30650000Y-31100000D02*
X31350000Y-31100000D01*
X1840000Y-17230000D02*
X1840000Y-16300000D01*
X1840000Y-14070000D02*
X1840000Y-15000000D01*
X1840000Y-14070000D02*
X4000000Y-14070000D01*
X1840000Y-17230000D02*
X3300000Y-17230000D01*
X30650000Y-34950000D02*
X31350000Y-34950000D01*
X31350000Y-33750000D02*
X30650000Y-33750000D01*
X9660000Y-670000D02*
X9660000Y-3330000D01*
X9660000Y-3330000D02*
X7000000Y-3330000D01*
X7000000Y-3330000D02*
X7000000Y-670000D01*
X7000000Y-670000D02*
X9660000Y-670000D01*
X7000000Y-1620000D02*
X1000000Y-1620000D01*
X1000000Y-1620000D02*
X1000000Y-2380000D01*
X1000000Y-2380000D02*
X7000000Y-2380000D01*
X7000000Y-1680000D02*
X1000000Y-1680000D01*
X7000000Y-1800000D02*
X1000000Y-1800000D01*
X7000000Y-1920000D02*
X1000000Y-1920000D01*
X7000000Y-2040000D02*
X1000000Y-2040000D01*
X7000000Y-2160000D02*
X1000000Y-2160000D01*
X7000000Y-2280000D02*
X1000000Y-2280000D01*
X9990000Y-1620000D02*
X9660000Y-1620000D01*
X9990000Y-2380000D02*
X9660000Y-2380000D01*
X12370000Y-2000000D02*
X12370000Y-730000D01*
X12370000Y-730000D02*
X11100000Y-730000D01*
X6115000Y-17255000D02*
X6115000Y-16325000D01*
X6115000Y-14095000D02*
X6115000Y-15025000D01*
X6115000Y-14095000D02*
X8275000Y-14095000D01*
X6115000Y-17255000D02*
X7575000Y-17255000D01*
X23990000Y-35580000D02*
X23990000Y-34650000D01*
X23990000Y-32420000D02*
X23990000Y-33350000D01*
X23990000Y-32420000D02*
X26150000Y-32420000D01*
X23990000Y-35580000D02*
X25450000Y-35580000D01*
X16990000Y-46530000D02*
X16990000Y-45600000D01*
X16990000Y-43370000D02*
X16990000Y-44300000D01*
X16990000Y-43370000D02*
X19150000Y-43370000D01*
X16990000Y-46530000D02*
X18450000Y-46530000D01*
X16990000Y-40955000D02*
X16990000Y-40025000D01*
X16990000Y-37795000D02*
X16990000Y-38725000D01*
X16990000Y-37795000D02*
X19150000Y-37795000D01*
X16990000Y-40955000D02*
X18450000Y-40955000D01*
X31040000Y-46455000D02*
X31040000Y-45525000D01*
X31040000Y-43295000D02*
X31040000Y-44225000D01*
X31040000Y-43295000D02*
X33200000Y-43295000D01*
X31040000Y-46455000D02*
X32500000Y-46455000D01*
X16990000Y-35580000D02*
X16990000Y-34650000D01*
X16990000Y-32420000D02*
X16990000Y-33350000D01*
X16990000Y-32420000D02*
X19150000Y-32420000D01*
X16990000Y-35580000D02*
X18450000Y-35580000D01*
X23990000Y-46530000D02*
X23990000Y-45600000D01*
X23990000Y-43370000D02*
X23990000Y-44300000D01*
X23990000Y-43370000D02*
X26150000Y-43370000D01*
X23990000Y-46530000D02*
X25450000Y-46530000D01*
X31040000Y-40955000D02*
X31040000Y-40025000D01*
X31040000Y-37795000D02*
X31040000Y-38725000D01*
X31040000Y-37795000D02*
X33200000Y-37795000D01*
X31040000Y-40955000D02*
X32500000Y-40955000D01*
X23990000Y-40955000D02*
X23990000Y-40025000D01*
X23990000Y-37795000D02*
X23990000Y-38725000D01*
X23990000Y-37795000D02*
X26150000Y-37795000D01*
X23990000Y-40955000D02*
X25450000Y-40955000D01*
X15990000Y-25580000D02*
X15990000Y-24650000D01*
X15990000Y-22420000D02*
X15990000Y-23350000D01*
X15990000Y-22420000D02*
X18150000Y-22420000D01*
X15990000Y-25580000D02*
X17450000Y-25580000D01*
X15890000Y-21580000D02*
X15890000Y-20650000D01*
X15890000Y-18420000D02*
X15890000Y-19350000D01*
X15890000Y-18420000D02*
X18050000Y-18420000D01*
X15890000Y-21580000D02*
X17350000Y-21580000D01*
X15890000Y-17780000D02*
X15890000Y-16850000D01*
X15890000Y-14620000D02*
X15890000Y-15550000D01*
X15890000Y-14620000D02*
X18050000Y-14620000D01*
X15890000Y-17780000D02*
X17350000Y-17780000D01*
X31390000Y-26730000D02*
X31390000Y-25800000D01*
X31390000Y-23570000D02*
X31390000Y-24500000D01*
X31390000Y-23570000D02*
X33550000Y-23570000D01*
X31390000Y-26730000D02*
X32850000Y-26730000D01*
X6475000Y-18755000D02*
X7475000Y-18755000D01*
X7475000Y-17395000D02*
X6475000Y-17395000D01*
X2100000Y-18830000D02*
X3100000Y-18830000D01*
X3100000Y-17470000D02*
X2100000Y-17470000D01*
X29680000Y-45600000D02*
X29680000Y-44600000D01*
X28320000Y-44600000D02*
X28320000Y-45600000D01*
X22630000Y-34650000D02*
X22630000Y-33650000D01*
X21270000Y-33650000D02*
X21270000Y-34650000D01*
X15630000Y-45675000D02*
X15630000Y-44675000D01*
X14270000Y-44675000D02*
X14270000Y-45675000D01*
X15630000Y-39875000D02*
X15630000Y-38875000D01*
X14270000Y-38875000D02*
X14270000Y-39875000D01*
X15630000Y-34650000D02*
X15630000Y-33650000D01*
X14270000Y-33650000D02*
X14270000Y-34650000D01*
X29680000Y-39875000D02*
X29680000Y-38875000D01*
X28320000Y-38875000D02*
X28320000Y-39875000D01*
X19850000Y-23680000D02*
X20850000Y-23680000D01*
X20850000Y-22320000D02*
X19850000Y-22320000D01*
X19850000Y-19630000D02*
X20850000Y-19630000D01*
X20850000Y-18270000D02*
X19850000Y-18270000D01*
X19850000Y-16180000D02*
X20850000Y-16180000D01*
X20850000Y-14820000D02*
X19850000Y-14820000D01*
X6425000Y-13855000D02*
X7425000Y-13855000D01*
X7425000Y-12495000D02*
X6425000Y-12495000D01*
X25350000Y-30320000D02*
X24350000Y-30320000D01*
X24350000Y-31680000D02*
X25350000Y-31680000D01*
X3050000Y-12470000D02*
X2050000Y-12470000D01*
X2050000Y-13830000D02*
X3050000Y-13830000D01*
X18200000Y-41570000D02*
X17200000Y-41570000D01*
X17200000Y-42930000D02*
X18200000Y-42930000D01*
X18000000Y-35945000D02*
X17000000Y-35945000D01*
X17000000Y-37305000D02*
X18000000Y-37305000D01*
X32250000Y-41445000D02*
X31250000Y-41445000D01*
X31250000Y-42805000D02*
X32250000Y-42805000D01*
X18200000Y-30320000D02*
X17200000Y-30320000D01*
X17200000Y-31680000D02*
X18200000Y-31680000D01*
X25200000Y-41595000D02*
X24200000Y-41595000D01*
X24200000Y-42955000D02*
X25200000Y-42955000D01*
X32050000Y-35945000D02*
X31050000Y-35945000D01*
X31050000Y-37305000D02*
X32050000Y-37305000D01*
X25150000Y-35945000D02*
X24150000Y-35945000D01*
X24150000Y-37305000D02*
X25150000Y-37305000D01*
X30370000Y-21350000D02*
X30370000Y-22350000D01*
X31730000Y-22350000D02*
X31730000Y-21350000D01*
X33630000Y-22300000D02*
X33630000Y-21300000D01*
X32270000Y-21300000D02*
X32270000Y-22300000D01*
D14*
X27685000Y-49695000D02*
X28935000Y-49695000D01*
X27660000Y-53295000D02*
X28935000Y-53295000D01*
X19025000Y-47645000D02*
X19025000Y-47845000D01*
X19025000Y-47845000D02*
X19025000Y-49495000D01*
X18925000Y-49695000D02*
X27675000Y-49695000D01*
X28935000Y-49695000D02*
X28935000Y-53295000D01*
X27675000Y-53295000D02*
X18925000Y-53295000D01*
X18925000Y-53295000D02*
X18925000Y-49695000D01*
X6375000Y-28775000D02*
X6375000Y-30025000D01*
X2775000Y-28750000D02*
X2775000Y-30025000D01*
X8425000Y-20115000D02*
X8225000Y-20115000D01*
X8225000Y-20115000D02*
X6575000Y-20115000D01*
X6375000Y-20015000D02*
X6375000Y-28765000D01*
X6375000Y-30025000D02*
X2775000Y-30025000D01*
X2775000Y-28765000D02*
X2775000Y-20015000D01*
X2775000Y-20015000D02*
X6375000Y-20015000D01*
D13*
X31290000Y-18480000D02*
X31290000Y-17550000D01*
X31290000Y-15320000D02*
X31290000Y-16250000D01*
X31290000Y-15320000D02*
X33450000Y-15320000D01*
X31290000Y-18480000D02*
X32750000Y-18480000D01*
X30320000Y-12950000D02*
X30320000Y-13950000D01*
X31680000Y-13950000D02*
X31680000Y-12950000D01*
X33680000Y-13950000D02*
X33680000Y-12950000D01*
X32320000Y-12950000D02*
X32320000Y-13950000D01*
X9660000Y-31670000D02*
X9660000Y-47030000D01*
X9660000Y-47030000D02*
X7000000Y-47030000D01*
X7000000Y-47030000D02*
X7000000Y-31670000D01*
X7000000Y-31670000D02*
X9660000Y-31670000D01*
X7000000Y-32620000D02*
X1000000Y-32620000D01*
X1000000Y-32620000D02*
X1000000Y-33380000D01*
X1000000Y-33380000D02*
X7000000Y-33380000D01*
X7000000Y-32680000D02*
X1000000Y-32680000D01*
X7000000Y-32800000D02*
X1000000Y-32800000D01*
X7000000Y-32920000D02*
X1000000Y-32920000D01*
X7000000Y-33040000D02*
X1000000Y-33040000D01*
X7000000Y-33160000D02*
X1000000Y-33160000D01*
X7000000Y-33280000D02*
X1000000Y-33280000D01*
X9990000Y-32620000D02*
X9660000Y-32620000D01*
X9990000Y-33380000D02*
X9660000Y-33380000D01*
X9660000Y-34270000D02*
X7000000Y-34270000D01*
X7000000Y-35160000D02*
X1000000Y-35160000D01*
X1000000Y-35160000D02*
X1000000Y-35920000D01*
X1000000Y-35920000D02*
X7000000Y-35920000D01*
X10057071Y-35160000D02*
X9660000Y-35160000D01*
X10057071Y-35920000D02*
X9660000Y-35920000D01*
X9660000Y-36810000D02*
X7000000Y-36810000D01*
X7000000Y-37700000D02*
X1000000Y-37700000D01*
X1000000Y-37700000D02*
X1000000Y-38460000D01*
X1000000Y-38460000D02*
X7000000Y-38460000D01*
X10057071Y-37700000D02*
X9660000Y-37700000D01*
X10057071Y-38460000D02*
X9660000Y-38460000D01*
X9660000Y-39350000D02*
X7000000Y-39350000D01*
X7000000Y-40240000D02*
X1000000Y-40240000D01*
X1000000Y-40240000D02*
X1000000Y-41000000D01*
X1000000Y-41000000D02*
X7000000Y-41000000D01*
X10057071Y-40240000D02*
X9660000Y-40240000D01*
X10057071Y-41000000D02*
X9660000Y-41000000D01*
X9660000Y-41890000D02*
X7000000Y-41890000D01*
X7000000Y-42780000D02*
X1000000Y-42780000D01*
X1000000Y-42780000D02*
X1000000Y-43540000D01*
X1000000Y-43540000D02*
X7000000Y-43540000D01*
X10057071Y-42780000D02*
X9660000Y-42780000D01*
X10057071Y-43540000D02*
X9660000Y-43540000D01*
X9660000Y-44430000D02*
X7000000Y-44430000D01*
X7000000Y-45320000D02*
X1000000Y-45320000D01*
X1000000Y-45320000D02*
X1000000Y-46080000D01*
X1000000Y-46080000D02*
X7000000Y-46080000D01*
X10057071Y-45320000D02*
X9660000Y-45320000D01*
X10057071Y-46080000D02*
X9660000Y-46080000D01*
X12370000Y-33000000D02*
X12370000Y-31730000D01*
X12370000Y-31730000D02*
X11100000Y-31730000D01*
X31350000Y-31600000D02*
X30650000Y-31600000D01*
X30650000Y-32800000D02*
X31350000Y-32800000D01*
X22630000Y-45250000D02*
X22630000Y-44250000D01*
X21270000Y-44250000D02*
X21270000Y-45250000D01*
X22780000Y-39875000D02*
X22780000Y-38875000D01*
X21420000Y-38875000D02*
X21420000Y-39875000D01*
X15360000Y-48290000D02*
X15360000Y-49550000D01*
X15360000Y-55110000D02*
X15360000Y-53850000D01*
X11600000Y-48290000D02*
X15360000Y-48290000D01*
X9350000Y-55110000D02*
X15360000Y-55110000D01*
X35550000Y-730000D02*
X34280000Y-730000D01*
X34280000Y-730000D02*
X34280000Y-2000000D01*
X35500000Y-31730000D02*
X34230000Y-31730000D01*
X34230000Y-31730000D02*
X34230000Y-33000000D01*
D15*
X28901667Y-30943571D02*
X28942143Y-30984048D01*
X29063572Y-31024524D01*
X29144524Y-31024524D01*
X29265952Y-30984048D01*
X29346905Y-30903095D01*
X29387381Y-30822143D01*
X29427857Y-30660238D01*
X29427857Y-30538810D01*
X29387381Y-30376905D01*
X29346905Y-30295952D01*
X29265952Y-30215000D01*
X29144524Y-30174524D01*
X29063572Y-30174524D01*
X28942143Y-30215000D01*
X28901667Y-30255476D01*
X28618333Y-30174524D02*
X28092143Y-30174524D01*
X28375476Y-30498333D01*
X28254048Y-30498333D01*
X28173095Y-30538810D01*
X28132619Y-30579286D01*
X28092143Y-30660238D01*
X28092143Y-30862619D01*
X28132619Y-30943571D01*
X28173095Y-30984048D01*
X28254048Y-31024524D01*
X28496905Y-31024524D01*
X28577857Y-30984048D01*
X28618333Y-30943571D01*
X4995476Y-18199048D02*
X4955000Y-18118095D01*
X4874048Y-18037143D01*
X4752619Y-17915714D01*
X4712143Y-17834762D01*
X4712143Y-17753810D01*
X4914524Y-17794286D02*
X4874048Y-17713333D01*
X4793095Y-17632381D01*
X4631190Y-17591905D01*
X4347857Y-17591905D01*
X4185952Y-17632381D01*
X4105000Y-17713333D01*
X4064524Y-17794286D01*
X4064524Y-17956190D01*
X4105000Y-18037143D01*
X4185952Y-18118095D01*
X4347857Y-18158571D01*
X4631190Y-18158571D01*
X4793095Y-18118095D01*
X4874048Y-18037143D01*
X4914524Y-17956190D01*
X4914524Y-17794286D01*
X4064524Y-18441905D02*
X4064524Y-18968095D01*
X4388333Y-18684762D01*
X4388333Y-18806190D01*
X4428810Y-18887143D01*
X4469286Y-18927619D01*
X4550238Y-18968095D01*
X4752619Y-18968095D01*
X4833571Y-18927619D01*
X4874048Y-18887143D01*
X4914524Y-18806190D01*
X4914524Y-18563333D01*
X4874048Y-18482381D01*
X4833571Y-18441905D01*
X28871667Y-34733571D02*
X28912143Y-34774048D01*
X29033572Y-34814524D01*
X29114524Y-34814524D01*
X29235952Y-34774048D01*
X29316905Y-34693095D01*
X29357381Y-34612143D01*
X29397857Y-34450238D01*
X29397857Y-34328810D01*
X29357381Y-34166905D01*
X29316905Y-34085952D01*
X29235952Y-34005000D01*
X29114524Y-33964524D01*
X29033572Y-33964524D01*
X28912143Y-34005000D01*
X28871667Y-34045476D01*
X28062143Y-34814524D02*
X28547857Y-34814524D01*
X28305000Y-34814524D02*
X28305000Y-33964524D01*
X28385952Y-34085952D01*
X28466905Y-34166905D01*
X28547857Y-34207381D01*
X14283333Y-2034524D02*
X14283333Y-2641667D01*
X14323809Y-2763095D01*
X14404761Y-2844048D01*
X14526190Y-2884524D01*
X14607142Y-2884524D01*
X13514285Y-2317857D02*
X13514285Y-2884524D01*
X13716666Y-1994048D02*
X13919047Y-2601190D01*
X13392857Y-2601190D01*
X9915476Y-14679048D02*
X9875000Y-14598095D01*
X9794048Y-14517143D01*
X9672619Y-14395714D01*
X9632143Y-14314762D01*
X9632143Y-14233810D01*
X9834524Y-14274286D02*
X9794048Y-14193333D01*
X9713095Y-14112381D01*
X9551190Y-14071905D01*
X9267857Y-14071905D01*
X9105952Y-14112381D01*
X9025000Y-14193333D01*
X8984524Y-14274286D01*
X8984524Y-14436190D01*
X9025000Y-14517143D01*
X9105952Y-14598095D01*
X9267857Y-14638571D01*
X9551190Y-14638571D01*
X9713095Y-14598095D01*
X9794048Y-14517143D01*
X9834524Y-14436190D01*
X9834524Y-14274286D01*
X9834524Y-15448095D02*
X9834524Y-14962381D01*
X9834524Y-15205238D02*
X8984524Y-15205238D01*
X9105952Y-15124286D01*
X9186905Y-15043333D01*
X9227381Y-14962381D01*
X27605476Y-35059048D02*
X27565000Y-34978095D01*
X27484048Y-34897143D01*
X27362619Y-34775714D01*
X27322143Y-34694762D01*
X27322143Y-34613810D01*
X27524524Y-34654286D02*
X27484048Y-34573333D01*
X27403095Y-34492381D01*
X27241190Y-34451905D01*
X26957857Y-34451905D01*
X26795952Y-34492381D01*
X26715000Y-34573333D01*
X26674524Y-34654286D01*
X26674524Y-34816190D01*
X26715000Y-34897143D01*
X26795952Y-34978095D01*
X26957857Y-35018571D01*
X27241190Y-35018571D01*
X27403095Y-34978095D01*
X27484048Y-34897143D01*
X27524524Y-34816190D01*
X27524524Y-34654286D01*
X26755476Y-35342381D02*
X26715000Y-35382857D01*
X26674524Y-35463809D01*
X26674524Y-35666190D01*
X26715000Y-35747143D01*
X26755476Y-35787619D01*
X26836429Y-35828095D01*
X26917381Y-35828095D01*
X27038810Y-35787619D01*
X27524524Y-35301905D01*
X27524524Y-35828095D01*
X15290952Y-47755476D02*
X15371905Y-47715000D01*
X15452857Y-47634048D01*
X15574286Y-47512619D01*
X15655238Y-47472143D01*
X15736190Y-47472143D01*
X15695714Y-47674524D02*
X15776667Y-47634048D01*
X15857619Y-47553095D01*
X15898095Y-47391190D01*
X15898095Y-47107857D01*
X15857619Y-46945952D01*
X15776667Y-46865000D01*
X15695714Y-46824524D01*
X15533810Y-46824524D01*
X15452857Y-46865000D01*
X15371905Y-46945952D01*
X15331429Y-47107857D01*
X15331429Y-47391190D01*
X15371905Y-47553095D01*
X15452857Y-47634048D01*
X15533810Y-47674524D01*
X15695714Y-47674524D01*
X14602857Y-47107857D02*
X14602857Y-47674524D01*
X14805238Y-46784048D02*
X15007619Y-47391190D01*
X14481429Y-47391190D01*
X15310952Y-41825476D02*
X15391905Y-41785000D01*
X15472857Y-41704048D01*
X15594286Y-41582619D01*
X15675238Y-41542143D01*
X15756190Y-41542143D01*
X15715714Y-41744524D02*
X15796667Y-41704048D01*
X15877619Y-41623095D01*
X15918095Y-41461190D01*
X15918095Y-41177857D01*
X15877619Y-41015952D01*
X15796667Y-40935000D01*
X15715714Y-40894524D01*
X15553810Y-40894524D01*
X15472857Y-40935000D01*
X15391905Y-41015952D01*
X15351429Y-41177857D01*
X15351429Y-41461190D01*
X15391905Y-41623095D01*
X15472857Y-41704048D01*
X15553810Y-41744524D01*
X15715714Y-41744524D01*
X14582381Y-40894524D02*
X14987143Y-40894524D01*
X15027619Y-41299286D01*
X14987143Y-41258810D01*
X14906191Y-41218333D01*
X14703810Y-41218333D01*
X14622857Y-41258810D01*
X14582381Y-41299286D01*
X14541905Y-41380238D01*
X14541905Y-41582619D01*
X14582381Y-41663571D01*
X14622857Y-41704048D01*
X14703810Y-41744524D01*
X14906191Y-41744524D01*
X14987143Y-41704048D01*
X15027619Y-41663571D01*
X29410952Y-47535476D02*
X29491905Y-47495000D01*
X29572857Y-47414048D01*
X29694286Y-47292619D01*
X29775238Y-47252143D01*
X29856190Y-47252143D01*
X29815714Y-47454524D02*
X29896667Y-47414048D01*
X29977619Y-47333095D01*
X30018095Y-47171190D01*
X30018095Y-46887857D01*
X29977619Y-46725952D01*
X29896667Y-46645000D01*
X29815714Y-46604524D01*
X29653810Y-46604524D01*
X29572857Y-46645000D01*
X29491905Y-46725952D01*
X29451429Y-46887857D01*
X29451429Y-47171190D01*
X29491905Y-47333095D01*
X29572857Y-47414048D01*
X29653810Y-47454524D01*
X29815714Y-47454524D01*
X28722857Y-46604524D02*
X28884762Y-46604524D01*
X28965714Y-46645000D01*
X29006191Y-46685476D01*
X29087143Y-46806905D01*
X29127619Y-46968810D01*
X29127619Y-47292619D01*
X29087143Y-47373571D01*
X29046667Y-47414048D01*
X28965714Y-47454524D01*
X28803810Y-47454524D01*
X28722857Y-47414048D01*
X28682381Y-47373571D01*
X28641905Y-47292619D01*
X28641905Y-47090238D01*
X28682381Y-47009286D01*
X28722857Y-46968810D01*
X28803810Y-46928333D01*
X28965714Y-46928333D01*
X29046667Y-46968810D01*
X29087143Y-47009286D01*
X29127619Y-47090238D01*
X15230952Y-32645476D02*
X15311905Y-32605000D01*
X15392857Y-32524048D01*
X15514286Y-32402619D01*
X15595238Y-32362143D01*
X15676190Y-32362143D01*
X15635714Y-32564524D02*
X15716667Y-32524048D01*
X15797619Y-32443095D01*
X15838095Y-32281190D01*
X15838095Y-31997857D01*
X15797619Y-31835952D01*
X15716667Y-31755000D01*
X15635714Y-31714524D01*
X15473810Y-31714524D01*
X15392857Y-31755000D01*
X15311905Y-31835952D01*
X15271429Y-31997857D01*
X15271429Y-32281190D01*
X15311905Y-32443095D01*
X15392857Y-32524048D01*
X15473810Y-32564524D01*
X15635714Y-32564524D01*
X14988095Y-31714524D02*
X14421429Y-31714524D01*
X14785714Y-32564524D01*
X22260952Y-47365476D02*
X22341905Y-47325000D01*
X22422857Y-47244048D01*
X22544286Y-47122619D01*
X22625238Y-47082143D01*
X22706190Y-47082143D01*
X22665714Y-47284524D02*
X22746667Y-47244048D01*
X22827619Y-47163095D01*
X22868095Y-47001190D01*
X22868095Y-46717857D01*
X22827619Y-46555952D01*
X22746667Y-46475000D01*
X22665714Y-46434524D01*
X22503810Y-46434524D01*
X22422857Y-46475000D01*
X22341905Y-46555952D01*
X22301429Y-46717857D01*
X22301429Y-47001190D01*
X22341905Y-47163095D01*
X22422857Y-47244048D01*
X22503810Y-47284524D01*
X22665714Y-47284524D01*
X21815714Y-46798810D02*
X21896667Y-46758333D01*
X21937143Y-46717857D01*
X21977619Y-46636905D01*
X21977619Y-46596429D01*
X21937143Y-46515476D01*
X21896667Y-46475000D01*
X21815714Y-46434524D01*
X21653810Y-46434524D01*
X21572857Y-46475000D01*
X21532381Y-46515476D01*
X21491905Y-46596429D01*
X21491905Y-46636905D01*
X21532381Y-46717857D01*
X21572857Y-46758333D01*
X21653810Y-46798810D01*
X21815714Y-46798810D01*
X21896667Y-46839286D01*
X21937143Y-46879762D01*
X21977619Y-46960714D01*
X21977619Y-47122619D01*
X21937143Y-47203571D01*
X21896667Y-47244048D01*
X21815714Y-47284524D01*
X21653810Y-47284524D01*
X21572857Y-47244048D01*
X21532381Y-47203571D01*
X21491905Y-47122619D01*
X21491905Y-46960714D01*
X21532381Y-46879762D01*
X21572857Y-46839286D01*
X21653810Y-46798810D01*
X29270952Y-41875476D02*
X29351905Y-41835000D01*
X29432857Y-41754048D01*
X29554286Y-41632619D01*
X29635238Y-41592143D01*
X29716190Y-41592143D01*
X29675714Y-41794524D02*
X29756667Y-41754048D01*
X29837619Y-41673095D01*
X29878095Y-41511190D01*
X29878095Y-41227857D01*
X29837619Y-41065952D01*
X29756667Y-40985000D01*
X29675714Y-40944524D01*
X29513810Y-40944524D01*
X29432857Y-40985000D01*
X29351905Y-41065952D01*
X29311429Y-41227857D01*
X29311429Y-41511190D01*
X29351905Y-41673095D01*
X29432857Y-41754048D01*
X29513810Y-41794524D01*
X29675714Y-41794524D01*
X28906667Y-41794524D02*
X28744762Y-41794524D01*
X28663810Y-41754048D01*
X28623334Y-41713571D01*
X28542381Y-41592143D01*
X28501905Y-41430238D01*
X28501905Y-41106429D01*
X28542381Y-41025476D01*
X28582857Y-40985000D01*
X28663810Y-40944524D01*
X28825714Y-40944524D01*
X28906667Y-40985000D01*
X28947143Y-41025476D01*
X28987619Y-41106429D01*
X28987619Y-41308810D01*
X28947143Y-41389762D01*
X28906667Y-41430238D01*
X28825714Y-41470714D01*
X28663810Y-41470714D01*
X28582857Y-41430238D01*
X28542381Y-41389762D01*
X28501905Y-41308810D01*
X22225714Y-41725476D02*
X22306667Y-41685000D01*
X22387619Y-41604048D01*
X22509048Y-41482619D01*
X22590000Y-41442143D01*
X22670952Y-41442143D01*
X22630476Y-41644524D02*
X22711429Y-41604048D01*
X22792381Y-41523095D01*
X22832857Y-41361190D01*
X22832857Y-41077857D01*
X22792381Y-40915952D01*
X22711429Y-40835000D01*
X22630476Y-40794524D01*
X22468572Y-40794524D01*
X22387619Y-40835000D01*
X22306667Y-40915952D01*
X22266191Y-41077857D01*
X22266191Y-41361190D01*
X22306667Y-41523095D01*
X22387619Y-41604048D01*
X22468572Y-41644524D01*
X22630476Y-41644524D01*
X21456667Y-41644524D02*
X21942381Y-41644524D01*
X21699524Y-41644524D02*
X21699524Y-40794524D01*
X21780476Y-40915952D01*
X21861429Y-40996905D01*
X21942381Y-41037381D01*
X20930476Y-40794524D02*
X20849524Y-40794524D01*
X20768572Y-40835000D01*
X20728095Y-40875476D01*
X20687619Y-40956429D01*
X20647143Y-41118333D01*
X20647143Y-41320714D01*
X20687619Y-41482619D01*
X20728095Y-41563571D01*
X20768572Y-41604048D01*
X20849524Y-41644524D01*
X20930476Y-41644524D01*
X21011429Y-41604048D01*
X21051905Y-41563571D01*
X21092381Y-41482619D01*
X21132857Y-41320714D01*
X21132857Y-41118333D01*
X21092381Y-40956429D01*
X21051905Y-40875476D01*
X21011429Y-40835000D01*
X20930476Y-40794524D01*
X14755476Y-23534286D02*
X14715000Y-23453333D01*
X14634048Y-23372381D01*
X14512619Y-23250952D01*
X14472143Y-23170000D01*
X14472143Y-23089048D01*
X14674524Y-23129524D02*
X14634048Y-23048571D01*
X14553095Y-22967619D01*
X14391190Y-22927143D01*
X14107857Y-22927143D01*
X13945952Y-22967619D01*
X13865000Y-23048571D01*
X13824524Y-23129524D01*
X13824524Y-23291428D01*
X13865000Y-23372381D01*
X13945952Y-23453333D01*
X14107857Y-23493809D01*
X14391190Y-23493809D01*
X14553095Y-23453333D01*
X14634048Y-23372381D01*
X14674524Y-23291428D01*
X14674524Y-23129524D01*
X14674524Y-24303333D02*
X14674524Y-23817619D01*
X14674524Y-24060476D02*
X13824524Y-24060476D01*
X13945952Y-23979524D01*
X14026905Y-23898571D01*
X14067381Y-23817619D01*
X14674524Y-25112857D02*
X14674524Y-24627143D01*
X14674524Y-24870000D02*
X13824524Y-24870000D01*
X13945952Y-24789048D01*
X14026905Y-24708095D01*
X14067381Y-24627143D01*
X14675476Y-19454286D02*
X14635000Y-19373333D01*
X14554048Y-19292381D01*
X14432619Y-19170952D01*
X14392143Y-19090000D01*
X14392143Y-19009048D01*
X14594524Y-19049524D02*
X14554048Y-18968571D01*
X14473095Y-18887619D01*
X14311190Y-18847143D01*
X14027857Y-18847143D01*
X13865952Y-18887619D01*
X13785000Y-18968571D01*
X13744524Y-19049524D01*
X13744524Y-19211428D01*
X13785000Y-19292381D01*
X13865952Y-19373333D01*
X14027857Y-19413809D01*
X14311190Y-19413809D01*
X14473095Y-19373333D01*
X14554048Y-19292381D01*
X14594524Y-19211428D01*
X14594524Y-19049524D01*
X14594524Y-20223333D02*
X14594524Y-19737619D01*
X14594524Y-19980476D02*
X13744524Y-19980476D01*
X13865952Y-19899524D01*
X13946905Y-19818571D01*
X13987381Y-19737619D01*
X13825476Y-20547143D02*
X13785000Y-20587619D01*
X13744524Y-20668571D01*
X13744524Y-20870952D01*
X13785000Y-20951905D01*
X13825476Y-20992381D01*
X13906429Y-21032857D01*
X13987381Y-21032857D01*
X14108810Y-20992381D01*
X14594524Y-20506667D01*
X14594524Y-21032857D01*
X14555476Y-15554286D02*
X14515000Y-15473333D01*
X14434048Y-15392381D01*
X14312619Y-15270952D01*
X14272143Y-15190000D01*
X14272143Y-15109048D01*
X14474524Y-15149524D02*
X14434048Y-15068571D01*
X14353095Y-14987619D01*
X14191190Y-14947143D01*
X13907857Y-14947143D01*
X13745952Y-14987619D01*
X13665000Y-15068571D01*
X13624524Y-15149524D01*
X13624524Y-15311428D01*
X13665000Y-15392381D01*
X13745952Y-15473333D01*
X13907857Y-15513809D01*
X14191190Y-15513809D01*
X14353095Y-15473333D01*
X14434048Y-15392381D01*
X14474524Y-15311428D01*
X14474524Y-15149524D01*
X14474524Y-16323333D02*
X14474524Y-15837619D01*
X14474524Y-16080476D02*
X13624524Y-16080476D01*
X13745952Y-15999524D01*
X13826905Y-15918571D01*
X13867381Y-15837619D01*
X13624524Y-16606667D02*
X13624524Y-17132857D01*
X13948333Y-16849524D01*
X13948333Y-16970952D01*
X13988810Y-17051905D01*
X14029286Y-17092381D01*
X14110238Y-17132857D01*
X14312619Y-17132857D01*
X14393571Y-17092381D01*
X14434048Y-17051905D01*
X14474524Y-16970952D01*
X14474524Y-16728095D01*
X14434048Y-16647143D01*
X14393571Y-16606667D01*
X30255476Y-24784286D02*
X30215000Y-24703333D01*
X30134048Y-24622381D01*
X30012619Y-24500952D01*
X29972143Y-24420000D01*
X29972143Y-24339048D01*
X30174524Y-24379524D02*
X30134048Y-24298571D01*
X30053095Y-24217619D01*
X29891190Y-24177143D01*
X29607857Y-24177143D01*
X29445952Y-24217619D01*
X29365000Y-24298571D01*
X29324524Y-24379524D01*
X29324524Y-24541428D01*
X29365000Y-24622381D01*
X29445952Y-24703333D01*
X29607857Y-24743809D01*
X29891190Y-24743809D01*
X30053095Y-24703333D01*
X30134048Y-24622381D01*
X30174524Y-24541428D01*
X30174524Y-24379524D01*
X30174524Y-25553333D02*
X30174524Y-25067619D01*
X30174524Y-25310476D02*
X29324524Y-25310476D01*
X29445952Y-25229524D01*
X29526905Y-25148571D01*
X29567381Y-25067619D01*
X29607857Y-26281905D02*
X30174524Y-26281905D01*
X29284048Y-26079524D02*
X29891190Y-25877143D01*
X29891190Y-26403333D01*
X7261667Y-19764524D02*
X7545000Y-19359762D01*
X7747381Y-19764524D02*
X7747381Y-18914524D01*
X7423572Y-18914524D01*
X7342619Y-18955000D01*
X7302143Y-18995476D01*
X7261667Y-19076429D01*
X7261667Y-19197857D01*
X7302143Y-19278810D01*
X7342619Y-19319286D01*
X7423572Y-19359762D01*
X7747381Y-19359762D01*
X6452143Y-19764524D02*
X6937857Y-19764524D01*
X6695000Y-19764524D02*
X6695000Y-18914524D01*
X6775952Y-19035952D01*
X6856905Y-19116905D01*
X6937857Y-19157381D01*
X2761667Y-19844524D02*
X3045000Y-19439762D01*
X3247381Y-19844524D02*
X3247381Y-18994524D01*
X2923572Y-18994524D01*
X2842619Y-19035000D01*
X2802143Y-19075476D01*
X2761667Y-19156429D01*
X2761667Y-19277857D01*
X2802143Y-19358810D01*
X2842619Y-19399286D01*
X2923572Y-19439762D01*
X3247381Y-19439762D01*
X2437857Y-19075476D02*
X2397381Y-19035000D01*
X2316429Y-18994524D01*
X2114048Y-18994524D01*
X2033095Y-19035000D01*
X1992619Y-19075476D01*
X1952143Y-19156429D01*
X1952143Y-19237381D01*
X1992619Y-19358810D01*
X2478333Y-19844524D01*
X1952143Y-19844524D01*
X28124524Y-45018333D02*
X27719762Y-44735000D01*
X28124524Y-44532619D02*
X27274524Y-44532619D01*
X27274524Y-44856428D01*
X27315000Y-44937381D01*
X27355476Y-44977857D01*
X27436429Y-45018333D01*
X27557857Y-45018333D01*
X27638810Y-44977857D01*
X27679286Y-44937381D01*
X27719762Y-44856428D01*
X27719762Y-44532619D01*
X27274524Y-45301667D02*
X27274524Y-45827857D01*
X27598333Y-45544524D01*
X27598333Y-45665952D01*
X27638810Y-45746905D01*
X27679286Y-45787381D01*
X27760238Y-45827857D01*
X27962619Y-45827857D01*
X28043571Y-45787381D01*
X28084048Y-45746905D01*
X28124524Y-45665952D01*
X28124524Y-45423095D01*
X28084048Y-45342143D01*
X28043571Y-45301667D01*
X21074524Y-34018333D02*
X20669762Y-33735000D01*
X21074524Y-33532619D02*
X20224524Y-33532619D01*
X20224524Y-33856428D01*
X20265000Y-33937381D01*
X20305476Y-33977857D01*
X20386429Y-34018333D01*
X20507857Y-34018333D01*
X20588810Y-33977857D01*
X20629286Y-33937381D01*
X20669762Y-33856428D01*
X20669762Y-33532619D01*
X20224524Y-34746905D02*
X20224524Y-34585000D01*
X20265000Y-34504048D01*
X20305476Y-34463571D01*
X20426905Y-34382619D01*
X20588810Y-34342143D01*
X20912619Y-34342143D01*
X20993571Y-34382619D01*
X21034048Y-34423095D01*
X21074524Y-34504048D01*
X21074524Y-34665952D01*
X21034048Y-34746905D01*
X20993571Y-34787381D01*
X20912619Y-34827857D01*
X20710238Y-34827857D01*
X20629286Y-34787381D01*
X20588810Y-34746905D01*
X20548333Y-34665952D01*
X20548333Y-34504048D01*
X20588810Y-34423095D01*
X20629286Y-34382619D01*
X20710238Y-34342143D01*
X14084524Y-44958333D02*
X13679762Y-44675000D01*
X14084524Y-44472619D02*
X13234524Y-44472619D01*
X13234524Y-44796428D01*
X13275000Y-44877381D01*
X13315476Y-44917857D01*
X13396429Y-44958333D01*
X13517857Y-44958333D01*
X13598810Y-44917857D01*
X13639286Y-44877381D01*
X13679762Y-44796428D01*
X13679762Y-44472619D01*
X13234524Y-45241667D02*
X13234524Y-45808333D01*
X14084524Y-45444048D01*
X14034524Y-39128333D02*
X13629762Y-38845000D01*
X14034524Y-38642619D02*
X13184524Y-38642619D01*
X13184524Y-38966428D01*
X13225000Y-39047381D01*
X13265476Y-39087857D01*
X13346429Y-39128333D01*
X13467857Y-39128333D01*
X13548810Y-39087857D01*
X13589286Y-39047381D01*
X13629762Y-38966428D01*
X13629762Y-38642619D01*
X13548810Y-39614048D02*
X13508333Y-39533095D01*
X13467857Y-39492619D01*
X13386905Y-39452143D01*
X13346429Y-39452143D01*
X13265476Y-39492619D01*
X13225000Y-39533095D01*
X13184524Y-39614048D01*
X13184524Y-39775952D01*
X13225000Y-39856905D01*
X13265476Y-39897381D01*
X13346429Y-39937857D01*
X13386905Y-39937857D01*
X13467857Y-39897381D01*
X13508333Y-39856905D01*
X13548810Y-39775952D01*
X13548810Y-39614048D01*
X13589286Y-39533095D01*
X13629762Y-39492619D01*
X13710714Y-39452143D01*
X13872619Y-39452143D01*
X13953571Y-39492619D01*
X13994048Y-39533095D01*
X14034524Y-39614048D01*
X14034524Y-39775952D01*
X13994048Y-39856905D01*
X13953571Y-39897381D01*
X13872619Y-39937857D01*
X13710714Y-39937857D01*
X13629762Y-39897381D01*
X13589286Y-39856905D01*
X13548810Y-39775952D01*
X14014524Y-34028333D02*
X13609762Y-33745000D01*
X14014524Y-33542619D02*
X13164524Y-33542619D01*
X13164524Y-33866428D01*
X13205000Y-33947381D01*
X13245476Y-33987857D01*
X13326429Y-34028333D01*
X13447857Y-34028333D01*
X13528810Y-33987857D01*
X13569286Y-33947381D01*
X13609762Y-33866428D01*
X13609762Y-33542619D01*
X14014524Y-34433095D02*
X14014524Y-34595000D01*
X13974048Y-34675952D01*
X13933571Y-34716428D01*
X13812143Y-34797381D01*
X13650238Y-34837857D01*
X13326429Y-34837857D01*
X13245476Y-34797381D01*
X13205000Y-34756905D01*
X13164524Y-34675952D01*
X13164524Y-34514048D01*
X13205000Y-34433095D01*
X13245476Y-34392619D01*
X13326429Y-34352143D01*
X13528810Y-34352143D01*
X13609762Y-34392619D01*
X13650238Y-34433095D01*
X13690714Y-34514048D01*
X13690714Y-34675952D01*
X13650238Y-34756905D01*
X13609762Y-34797381D01*
X13528810Y-34837857D01*
X28044524Y-38803571D02*
X27639762Y-38520238D01*
X28044524Y-38317857D02*
X27194524Y-38317857D01*
X27194524Y-38641666D01*
X27235000Y-38722619D01*
X27275476Y-38763095D01*
X27356429Y-38803571D01*
X27477857Y-38803571D01*
X27558810Y-38763095D01*
X27599286Y-38722619D01*
X27639762Y-38641666D01*
X27639762Y-38317857D01*
X28044524Y-39613095D02*
X28044524Y-39127381D01*
X28044524Y-39370238D02*
X27194524Y-39370238D01*
X27315952Y-39289286D01*
X27396905Y-39208333D01*
X27437381Y-39127381D01*
X27194524Y-40139286D02*
X27194524Y-40220238D01*
X27235000Y-40301190D01*
X27275476Y-40341667D01*
X27356429Y-40382143D01*
X27518333Y-40422619D01*
X27720714Y-40422619D01*
X27882619Y-40382143D01*
X27963571Y-40341667D01*
X28004048Y-40301190D01*
X28044524Y-40220238D01*
X28044524Y-40139286D01*
X28004048Y-40058333D01*
X27963571Y-40017857D01*
X27882619Y-39977381D01*
X27720714Y-39936905D01*
X27518333Y-39936905D01*
X27356429Y-39977381D01*
X27275476Y-40017857D01*
X27235000Y-40058333D01*
X27194524Y-40139286D01*
X21006429Y-21854524D02*
X21289762Y-21449762D01*
X21492143Y-21854524D02*
X21492143Y-21004524D01*
X21168334Y-21004524D01*
X21087381Y-21045000D01*
X21046905Y-21085476D01*
X21006429Y-21166429D01*
X21006429Y-21287857D01*
X21046905Y-21368810D01*
X21087381Y-21409286D01*
X21168334Y-21449762D01*
X21492143Y-21449762D01*
X20196905Y-21854524D02*
X20682619Y-21854524D01*
X20439762Y-21854524D02*
X20439762Y-21004524D01*
X20520714Y-21125952D01*
X20601667Y-21206905D01*
X20682619Y-21247381D01*
X19387381Y-21854524D02*
X19873095Y-21854524D01*
X19630238Y-21854524D02*
X19630238Y-21004524D01*
X19711190Y-21125952D01*
X19792143Y-21206905D01*
X19873095Y-21247381D01*
X20896429Y-17884524D02*
X21179762Y-17479762D01*
X21382143Y-17884524D02*
X21382143Y-17034524D01*
X21058334Y-17034524D01*
X20977381Y-17075000D01*
X20936905Y-17115476D01*
X20896429Y-17196429D01*
X20896429Y-17317857D01*
X20936905Y-17398810D01*
X20977381Y-17439286D01*
X21058334Y-17479762D01*
X21382143Y-17479762D01*
X20086905Y-17884524D02*
X20572619Y-17884524D01*
X20329762Y-17884524D02*
X20329762Y-17034524D01*
X20410714Y-17155952D01*
X20491667Y-17236905D01*
X20572619Y-17277381D01*
X19763095Y-17115476D02*
X19722619Y-17075000D01*
X19641667Y-17034524D01*
X19439286Y-17034524D01*
X19358333Y-17075000D01*
X19317857Y-17115476D01*
X19277381Y-17196429D01*
X19277381Y-17277381D01*
X19317857Y-17398810D01*
X19803571Y-17884524D01*
X19277381Y-17884524D01*
X20896429Y-14434524D02*
X21179762Y-14029762D01*
X21382143Y-14434524D02*
X21382143Y-13584524D01*
X21058334Y-13584524D01*
X20977381Y-13625000D01*
X20936905Y-13665476D01*
X20896429Y-13746429D01*
X20896429Y-13867857D01*
X20936905Y-13948810D01*
X20977381Y-13989286D01*
X21058334Y-14029762D01*
X21382143Y-14029762D01*
X20086905Y-14434524D02*
X20572619Y-14434524D01*
X20329762Y-14434524D02*
X20329762Y-13584524D01*
X20410714Y-13705952D01*
X20491667Y-13786905D01*
X20572619Y-13827381D01*
X19803571Y-13584524D02*
X19277381Y-13584524D01*
X19560714Y-13908333D01*
X19439286Y-13908333D01*
X19358333Y-13948810D01*
X19317857Y-13989286D01*
X19277381Y-14070238D01*
X19277381Y-14272619D01*
X19317857Y-14353571D01*
X19358333Y-14394048D01*
X19439286Y-14434524D01*
X19682143Y-14434524D01*
X19763095Y-14394048D01*
X19803571Y-14353571D01*
X7496429Y-12284524D02*
X7779762Y-11879762D01*
X7982143Y-12284524D02*
X7982143Y-11434524D01*
X7658334Y-11434524D01*
X7577381Y-11475000D01*
X7536905Y-11515476D01*
X7496429Y-11596429D01*
X7496429Y-11717857D01*
X7536905Y-11798810D01*
X7577381Y-11839286D01*
X7658334Y-11879762D01*
X7982143Y-11879762D01*
X6686905Y-12284524D02*
X7172619Y-12284524D01*
X6929762Y-12284524D02*
X6929762Y-11434524D01*
X7010714Y-11555952D01*
X7091667Y-11636905D01*
X7172619Y-11677381D01*
X5958333Y-11717857D02*
X5958333Y-12284524D01*
X6160714Y-11394048D02*
X6363095Y-12001190D01*
X5836905Y-12001190D01*
X22886429Y-31434524D02*
X23169762Y-31029762D01*
X23372143Y-31434524D02*
X23372143Y-30584524D01*
X23048334Y-30584524D01*
X22967381Y-30625000D01*
X22926905Y-30665476D01*
X22886429Y-30746429D01*
X22886429Y-30867857D01*
X22926905Y-30948810D01*
X22967381Y-30989286D01*
X23048334Y-31029762D01*
X23372143Y-31029762D01*
X22076905Y-31434524D02*
X22562619Y-31434524D01*
X22319762Y-31434524D02*
X22319762Y-30584524D01*
X22400714Y-30705952D01*
X22481667Y-30786905D01*
X22562619Y-30827381D01*
X21307857Y-30584524D02*
X21712619Y-30584524D01*
X21753095Y-30989286D01*
X21712619Y-30948810D01*
X21631667Y-30908333D01*
X21429286Y-30908333D01*
X21348333Y-30948810D01*
X21307857Y-30989286D01*
X21267381Y-31070238D01*
X21267381Y-31272619D01*
X21307857Y-31353571D01*
X21348333Y-31394048D01*
X21429286Y-31434524D01*
X21631667Y-31434524D01*
X21712619Y-31394048D01*
X21753095Y-31353571D01*
X3166429Y-12274524D02*
X3449762Y-11869762D01*
X3652143Y-12274524D02*
X3652143Y-11424524D01*
X3328334Y-11424524D01*
X3247381Y-11465000D01*
X3206905Y-11505476D01*
X3166429Y-11586429D01*
X3166429Y-11707857D01*
X3206905Y-11788810D01*
X3247381Y-11829286D01*
X3328334Y-11869762D01*
X3652143Y-11869762D01*
X2356905Y-12274524D02*
X2842619Y-12274524D01*
X2599762Y-12274524D02*
X2599762Y-11424524D01*
X2680714Y-11545952D01*
X2761667Y-11626905D01*
X2842619Y-11667381D01*
X1628333Y-11424524D02*
X1790238Y-11424524D01*
X1871190Y-11465000D01*
X1911667Y-11505476D01*
X1992619Y-11626905D01*
X2033095Y-11788810D01*
X2033095Y-12112619D01*
X1992619Y-12193571D01*
X1952143Y-12234048D01*
X1871190Y-12274524D01*
X1709286Y-12274524D01*
X1628333Y-12234048D01*
X1587857Y-12193571D01*
X1547381Y-12112619D01*
X1547381Y-11910238D01*
X1587857Y-11829286D01*
X1628333Y-11788810D01*
X1709286Y-11748333D01*
X1871190Y-11748333D01*
X1952143Y-11788810D01*
X1992619Y-11829286D01*
X2033095Y-11910238D01*
X15586429Y-42944524D02*
X15869762Y-42539762D01*
X16072143Y-42944524D02*
X16072143Y-42094524D01*
X15748334Y-42094524D01*
X15667381Y-42135000D01*
X15626905Y-42175476D01*
X15586429Y-42256429D01*
X15586429Y-42377857D01*
X15626905Y-42458810D01*
X15667381Y-42499286D01*
X15748334Y-42539762D01*
X16072143Y-42539762D01*
X14776905Y-42944524D02*
X15262619Y-42944524D01*
X15019762Y-42944524D02*
X15019762Y-42094524D01*
X15100714Y-42215952D01*
X15181667Y-42296905D01*
X15262619Y-42337381D01*
X14493571Y-42094524D02*
X13926905Y-42094524D01*
X14291190Y-42944524D01*
X15476429Y-37134524D02*
X15759762Y-36729762D01*
X15962143Y-37134524D02*
X15962143Y-36284524D01*
X15638334Y-36284524D01*
X15557381Y-36325000D01*
X15516905Y-36365476D01*
X15476429Y-36446429D01*
X15476429Y-36567857D01*
X15516905Y-36648810D01*
X15557381Y-36689286D01*
X15638334Y-36729762D01*
X15962143Y-36729762D01*
X14666905Y-37134524D02*
X15152619Y-37134524D01*
X14909762Y-37134524D02*
X14909762Y-36284524D01*
X14990714Y-36405952D01*
X15071667Y-36486905D01*
X15152619Y-36527381D01*
X14181190Y-36648810D02*
X14262143Y-36608333D01*
X14302619Y-36567857D01*
X14343095Y-36486905D01*
X14343095Y-36446429D01*
X14302619Y-36365476D01*
X14262143Y-36325000D01*
X14181190Y-36284524D01*
X14019286Y-36284524D01*
X13938333Y-36325000D01*
X13897857Y-36365476D01*
X13857381Y-36446429D01*
X13857381Y-36486905D01*
X13897857Y-36567857D01*
X13938333Y-36608333D01*
X14019286Y-36648810D01*
X14181190Y-36648810D01*
X14262143Y-36689286D01*
X14302619Y-36729762D01*
X14343095Y-36810714D01*
X14343095Y-36972619D01*
X14302619Y-37053571D01*
X14262143Y-37094048D01*
X14181190Y-37134524D01*
X14019286Y-37134524D01*
X13938333Y-37094048D01*
X13897857Y-37053571D01*
X13857381Y-36972619D01*
X13857381Y-36810714D01*
X13897857Y-36729762D01*
X13938333Y-36689286D01*
X14019286Y-36648810D01*
X29526429Y-42994524D02*
X29809762Y-42589762D01*
X30012143Y-42994524D02*
X30012143Y-42144524D01*
X29688334Y-42144524D01*
X29607381Y-42185000D01*
X29566905Y-42225476D01*
X29526429Y-42306429D01*
X29526429Y-42427857D01*
X29566905Y-42508810D01*
X29607381Y-42549286D01*
X29688334Y-42589762D01*
X30012143Y-42589762D01*
X28716905Y-42994524D02*
X29202619Y-42994524D01*
X28959762Y-42994524D02*
X28959762Y-42144524D01*
X29040714Y-42265952D01*
X29121667Y-42346905D01*
X29202619Y-42387381D01*
X28312143Y-42994524D02*
X28150238Y-42994524D01*
X28069286Y-42954048D01*
X28028810Y-42913571D01*
X27947857Y-42792143D01*
X27907381Y-42630238D01*
X27907381Y-42306429D01*
X27947857Y-42225476D01*
X27988333Y-42185000D01*
X28069286Y-42144524D01*
X28231190Y-42144524D01*
X28312143Y-42185000D01*
X28352619Y-42225476D01*
X28393095Y-42306429D01*
X28393095Y-42508810D01*
X28352619Y-42589762D01*
X28312143Y-42630238D01*
X28231190Y-42670714D01*
X28069286Y-42670714D01*
X27988333Y-42630238D01*
X27947857Y-42589762D01*
X27907381Y-42508810D01*
X15616429Y-31234524D02*
X15899762Y-30829762D01*
X16102143Y-31234524D02*
X16102143Y-30384524D01*
X15778334Y-30384524D01*
X15697381Y-30425000D01*
X15656905Y-30465476D01*
X15616429Y-30546429D01*
X15616429Y-30667857D01*
X15656905Y-30748810D01*
X15697381Y-30789286D01*
X15778334Y-30829762D01*
X16102143Y-30829762D01*
X15292619Y-30465476D02*
X15252143Y-30425000D01*
X15171191Y-30384524D01*
X14968810Y-30384524D01*
X14887857Y-30425000D01*
X14847381Y-30465476D01*
X14806905Y-30546429D01*
X14806905Y-30627381D01*
X14847381Y-30748810D01*
X15333095Y-31234524D01*
X14806905Y-31234524D01*
X14280714Y-30384524D02*
X14199762Y-30384524D01*
X14118810Y-30425000D01*
X14078333Y-30465476D01*
X14037857Y-30546429D01*
X13997381Y-30708333D01*
X13997381Y-30910714D01*
X14037857Y-31072619D01*
X14078333Y-31153571D01*
X14118810Y-31194048D01*
X14199762Y-31234524D01*
X14280714Y-31234524D01*
X14361667Y-31194048D01*
X14402143Y-31153571D01*
X14442619Y-31072619D01*
X14483095Y-30910714D01*
X14483095Y-30708333D01*
X14442619Y-30546429D01*
X14402143Y-30465476D01*
X14361667Y-30425000D01*
X14280714Y-30384524D01*
X22646429Y-42944524D02*
X22929762Y-42539762D01*
X23132143Y-42944524D02*
X23132143Y-42094524D01*
X22808334Y-42094524D01*
X22727381Y-42135000D01*
X22686905Y-42175476D01*
X22646429Y-42256429D01*
X22646429Y-42377857D01*
X22686905Y-42458810D01*
X22727381Y-42499286D01*
X22808334Y-42539762D01*
X23132143Y-42539762D01*
X22322619Y-42175476D02*
X22282143Y-42135000D01*
X22201191Y-42094524D01*
X21998810Y-42094524D01*
X21917857Y-42135000D01*
X21877381Y-42175476D01*
X21836905Y-42256429D01*
X21836905Y-42337381D01*
X21877381Y-42458810D01*
X22363095Y-42944524D01*
X21836905Y-42944524D01*
X21027381Y-42944524D02*
X21513095Y-42944524D01*
X21270238Y-42944524D02*
X21270238Y-42094524D01*
X21351190Y-42215952D01*
X21432143Y-42296905D01*
X21513095Y-42337381D01*
X29616429Y-37194524D02*
X29899762Y-36789762D01*
X30102143Y-37194524D02*
X30102143Y-36344524D01*
X29778334Y-36344524D01*
X29697381Y-36385000D01*
X29656905Y-36425476D01*
X29616429Y-36506429D01*
X29616429Y-36627857D01*
X29656905Y-36708810D01*
X29697381Y-36749286D01*
X29778334Y-36789762D01*
X30102143Y-36789762D01*
X29292619Y-36425476D02*
X29252143Y-36385000D01*
X29171191Y-36344524D01*
X28968810Y-36344524D01*
X28887857Y-36385000D01*
X28847381Y-36425476D01*
X28806905Y-36506429D01*
X28806905Y-36587381D01*
X28847381Y-36708810D01*
X29333095Y-37194524D01*
X28806905Y-37194524D01*
X28483095Y-36425476D02*
X28442619Y-36385000D01*
X28361667Y-36344524D01*
X28159286Y-36344524D01*
X28078333Y-36385000D01*
X28037857Y-36425476D01*
X27997381Y-36506429D01*
X27997381Y-36587381D01*
X28037857Y-36708810D01*
X28523571Y-37194524D01*
X27997381Y-37194524D01*
X22696429Y-37144524D02*
X22979762Y-36739762D01*
X23182143Y-37144524D02*
X23182143Y-36294524D01*
X22858334Y-36294524D01*
X22777381Y-36335000D01*
X22736905Y-36375476D01*
X22696429Y-36456429D01*
X22696429Y-36577857D01*
X22736905Y-36658810D01*
X22777381Y-36699286D01*
X22858334Y-36739762D01*
X23182143Y-36739762D01*
X22372619Y-36375476D02*
X22332143Y-36335000D01*
X22251191Y-36294524D01*
X22048810Y-36294524D01*
X21967857Y-36335000D01*
X21927381Y-36375476D01*
X21886905Y-36456429D01*
X21886905Y-36537381D01*
X21927381Y-36658810D01*
X22413095Y-37144524D01*
X21886905Y-37144524D01*
X21603571Y-36294524D02*
X21077381Y-36294524D01*
X21360714Y-36618333D01*
X21239286Y-36618333D01*
X21158333Y-36658810D01*
X21117857Y-36699286D01*
X21077381Y-36780238D01*
X21077381Y-36982619D01*
X21117857Y-37063571D01*
X21158333Y-37104048D01*
X21239286Y-37144524D01*
X21482143Y-37144524D01*
X21563095Y-37104048D01*
X21603571Y-37063571D01*
X29914524Y-21463571D02*
X29509762Y-21180238D01*
X29914524Y-20977857D02*
X29064524Y-20977857D01*
X29064524Y-21301666D01*
X29105000Y-21382619D01*
X29145476Y-21423095D01*
X29226429Y-21463571D01*
X29347857Y-21463571D01*
X29428810Y-21423095D01*
X29469286Y-21382619D01*
X29509762Y-21301666D01*
X29509762Y-20977857D01*
X29145476Y-21787381D02*
X29105000Y-21827857D01*
X29064524Y-21908809D01*
X29064524Y-22111190D01*
X29105000Y-22192143D01*
X29145476Y-22232619D01*
X29226429Y-22273095D01*
X29307381Y-22273095D01*
X29428810Y-22232619D01*
X29914524Y-21746905D01*
X29914524Y-22273095D01*
X29347857Y-23001667D02*
X29914524Y-23001667D01*
X29024048Y-22799286D02*
X29631190Y-22596905D01*
X29631190Y-23123095D01*
X33316429Y-20174524D02*
X33599762Y-19769762D01*
X33802143Y-20174524D02*
X33802143Y-19324524D01*
X33478334Y-19324524D01*
X33397381Y-19365000D01*
X33356905Y-19405476D01*
X33316429Y-19486429D01*
X33316429Y-19607857D01*
X33356905Y-19688810D01*
X33397381Y-19729286D01*
X33478334Y-19769762D01*
X33802143Y-19769762D01*
X32992619Y-19405476D02*
X32952143Y-19365000D01*
X32871191Y-19324524D01*
X32668810Y-19324524D01*
X32587857Y-19365000D01*
X32547381Y-19405476D01*
X32506905Y-19486429D01*
X32506905Y-19567381D01*
X32547381Y-19688810D01*
X33033095Y-20174524D01*
X32506905Y-20174524D01*
X31737857Y-19324524D02*
X32142619Y-19324524D01*
X32183095Y-19729286D01*
X32142619Y-19688810D01*
X32061667Y-19648333D01*
X31859286Y-19648333D01*
X31778333Y-19688810D01*
X31737857Y-19729286D01*
X31697381Y-19810238D01*
X31697381Y-20012619D01*
X31737857Y-20093571D01*
X31778333Y-20134048D01*
X31859286Y-20174524D01*
X32061667Y-20174524D01*
X32142619Y-20134048D01*
X32183095Y-20093571D01*
X30317619Y-48054524D02*
X30317619Y-48742619D01*
X30277143Y-48823571D01*
X30236667Y-48864048D01*
X30155714Y-48904524D01*
X29993810Y-48904524D01*
X29912857Y-48864048D01*
X29872381Y-48823571D01*
X29831905Y-48742619D01*
X29831905Y-48054524D01*
X28981905Y-48904524D02*
X29467619Y-48904524D01*
X29224762Y-48904524D02*
X29224762Y-48054524D01*
X29305714Y-48175952D01*
X29386667Y-48256905D01*
X29467619Y-48297381D01*
X9104524Y-26692381D02*
X9792619Y-26692381D01*
X9873571Y-26732857D01*
X9914048Y-26773333D01*
X9954524Y-26854286D01*
X9954524Y-27016190D01*
X9914048Y-27097143D01*
X9873571Y-27137619D01*
X9792619Y-27178095D01*
X9104524Y-27178095D01*
X9104524Y-27501905D02*
X9104524Y-28028095D01*
X9428333Y-27744762D01*
X9428333Y-27866190D01*
X9468810Y-27947143D01*
X9509286Y-27987619D01*
X9590238Y-28028095D01*
X9792619Y-28028095D01*
X9873571Y-27987619D01*
X9914048Y-27947143D01*
X9954524Y-27866190D01*
X9954524Y-27623333D01*
X9914048Y-27542381D01*
X9873571Y-27501905D01*
X29975476Y-16654286D02*
X29935000Y-16573333D01*
X29854048Y-16492381D01*
X29732619Y-16370952D01*
X29692143Y-16290000D01*
X29692143Y-16209048D01*
X29894524Y-16249524D02*
X29854048Y-16168571D01*
X29773095Y-16087619D01*
X29611190Y-16047143D01*
X29327857Y-16047143D01*
X29165952Y-16087619D01*
X29085000Y-16168571D01*
X29044524Y-16249524D01*
X29044524Y-16411428D01*
X29085000Y-16492381D01*
X29165952Y-16573333D01*
X29327857Y-16613809D01*
X29611190Y-16613809D01*
X29773095Y-16573333D01*
X29854048Y-16492381D01*
X29894524Y-16411428D01*
X29894524Y-16249524D01*
X29894524Y-17423333D02*
X29894524Y-16937619D01*
X29894524Y-17180476D02*
X29044524Y-17180476D01*
X29165952Y-17099524D01*
X29246905Y-17018571D01*
X29287381Y-16937619D01*
X29044524Y-18192381D02*
X29044524Y-17787619D01*
X29449286Y-17747143D01*
X29408810Y-17787619D01*
X29368333Y-17868571D01*
X29368333Y-18070952D01*
X29408810Y-18151905D01*
X29449286Y-18192381D01*
X29530238Y-18232857D01*
X29732619Y-18232857D01*
X29813571Y-18192381D01*
X29854048Y-18151905D01*
X29894524Y-18070952D01*
X29894524Y-17868571D01*
X29854048Y-17787619D01*
X29813571Y-17747143D01*
X29814524Y-12943571D02*
X29409762Y-12660238D01*
X29814524Y-12457857D02*
X28964524Y-12457857D01*
X28964524Y-12781666D01*
X29005000Y-12862619D01*
X29045476Y-12903095D01*
X29126429Y-12943571D01*
X29247857Y-12943571D01*
X29328810Y-12903095D01*
X29369286Y-12862619D01*
X29409762Y-12781666D01*
X29409762Y-12457857D01*
X29045476Y-13267381D02*
X29005000Y-13307857D01*
X28964524Y-13388809D01*
X28964524Y-13591190D01*
X29005000Y-13672143D01*
X29045476Y-13712619D01*
X29126429Y-13753095D01*
X29207381Y-13753095D01*
X29328810Y-13712619D01*
X29814524Y-13226905D01*
X29814524Y-13753095D01*
X28964524Y-14481667D02*
X28964524Y-14319762D01*
X29005000Y-14238810D01*
X29045476Y-14198333D01*
X29166905Y-14117381D01*
X29328810Y-14076905D01*
X29652619Y-14076905D01*
X29733571Y-14117381D01*
X29774048Y-14157857D01*
X29814524Y-14238810D01*
X29814524Y-14400714D01*
X29774048Y-14481667D01*
X29733571Y-14522143D01*
X29652619Y-14562619D01*
X29450238Y-14562619D01*
X29369286Y-14522143D01*
X29328810Y-14481667D01*
X29288333Y-14400714D01*
X29288333Y-14238810D01*
X29328810Y-14157857D01*
X29369286Y-14117381D01*
X29450238Y-14076905D01*
X29176429Y-11864524D02*
X29459762Y-11459762D01*
X29662143Y-11864524D02*
X29662143Y-11014524D01*
X29338334Y-11014524D01*
X29257381Y-11055000D01*
X29216905Y-11095476D01*
X29176429Y-11176429D01*
X29176429Y-11297857D01*
X29216905Y-11378810D01*
X29257381Y-11419286D01*
X29338334Y-11459762D01*
X29662143Y-11459762D01*
X28852619Y-11095476D02*
X28812143Y-11055000D01*
X28731191Y-11014524D01*
X28528810Y-11014524D01*
X28447857Y-11055000D01*
X28407381Y-11095476D01*
X28366905Y-11176429D01*
X28366905Y-11257381D01*
X28407381Y-11378810D01*
X28893095Y-11864524D01*
X28366905Y-11864524D01*
X28083571Y-11014524D02*
X27516905Y-11014524D01*
X27881190Y-11864524D01*
X6998333Y-30264524D02*
X6998333Y-30871667D01*
X7038809Y-30993095D01*
X7119761Y-31074048D01*
X7241190Y-31114524D01*
X7322142Y-31114524D01*
X6148333Y-31114524D02*
X6634047Y-31114524D01*
X6391190Y-31114524D02*
X6391190Y-30264524D01*
X6472142Y-30385952D01*
X6553095Y-30466905D01*
X6634047Y-30507381D01*
X28971667Y-32583571D02*
X29012143Y-32624048D01*
X29133572Y-32664524D01*
X29214524Y-32664524D01*
X29335952Y-32624048D01*
X29416905Y-32543095D01*
X29457381Y-32462143D01*
X29497857Y-32300238D01*
X29497857Y-32178810D01*
X29457381Y-32016905D01*
X29416905Y-31935952D01*
X29335952Y-31855000D01*
X29214524Y-31814524D01*
X29133572Y-31814524D01*
X29012143Y-31855000D01*
X28971667Y-31895476D01*
X28647857Y-31895476D02*
X28607381Y-31855000D01*
X28526429Y-31814524D01*
X28324048Y-31814524D01*
X28243095Y-31855000D01*
X28202619Y-31895476D01*
X28162143Y-31976429D01*
X28162143Y-32057381D01*
X28202619Y-32178810D01*
X28688333Y-32664524D01*
X28162143Y-32664524D01*
X21104524Y-44628333D02*
X20699762Y-44345000D01*
X21104524Y-44142619D02*
X20254524Y-44142619D01*
X20254524Y-44466428D01*
X20295000Y-44547381D01*
X20335476Y-44587857D01*
X20416429Y-44628333D01*
X20537857Y-44628333D01*
X20618810Y-44587857D01*
X20659286Y-44547381D01*
X20699762Y-44466428D01*
X20699762Y-44142619D01*
X20537857Y-45356905D02*
X21104524Y-45356905D01*
X20214048Y-45154524D02*
X20821190Y-44952143D01*
X20821190Y-45478333D01*
X21084524Y-39258333D02*
X20679762Y-38975000D01*
X21084524Y-38772619D02*
X20234524Y-38772619D01*
X20234524Y-39096428D01*
X20275000Y-39177381D01*
X20315476Y-39217857D01*
X20396429Y-39258333D01*
X20517857Y-39258333D01*
X20598810Y-39217857D01*
X20639286Y-39177381D01*
X20679762Y-39096428D01*
X20679762Y-38772619D01*
X20234524Y-40027381D02*
X20234524Y-39622619D01*
X20639286Y-39582143D01*
X20598810Y-39622619D01*
X20558333Y-39703571D01*
X20558333Y-39905952D01*
X20598810Y-39986905D01*
X20639286Y-40027381D01*
X20720238Y-40067857D01*
X20922619Y-40067857D01*
X21003571Y-40027381D01*
X21044048Y-39986905D01*
X21084524Y-39905952D01*
X21084524Y-39703571D01*
X21044048Y-39622619D01*
X21003571Y-39582143D01*
X18197619Y-54254524D02*
X18197619Y-54942619D01*
X18157143Y-55023571D01*
X18116667Y-55064048D01*
X18035714Y-55104524D01*
X17873810Y-55104524D01*
X17792857Y-55064048D01*
X17752381Y-55023571D01*
X17711905Y-54942619D01*
X17711905Y-54254524D01*
X16942857Y-54537857D02*
X16942857Y-55104524D01*
X17145238Y-54214048D02*
X17347619Y-54821190D01*
X16821429Y-54821190D01*
X33283333Y-2334524D02*
X33283333Y-2941667D01*
X33323809Y-3063095D01*
X33404761Y-3144048D01*
X33526190Y-3184524D01*
X33607142Y-3184524D01*
X32919047Y-2415476D02*
X32878571Y-2375000D01*
X32797619Y-2334524D01*
X32595238Y-2334524D01*
X32514285Y-2375000D01*
X32473809Y-2415476D01*
X32433333Y-2496429D01*
X32433333Y-2577381D01*
X32473809Y-2698810D01*
X32959523Y-3184524D01*
X32433333Y-3184524D01*
X35163333Y-30064524D02*
X35163333Y-30671667D01*
X35203809Y-30793095D01*
X35284761Y-30874048D01*
X35406190Y-30914524D01*
X35487142Y-30914524D01*
X34839523Y-30064524D02*
X34313333Y-30064524D01*
X34596666Y-30388333D01*
X34475238Y-30388333D01*
X34394285Y-30428810D01*
X34353809Y-30469286D01*
X34313333Y-30550238D01*
X34313333Y-30752619D01*
X34353809Y-30833571D01*
X34394285Y-30874048D01*
X34475238Y-30914524D01*
X34718095Y-30914524D01*
X34799047Y-30874048D01*
X34839523Y-30833571D01*
M02*
