%TF.GenerationSoftware,KiCad,Pcbnew,4.0.7*%
%TF.CreationDate,2017-11-17T19:54:21+08:00*%
%TF.ProjectId,finalRoundNixie,66696E616C526F756E644E697869652E,rev?*%
%TF.FileFunction,Legend,Bot*%
%FSLAX46Y46*%
G04 Gerber Fmt 4.6, Leading zero omitted, Abs format (unit mm)*
G04 Created by KiCad (PCBNEW 4.0.7) date 11/17/17 19:54:21*
%MOMM*%
%LPD*%
G01*
G04 APERTURE LIST*
%ADD10C,0.100000*%
%ADD11C,0.200000*%
%ADD12C,0.300000*%
%ADD13C,0.150000*%
%ADD14C,0.120000*%
%ADD15C,0.153000*%
G04 APERTURE END LIST*
D10*
D11*
X29900000Y-11600000D02*
X32900000Y-11600000D01*
D12*
X24071428Y-2708571D02*
X24071428Y-1208571D01*
X24071428Y-1922857D02*
X23214285Y-1922857D01*
X23214285Y-2708571D02*
X23214285Y-1208571D01*
X22714285Y-1208571D02*
X22214285Y-2708571D01*
X21714285Y-1208571D01*
D11*
X32900000Y-11600000D02*
X32900000Y-11900000D01*
D13*
X27685000Y-49695000D02*
X28935000Y-49695000D01*
X27660000Y-53295000D02*
X28935000Y-53295000D01*
X19025000Y-47645000D02*
X19025000Y-47845000D01*
X19025000Y-47845000D02*
X19025000Y-49495000D01*
X18925000Y-49695000D02*
X27675000Y-49695000D01*
X28935000Y-49695000D02*
X28935000Y-53295000D01*
X27675000Y-53295000D02*
X18925000Y-53295000D01*
X18925000Y-53295000D02*
X18925000Y-49695000D01*
D14*
X15360000Y-48290000D02*
X15360000Y-49550000D01*
X15360000Y-55110000D02*
X15360000Y-53850000D01*
X11600000Y-48290000D02*
X15360000Y-48290000D01*
X9350000Y-55110000D02*
X15360000Y-55110000D01*
X31350000Y-29900000D02*
X30650000Y-29900000D01*
X30650000Y-31100000D02*
X31350000Y-31100000D01*
X1840000Y-17230000D02*
X1840000Y-16300000D01*
X1840000Y-14070000D02*
X1840000Y-15000000D01*
X1840000Y-14070000D02*
X4000000Y-14070000D01*
X1840000Y-17230000D02*
X3300000Y-17230000D01*
X30650000Y-34950000D02*
X31350000Y-34950000D01*
X31350000Y-33750000D02*
X30650000Y-33750000D01*
X9660000Y-670000D02*
X9660000Y-3330000D01*
X9660000Y-3330000D02*
X7000000Y-3330000D01*
X7000000Y-3330000D02*
X7000000Y-670000D01*
X7000000Y-670000D02*
X9660000Y-670000D01*
X7000000Y-1620000D02*
X1000000Y-1620000D01*
X1000000Y-1620000D02*
X1000000Y-2380000D01*
X1000000Y-2380000D02*
X7000000Y-2380000D01*
X7000000Y-1680000D02*
X1000000Y-1680000D01*
X7000000Y-1800000D02*
X1000000Y-1800000D01*
X7000000Y-1920000D02*
X1000000Y-1920000D01*
X7000000Y-2040000D02*
X1000000Y-2040000D01*
X7000000Y-2160000D02*
X1000000Y-2160000D01*
X7000000Y-2280000D02*
X1000000Y-2280000D01*
X9990000Y-1620000D02*
X9660000Y-1620000D01*
X9990000Y-2380000D02*
X9660000Y-2380000D01*
X12370000Y-2000000D02*
X12370000Y-730000D01*
X12370000Y-730000D02*
X11100000Y-730000D01*
X6115000Y-17255000D02*
X6115000Y-16325000D01*
X6115000Y-14095000D02*
X6115000Y-15025000D01*
X6115000Y-14095000D02*
X8275000Y-14095000D01*
X6115000Y-17255000D02*
X7575000Y-17255000D01*
X23990000Y-35580000D02*
X23990000Y-34650000D01*
X23990000Y-32420000D02*
X23990000Y-33350000D01*
X23990000Y-32420000D02*
X26150000Y-32420000D01*
X23990000Y-35580000D02*
X25450000Y-35580000D01*
X16990000Y-46530000D02*
X16990000Y-45600000D01*
X16990000Y-43370000D02*
X16990000Y-44300000D01*
X16990000Y-43370000D02*
X19150000Y-43370000D01*
X16990000Y-46530000D02*
X18450000Y-46530000D01*
X16990000Y-40955000D02*
X16990000Y-40025000D01*
X16990000Y-37795000D02*
X16990000Y-38725000D01*
X16990000Y-37795000D02*
X19150000Y-37795000D01*
X16990000Y-40955000D02*
X18450000Y-40955000D01*
X31040000Y-46455000D02*
X31040000Y-45525000D01*
X31040000Y-43295000D02*
X31040000Y-44225000D01*
X31040000Y-43295000D02*
X33200000Y-43295000D01*
X31040000Y-46455000D02*
X32500000Y-46455000D01*
X16990000Y-35580000D02*
X16990000Y-34650000D01*
X16990000Y-32420000D02*
X16990000Y-33350000D01*
X16990000Y-32420000D02*
X19150000Y-32420000D01*
X16990000Y-35580000D02*
X18450000Y-35580000D01*
X23990000Y-46530000D02*
X23990000Y-45600000D01*
X23990000Y-43370000D02*
X23990000Y-44300000D01*
X23990000Y-43370000D02*
X26150000Y-43370000D01*
X23990000Y-46530000D02*
X25450000Y-46530000D01*
X31040000Y-40955000D02*
X31040000Y-40025000D01*
X31040000Y-37795000D02*
X31040000Y-38725000D01*
X31040000Y-37795000D02*
X33200000Y-37795000D01*
X31040000Y-40955000D02*
X32500000Y-40955000D01*
X23990000Y-40955000D02*
X23990000Y-40025000D01*
X23990000Y-37795000D02*
X23990000Y-38725000D01*
X23990000Y-37795000D02*
X26150000Y-37795000D01*
X23990000Y-40955000D02*
X25450000Y-40955000D01*
X15990000Y-25580000D02*
X15990000Y-24650000D01*
X15990000Y-22420000D02*
X15990000Y-23350000D01*
X15990000Y-22420000D02*
X18150000Y-22420000D01*
X15990000Y-25580000D02*
X17450000Y-25580000D01*
X15890000Y-21580000D02*
X15890000Y-20650000D01*
X15890000Y-18420000D02*
X15890000Y-19350000D01*
X15890000Y-18420000D02*
X18050000Y-18420000D01*
X15890000Y-21580000D02*
X17350000Y-21580000D01*
X15890000Y-17780000D02*
X15890000Y-16850000D01*
X15890000Y-14620000D02*
X15890000Y-15550000D01*
X15890000Y-14620000D02*
X18050000Y-14620000D01*
X15890000Y-17780000D02*
X17350000Y-17780000D01*
X31390000Y-26730000D02*
X31390000Y-25800000D01*
X31390000Y-23570000D02*
X31390000Y-24500000D01*
X31390000Y-23570000D02*
X33550000Y-23570000D01*
X31390000Y-26730000D02*
X32850000Y-26730000D01*
X6475000Y-18755000D02*
X7475000Y-18755000D01*
X7475000Y-17395000D02*
X6475000Y-17395000D01*
X2100000Y-18830000D02*
X3100000Y-18830000D01*
X3100000Y-17470000D02*
X2100000Y-17470000D01*
X29680000Y-45600000D02*
X29680000Y-44600000D01*
X28320000Y-44600000D02*
X28320000Y-45600000D01*
X22630000Y-34650000D02*
X22630000Y-33650000D01*
X21270000Y-33650000D02*
X21270000Y-34650000D01*
X15630000Y-45675000D02*
X15630000Y-44675000D01*
X14270000Y-44675000D02*
X14270000Y-45675000D01*
X15630000Y-39875000D02*
X15630000Y-38875000D01*
X14270000Y-38875000D02*
X14270000Y-39875000D01*
X15630000Y-34650000D02*
X15630000Y-33650000D01*
X14270000Y-33650000D02*
X14270000Y-34650000D01*
X29680000Y-39875000D02*
X29680000Y-38875000D01*
X28320000Y-38875000D02*
X28320000Y-39875000D01*
X19850000Y-23680000D02*
X20850000Y-23680000D01*
X20850000Y-22320000D02*
X19850000Y-22320000D01*
X19850000Y-19630000D02*
X20850000Y-19630000D01*
X20850000Y-18270000D02*
X19850000Y-18270000D01*
X19850000Y-16180000D02*
X20850000Y-16180000D01*
X20850000Y-14820000D02*
X19850000Y-14820000D01*
X6425000Y-13855000D02*
X7425000Y-13855000D01*
X7425000Y-12495000D02*
X6425000Y-12495000D01*
X25350000Y-30320000D02*
X24350000Y-30320000D01*
X24350000Y-31680000D02*
X25350000Y-31680000D01*
X3050000Y-12470000D02*
X2050000Y-12470000D01*
X2050000Y-13830000D02*
X3050000Y-13830000D01*
X18200000Y-41570000D02*
X17200000Y-41570000D01*
X17200000Y-42930000D02*
X18200000Y-42930000D01*
X18050000Y-36120000D02*
X17050000Y-36120000D01*
X17050000Y-37480000D02*
X18050000Y-37480000D01*
X32250000Y-41445000D02*
X31250000Y-41445000D01*
X31250000Y-42805000D02*
X32250000Y-42805000D01*
X18200000Y-30320000D02*
X17200000Y-30320000D01*
X17200000Y-31680000D02*
X18200000Y-31680000D01*
X25200000Y-41595000D02*
X24200000Y-41595000D01*
X24200000Y-42955000D02*
X25200000Y-42955000D01*
X32050000Y-35945000D02*
X31050000Y-35945000D01*
X31050000Y-37305000D02*
X32050000Y-37305000D01*
X25150000Y-35945000D02*
X24150000Y-35945000D01*
X24150000Y-37305000D02*
X25150000Y-37305000D01*
X30370000Y-21350000D02*
X30370000Y-22350000D01*
X31730000Y-22350000D02*
X31730000Y-21350000D01*
X33630000Y-22300000D02*
X33630000Y-21300000D01*
X32270000Y-21300000D02*
X32270000Y-22300000D01*
D13*
X6375000Y-28775000D02*
X6375000Y-30025000D01*
X2775000Y-28750000D02*
X2775000Y-30025000D01*
X8425000Y-20115000D02*
X8225000Y-20115000D01*
X8225000Y-20115000D02*
X6575000Y-20115000D01*
X6375000Y-20015000D02*
X6375000Y-28765000D01*
X6375000Y-30025000D02*
X2775000Y-30025000D01*
X2775000Y-28765000D02*
X2775000Y-20015000D01*
X2775000Y-20015000D02*
X6375000Y-20015000D01*
D14*
X31290000Y-18480000D02*
X31290000Y-17550000D01*
X31290000Y-15320000D02*
X31290000Y-16250000D01*
X31290000Y-15320000D02*
X33450000Y-15320000D01*
X31290000Y-18480000D02*
X32750000Y-18480000D01*
X30320000Y-12950000D02*
X30320000Y-13950000D01*
X31680000Y-13950000D02*
X31680000Y-12950000D01*
X33680000Y-13950000D02*
X33680000Y-12950000D01*
X32320000Y-12950000D02*
X32320000Y-13950000D01*
X9660000Y-31670000D02*
X9660000Y-47030000D01*
X9660000Y-47030000D02*
X7000000Y-47030000D01*
X7000000Y-47030000D02*
X7000000Y-31670000D01*
X7000000Y-31670000D02*
X9660000Y-31670000D01*
X7000000Y-32620000D02*
X1000000Y-32620000D01*
X1000000Y-32620000D02*
X1000000Y-33380000D01*
X1000000Y-33380000D02*
X7000000Y-33380000D01*
X7000000Y-32680000D02*
X1000000Y-32680000D01*
X7000000Y-32800000D02*
X1000000Y-32800000D01*
X7000000Y-32920000D02*
X1000000Y-32920000D01*
X7000000Y-33040000D02*
X1000000Y-33040000D01*
X7000000Y-33160000D02*
X1000000Y-33160000D01*
X7000000Y-33280000D02*
X1000000Y-33280000D01*
X9990000Y-32620000D02*
X9660000Y-32620000D01*
X9990000Y-33380000D02*
X9660000Y-33380000D01*
X9660000Y-34270000D02*
X7000000Y-34270000D01*
X7000000Y-35160000D02*
X1000000Y-35160000D01*
X1000000Y-35160000D02*
X1000000Y-35920000D01*
X1000000Y-35920000D02*
X7000000Y-35920000D01*
X10057071Y-35160000D02*
X9660000Y-35160000D01*
X10057071Y-35920000D02*
X9660000Y-35920000D01*
X9660000Y-36810000D02*
X7000000Y-36810000D01*
X7000000Y-37700000D02*
X1000000Y-37700000D01*
X1000000Y-37700000D02*
X1000000Y-38460000D01*
X1000000Y-38460000D02*
X7000000Y-38460000D01*
X10057071Y-37700000D02*
X9660000Y-37700000D01*
X10057071Y-38460000D02*
X9660000Y-38460000D01*
X9660000Y-39350000D02*
X7000000Y-39350000D01*
X7000000Y-40240000D02*
X1000000Y-40240000D01*
X1000000Y-40240000D02*
X1000000Y-41000000D01*
X1000000Y-41000000D02*
X7000000Y-41000000D01*
X10057071Y-40240000D02*
X9660000Y-40240000D01*
X10057071Y-41000000D02*
X9660000Y-41000000D01*
X9660000Y-41890000D02*
X7000000Y-41890000D01*
X7000000Y-42780000D02*
X1000000Y-42780000D01*
X1000000Y-42780000D02*
X1000000Y-43540000D01*
X1000000Y-43540000D02*
X7000000Y-43540000D01*
X10057071Y-42780000D02*
X9660000Y-42780000D01*
X10057071Y-43540000D02*
X9660000Y-43540000D01*
X9660000Y-44430000D02*
X7000000Y-44430000D01*
X7000000Y-45320000D02*
X1000000Y-45320000D01*
X1000000Y-45320000D02*
X1000000Y-46080000D01*
X1000000Y-46080000D02*
X7000000Y-46080000D01*
X10057071Y-45320000D02*
X9660000Y-45320000D01*
X10057071Y-46080000D02*
X9660000Y-46080000D01*
X12370000Y-33000000D02*
X12370000Y-31730000D01*
X12370000Y-31730000D02*
X11100000Y-31730000D01*
X31350000Y-31600000D02*
X30650000Y-31600000D01*
X30650000Y-32800000D02*
X31350000Y-32800000D01*
X22630000Y-45250000D02*
X22630000Y-44250000D01*
X21270000Y-44250000D02*
X21270000Y-45250000D01*
X22780000Y-39875000D02*
X22780000Y-38875000D01*
X21420000Y-38875000D02*
X21420000Y-39875000D01*
X35550000Y-730000D02*
X34280000Y-730000D01*
X34280000Y-730000D02*
X34280000Y-2000000D01*
X35500000Y-31730000D02*
X34230000Y-31730000D01*
X34230000Y-31730000D02*
X34230000Y-33000000D01*
D15*
X15400000Y-3100000D02*
X14980000Y-2960000D01*
X18320000Y-3500000D02*
X18220000Y-3530000D01*
X16450000Y-2500000D02*
X16660000Y-2180000D01*
X17710000Y-2120000D02*
X17460000Y-2280000D01*
X16630000Y-2220000D02*
X16550000Y-2620000D01*
X17210000Y-2810000D02*
X17350000Y-2660000D01*
X17160000Y-2870000D02*
X17340000Y-2860000D01*
X16530000Y-2250000D02*
X16710000Y-2100000D01*
X17160000Y-2920000D02*
X17050000Y-2810000D01*
X18500000Y-1250000D02*
X18290000Y-1070000D01*
X18720000Y-1060000D02*
X18530000Y-1160000D01*
X18200000Y-3340000D02*
X18090000Y-3130000D01*
X17740000Y-1590000D02*
X17940000Y-2030000D01*
X17210000Y-2460000D02*
X17400000Y-2290000D01*
X16610000Y-2700000D02*
X17010000Y-2690000D01*
X17470000Y-2360000D02*
X17860000Y-2070000D01*
X17700000Y-2500000D02*
X17410000Y-2560000D01*
X15800000Y-2830000D02*
X15500000Y-3100000D01*
X18250000Y-1240000D02*
X18320000Y-1230000D01*
X17010000Y-2310000D02*
X17660000Y-2250000D01*
X17860000Y-2630000D02*
X17320000Y-2720000D01*
X16710000Y-3410000D02*
X16520000Y-2790000D01*
X17520000Y-2970000D02*
X17270000Y-2870000D01*
X15750000Y-2830000D02*
X15320000Y-2940000D01*
X16040000Y-2260000D02*
X15920000Y-2210000D01*
X18270000Y-3260000D02*
X18550000Y-3320000D01*
X17080000Y-2460000D02*
X17260000Y-2380000D01*
X16780000Y-2810000D02*
X16860000Y-3370000D01*
X16110000Y-2830000D02*
X16200000Y-2600000D01*
X17860000Y-2010000D02*
X17690000Y-2320000D01*
X18340000Y-3380000D02*
X18320000Y-3500000D01*
X17740000Y-2020000D02*
X17580000Y-1650000D01*
X16420000Y-2810000D02*
X16260000Y-2940000D01*
X16930000Y-2270000D02*
X17130000Y-2690000D01*
X15400000Y-2990000D02*
X15760000Y-2830000D01*
X15500000Y-3100000D02*
X15450000Y-3300000D01*
X17230000Y-2530000D02*
X16960000Y-2650000D01*
X17030000Y-2770000D02*
X17110000Y-2780000D01*
X16360000Y-2510000D02*
X16690000Y-1990000D01*
X17930000Y-2010000D02*
X17870000Y-2640000D01*
X18030000Y-1480000D02*
X18500000Y-1250000D01*
X18290000Y-1070000D02*
X18010000Y-1450000D01*
X18220000Y-3530000D02*
X18200000Y-3340000D01*
X18570000Y-3440000D02*
X18340000Y-3380000D01*
X16300000Y-2930000D02*
X16130000Y-2810000D01*
X16070000Y-2360000D02*
X16600000Y-2320000D01*
X17950000Y-2980000D02*
X18270000Y-3260000D01*
X17120000Y-1550000D02*
X17590000Y-1600000D01*
X18550000Y-3320000D02*
X18570000Y-3440000D01*
X17860000Y-2070000D02*
X17590000Y-1610000D01*
X16860000Y-3370000D02*
X16780000Y-2810000D01*
X17690000Y-2040000D02*
X17600000Y-2330000D01*
X18530000Y-1160000D02*
X18320000Y-900000D01*
X17130000Y-3410000D02*
X16900000Y-3420000D01*
X16310000Y-2720000D02*
X16430000Y-2810000D01*
X18390000Y-1040000D02*
X18370000Y-850000D01*
X16470000Y-2860000D02*
X16190000Y-2680000D01*
X16900000Y-3420000D02*
X16700000Y-3370000D01*
X17730000Y-1580000D02*
X17420000Y-1350000D01*
X17590000Y-1610000D02*
X17310000Y-1420000D01*
X17410000Y-2740000D02*
X17560000Y-2880000D01*
X16990000Y-2850000D02*
X17030000Y-3360000D01*
X17020000Y-2720000D02*
X16430000Y-2580000D01*
X16930000Y-2800000D02*
X16640000Y-2820000D01*
X15450000Y-3300000D02*
X15310000Y-3190000D01*
X16570000Y-1720000D02*
X17110000Y-1550000D01*
X17020000Y-1650000D02*
X16780000Y-1780000D01*
X15750000Y-2360000D02*
X16090000Y-2580000D01*
X15890000Y-2140000D02*
X15910000Y-2240000D01*
X16770000Y-1800000D02*
X16620000Y-1600000D01*
X15810000Y-1230000D02*
X15520000Y-900000D01*
X15450000Y-880000D02*
X15130000Y-850000D01*
X15520000Y-900000D02*
X15570000Y-690000D01*
X15450000Y-1010000D02*
X15680000Y-1160000D01*
X15810000Y-1740000D02*
X16200000Y-1330000D01*
X16330000Y-1460000D02*
X17280000Y-1480000D01*
X16900000Y-1950000D02*
X16810000Y-2060000D01*
X16810000Y-2060000D02*
X16950000Y-2240000D01*
X16350000Y-1420000D02*
X16670000Y-1590000D01*
X15750000Y-2330000D02*
X15810000Y-1760000D01*
X15570000Y-690000D02*
X15410000Y-680000D01*
X17360000Y-1470000D02*
X16900000Y-1950000D01*
X16350000Y-2450000D02*
X15950000Y-2090000D01*
X16240000Y-1320000D02*
X17410000Y-1350000D01*
X17110000Y-1550000D02*
X17190000Y-1660000D01*
X17280000Y-1480000D02*
X17190000Y-1610000D01*
X17040000Y-1540000D02*
X16570000Y-1720000D01*
X17310000Y-1420000D02*
X16250000Y-1430000D01*
X15410000Y-680000D02*
X15450000Y-880000D01*
X16730000Y-2020000D02*
X16240000Y-1480000D01*
X15170000Y-1010000D02*
X15450000Y-1010000D01*
X16440000Y-1660000D02*
X16330000Y-1590000D01*
X15870000Y-1850000D02*
X15830000Y-2360000D01*
X16250000Y-1430000D02*
X15870000Y-1850000D01*
X15130000Y-850000D02*
X15170000Y-1010000D01*
X16110000Y-1630000D02*
X15870000Y-1970000D01*
X14980000Y-2960000D02*
X15180000Y-2880000D01*
X15180000Y-2880000D02*
X15400000Y-2990000D01*
X15310000Y-3190000D02*
X15400000Y-3100000D01*
X18830000Y-1160000D02*
X18720000Y-1060000D01*
X18520000Y-1240000D02*
X18830000Y-1160000D01*
X17200000Y-2940000D02*
X17190000Y-3420000D01*
X30860000Y-770000D02*
X31320000Y-2620000D01*
X31190000Y-810000D02*
X31280000Y-1210000D01*
X30176000Y-1869000D02*
X31390000Y-3990000D01*
X31250000Y-3610000D02*
X30890000Y-2490000D01*
X30580000Y-840000D02*
X31110000Y-2520000D01*
X30370000Y-1940000D02*
X30810000Y-2910000D01*
X30762000Y-2320500D02*
X31146000Y-3381200D01*
X31416000Y-3989200D02*
X30979000Y-2506900D01*
X31240000Y-930000D02*
X31310000Y-730000D01*
X31110000Y-690000D02*
X31154000Y-1034200D01*
X31558000Y-652400D02*
X29822000Y-711500D01*
X30979000Y-2506900D02*
X31564000Y-2772600D01*
X31455000Y-2587700D02*
X30762000Y-2320500D01*
X30250000Y-800000D02*
X30590000Y-1590000D01*
X30080000Y-750000D02*
X29920000Y-740000D01*
X29822000Y-711500D02*
X30932000Y-2052100D01*
X31564000Y-2772600D02*
X31310000Y-930000D01*
X30932000Y-2052100D02*
X30176000Y-1869000D01*
X31280000Y-1150000D02*
X31440000Y-2280000D01*
X31030000Y-810000D02*
X30080000Y-750000D01*
X31230000Y-770000D02*
X31240000Y-930000D01*
X31399000Y-727600D02*
X31146000Y-858800D01*
X30680000Y-2010000D02*
X30880000Y-2440000D01*
X31480000Y-2670000D02*
X30870000Y-2410000D01*
X31154000Y-1034200D02*
X31455000Y-2587700D01*
X31310000Y-930000D02*
X31558000Y-652400D01*
X29134524Y-48152381D02*
X29822619Y-48152381D01*
X29903571Y-48192857D01*
X29944048Y-48233333D01*
X29984524Y-48314286D01*
X29984524Y-48476190D01*
X29944048Y-48557143D01*
X29903571Y-48597619D01*
X29822619Y-48638095D01*
X29134524Y-48638095D01*
X29984524Y-49488095D02*
X29984524Y-49002381D01*
X29984524Y-49245238D02*
X29134524Y-49245238D01*
X29255952Y-49164286D01*
X29336905Y-49083333D01*
X29377381Y-49002381D01*
X17497619Y-54184524D02*
X17497619Y-54872619D01*
X17457143Y-54953571D01*
X17416667Y-54994048D01*
X17335714Y-55034524D01*
X17173810Y-55034524D01*
X17092857Y-54994048D01*
X17052381Y-54953571D01*
X17011905Y-54872619D01*
X17011905Y-54184524D01*
X16242857Y-54467857D02*
X16242857Y-55034524D01*
X16445238Y-54144048D02*
X16647619Y-54751190D01*
X16121429Y-54751190D01*
X28901667Y-30943571D02*
X28942143Y-30984048D01*
X29063572Y-31024524D01*
X29144524Y-31024524D01*
X29265952Y-30984048D01*
X29346905Y-30903095D01*
X29387381Y-30822143D01*
X29427857Y-30660238D01*
X29427857Y-30538810D01*
X29387381Y-30376905D01*
X29346905Y-30295952D01*
X29265952Y-30215000D01*
X29144524Y-30174524D01*
X29063572Y-30174524D01*
X28942143Y-30215000D01*
X28901667Y-30255476D01*
X28618333Y-30174524D02*
X28092143Y-30174524D01*
X28375476Y-30498333D01*
X28254048Y-30498333D01*
X28173095Y-30538810D01*
X28132619Y-30579286D01*
X28092143Y-30660238D01*
X28092143Y-30862619D01*
X28132619Y-30943571D01*
X28173095Y-30984048D01*
X28254048Y-31024524D01*
X28496905Y-31024524D01*
X28577857Y-30984048D01*
X28618333Y-30943571D01*
X4780952Y-13865476D02*
X4861905Y-13825000D01*
X4942857Y-13744048D01*
X5064286Y-13622619D01*
X5145238Y-13582143D01*
X5226190Y-13582143D01*
X5185714Y-13784524D02*
X5266667Y-13744048D01*
X5347619Y-13663095D01*
X5388095Y-13501190D01*
X5388095Y-13217857D01*
X5347619Y-13055952D01*
X5266667Y-12975000D01*
X5185714Y-12934524D01*
X5023810Y-12934524D01*
X4942857Y-12975000D01*
X4861905Y-13055952D01*
X4821429Y-13217857D01*
X4821429Y-13501190D01*
X4861905Y-13663095D01*
X4942857Y-13744048D01*
X5023810Y-13784524D01*
X5185714Y-13784524D01*
X4538095Y-12934524D02*
X4011905Y-12934524D01*
X4295238Y-13258333D01*
X4173810Y-13258333D01*
X4092857Y-13298810D01*
X4052381Y-13339286D01*
X4011905Y-13420238D01*
X4011905Y-13622619D01*
X4052381Y-13703571D01*
X4092857Y-13744048D01*
X4173810Y-13784524D01*
X4416667Y-13784524D01*
X4497619Y-13744048D01*
X4538095Y-13703571D01*
X28871667Y-34733571D02*
X28912143Y-34774048D01*
X29033572Y-34814524D01*
X29114524Y-34814524D01*
X29235952Y-34774048D01*
X29316905Y-34693095D01*
X29357381Y-34612143D01*
X29397857Y-34450238D01*
X29397857Y-34328810D01*
X29357381Y-34166905D01*
X29316905Y-34085952D01*
X29235952Y-34005000D01*
X29114524Y-33964524D01*
X29033572Y-33964524D01*
X28912143Y-34005000D01*
X28871667Y-34045476D01*
X28062143Y-34814524D02*
X28547857Y-34814524D01*
X28305000Y-34814524D02*
X28305000Y-33964524D01*
X28385952Y-34085952D01*
X28466905Y-34166905D01*
X28547857Y-34207381D01*
X9915476Y-14679048D02*
X9875000Y-14598095D01*
X9794048Y-14517143D01*
X9672619Y-14395714D01*
X9632143Y-14314762D01*
X9632143Y-14233810D01*
X9834524Y-14274286D02*
X9794048Y-14193333D01*
X9713095Y-14112381D01*
X9551190Y-14071905D01*
X9267857Y-14071905D01*
X9105952Y-14112381D01*
X9025000Y-14193333D01*
X8984524Y-14274286D01*
X8984524Y-14436190D01*
X9025000Y-14517143D01*
X9105952Y-14598095D01*
X9267857Y-14638571D01*
X9551190Y-14638571D01*
X9713095Y-14598095D01*
X9794048Y-14517143D01*
X9834524Y-14436190D01*
X9834524Y-14274286D01*
X9834524Y-15448095D02*
X9834524Y-14962381D01*
X9834524Y-15205238D02*
X8984524Y-15205238D01*
X9105952Y-15124286D01*
X9186905Y-15043333D01*
X9227381Y-14962381D01*
X27605476Y-35059048D02*
X27565000Y-34978095D01*
X27484048Y-34897143D01*
X27362619Y-34775714D01*
X27322143Y-34694762D01*
X27322143Y-34613810D01*
X27524524Y-34654286D02*
X27484048Y-34573333D01*
X27403095Y-34492381D01*
X27241190Y-34451905D01*
X26957857Y-34451905D01*
X26795952Y-34492381D01*
X26715000Y-34573333D01*
X26674524Y-34654286D01*
X26674524Y-34816190D01*
X26715000Y-34897143D01*
X26795952Y-34978095D01*
X26957857Y-35018571D01*
X27241190Y-35018571D01*
X27403095Y-34978095D01*
X27484048Y-34897143D01*
X27524524Y-34816190D01*
X27524524Y-34654286D01*
X26755476Y-35342381D02*
X26715000Y-35382857D01*
X26674524Y-35463809D01*
X26674524Y-35666190D01*
X26715000Y-35747143D01*
X26755476Y-35787619D01*
X26836429Y-35828095D01*
X26917381Y-35828095D01*
X27038810Y-35787619D01*
X27524524Y-35301905D01*
X27524524Y-35828095D01*
X17815476Y-47319048D02*
X17775000Y-47238095D01*
X17694048Y-47157143D01*
X17572619Y-47035714D01*
X17532143Y-46954762D01*
X17532143Y-46873810D01*
X17734524Y-46914286D02*
X17694048Y-46833333D01*
X17613095Y-46752381D01*
X17451190Y-46711905D01*
X17167857Y-46711905D01*
X17005952Y-46752381D01*
X16925000Y-46833333D01*
X16884524Y-46914286D01*
X16884524Y-47076190D01*
X16925000Y-47157143D01*
X17005952Y-47238095D01*
X17167857Y-47278571D01*
X17451190Y-47278571D01*
X17613095Y-47238095D01*
X17694048Y-47157143D01*
X17734524Y-47076190D01*
X17734524Y-46914286D01*
X17167857Y-48007143D02*
X17734524Y-48007143D01*
X16844048Y-47804762D02*
X17451190Y-47602381D01*
X17451190Y-48128571D01*
X15310952Y-41825476D02*
X15391905Y-41785000D01*
X15472857Y-41704048D01*
X15594286Y-41582619D01*
X15675238Y-41542143D01*
X15756190Y-41542143D01*
X15715714Y-41744524D02*
X15796667Y-41704048D01*
X15877619Y-41623095D01*
X15918095Y-41461190D01*
X15918095Y-41177857D01*
X15877619Y-41015952D01*
X15796667Y-40935000D01*
X15715714Y-40894524D01*
X15553810Y-40894524D01*
X15472857Y-40935000D01*
X15391905Y-41015952D01*
X15351429Y-41177857D01*
X15351429Y-41461190D01*
X15391905Y-41623095D01*
X15472857Y-41704048D01*
X15553810Y-41744524D01*
X15715714Y-41744524D01*
X14582381Y-40894524D02*
X14987143Y-40894524D01*
X15027619Y-41299286D01*
X14987143Y-41258810D01*
X14906191Y-41218333D01*
X14703810Y-41218333D01*
X14622857Y-41258810D01*
X14582381Y-41299286D01*
X14541905Y-41380238D01*
X14541905Y-41582619D01*
X14582381Y-41663571D01*
X14622857Y-41704048D01*
X14703810Y-41744524D01*
X14906191Y-41744524D01*
X14987143Y-41704048D01*
X15027619Y-41663571D01*
X32030952Y-47765476D02*
X32111905Y-47725000D01*
X32192857Y-47644048D01*
X32314286Y-47522619D01*
X32395238Y-47482143D01*
X32476190Y-47482143D01*
X32435714Y-47684524D02*
X32516667Y-47644048D01*
X32597619Y-47563095D01*
X32638095Y-47401190D01*
X32638095Y-47117857D01*
X32597619Y-46955952D01*
X32516667Y-46875000D01*
X32435714Y-46834524D01*
X32273810Y-46834524D01*
X32192857Y-46875000D01*
X32111905Y-46955952D01*
X32071429Y-47117857D01*
X32071429Y-47401190D01*
X32111905Y-47563095D01*
X32192857Y-47644048D01*
X32273810Y-47684524D01*
X32435714Y-47684524D01*
X31342857Y-46834524D02*
X31504762Y-46834524D01*
X31585714Y-46875000D01*
X31626191Y-46915476D01*
X31707143Y-47036905D01*
X31747619Y-47198810D01*
X31747619Y-47522619D01*
X31707143Y-47603571D01*
X31666667Y-47644048D01*
X31585714Y-47684524D01*
X31423810Y-47684524D01*
X31342857Y-47644048D01*
X31302381Y-47603571D01*
X31261905Y-47522619D01*
X31261905Y-47320238D01*
X31302381Y-47239286D01*
X31342857Y-47198810D01*
X31423810Y-47158333D01*
X31585714Y-47158333D01*
X31666667Y-47198810D01*
X31707143Y-47239286D01*
X31747619Y-47320238D01*
X20665476Y-32569048D02*
X20625000Y-32488095D01*
X20544048Y-32407143D01*
X20422619Y-32285714D01*
X20382143Y-32204762D01*
X20382143Y-32123810D01*
X20584524Y-32164286D02*
X20544048Y-32083333D01*
X20463095Y-32002381D01*
X20301190Y-31961905D01*
X20017857Y-31961905D01*
X19855952Y-32002381D01*
X19775000Y-32083333D01*
X19734524Y-32164286D01*
X19734524Y-32326190D01*
X19775000Y-32407143D01*
X19855952Y-32488095D01*
X20017857Y-32528571D01*
X20301190Y-32528571D01*
X20463095Y-32488095D01*
X20544048Y-32407143D01*
X20584524Y-32326190D01*
X20584524Y-32164286D01*
X19734524Y-32811905D02*
X19734524Y-33378571D01*
X20584524Y-33014286D01*
X22280952Y-47115476D02*
X22361905Y-47075000D01*
X22442857Y-46994048D01*
X22564286Y-46872619D01*
X22645238Y-46832143D01*
X22726190Y-46832143D01*
X22685714Y-47034524D02*
X22766667Y-46994048D01*
X22847619Y-46913095D01*
X22888095Y-46751190D01*
X22888095Y-46467857D01*
X22847619Y-46305952D01*
X22766667Y-46225000D01*
X22685714Y-46184524D01*
X22523810Y-46184524D01*
X22442857Y-46225000D01*
X22361905Y-46305952D01*
X22321429Y-46467857D01*
X22321429Y-46751190D01*
X22361905Y-46913095D01*
X22442857Y-46994048D01*
X22523810Y-47034524D01*
X22685714Y-47034524D01*
X21835714Y-46548810D02*
X21916667Y-46508333D01*
X21957143Y-46467857D01*
X21997619Y-46386905D01*
X21997619Y-46346429D01*
X21957143Y-46265476D01*
X21916667Y-46225000D01*
X21835714Y-46184524D01*
X21673810Y-46184524D01*
X21592857Y-46225000D01*
X21552381Y-46265476D01*
X21511905Y-46346429D01*
X21511905Y-46386905D01*
X21552381Y-46467857D01*
X21592857Y-46508333D01*
X21673810Y-46548810D01*
X21835714Y-46548810D01*
X21916667Y-46589286D01*
X21957143Y-46629762D01*
X21997619Y-46710714D01*
X21997619Y-46872619D01*
X21957143Y-46953571D01*
X21916667Y-46994048D01*
X21835714Y-47034524D01*
X21673810Y-47034524D01*
X21592857Y-46994048D01*
X21552381Y-46953571D01*
X21511905Y-46872619D01*
X21511905Y-46710714D01*
X21552381Y-46629762D01*
X21592857Y-46589286D01*
X21673810Y-46548810D01*
X29270952Y-41875476D02*
X29351905Y-41835000D01*
X29432857Y-41754048D01*
X29554286Y-41632619D01*
X29635238Y-41592143D01*
X29716190Y-41592143D01*
X29675714Y-41794524D02*
X29756667Y-41754048D01*
X29837619Y-41673095D01*
X29878095Y-41511190D01*
X29878095Y-41227857D01*
X29837619Y-41065952D01*
X29756667Y-40985000D01*
X29675714Y-40944524D01*
X29513810Y-40944524D01*
X29432857Y-40985000D01*
X29351905Y-41065952D01*
X29311429Y-41227857D01*
X29311429Y-41511190D01*
X29351905Y-41673095D01*
X29432857Y-41754048D01*
X29513810Y-41794524D01*
X29675714Y-41794524D01*
X28906667Y-41794524D02*
X28744762Y-41794524D01*
X28663810Y-41754048D01*
X28623334Y-41713571D01*
X28542381Y-41592143D01*
X28501905Y-41430238D01*
X28501905Y-41106429D01*
X28542381Y-41025476D01*
X28582857Y-40985000D01*
X28663810Y-40944524D01*
X28825714Y-40944524D01*
X28906667Y-40985000D01*
X28947143Y-41025476D01*
X28987619Y-41106429D01*
X28987619Y-41308810D01*
X28947143Y-41389762D01*
X28906667Y-41430238D01*
X28825714Y-41470714D01*
X28663810Y-41470714D01*
X28582857Y-41430238D01*
X28542381Y-41389762D01*
X28501905Y-41308810D01*
X22635714Y-41725476D02*
X22716667Y-41685000D01*
X22797619Y-41604048D01*
X22919048Y-41482619D01*
X23000000Y-41442143D01*
X23080952Y-41442143D01*
X23040476Y-41644524D02*
X23121429Y-41604048D01*
X23202381Y-41523095D01*
X23242857Y-41361190D01*
X23242857Y-41077857D01*
X23202381Y-40915952D01*
X23121429Y-40835000D01*
X23040476Y-40794524D01*
X22878572Y-40794524D01*
X22797619Y-40835000D01*
X22716667Y-40915952D01*
X22676191Y-41077857D01*
X22676191Y-41361190D01*
X22716667Y-41523095D01*
X22797619Y-41604048D01*
X22878572Y-41644524D01*
X23040476Y-41644524D01*
X21866667Y-41644524D02*
X22352381Y-41644524D01*
X22109524Y-41644524D02*
X22109524Y-40794524D01*
X22190476Y-40915952D01*
X22271429Y-40996905D01*
X22352381Y-41037381D01*
X21340476Y-40794524D02*
X21259524Y-40794524D01*
X21178572Y-40835000D01*
X21138095Y-40875476D01*
X21097619Y-40956429D01*
X21057143Y-41118333D01*
X21057143Y-41320714D01*
X21097619Y-41482619D01*
X21138095Y-41563571D01*
X21178572Y-41604048D01*
X21259524Y-41644524D01*
X21340476Y-41644524D01*
X21421429Y-41604048D01*
X21461905Y-41563571D01*
X21502381Y-41482619D01*
X21542857Y-41320714D01*
X21542857Y-41118333D01*
X21502381Y-40956429D01*
X21461905Y-40875476D01*
X21421429Y-40835000D01*
X21340476Y-40794524D01*
X14755476Y-23534286D02*
X14715000Y-23453333D01*
X14634048Y-23372381D01*
X14512619Y-23250952D01*
X14472143Y-23170000D01*
X14472143Y-23089048D01*
X14674524Y-23129524D02*
X14634048Y-23048571D01*
X14553095Y-22967619D01*
X14391190Y-22927143D01*
X14107857Y-22927143D01*
X13945952Y-22967619D01*
X13865000Y-23048571D01*
X13824524Y-23129524D01*
X13824524Y-23291428D01*
X13865000Y-23372381D01*
X13945952Y-23453333D01*
X14107857Y-23493809D01*
X14391190Y-23493809D01*
X14553095Y-23453333D01*
X14634048Y-23372381D01*
X14674524Y-23291428D01*
X14674524Y-23129524D01*
X14674524Y-24303333D02*
X14674524Y-23817619D01*
X14674524Y-24060476D02*
X13824524Y-24060476D01*
X13945952Y-23979524D01*
X14026905Y-23898571D01*
X14067381Y-23817619D01*
X14674524Y-25112857D02*
X14674524Y-24627143D01*
X14674524Y-24870000D02*
X13824524Y-24870000D01*
X13945952Y-24789048D01*
X14026905Y-24708095D01*
X14067381Y-24627143D01*
X14675476Y-19454286D02*
X14635000Y-19373333D01*
X14554048Y-19292381D01*
X14432619Y-19170952D01*
X14392143Y-19090000D01*
X14392143Y-19009048D01*
X14594524Y-19049524D02*
X14554048Y-18968571D01*
X14473095Y-18887619D01*
X14311190Y-18847143D01*
X14027857Y-18847143D01*
X13865952Y-18887619D01*
X13785000Y-18968571D01*
X13744524Y-19049524D01*
X13744524Y-19211428D01*
X13785000Y-19292381D01*
X13865952Y-19373333D01*
X14027857Y-19413809D01*
X14311190Y-19413809D01*
X14473095Y-19373333D01*
X14554048Y-19292381D01*
X14594524Y-19211428D01*
X14594524Y-19049524D01*
X14594524Y-20223333D02*
X14594524Y-19737619D01*
X14594524Y-19980476D02*
X13744524Y-19980476D01*
X13865952Y-19899524D01*
X13946905Y-19818571D01*
X13987381Y-19737619D01*
X13825476Y-20547143D02*
X13785000Y-20587619D01*
X13744524Y-20668571D01*
X13744524Y-20870952D01*
X13785000Y-20951905D01*
X13825476Y-20992381D01*
X13906429Y-21032857D01*
X13987381Y-21032857D01*
X14108810Y-20992381D01*
X14594524Y-20506667D01*
X14594524Y-21032857D01*
X14555476Y-15554286D02*
X14515000Y-15473333D01*
X14434048Y-15392381D01*
X14312619Y-15270952D01*
X14272143Y-15190000D01*
X14272143Y-15109048D01*
X14474524Y-15149524D02*
X14434048Y-15068571D01*
X14353095Y-14987619D01*
X14191190Y-14947143D01*
X13907857Y-14947143D01*
X13745952Y-14987619D01*
X13665000Y-15068571D01*
X13624524Y-15149524D01*
X13624524Y-15311428D01*
X13665000Y-15392381D01*
X13745952Y-15473333D01*
X13907857Y-15513809D01*
X14191190Y-15513809D01*
X14353095Y-15473333D01*
X14434048Y-15392381D01*
X14474524Y-15311428D01*
X14474524Y-15149524D01*
X14474524Y-16323333D02*
X14474524Y-15837619D01*
X14474524Y-16080476D02*
X13624524Y-16080476D01*
X13745952Y-15999524D01*
X13826905Y-15918571D01*
X13867381Y-15837619D01*
X13624524Y-16606667D02*
X13624524Y-17132857D01*
X13948333Y-16849524D01*
X13948333Y-16970952D01*
X13988810Y-17051905D01*
X14029286Y-17092381D01*
X14110238Y-17132857D01*
X14312619Y-17132857D01*
X14393571Y-17092381D01*
X14434048Y-17051905D01*
X14474524Y-16970952D01*
X14474524Y-16728095D01*
X14434048Y-16647143D01*
X14393571Y-16606667D01*
X32785714Y-28115476D02*
X32866667Y-28075000D01*
X32947619Y-27994048D01*
X33069048Y-27872619D01*
X33150000Y-27832143D01*
X33230952Y-27832143D01*
X33190476Y-28034524D02*
X33271429Y-27994048D01*
X33352381Y-27913095D01*
X33392857Y-27751190D01*
X33392857Y-27467857D01*
X33352381Y-27305952D01*
X33271429Y-27225000D01*
X33190476Y-27184524D01*
X33028572Y-27184524D01*
X32947619Y-27225000D01*
X32866667Y-27305952D01*
X32826191Y-27467857D01*
X32826191Y-27751190D01*
X32866667Y-27913095D01*
X32947619Y-27994048D01*
X33028572Y-28034524D01*
X33190476Y-28034524D01*
X32016667Y-28034524D02*
X32502381Y-28034524D01*
X32259524Y-28034524D02*
X32259524Y-27184524D01*
X32340476Y-27305952D01*
X32421429Y-27386905D01*
X32502381Y-27427381D01*
X31288095Y-27467857D02*
X31288095Y-28034524D01*
X31490476Y-27144048D02*
X31692857Y-27751190D01*
X31166667Y-27751190D01*
X5891667Y-19834524D02*
X6175000Y-19429762D01*
X6377381Y-19834524D02*
X6377381Y-18984524D01*
X6053572Y-18984524D01*
X5972619Y-19025000D01*
X5932143Y-19065476D01*
X5891667Y-19146429D01*
X5891667Y-19267857D01*
X5932143Y-19348810D01*
X5972619Y-19389286D01*
X6053572Y-19429762D01*
X6377381Y-19429762D01*
X5082143Y-19834524D02*
X5567857Y-19834524D01*
X5325000Y-19834524D02*
X5325000Y-18984524D01*
X5405952Y-19105952D01*
X5486905Y-19186905D01*
X5567857Y-19227381D01*
X3341667Y-19834524D02*
X3625000Y-19429762D01*
X3827381Y-19834524D02*
X3827381Y-18984524D01*
X3503572Y-18984524D01*
X3422619Y-19025000D01*
X3382143Y-19065476D01*
X3341667Y-19146429D01*
X3341667Y-19267857D01*
X3382143Y-19348810D01*
X3422619Y-19389286D01*
X3503572Y-19429762D01*
X3827381Y-19429762D01*
X3017857Y-19065476D02*
X2977381Y-19025000D01*
X2896429Y-18984524D01*
X2694048Y-18984524D01*
X2613095Y-19025000D01*
X2572619Y-19065476D01*
X2532143Y-19146429D01*
X2532143Y-19227381D01*
X2572619Y-19348810D01*
X3058333Y-19834524D01*
X2532143Y-19834524D01*
X28124524Y-45018333D02*
X27719762Y-44735000D01*
X28124524Y-44532619D02*
X27274524Y-44532619D01*
X27274524Y-44856428D01*
X27315000Y-44937381D01*
X27355476Y-44977857D01*
X27436429Y-45018333D01*
X27557857Y-45018333D01*
X27638810Y-44977857D01*
X27679286Y-44937381D01*
X27719762Y-44856428D01*
X27719762Y-44532619D01*
X27274524Y-45301667D02*
X27274524Y-45827857D01*
X27598333Y-45544524D01*
X27598333Y-45665952D01*
X27638810Y-45746905D01*
X27679286Y-45787381D01*
X27760238Y-45827857D01*
X27962619Y-45827857D01*
X28043571Y-45787381D01*
X28084048Y-45746905D01*
X28124524Y-45665952D01*
X28124524Y-45423095D01*
X28084048Y-45342143D01*
X28043571Y-45301667D01*
X21084524Y-34158333D02*
X20679762Y-33875000D01*
X21084524Y-33672619D02*
X20234524Y-33672619D01*
X20234524Y-33996428D01*
X20275000Y-34077381D01*
X20315476Y-34117857D01*
X20396429Y-34158333D01*
X20517857Y-34158333D01*
X20598810Y-34117857D01*
X20639286Y-34077381D01*
X20679762Y-33996428D01*
X20679762Y-33672619D01*
X20234524Y-34886905D02*
X20234524Y-34725000D01*
X20275000Y-34644048D01*
X20315476Y-34603571D01*
X20436905Y-34522619D01*
X20598810Y-34482143D01*
X20922619Y-34482143D01*
X21003571Y-34522619D01*
X21044048Y-34563095D01*
X21084524Y-34644048D01*
X21084524Y-34805952D01*
X21044048Y-34886905D01*
X21003571Y-34927381D01*
X20922619Y-34967857D01*
X20720238Y-34967857D01*
X20639286Y-34927381D01*
X20598810Y-34886905D01*
X20558333Y-34805952D01*
X20558333Y-34644048D01*
X20598810Y-34563095D01*
X20639286Y-34522619D01*
X20720238Y-34482143D01*
X14084524Y-44958333D02*
X13679762Y-44675000D01*
X14084524Y-44472619D02*
X13234524Y-44472619D01*
X13234524Y-44796428D01*
X13275000Y-44877381D01*
X13315476Y-44917857D01*
X13396429Y-44958333D01*
X13517857Y-44958333D01*
X13598810Y-44917857D01*
X13639286Y-44877381D01*
X13679762Y-44796428D01*
X13679762Y-44472619D01*
X13234524Y-45241667D02*
X13234524Y-45808333D01*
X14084524Y-45444048D01*
X14034524Y-39128333D02*
X13629762Y-38845000D01*
X14034524Y-38642619D02*
X13184524Y-38642619D01*
X13184524Y-38966428D01*
X13225000Y-39047381D01*
X13265476Y-39087857D01*
X13346429Y-39128333D01*
X13467857Y-39128333D01*
X13548810Y-39087857D01*
X13589286Y-39047381D01*
X13629762Y-38966428D01*
X13629762Y-38642619D01*
X13548810Y-39614048D02*
X13508333Y-39533095D01*
X13467857Y-39492619D01*
X13386905Y-39452143D01*
X13346429Y-39452143D01*
X13265476Y-39492619D01*
X13225000Y-39533095D01*
X13184524Y-39614048D01*
X13184524Y-39775952D01*
X13225000Y-39856905D01*
X13265476Y-39897381D01*
X13346429Y-39937857D01*
X13386905Y-39937857D01*
X13467857Y-39897381D01*
X13508333Y-39856905D01*
X13548810Y-39775952D01*
X13548810Y-39614048D01*
X13589286Y-39533095D01*
X13629762Y-39492619D01*
X13710714Y-39452143D01*
X13872619Y-39452143D01*
X13953571Y-39492619D01*
X13994048Y-39533095D01*
X14034524Y-39614048D01*
X14034524Y-39775952D01*
X13994048Y-39856905D01*
X13953571Y-39897381D01*
X13872619Y-39937857D01*
X13710714Y-39937857D01*
X13629762Y-39897381D01*
X13589286Y-39856905D01*
X13548810Y-39775952D01*
X14014524Y-34028333D02*
X13609762Y-33745000D01*
X14014524Y-33542619D02*
X13164524Y-33542619D01*
X13164524Y-33866428D01*
X13205000Y-33947381D01*
X13245476Y-33987857D01*
X13326429Y-34028333D01*
X13447857Y-34028333D01*
X13528810Y-33987857D01*
X13569286Y-33947381D01*
X13609762Y-33866428D01*
X13609762Y-33542619D01*
X14014524Y-34433095D02*
X14014524Y-34595000D01*
X13974048Y-34675952D01*
X13933571Y-34716428D01*
X13812143Y-34797381D01*
X13650238Y-34837857D01*
X13326429Y-34837857D01*
X13245476Y-34797381D01*
X13205000Y-34756905D01*
X13164524Y-34675952D01*
X13164524Y-34514048D01*
X13205000Y-34433095D01*
X13245476Y-34392619D01*
X13326429Y-34352143D01*
X13528810Y-34352143D01*
X13609762Y-34392619D01*
X13650238Y-34433095D01*
X13690714Y-34514048D01*
X13690714Y-34675952D01*
X13650238Y-34756905D01*
X13609762Y-34797381D01*
X13528810Y-34837857D01*
X28044524Y-38803571D02*
X27639762Y-38520238D01*
X28044524Y-38317857D02*
X27194524Y-38317857D01*
X27194524Y-38641666D01*
X27235000Y-38722619D01*
X27275476Y-38763095D01*
X27356429Y-38803571D01*
X27477857Y-38803571D01*
X27558810Y-38763095D01*
X27599286Y-38722619D01*
X27639762Y-38641666D01*
X27639762Y-38317857D01*
X28044524Y-39613095D02*
X28044524Y-39127381D01*
X28044524Y-39370238D02*
X27194524Y-39370238D01*
X27315952Y-39289286D01*
X27396905Y-39208333D01*
X27437381Y-39127381D01*
X27194524Y-40139286D02*
X27194524Y-40220238D01*
X27235000Y-40301190D01*
X27275476Y-40341667D01*
X27356429Y-40382143D01*
X27518333Y-40422619D01*
X27720714Y-40422619D01*
X27882619Y-40382143D01*
X27963571Y-40341667D01*
X28004048Y-40301190D01*
X28044524Y-40220238D01*
X28044524Y-40139286D01*
X28004048Y-40058333D01*
X27963571Y-40017857D01*
X27882619Y-39977381D01*
X27720714Y-39936905D01*
X27518333Y-39936905D01*
X27356429Y-39977381D01*
X27275476Y-40017857D01*
X27235000Y-40058333D01*
X27194524Y-40139286D01*
X21006429Y-21854524D02*
X21289762Y-21449762D01*
X21492143Y-21854524D02*
X21492143Y-21004524D01*
X21168334Y-21004524D01*
X21087381Y-21045000D01*
X21046905Y-21085476D01*
X21006429Y-21166429D01*
X21006429Y-21287857D01*
X21046905Y-21368810D01*
X21087381Y-21409286D01*
X21168334Y-21449762D01*
X21492143Y-21449762D01*
X20196905Y-21854524D02*
X20682619Y-21854524D01*
X20439762Y-21854524D02*
X20439762Y-21004524D01*
X20520714Y-21125952D01*
X20601667Y-21206905D01*
X20682619Y-21247381D01*
X19387381Y-21854524D02*
X19873095Y-21854524D01*
X19630238Y-21854524D02*
X19630238Y-21004524D01*
X19711190Y-21125952D01*
X19792143Y-21206905D01*
X19873095Y-21247381D01*
X20896429Y-17884524D02*
X21179762Y-17479762D01*
X21382143Y-17884524D02*
X21382143Y-17034524D01*
X21058334Y-17034524D01*
X20977381Y-17075000D01*
X20936905Y-17115476D01*
X20896429Y-17196429D01*
X20896429Y-17317857D01*
X20936905Y-17398810D01*
X20977381Y-17439286D01*
X21058334Y-17479762D01*
X21382143Y-17479762D01*
X20086905Y-17884524D02*
X20572619Y-17884524D01*
X20329762Y-17884524D02*
X20329762Y-17034524D01*
X20410714Y-17155952D01*
X20491667Y-17236905D01*
X20572619Y-17277381D01*
X19763095Y-17115476D02*
X19722619Y-17075000D01*
X19641667Y-17034524D01*
X19439286Y-17034524D01*
X19358333Y-17075000D01*
X19317857Y-17115476D01*
X19277381Y-17196429D01*
X19277381Y-17277381D01*
X19317857Y-17398810D01*
X19803571Y-17884524D01*
X19277381Y-17884524D01*
X20896429Y-14434524D02*
X21179762Y-14029762D01*
X21382143Y-14434524D02*
X21382143Y-13584524D01*
X21058334Y-13584524D01*
X20977381Y-13625000D01*
X20936905Y-13665476D01*
X20896429Y-13746429D01*
X20896429Y-13867857D01*
X20936905Y-13948810D01*
X20977381Y-13989286D01*
X21058334Y-14029762D01*
X21382143Y-14029762D01*
X20086905Y-14434524D02*
X20572619Y-14434524D01*
X20329762Y-14434524D02*
X20329762Y-13584524D01*
X20410714Y-13705952D01*
X20491667Y-13786905D01*
X20572619Y-13827381D01*
X19803571Y-13584524D02*
X19277381Y-13584524D01*
X19560714Y-13908333D01*
X19439286Y-13908333D01*
X19358333Y-13948810D01*
X19317857Y-13989286D01*
X19277381Y-14070238D01*
X19277381Y-14272619D01*
X19317857Y-14353571D01*
X19358333Y-14394048D01*
X19439286Y-14434524D01*
X19682143Y-14434524D01*
X19763095Y-14394048D01*
X19803571Y-14353571D01*
X7496429Y-12284524D02*
X7779762Y-11879762D01*
X7982143Y-12284524D02*
X7982143Y-11434524D01*
X7658334Y-11434524D01*
X7577381Y-11475000D01*
X7536905Y-11515476D01*
X7496429Y-11596429D01*
X7496429Y-11717857D01*
X7536905Y-11798810D01*
X7577381Y-11839286D01*
X7658334Y-11879762D01*
X7982143Y-11879762D01*
X6686905Y-12284524D02*
X7172619Y-12284524D01*
X6929762Y-12284524D02*
X6929762Y-11434524D01*
X7010714Y-11555952D01*
X7091667Y-11636905D01*
X7172619Y-11677381D01*
X5958333Y-11717857D02*
X5958333Y-12284524D01*
X6160714Y-11394048D02*
X6363095Y-12001190D01*
X5836905Y-12001190D01*
X22886429Y-31434524D02*
X23169762Y-31029762D01*
X23372143Y-31434524D02*
X23372143Y-30584524D01*
X23048334Y-30584524D01*
X22967381Y-30625000D01*
X22926905Y-30665476D01*
X22886429Y-30746429D01*
X22886429Y-30867857D01*
X22926905Y-30948810D01*
X22967381Y-30989286D01*
X23048334Y-31029762D01*
X23372143Y-31029762D01*
X22076905Y-31434524D02*
X22562619Y-31434524D01*
X22319762Y-31434524D02*
X22319762Y-30584524D01*
X22400714Y-30705952D01*
X22481667Y-30786905D01*
X22562619Y-30827381D01*
X21307857Y-30584524D02*
X21712619Y-30584524D01*
X21753095Y-30989286D01*
X21712619Y-30948810D01*
X21631667Y-30908333D01*
X21429286Y-30908333D01*
X21348333Y-30948810D01*
X21307857Y-30989286D01*
X21267381Y-31070238D01*
X21267381Y-31272619D01*
X21307857Y-31353571D01*
X21348333Y-31394048D01*
X21429286Y-31434524D01*
X21631667Y-31434524D01*
X21712619Y-31394048D01*
X21753095Y-31353571D01*
X3166429Y-12274524D02*
X3449762Y-11869762D01*
X3652143Y-12274524D02*
X3652143Y-11424524D01*
X3328334Y-11424524D01*
X3247381Y-11465000D01*
X3206905Y-11505476D01*
X3166429Y-11586429D01*
X3166429Y-11707857D01*
X3206905Y-11788810D01*
X3247381Y-11829286D01*
X3328334Y-11869762D01*
X3652143Y-11869762D01*
X2356905Y-12274524D02*
X2842619Y-12274524D01*
X2599762Y-12274524D02*
X2599762Y-11424524D01*
X2680714Y-11545952D01*
X2761667Y-11626905D01*
X2842619Y-11667381D01*
X1628333Y-11424524D02*
X1790238Y-11424524D01*
X1871190Y-11465000D01*
X1911667Y-11505476D01*
X1992619Y-11626905D01*
X2033095Y-11788810D01*
X2033095Y-12112619D01*
X1992619Y-12193571D01*
X1952143Y-12234048D01*
X1871190Y-12274524D01*
X1709286Y-12274524D01*
X1628333Y-12234048D01*
X1587857Y-12193571D01*
X1547381Y-12112619D01*
X1547381Y-11910238D01*
X1587857Y-11829286D01*
X1628333Y-11788810D01*
X1709286Y-11748333D01*
X1871190Y-11748333D01*
X1952143Y-11788810D01*
X1992619Y-11829286D01*
X2033095Y-11910238D01*
X15586429Y-42944524D02*
X15869762Y-42539762D01*
X16072143Y-42944524D02*
X16072143Y-42094524D01*
X15748334Y-42094524D01*
X15667381Y-42135000D01*
X15626905Y-42175476D01*
X15586429Y-42256429D01*
X15586429Y-42377857D01*
X15626905Y-42458810D01*
X15667381Y-42499286D01*
X15748334Y-42539762D01*
X16072143Y-42539762D01*
X14776905Y-42944524D02*
X15262619Y-42944524D01*
X15019762Y-42944524D02*
X15019762Y-42094524D01*
X15100714Y-42215952D01*
X15181667Y-42296905D01*
X15262619Y-42337381D01*
X14493571Y-42094524D02*
X13926905Y-42094524D01*
X14291190Y-42944524D01*
X15526429Y-37309524D02*
X15809762Y-36904762D01*
X16012143Y-37309524D02*
X16012143Y-36459524D01*
X15688334Y-36459524D01*
X15607381Y-36500000D01*
X15566905Y-36540476D01*
X15526429Y-36621429D01*
X15526429Y-36742857D01*
X15566905Y-36823810D01*
X15607381Y-36864286D01*
X15688334Y-36904762D01*
X16012143Y-36904762D01*
X14716905Y-37309524D02*
X15202619Y-37309524D01*
X14959762Y-37309524D02*
X14959762Y-36459524D01*
X15040714Y-36580952D01*
X15121667Y-36661905D01*
X15202619Y-36702381D01*
X14231190Y-36823810D02*
X14312143Y-36783333D01*
X14352619Y-36742857D01*
X14393095Y-36661905D01*
X14393095Y-36621429D01*
X14352619Y-36540476D01*
X14312143Y-36500000D01*
X14231190Y-36459524D01*
X14069286Y-36459524D01*
X13988333Y-36500000D01*
X13947857Y-36540476D01*
X13907381Y-36621429D01*
X13907381Y-36661905D01*
X13947857Y-36742857D01*
X13988333Y-36783333D01*
X14069286Y-36823810D01*
X14231190Y-36823810D01*
X14312143Y-36864286D01*
X14352619Y-36904762D01*
X14393095Y-36985714D01*
X14393095Y-37147619D01*
X14352619Y-37228571D01*
X14312143Y-37269048D01*
X14231190Y-37309524D01*
X14069286Y-37309524D01*
X13988333Y-37269048D01*
X13947857Y-37228571D01*
X13907381Y-37147619D01*
X13907381Y-36985714D01*
X13947857Y-36904762D01*
X13988333Y-36864286D01*
X14069286Y-36823810D01*
X29526429Y-42994524D02*
X29809762Y-42589762D01*
X30012143Y-42994524D02*
X30012143Y-42144524D01*
X29688334Y-42144524D01*
X29607381Y-42185000D01*
X29566905Y-42225476D01*
X29526429Y-42306429D01*
X29526429Y-42427857D01*
X29566905Y-42508810D01*
X29607381Y-42549286D01*
X29688334Y-42589762D01*
X30012143Y-42589762D01*
X28716905Y-42994524D02*
X29202619Y-42994524D01*
X28959762Y-42994524D02*
X28959762Y-42144524D01*
X29040714Y-42265952D01*
X29121667Y-42346905D01*
X29202619Y-42387381D01*
X28312143Y-42994524D02*
X28150238Y-42994524D01*
X28069286Y-42954048D01*
X28028810Y-42913571D01*
X27947857Y-42792143D01*
X27907381Y-42630238D01*
X27907381Y-42306429D01*
X27947857Y-42225476D01*
X27988333Y-42185000D01*
X28069286Y-42144524D01*
X28231190Y-42144524D01*
X28312143Y-42185000D01*
X28352619Y-42225476D01*
X28393095Y-42306429D01*
X28393095Y-42508810D01*
X28352619Y-42589762D01*
X28312143Y-42630238D01*
X28231190Y-42670714D01*
X28069286Y-42670714D01*
X27988333Y-42630238D01*
X27947857Y-42589762D01*
X27907381Y-42508810D01*
X15616429Y-31234524D02*
X15899762Y-30829762D01*
X16102143Y-31234524D02*
X16102143Y-30384524D01*
X15778334Y-30384524D01*
X15697381Y-30425000D01*
X15656905Y-30465476D01*
X15616429Y-30546429D01*
X15616429Y-30667857D01*
X15656905Y-30748810D01*
X15697381Y-30789286D01*
X15778334Y-30829762D01*
X16102143Y-30829762D01*
X15292619Y-30465476D02*
X15252143Y-30425000D01*
X15171191Y-30384524D01*
X14968810Y-30384524D01*
X14887857Y-30425000D01*
X14847381Y-30465476D01*
X14806905Y-30546429D01*
X14806905Y-30627381D01*
X14847381Y-30748810D01*
X15333095Y-31234524D01*
X14806905Y-31234524D01*
X14280714Y-30384524D02*
X14199762Y-30384524D01*
X14118810Y-30425000D01*
X14078333Y-30465476D01*
X14037857Y-30546429D01*
X13997381Y-30708333D01*
X13997381Y-30910714D01*
X14037857Y-31072619D01*
X14078333Y-31153571D01*
X14118810Y-31194048D01*
X14199762Y-31234524D01*
X14280714Y-31234524D01*
X14361667Y-31194048D01*
X14402143Y-31153571D01*
X14442619Y-31072619D01*
X14483095Y-30910714D01*
X14483095Y-30708333D01*
X14442619Y-30546429D01*
X14402143Y-30465476D01*
X14361667Y-30425000D01*
X14280714Y-30384524D01*
X22646429Y-42944524D02*
X22929762Y-42539762D01*
X23132143Y-42944524D02*
X23132143Y-42094524D01*
X22808334Y-42094524D01*
X22727381Y-42135000D01*
X22686905Y-42175476D01*
X22646429Y-42256429D01*
X22646429Y-42377857D01*
X22686905Y-42458810D01*
X22727381Y-42499286D01*
X22808334Y-42539762D01*
X23132143Y-42539762D01*
X22322619Y-42175476D02*
X22282143Y-42135000D01*
X22201191Y-42094524D01*
X21998810Y-42094524D01*
X21917857Y-42135000D01*
X21877381Y-42175476D01*
X21836905Y-42256429D01*
X21836905Y-42337381D01*
X21877381Y-42458810D01*
X22363095Y-42944524D01*
X21836905Y-42944524D01*
X21027381Y-42944524D02*
X21513095Y-42944524D01*
X21270238Y-42944524D02*
X21270238Y-42094524D01*
X21351190Y-42215952D01*
X21432143Y-42296905D01*
X21513095Y-42337381D01*
X29616429Y-37194524D02*
X29899762Y-36789762D01*
X30102143Y-37194524D02*
X30102143Y-36344524D01*
X29778334Y-36344524D01*
X29697381Y-36385000D01*
X29656905Y-36425476D01*
X29616429Y-36506429D01*
X29616429Y-36627857D01*
X29656905Y-36708810D01*
X29697381Y-36749286D01*
X29778334Y-36789762D01*
X30102143Y-36789762D01*
X29292619Y-36425476D02*
X29252143Y-36385000D01*
X29171191Y-36344524D01*
X28968810Y-36344524D01*
X28887857Y-36385000D01*
X28847381Y-36425476D01*
X28806905Y-36506429D01*
X28806905Y-36587381D01*
X28847381Y-36708810D01*
X29333095Y-37194524D01*
X28806905Y-37194524D01*
X28483095Y-36425476D02*
X28442619Y-36385000D01*
X28361667Y-36344524D01*
X28159286Y-36344524D01*
X28078333Y-36385000D01*
X28037857Y-36425476D01*
X27997381Y-36506429D01*
X27997381Y-36587381D01*
X28037857Y-36708810D01*
X28523571Y-37194524D01*
X27997381Y-37194524D01*
X22696429Y-37144524D02*
X22979762Y-36739762D01*
X23182143Y-37144524D02*
X23182143Y-36294524D01*
X22858334Y-36294524D01*
X22777381Y-36335000D01*
X22736905Y-36375476D01*
X22696429Y-36456429D01*
X22696429Y-36577857D01*
X22736905Y-36658810D01*
X22777381Y-36699286D01*
X22858334Y-36739762D01*
X23182143Y-36739762D01*
X22372619Y-36375476D02*
X22332143Y-36335000D01*
X22251191Y-36294524D01*
X22048810Y-36294524D01*
X21967857Y-36335000D01*
X21927381Y-36375476D01*
X21886905Y-36456429D01*
X21886905Y-36537381D01*
X21927381Y-36658810D01*
X22413095Y-37144524D01*
X21886905Y-37144524D01*
X21603571Y-36294524D02*
X21077381Y-36294524D01*
X21360714Y-36618333D01*
X21239286Y-36618333D01*
X21158333Y-36658810D01*
X21117857Y-36699286D01*
X21077381Y-36780238D01*
X21077381Y-36982619D01*
X21117857Y-37063571D01*
X21158333Y-37104048D01*
X21239286Y-37144524D01*
X21482143Y-37144524D01*
X21563095Y-37104048D01*
X21603571Y-37063571D01*
X29596429Y-22134524D02*
X29879762Y-21729762D01*
X30082143Y-22134524D02*
X30082143Y-21284524D01*
X29758334Y-21284524D01*
X29677381Y-21325000D01*
X29636905Y-21365476D01*
X29596429Y-21446429D01*
X29596429Y-21567857D01*
X29636905Y-21648810D01*
X29677381Y-21689286D01*
X29758334Y-21729762D01*
X30082143Y-21729762D01*
X29272619Y-21365476D02*
X29232143Y-21325000D01*
X29151191Y-21284524D01*
X28948810Y-21284524D01*
X28867857Y-21325000D01*
X28827381Y-21365476D01*
X28786905Y-21446429D01*
X28786905Y-21527381D01*
X28827381Y-21648810D01*
X29313095Y-22134524D01*
X28786905Y-22134524D01*
X28058333Y-21567857D02*
X28058333Y-22134524D01*
X28260714Y-21244048D02*
X28463095Y-21851190D01*
X27936905Y-21851190D01*
X33316429Y-20174524D02*
X33599762Y-19769762D01*
X33802143Y-20174524D02*
X33802143Y-19324524D01*
X33478334Y-19324524D01*
X33397381Y-19365000D01*
X33356905Y-19405476D01*
X33316429Y-19486429D01*
X33316429Y-19607857D01*
X33356905Y-19688810D01*
X33397381Y-19729286D01*
X33478334Y-19769762D01*
X33802143Y-19769762D01*
X32992619Y-19405476D02*
X32952143Y-19365000D01*
X32871191Y-19324524D01*
X32668810Y-19324524D01*
X32587857Y-19365000D01*
X32547381Y-19405476D01*
X32506905Y-19486429D01*
X32506905Y-19567381D01*
X32547381Y-19688810D01*
X33033095Y-20174524D01*
X32506905Y-20174524D01*
X31737857Y-19324524D02*
X32142619Y-19324524D01*
X32183095Y-19729286D01*
X32142619Y-19688810D01*
X32061667Y-19648333D01*
X31859286Y-19648333D01*
X31778333Y-19688810D01*
X31737857Y-19729286D01*
X31697381Y-19810238D01*
X31697381Y-20012619D01*
X31737857Y-20093571D01*
X31778333Y-20134048D01*
X31859286Y-20174524D01*
X32061667Y-20174524D01*
X32142619Y-20134048D01*
X32183095Y-20093571D01*
X10247619Y-29084524D02*
X10247619Y-29772619D01*
X10207143Y-29853571D01*
X10166667Y-29894048D01*
X10085714Y-29934524D01*
X9923810Y-29934524D01*
X9842857Y-29894048D01*
X9802381Y-29853571D01*
X9761905Y-29772619D01*
X9761905Y-29084524D01*
X9438095Y-29084524D02*
X8911905Y-29084524D01*
X9195238Y-29408333D01*
X9073810Y-29408333D01*
X8992857Y-29448810D01*
X8952381Y-29489286D01*
X8911905Y-29570238D01*
X8911905Y-29772619D01*
X8952381Y-29853571D01*
X8992857Y-29894048D01*
X9073810Y-29934524D01*
X9316667Y-29934524D01*
X9397619Y-29894048D01*
X9438095Y-29853571D01*
X29975476Y-16654286D02*
X29935000Y-16573333D01*
X29854048Y-16492381D01*
X29732619Y-16370952D01*
X29692143Y-16290000D01*
X29692143Y-16209048D01*
X29894524Y-16249524D02*
X29854048Y-16168571D01*
X29773095Y-16087619D01*
X29611190Y-16047143D01*
X29327857Y-16047143D01*
X29165952Y-16087619D01*
X29085000Y-16168571D01*
X29044524Y-16249524D01*
X29044524Y-16411428D01*
X29085000Y-16492381D01*
X29165952Y-16573333D01*
X29327857Y-16613809D01*
X29611190Y-16613809D01*
X29773095Y-16573333D01*
X29854048Y-16492381D01*
X29894524Y-16411428D01*
X29894524Y-16249524D01*
X29894524Y-17423333D02*
X29894524Y-16937619D01*
X29894524Y-17180476D02*
X29044524Y-17180476D01*
X29165952Y-17099524D01*
X29246905Y-17018571D01*
X29287381Y-16937619D01*
X29044524Y-18192381D02*
X29044524Y-17787619D01*
X29449286Y-17747143D01*
X29408810Y-17787619D01*
X29368333Y-17868571D01*
X29368333Y-18070952D01*
X29408810Y-18151905D01*
X29449286Y-18192381D01*
X29530238Y-18232857D01*
X29732619Y-18232857D01*
X29813571Y-18192381D01*
X29854048Y-18151905D01*
X29894524Y-18070952D01*
X29894524Y-17868571D01*
X29854048Y-17787619D01*
X29813571Y-17747143D01*
X29814524Y-12943571D02*
X29409762Y-12660238D01*
X29814524Y-12457857D02*
X28964524Y-12457857D01*
X28964524Y-12781666D01*
X29005000Y-12862619D01*
X29045476Y-12903095D01*
X29126429Y-12943571D01*
X29247857Y-12943571D01*
X29328810Y-12903095D01*
X29369286Y-12862619D01*
X29409762Y-12781666D01*
X29409762Y-12457857D01*
X29045476Y-13267381D02*
X29005000Y-13307857D01*
X28964524Y-13388809D01*
X28964524Y-13591190D01*
X29005000Y-13672143D01*
X29045476Y-13712619D01*
X29126429Y-13753095D01*
X29207381Y-13753095D01*
X29328810Y-13712619D01*
X29814524Y-13226905D01*
X29814524Y-13753095D01*
X28964524Y-14481667D02*
X28964524Y-14319762D01*
X29005000Y-14238810D01*
X29045476Y-14198333D01*
X29166905Y-14117381D01*
X29328810Y-14076905D01*
X29652619Y-14076905D01*
X29733571Y-14117381D01*
X29774048Y-14157857D01*
X29814524Y-14238810D01*
X29814524Y-14400714D01*
X29774048Y-14481667D01*
X29733571Y-14522143D01*
X29652619Y-14562619D01*
X29450238Y-14562619D01*
X29369286Y-14522143D01*
X29328810Y-14481667D01*
X29288333Y-14400714D01*
X29288333Y-14238810D01*
X29328810Y-14157857D01*
X29369286Y-14117381D01*
X29450238Y-14076905D01*
X29176429Y-11864524D02*
X29459762Y-11459762D01*
X29662143Y-11864524D02*
X29662143Y-11014524D01*
X29338334Y-11014524D01*
X29257381Y-11055000D01*
X29216905Y-11095476D01*
X29176429Y-11176429D01*
X29176429Y-11297857D01*
X29216905Y-11378810D01*
X29257381Y-11419286D01*
X29338334Y-11459762D01*
X29662143Y-11459762D01*
X28852619Y-11095476D02*
X28812143Y-11055000D01*
X28731191Y-11014524D01*
X28528810Y-11014524D01*
X28447857Y-11055000D01*
X28407381Y-11095476D01*
X28366905Y-11176429D01*
X28366905Y-11257381D01*
X28407381Y-11378810D01*
X28893095Y-11864524D01*
X28366905Y-11864524D01*
X28083571Y-11014524D02*
X27516905Y-11014524D01*
X27881190Y-11864524D01*
X28971667Y-32583571D02*
X29012143Y-32624048D01*
X29133572Y-32664524D01*
X29214524Y-32664524D01*
X29335952Y-32624048D01*
X29416905Y-32543095D01*
X29457381Y-32462143D01*
X29497857Y-32300238D01*
X29497857Y-32178810D01*
X29457381Y-32016905D01*
X29416905Y-31935952D01*
X29335952Y-31855000D01*
X29214524Y-31814524D01*
X29133572Y-31814524D01*
X29012143Y-31855000D01*
X28971667Y-31895476D01*
X28647857Y-31895476D02*
X28607381Y-31855000D01*
X28526429Y-31814524D01*
X28324048Y-31814524D01*
X28243095Y-31855000D01*
X28202619Y-31895476D01*
X28162143Y-31976429D01*
X28162143Y-32057381D01*
X28202619Y-32178810D01*
X28688333Y-32664524D01*
X28162143Y-32664524D01*
X21104524Y-44628333D02*
X20699762Y-44345000D01*
X21104524Y-44142619D02*
X20254524Y-44142619D01*
X20254524Y-44466428D01*
X20295000Y-44547381D01*
X20335476Y-44587857D01*
X20416429Y-44628333D01*
X20537857Y-44628333D01*
X20618810Y-44587857D01*
X20659286Y-44547381D01*
X20699762Y-44466428D01*
X20699762Y-44142619D01*
X20537857Y-45356905D02*
X21104524Y-45356905D01*
X20214048Y-45154524D02*
X20821190Y-44952143D01*
X20821190Y-45478333D01*
X21084524Y-39258333D02*
X20679762Y-38975000D01*
X21084524Y-38772619D02*
X20234524Y-38772619D01*
X20234524Y-39096428D01*
X20275000Y-39177381D01*
X20315476Y-39217857D01*
X20396429Y-39258333D01*
X20517857Y-39258333D01*
X20598810Y-39217857D01*
X20639286Y-39177381D01*
X20679762Y-39096428D01*
X20679762Y-38772619D01*
X20234524Y-40027381D02*
X20234524Y-39622619D01*
X20639286Y-39582143D01*
X20598810Y-39622619D01*
X20558333Y-39703571D01*
X20558333Y-39905952D01*
X20598810Y-39986905D01*
X20639286Y-40027381D01*
X20720238Y-40067857D01*
X20922619Y-40067857D01*
X21003571Y-40027381D01*
X21044048Y-39986905D01*
X21084524Y-39905952D01*
X21084524Y-39703571D01*
X21044048Y-39622619D01*
X21003571Y-39582143D01*
M02*
