%TF.GenerationSoftware,KiCad,Pcbnew,4.0.7*%
%TF.CreationDate,2017-11-22T17:52:21+08:00*%
%TF.ProjectId,NixieTube_QS30,4E69786965547562655F515333302E6B,rev?*%
%TF.FileFunction,Legend,Top*%
%FSLAX46Y46*%
G04 Gerber Fmt 4.6, Leading zero omitted, Abs format (unit mm)*
G04 Created by KiCad (PCBNEW 4.0.7) date 11/22/17 17:52:21*
%MOMM*%
%LPD*%
G01*
G04 APERTURE LIST*
%ADD10C,0.100000*%
%ADD11C,0.300000*%
%ADD12C,0.250000*%
%ADD13C,0.153000*%
%ADD14C,0.150000*%
%ADD15C,0.120000*%
G04 APERTURE END LIST*
D10*
D11*
X21878572Y-2728571D02*
X21878572Y-1228571D01*
X21878572Y-1942857D02*
X22735715Y-1942857D01*
X22735715Y-2728571D02*
X22735715Y-1228571D01*
X23235715Y-1228571D02*
X23735715Y-2728571D01*
X24235715Y-1228571D01*
D12*
X13128572Y-46202381D02*
X13128572Y-45202381D01*
X13461906Y-45916667D01*
X13795239Y-45202381D01*
X13795239Y-46202381D01*
X14271429Y-46202381D02*
X14271429Y-45202381D01*
X14700000Y-46154762D02*
X14842857Y-46202381D01*
X15080953Y-46202381D01*
X15176191Y-46154762D01*
X15223810Y-46107143D01*
X15271429Y-46011905D01*
X15271429Y-45916667D01*
X15223810Y-45821429D01*
X15176191Y-45773810D01*
X15080953Y-45726190D01*
X14890476Y-45678571D01*
X14795238Y-45630952D01*
X14747619Y-45583333D01*
X14700000Y-45488095D01*
X14700000Y-45392857D01*
X14747619Y-45297619D01*
X14795238Y-45250000D01*
X14890476Y-45202381D01*
X15128572Y-45202381D01*
X15271429Y-45250000D01*
X15890476Y-45202381D02*
X16080953Y-45202381D01*
X16176191Y-45250000D01*
X16271429Y-45345238D01*
X16319048Y-45535714D01*
X16319048Y-45869048D01*
X16271429Y-46059524D01*
X16176191Y-46154762D01*
X16080953Y-46202381D01*
X15890476Y-46202381D01*
X15795238Y-46154762D01*
X15700000Y-46059524D01*
X15652381Y-45869048D01*
X15652381Y-45535714D01*
X15700000Y-45345238D01*
X15795238Y-45250000D01*
X15890476Y-45202381D01*
X30078572Y-46252381D02*
X30078572Y-45252381D01*
X30411906Y-45966667D01*
X30745239Y-45252381D01*
X30745239Y-46252381D01*
X31411905Y-45252381D02*
X31602382Y-45252381D01*
X31697620Y-45300000D01*
X31792858Y-45395238D01*
X31840477Y-45585714D01*
X31840477Y-45919048D01*
X31792858Y-46109524D01*
X31697620Y-46204762D01*
X31602382Y-46252381D01*
X31411905Y-46252381D01*
X31316667Y-46204762D01*
X31221429Y-46109524D01*
X31173810Y-45919048D01*
X31173810Y-45585714D01*
X31221429Y-45395238D01*
X31316667Y-45300000D01*
X31411905Y-45252381D01*
X32221429Y-46204762D02*
X32364286Y-46252381D01*
X32602382Y-46252381D01*
X32697620Y-46204762D01*
X32745239Y-46157143D01*
X32792858Y-46061905D01*
X32792858Y-45966667D01*
X32745239Y-45871429D01*
X32697620Y-45823810D01*
X32602382Y-45776190D01*
X32411905Y-45728571D01*
X32316667Y-45680952D01*
X32269048Y-45633333D01*
X32221429Y-45538095D01*
X32221429Y-45442857D01*
X32269048Y-45347619D01*
X32316667Y-45300000D01*
X32411905Y-45252381D01*
X32650001Y-45252381D01*
X32792858Y-45300000D01*
X33221429Y-46252381D02*
X33221429Y-45252381D01*
X30614286Y-43604762D02*
X30757143Y-43652381D01*
X30995239Y-43652381D01*
X31090477Y-43604762D01*
X31138096Y-43557143D01*
X31185715Y-43461905D01*
X31185715Y-43366667D01*
X31138096Y-43271429D01*
X31090477Y-43223810D01*
X30995239Y-43176190D01*
X30804762Y-43128571D01*
X30709524Y-43080952D01*
X30661905Y-43033333D01*
X30614286Y-42938095D01*
X30614286Y-42842857D01*
X30661905Y-42747619D01*
X30709524Y-42700000D01*
X30804762Y-42652381D01*
X31042858Y-42652381D01*
X31185715Y-42700000D01*
X32185715Y-43557143D02*
X32138096Y-43604762D01*
X31995239Y-43652381D01*
X31900001Y-43652381D01*
X31757143Y-43604762D01*
X31661905Y-43509524D01*
X31614286Y-43414286D01*
X31566667Y-43223810D01*
X31566667Y-43080952D01*
X31614286Y-42890476D01*
X31661905Y-42795238D01*
X31757143Y-42700000D01*
X31900001Y-42652381D01*
X31995239Y-42652381D01*
X32138096Y-42700000D01*
X32185715Y-42747619D01*
X32614286Y-43652381D02*
X32614286Y-42652381D01*
X33185715Y-43652381D02*
X32757143Y-43080952D01*
X33185715Y-42652381D02*
X32614286Y-43223810D01*
X31138096Y-40200000D02*
X31042858Y-40152381D01*
X30900001Y-40152381D01*
X30757143Y-40200000D01*
X30661905Y-40295238D01*
X30614286Y-40390476D01*
X30566667Y-40580952D01*
X30566667Y-40723810D01*
X30614286Y-40914286D01*
X30661905Y-41009524D01*
X30757143Y-41104762D01*
X30900001Y-41152381D01*
X30995239Y-41152381D01*
X31138096Y-41104762D01*
X31185715Y-41057143D01*
X31185715Y-40723810D01*
X30995239Y-40723810D01*
X31614286Y-41152381D02*
X31614286Y-40152381D01*
X32185715Y-41152381D01*
X32185715Y-40152381D01*
X32661905Y-41152381D02*
X32661905Y-40152381D01*
X32900000Y-40152381D01*
X33042858Y-40200000D01*
X33138096Y-40295238D01*
X33185715Y-40390476D01*
X33233334Y-40580952D01*
X33233334Y-40723810D01*
X33185715Y-40914286D01*
X33138096Y-41009524D01*
X33042858Y-41104762D01*
X32900000Y-41152381D01*
X32661905Y-41152381D01*
X28590476Y-38552381D02*
X28590476Y-37552381D01*
X28971429Y-37552381D01*
X29066667Y-37600000D01*
X29114286Y-37647619D01*
X29161905Y-37742857D01*
X29161905Y-37885714D01*
X29114286Y-37980952D01*
X29066667Y-38028571D01*
X28971429Y-38076190D01*
X28590476Y-38076190D01*
X29495238Y-37552381D02*
X29733333Y-38552381D01*
X29923810Y-37838095D01*
X30114286Y-38552381D01*
X30352381Y-37552381D01*
X31304762Y-38552381D02*
X30971428Y-38076190D01*
X30733333Y-38552381D02*
X30733333Y-37552381D01*
X31114286Y-37552381D01*
X31209524Y-37600000D01*
X31257143Y-37647619D01*
X31304762Y-37742857D01*
X31304762Y-37885714D01*
X31257143Y-37980952D01*
X31209524Y-38028571D01*
X31114286Y-38076190D01*
X30733333Y-38076190D01*
X31733333Y-38028571D02*
X32066667Y-38028571D01*
X32209524Y-38552381D02*
X31733333Y-38552381D01*
X31733333Y-37552381D01*
X32209524Y-37552381D01*
X32638095Y-38552381D02*
X32638095Y-37552381D01*
X33209524Y-38552381D01*
X33209524Y-37552381D01*
X30616667Y-34952381D02*
X30950000Y-35952381D01*
X31283334Y-34952381D01*
X31616667Y-35952381D02*
X31616667Y-34952381D01*
X31854762Y-34952381D01*
X31997620Y-35000000D01*
X32092858Y-35095238D01*
X32140477Y-35190476D01*
X32188096Y-35380952D01*
X32188096Y-35523810D01*
X32140477Y-35714286D01*
X32092858Y-35809524D01*
X31997620Y-35904762D01*
X31854762Y-35952381D01*
X31616667Y-35952381D01*
X33188096Y-35857143D02*
X33140477Y-35904762D01*
X32997620Y-35952381D01*
X32902382Y-35952381D01*
X32759524Y-35904762D01*
X32664286Y-35809524D01*
X32616667Y-35714286D01*
X32569048Y-35523810D01*
X32569048Y-35380952D01*
X32616667Y-35190476D01*
X32664286Y-35095238D01*
X32759524Y-35000000D01*
X32902382Y-34952381D01*
X32997620Y-34952381D01*
X33140477Y-35000000D01*
X33188096Y-35047619D01*
X28957143Y-33554762D02*
X29100000Y-33602381D01*
X29338096Y-33602381D01*
X29433334Y-33554762D01*
X29480953Y-33507143D01*
X29528572Y-33411905D01*
X29528572Y-33316667D01*
X29480953Y-33221429D01*
X29433334Y-33173810D01*
X29338096Y-33126190D01*
X29147619Y-33078571D01*
X29052381Y-33030952D01*
X29004762Y-32983333D01*
X28957143Y-32888095D01*
X28957143Y-32792857D01*
X29004762Y-32697619D01*
X29052381Y-32650000D01*
X29147619Y-32602381D01*
X29385715Y-32602381D01*
X29528572Y-32650000D01*
X29814286Y-32602381D02*
X30385715Y-32602381D01*
X30100000Y-33602381D02*
X30100000Y-32602381D01*
X30909524Y-32602381D02*
X31100001Y-32602381D01*
X31195239Y-32650000D01*
X31290477Y-32745238D01*
X31338096Y-32935714D01*
X31338096Y-33269048D01*
X31290477Y-33459524D01*
X31195239Y-33554762D01*
X31100001Y-33602381D01*
X30909524Y-33602381D01*
X30814286Y-33554762D01*
X30719048Y-33459524D01*
X30671429Y-33269048D01*
X30671429Y-32935714D01*
X30719048Y-32745238D01*
X30814286Y-32650000D01*
X30909524Y-32602381D01*
X32338096Y-33602381D02*
X32004762Y-33126190D01*
X31766667Y-33602381D02*
X31766667Y-32602381D01*
X32147620Y-32602381D01*
X32242858Y-32650000D01*
X32290477Y-32697619D01*
X32338096Y-32792857D01*
X32338096Y-32935714D01*
X32290477Y-33030952D01*
X32242858Y-33078571D01*
X32147620Y-33126190D01*
X31766667Y-33126190D01*
X32766667Y-33078571D02*
X33100001Y-33078571D01*
X33242858Y-33602381D02*
X32766667Y-33602381D01*
X32766667Y-32602381D01*
X33242858Y-32602381D01*
D13*
X21540000Y-24320000D02*
X21080000Y-26170000D01*
X21210000Y-24360000D02*
X21120000Y-24760000D01*
X22224000Y-25419000D02*
X21010000Y-27540000D01*
X21150000Y-27160000D02*
X21510000Y-26040000D01*
X21820000Y-24390000D02*
X21290000Y-26070000D01*
X22030000Y-25490000D02*
X21590000Y-26460000D01*
X21638000Y-25870500D02*
X21254000Y-26931200D01*
X20984000Y-27539200D02*
X21421000Y-26056900D01*
X21160000Y-24480000D02*
X21090000Y-24280000D01*
X21290000Y-24240000D02*
X21246000Y-24584200D01*
X20842000Y-24202400D02*
X22578000Y-24261500D01*
X21421000Y-26056900D02*
X20836000Y-26322600D01*
X20945000Y-26137700D02*
X21638000Y-25870500D01*
X22150000Y-24350000D02*
X21810000Y-25140000D01*
X22320000Y-24300000D02*
X22480000Y-24290000D01*
X22578000Y-24261500D02*
X21468000Y-25602100D01*
X20836000Y-26322600D02*
X21090000Y-24480000D01*
X21468000Y-25602100D02*
X22224000Y-25419000D01*
X21120000Y-24700000D02*
X20960000Y-25830000D01*
X21370000Y-24360000D02*
X22320000Y-24300000D01*
X21170000Y-24320000D02*
X21160000Y-24480000D01*
X21001000Y-24277600D02*
X21254000Y-24408800D01*
X21720000Y-25560000D02*
X21520000Y-25990000D01*
X20920000Y-26220000D02*
X21530000Y-25960000D01*
X21246000Y-24584200D02*
X20945000Y-26137700D01*
X21090000Y-24480000D02*
X20842000Y-24202400D01*
X18450000Y-3150000D02*
X18870000Y-3010000D01*
X15530000Y-3550000D02*
X15630000Y-3580000D01*
X17400000Y-2550000D02*
X17190000Y-2230000D01*
X16140000Y-2170000D02*
X16390000Y-2330000D01*
X17220000Y-2270000D02*
X17300000Y-2670000D01*
X16640000Y-2860000D02*
X16500000Y-2710000D01*
X16690000Y-2920000D02*
X16510000Y-2910000D01*
X17320000Y-2300000D02*
X17140000Y-2150000D01*
X16690000Y-2970000D02*
X16800000Y-2860000D01*
X15350000Y-1300000D02*
X15560000Y-1120000D01*
X15130000Y-1110000D02*
X15320000Y-1210000D01*
X15650000Y-3390000D02*
X15760000Y-3180000D01*
X16110000Y-1640000D02*
X15910000Y-2080000D01*
X16640000Y-2510000D02*
X16450000Y-2340000D01*
X17240000Y-2750000D02*
X16840000Y-2740000D01*
X16380000Y-2410000D02*
X15990000Y-2120000D01*
X16150000Y-2550000D02*
X16440000Y-2610000D01*
X18050000Y-2880000D02*
X18350000Y-3150000D01*
X15600000Y-1290000D02*
X15530000Y-1280000D01*
X16840000Y-2360000D02*
X16190000Y-2300000D01*
X15990000Y-2680000D02*
X16530000Y-2770000D01*
X17140000Y-3460000D02*
X17330000Y-2840000D01*
X16330000Y-3020000D02*
X16580000Y-2920000D01*
X18100000Y-2880000D02*
X18530000Y-2990000D01*
X17810000Y-2310000D02*
X17930000Y-2260000D01*
X15580000Y-3310000D02*
X15300000Y-3370000D01*
X16770000Y-2510000D02*
X16590000Y-2430000D01*
X17070000Y-2860000D02*
X16990000Y-3420000D01*
X17740000Y-2880000D02*
X17650000Y-2650000D01*
X15990000Y-2060000D02*
X16160000Y-2370000D01*
X15510000Y-3430000D02*
X15530000Y-3550000D01*
X16110000Y-2070000D02*
X16270000Y-1700000D01*
X17430000Y-2860000D02*
X17590000Y-2990000D01*
X16920000Y-2320000D02*
X16720000Y-2740000D01*
X18450000Y-3040000D02*
X18090000Y-2880000D01*
X18350000Y-3150000D02*
X18400000Y-3350000D01*
X16620000Y-2580000D02*
X16890000Y-2700000D01*
X16820000Y-2820000D02*
X16740000Y-2830000D01*
X17490000Y-2560000D02*
X17160000Y-2040000D01*
X15920000Y-2060000D02*
X15980000Y-2690000D01*
X15820000Y-1530000D02*
X15350000Y-1300000D01*
X15560000Y-1120000D02*
X15840000Y-1500000D01*
X15630000Y-3580000D02*
X15650000Y-3390000D01*
X15280000Y-3490000D02*
X15510000Y-3430000D01*
X17550000Y-2980000D02*
X17720000Y-2860000D01*
X17780000Y-2410000D02*
X17250000Y-2370000D01*
X15900000Y-3030000D02*
X15580000Y-3310000D01*
X16730000Y-1600000D02*
X16260000Y-1650000D01*
X15300000Y-3370000D02*
X15280000Y-3490000D01*
X15990000Y-2120000D02*
X16260000Y-1660000D01*
X16990000Y-3420000D02*
X17070000Y-2860000D01*
X16160000Y-2090000D02*
X16250000Y-2380000D01*
X15320000Y-1210000D02*
X15530000Y-950000D01*
X16720000Y-3460000D02*
X16950000Y-3470000D01*
X17540000Y-2770000D02*
X17420000Y-2860000D01*
X15460000Y-1090000D02*
X15480000Y-900000D01*
X17380000Y-2910000D02*
X17660000Y-2730000D01*
X16950000Y-3470000D02*
X17150000Y-3420000D01*
X16120000Y-1630000D02*
X16430000Y-1400000D01*
X16260000Y-1660000D02*
X16540000Y-1470000D01*
X16440000Y-2790000D02*
X16290000Y-2930000D01*
X16860000Y-2900000D02*
X16820000Y-3410000D01*
X16830000Y-2770000D02*
X17420000Y-2630000D01*
X16920000Y-2850000D02*
X17210000Y-2870000D01*
X18400000Y-3350000D02*
X18540000Y-3240000D01*
X17280000Y-1770000D02*
X16740000Y-1600000D01*
X16830000Y-1700000D02*
X17070000Y-1830000D01*
X18100000Y-2410000D02*
X17760000Y-2630000D01*
X17960000Y-2190000D02*
X17940000Y-2290000D01*
X17080000Y-1850000D02*
X17230000Y-1650000D01*
X18040000Y-1280000D02*
X18330000Y-950000D01*
X18400000Y-930000D02*
X18720000Y-900000D01*
X18330000Y-950000D02*
X18280000Y-740000D01*
X18400000Y-1060000D02*
X18170000Y-1210000D01*
X18040000Y-1790000D02*
X17650000Y-1380000D01*
X17520000Y-1510000D02*
X16570000Y-1530000D01*
X16950000Y-2000000D02*
X17040000Y-2110000D01*
X17040000Y-2110000D02*
X16900000Y-2290000D01*
X17500000Y-1470000D02*
X17180000Y-1640000D01*
X18100000Y-2380000D02*
X18040000Y-1810000D01*
X18280000Y-740000D02*
X18440000Y-730000D01*
X16490000Y-1520000D02*
X16950000Y-2000000D01*
X17500000Y-2500000D02*
X17900000Y-2140000D01*
X17610000Y-1370000D02*
X16440000Y-1400000D01*
X16740000Y-1600000D02*
X16660000Y-1710000D01*
X16570000Y-1530000D02*
X16660000Y-1660000D01*
X16810000Y-1590000D02*
X17280000Y-1770000D01*
X16540000Y-1470000D02*
X17600000Y-1480000D01*
X18440000Y-730000D02*
X18400000Y-930000D01*
X17120000Y-2070000D02*
X17610000Y-1530000D01*
X18680000Y-1060000D02*
X18400000Y-1060000D01*
X17410000Y-1710000D02*
X17520000Y-1640000D01*
X17980000Y-1900000D02*
X18020000Y-2410000D01*
X17600000Y-1480000D02*
X17980000Y-1900000D01*
X18720000Y-900000D02*
X18680000Y-1060000D01*
X17740000Y-1680000D02*
X17980000Y-2020000D01*
X18870000Y-3010000D02*
X18670000Y-2930000D01*
X18670000Y-2930000D02*
X18450000Y-3040000D01*
X18540000Y-3240000D02*
X18450000Y-3150000D01*
X15020000Y-1210000D02*
X15130000Y-1110000D01*
X15330000Y-1290000D02*
X15020000Y-1210000D01*
X16650000Y-2990000D02*
X16660000Y-3470000D01*
X30890000Y-770000D02*
X30430000Y-2620000D01*
X30560000Y-810000D02*
X30470000Y-1210000D01*
X31574000Y-1869000D02*
X30360000Y-3990000D01*
X30500000Y-3610000D02*
X30860000Y-2490000D01*
X31170000Y-840000D02*
X30640000Y-2520000D01*
X31380000Y-1940000D02*
X30940000Y-2910000D01*
X30988000Y-2320500D02*
X30604000Y-3381200D01*
X30334000Y-3989200D02*
X30771000Y-2506900D01*
X30510000Y-930000D02*
X30440000Y-730000D01*
X30640000Y-690000D02*
X30596000Y-1034200D01*
X30192000Y-652400D02*
X31928000Y-711500D01*
X30771000Y-2506900D02*
X30186000Y-2772600D01*
X30295000Y-2587700D02*
X30988000Y-2320500D01*
X31500000Y-800000D02*
X31160000Y-1590000D01*
X31670000Y-750000D02*
X31830000Y-740000D01*
X31928000Y-711500D02*
X30818000Y-2052100D01*
X30186000Y-2772600D02*
X30440000Y-930000D01*
X30818000Y-2052100D02*
X31574000Y-1869000D01*
X30470000Y-1150000D02*
X30310000Y-2280000D01*
X30720000Y-810000D02*
X31670000Y-750000D01*
X30520000Y-770000D02*
X30510000Y-930000D01*
X30351000Y-727600D02*
X30604000Y-858800D01*
X31070000Y-2010000D02*
X30870000Y-2440000D01*
X30270000Y-2670000D02*
X30880000Y-2410000D01*
X30596000Y-1034200D02*
X30295000Y-2587700D01*
X30440000Y-930000D02*
X30192000Y-652400D01*
D14*
X36350000Y-18950000D02*
X36350000Y-11850000D01*
X33950000Y-18950000D02*
X36350000Y-18950000D01*
X33950000Y-11850000D02*
X33950000Y-18950000D01*
X36350000Y-11850000D02*
X33950000Y-11850000D01*
X36400000Y-27300000D02*
X36400000Y-20200000D01*
X34000000Y-27300000D02*
X36400000Y-27300000D01*
X34000000Y-20200000D02*
X34000000Y-27300000D01*
X36400000Y-20200000D02*
X34000000Y-20200000D01*
D15*
X14550000Y-18200000D02*
X20650000Y-18200000D01*
X14550000Y-19300000D02*
X14550000Y-18200000D01*
X20650000Y-23600000D02*
X15650000Y-23600000D01*
D13*
X33534524Y-17332143D02*
X32684524Y-17332143D01*
X33534524Y-16846429D01*
X32684524Y-16846429D01*
X33089286Y-16441667D02*
X33089286Y-16158334D01*
X33534524Y-16036905D02*
X33534524Y-16441667D01*
X32684524Y-16441667D01*
X32684524Y-16036905D01*
X32765476Y-15713095D02*
X32725000Y-15672619D01*
X32684524Y-15591667D01*
X32684524Y-15389286D01*
X32725000Y-15308333D01*
X32765476Y-15267857D01*
X32846429Y-15227381D01*
X32927381Y-15227381D01*
X33048810Y-15267857D01*
X33534524Y-15753571D01*
X33534524Y-15227381D01*
X33584524Y-25682143D02*
X32734524Y-25682143D01*
X33584524Y-25196429D01*
X32734524Y-25196429D01*
X33139286Y-24791667D02*
X33139286Y-24508334D01*
X33584524Y-24386905D02*
X33584524Y-24791667D01*
X32734524Y-24791667D01*
X32734524Y-24386905D01*
X33584524Y-23577381D02*
X33584524Y-24063095D01*
X33584524Y-23820238D02*
X32734524Y-23820238D01*
X32855952Y-23901190D01*
X32936905Y-23982143D01*
X32977381Y-24063095D01*
D14*
X17411905Y-17852381D02*
X17411905Y-16852381D01*
X17650000Y-16852381D01*
X17792858Y-16900000D01*
X17888096Y-16995238D01*
X17935715Y-17090476D01*
X17983334Y-17280952D01*
X17983334Y-17423810D01*
X17935715Y-17614286D01*
X17888096Y-17709524D01*
X17792858Y-17804762D01*
X17650000Y-17852381D01*
X17411905Y-17852381D01*
X18935715Y-17852381D02*
X18364286Y-17852381D01*
X18650000Y-17852381D02*
X18650000Y-16852381D01*
X18554762Y-16995238D01*
X18459524Y-17090476D01*
X18364286Y-17138095D01*
X21538095Y-27652381D02*
X21538095Y-28461905D01*
X21585714Y-28557143D01*
X21633333Y-28604762D01*
X21728571Y-28652381D01*
X21919048Y-28652381D01*
X22014286Y-28604762D01*
X22061905Y-28557143D01*
X22109524Y-28461905D01*
X22109524Y-27652381D01*
X22538095Y-27747619D02*
X22585714Y-27700000D01*
X22680952Y-27652381D01*
X22919048Y-27652381D01*
X23014286Y-27700000D01*
X23061905Y-27747619D01*
X23109524Y-27842857D01*
X23109524Y-27938095D01*
X23061905Y-28080952D01*
X22490476Y-28652381D01*
X23109524Y-28652381D01*
M02*
