%TF.GenerationSoftware,KiCad,Pcbnew,4.0.7*%
%TF.CreationDate,2017-11-22T17:52:21+08:00*%
%TF.ProjectId,NixieTube_QS30,4E69786965547562655F515333302E6B,rev?*%
%TF.FileFunction,Soldermask,Top*%
%FSLAX46Y46*%
G04 Gerber Fmt 4.6, Leading zero omitted, Abs format (unit mm)*
G04 Created by KiCad (PCBNEW 4.0.7) date 11/22/17 17:52:21*
%MOMM*%
%LPD*%
G01*
G04 APERTURE LIST*
%ADD10C,0.100000*%
%ADD11C,3.900000*%
%ADD12R,2.100000X2.100000*%
%ADD13O,2.100000X2.100000*%
%ADD14R,1.924000X1.924000*%
%ADD15C,1.924000*%
%ADD16R,1.700000X1.600000*%
%ADD17R,1.700000X1.800000*%
%ADD18C,2.200000*%
G04 APERTURE END LIST*
D10*
D11*
X33300000Y-7700000D03*
X3500000Y-7700000D03*
X4700000Y-51900000D03*
X33030000Y-51900000D03*
D12*
X11100000Y-2000000D03*
X11100000Y-33000000D03*
D13*
X11100000Y-35540000D03*
X11100000Y-38080000D03*
X11100000Y-40620000D03*
X11100000Y-43160000D03*
X11100000Y-45700000D03*
D12*
X35550000Y-2000000D03*
X35500000Y-33000000D03*
D13*
X35500000Y-35540000D03*
X35500000Y-38080000D03*
X35500000Y-40620000D03*
X35500000Y-43160000D03*
X35500000Y-45700000D03*
D14*
X35150000Y-12950000D03*
D15*
X35150000Y-17950000D03*
D14*
X35200000Y-21300000D03*
D15*
X35200000Y-26300000D03*
D16*
X15950000Y-20900000D03*
X20350000Y-20900000D03*
D17*
X15950000Y-19300000D03*
X20350000Y-19300000D03*
X15950000Y-22500000D03*
X20350000Y-22500000D03*
D18*
X18143155Y-11785798D03*
X14563614Y-12602805D03*
X11693045Y-14892007D03*
X10100000Y-18200000D03*
X10100000Y-21871596D03*
X11693045Y-25179589D03*
X14563614Y-27468791D03*
X18143155Y-28285798D03*
X24593265Y-25179589D03*
X26186310Y-21871596D03*
X26186310Y-18200000D03*
X24593265Y-14892007D03*
X21722696Y-12602805D03*
M02*
