%TF.GenerationSoftware,KiCad,Pcbnew,4.0.7*%
%TF.CreationDate,2017-11-22T17:52:21+08:00*%
%TF.ProjectId,NixieTube_QS30,4E69786965547562655F515333302E6B,rev?*%
%TF.FileFunction,Copper,L2,Bot,Signal*%
%FSLAX46Y46*%
G04 Gerber Fmt 4.6, Leading zero omitted, Abs format (unit mm)*
G04 Created by KiCad (PCBNEW 4.0.7) date 11/22/17 17:52:21*
%MOMM*%
%LPD*%
G01*
G04 APERTURE LIST*
%ADD10C,0.100000*%
%ADD11C,0.300000*%
%ADD12R,0.600000X2.000000*%
%ADD13O,0.600000X2.000000*%
%ADD14R,2.000000X3.800000*%
%ADD15R,2.000000X1.500000*%
%ADD16R,0.800000X0.750000*%
%ADD17C,3.500000*%
%ADD18R,0.900000X0.800000*%
%ADD19R,1.700000X1.700000*%
%ADD20R,0.500000X0.900000*%
%ADD21R,0.900000X0.500000*%
%ADD22R,2.000000X0.600000*%
%ADD23O,2.000000X0.600000*%
%ADD24O,1.700000X1.700000*%
%ADD25R,1.524000X1.524000*%
%ADD26C,1.524000*%
%ADD27C,1.800000*%
%ADD28C,0.453000*%
%ADD29C,1.000000*%
%ADD30C,0.400000*%
%ADD31C,1.000000*%
%ADD32C,0.250000*%
%ADD33C,0.500000*%
%ADD34C,0.400000*%
%ADD35C,0.254000*%
G04 APERTURE END LIST*
D10*
D11*
X25740952Y-7248095D02*
X25307619Y-8548095D01*
X24874286Y-7248095D01*
X24440952Y-8424286D02*
X24379047Y-8486190D01*
X24440952Y-8548095D01*
X24502857Y-8486190D01*
X24440952Y-8424286D01*
X24440952Y-8548095D01*
X23574285Y-7248095D02*
X23450476Y-7248095D01*
X23326666Y-7310000D01*
X23264761Y-7371905D01*
X23202857Y-7495714D01*
X23140952Y-7743333D01*
X23140952Y-8052857D01*
X23202857Y-8300476D01*
X23264761Y-8424286D01*
X23326666Y-8486190D01*
X23450476Y-8548095D01*
X23574285Y-8548095D01*
X23698095Y-8486190D01*
X23759999Y-8424286D01*
X23821904Y-8300476D01*
X23883809Y-8052857D01*
X23883809Y-7743333D01*
X23821904Y-7495714D01*
X23759999Y-7371905D01*
X23698095Y-7310000D01*
X23574285Y-7248095D01*
X21902857Y-8548095D02*
X22645714Y-8548095D01*
X22274285Y-8548095D02*
X22274285Y-7248095D01*
X22398095Y-7433810D01*
X22521904Y-7557619D01*
X22645714Y-7619524D01*
D12*
X19490000Y-48570000D03*
D13*
X20760000Y-48570000D03*
X22030000Y-48570000D03*
X23300000Y-48570000D03*
X24570000Y-48570000D03*
X25840000Y-48570000D03*
X27110000Y-48570000D03*
X27110000Y-54420000D03*
X25840000Y-54420000D03*
X24570000Y-54420000D03*
X23300000Y-54420000D03*
X22030000Y-54420000D03*
X20760000Y-54420000D03*
X19490000Y-54420000D03*
X28380000Y-48570000D03*
X28380000Y-54420000D03*
D14*
X16600000Y-51700000D03*
D15*
X10300000Y-51700000D03*
X10300000Y-49400000D03*
X10300000Y-54000000D03*
D16*
X31750000Y-30500000D03*
X30250000Y-30500000D03*
D17*
X33300000Y-7700000D03*
X3500000Y-7700000D03*
X4700000Y-51900000D03*
X33030000Y-51900000D03*
D18*
X3600000Y-14700000D03*
X3600000Y-16600000D03*
X1600000Y-15650000D03*
D16*
X30240000Y-34730000D03*
X31740000Y-34730000D03*
D19*
X11100000Y-2000000D03*
D18*
X7875000Y-14725000D03*
X7875000Y-16625000D03*
X5875000Y-15675000D03*
X25750000Y-33050000D03*
X25750000Y-34950000D03*
X23750000Y-34000000D03*
X18750000Y-44000000D03*
X18750000Y-45900000D03*
X16750000Y-44950000D03*
X18750000Y-38425000D03*
X18750000Y-40325000D03*
X16750000Y-39375000D03*
X32800000Y-43925000D03*
X32800000Y-45825000D03*
X30800000Y-44875000D03*
X18750000Y-33050000D03*
X18750000Y-34950000D03*
X16750000Y-34000000D03*
X25750000Y-44000000D03*
X25750000Y-45900000D03*
X23750000Y-44950000D03*
X32800000Y-38425000D03*
X32800000Y-40325000D03*
X30800000Y-39375000D03*
X25750000Y-38425000D03*
X25750000Y-40325000D03*
X23750000Y-39375000D03*
X17750000Y-23050000D03*
X17750000Y-24950000D03*
X15750000Y-24000000D03*
X17650000Y-19050000D03*
X17650000Y-20950000D03*
X15650000Y-20000000D03*
X17650000Y-15250000D03*
X17650000Y-17150000D03*
X15650000Y-16200000D03*
X33150000Y-24200000D03*
X33150000Y-26100000D03*
X31150000Y-25150000D03*
D20*
X7725000Y-18075000D03*
X6225000Y-18075000D03*
X3350000Y-18150000D03*
X1850000Y-18150000D03*
D21*
X29000000Y-44350000D03*
X29000000Y-45850000D03*
X21950000Y-33400000D03*
X21950000Y-34900000D03*
X14950000Y-44425000D03*
X14950000Y-45925000D03*
X14950000Y-38625000D03*
X14950000Y-40125000D03*
X15050000Y-33400000D03*
X15050000Y-34900000D03*
X29000000Y-38625000D03*
X29000000Y-40125000D03*
D20*
X21100000Y-23000000D03*
X19600000Y-23000000D03*
X21100000Y-18950000D03*
X19600000Y-18950000D03*
X21100000Y-15500000D03*
X19600000Y-15500000D03*
X7675000Y-13175000D03*
X6175000Y-13175000D03*
X24100000Y-31000000D03*
X25600000Y-31000000D03*
X1800000Y-13150000D03*
X3300000Y-13150000D03*
X16950000Y-42250000D03*
X18450000Y-42250000D03*
X16800000Y-36800000D03*
X18300000Y-36800000D03*
X31000000Y-42125000D03*
X32500000Y-42125000D03*
X16950000Y-31000000D03*
X18450000Y-31000000D03*
X23950000Y-42275000D03*
X25450000Y-42275000D03*
X30800000Y-36625000D03*
X32300000Y-36625000D03*
X23890000Y-36790000D03*
X25390000Y-36790000D03*
D21*
X31050000Y-22600000D03*
X31050000Y-21100000D03*
X32950000Y-21050000D03*
X32950000Y-22550000D03*
D22*
X7500000Y-20580000D03*
D23*
X7500000Y-21850000D03*
X7500000Y-23120000D03*
X7500000Y-24390000D03*
X7500000Y-25660000D03*
X7500000Y-26930000D03*
X7500000Y-28200000D03*
X1650000Y-28200000D03*
X1650000Y-26930000D03*
X1650000Y-25660000D03*
X1650000Y-24390000D03*
X1650000Y-23120000D03*
X1650000Y-21850000D03*
X1650000Y-20580000D03*
X7500000Y-29470000D03*
X1650000Y-29470000D03*
D18*
X33050000Y-15950000D03*
X33050000Y-17850000D03*
X31050000Y-16900000D03*
D21*
X31000000Y-14200000D03*
X31000000Y-12700000D03*
X33000000Y-12700000D03*
X33000000Y-14200000D03*
D19*
X11100000Y-33000000D03*
D24*
X11100000Y-35540000D03*
X11100000Y-38080000D03*
X11100000Y-40620000D03*
X11100000Y-43160000D03*
X11100000Y-45700000D03*
D16*
X31750000Y-32200000D03*
X30250000Y-32200000D03*
D21*
X21950000Y-44000000D03*
X21950000Y-45500000D03*
X22100000Y-38625000D03*
X22100000Y-40125000D03*
D19*
X35550000Y-2000000D03*
X35500000Y-33000000D03*
D24*
X35500000Y-35540000D03*
X35500000Y-38080000D03*
X35500000Y-40620000D03*
X35500000Y-43160000D03*
X35500000Y-45700000D03*
D25*
X35150000Y-12950000D03*
D26*
X35150000Y-17950000D03*
D25*
X35200000Y-21300000D03*
D26*
X35200000Y-26300000D03*
D27*
X18143155Y-11785798D03*
X14563614Y-12602805D03*
X11693045Y-14892007D03*
X10100000Y-18200000D03*
X10100000Y-21871596D03*
X11693045Y-25179589D03*
X14563614Y-27468791D03*
X18143155Y-28285798D03*
X24593265Y-25179589D03*
X26186310Y-21871596D03*
X26186310Y-18200000D03*
X24593265Y-14892007D03*
X21722696Y-12602805D03*
D28*
X14055611Y-19370199D03*
X14075000Y-22050000D03*
X4199998Y-15575000D03*
X14672662Y-24116713D03*
X17350000Y-54900000D03*
X22800000Y-54850000D03*
X14275000Y-52626510D03*
X16525000Y-46975000D03*
X10400000Y-16700000D03*
X6149996Y-32650000D03*
D29*
X20400000Y-35500000D03*
X20400000Y-41150000D03*
D28*
X6160000Y-29300000D03*
X3090000Y-24380000D03*
D30*
X6925000Y-16700000D03*
X22350000Y-14200000D03*
D28*
X18800000Y-54324989D03*
D29*
X27850000Y-19450000D03*
X7050000Y-19350000D03*
X1625000Y-30875000D03*
D28*
X26566500Y-54500000D03*
D29*
X1650000Y-19500000D03*
D30*
X1650000Y-28719990D03*
X21405137Y-20955096D03*
X19150010Y-16450000D03*
X16575000Y-16200000D03*
X18749656Y-20800498D03*
X14601541Y-20650000D03*
X24100000Y-52050000D03*
X25916120Y-52977817D03*
X34240000Y-47050000D03*
X12124990Y-37705129D03*
X24850000Y-38450000D03*
X29000000Y-39350000D03*
D28*
X29400000Y-1600000D03*
X32150000Y-1400000D03*
X14250000Y-1250000D03*
X28840000Y-1975000D03*
X32650000Y-1975000D03*
X18680000Y-1975000D03*
X13600000Y-2000000D03*
X14870000Y-2000000D03*
D30*
X18625000Y-18575000D03*
X8800000Y-21300000D03*
X13525021Y-21250000D03*
X9000000Y-23100000D03*
X14131615Y-23800823D03*
X8950000Y-24450000D03*
D28*
X12185701Y-18428676D03*
D30*
X8450000Y-19350000D03*
D28*
X12250000Y-17100000D03*
D30*
X12584000Y-13294000D03*
X4050000Y-17850000D03*
X9550000Y-13200000D03*
X22750011Y-27028732D03*
X29050000Y-43500000D03*
X28100000Y-33750000D03*
X25850000Y-27150000D03*
X22624990Y-17350000D03*
X20400000Y-17300000D03*
X21900000Y-43200000D03*
X22225001Y-32275001D03*
X20222661Y-30625021D03*
X12650000Y-30500000D03*
X12940778Y-36730779D03*
X13900000Y-44300000D03*
X13610000Y-36660000D03*
X13850000Y-38650000D03*
X23900000Y-28550000D03*
X27150000Y-32300000D03*
X28500000Y-37600000D03*
X21911239Y-52258761D03*
X30910000Y-37590000D03*
X23700000Y-37920000D03*
X24000000Y-47600000D03*
X16996619Y-32425033D03*
X18140000Y-47230000D03*
X25300000Y-47600000D03*
X24225010Y-43270000D03*
X27180000Y-47280000D03*
X29920000Y-44050000D03*
D28*
X17550000Y-36950000D03*
D30*
X19140000Y-47120000D03*
D28*
X2526528Y-18177216D03*
X2622954Y-21253286D03*
D30*
X21481076Y-47720010D03*
X16990000Y-43230000D03*
X4899996Y-18500000D03*
X4850000Y-20650000D03*
X23404832Y-32250012D03*
X22998109Y-47720010D03*
X9100000Y-25700000D03*
D28*
X30376510Y-23495634D03*
X22776511Y-30201510D03*
D30*
X9050000Y-26950000D03*
D29*
X12334968Y-34520000D03*
X10375000Y-47750000D03*
D30*
X32350000Y-33400000D03*
X33714990Y-46430464D03*
X25450000Y-52474990D03*
X2550010Y-26152560D03*
X4286512Y-26360000D03*
D28*
X24026500Y-55245010D03*
D30*
X33914488Y-36231958D03*
X34040000Y-41860000D03*
X22150000Y-19050000D03*
X19299988Y-19843485D03*
X17000136Y-19898000D03*
D31*
X30240000Y-34166482D02*
X30240000Y-34730000D01*
X31750000Y-32200000D02*
X31750000Y-32656482D01*
X31750000Y-32656482D02*
X30240000Y-34166482D01*
X25750000Y-34950000D02*
X30020000Y-34950000D01*
X30020000Y-34950000D02*
X30240000Y-34730000D01*
D32*
X14055611Y-19049880D02*
X14055611Y-19370199D01*
X15955491Y-17150000D02*
X14055611Y-19049880D01*
X17650000Y-17150000D02*
X15955491Y-17150000D01*
X14076531Y-21271959D02*
X14055611Y-21251039D01*
X14055611Y-19690518D02*
X14055611Y-19370199D01*
X14055611Y-21251039D02*
X14055611Y-19690518D01*
X31750000Y-30500000D02*
X31750000Y-27450000D01*
X31750000Y-27450000D02*
X33100000Y-26100000D01*
X33100000Y-26100000D02*
X33150000Y-26100000D01*
X14075000Y-22054677D02*
X14075000Y-21273490D01*
X14148490Y-21200000D02*
X16700000Y-21200000D01*
X14075000Y-21273490D02*
X14148490Y-21200000D01*
X16700000Y-21200000D02*
X16950000Y-20950000D01*
X16950000Y-20950000D02*
X17650000Y-20950000D01*
X3975000Y-15575000D02*
X4199998Y-15575000D01*
X3600000Y-15950000D02*
X3975000Y-15575000D01*
X3600000Y-16600000D02*
X3600000Y-15950000D01*
X15185630Y-24950000D02*
X14672662Y-24437032D01*
X14672662Y-24437032D02*
X14672662Y-24116713D01*
X17750000Y-24950000D02*
X15185630Y-24950000D01*
X17123501Y-54673501D02*
X17350000Y-54900000D01*
X17000000Y-54550000D02*
X17123501Y-54673501D01*
X14250000Y-54550000D02*
X17000000Y-54550000D01*
X22800000Y-54850000D02*
X22870000Y-54850000D01*
X22870000Y-54850000D02*
X23300000Y-54420000D01*
X14275000Y-54525000D02*
X14275000Y-52626510D01*
X14250000Y-54550000D02*
X14275000Y-54525000D01*
X16525000Y-46975000D02*
X17600000Y-45900000D01*
X17600000Y-45900000D02*
X18750000Y-45900000D01*
D33*
X12350000Y-54550000D02*
X14250000Y-54550000D01*
X23300000Y-54420000D02*
X23300000Y-54368500D01*
X10300000Y-54000000D02*
X11800000Y-54000000D01*
X11800000Y-54000000D02*
X12350000Y-54550000D01*
D32*
X30664998Y-26100000D02*
X33150000Y-26100000D01*
X29825000Y-20375000D02*
X29825000Y-25260002D01*
X29825000Y-25260002D02*
X30664998Y-26100000D01*
X33050000Y-17850000D02*
X32350000Y-17850000D01*
X32350000Y-17850000D02*
X29825000Y-20375000D01*
D31*
X23870001Y-46699999D02*
X20999999Y-46699999D01*
X25750000Y-45900000D02*
X24670000Y-45900000D01*
X24670000Y-45900000D02*
X23870001Y-46699999D01*
X20999999Y-46699999D02*
X20200000Y-45900000D01*
D32*
X10325000Y-16625000D02*
X10400000Y-16700000D01*
X7875000Y-16625000D02*
X10325000Y-16625000D01*
D33*
X6160000Y-29300000D02*
X7330000Y-29300000D01*
X7330000Y-29300000D02*
X7500000Y-29470000D01*
X6149996Y-35669996D02*
X6149996Y-32650000D01*
X11100000Y-40620000D02*
X6149996Y-35669996D01*
D31*
X18750000Y-40325000D02*
X19575000Y-40325000D01*
X19575000Y-40325000D02*
X20400000Y-41150000D01*
X23309987Y-40955011D02*
X23114998Y-41150000D01*
X23114998Y-41150000D02*
X20400000Y-41150000D01*
X18750000Y-34950000D02*
X19850000Y-34950000D01*
X19850000Y-34950000D02*
X20400000Y-35500000D01*
X22810003Y-35999999D02*
X20899999Y-35999999D01*
X23710001Y-35100001D02*
X22810003Y-35999999D01*
X25599999Y-35100001D02*
X23710001Y-35100001D01*
X20899999Y-35999999D02*
X20400000Y-35500000D01*
X25750000Y-34950000D02*
X25599999Y-35100001D01*
X20400000Y-45700000D02*
X20400000Y-41150000D01*
X20200000Y-45900000D02*
X20400000Y-45700000D01*
D33*
X3090000Y-24380000D02*
X1660000Y-24380000D01*
X1660000Y-24380000D02*
X1650000Y-24390000D01*
D31*
X25119989Y-40955011D02*
X23309987Y-40955011D01*
X25750000Y-40325000D02*
X25119989Y-40955011D01*
X25750000Y-40325000D02*
X27200000Y-40325000D01*
X27200000Y-40325000D02*
X28505002Y-41630002D01*
X28505002Y-41630002D02*
X29534996Y-41630002D01*
X29534996Y-41630002D02*
X30464998Y-40700000D01*
X30464998Y-40700000D02*
X32425000Y-40700000D01*
X32425000Y-40700000D02*
X32800000Y-40325000D01*
X18750000Y-45900000D02*
X20200000Y-45900000D01*
X11100000Y-40630000D02*
X12730000Y-40630000D01*
X13800000Y-41700000D02*
X15600000Y-41700000D01*
X12730000Y-40630000D02*
X13800000Y-41700000D01*
X18425000Y-40650000D02*
X18750000Y-40325000D01*
X15600000Y-41700000D02*
X16650000Y-40650000D01*
X16650000Y-40650000D02*
X18425000Y-40650000D01*
D32*
X28380000Y-48890060D02*
X28380000Y-48570000D01*
X23300000Y-54420000D02*
X23300000Y-53720000D01*
X7875000Y-16625000D02*
X7000000Y-16625000D01*
X7000000Y-16625000D02*
X6925000Y-16700000D01*
D31*
X31350000Y-47225000D02*
X32750000Y-45825000D01*
X28525000Y-47225000D02*
X31350000Y-47225000D01*
D32*
X23300000Y-54420000D02*
X23423500Y-54420000D01*
D33*
X23300000Y-54420000D02*
X23378009Y-54341991D01*
X23300000Y-54420000D02*
X23300000Y-54388480D01*
D32*
X1650000Y-24390000D02*
X2540000Y-24390000D01*
D31*
X28380000Y-48570000D02*
X28380000Y-47370000D01*
X28380000Y-47370000D02*
X28525000Y-47225000D01*
X27200000Y-45900000D02*
X28525000Y-47225000D01*
X32750000Y-45825000D02*
X32800000Y-45825000D01*
X25750000Y-45900000D02*
X27200000Y-45900000D01*
X18700000Y-40325000D02*
X18750000Y-40325000D01*
X32800000Y-40325000D02*
X35105000Y-40325000D01*
X35105000Y-40325000D02*
X35550000Y-40770000D01*
D32*
X17750000Y-24950000D02*
X17700000Y-24950000D01*
X17525000Y-17275000D02*
X17650000Y-17150000D01*
X33175000Y-26100000D02*
X33150000Y-26100000D01*
X33100000Y-17850000D02*
X33050000Y-17850000D01*
D33*
X10300000Y-54000000D02*
X10560002Y-54000000D01*
X10560002Y-54000000D02*
X10570002Y-53990000D01*
D31*
X27850000Y-26725000D02*
X27850000Y-19450000D01*
X30250000Y-29125000D02*
X27850000Y-26725000D01*
X30250000Y-30500000D02*
X30250000Y-29125000D01*
D33*
X21100000Y-22588004D02*
X22124978Y-21563026D01*
X22124978Y-21563026D02*
X22124978Y-20174978D01*
X22124978Y-20174978D02*
X21100000Y-19150000D01*
X21100000Y-19150000D02*
X21100000Y-18950000D01*
X22350000Y-15000000D02*
X22350000Y-14200000D01*
X21850000Y-15500000D02*
X22350000Y-15000000D01*
X21100000Y-18950000D02*
X21100000Y-15700000D01*
X21100000Y-15700000D02*
X21100000Y-15500000D01*
X21100000Y-15500000D02*
X21850000Y-15500000D01*
X21100000Y-15500000D02*
X21100000Y-15300000D01*
X16600000Y-52600000D02*
X18324989Y-54324989D01*
X18479681Y-54324989D02*
X18800000Y-54324989D01*
X16600000Y-51700000D02*
X16600000Y-52600000D01*
X18324989Y-54324989D02*
X18479681Y-54324989D01*
D32*
X18895011Y-54420000D02*
X18800000Y-54324989D01*
X19490000Y-54420000D02*
X18895011Y-54420000D01*
D31*
X3200000Y-19500000D02*
X6900000Y-19500000D01*
X6900000Y-19500000D02*
X7050000Y-19350000D01*
X10300000Y-51700000D02*
X16600000Y-51700000D01*
X1650000Y-19500000D02*
X3200000Y-19500000D01*
D33*
X2350000Y-20580000D02*
X3200000Y-19730000D01*
X1650000Y-20580000D02*
X2350000Y-20580000D01*
X3200000Y-19730000D02*
X3200000Y-19500000D01*
D31*
X1625000Y-45025000D02*
X1625000Y-30875000D01*
X8300000Y-51700000D02*
X1625000Y-45025000D01*
X10300000Y-51700000D02*
X8300000Y-51700000D01*
X10300000Y-51700000D02*
X9300000Y-51700000D01*
D33*
X16600000Y-51700000D02*
X16600000Y-51900000D01*
D34*
X21100000Y-23000000D02*
X21100000Y-22588004D01*
D32*
X26566500Y-54500000D02*
X27030000Y-54500000D01*
X27030000Y-54500000D02*
X27110000Y-54420000D01*
D33*
X1650000Y-28200000D02*
X1650000Y-28719990D01*
D34*
X30250000Y-30500000D02*
X30250000Y-32200000D01*
X21100000Y-18950000D02*
X21100000Y-18663616D01*
D32*
X20400000Y-18250000D02*
X20400000Y-19949959D01*
X21205138Y-20755097D02*
X21405137Y-20955096D01*
X19150010Y-17000010D02*
X20400000Y-18250000D01*
X19150010Y-16450000D02*
X19150010Y-17000010D01*
X20400000Y-19949959D02*
X21205138Y-20755097D01*
X15650000Y-16200000D02*
X16575000Y-16200000D01*
X15850000Y-16400000D02*
X15650000Y-16200000D01*
X18749656Y-19300344D02*
X18749656Y-20517656D01*
X19100000Y-18950000D02*
X18749656Y-19300344D01*
X18749656Y-20517656D02*
X18749656Y-20800498D01*
X19600000Y-18950000D02*
X19100000Y-18950000D01*
X19600000Y-18950000D02*
X19600000Y-18750000D01*
X16000000Y-18050000D02*
X14601541Y-19448459D01*
X19600000Y-15500000D02*
X19100000Y-15500000D01*
X19100000Y-15500000D02*
X18625000Y-15975000D01*
X18625000Y-15975000D02*
X18625000Y-17700000D01*
X18625000Y-17700000D02*
X18275000Y-18050000D01*
X18275000Y-18050000D02*
X16000000Y-18050000D01*
X14601541Y-19448459D02*
X14601541Y-20367158D01*
X14601541Y-20367158D02*
X14601541Y-20650000D01*
X19600000Y-15500000D02*
X19600000Y-15300000D01*
X19575000Y-15525000D02*
X19600000Y-15500000D01*
X23700000Y-52050000D02*
X24100000Y-52050000D01*
X22030000Y-53720000D02*
X23700000Y-52050000D01*
X22030000Y-54420000D02*
X22030000Y-53720000D01*
X34240000Y-47050000D02*
X34240000Y-44420000D01*
X34240000Y-44420000D02*
X35500000Y-43160000D01*
X25840000Y-53053937D02*
X25916120Y-52977817D01*
X25840000Y-54420000D02*
X25840000Y-53053937D01*
X3120000Y-35180000D02*
X11100000Y-43160000D01*
X3120000Y-27700000D02*
X3120000Y-35180000D01*
X1650000Y-26930000D02*
X2350000Y-26930000D01*
X2350000Y-26930000D02*
X3120000Y-27700000D01*
X24850000Y-38450000D02*
X24820000Y-38480000D01*
X22950000Y-39060002D02*
X22584989Y-39425013D01*
X24820000Y-38480000D02*
X23209998Y-38480000D01*
X23209998Y-38480000D02*
X22950000Y-38739998D01*
X22950000Y-38739998D02*
X22950000Y-39060002D01*
X22584989Y-39425013D02*
X18235015Y-39425013D01*
X18235015Y-39425013D02*
X16515131Y-37705129D01*
X16515131Y-37705129D02*
X12407832Y-37705129D01*
X12407832Y-37705129D02*
X12124990Y-37705129D01*
X29000000Y-39350000D02*
X29700000Y-39350000D01*
X30200000Y-38400000D02*
X31327854Y-38400000D01*
X29700000Y-39350000D02*
X29950000Y-39100000D01*
X31327854Y-38400000D02*
X32327854Y-39400000D01*
X29950000Y-39100000D02*
X29950000Y-38650000D01*
X34380000Y-39400000D02*
X35550000Y-38230000D01*
X29950000Y-38650000D02*
X30200000Y-38400000D01*
X32327854Y-39400000D02*
X34380000Y-39400000D01*
D33*
X32150000Y-1400000D02*
X29600000Y-1400000D01*
X29215000Y-1600000D02*
X29400000Y-1600000D01*
X29600000Y-1400000D02*
X29400000Y-1600000D01*
X28840000Y-1975000D02*
X29215000Y-1600000D01*
X31875000Y-1675000D02*
X32150000Y-1400000D01*
X31875000Y-1975000D02*
X31875000Y-1675000D01*
X32650000Y-1975000D02*
X31875000Y-1975000D01*
X33920000Y-1975000D02*
X31875000Y-1975000D01*
X18680000Y-1975000D02*
X28840000Y-1975000D01*
X33920000Y-1975000D02*
X34850000Y-1975000D01*
X33920000Y-1975000D02*
X32650000Y-1975000D01*
X11350000Y-1975000D02*
X18680000Y-1975000D01*
D31*
X34850000Y-1975000D02*
X34900000Y-1925000D01*
X35150000Y-2175000D02*
X34900000Y-1925000D01*
D32*
X2450011Y-30270011D02*
X1650000Y-29470000D01*
X2450011Y-37050011D02*
X2450011Y-30270011D01*
X11100000Y-45700000D02*
X2450011Y-37050011D01*
X7875000Y-14725000D02*
X7875000Y-13375000D01*
X7875000Y-13375000D02*
X7675000Y-13175000D01*
X5875000Y-15675000D02*
X5875000Y-17725000D01*
X5875000Y-17725000D02*
X6225000Y-18075000D01*
D33*
X25750000Y-33050000D02*
X25750000Y-31150000D01*
X25750000Y-31150000D02*
X25600000Y-31000000D01*
D32*
X25600000Y-32900000D02*
X25750000Y-33050000D01*
X23750000Y-34000000D02*
X22950000Y-34000000D01*
X22950000Y-34000000D02*
X22250000Y-34700000D01*
X3600000Y-14700000D02*
X3600000Y-13450000D01*
X3600000Y-13450000D02*
X3300000Y-13150000D01*
X1600000Y-15650000D02*
X1600000Y-17900000D01*
X1600000Y-17900000D02*
X1850000Y-18150000D01*
X18750000Y-44000000D02*
X18750000Y-42750000D01*
X18750000Y-42750000D02*
X18450000Y-42450000D01*
X16750000Y-44950000D02*
X16025000Y-44950000D01*
X16025000Y-44950000D02*
X15250000Y-45725000D01*
X18300000Y-36800000D02*
X18300000Y-37975000D01*
X18300000Y-37975000D02*
X18750000Y-38425000D01*
X16750000Y-39375000D02*
X15800000Y-39375000D01*
X15800000Y-39375000D02*
X15250000Y-39925000D01*
X32800000Y-43925000D02*
X32800000Y-42625000D01*
X32800000Y-42625000D02*
X32500000Y-42325000D01*
X30800000Y-44875000D02*
X30075000Y-44875000D01*
X30075000Y-44875000D02*
X29300000Y-45650000D01*
D33*
X18450000Y-31000000D02*
X18450000Y-32750000D01*
X18450000Y-32750000D02*
X18750000Y-33050000D01*
D32*
X15950000Y-34000000D02*
X15050000Y-34900000D01*
X16750000Y-34000000D02*
X15950000Y-34000000D01*
X25750000Y-44000000D02*
X25750000Y-42775000D01*
X25750000Y-42775000D02*
X25450000Y-42475000D01*
X23750000Y-44950000D02*
X22700000Y-44950000D01*
X22700000Y-44950000D02*
X22150000Y-45500000D01*
X22150000Y-45500000D02*
X21950000Y-45500000D01*
X32800000Y-37125000D02*
X32300000Y-36625000D01*
X32800000Y-38425000D02*
X32800000Y-37125000D01*
X29700000Y-40125000D02*
X29000000Y-40125000D01*
X30450000Y-39375000D02*
X29700000Y-40125000D01*
X30800000Y-39375000D02*
X30450000Y-39375000D01*
X30800000Y-39375000D02*
X30522002Y-39375000D01*
X25750000Y-38425000D02*
X25750000Y-37150000D01*
X25750000Y-37150000D02*
X25390000Y-36790000D01*
X23645000Y-40130000D02*
X23640000Y-40125000D01*
X23640000Y-40125000D02*
X22100000Y-40125000D01*
X23750000Y-39375000D02*
X23750000Y-40025000D01*
X23750000Y-40025000D02*
X23645000Y-40130000D01*
X18350000Y-19050000D02*
X18625000Y-18775000D01*
X18625000Y-18775000D02*
X18625000Y-18575000D01*
X17650000Y-19050000D02*
X18350000Y-19050000D01*
X7500000Y-21850000D02*
X8200000Y-21850000D01*
X8750000Y-21300000D02*
X8800000Y-21300000D01*
X8200000Y-21850000D02*
X8750000Y-21300000D01*
X17650000Y-19050000D02*
X17700000Y-19050000D01*
X13504109Y-20946246D02*
X13525021Y-20967158D01*
X15050000Y-15250000D02*
X13504109Y-16795891D01*
X13504109Y-16795891D02*
X13504109Y-20946246D01*
X13525021Y-20967158D02*
X13525021Y-21250000D01*
X17650000Y-15250000D02*
X15050000Y-15250000D01*
X7500000Y-23120000D02*
X8980000Y-23120000D01*
X8980000Y-23120000D02*
X9000000Y-23100000D01*
X17600000Y-15300000D02*
X17650000Y-15250000D01*
X17700000Y-15250000D02*
X17650000Y-15250000D01*
X7660000Y-23280000D02*
X7500000Y-23120000D01*
X17750000Y-23050000D02*
X14882438Y-23050000D01*
X14882438Y-23050000D02*
X14331614Y-23600824D01*
X14331614Y-23600824D02*
X14131615Y-23800823D01*
X8890000Y-24390000D02*
X8950000Y-24450000D01*
X7500000Y-24390000D02*
X8890000Y-24390000D01*
X33150000Y-24200000D02*
X32450000Y-24200000D01*
X32450000Y-24200000D02*
X32000000Y-23750000D01*
X31250000Y-21100000D02*
X31050000Y-21100000D01*
X32000000Y-23750000D02*
X32000000Y-21850000D01*
X32000000Y-21850000D02*
X31250000Y-21100000D01*
X12250000Y-18364377D02*
X12185701Y-18428676D01*
X12250000Y-17100000D02*
X12250000Y-18364377D01*
X8225000Y-18075000D02*
X8225000Y-19125000D01*
X8225000Y-19125000D02*
X8450000Y-19350000D01*
X7725000Y-18075000D02*
X8225000Y-18075000D01*
X7725000Y-18075000D02*
X7725000Y-18275000D01*
X12490000Y-13200000D02*
X12584000Y-13294000D01*
X9550000Y-13200000D02*
X12490000Y-13200000D01*
X4050000Y-17950000D02*
X4050000Y-17850000D01*
X3350000Y-18150000D02*
X3850000Y-18150000D01*
X3850000Y-18150000D02*
X4050000Y-17950000D01*
X22622695Y-13502804D02*
X21722696Y-12602805D01*
X22750011Y-24097811D02*
X23700022Y-23147800D01*
X22750011Y-27028732D02*
X22750011Y-24097811D01*
X23700022Y-17600022D02*
X23000000Y-16900000D01*
X23700022Y-23147800D02*
X23700022Y-17600022D01*
X23000000Y-16900000D02*
X23000000Y-13880109D01*
X23000000Y-13880109D02*
X22622695Y-13502804D01*
X29050000Y-43500000D02*
X29050000Y-44300000D01*
X29050000Y-44300000D02*
X29000000Y-44350000D01*
X28100000Y-31200000D02*
X28100000Y-33750000D01*
X26625012Y-29725012D02*
X28100000Y-31200000D01*
X25850000Y-27150000D02*
X26625012Y-27925012D01*
X26625012Y-27925012D02*
X26625012Y-29725012D01*
X29044277Y-44305723D02*
X29000000Y-44350000D01*
X22824989Y-17549999D02*
X22624990Y-17350000D01*
X22225001Y-23986410D02*
X23250011Y-22961400D01*
X22225001Y-32275001D02*
X22225001Y-23986410D01*
X23250011Y-17975021D02*
X22824989Y-17549999D01*
X23250011Y-22961400D02*
X23250011Y-17975021D01*
X20400000Y-17017158D02*
X20400000Y-17300000D01*
X20400000Y-14042643D02*
X20400000Y-17017158D01*
X18143155Y-11785798D02*
X20400000Y-14042643D01*
X21900000Y-43200000D02*
X21900000Y-43950000D01*
X21900000Y-43950000D02*
X21950000Y-44000000D01*
X13000011Y-23313601D02*
X13450010Y-23763600D01*
X14563614Y-12602805D02*
X13000011Y-14166408D01*
X13000011Y-14166408D02*
X13000011Y-23313601D01*
X13450010Y-26769393D02*
X13092000Y-27127403D01*
X14140000Y-35640000D02*
X14380000Y-35880000D01*
X13450010Y-23763600D02*
X13450010Y-26769393D01*
X13092000Y-27127403D02*
X13092000Y-28534000D01*
X14140000Y-29582000D02*
X14140000Y-35640000D01*
X13092000Y-28534000D02*
X14140000Y-29582000D01*
X21900000Y-38625000D02*
X22100000Y-38625000D01*
X14380000Y-35880000D02*
X19155000Y-35880000D01*
X19155000Y-35880000D02*
X21900000Y-38625000D01*
X22400000Y-38425000D02*
X22003998Y-38425000D01*
X12450001Y-30300001D02*
X12650000Y-30500000D01*
X12999999Y-26582993D02*
X12450001Y-27132991D01*
X12450001Y-27132991D02*
X12450001Y-30300001D01*
X12999999Y-23950000D02*
X12999999Y-26582993D01*
X12550000Y-20650000D02*
X12550000Y-23500001D01*
X10100000Y-18200000D02*
X12550000Y-20650000D01*
X12550000Y-23500001D02*
X12999999Y-23950000D01*
X21950000Y-33400000D02*
X21950000Y-32900000D01*
X20222661Y-30907863D02*
X20222661Y-30625021D01*
X20222661Y-31172661D02*
X20222661Y-30907863D01*
X21950000Y-32900000D02*
X20222661Y-31172661D01*
X10100000Y-21871596D02*
X10100000Y-29450000D01*
X12940778Y-36447937D02*
X12940778Y-36730779D01*
X10100000Y-29450000D02*
X13159978Y-32509978D01*
X13159978Y-32509978D02*
X13159978Y-35071026D01*
X13159978Y-35071026D02*
X12940778Y-35290226D01*
X12940778Y-35290226D02*
X12940778Y-36447937D01*
X13900000Y-44300000D02*
X14825000Y-44300000D01*
X14825000Y-44300000D02*
X14950000Y-44425000D01*
X11693045Y-25179589D02*
X11693045Y-30406634D01*
X11693045Y-30406634D02*
X13680000Y-32393589D01*
X13680000Y-36307158D02*
X13610000Y-36377158D01*
X13680000Y-32393589D02*
X13680000Y-36307158D01*
X13610000Y-36377158D02*
X13610000Y-36660000D01*
X13850000Y-38650000D02*
X14925000Y-38650000D01*
X14925000Y-38650000D02*
X14950000Y-38625000D01*
X15050000Y-33400000D02*
X15050000Y-29227969D01*
X15050000Y-29227969D02*
X14563614Y-28741583D01*
X14563614Y-28741583D02*
X14563614Y-27468791D01*
X24435002Y-28550000D02*
X23900000Y-28550000D01*
X27150000Y-32300000D02*
X27150000Y-31264998D01*
X27150000Y-31264998D02*
X24435002Y-28550000D01*
X29000000Y-38625000D02*
X29000000Y-38100000D01*
X29000000Y-38100000D02*
X28500000Y-37600000D01*
X30910000Y-37590000D02*
X30910000Y-36735000D01*
X30910000Y-36735000D02*
X30800000Y-36625000D01*
X21911239Y-52568761D02*
X21911239Y-52258761D01*
X20760000Y-53720000D02*
X21911239Y-52568761D01*
X20760000Y-54420000D02*
X20760000Y-53720000D01*
X23700000Y-37920000D02*
X23700000Y-36980000D01*
X23700000Y-36980000D02*
X23890000Y-36790000D01*
X24570000Y-48570000D02*
X24470000Y-48570000D01*
X24000000Y-48100000D02*
X24000000Y-47600000D01*
X24470000Y-48570000D02*
X24000000Y-48100000D01*
X16950000Y-32378414D02*
X16996619Y-32425033D01*
X16950000Y-31000000D02*
X16950000Y-32378414D01*
X19490000Y-48570000D02*
X19480000Y-48570000D01*
X19480000Y-48570000D02*
X18140000Y-47230000D01*
X25300000Y-48030000D02*
X25300000Y-47600000D01*
X25840000Y-48570000D02*
X25300000Y-48030000D01*
X23950000Y-42994990D02*
X24225010Y-43270000D01*
X23950000Y-42275000D02*
X23950000Y-42994990D01*
X23899990Y-42424990D02*
X23780173Y-42424990D01*
X23950000Y-42475000D02*
X23899990Y-42424990D01*
X27180000Y-47280000D02*
X27180000Y-48500000D01*
X27180000Y-48500000D02*
X27110000Y-48570000D01*
X29920000Y-42705000D02*
X29920000Y-44050000D01*
X31000000Y-42125000D02*
X30500000Y-42125000D01*
X30500000Y-42125000D02*
X29920000Y-42705000D01*
X31125000Y-42350000D02*
X31150000Y-42325000D01*
X17550000Y-36950000D02*
X16950000Y-36950000D01*
X16950000Y-36950000D02*
X16800000Y-36800000D01*
X16815000Y-36690000D02*
X16750000Y-36625000D01*
X16835690Y-36825000D02*
X16827024Y-36833666D01*
X20760000Y-48570000D02*
X20760000Y-47954998D01*
X20760000Y-47954998D02*
X20050001Y-47244999D01*
X20050001Y-47244999D02*
X19264999Y-47244999D01*
X19264999Y-47244999D02*
X19140000Y-47120000D01*
X1800000Y-13850000D02*
X2526528Y-14576528D01*
X2526528Y-17856897D02*
X2526528Y-18177216D01*
X1800000Y-13150000D02*
X1800000Y-13850000D01*
X2526528Y-14576528D02*
X2526528Y-17856897D01*
X2026240Y-21850000D02*
X2622954Y-21253286D01*
X1650000Y-21850000D02*
X2026240Y-21850000D01*
X1336103Y-21850000D02*
X1650000Y-21850000D01*
X1800000Y-13150000D02*
X1800000Y-13350000D01*
X1825000Y-13175000D02*
X1800000Y-13150000D01*
X21481076Y-48021076D02*
X21481076Y-47720010D01*
X22030000Y-48570000D02*
X21481076Y-48021076D01*
X16990000Y-43230000D02*
X16990000Y-42290000D01*
X16990000Y-42290000D02*
X16950000Y-42250000D01*
X16950000Y-42450000D02*
X16950000Y-42250000D01*
X4899996Y-18217158D02*
X4899996Y-18500000D01*
X4899996Y-15150004D02*
X4899996Y-18217158D01*
X6175000Y-13175000D02*
X6175000Y-13875000D01*
X6175000Y-13875000D02*
X4899996Y-15150004D01*
X4920000Y-20580000D02*
X4850000Y-20650000D01*
X7500000Y-20580000D02*
X4920000Y-20580000D01*
X8200000Y-20580000D02*
X7500000Y-20580000D01*
X23404832Y-31895168D02*
X23404832Y-32250012D01*
X24100000Y-31000000D02*
X24100000Y-31200000D01*
X24100000Y-31200000D02*
X23404832Y-31895168D01*
X22998109Y-48268109D02*
X22998109Y-47720010D01*
X23300000Y-48570000D02*
X22998109Y-48268109D01*
X19470000Y-50770000D02*
X18800000Y-50100000D01*
X18800000Y-50100000D02*
X18800000Y-49160000D01*
X28380000Y-54420000D02*
X28380000Y-53720000D01*
X3761502Y-23981502D02*
X2900000Y-23120000D01*
X28380000Y-53720000D02*
X25430000Y-50770000D01*
X25430000Y-50770000D02*
X19470000Y-50770000D01*
X10476410Y-41900000D02*
X3770011Y-35193601D01*
X18800000Y-49160000D02*
X17465001Y-47825001D01*
X12050000Y-41900000D02*
X10476410Y-41900000D01*
X17465001Y-47825001D02*
X15225001Y-47825001D01*
X15225001Y-47825001D02*
X12900000Y-45500000D01*
X12900000Y-45500000D02*
X12900000Y-42750000D01*
X12900000Y-42750000D02*
X12050000Y-41900000D01*
X2900000Y-23120000D02*
X1650000Y-23120000D01*
X3770011Y-35193601D02*
X3770011Y-27417015D01*
X3770011Y-27417015D02*
X3761502Y-27408506D01*
X3761502Y-27408506D02*
X3761502Y-23981502D01*
X33725001Y-21625001D02*
X33920000Y-21820000D01*
X33920000Y-21820000D02*
X33920000Y-22708589D01*
X33920000Y-22708589D02*
X35200000Y-23988589D01*
X35200000Y-23988589D02*
X35200000Y-26300000D01*
X32950000Y-21050000D02*
X33150000Y-21050000D01*
X33150000Y-21050000D02*
X33725001Y-21625001D01*
X33725001Y-21625001D02*
X32950000Y-21050000D01*
X33000000Y-12700000D02*
X33200000Y-12700000D01*
X33200000Y-12700000D02*
X33950000Y-13450000D01*
X33950000Y-13450000D02*
X33950000Y-14313589D01*
X33950000Y-14313589D02*
X35150000Y-15513589D01*
X35150000Y-15513589D02*
X35150000Y-17950000D01*
X33050000Y-15950000D02*
X33000000Y-15950000D01*
X31950000Y-13450000D02*
X31200000Y-12700000D01*
X33000000Y-15950000D02*
X31950000Y-14900000D01*
X31950000Y-14900000D02*
X31950000Y-13450000D01*
X31200000Y-12700000D02*
X31000000Y-12700000D01*
X8750000Y-25660000D02*
X9060000Y-25660000D01*
X9060000Y-25660000D02*
X9100000Y-25700000D01*
X7500000Y-25660000D02*
X8750000Y-25660000D01*
X30654366Y-23495634D02*
X30376510Y-23495634D01*
X31050000Y-22600000D02*
X31050000Y-23100000D01*
X31050000Y-23100000D02*
X30654366Y-23495634D01*
X23275012Y-24209220D02*
X23275012Y-29703009D01*
X24150033Y-23334200D02*
X23275012Y-24209220D01*
X28373308Y-14200000D02*
X24150033Y-18423275D01*
X31000000Y-14200000D02*
X28373308Y-14200000D01*
X23003010Y-29975011D02*
X22776511Y-30201510D01*
X24150033Y-18423275D02*
X24150033Y-23334200D01*
X23275012Y-29703009D02*
X23003010Y-29975011D01*
X7500000Y-26930000D02*
X9030000Y-26930000D01*
X9030000Y-26930000D02*
X9050000Y-26950000D01*
X30950000Y-14250000D02*
X31000000Y-14200000D01*
D33*
X32350000Y-33750000D02*
X32350000Y-33400000D01*
X32350000Y-33428515D02*
X32364258Y-33414257D01*
X32350000Y-33750000D02*
X32350000Y-34120000D01*
X32350000Y-34120000D02*
X31740000Y-34730000D01*
D31*
X12056050Y-34583950D02*
X12271018Y-34583950D01*
X11100000Y-35540000D02*
X12056050Y-34583950D01*
X12271018Y-34583950D02*
X12334968Y-34520000D01*
X10375000Y-49325000D02*
X10375000Y-47750000D01*
X10300000Y-49400000D02*
X10375000Y-49325000D01*
D34*
X11100000Y-35550000D02*
X11100000Y-35466966D01*
D32*
X33714990Y-46147622D02*
X33714990Y-46430464D01*
X34040000Y-41860000D02*
X33714990Y-42185010D01*
X33714990Y-42185010D02*
X33714990Y-46147622D01*
X25265010Y-52474990D02*
X25450000Y-52474990D01*
X24570000Y-54420000D02*
X24570000Y-53170000D01*
X24570000Y-53170000D02*
X25265010Y-52474990D01*
X2350011Y-25952561D02*
X2550010Y-26152560D01*
X2057450Y-25660000D02*
X2350011Y-25952561D01*
X1650000Y-25660000D02*
X2057450Y-25660000D01*
X8240000Y-33000000D02*
X4286512Y-29046512D01*
X11100000Y-33000000D02*
X8240000Y-33000000D01*
X4286512Y-29046512D02*
X4286512Y-26360000D01*
X24570000Y-54701510D02*
X24026500Y-55245010D01*
X24570000Y-54420000D02*
X24570000Y-54701510D01*
X33914488Y-33485512D02*
X33914488Y-36231958D01*
X35500000Y-33000000D02*
X34400000Y-33000000D01*
X34400000Y-33000000D02*
X33914488Y-33485512D01*
X1710000Y-25600000D02*
X1650000Y-25660000D01*
X34889998Y-33150000D02*
X35550000Y-33150000D01*
X22800000Y-19700000D02*
X22150000Y-19050000D01*
X22800000Y-22775000D02*
X22800000Y-19700000D01*
X21575000Y-24000000D02*
X22800000Y-22775000D01*
X18235002Y-24000000D02*
X21575000Y-24000000D01*
X15750000Y-24000000D02*
X18235002Y-24000000D01*
X15750000Y-24000000D02*
X15700000Y-24000000D01*
X19600000Y-20143497D02*
X19499987Y-20043484D01*
X19600000Y-23000000D02*
X19600000Y-20143497D01*
X19499987Y-20043484D02*
X19299988Y-19843485D01*
X19600000Y-23200000D02*
X19600000Y-23000000D01*
X16898136Y-20000000D02*
X17000136Y-19898000D01*
X15650000Y-20000000D02*
X16898136Y-20000000D01*
X15656568Y-20006568D02*
X15650000Y-20000000D01*
X15650000Y-20000000D02*
X15700000Y-20000000D01*
X31150000Y-25150000D02*
X31225000Y-25225000D01*
X31225000Y-25225000D02*
X34025000Y-25225000D01*
X34025000Y-25225000D02*
X34425000Y-24825000D01*
X34425000Y-24825000D02*
X34425000Y-23900000D01*
X34425000Y-23900000D02*
X33075000Y-22550000D01*
X33075000Y-22550000D02*
X32950000Y-22550000D01*
X31050000Y-16900000D02*
X33775000Y-16900000D01*
X33775000Y-16900000D02*
X34125000Y-16550000D01*
X34125000Y-16550000D02*
X34125000Y-15125000D01*
X34125000Y-15125000D02*
X33200000Y-14200000D01*
X33200000Y-14200000D02*
X33000000Y-14200000D01*
D35*
G36*
X14696838Y-24635317D02*
X14835910Y-24851441D01*
X15048110Y-24996431D01*
X15300000Y-25047440D01*
X16200000Y-25047440D01*
X16435317Y-25003162D01*
X16651441Y-24864090D01*
X16722563Y-24760000D01*
X16760750Y-24760000D01*
X16823750Y-24823000D01*
X17623000Y-24823000D01*
X17623000Y-24803000D01*
X17877000Y-24803000D01*
X17877000Y-24823000D01*
X18676250Y-24823000D01*
X18739250Y-24760000D01*
X21465001Y-24760000D01*
X21465001Y-31340199D01*
X21016183Y-30891381D01*
X21057516Y-30791842D01*
X21057806Y-30459658D01*
X20930953Y-30152649D01*
X20696268Y-29917555D01*
X20389482Y-29790166D01*
X20057298Y-29789876D01*
X19750289Y-29916729D01*
X19515195Y-30151414D01*
X19387806Y-30458200D01*
X19387516Y-30790384D01*
X19462661Y-30972250D01*
X19462661Y-31172661D01*
X19520513Y-31463500D01*
X19685260Y-31710062D01*
X20898473Y-32923275D01*
X20852560Y-33150000D01*
X20852560Y-33650000D01*
X20896838Y-33885317D01*
X21035910Y-34101441D01*
X21105711Y-34149134D01*
X21048559Y-34185910D01*
X20903569Y-34398110D01*
X20852560Y-34650000D01*
X20852560Y-35150000D01*
X20896838Y-35385317D01*
X21035910Y-35601441D01*
X21248110Y-35746431D01*
X21500000Y-35797440D01*
X22400000Y-35797440D01*
X22635317Y-35753162D01*
X22851441Y-35614090D01*
X22996431Y-35401890D01*
X23047440Y-35150000D01*
X23047440Y-34995973D01*
X23048110Y-34996431D01*
X23300000Y-35047440D01*
X24200000Y-35047440D01*
X24435317Y-35003162D01*
X24651441Y-34864090D01*
X24738064Y-34737314D01*
X24823750Y-34823000D01*
X25623000Y-34823000D01*
X25623000Y-34803000D01*
X25877000Y-34803000D01*
X25877000Y-34823000D01*
X26676250Y-34823000D01*
X26835000Y-34664250D01*
X26835000Y-34423690D01*
X26738327Y-34190301D01*
X26559698Y-34011673D01*
X26523253Y-33996577D01*
X26651441Y-33914090D01*
X26796431Y-33701890D01*
X26847440Y-33450000D01*
X26847440Y-33078491D01*
X26983179Y-33134855D01*
X27315363Y-33135145D01*
X27340000Y-33124965D01*
X27340000Y-33402909D01*
X27265145Y-33583179D01*
X27264855Y-33915363D01*
X27391708Y-34222372D01*
X27626393Y-34457466D01*
X27933179Y-34584855D01*
X28265363Y-34585145D01*
X28572372Y-34458292D01*
X28802374Y-34228690D01*
X29205000Y-34228690D01*
X29205000Y-34444250D01*
X29363750Y-34603000D01*
X30113000Y-34603000D01*
X30113000Y-33878750D01*
X29954250Y-33720000D01*
X29713691Y-33720000D01*
X29480302Y-33816673D01*
X29301673Y-33995301D01*
X29205000Y-34228690D01*
X28802374Y-34228690D01*
X28807466Y-34223607D01*
X28934855Y-33916821D01*
X28935145Y-33584637D01*
X28860000Y-33402771D01*
X28860000Y-31200000D01*
X28802148Y-30909161D01*
X28637401Y-30662599D01*
X27385012Y-29410210D01*
X27385012Y-27925012D01*
X27370146Y-27850279D01*
X29115000Y-29595133D01*
X29115000Y-30500000D01*
X29201397Y-30934346D01*
X29218560Y-30960032D01*
X29246838Y-31110317D01*
X29385910Y-31326441D01*
X29415000Y-31346317D01*
X29415000Y-31350331D01*
X29398559Y-31360910D01*
X29253569Y-31573110D01*
X29202560Y-31825000D01*
X29202560Y-32575000D01*
X29246838Y-32810317D01*
X29385910Y-33026441D01*
X29598110Y-33171431D01*
X29850000Y-33222440D01*
X30650000Y-33222440D01*
X30885317Y-33178162D01*
X30988646Y-33111671D01*
X30990302Y-33113327D01*
X31223691Y-33210000D01*
X31464250Y-33210000D01*
X31512364Y-33161886D01*
X31465000Y-33400000D01*
X31465000Y-33428510D01*
X31464999Y-33428515D01*
X31465000Y-33428520D01*
X31465000Y-33707560D01*
X31340000Y-33707560D01*
X31104683Y-33751838D01*
X31001354Y-33818329D01*
X30999698Y-33816673D01*
X30766309Y-33720000D01*
X30525750Y-33720000D01*
X30367000Y-33878750D01*
X30367000Y-34603000D01*
X30387000Y-34603000D01*
X30387000Y-34857000D01*
X30367000Y-34857000D01*
X30367000Y-34877000D01*
X30113000Y-34877000D01*
X30113000Y-34857000D01*
X29363750Y-34857000D01*
X29205000Y-35015750D01*
X29205000Y-35231310D01*
X29301673Y-35464699D01*
X29480302Y-35643327D01*
X29713691Y-35740000D01*
X29954250Y-35740000D01*
X30112998Y-35581252D01*
X30112998Y-35701619D01*
X30098559Y-35710910D01*
X29953569Y-35923110D01*
X29902560Y-36175000D01*
X29902560Y-37075000D01*
X29946838Y-37310317D01*
X30075070Y-37509594D01*
X30074934Y-37664877D01*
X29909160Y-37697852D01*
X29744642Y-37807780D01*
X29701890Y-37778569D01*
X29678549Y-37773842D01*
X29537401Y-37562599D01*
X29282832Y-37308030D01*
X29208292Y-37127628D01*
X28973607Y-36892534D01*
X28666821Y-36765145D01*
X28334637Y-36764855D01*
X28027628Y-36891708D01*
X27792534Y-37126393D01*
X27665145Y-37433179D01*
X27664855Y-37765363D01*
X27791708Y-38072372D01*
X27934814Y-38215727D01*
X27902560Y-38375000D01*
X27902560Y-38875000D01*
X27946838Y-39110317D01*
X28085910Y-39326441D01*
X28155711Y-39374134D01*
X28098559Y-39410910D01*
X27953569Y-39623110D01*
X27902560Y-39875000D01*
X27902560Y-40375000D01*
X27946838Y-40610317D01*
X28085910Y-40826441D01*
X28298110Y-40971431D01*
X28550000Y-41022440D01*
X29450000Y-41022440D01*
X29685317Y-40978162D01*
X29888303Y-40847544D01*
X29990839Y-40827148D01*
X30237401Y-40662401D01*
X30477362Y-40422440D01*
X31250000Y-40422440D01*
X31485317Y-40378162D01*
X31701441Y-40239090D01*
X31788064Y-40112314D01*
X31873750Y-40198000D01*
X32673000Y-40198000D01*
X32673000Y-40178000D01*
X32927000Y-40178000D01*
X32927000Y-40198000D01*
X33726250Y-40198000D01*
X33764250Y-40160000D01*
X34101231Y-40160000D01*
X34058524Y-40263110D01*
X34179845Y-40493000D01*
X35373000Y-40493000D01*
X35373000Y-40473000D01*
X35627000Y-40473000D01*
X35627000Y-40493000D01*
X35647000Y-40493000D01*
X35647000Y-40747000D01*
X35627000Y-40747000D01*
X35627000Y-40767000D01*
X35373000Y-40767000D01*
X35373000Y-40747000D01*
X34179845Y-40747000D01*
X34058524Y-40976890D01*
X34078464Y-41025033D01*
X33874637Y-41024855D01*
X33800412Y-41055524D01*
X33885000Y-40851310D01*
X33885000Y-40610750D01*
X33726250Y-40452000D01*
X32927000Y-40452000D01*
X32927000Y-40472000D01*
X32673000Y-40472000D01*
X32673000Y-40452000D01*
X31873750Y-40452000D01*
X31715000Y-40610750D01*
X31715000Y-40851310D01*
X31811673Y-41084699D01*
X31883333Y-41156359D01*
X31798559Y-41210910D01*
X31750866Y-41280711D01*
X31714090Y-41223559D01*
X31501890Y-41078569D01*
X31250000Y-41027560D01*
X30750000Y-41027560D01*
X30514683Y-41071838D01*
X30298559Y-41210910D01*
X30153569Y-41423110D01*
X30144930Y-41465770D01*
X29962599Y-41587599D01*
X29382599Y-42167599D01*
X29217852Y-42414161D01*
X29167936Y-42665102D01*
X28884637Y-42664855D01*
X28577628Y-42791708D01*
X28342534Y-43026393D01*
X28215145Y-43333179D01*
X28214946Y-43561017D01*
X28098559Y-43635910D01*
X27953569Y-43848110D01*
X27902560Y-44100000D01*
X27902560Y-44600000D01*
X27946838Y-44835317D01*
X28085910Y-45051441D01*
X28155711Y-45099134D01*
X28098559Y-45135910D01*
X27953569Y-45348110D01*
X27902560Y-45600000D01*
X27902560Y-46100000D01*
X27946838Y-46335317D01*
X28085910Y-46551441D01*
X28298110Y-46696431D01*
X28550000Y-46747440D01*
X29450000Y-46747440D01*
X29685317Y-46703162D01*
X29901441Y-46564090D01*
X30046431Y-46351890D01*
X30095263Y-46110750D01*
X31715000Y-46110750D01*
X31715000Y-46351310D01*
X31811673Y-46584699D01*
X31990302Y-46763327D01*
X32223691Y-46860000D01*
X32514250Y-46860000D01*
X32673000Y-46701250D01*
X32673000Y-45952000D01*
X31873750Y-45952000D01*
X31715000Y-46110750D01*
X30095263Y-46110750D01*
X30097440Y-46100000D01*
X30097440Y-45927362D01*
X30144065Y-45880737D01*
X30350000Y-45922440D01*
X31250000Y-45922440D01*
X31485317Y-45878162D01*
X31701441Y-45739090D01*
X31788064Y-45612314D01*
X31873750Y-45698000D01*
X32673000Y-45698000D01*
X32673000Y-45678000D01*
X32927000Y-45678000D01*
X32927000Y-45698000D01*
X32947000Y-45698000D01*
X32947000Y-45952000D01*
X32927000Y-45952000D01*
X32927000Y-46150780D01*
X32880135Y-46263643D01*
X32879845Y-46595827D01*
X33006698Y-46902836D01*
X33241383Y-47137930D01*
X33404863Y-47205813D01*
X33404855Y-47215363D01*
X33531708Y-47522372D01*
X33766393Y-47757466D01*
X34073179Y-47884855D01*
X34405363Y-47885145D01*
X34712372Y-47758292D01*
X34947466Y-47523607D01*
X35074855Y-47216821D01*
X35074952Y-47106240D01*
X35470907Y-47185000D01*
X35529093Y-47185000D01*
X36097378Y-47071961D01*
X36290000Y-46943255D01*
X36290000Y-55213000D01*
X29302873Y-55213000D01*
X29315000Y-55152032D01*
X29315000Y-53687968D01*
X29243827Y-53330159D01*
X29041145Y-53026823D01*
X28737809Y-52824141D01*
X28514530Y-52779728D01*
X28107127Y-52372325D01*
X30644587Y-52372325D01*
X31006916Y-53249229D01*
X31677242Y-53920726D01*
X32553513Y-54284585D01*
X33502325Y-54285413D01*
X34379229Y-53923084D01*
X35050726Y-53252758D01*
X35414585Y-52376487D01*
X35415413Y-51427675D01*
X35053084Y-50550771D01*
X34382758Y-49879274D01*
X33506487Y-49515415D01*
X32557675Y-49514587D01*
X31680771Y-49876916D01*
X31009274Y-50547242D01*
X30645415Y-51423513D01*
X30644587Y-52372325D01*
X28107127Y-52372325D01*
X25967401Y-50232599D01*
X25943287Y-50216487D01*
X26197809Y-50165859D01*
X26475000Y-49980646D01*
X26752191Y-50165859D01*
X27110000Y-50237032D01*
X27467809Y-50165859D01*
X27762613Y-49968878D01*
X27808657Y-50020948D01*
X28109653Y-50165063D01*
X28253000Y-50035790D01*
X28253000Y-48697000D01*
X28507000Y-48697000D01*
X28507000Y-50035790D01*
X28650347Y-50165063D01*
X28951343Y-50020948D01*
X29195227Y-49745142D01*
X29315000Y-49397000D01*
X29315000Y-48697000D01*
X28507000Y-48697000D01*
X28253000Y-48697000D01*
X28233000Y-48697000D01*
X28233000Y-48443000D01*
X28253000Y-48443000D01*
X28253000Y-47104210D01*
X28507000Y-47104210D01*
X28507000Y-48443000D01*
X29315000Y-48443000D01*
X29315000Y-47743000D01*
X29195227Y-47394858D01*
X28951343Y-47119052D01*
X28650347Y-46974937D01*
X28507000Y-47104210D01*
X28253000Y-47104210D01*
X28109653Y-46974937D01*
X27982565Y-47035786D01*
X27888292Y-46807628D01*
X27653607Y-46572534D01*
X27346821Y-46445145D01*
X27014637Y-46444855D01*
X26788639Y-46538235D01*
X26835000Y-46426310D01*
X26835000Y-46185750D01*
X26676250Y-46027000D01*
X25877000Y-46027000D01*
X25877000Y-46047000D01*
X25623000Y-46047000D01*
X25623000Y-46027000D01*
X24823750Y-46027000D01*
X24665000Y-46185750D01*
X24665000Y-46426310D01*
X24761673Y-46659699D01*
X24940302Y-46838327D01*
X24948551Y-46841744D01*
X24827628Y-46891708D01*
X24775417Y-46943828D01*
X24570000Y-46902968D01*
X24498267Y-46917237D01*
X24473607Y-46892534D01*
X24166821Y-46765145D01*
X23834637Y-46764855D01*
X23527628Y-46891708D01*
X23480402Y-46938852D01*
X23300000Y-46902968D01*
X23237681Y-46915364D01*
X23164930Y-46885155D01*
X22832746Y-46884865D01*
X22525737Y-47011718D01*
X22492983Y-47044415D01*
X22387809Y-46974141D01*
X22030000Y-46902968D01*
X21800658Y-46948587D01*
X21647897Y-46885155D01*
X21315713Y-46884865D01*
X21105550Y-46971702D01*
X20788426Y-46908622D01*
X20587402Y-46707598D01*
X20340840Y-46542851D01*
X20050001Y-46484999D01*
X19810690Y-46484999D01*
X19835000Y-46426310D01*
X19835000Y-46185750D01*
X19676250Y-46027000D01*
X18877000Y-46027000D01*
X18877000Y-46047000D01*
X18623000Y-46047000D01*
X18623000Y-46027000D01*
X17823750Y-46027000D01*
X17665000Y-46185750D01*
X17665000Y-46426310D01*
X17699125Y-46508694D01*
X17667628Y-46521708D01*
X17432534Y-46756393D01*
X17305145Y-47063179D01*
X17305143Y-47065001D01*
X15539803Y-47065001D01*
X15297242Y-46822440D01*
X15400000Y-46822440D01*
X15635317Y-46778162D01*
X15851441Y-46639090D01*
X15996431Y-46426890D01*
X16047440Y-46175000D01*
X16047440Y-46002362D01*
X16094065Y-45955737D01*
X16300000Y-45997440D01*
X17200000Y-45997440D01*
X17435317Y-45953162D01*
X17651441Y-45814090D01*
X17738064Y-45687314D01*
X17823750Y-45773000D01*
X18623000Y-45773000D01*
X18623000Y-45753000D01*
X18877000Y-45753000D01*
X18877000Y-45773000D01*
X19676250Y-45773000D01*
X19835000Y-45614250D01*
X19835000Y-45373690D01*
X19738327Y-45140301D01*
X19559698Y-44961673D01*
X19523253Y-44946577D01*
X19651441Y-44864090D01*
X19796431Y-44651890D01*
X19847440Y-44400000D01*
X19847440Y-43750000D01*
X20852560Y-43750000D01*
X20852560Y-44250000D01*
X20896838Y-44485317D01*
X21035910Y-44701441D01*
X21105711Y-44749134D01*
X21048559Y-44785910D01*
X20903569Y-44998110D01*
X20852560Y-45250000D01*
X20852560Y-45750000D01*
X20896838Y-45985317D01*
X21035910Y-46201441D01*
X21248110Y-46346431D01*
X21500000Y-46397440D01*
X22400000Y-46397440D01*
X22635317Y-46353162D01*
X22851441Y-46214090D01*
X22996431Y-46001890D01*
X23012578Y-45922153D01*
X23048110Y-45946431D01*
X23300000Y-45997440D01*
X24200000Y-45997440D01*
X24435317Y-45953162D01*
X24651441Y-45814090D01*
X24738064Y-45687314D01*
X24823750Y-45773000D01*
X25623000Y-45773000D01*
X25623000Y-45753000D01*
X25877000Y-45753000D01*
X25877000Y-45773000D01*
X26676250Y-45773000D01*
X26835000Y-45614250D01*
X26835000Y-45373690D01*
X26738327Y-45140301D01*
X26559698Y-44961673D01*
X26523253Y-44946577D01*
X26651441Y-44864090D01*
X26796431Y-44651890D01*
X26847440Y-44400000D01*
X26847440Y-43600000D01*
X26803162Y-43364683D01*
X26664090Y-43148559D01*
X26510000Y-43043274D01*
X26510000Y-42775000D01*
X26452148Y-42484161D01*
X26347440Y-42327454D01*
X26347440Y-41825000D01*
X26303162Y-41589683D01*
X26164090Y-41373559D01*
X26144246Y-41360000D01*
X26326309Y-41360000D01*
X26559698Y-41263327D01*
X26738327Y-41084699D01*
X26835000Y-40851310D01*
X26835000Y-40610750D01*
X26676250Y-40452000D01*
X25877000Y-40452000D01*
X25877000Y-40472000D01*
X25623000Y-40472000D01*
X25623000Y-40452000D01*
X24823750Y-40452000D01*
X24665000Y-40610750D01*
X24665000Y-40851310D01*
X24761673Y-41084699D01*
X24924603Y-41247629D01*
X24748559Y-41360910D01*
X24700866Y-41430711D01*
X24664090Y-41373559D01*
X24451890Y-41228569D01*
X24200000Y-41177560D01*
X23700000Y-41177560D01*
X23464683Y-41221838D01*
X23248559Y-41360910D01*
X23103569Y-41573110D01*
X23052560Y-41825000D01*
X23052560Y-42262171D01*
X23020173Y-42424990D01*
X23052560Y-42587809D01*
X23052560Y-42725000D01*
X23096838Y-42960317D01*
X23221701Y-43154359D01*
X23247852Y-43285829D01*
X23412599Y-43532391D01*
X23442178Y-43561970D01*
X23516718Y-43742372D01*
X23676627Y-43902560D01*
X23300000Y-43902560D01*
X23064683Y-43946838D01*
X23047440Y-43957934D01*
X23047440Y-43750000D01*
X23003162Y-43514683D01*
X22864090Y-43298559D01*
X22734992Y-43210350D01*
X22735145Y-43034637D01*
X22608292Y-42727628D01*
X22373607Y-42492534D01*
X22066821Y-42365145D01*
X21734637Y-42364855D01*
X21427628Y-42491708D01*
X21192534Y-42726393D01*
X21065145Y-43033179D01*
X21064934Y-43275373D01*
X21048559Y-43285910D01*
X20903569Y-43498110D01*
X20852560Y-43750000D01*
X19847440Y-43750000D01*
X19847440Y-43600000D01*
X19803162Y-43364683D01*
X19664090Y-43148559D01*
X19510000Y-43043274D01*
X19510000Y-42750000D01*
X19452148Y-42459161D01*
X19347440Y-42302454D01*
X19347440Y-41800000D01*
X19303162Y-41564683D01*
X19171452Y-41360000D01*
X19326309Y-41360000D01*
X19559698Y-41263327D01*
X19738327Y-41084699D01*
X19835000Y-40851310D01*
X19835000Y-40610750D01*
X19676250Y-40452000D01*
X18877000Y-40452000D01*
X18877000Y-40472000D01*
X18623000Y-40472000D01*
X18623000Y-40452000D01*
X17823750Y-40452000D01*
X17665000Y-40610750D01*
X17665000Y-40851310D01*
X17761673Y-41084699D01*
X17909392Y-41232417D01*
X17748559Y-41335910D01*
X17700866Y-41405711D01*
X17664090Y-41348559D01*
X17451890Y-41203569D01*
X17200000Y-41152560D01*
X16700000Y-41152560D01*
X16464683Y-41196838D01*
X16248559Y-41335910D01*
X16103569Y-41548110D01*
X16052560Y-41800000D01*
X16052560Y-42700000D01*
X16096838Y-42935317D01*
X16164546Y-43040538D01*
X16155145Y-43063179D01*
X16154855Y-43395363D01*
X16281708Y-43702372D01*
X16481548Y-43902560D01*
X16300000Y-43902560D01*
X16064683Y-43946838D01*
X16011007Y-43981377D01*
X16003162Y-43939683D01*
X15864090Y-43723559D01*
X15651890Y-43578569D01*
X15400000Y-43527560D01*
X14500000Y-43527560D01*
X14433887Y-43540000D01*
X14247091Y-43540000D01*
X14066821Y-43465145D01*
X13734637Y-43464855D01*
X13660000Y-43495694D01*
X13660000Y-42750000D01*
X13602148Y-42459161D01*
X13437401Y-42212599D01*
X12587401Y-41362599D01*
X12426304Y-41254958D01*
X12541476Y-40976890D01*
X12420155Y-40747000D01*
X11227000Y-40747000D01*
X11227000Y-40767000D01*
X10973000Y-40767000D01*
X10973000Y-40747000D01*
X10953000Y-40747000D01*
X10953000Y-40493000D01*
X10973000Y-40493000D01*
X10973000Y-40473000D01*
X11227000Y-40473000D01*
X11227000Y-40493000D01*
X12420155Y-40493000D01*
X12541476Y-40263110D01*
X12371645Y-39853076D01*
X11981358Y-39424817D01*
X11838447Y-39357702D01*
X12179147Y-39130054D01*
X12501054Y-38648285D01*
X12537486Y-38465129D01*
X13022640Y-38465129D01*
X13015145Y-38483179D01*
X13014855Y-38815363D01*
X13141708Y-39122372D01*
X13376393Y-39357466D01*
X13683179Y-39484855D01*
X13997847Y-39485130D01*
X13903569Y-39623110D01*
X13852560Y-39875000D01*
X13852560Y-40375000D01*
X13896838Y-40610317D01*
X14035910Y-40826441D01*
X14248110Y-40971431D01*
X14500000Y-41022440D01*
X15400000Y-41022440D01*
X15635317Y-40978162D01*
X15851441Y-40839090D01*
X15996431Y-40626890D01*
X16047440Y-40375000D01*
X16047440Y-40370973D01*
X16048110Y-40371431D01*
X16300000Y-40422440D01*
X17200000Y-40422440D01*
X17435317Y-40378162D01*
X17651441Y-40239090D01*
X17738064Y-40112314D01*
X17823750Y-40198000D01*
X18623000Y-40198000D01*
X18623000Y-40185013D01*
X18877000Y-40185013D01*
X18877000Y-40198000D01*
X19676250Y-40198000D01*
X19689237Y-40185013D01*
X21002560Y-40185013D01*
X21002560Y-40375000D01*
X21046838Y-40610317D01*
X21185910Y-40826441D01*
X21398110Y-40971431D01*
X21650000Y-41022440D01*
X22550000Y-41022440D01*
X22785317Y-40978162D01*
X22930095Y-40885000D01*
X23619864Y-40885000D01*
X23645000Y-40890000D01*
X23935839Y-40832148D01*
X24182401Y-40667401D01*
X24287401Y-40562401D01*
X24406938Y-40383502D01*
X24435317Y-40378162D01*
X24651441Y-40239090D01*
X24738064Y-40112314D01*
X24823750Y-40198000D01*
X25623000Y-40198000D01*
X25623000Y-40178000D01*
X25877000Y-40178000D01*
X25877000Y-40198000D01*
X26676250Y-40198000D01*
X26835000Y-40039250D01*
X26835000Y-39798690D01*
X26738327Y-39565301D01*
X26559698Y-39386673D01*
X26523253Y-39371577D01*
X26651441Y-39289090D01*
X26796431Y-39076890D01*
X26847440Y-38825000D01*
X26847440Y-38025000D01*
X26803162Y-37789683D01*
X26664090Y-37573559D01*
X26510000Y-37468274D01*
X26510000Y-37150000D01*
X26452148Y-36859161D01*
X26287440Y-36612657D01*
X26287440Y-36340000D01*
X26243162Y-36104683D01*
X26166148Y-35985000D01*
X26326309Y-35985000D01*
X26559698Y-35888327D01*
X26738327Y-35709699D01*
X26835000Y-35476310D01*
X26835000Y-35235750D01*
X26676250Y-35077000D01*
X25877000Y-35077000D01*
X25877000Y-35097000D01*
X25623000Y-35097000D01*
X25623000Y-35077000D01*
X24823750Y-35077000D01*
X24665000Y-35235750D01*
X24665000Y-35476310D01*
X24761673Y-35709699D01*
X24834180Y-35782206D01*
X24688559Y-35875910D01*
X24640866Y-35945711D01*
X24604090Y-35888559D01*
X24391890Y-35743569D01*
X24140000Y-35692560D01*
X23640000Y-35692560D01*
X23404683Y-35736838D01*
X23188559Y-35875910D01*
X23043569Y-36088110D01*
X22992560Y-36340000D01*
X22992560Y-36715765D01*
X22940000Y-36980000D01*
X22940000Y-37572909D01*
X22865145Y-37753179D01*
X22865092Y-37813978D01*
X22859339Y-37817822D01*
X22801890Y-37778569D01*
X22762195Y-37770531D01*
X22690839Y-37722852D01*
X22400000Y-37665000D01*
X22014802Y-37665000D01*
X19832397Y-35482595D01*
X19835000Y-35476310D01*
X19835000Y-35235750D01*
X19676250Y-35077000D01*
X18877000Y-35077000D01*
X18877000Y-35097000D01*
X18623000Y-35097000D01*
X18623000Y-35077000D01*
X17823750Y-35077000D01*
X17780750Y-35120000D01*
X16147440Y-35120000D01*
X16147440Y-35016546D01*
X16300000Y-35047440D01*
X17200000Y-35047440D01*
X17435317Y-35003162D01*
X17651441Y-34864090D01*
X17738064Y-34737314D01*
X17823750Y-34823000D01*
X18623000Y-34823000D01*
X18623000Y-34803000D01*
X18877000Y-34803000D01*
X18877000Y-34823000D01*
X19676250Y-34823000D01*
X19835000Y-34664250D01*
X19835000Y-34423690D01*
X19738327Y-34190301D01*
X19559698Y-34011673D01*
X19523253Y-33996577D01*
X19651441Y-33914090D01*
X19796431Y-33701890D01*
X19847440Y-33450000D01*
X19847440Y-32650000D01*
X19803162Y-32414683D01*
X19664090Y-32198559D01*
X19451890Y-32053569D01*
X19335000Y-32029898D01*
X19335000Y-31511431D01*
X19347440Y-31450000D01*
X19347440Y-30550000D01*
X19303162Y-30314683D01*
X19164090Y-30098559D01*
X18951890Y-29953569D01*
X18700000Y-29902560D01*
X18200000Y-29902560D01*
X17964683Y-29946838D01*
X17748559Y-30085910D01*
X17700866Y-30155711D01*
X17664090Y-30098559D01*
X17451890Y-29953569D01*
X17200000Y-29902560D01*
X16700000Y-29902560D01*
X16464683Y-29946838D01*
X16248559Y-30085910D01*
X16103569Y-30298110D01*
X16052560Y-30550000D01*
X16052560Y-31450000D01*
X16096838Y-31685317D01*
X16190000Y-31830095D01*
X16190000Y-32190212D01*
X16161764Y-32258212D01*
X16161474Y-32590396D01*
X16288327Y-32897405D01*
X16343386Y-32952560D01*
X16300000Y-32952560D01*
X16116776Y-32987036D01*
X16103162Y-32914683D01*
X15964090Y-32698559D01*
X15810000Y-32593274D01*
X15810000Y-29227969D01*
X15752148Y-28937130D01*
X15587401Y-28690568D01*
X15549942Y-28653109D01*
X15613372Y-28589789D01*
X16607890Y-28589789D01*
X16841087Y-29154169D01*
X17272512Y-29586349D01*
X17836485Y-29820531D01*
X18447146Y-29821063D01*
X19011526Y-29587866D01*
X19443706Y-29156441D01*
X19677888Y-28592468D01*
X19678420Y-27981807D01*
X19445223Y-27417427D01*
X19013798Y-26985247D01*
X18449825Y-26751065D01*
X17839164Y-26750533D01*
X17274784Y-26983730D01*
X16842604Y-27415155D01*
X16608422Y-27979128D01*
X16607890Y-28589789D01*
X15613372Y-28589789D01*
X15864165Y-28339434D01*
X16098347Y-27775461D01*
X16098879Y-27164800D01*
X15865682Y-26600420D01*
X15434257Y-26168240D01*
X14870284Y-25934058D01*
X14259623Y-25933526D01*
X14210010Y-25954026D01*
X14210010Y-25235750D01*
X16665000Y-25235750D01*
X16665000Y-25476310D01*
X16761673Y-25709699D01*
X16940302Y-25888327D01*
X17173691Y-25985000D01*
X17464250Y-25985000D01*
X17623000Y-25826250D01*
X17623000Y-25077000D01*
X17877000Y-25077000D01*
X17877000Y-25826250D01*
X18035750Y-25985000D01*
X18326309Y-25985000D01*
X18559698Y-25888327D01*
X18738327Y-25709699D01*
X18835000Y-25476310D01*
X18835000Y-25235750D01*
X18676250Y-25077000D01*
X17877000Y-25077000D01*
X17623000Y-25077000D01*
X16823750Y-25077000D01*
X16665000Y-25235750D01*
X14210010Y-25235750D01*
X14210010Y-24635892D01*
X14296978Y-24635968D01*
X14603987Y-24509115D01*
X14662164Y-24451039D01*
X14696838Y-24635317D01*
X14696838Y-24635317D01*
G37*
X14696838Y-24635317D02*
X14835910Y-24851441D01*
X15048110Y-24996431D01*
X15300000Y-25047440D01*
X16200000Y-25047440D01*
X16435317Y-25003162D01*
X16651441Y-24864090D01*
X16722563Y-24760000D01*
X16760750Y-24760000D01*
X16823750Y-24823000D01*
X17623000Y-24823000D01*
X17623000Y-24803000D01*
X17877000Y-24803000D01*
X17877000Y-24823000D01*
X18676250Y-24823000D01*
X18739250Y-24760000D01*
X21465001Y-24760000D01*
X21465001Y-31340199D01*
X21016183Y-30891381D01*
X21057516Y-30791842D01*
X21057806Y-30459658D01*
X20930953Y-30152649D01*
X20696268Y-29917555D01*
X20389482Y-29790166D01*
X20057298Y-29789876D01*
X19750289Y-29916729D01*
X19515195Y-30151414D01*
X19387806Y-30458200D01*
X19387516Y-30790384D01*
X19462661Y-30972250D01*
X19462661Y-31172661D01*
X19520513Y-31463500D01*
X19685260Y-31710062D01*
X20898473Y-32923275D01*
X20852560Y-33150000D01*
X20852560Y-33650000D01*
X20896838Y-33885317D01*
X21035910Y-34101441D01*
X21105711Y-34149134D01*
X21048559Y-34185910D01*
X20903569Y-34398110D01*
X20852560Y-34650000D01*
X20852560Y-35150000D01*
X20896838Y-35385317D01*
X21035910Y-35601441D01*
X21248110Y-35746431D01*
X21500000Y-35797440D01*
X22400000Y-35797440D01*
X22635317Y-35753162D01*
X22851441Y-35614090D01*
X22996431Y-35401890D01*
X23047440Y-35150000D01*
X23047440Y-34995973D01*
X23048110Y-34996431D01*
X23300000Y-35047440D01*
X24200000Y-35047440D01*
X24435317Y-35003162D01*
X24651441Y-34864090D01*
X24738064Y-34737314D01*
X24823750Y-34823000D01*
X25623000Y-34823000D01*
X25623000Y-34803000D01*
X25877000Y-34803000D01*
X25877000Y-34823000D01*
X26676250Y-34823000D01*
X26835000Y-34664250D01*
X26835000Y-34423690D01*
X26738327Y-34190301D01*
X26559698Y-34011673D01*
X26523253Y-33996577D01*
X26651441Y-33914090D01*
X26796431Y-33701890D01*
X26847440Y-33450000D01*
X26847440Y-33078491D01*
X26983179Y-33134855D01*
X27315363Y-33135145D01*
X27340000Y-33124965D01*
X27340000Y-33402909D01*
X27265145Y-33583179D01*
X27264855Y-33915363D01*
X27391708Y-34222372D01*
X27626393Y-34457466D01*
X27933179Y-34584855D01*
X28265363Y-34585145D01*
X28572372Y-34458292D01*
X28802374Y-34228690D01*
X29205000Y-34228690D01*
X29205000Y-34444250D01*
X29363750Y-34603000D01*
X30113000Y-34603000D01*
X30113000Y-33878750D01*
X29954250Y-33720000D01*
X29713691Y-33720000D01*
X29480302Y-33816673D01*
X29301673Y-33995301D01*
X29205000Y-34228690D01*
X28802374Y-34228690D01*
X28807466Y-34223607D01*
X28934855Y-33916821D01*
X28935145Y-33584637D01*
X28860000Y-33402771D01*
X28860000Y-31200000D01*
X28802148Y-30909161D01*
X28637401Y-30662599D01*
X27385012Y-29410210D01*
X27385012Y-27925012D01*
X27370146Y-27850279D01*
X29115000Y-29595133D01*
X29115000Y-30500000D01*
X29201397Y-30934346D01*
X29218560Y-30960032D01*
X29246838Y-31110317D01*
X29385910Y-31326441D01*
X29415000Y-31346317D01*
X29415000Y-31350331D01*
X29398559Y-31360910D01*
X29253569Y-31573110D01*
X29202560Y-31825000D01*
X29202560Y-32575000D01*
X29246838Y-32810317D01*
X29385910Y-33026441D01*
X29598110Y-33171431D01*
X29850000Y-33222440D01*
X30650000Y-33222440D01*
X30885317Y-33178162D01*
X30988646Y-33111671D01*
X30990302Y-33113327D01*
X31223691Y-33210000D01*
X31464250Y-33210000D01*
X31512364Y-33161886D01*
X31465000Y-33400000D01*
X31465000Y-33428510D01*
X31464999Y-33428515D01*
X31465000Y-33428520D01*
X31465000Y-33707560D01*
X31340000Y-33707560D01*
X31104683Y-33751838D01*
X31001354Y-33818329D01*
X30999698Y-33816673D01*
X30766309Y-33720000D01*
X30525750Y-33720000D01*
X30367000Y-33878750D01*
X30367000Y-34603000D01*
X30387000Y-34603000D01*
X30387000Y-34857000D01*
X30367000Y-34857000D01*
X30367000Y-34877000D01*
X30113000Y-34877000D01*
X30113000Y-34857000D01*
X29363750Y-34857000D01*
X29205000Y-35015750D01*
X29205000Y-35231310D01*
X29301673Y-35464699D01*
X29480302Y-35643327D01*
X29713691Y-35740000D01*
X29954250Y-35740000D01*
X30112998Y-35581252D01*
X30112998Y-35701619D01*
X30098559Y-35710910D01*
X29953569Y-35923110D01*
X29902560Y-36175000D01*
X29902560Y-37075000D01*
X29946838Y-37310317D01*
X30075070Y-37509594D01*
X30074934Y-37664877D01*
X29909160Y-37697852D01*
X29744642Y-37807780D01*
X29701890Y-37778569D01*
X29678549Y-37773842D01*
X29537401Y-37562599D01*
X29282832Y-37308030D01*
X29208292Y-37127628D01*
X28973607Y-36892534D01*
X28666821Y-36765145D01*
X28334637Y-36764855D01*
X28027628Y-36891708D01*
X27792534Y-37126393D01*
X27665145Y-37433179D01*
X27664855Y-37765363D01*
X27791708Y-38072372D01*
X27934814Y-38215727D01*
X27902560Y-38375000D01*
X27902560Y-38875000D01*
X27946838Y-39110317D01*
X28085910Y-39326441D01*
X28155711Y-39374134D01*
X28098559Y-39410910D01*
X27953569Y-39623110D01*
X27902560Y-39875000D01*
X27902560Y-40375000D01*
X27946838Y-40610317D01*
X28085910Y-40826441D01*
X28298110Y-40971431D01*
X28550000Y-41022440D01*
X29450000Y-41022440D01*
X29685317Y-40978162D01*
X29888303Y-40847544D01*
X29990839Y-40827148D01*
X30237401Y-40662401D01*
X30477362Y-40422440D01*
X31250000Y-40422440D01*
X31485317Y-40378162D01*
X31701441Y-40239090D01*
X31788064Y-40112314D01*
X31873750Y-40198000D01*
X32673000Y-40198000D01*
X32673000Y-40178000D01*
X32927000Y-40178000D01*
X32927000Y-40198000D01*
X33726250Y-40198000D01*
X33764250Y-40160000D01*
X34101231Y-40160000D01*
X34058524Y-40263110D01*
X34179845Y-40493000D01*
X35373000Y-40493000D01*
X35373000Y-40473000D01*
X35627000Y-40473000D01*
X35627000Y-40493000D01*
X35647000Y-40493000D01*
X35647000Y-40747000D01*
X35627000Y-40747000D01*
X35627000Y-40767000D01*
X35373000Y-40767000D01*
X35373000Y-40747000D01*
X34179845Y-40747000D01*
X34058524Y-40976890D01*
X34078464Y-41025033D01*
X33874637Y-41024855D01*
X33800412Y-41055524D01*
X33885000Y-40851310D01*
X33885000Y-40610750D01*
X33726250Y-40452000D01*
X32927000Y-40452000D01*
X32927000Y-40472000D01*
X32673000Y-40472000D01*
X32673000Y-40452000D01*
X31873750Y-40452000D01*
X31715000Y-40610750D01*
X31715000Y-40851310D01*
X31811673Y-41084699D01*
X31883333Y-41156359D01*
X31798559Y-41210910D01*
X31750866Y-41280711D01*
X31714090Y-41223559D01*
X31501890Y-41078569D01*
X31250000Y-41027560D01*
X30750000Y-41027560D01*
X30514683Y-41071838D01*
X30298559Y-41210910D01*
X30153569Y-41423110D01*
X30144930Y-41465770D01*
X29962599Y-41587599D01*
X29382599Y-42167599D01*
X29217852Y-42414161D01*
X29167936Y-42665102D01*
X28884637Y-42664855D01*
X28577628Y-42791708D01*
X28342534Y-43026393D01*
X28215145Y-43333179D01*
X28214946Y-43561017D01*
X28098559Y-43635910D01*
X27953569Y-43848110D01*
X27902560Y-44100000D01*
X27902560Y-44600000D01*
X27946838Y-44835317D01*
X28085910Y-45051441D01*
X28155711Y-45099134D01*
X28098559Y-45135910D01*
X27953569Y-45348110D01*
X27902560Y-45600000D01*
X27902560Y-46100000D01*
X27946838Y-46335317D01*
X28085910Y-46551441D01*
X28298110Y-46696431D01*
X28550000Y-46747440D01*
X29450000Y-46747440D01*
X29685317Y-46703162D01*
X29901441Y-46564090D01*
X30046431Y-46351890D01*
X30095263Y-46110750D01*
X31715000Y-46110750D01*
X31715000Y-46351310D01*
X31811673Y-46584699D01*
X31990302Y-46763327D01*
X32223691Y-46860000D01*
X32514250Y-46860000D01*
X32673000Y-46701250D01*
X32673000Y-45952000D01*
X31873750Y-45952000D01*
X31715000Y-46110750D01*
X30095263Y-46110750D01*
X30097440Y-46100000D01*
X30097440Y-45927362D01*
X30144065Y-45880737D01*
X30350000Y-45922440D01*
X31250000Y-45922440D01*
X31485317Y-45878162D01*
X31701441Y-45739090D01*
X31788064Y-45612314D01*
X31873750Y-45698000D01*
X32673000Y-45698000D01*
X32673000Y-45678000D01*
X32927000Y-45678000D01*
X32927000Y-45698000D01*
X32947000Y-45698000D01*
X32947000Y-45952000D01*
X32927000Y-45952000D01*
X32927000Y-46150780D01*
X32880135Y-46263643D01*
X32879845Y-46595827D01*
X33006698Y-46902836D01*
X33241383Y-47137930D01*
X33404863Y-47205813D01*
X33404855Y-47215363D01*
X33531708Y-47522372D01*
X33766393Y-47757466D01*
X34073179Y-47884855D01*
X34405363Y-47885145D01*
X34712372Y-47758292D01*
X34947466Y-47523607D01*
X35074855Y-47216821D01*
X35074952Y-47106240D01*
X35470907Y-47185000D01*
X35529093Y-47185000D01*
X36097378Y-47071961D01*
X36290000Y-46943255D01*
X36290000Y-55213000D01*
X29302873Y-55213000D01*
X29315000Y-55152032D01*
X29315000Y-53687968D01*
X29243827Y-53330159D01*
X29041145Y-53026823D01*
X28737809Y-52824141D01*
X28514530Y-52779728D01*
X28107127Y-52372325D01*
X30644587Y-52372325D01*
X31006916Y-53249229D01*
X31677242Y-53920726D01*
X32553513Y-54284585D01*
X33502325Y-54285413D01*
X34379229Y-53923084D01*
X35050726Y-53252758D01*
X35414585Y-52376487D01*
X35415413Y-51427675D01*
X35053084Y-50550771D01*
X34382758Y-49879274D01*
X33506487Y-49515415D01*
X32557675Y-49514587D01*
X31680771Y-49876916D01*
X31009274Y-50547242D01*
X30645415Y-51423513D01*
X30644587Y-52372325D01*
X28107127Y-52372325D01*
X25967401Y-50232599D01*
X25943287Y-50216487D01*
X26197809Y-50165859D01*
X26475000Y-49980646D01*
X26752191Y-50165859D01*
X27110000Y-50237032D01*
X27467809Y-50165859D01*
X27762613Y-49968878D01*
X27808657Y-50020948D01*
X28109653Y-50165063D01*
X28253000Y-50035790D01*
X28253000Y-48697000D01*
X28507000Y-48697000D01*
X28507000Y-50035790D01*
X28650347Y-50165063D01*
X28951343Y-50020948D01*
X29195227Y-49745142D01*
X29315000Y-49397000D01*
X29315000Y-48697000D01*
X28507000Y-48697000D01*
X28253000Y-48697000D01*
X28233000Y-48697000D01*
X28233000Y-48443000D01*
X28253000Y-48443000D01*
X28253000Y-47104210D01*
X28507000Y-47104210D01*
X28507000Y-48443000D01*
X29315000Y-48443000D01*
X29315000Y-47743000D01*
X29195227Y-47394858D01*
X28951343Y-47119052D01*
X28650347Y-46974937D01*
X28507000Y-47104210D01*
X28253000Y-47104210D01*
X28109653Y-46974937D01*
X27982565Y-47035786D01*
X27888292Y-46807628D01*
X27653607Y-46572534D01*
X27346821Y-46445145D01*
X27014637Y-46444855D01*
X26788639Y-46538235D01*
X26835000Y-46426310D01*
X26835000Y-46185750D01*
X26676250Y-46027000D01*
X25877000Y-46027000D01*
X25877000Y-46047000D01*
X25623000Y-46047000D01*
X25623000Y-46027000D01*
X24823750Y-46027000D01*
X24665000Y-46185750D01*
X24665000Y-46426310D01*
X24761673Y-46659699D01*
X24940302Y-46838327D01*
X24948551Y-46841744D01*
X24827628Y-46891708D01*
X24775417Y-46943828D01*
X24570000Y-46902968D01*
X24498267Y-46917237D01*
X24473607Y-46892534D01*
X24166821Y-46765145D01*
X23834637Y-46764855D01*
X23527628Y-46891708D01*
X23480402Y-46938852D01*
X23300000Y-46902968D01*
X23237681Y-46915364D01*
X23164930Y-46885155D01*
X22832746Y-46884865D01*
X22525737Y-47011718D01*
X22492983Y-47044415D01*
X22387809Y-46974141D01*
X22030000Y-46902968D01*
X21800658Y-46948587D01*
X21647897Y-46885155D01*
X21315713Y-46884865D01*
X21105550Y-46971702D01*
X20788426Y-46908622D01*
X20587402Y-46707598D01*
X20340840Y-46542851D01*
X20050001Y-46484999D01*
X19810690Y-46484999D01*
X19835000Y-46426310D01*
X19835000Y-46185750D01*
X19676250Y-46027000D01*
X18877000Y-46027000D01*
X18877000Y-46047000D01*
X18623000Y-46047000D01*
X18623000Y-46027000D01*
X17823750Y-46027000D01*
X17665000Y-46185750D01*
X17665000Y-46426310D01*
X17699125Y-46508694D01*
X17667628Y-46521708D01*
X17432534Y-46756393D01*
X17305145Y-47063179D01*
X17305143Y-47065001D01*
X15539803Y-47065001D01*
X15297242Y-46822440D01*
X15400000Y-46822440D01*
X15635317Y-46778162D01*
X15851441Y-46639090D01*
X15996431Y-46426890D01*
X16047440Y-46175000D01*
X16047440Y-46002362D01*
X16094065Y-45955737D01*
X16300000Y-45997440D01*
X17200000Y-45997440D01*
X17435317Y-45953162D01*
X17651441Y-45814090D01*
X17738064Y-45687314D01*
X17823750Y-45773000D01*
X18623000Y-45773000D01*
X18623000Y-45753000D01*
X18877000Y-45753000D01*
X18877000Y-45773000D01*
X19676250Y-45773000D01*
X19835000Y-45614250D01*
X19835000Y-45373690D01*
X19738327Y-45140301D01*
X19559698Y-44961673D01*
X19523253Y-44946577D01*
X19651441Y-44864090D01*
X19796431Y-44651890D01*
X19847440Y-44400000D01*
X19847440Y-43750000D01*
X20852560Y-43750000D01*
X20852560Y-44250000D01*
X20896838Y-44485317D01*
X21035910Y-44701441D01*
X21105711Y-44749134D01*
X21048559Y-44785910D01*
X20903569Y-44998110D01*
X20852560Y-45250000D01*
X20852560Y-45750000D01*
X20896838Y-45985317D01*
X21035910Y-46201441D01*
X21248110Y-46346431D01*
X21500000Y-46397440D01*
X22400000Y-46397440D01*
X22635317Y-46353162D01*
X22851441Y-46214090D01*
X22996431Y-46001890D01*
X23012578Y-45922153D01*
X23048110Y-45946431D01*
X23300000Y-45997440D01*
X24200000Y-45997440D01*
X24435317Y-45953162D01*
X24651441Y-45814090D01*
X24738064Y-45687314D01*
X24823750Y-45773000D01*
X25623000Y-45773000D01*
X25623000Y-45753000D01*
X25877000Y-45753000D01*
X25877000Y-45773000D01*
X26676250Y-45773000D01*
X26835000Y-45614250D01*
X26835000Y-45373690D01*
X26738327Y-45140301D01*
X26559698Y-44961673D01*
X26523253Y-44946577D01*
X26651441Y-44864090D01*
X26796431Y-44651890D01*
X26847440Y-44400000D01*
X26847440Y-43600000D01*
X26803162Y-43364683D01*
X26664090Y-43148559D01*
X26510000Y-43043274D01*
X26510000Y-42775000D01*
X26452148Y-42484161D01*
X26347440Y-42327454D01*
X26347440Y-41825000D01*
X26303162Y-41589683D01*
X26164090Y-41373559D01*
X26144246Y-41360000D01*
X26326309Y-41360000D01*
X26559698Y-41263327D01*
X26738327Y-41084699D01*
X26835000Y-40851310D01*
X26835000Y-40610750D01*
X26676250Y-40452000D01*
X25877000Y-40452000D01*
X25877000Y-40472000D01*
X25623000Y-40472000D01*
X25623000Y-40452000D01*
X24823750Y-40452000D01*
X24665000Y-40610750D01*
X24665000Y-40851310D01*
X24761673Y-41084699D01*
X24924603Y-41247629D01*
X24748559Y-41360910D01*
X24700866Y-41430711D01*
X24664090Y-41373559D01*
X24451890Y-41228569D01*
X24200000Y-41177560D01*
X23700000Y-41177560D01*
X23464683Y-41221838D01*
X23248559Y-41360910D01*
X23103569Y-41573110D01*
X23052560Y-41825000D01*
X23052560Y-42262171D01*
X23020173Y-42424990D01*
X23052560Y-42587809D01*
X23052560Y-42725000D01*
X23096838Y-42960317D01*
X23221701Y-43154359D01*
X23247852Y-43285829D01*
X23412599Y-43532391D01*
X23442178Y-43561970D01*
X23516718Y-43742372D01*
X23676627Y-43902560D01*
X23300000Y-43902560D01*
X23064683Y-43946838D01*
X23047440Y-43957934D01*
X23047440Y-43750000D01*
X23003162Y-43514683D01*
X22864090Y-43298559D01*
X22734992Y-43210350D01*
X22735145Y-43034637D01*
X22608292Y-42727628D01*
X22373607Y-42492534D01*
X22066821Y-42365145D01*
X21734637Y-42364855D01*
X21427628Y-42491708D01*
X21192534Y-42726393D01*
X21065145Y-43033179D01*
X21064934Y-43275373D01*
X21048559Y-43285910D01*
X20903569Y-43498110D01*
X20852560Y-43750000D01*
X19847440Y-43750000D01*
X19847440Y-43600000D01*
X19803162Y-43364683D01*
X19664090Y-43148559D01*
X19510000Y-43043274D01*
X19510000Y-42750000D01*
X19452148Y-42459161D01*
X19347440Y-42302454D01*
X19347440Y-41800000D01*
X19303162Y-41564683D01*
X19171452Y-41360000D01*
X19326309Y-41360000D01*
X19559698Y-41263327D01*
X19738327Y-41084699D01*
X19835000Y-40851310D01*
X19835000Y-40610750D01*
X19676250Y-40452000D01*
X18877000Y-40452000D01*
X18877000Y-40472000D01*
X18623000Y-40472000D01*
X18623000Y-40452000D01*
X17823750Y-40452000D01*
X17665000Y-40610750D01*
X17665000Y-40851310D01*
X17761673Y-41084699D01*
X17909392Y-41232417D01*
X17748559Y-41335910D01*
X17700866Y-41405711D01*
X17664090Y-41348559D01*
X17451890Y-41203569D01*
X17200000Y-41152560D01*
X16700000Y-41152560D01*
X16464683Y-41196838D01*
X16248559Y-41335910D01*
X16103569Y-41548110D01*
X16052560Y-41800000D01*
X16052560Y-42700000D01*
X16096838Y-42935317D01*
X16164546Y-43040538D01*
X16155145Y-43063179D01*
X16154855Y-43395363D01*
X16281708Y-43702372D01*
X16481548Y-43902560D01*
X16300000Y-43902560D01*
X16064683Y-43946838D01*
X16011007Y-43981377D01*
X16003162Y-43939683D01*
X15864090Y-43723559D01*
X15651890Y-43578569D01*
X15400000Y-43527560D01*
X14500000Y-43527560D01*
X14433887Y-43540000D01*
X14247091Y-43540000D01*
X14066821Y-43465145D01*
X13734637Y-43464855D01*
X13660000Y-43495694D01*
X13660000Y-42750000D01*
X13602148Y-42459161D01*
X13437401Y-42212599D01*
X12587401Y-41362599D01*
X12426304Y-41254958D01*
X12541476Y-40976890D01*
X12420155Y-40747000D01*
X11227000Y-40747000D01*
X11227000Y-40767000D01*
X10973000Y-40767000D01*
X10973000Y-40747000D01*
X10953000Y-40747000D01*
X10953000Y-40493000D01*
X10973000Y-40493000D01*
X10973000Y-40473000D01*
X11227000Y-40473000D01*
X11227000Y-40493000D01*
X12420155Y-40493000D01*
X12541476Y-40263110D01*
X12371645Y-39853076D01*
X11981358Y-39424817D01*
X11838447Y-39357702D01*
X12179147Y-39130054D01*
X12501054Y-38648285D01*
X12537486Y-38465129D01*
X13022640Y-38465129D01*
X13015145Y-38483179D01*
X13014855Y-38815363D01*
X13141708Y-39122372D01*
X13376393Y-39357466D01*
X13683179Y-39484855D01*
X13997847Y-39485130D01*
X13903569Y-39623110D01*
X13852560Y-39875000D01*
X13852560Y-40375000D01*
X13896838Y-40610317D01*
X14035910Y-40826441D01*
X14248110Y-40971431D01*
X14500000Y-41022440D01*
X15400000Y-41022440D01*
X15635317Y-40978162D01*
X15851441Y-40839090D01*
X15996431Y-40626890D01*
X16047440Y-40375000D01*
X16047440Y-40370973D01*
X16048110Y-40371431D01*
X16300000Y-40422440D01*
X17200000Y-40422440D01*
X17435317Y-40378162D01*
X17651441Y-40239090D01*
X17738064Y-40112314D01*
X17823750Y-40198000D01*
X18623000Y-40198000D01*
X18623000Y-40185013D01*
X18877000Y-40185013D01*
X18877000Y-40198000D01*
X19676250Y-40198000D01*
X19689237Y-40185013D01*
X21002560Y-40185013D01*
X21002560Y-40375000D01*
X21046838Y-40610317D01*
X21185910Y-40826441D01*
X21398110Y-40971431D01*
X21650000Y-41022440D01*
X22550000Y-41022440D01*
X22785317Y-40978162D01*
X22930095Y-40885000D01*
X23619864Y-40885000D01*
X23645000Y-40890000D01*
X23935839Y-40832148D01*
X24182401Y-40667401D01*
X24287401Y-40562401D01*
X24406938Y-40383502D01*
X24435317Y-40378162D01*
X24651441Y-40239090D01*
X24738064Y-40112314D01*
X24823750Y-40198000D01*
X25623000Y-40198000D01*
X25623000Y-40178000D01*
X25877000Y-40178000D01*
X25877000Y-40198000D01*
X26676250Y-40198000D01*
X26835000Y-40039250D01*
X26835000Y-39798690D01*
X26738327Y-39565301D01*
X26559698Y-39386673D01*
X26523253Y-39371577D01*
X26651441Y-39289090D01*
X26796431Y-39076890D01*
X26847440Y-38825000D01*
X26847440Y-38025000D01*
X26803162Y-37789683D01*
X26664090Y-37573559D01*
X26510000Y-37468274D01*
X26510000Y-37150000D01*
X26452148Y-36859161D01*
X26287440Y-36612657D01*
X26287440Y-36340000D01*
X26243162Y-36104683D01*
X26166148Y-35985000D01*
X26326309Y-35985000D01*
X26559698Y-35888327D01*
X26738327Y-35709699D01*
X26835000Y-35476310D01*
X26835000Y-35235750D01*
X26676250Y-35077000D01*
X25877000Y-35077000D01*
X25877000Y-35097000D01*
X25623000Y-35097000D01*
X25623000Y-35077000D01*
X24823750Y-35077000D01*
X24665000Y-35235750D01*
X24665000Y-35476310D01*
X24761673Y-35709699D01*
X24834180Y-35782206D01*
X24688559Y-35875910D01*
X24640866Y-35945711D01*
X24604090Y-35888559D01*
X24391890Y-35743569D01*
X24140000Y-35692560D01*
X23640000Y-35692560D01*
X23404683Y-35736838D01*
X23188559Y-35875910D01*
X23043569Y-36088110D01*
X22992560Y-36340000D01*
X22992560Y-36715765D01*
X22940000Y-36980000D01*
X22940000Y-37572909D01*
X22865145Y-37753179D01*
X22865092Y-37813978D01*
X22859339Y-37817822D01*
X22801890Y-37778569D01*
X22762195Y-37770531D01*
X22690839Y-37722852D01*
X22400000Y-37665000D01*
X22014802Y-37665000D01*
X19832397Y-35482595D01*
X19835000Y-35476310D01*
X19835000Y-35235750D01*
X19676250Y-35077000D01*
X18877000Y-35077000D01*
X18877000Y-35097000D01*
X18623000Y-35097000D01*
X18623000Y-35077000D01*
X17823750Y-35077000D01*
X17780750Y-35120000D01*
X16147440Y-35120000D01*
X16147440Y-35016546D01*
X16300000Y-35047440D01*
X17200000Y-35047440D01*
X17435317Y-35003162D01*
X17651441Y-34864090D01*
X17738064Y-34737314D01*
X17823750Y-34823000D01*
X18623000Y-34823000D01*
X18623000Y-34803000D01*
X18877000Y-34803000D01*
X18877000Y-34823000D01*
X19676250Y-34823000D01*
X19835000Y-34664250D01*
X19835000Y-34423690D01*
X19738327Y-34190301D01*
X19559698Y-34011673D01*
X19523253Y-33996577D01*
X19651441Y-33914090D01*
X19796431Y-33701890D01*
X19847440Y-33450000D01*
X19847440Y-32650000D01*
X19803162Y-32414683D01*
X19664090Y-32198559D01*
X19451890Y-32053569D01*
X19335000Y-32029898D01*
X19335000Y-31511431D01*
X19347440Y-31450000D01*
X19347440Y-30550000D01*
X19303162Y-30314683D01*
X19164090Y-30098559D01*
X18951890Y-29953569D01*
X18700000Y-29902560D01*
X18200000Y-29902560D01*
X17964683Y-29946838D01*
X17748559Y-30085910D01*
X17700866Y-30155711D01*
X17664090Y-30098559D01*
X17451890Y-29953569D01*
X17200000Y-29902560D01*
X16700000Y-29902560D01*
X16464683Y-29946838D01*
X16248559Y-30085910D01*
X16103569Y-30298110D01*
X16052560Y-30550000D01*
X16052560Y-31450000D01*
X16096838Y-31685317D01*
X16190000Y-31830095D01*
X16190000Y-32190212D01*
X16161764Y-32258212D01*
X16161474Y-32590396D01*
X16288327Y-32897405D01*
X16343386Y-32952560D01*
X16300000Y-32952560D01*
X16116776Y-32987036D01*
X16103162Y-32914683D01*
X15964090Y-32698559D01*
X15810000Y-32593274D01*
X15810000Y-29227969D01*
X15752148Y-28937130D01*
X15587401Y-28690568D01*
X15549942Y-28653109D01*
X15613372Y-28589789D01*
X16607890Y-28589789D01*
X16841087Y-29154169D01*
X17272512Y-29586349D01*
X17836485Y-29820531D01*
X18447146Y-29821063D01*
X19011526Y-29587866D01*
X19443706Y-29156441D01*
X19677888Y-28592468D01*
X19678420Y-27981807D01*
X19445223Y-27417427D01*
X19013798Y-26985247D01*
X18449825Y-26751065D01*
X17839164Y-26750533D01*
X17274784Y-26983730D01*
X16842604Y-27415155D01*
X16608422Y-27979128D01*
X16607890Y-28589789D01*
X15613372Y-28589789D01*
X15864165Y-28339434D01*
X16098347Y-27775461D01*
X16098879Y-27164800D01*
X15865682Y-26600420D01*
X15434257Y-26168240D01*
X14870284Y-25934058D01*
X14259623Y-25933526D01*
X14210010Y-25954026D01*
X14210010Y-25235750D01*
X16665000Y-25235750D01*
X16665000Y-25476310D01*
X16761673Y-25709699D01*
X16940302Y-25888327D01*
X17173691Y-25985000D01*
X17464250Y-25985000D01*
X17623000Y-25826250D01*
X17623000Y-25077000D01*
X17877000Y-25077000D01*
X17877000Y-25826250D01*
X18035750Y-25985000D01*
X18326309Y-25985000D01*
X18559698Y-25888327D01*
X18738327Y-25709699D01*
X18835000Y-25476310D01*
X18835000Y-25235750D01*
X18676250Y-25077000D01*
X17877000Y-25077000D01*
X17623000Y-25077000D01*
X16823750Y-25077000D01*
X16665000Y-25235750D01*
X14210010Y-25235750D01*
X14210010Y-24635892D01*
X14296978Y-24635968D01*
X14603987Y-24509115D01*
X14662164Y-24451039D01*
X14696838Y-24635317D01*
G36*
X763316Y-45739090D02*
X822434Y-45827566D01*
X4509701Y-49514833D01*
X4227675Y-49514587D01*
X3350771Y-49876916D01*
X2679274Y-50547242D01*
X2315415Y-51423513D01*
X2314587Y-52372325D01*
X2676916Y-53249229D01*
X3347242Y-53920726D01*
X4223513Y-54284585D01*
X5172325Y-54285413D01*
X6049229Y-53923084D01*
X6720726Y-53252758D01*
X7084585Y-52376487D01*
X7084835Y-52089968D01*
X7497434Y-52502567D01*
X7865655Y-52748604D01*
X8300000Y-52835000D01*
X8793156Y-52835000D01*
X8802482Y-52849492D01*
X8761673Y-52890301D01*
X8665000Y-53123690D01*
X8665000Y-53714250D01*
X8823750Y-53873000D01*
X10173000Y-53873000D01*
X10173000Y-53853000D01*
X10427000Y-53853000D01*
X10427000Y-53873000D01*
X11776250Y-53873000D01*
X11935000Y-53714250D01*
X11935000Y-53123690D01*
X11838327Y-52890301D01*
X11796366Y-52848340D01*
X11805481Y-52835000D01*
X14952560Y-52835000D01*
X14952560Y-53600000D01*
X14996838Y-53835317D01*
X15135910Y-54051441D01*
X15348110Y-54196431D01*
X15600000Y-54247440D01*
X16995861Y-54247440D01*
X17699197Y-54950776D01*
X17699199Y-54950779D01*
X17986314Y-55142622D01*
X18033621Y-55152032D01*
X18324989Y-55209990D01*
X18324994Y-55209989D01*
X18566528Y-55209989D01*
X18567127Y-55213000D01*
X11735025Y-55213000D01*
X11838327Y-55109699D01*
X11935000Y-54876310D01*
X11935000Y-54285750D01*
X11776250Y-54127000D01*
X10427000Y-54127000D01*
X10427000Y-54147000D01*
X10173000Y-54147000D01*
X10173000Y-54127000D01*
X8823750Y-54127000D01*
X8665000Y-54285750D01*
X8665000Y-54876310D01*
X8761673Y-55109699D01*
X8864975Y-55213000D01*
X756630Y-55213000D01*
X728890Y-45687568D01*
X763316Y-45739090D01*
X763316Y-45739090D01*
G37*
X763316Y-45739090D02*
X822434Y-45827566D01*
X4509701Y-49514833D01*
X4227675Y-49514587D01*
X3350771Y-49876916D01*
X2679274Y-50547242D01*
X2315415Y-51423513D01*
X2314587Y-52372325D01*
X2676916Y-53249229D01*
X3347242Y-53920726D01*
X4223513Y-54284585D01*
X5172325Y-54285413D01*
X6049229Y-53923084D01*
X6720726Y-53252758D01*
X7084585Y-52376487D01*
X7084835Y-52089968D01*
X7497434Y-52502567D01*
X7865655Y-52748604D01*
X8300000Y-52835000D01*
X8793156Y-52835000D01*
X8802482Y-52849492D01*
X8761673Y-52890301D01*
X8665000Y-53123690D01*
X8665000Y-53714250D01*
X8823750Y-53873000D01*
X10173000Y-53873000D01*
X10173000Y-53853000D01*
X10427000Y-53853000D01*
X10427000Y-53873000D01*
X11776250Y-53873000D01*
X11935000Y-53714250D01*
X11935000Y-53123690D01*
X11838327Y-52890301D01*
X11796366Y-52848340D01*
X11805481Y-52835000D01*
X14952560Y-52835000D01*
X14952560Y-53600000D01*
X14996838Y-53835317D01*
X15135910Y-54051441D01*
X15348110Y-54196431D01*
X15600000Y-54247440D01*
X16995861Y-54247440D01*
X17699197Y-54950776D01*
X17699199Y-54950779D01*
X17986314Y-55142622D01*
X18033621Y-55152032D01*
X18324989Y-55209990D01*
X18324994Y-55209989D01*
X18566528Y-55209989D01*
X18567127Y-55213000D01*
X11735025Y-55213000D01*
X11838327Y-55109699D01*
X11935000Y-54876310D01*
X11935000Y-54285750D01*
X11776250Y-54127000D01*
X10427000Y-54127000D01*
X10427000Y-54147000D01*
X10173000Y-54147000D01*
X10173000Y-54127000D01*
X8823750Y-54127000D01*
X8665000Y-54285750D01*
X8665000Y-54876310D01*
X8761673Y-55109699D01*
X8864975Y-55213000D01*
X756630Y-55213000D01*
X728890Y-45687568D01*
X763316Y-45739090D01*
G36*
X23427000Y-54293000D02*
X23447000Y-54293000D01*
X23447000Y-54547000D01*
X23427000Y-54547000D01*
X23427000Y-54567000D01*
X23173000Y-54567000D01*
X23173000Y-54547000D01*
X23153000Y-54547000D01*
X23153000Y-54293000D01*
X23173000Y-54293000D01*
X23173000Y-54273000D01*
X23427000Y-54273000D01*
X23427000Y-54293000D01*
X23427000Y-54293000D01*
G37*
X23427000Y-54293000D02*
X23447000Y-54293000D01*
X23447000Y-54547000D01*
X23427000Y-54547000D01*
X23427000Y-54567000D01*
X23173000Y-54567000D01*
X23173000Y-54547000D01*
X23153000Y-54547000D01*
X23153000Y-54293000D01*
X23173000Y-54293000D01*
X23173000Y-54273000D01*
X23427000Y-54273000D01*
X23427000Y-54293000D01*
G36*
X7702599Y-33537401D02*
X7949160Y-33702148D01*
X8240000Y-33760000D01*
X9602560Y-33760000D01*
X9602560Y-33850000D01*
X9646838Y-34085317D01*
X9785910Y-34301441D01*
X9998110Y-34446431D01*
X10065541Y-34460086D01*
X10020853Y-34489946D01*
X9698946Y-34971715D01*
X9585907Y-35540000D01*
X9698946Y-36108285D01*
X10020853Y-36590054D01*
X10350026Y-36810000D01*
X10020853Y-37029946D01*
X9698946Y-37511715D01*
X9585907Y-38080000D01*
X9698946Y-38648285D01*
X10020853Y-39130054D01*
X10361553Y-39357702D01*
X10218642Y-39424817D01*
X9828355Y-39853076D01*
X9733442Y-40082230D01*
X4530011Y-34878799D01*
X4530011Y-30364813D01*
X7702599Y-33537401D01*
X7702599Y-33537401D01*
G37*
X7702599Y-33537401D02*
X7949160Y-33702148D01*
X8240000Y-33760000D01*
X9602560Y-33760000D01*
X9602560Y-33850000D01*
X9646838Y-34085317D01*
X9785910Y-34301441D01*
X9998110Y-34446431D01*
X10065541Y-34460086D01*
X10020853Y-34489946D01*
X9698946Y-34971715D01*
X9585907Y-35540000D01*
X9698946Y-36108285D01*
X10020853Y-36590054D01*
X10350026Y-36810000D01*
X10020853Y-37029946D01*
X9698946Y-37511715D01*
X9585907Y-38080000D01*
X9698946Y-38648285D01*
X10020853Y-39130054D01*
X10361553Y-39357702D01*
X10218642Y-39424817D01*
X9828355Y-39853076D01*
X9733442Y-40082230D01*
X4530011Y-34878799D01*
X4530011Y-30364813D01*
X7702599Y-33537401D01*
G36*
X30298110Y-15046431D02*
X30550000Y-15097440D01*
X31229274Y-15097440D01*
X31247852Y-15190839D01*
X31412599Y-15437401D01*
X31952560Y-15977362D01*
X31952560Y-16040681D01*
X31751890Y-15903569D01*
X31500000Y-15852560D01*
X30600000Y-15852560D01*
X30364683Y-15896838D01*
X30148559Y-16035910D01*
X30003569Y-16248110D01*
X29952560Y-16500000D01*
X29952560Y-17300000D01*
X29996838Y-17535317D01*
X30135910Y-17751441D01*
X30348110Y-17896431D01*
X30600000Y-17947440D01*
X31500000Y-17947440D01*
X31735317Y-17903162D01*
X31951441Y-17764090D01*
X32022563Y-17660000D01*
X32060750Y-17660000D01*
X32123750Y-17723000D01*
X32923000Y-17723000D01*
X32923000Y-17703000D01*
X33177000Y-17703000D01*
X33177000Y-17723000D01*
X33197000Y-17723000D01*
X33197000Y-17977000D01*
X33177000Y-17977000D01*
X33177000Y-18726250D01*
X33335750Y-18885000D01*
X33626309Y-18885000D01*
X33859698Y-18788327D01*
X33948246Y-18699779D01*
X33964990Y-18740303D01*
X34357630Y-19133629D01*
X34870900Y-19346757D01*
X35426661Y-19347242D01*
X35940303Y-19135010D01*
X36290000Y-18785923D01*
X36290000Y-19993573D01*
X36213890Y-19941569D01*
X35962000Y-19890560D01*
X34438000Y-19890560D01*
X34202683Y-19934838D01*
X33986559Y-20073910D01*
X33841569Y-20286110D01*
X33833197Y-20327451D01*
X33651890Y-20203569D01*
X33400000Y-20152560D01*
X32500000Y-20152560D01*
X32264683Y-20196838D01*
X32048559Y-20335910D01*
X31984297Y-20429961D01*
X31964090Y-20398559D01*
X31751890Y-20253569D01*
X31500000Y-20202560D01*
X30600000Y-20202560D01*
X30364683Y-20246838D01*
X30148559Y-20385910D01*
X30003569Y-20598110D01*
X29952560Y-20850000D01*
X29952560Y-21350000D01*
X29996838Y-21585317D01*
X30135910Y-21801441D01*
X30205711Y-21849134D01*
X30148559Y-21885910D01*
X30003569Y-22098110D01*
X29952560Y-22350000D01*
X29952560Y-22738662D01*
X29889147Y-22764864D01*
X29646592Y-23006996D01*
X29515160Y-23323519D01*
X29514861Y-23666245D01*
X29645740Y-23982997D01*
X29887872Y-24225552D01*
X30200968Y-24355561D01*
X30103569Y-24498110D01*
X30052560Y-24750000D01*
X30052560Y-25550000D01*
X30096838Y-25785317D01*
X30235910Y-26001441D01*
X30448110Y-26146431D01*
X30700000Y-26197440D01*
X31600000Y-26197440D01*
X31835317Y-26153162D01*
X32051441Y-26014090D01*
X32071317Y-25985000D01*
X33297000Y-25985000D01*
X33297000Y-26227000D01*
X33277000Y-26227000D01*
X33277000Y-26976250D01*
X33435750Y-27135000D01*
X33726309Y-27135000D01*
X33959698Y-27038327D01*
X33983627Y-27014398D01*
X34014990Y-27090303D01*
X34407630Y-27483629D01*
X34920900Y-27696757D01*
X35476661Y-27697242D01*
X35990303Y-27485010D01*
X36290000Y-27185836D01*
X36290000Y-31502560D01*
X34650000Y-31502560D01*
X34414683Y-31546838D01*
X34198559Y-31685910D01*
X34053569Y-31898110D01*
X34002560Y-32150000D01*
X34002560Y-32369080D01*
X33862599Y-32462599D01*
X33377087Y-32948111D01*
X33212340Y-33194673D01*
X33208960Y-33211665D01*
X33181891Y-33075582D01*
X32990048Y-32788467D01*
X32981500Y-32782755D01*
X32975790Y-32774210D01*
X32785000Y-32646729D01*
X32785000Y-32485750D01*
X32626250Y-32327000D01*
X31877000Y-32327000D01*
X31877000Y-32347000D01*
X31623000Y-32347000D01*
X31623000Y-32327000D01*
X31603000Y-32327000D01*
X31603000Y-32073000D01*
X31623000Y-32073000D01*
X31623000Y-30627000D01*
X31877000Y-30627000D01*
X31877000Y-32073000D01*
X32626250Y-32073000D01*
X32785000Y-31914250D01*
X32785000Y-31698690D01*
X32688327Y-31465301D01*
X32573025Y-31350000D01*
X32688327Y-31234699D01*
X32785000Y-31001310D01*
X32785000Y-30785750D01*
X32626250Y-30627000D01*
X31877000Y-30627000D01*
X31623000Y-30627000D01*
X31603000Y-30627000D01*
X31603000Y-30373000D01*
X31623000Y-30373000D01*
X31623000Y-29648750D01*
X31877000Y-29648750D01*
X31877000Y-30373000D01*
X32626250Y-30373000D01*
X32785000Y-30214250D01*
X32785000Y-29998690D01*
X32688327Y-29765301D01*
X32509698Y-29586673D01*
X32276309Y-29490000D01*
X32035750Y-29490000D01*
X31877000Y-29648750D01*
X31623000Y-29648750D01*
X31464250Y-29490000D01*
X31385000Y-29490000D01*
X31385000Y-29125000D01*
X31377521Y-29087401D01*
X31298604Y-28690655D01*
X31052567Y-28322434D01*
X29115883Y-26385750D01*
X32065000Y-26385750D01*
X32065000Y-26626310D01*
X32161673Y-26859699D01*
X32340302Y-27038327D01*
X32573691Y-27135000D01*
X32864250Y-27135000D01*
X33023000Y-26976250D01*
X33023000Y-26227000D01*
X32223750Y-26227000D01*
X32065000Y-26385750D01*
X29115883Y-26385750D01*
X28985000Y-26254868D01*
X28985000Y-19450991D01*
X28985197Y-19225225D01*
X28812767Y-18807914D01*
X28493765Y-18488355D01*
X28076756Y-18315197D01*
X27721210Y-18314887D01*
X27721366Y-18135750D01*
X31965000Y-18135750D01*
X31965000Y-18376310D01*
X32061673Y-18609699D01*
X32240302Y-18788327D01*
X32473691Y-18885000D01*
X32764250Y-18885000D01*
X32923000Y-18726250D01*
X32923000Y-17977000D01*
X32123750Y-17977000D01*
X31965000Y-18135750D01*
X27721366Y-18135750D01*
X27721575Y-17896009D01*
X27488378Y-17331629D01*
X27056953Y-16899449D01*
X26839115Y-16808995D01*
X28688110Y-14960000D01*
X30171614Y-14960000D01*
X30298110Y-15046431D01*
X30298110Y-15046431D01*
G37*
X30298110Y-15046431D02*
X30550000Y-15097440D01*
X31229274Y-15097440D01*
X31247852Y-15190839D01*
X31412599Y-15437401D01*
X31952560Y-15977362D01*
X31952560Y-16040681D01*
X31751890Y-15903569D01*
X31500000Y-15852560D01*
X30600000Y-15852560D01*
X30364683Y-15896838D01*
X30148559Y-16035910D01*
X30003569Y-16248110D01*
X29952560Y-16500000D01*
X29952560Y-17300000D01*
X29996838Y-17535317D01*
X30135910Y-17751441D01*
X30348110Y-17896431D01*
X30600000Y-17947440D01*
X31500000Y-17947440D01*
X31735317Y-17903162D01*
X31951441Y-17764090D01*
X32022563Y-17660000D01*
X32060750Y-17660000D01*
X32123750Y-17723000D01*
X32923000Y-17723000D01*
X32923000Y-17703000D01*
X33177000Y-17703000D01*
X33177000Y-17723000D01*
X33197000Y-17723000D01*
X33197000Y-17977000D01*
X33177000Y-17977000D01*
X33177000Y-18726250D01*
X33335750Y-18885000D01*
X33626309Y-18885000D01*
X33859698Y-18788327D01*
X33948246Y-18699779D01*
X33964990Y-18740303D01*
X34357630Y-19133629D01*
X34870900Y-19346757D01*
X35426661Y-19347242D01*
X35940303Y-19135010D01*
X36290000Y-18785923D01*
X36290000Y-19993573D01*
X36213890Y-19941569D01*
X35962000Y-19890560D01*
X34438000Y-19890560D01*
X34202683Y-19934838D01*
X33986559Y-20073910D01*
X33841569Y-20286110D01*
X33833197Y-20327451D01*
X33651890Y-20203569D01*
X33400000Y-20152560D01*
X32500000Y-20152560D01*
X32264683Y-20196838D01*
X32048559Y-20335910D01*
X31984297Y-20429961D01*
X31964090Y-20398559D01*
X31751890Y-20253569D01*
X31500000Y-20202560D01*
X30600000Y-20202560D01*
X30364683Y-20246838D01*
X30148559Y-20385910D01*
X30003569Y-20598110D01*
X29952560Y-20850000D01*
X29952560Y-21350000D01*
X29996838Y-21585317D01*
X30135910Y-21801441D01*
X30205711Y-21849134D01*
X30148559Y-21885910D01*
X30003569Y-22098110D01*
X29952560Y-22350000D01*
X29952560Y-22738662D01*
X29889147Y-22764864D01*
X29646592Y-23006996D01*
X29515160Y-23323519D01*
X29514861Y-23666245D01*
X29645740Y-23982997D01*
X29887872Y-24225552D01*
X30200968Y-24355561D01*
X30103569Y-24498110D01*
X30052560Y-24750000D01*
X30052560Y-25550000D01*
X30096838Y-25785317D01*
X30235910Y-26001441D01*
X30448110Y-26146431D01*
X30700000Y-26197440D01*
X31600000Y-26197440D01*
X31835317Y-26153162D01*
X32051441Y-26014090D01*
X32071317Y-25985000D01*
X33297000Y-25985000D01*
X33297000Y-26227000D01*
X33277000Y-26227000D01*
X33277000Y-26976250D01*
X33435750Y-27135000D01*
X33726309Y-27135000D01*
X33959698Y-27038327D01*
X33983627Y-27014398D01*
X34014990Y-27090303D01*
X34407630Y-27483629D01*
X34920900Y-27696757D01*
X35476661Y-27697242D01*
X35990303Y-27485010D01*
X36290000Y-27185836D01*
X36290000Y-31502560D01*
X34650000Y-31502560D01*
X34414683Y-31546838D01*
X34198559Y-31685910D01*
X34053569Y-31898110D01*
X34002560Y-32150000D01*
X34002560Y-32369080D01*
X33862599Y-32462599D01*
X33377087Y-32948111D01*
X33212340Y-33194673D01*
X33208960Y-33211665D01*
X33181891Y-33075582D01*
X32990048Y-32788467D01*
X32981500Y-32782755D01*
X32975790Y-32774210D01*
X32785000Y-32646729D01*
X32785000Y-32485750D01*
X32626250Y-32327000D01*
X31877000Y-32327000D01*
X31877000Y-32347000D01*
X31623000Y-32347000D01*
X31623000Y-32327000D01*
X31603000Y-32327000D01*
X31603000Y-32073000D01*
X31623000Y-32073000D01*
X31623000Y-30627000D01*
X31877000Y-30627000D01*
X31877000Y-32073000D01*
X32626250Y-32073000D01*
X32785000Y-31914250D01*
X32785000Y-31698690D01*
X32688327Y-31465301D01*
X32573025Y-31350000D01*
X32688327Y-31234699D01*
X32785000Y-31001310D01*
X32785000Y-30785750D01*
X32626250Y-30627000D01*
X31877000Y-30627000D01*
X31623000Y-30627000D01*
X31603000Y-30627000D01*
X31603000Y-30373000D01*
X31623000Y-30373000D01*
X31623000Y-29648750D01*
X31877000Y-29648750D01*
X31877000Y-30373000D01*
X32626250Y-30373000D01*
X32785000Y-30214250D01*
X32785000Y-29998690D01*
X32688327Y-29765301D01*
X32509698Y-29586673D01*
X32276309Y-29490000D01*
X32035750Y-29490000D01*
X31877000Y-29648750D01*
X31623000Y-29648750D01*
X31464250Y-29490000D01*
X31385000Y-29490000D01*
X31385000Y-29125000D01*
X31377521Y-29087401D01*
X31298604Y-28690655D01*
X31052567Y-28322434D01*
X29115883Y-26385750D01*
X32065000Y-26385750D01*
X32065000Y-26626310D01*
X32161673Y-26859699D01*
X32340302Y-27038327D01*
X32573691Y-27135000D01*
X32864250Y-27135000D01*
X33023000Y-26976250D01*
X33023000Y-26227000D01*
X32223750Y-26227000D01*
X32065000Y-26385750D01*
X29115883Y-26385750D01*
X28985000Y-26254868D01*
X28985000Y-19450991D01*
X28985197Y-19225225D01*
X28812767Y-18807914D01*
X28493765Y-18488355D01*
X28076756Y-18315197D01*
X27721210Y-18314887D01*
X27721366Y-18135750D01*
X31965000Y-18135750D01*
X31965000Y-18376310D01*
X32061673Y-18609699D01*
X32240302Y-18788327D01*
X32473691Y-18885000D01*
X32764250Y-18885000D01*
X32923000Y-18726250D01*
X32923000Y-17977000D01*
X32123750Y-17977000D01*
X31965000Y-18135750D01*
X27721366Y-18135750D01*
X27721575Y-17896009D01*
X27488378Y-17331629D01*
X27056953Y-16899449D01*
X26839115Y-16808995D01*
X28688110Y-14960000D01*
X30171614Y-14960000D01*
X30298110Y-15046431D01*
G36*
X4014855Y-20815363D02*
X4141708Y-21122372D01*
X4376393Y-21357466D01*
X4683179Y-21484855D01*
X5015363Y-21485145D01*
X5322372Y-21358292D01*
X5340696Y-21340000D01*
X6005831Y-21340000D01*
X5904141Y-21492191D01*
X5832968Y-21850000D01*
X5904141Y-22207809D01*
X6089354Y-22485000D01*
X5904141Y-22762191D01*
X5832968Y-23120000D01*
X5904141Y-23477809D01*
X6089354Y-23755000D01*
X5904141Y-24032191D01*
X5832968Y-24390000D01*
X5904141Y-24747809D01*
X6089354Y-25025000D01*
X5904141Y-25302191D01*
X5832968Y-25660000D01*
X5904141Y-26017809D01*
X6089354Y-26295000D01*
X5904141Y-26572191D01*
X5832968Y-26930000D01*
X5904141Y-27287809D01*
X6089354Y-27565000D01*
X5904141Y-27842191D01*
X5832968Y-28200000D01*
X5904141Y-28557809D01*
X6101122Y-28852613D01*
X6049052Y-28898657D01*
X5904937Y-29199653D01*
X6034210Y-29343000D01*
X7373000Y-29343000D01*
X7373000Y-29323000D01*
X7627000Y-29323000D01*
X7627000Y-29343000D01*
X8965790Y-29343000D01*
X9095063Y-29199653D01*
X8950948Y-28898657D01*
X8898878Y-28852613D01*
X9095859Y-28557809D01*
X9167032Y-28200000D01*
X9095859Y-27842191D01*
X9057650Y-27785007D01*
X9215363Y-27785145D01*
X9340000Y-27733646D01*
X9340000Y-29450000D01*
X9397852Y-29740839D01*
X9562599Y-29987401D01*
X11077758Y-31502560D01*
X10250000Y-31502560D01*
X10014683Y-31546838D01*
X9798559Y-31685910D01*
X9653569Y-31898110D01*
X9602560Y-32150000D01*
X9602560Y-32240000D01*
X8554802Y-32240000D01*
X6719802Y-30405000D01*
X7373000Y-30405000D01*
X7373000Y-29597000D01*
X7627000Y-29597000D01*
X7627000Y-30405000D01*
X8327000Y-30405000D01*
X8675142Y-30285227D01*
X8950948Y-30041343D01*
X9095063Y-29740347D01*
X8965790Y-29597000D01*
X7627000Y-29597000D01*
X7373000Y-29597000D01*
X6034210Y-29597000D01*
X5976166Y-29661364D01*
X5046512Y-28731710D01*
X5046512Y-26707091D01*
X5121367Y-26526821D01*
X5121657Y-26194637D01*
X4994804Y-25887628D01*
X4760119Y-25652534D01*
X4521502Y-25553451D01*
X4521502Y-23981502D01*
X4463650Y-23690663D01*
X4298903Y-23444101D01*
X3437401Y-22582599D01*
X3190839Y-22417852D01*
X3115523Y-22402871D01*
X3245859Y-22207809D01*
X3317032Y-21850000D01*
X3305033Y-21789679D01*
X3352872Y-21741924D01*
X3484304Y-21425401D01*
X3484603Y-21082675D01*
X3371832Y-20809748D01*
X3546579Y-20635000D01*
X4015012Y-20635000D01*
X4014855Y-20815363D01*
X4014855Y-20815363D01*
G37*
X4014855Y-20815363D02*
X4141708Y-21122372D01*
X4376393Y-21357466D01*
X4683179Y-21484855D01*
X5015363Y-21485145D01*
X5322372Y-21358292D01*
X5340696Y-21340000D01*
X6005831Y-21340000D01*
X5904141Y-21492191D01*
X5832968Y-21850000D01*
X5904141Y-22207809D01*
X6089354Y-22485000D01*
X5904141Y-22762191D01*
X5832968Y-23120000D01*
X5904141Y-23477809D01*
X6089354Y-23755000D01*
X5904141Y-24032191D01*
X5832968Y-24390000D01*
X5904141Y-24747809D01*
X6089354Y-25025000D01*
X5904141Y-25302191D01*
X5832968Y-25660000D01*
X5904141Y-26017809D01*
X6089354Y-26295000D01*
X5904141Y-26572191D01*
X5832968Y-26930000D01*
X5904141Y-27287809D01*
X6089354Y-27565000D01*
X5904141Y-27842191D01*
X5832968Y-28200000D01*
X5904141Y-28557809D01*
X6101122Y-28852613D01*
X6049052Y-28898657D01*
X5904937Y-29199653D01*
X6034210Y-29343000D01*
X7373000Y-29343000D01*
X7373000Y-29323000D01*
X7627000Y-29323000D01*
X7627000Y-29343000D01*
X8965790Y-29343000D01*
X9095063Y-29199653D01*
X8950948Y-28898657D01*
X8898878Y-28852613D01*
X9095859Y-28557809D01*
X9167032Y-28200000D01*
X9095859Y-27842191D01*
X9057650Y-27785007D01*
X9215363Y-27785145D01*
X9340000Y-27733646D01*
X9340000Y-29450000D01*
X9397852Y-29740839D01*
X9562599Y-29987401D01*
X11077758Y-31502560D01*
X10250000Y-31502560D01*
X10014683Y-31546838D01*
X9798559Y-31685910D01*
X9653569Y-31898110D01*
X9602560Y-32150000D01*
X9602560Y-32240000D01*
X8554802Y-32240000D01*
X6719802Y-30405000D01*
X7373000Y-30405000D01*
X7373000Y-29597000D01*
X7627000Y-29597000D01*
X7627000Y-30405000D01*
X8327000Y-30405000D01*
X8675142Y-30285227D01*
X8950948Y-30041343D01*
X9095063Y-29740347D01*
X8965790Y-29597000D01*
X7627000Y-29597000D01*
X7373000Y-29597000D01*
X6034210Y-29597000D01*
X5976166Y-29661364D01*
X5046512Y-28731710D01*
X5046512Y-26707091D01*
X5121367Y-26526821D01*
X5121657Y-26194637D01*
X4994804Y-25887628D01*
X4760119Y-25652534D01*
X4521502Y-25553451D01*
X4521502Y-23981502D01*
X4463650Y-23690663D01*
X4298903Y-23444101D01*
X3437401Y-22582599D01*
X3190839Y-22417852D01*
X3115523Y-22402871D01*
X3245859Y-22207809D01*
X3317032Y-21850000D01*
X3305033Y-21789679D01*
X3352872Y-21741924D01*
X3484304Y-21425401D01*
X3484603Y-21082675D01*
X3371832Y-20809748D01*
X3546579Y-20635000D01*
X4015012Y-20635000D01*
X4014855Y-20815363D01*
G36*
X1777000Y-24263000D02*
X1797000Y-24263000D01*
X1797000Y-24517000D01*
X1777000Y-24517000D01*
X1777000Y-24537000D01*
X1523000Y-24537000D01*
X1523000Y-24517000D01*
X1503000Y-24517000D01*
X1503000Y-24263000D01*
X1523000Y-24263000D01*
X1523000Y-24243000D01*
X1777000Y-24243000D01*
X1777000Y-24263000D01*
X1777000Y-24263000D01*
G37*
X1777000Y-24263000D02*
X1797000Y-24263000D01*
X1797000Y-24517000D01*
X1777000Y-24517000D01*
X1777000Y-24537000D01*
X1523000Y-24537000D01*
X1523000Y-24517000D01*
X1503000Y-24517000D01*
X1503000Y-24263000D01*
X1523000Y-24263000D01*
X1523000Y-24243000D01*
X1777000Y-24243000D01*
X1777000Y-24263000D01*
G36*
X16723750Y-20823000D02*
X17523000Y-20823000D01*
X17523000Y-20803000D01*
X17777000Y-20803000D01*
X17777000Y-20823000D01*
X17797000Y-20823000D01*
X17797000Y-21077000D01*
X17777000Y-21077000D01*
X17777000Y-21826250D01*
X17935750Y-21985000D01*
X18226309Y-21985000D01*
X18459698Y-21888327D01*
X18638327Y-21709699D01*
X18669091Y-21635428D01*
X18840000Y-21635578D01*
X18840000Y-22171614D01*
X18753569Y-22298110D01*
X18747484Y-22328157D01*
X18664090Y-22198559D01*
X18451890Y-22053569D01*
X18200000Y-22002560D01*
X17300000Y-22002560D01*
X17064683Y-22046838D01*
X16848559Y-22185910D01*
X16777437Y-22290000D01*
X14882438Y-22290000D01*
X14591599Y-22347852D01*
X14345037Y-22512599D01*
X13839645Y-23017991D01*
X13796875Y-23035663D01*
X13760011Y-22998799D01*
X13760011Y-22056376D01*
X13997393Y-21958292D01*
X14232487Y-21723607D01*
X14346787Y-21448342D01*
X14434720Y-21484855D01*
X14766904Y-21485145D01*
X15073913Y-21358292D01*
X15196668Y-21235750D01*
X16565000Y-21235750D01*
X16565000Y-21476310D01*
X16661673Y-21709699D01*
X16840302Y-21888327D01*
X17073691Y-21985000D01*
X17364250Y-21985000D01*
X17523000Y-21826250D01*
X17523000Y-21077000D01*
X16723750Y-21077000D01*
X16565000Y-21235750D01*
X15196668Y-21235750D01*
X15309007Y-21123607D01*
X15340634Y-21047440D01*
X16100000Y-21047440D01*
X16335317Y-21003162D01*
X16551441Y-20864090D01*
X16622563Y-20760000D01*
X16660750Y-20760000D01*
X16723750Y-20823000D01*
X16723750Y-20823000D01*
G37*
X16723750Y-20823000D02*
X17523000Y-20823000D01*
X17523000Y-20803000D01*
X17777000Y-20803000D01*
X17777000Y-20823000D01*
X17797000Y-20823000D01*
X17797000Y-21077000D01*
X17777000Y-21077000D01*
X17777000Y-21826250D01*
X17935750Y-21985000D01*
X18226309Y-21985000D01*
X18459698Y-21888327D01*
X18638327Y-21709699D01*
X18669091Y-21635428D01*
X18840000Y-21635578D01*
X18840000Y-22171614D01*
X18753569Y-22298110D01*
X18747484Y-22328157D01*
X18664090Y-22198559D01*
X18451890Y-22053569D01*
X18200000Y-22002560D01*
X17300000Y-22002560D01*
X17064683Y-22046838D01*
X16848559Y-22185910D01*
X16777437Y-22290000D01*
X14882438Y-22290000D01*
X14591599Y-22347852D01*
X14345037Y-22512599D01*
X13839645Y-23017991D01*
X13796875Y-23035663D01*
X13760011Y-22998799D01*
X13760011Y-22056376D01*
X13997393Y-21958292D01*
X14232487Y-21723607D01*
X14346787Y-21448342D01*
X14434720Y-21484855D01*
X14766904Y-21485145D01*
X15073913Y-21358292D01*
X15196668Y-21235750D01*
X16565000Y-21235750D01*
X16565000Y-21476310D01*
X16661673Y-21709699D01*
X16840302Y-21888327D01*
X17073691Y-21985000D01*
X17364250Y-21985000D01*
X17523000Y-21826250D01*
X17523000Y-21077000D01*
X16723750Y-21077000D01*
X16565000Y-21235750D01*
X15196668Y-21235750D01*
X15309007Y-21123607D01*
X15340634Y-21047440D01*
X16100000Y-21047440D01*
X16335317Y-21003162D01*
X16551441Y-20864090D01*
X16622563Y-20760000D01*
X16660750Y-20760000D01*
X16723750Y-20823000D01*
G36*
X14596838Y-16835317D02*
X14735910Y-17051441D01*
X14948110Y-17196431D01*
X15200000Y-17247440D01*
X16100000Y-17247440D01*
X16335317Y-17203162D01*
X16551441Y-17064090D01*
X16571319Y-17034997D01*
X16740363Y-17035145D01*
X16769756Y-17023000D01*
X17523000Y-17023000D01*
X17523000Y-17003000D01*
X17777000Y-17003000D01*
X17777000Y-17023000D01*
X17797000Y-17023000D01*
X17797000Y-17277000D01*
X17777000Y-17277000D01*
X17777000Y-17290000D01*
X17523000Y-17290000D01*
X17523000Y-17277000D01*
X16723750Y-17277000D01*
X16710750Y-17290000D01*
X16000000Y-17290000D01*
X15709161Y-17347852D01*
X15462599Y-17512599D01*
X14264109Y-18711089D01*
X14264109Y-17110693D01*
X14587755Y-16787047D01*
X14596838Y-16835317D01*
X14596838Y-16835317D01*
G37*
X14596838Y-16835317D02*
X14735910Y-17051441D01*
X14948110Y-17196431D01*
X15200000Y-17247440D01*
X16100000Y-17247440D01*
X16335317Y-17203162D01*
X16551441Y-17064090D01*
X16571319Y-17034997D01*
X16740363Y-17035145D01*
X16769756Y-17023000D01*
X17523000Y-17023000D01*
X17523000Y-17003000D01*
X17777000Y-17003000D01*
X17777000Y-17023000D01*
X17797000Y-17023000D01*
X17797000Y-17277000D01*
X17777000Y-17277000D01*
X17777000Y-17290000D01*
X17523000Y-17290000D01*
X17523000Y-17277000D01*
X16723750Y-17277000D01*
X16710750Y-17290000D01*
X16000000Y-17290000D01*
X15709161Y-17347852D01*
X15462599Y-17512599D01*
X14264109Y-18711089D01*
X14264109Y-17110693D01*
X14587755Y-16787047D01*
X14596838Y-16835317D01*
G36*
X36290000Y-11677736D02*
X36163890Y-11591569D01*
X35912000Y-11540560D01*
X34388000Y-11540560D01*
X34152683Y-11584838D01*
X33936559Y-11723910D01*
X33801475Y-11921612D01*
X33701890Y-11853569D01*
X33450000Y-11802560D01*
X32550000Y-11802560D01*
X32314683Y-11846838D01*
X32098559Y-11985910D01*
X31999367Y-12131083D01*
X31914090Y-11998559D01*
X31701890Y-11853569D01*
X31450000Y-11802560D01*
X30550000Y-11802560D01*
X30314683Y-11846838D01*
X30098559Y-11985910D01*
X29953569Y-12198110D01*
X29902560Y-12450000D01*
X29902560Y-12950000D01*
X29946838Y-13185317D01*
X30085910Y-13401441D01*
X30142343Y-13440000D01*
X28373308Y-13440000D01*
X28082469Y-13497852D01*
X27835907Y-13662599D01*
X26005982Y-15492524D01*
X26127998Y-15198677D01*
X26128530Y-14588016D01*
X25895333Y-14023636D01*
X25463908Y-13591456D01*
X24899935Y-13357274D01*
X24289274Y-13356742D01*
X23724894Y-13589939D01*
X23706027Y-13608773D01*
X23702148Y-13589270D01*
X23537401Y-13342708D01*
X23212462Y-13017769D01*
X23257429Y-12909475D01*
X23257961Y-12298814D01*
X23024764Y-11734434D01*
X22593339Y-11302254D01*
X22029366Y-11068072D01*
X21418705Y-11067540D01*
X20854325Y-11300737D01*
X20422145Y-11732162D01*
X20187963Y-12296135D01*
X20187563Y-12755404D01*
X19632921Y-12200762D01*
X19677888Y-12092468D01*
X19678420Y-11481807D01*
X19445223Y-10917427D01*
X19013798Y-10485247D01*
X18449825Y-10251065D01*
X17839164Y-10250533D01*
X17274784Y-10483730D01*
X16842604Y-10915155D01*
X16608422Y-11479128D01*
X16607890Y-12089789D01*
X16841087Y-12654169D01*
X17272512Y-13086349D01*
X17836485Y-13320531D01*
X18447146Y-13321063D01*
X18557868Y-13275313D01*
X19640000Y-14357445D01*
X19640000Y-14402560D01*
X19350000Y-14402560D01*
X19114683Y-14446838D01*
X18898559Y-14585910D01*
X18753569Y-14798110D01*
X18745331Y-14838791D01*
X18703162Y-14614683D01*
X18564090Y-14398559D01*
X18351890Y-14253569D01*
X18100000Y-14202560D01*
X17200000Y-14202560D01*
X16964683Y-14246838D01*
X16748559Y-14385910D01*
X16677437Y-14490000D01*
X15050000Y-14490000D01*
X14759161Y-14547852D01*
X14512599Y-14712599D01*
X13760011Y-15465187D01*
X13760011Y-14481210D01*
X14148650Y-14092571D01*
X14256944Y-14137538D01*
X14867605Y-14138070D01*
X15431985Y-13904873D01*
X15864165Y-13473448D01*
X16098347Y-12909475D01*
X16098879Y-12298814D01*
X15865682Y-11734434D01*
X15434257Y-11302254D01*
X14870284Y-11068072D01*
X14259623Y-11067540D01*
X13695243Y-11300737D01*
X13263063Y-11732162D01*
X13028881Y-12296135D01*
X13028638Y-12574505D01*
X12750821Y-12459145D01*
X12585522Y-12459001D01*
X12490000Y-12440000D01*
X9897091Y-12440000D01*
X9716821Y-12365145D01*
X9384637Y-12364855D01*
X9077628Y-12491708D01*
X8842534Y-12726393D01*
X8715145Y-13033179D01*
X8714855Y-13365363D01*
X8841708Y-13672372D01*
X9076393Y-13907466D01*
X9383179Y-14034855D01*
X9715363Y-14035145D01*
X9897229Y-13960000D01*
X10453965Y-13960000D01*
X10392494Y-14021364D01*
X10158312Y-14585337D01*
X10157780Y-15195998D01*
X10390977Y-15760378D01*
X10822402Y-16192558D01*
X11386375Y-16426740D01*
X11704749Y-16427017D01*
X11520082Y-16611362D01*
X11388650Y-16927885D01*
X11388351Y-17270611D01*
X11490000Y-17516621D01*
X11490000Y-17544441D01*
X11402068Y-17331629D01*
X10970643Y-16899449D01*
X10406670Y-16665267D01*
X9796009Y-16664735D01*
X9231629Y-16897932D01*
X8947446Y-17181619D01*
X8960000Y-17151310D01*
X8960000Y-16910750D01*
X8801250Y-16752000D01*
X8002000Y-16752000D01*
X8002000Y-16772000D01*
X7748000Y-16772000D01*
X7748000Y-16752000D01*
X6948750Y-16752000D01*
X6790000Y-16910750D01*
X6790000Y-17071690D01*
X6726890Y-17028569D01*
X6635000Y-17009961D01*
X6635000Y-16630105D01*
X6776441Y-16539090D01*
X6863064Y-16412314D01*
X6948750Y-16498000D01*
X7748000Y-16498000D01*
X7748000Y-16478000D01*
X8002000Y-16478000D01*
X8002000Y-16498000D01*
X8801250Y-16498000D01*
X8960000Y-16339250D01*
X8960000Y-16098690D01*
X8863327Y-15865301D01*
X8684698Y-15686673D01*
X8648253Y-15671577D01*
X8776441Y-15589090D01*
X8921431Y-15376890D01*
X8972440Y-15125000D01*
X8972440Y-14325000D01*
X8928162Y-14089683D01*
X8789090Y-13873559D01*
X8635000Y-13768274D01*
X8635000Y-13375000D01*
X8577148Y-13084161D01*
X8572440Y-13077115D01*
X8572440Y-12725000D01*
X8528162Y-12489683D01*
X8389090Y-12273559D01*
X8176890Y-12128569D01*
X7925000Y-12077560D01*
X7425000Y-12077560D01*
X7189683Y-12121838D01*
X6973559Y-12260910D01*
X6925866Y-12330711D01*
X6889090Y-12273559D01*
X6676890Y-12128569D01*
X6425000Y-12077560D01*
X5925000Y-12077560D01*
X5689683Y-12121838D01*
X5473559Y-12260910D01*
X5328569Y-12473110D01*
X5277560Y-12725000D01*
X5277560Y-13625000D01*
X5289063Y-13686135D01*
X4693918Y-14281280D01*
X4653162Y-14064683D01*
X4514090Y-13848559D01*
X4360000Y-13743274D01*
X4360000Y-13450000D01*
X4302148Y-13159161D01*
X4197440Y-13002454D01*
X4197440Y-12700000D01*
X4153162Y-12464683D01*
X4014090Y-12248559D01*
X3801890Y-12103569D01*
X3550000Y-12052560D01*
X3050000Y-12052560D01*
X2814683Y-12096838D01*
X2598559Y-12235910D01*
X2550866Y-12305711D01*
X2514090Y-12248559D01*
X2301890Y-12103569D01*
X2050000Y-12052560D01*
X1550000Y-12052560D01*
X1314683Y-12096838D01*
X1098559Y-12235910D01*
X953569Y-12448110D01*
X902560Y-12700000D01*
X902560Y-13600000D01*
X946838Y-13835317D01*
X1077456Y-14038303D01*
X1097852Y-14140839D01*
X1262599Y-14387401D01*
X1477758Y-14602560D01*
X1150000Y-14602560D01*
X914683Y-14646838D01*
X710000Y-14778548D01*
X710000Y-8172325D01*
X1114587Y-8172325D01*
X1476916Y-9049229D01*
X2147242Y-9720726D01*
X3023513Y-10084585D01*
X3972325Y-10085413D01*
X4849229Y-9723084D01*
X5520726Y-9052758D01*
X5884585Y-8176487D01*
X5885413Y-7227675D01*
X5523084Y-6350771D01*
X5437463Y-6265000D01*
X21020238Y-6265000D01*
X21020238Y-9785000D01*
X26499762Y-9785000D01*
X26499762Y-8172325D01*
X30914587Y-8172325D01*
X31276916Y-9049229D01*
X31947242Y-9720726D01*
X32823513Y-10084585D01*
X33772325Y-10085413D01*
X34649229Y-9723084D01*
X35320726Y-9052758D01*
X35684585Y-8176487D01*
X35685413Y-7227675D01*
X35323084Y-6350771D01*
X34652758Y-5679274D01*
X33776487Y-5315415D01*
X32827675Y-5314587D01*
X31950771Y-5676916D01*
X31279274Y-6347242D01*
X30915415Y-7223513D01*
X30914587Y-8172325D01*
X26499762Y-8172325D01*
X26499762Y-6265000D01*
X21020238Y-6265000D01*
X5437463Y-6265000D01*
X4852758Y-5679274D01*
X3976487Y-5315415D01*
X3027675Y-5314587D01*
X2150771Y-5676916D01*
X1479274Y-6347242D01*
X1115415Y-7223513D01*
X1114587Y-8172325D01*
X710000Y-8172325D01*
X710000Y-5017000D01*
X36290000Y-5017000D01*
X36290000Y-11677736D01*
X36290000Y-11677736D01*
G37*
X36290000Y-11677736D02*
X36163890Y-11591569D01*
X35912000Y-11540560D01*
X34388000Y-11540560D01*
X34152683Y-11584838D01*
X33936559Y-11723910D01*
X33801475Y-11921612D01*
X33701890Y-11853569D01*
X33450000Y-11802560D01*
X32550000Y-11802560D01*
X32314683Y-11846838D01*
X32098559Y-11985910D01*
X31999367Y-12131083D01*
X31914090Y-11998559D01*
X31701890Y-11853569D01*
X31450000Y-11802560D01*
X30550000Y-11802560D01*
X30314683Y-11846838D01*
X30098559Y-11985910D01*
X29953569Y-12198110D01*
X29902560Y-12450000D01*
X29902560Y-12950000D01*
X29946838Y-13185317D01*
X30085910Y-13401441D01*
X30142343Y-13440000D01*
X28373308Y-13440000D01*
X28082469Y-13497852D01*
X27835907Y-13662599D01*
X26005982Y-15492524D01*
X26127998Y-15198677D01*
X26128530Y-14588016D01*
X25895333Y-14023636D01*
X25463908Y-13591456D01*
X24899935Y-13357274D01*
X24289274Y-13356742D01*
X23724894Y-13589939D01*
X23706027Y-13608773D01*
X23702148Y-13589270D01*
X23537401Y-13342708D01*
X23212462Y-13017769D01*
X23257429Y-12909475D01*
X23257961Y-12298814D01*
X23024764Y-11734434D01*
X22593339Y-11302254D01*
X22029366Y-11068072D01*
X21418705Y-11067540D01*
X20854325Y-11300737D01*
X20422145Y-11732162D01*
X20187963Y-12296135D01*
X20187563Y-12755404D01*
X19632921Y-12200762D01*
X19677888Y-12092468D01*
X19678420Y-11481807D01*
X19445223Y-10917427D01*
X19013798Y-10485247D01*
X18449825Y-10251065D01*
X17839164Y-10250533D01*
X17274784Y-10483730D01*
X16842604Y-10915155D01*
X16608422Y-11479128D01*
X16607890Y-12089789D01*
X16841087Y-12654169D01*
X17272512Y-13086349D01*
X17836485Y-13320531D01*
X18447146Y-13321063D01*
X18557868Y-13275313D01*
X19640000Y-14357445D01*
X19640000Y-14402560D01*
X19350000Y-14402560D01*
X19114683Y-14446838D01*
X18898559Y-14585910D01*
X18753569Y-14798110D01*
X18745331Y-14838791D01*
X18703162Y-14614683D01*
X18564090Y-14398559D01*
X18351890Y-14253569D01*
X18100000Y-14202560D01*
X17200000Y-14202560D01*
X16964683Y-14246838D01*
X16748559Y-14385910D01*
X16677437Y-14490000D01*
X15050000Y-14490000D01*
X14759161Y-14547852D01*
X14512599Y-14712599D01*
X13760011Y-15465187D01*
X13760011Y-14481210D01*
X14148650Y-14092571D01*
X14256944Y-14137538D01*
X14867605Y-14138070D01*
X15431985Y-13904873D01*
X15864165Y-13473448D01*
X16098347Y-12909475D01*
X16098879Y-12298814D01*
X15865682Y-11734434D01*
X15434257Y-11302254D01*
X14870284Y-11068072D01*
X14259623Y-11067540D01*
X13695243Y-11300737D01*
X13263063Y-11732162D01*
X13028881Y-12296135D01*
X13028638Y-12574505D01*
X12750821Y-12459145D01*
X12585522Y-12459001D01*
X12490000Y-12440000D01*
X9897091Y-12440000D01*
X9716821Y-12365145D01*
X9384637Y-12364855D01*
X9077628Y-12491708D01*
X8842534Y-12726393D01*
X8715145Y-13033179D01*
X8714855Y-13365363D01*
X8841708Y-13672372D01*
X9076393Y-13907466D01*
X9383179Y-14034855D01*
X9715363Y-14035145D01*
X9897229Y-13960000D01*
X10453965Y-13960000D01*
X10392494Y-14021364D01*
X10158312Y-14585337D01*
X10157780Y-15195998D01*
X10390977Y-15760378D01*
X10822402Y-16192558D01*
X11386375Y-16426740D01*
X11704749Y-16427017D01*
X11520082Y-16611362D01*
X11388650Y-16927885D01*
X11388351Y-17270611D01*
X11490000Y-17516621D01*
X11490000Y-17544441D01*
X11402068Y-17331629D01*
X10970643Y-16899449D01*
X10406670Y-16665267D01*
X9796009Y-16664735D01*
X9231629Y-16897932D01*
X8947446Y-17181619D01*
X8960000Y-17151310D01*
X8960000Y-16910750D01*
X8801250Y-16752000D01*
X8002000Y-16752000D01*
X8002000Y-16772000D01*
X7748000Y-16772000D01*
X7748000Y-16752000D01*
X6948750Y-16752000D01*
X6790000Y-16910750D01*
X6790000Y-17071690D01*
X6726890Y-17028569D01*
X6635000Y-17009961D01*
X6635000Y-16630105D01*
X6776441Y-16539090D01*
X6863064Y-16412314D01*
X6948750Y-16498000D01*
X7748000Y-16498000D01*
X7748000Y-16478000D01*
X8002000Y-16478000D01*
X8002000Y-16498000D01*
X8801250Y-16498000D01*
X8960000Y-16339250D01*
X8960000Y-16098690D01*
X8863327Y-15865301D01*
X8684698Y-15686673D01*
X8648253Y-15671577D01*
X8776441Y-15589090D01*
X8921431Y-15376890D01*
X8972440Y-15125000D01*
X8972440Y-14325000D01*
X8928162Y-14089683D01*
X8789090Y-13873559D01*
X8635000Y-13768274D01*
X8635000Y-13375000D01*
X8577148Y-13084161D01*
X8572440Y-13077115D01*
X8572440Y-12725000D01*
X8528162Y-12489683D01*
X8389090Y-12273559D01*
X8176890Y-12128569D01*
X7925000Y-12077560D01*
X7425000Y-12077560D01*
X7189683Y-12121838D01*
X6973559Y-12260910D01*
X6925866Y-12330711D01*
X6889090Y-12273559D01*
X6676890Y-12128569D01*
X6425000Y-12077560D01*
X5925000Y-12077560D01*
X5689683Y-12121838D01*
X5473559Y-12260910D01*
X5328569Y-12473110D01*
X5277560Y-12725000D01*
X5277560Y-13625000D01*
X5289063Y-13686135D01*
X4693918Y-14281280D01*
X4653162Y-14064683D01*
X4514090Y-13848559D01*
X4360000Y-13743274D01*
X4360000Y-13450000D01*
X4302148Y-13159161D01*
X4197440Y-13002454D01*
X4197440Y-12700000D01*
X4153162Y-12464683D01*
X4014090Y-12248559D01*
X3801890Y-12103569D01*
X3550000Y-12052560D01*
X3050000Y-12052560D01*
X2814683Y-12096838D01*
X2598559Y-12235910D01*
X2550866Y-12305711D01*
X2514090Y-12248559D01*
X2301890Y-12103569D01*
X2050000Y-12052560D01*
X1550000Y-12052560D01*
X1314683Y-12096838D01*
X1098559Y-12235910D01*
X953569Y-12448110D01*
X902560Y-12700000D01*
X902560Y-13600000D01*
X946838Y-13835317D01*
X1077456Y-14038303D01*
X1097852Y-14140839D01*
X1262599Y-14387401D01*
X1477758Y-14602560D01*
X1150000Y-14602560D01*
X914683Y-14646838D01*
X710000Y-14778548D01*
X710000Y-8172325D01*
X1114587Y-8172325D01*
X1476916Y-9049229D01*
X2147242Y-9720726D01*
X3023513Y-10084585D01*
X3972325Y-10085413D01*
X4849229Y-9723084D01*
X5520726Y-9052758D01*
X5884585Y-8176487D01*
X5885413Y-7227675D01*
X5523084Y-6350771D01*
X5437463Y-6265000D01*
X21020238Y-6265000D01*
X21020238Y-9785000D01*
X26499762Y-9785000D01*
X26499762Y-8172325D01*
X30914587Y-8172325D01*
X31276916Y-9049229D01*
X31947242Y-9720726D01*
X32823513Y-10084585D01*
X33772325Y-10085413D01*
X34649229Y-9723084D01*
X35320726Y-9052758D01*
X35684585Y-8176487D01*
X35685413Y-7227675D01*
X35323084Y-6350771D01*
X34652758Y-5679274D01*
X33776487Y-5315415D01*
X32827675Y-5314587D01*
X31950771Y-5676916D01*
X31279274Y-6347242D01*
X30915415Y-7223513D01*
X30914587Y-8172325D01*
X26499762Y-8172325D01*
X26499762Y-6265000D01*
X21020238Y-6265000D01*
X5437463Y-6265000D01*
X4852758Y-5679274D01*
X3976487Y-5315415D01*
X3027675Y-5314587D01*
X2150771Y-5676916D01*
X1479274Y-6347242D01*
X1115415Y-7223513D01*
X1114587Y-8172325D01*
X710000Y-8172325D01*
X710000Y-5017000D01*
X36290000Y-5017000D01*
X36290000Y-11677736D01*
G36*
X3727000Y-16473000D02*
X3747000Y-16473000D01*
X3747000Y-16727000D01*
X3727000Y-16727000D01*
X3727000Y-16747000D01*
X3473000Y-16747000D01*
X3473000Y-16727000D01*
X3453000Y-16727000D01*
X3453000Y-16473000D01*
X3473000Y-16473000D01*
X3473000Y-16453000D01*
X3727000Y-16453000D01*
X3727000Y-16473000D01*
X3727000Y-16473000D01*
G37*
X3727000Y-16473000D02*
X3747000Y-16473000D01*
X3747000Y-16727000D01*
X3727000Y-16727000D01*
X3727000Y-16747000D01*
X3473000Y-16747000D01*
X3473000Y-16727000D01*
X3453000Y-16727000D01*
X3453000Y-16473000D01*
X3473000Y-16473000D01*
X3473000Y-16453000D01*
X3727000Y-16453000D01*
X3727000Y-16473000D01*
G36*
X9711673Y-790301D02*
X9615000Y-1023690D01*
X9615000Y-1714250D01*
X9773750Y-1873000D01*
X10973000Y-1873000D01*
X10973000Y-1853000D01*
X11227000Y-1853000D01*
X11227000Y-1873000D01*
X12426250Y-1873000D01*
X12585000Y-1714250D01*
X12585000Y-1023690D01*
X12488327Y-790301D01*
X12408026Y-710000D01*
X34241974Y-710000D01*
X34161673Y-790301D01*
X34065000Y-1023690D01*
X34065000Y-1714250D01*
X34223750Y-1873000D01*
X35423000Y-1873000D01*
X35423000Y-1853000D01*
X35677000Y-1853000D01*
X35677000Y-1873000D01*
X35697000Y-1873000D01*
X35697000Y-2127000D01*
X35677000Y-2127000D01*
X35677000Y-3326250D01*
X35835750Y-3485000D01*
X36290000Y-3485000D01*
X36290000Y-3501583D01*
X12159438Y-3450567D01*
X12309698Y-3388327D01*
X12488327Y-3209699D01*
X12585000Y-2976310D01*
X12585000Y-2285750D01*
X34065000Y-2285750D01*
X34065000Y-2976310D01*
X34161673Y-3209699D01*
X34340302Y-3388327D01*
X34573691Y-3485000D01*
X35264250Y-3485000D01*
X35423000Y-3326250D01*
X35423000Y-2127000D01*
X34223750Y-2127000D01*
X34065000Y-2285750D01*
X12585000Y-2285750D01*
X12426250Y-2127000D01*
X11227000Y-2127000D01*
X11227000Y-2147000D01*
X10973000Y-2147000D01*
X10973000Y-2127000D01*
X9773750Y-2127000D01*
X9615000Y-2285750D01*
X9615000Y-2976310D01*
X9711673Y-3209699D01*
X9890302Y-3388327D01*
X10029692Y-3446064D01*
X8704668Y-3443263D01*
X8653895Y-710000D01*
X9791974Y-710000D01*
X9711673Y-790301D01*
X9711673Y-790301D01*
G37*
X9711673Y-790301D02*
X9615000Y-1023690D01*
X9615000Y-1714250D01*
X9773750Y-1873000D01*
X10973000Y-1873000D01*
X10973000Y-1853000D01*
X11227000Y-1853000D01*
X11227000Y-1873000D01*
X12426250Y-1873000D01*
X12585000Y-1714250D01*
X12585000Y-1023690D01*
X12488327Y-790301D01*
X12408026Y-710000D01*
X34241974Y-710000D01*
X34161673Y-790301D01*
X34065000Y-1023690D01*
X34065000Y-1714250D01*
X34223750Y-1873000D01*
X35423000Y-1873000D01*
X35423000Y-1853000D01*
X35677000Y-1853000D01*
X35677000Y-1873000D01*
X35697000Y-1873000D01*
X35697000Y-2127000D01*
X35677000Y-2127000D01*
X35677000Y-3326250D01*
X35835750Y-3485000D01*
X36290000Y-3485000D01*
X36290000Y-3501583D01*
X12159438Y-3450567D01*
X12309698Y-3388327D01*
X12488327Y-3209699D01*
X12585000Y-2976310D01*
X12585000Y-2285750D01*
X34065000Y-2285750D01*
X34065000Y-2976310D01*
X34161673Y-3209699D01*
X34340302Y-3388327D01*
X34573691Y-3485000D01*
X35264250Y-3485000D01*
X35423000Y-3326250D01*
X35423000Y-2127000D01*
X34223750Y-2127000D01*
X34065000Y-2285750D01*
X12585000Y-2285750D01*
X12426250Y-2127000D01*
X11227000Y-2127000D01*
X11227000Y-2147000D01*
X10973000Y-2147000D01*
X10973000Y-2127000D01*
X9773750Y-2127000D01*
X9615000Y-2285750D01*
X9615000Y-2976310D01*
X9711673Y-3209699D01*
X9890302Y-3388327D01*
X10029692Y-3446064D01*
X8704668Y-3443263D01*
X8653895Y-710000D01*
X9791974Y-710000D01*
X9711673Y-790301D01*
M02*
