M48
;DRILL file {KiCad 4.0.7} date 11/22/17 17:52:19
;FORMAT={-:-/ absolute / metric / decimal}
FMAT,2
METRIC,TZ
T1C0.300
T2C0.600
T3C0.762
T4C0.800
T5C1.000
T6C3.150
%
G90
G05
M71
T1
X1.65Y-28.72
X2.527Y-18.177
X2.55Y-26.153
X2.623Y-21.253
X3.09Y-24.38
X4.05Y-17.85
X4.2Y-15.575
X4.287Y-26.36
X4.85Y-20.65
X4.9Y-18.5
X6.15Y-32.65
X6.16Y-29.3
X6.925Y-16.7
X8.45Y-19.35
X8.8Y-21.3
X8.95Y-24.45
X9.Y-23.1
X9.05Y-26.95
X9.1Y-25.7
X9.55Y-13.2
X10.4Y-16.7
X12.125Y-37.705
X12.186Y-18.429
X12.25Y-17.1
X12.584Y-13.294
X12.65Y-30.5
X12.941Y-36.731
X13.525Y-21.25
X13.6Y-2.
X13.61Y-36.66
X13.85Y-38.65
X13.9Y-44.3
X14.056Y-19.37
X14.075Y-22.05
X14.132Y-23.801
X14.25Y-1.25
X14.275Y-52.627
X14.602Y-20.65
X14.673Y-24.117
X14.87Y-2.
X16.525Y-46.975
X16.575Y-16.2
X16.99Y-43.23
X16.997Y-32.425
X17.Y-19.898
X17.35Y-54.9
X17.55Y-36.95
X18.14Y-47.23
X18.625Y-18.575
X18.68Y-1.975
X18.75Y-20.8
X18.8Y-54.325
X19.14Y-47.12
X19.15Y-16.45
X19.3Y-19.843
X20.223Y-30.625
X20.4Y-17.3
X21.405Y-20.955
X21.481Y-47.72
X21.9Y-43.2
X21.911Y-52.259
X22.15Y-19.05
X22.225Y-32.275
X22.35Y-14.2
X22.625Y-17.35
X22.75Y-27.029
X22.777Y-30.202
X22.8Y-54.85
X22.998Y-47.72
X23.405Y-32.25
X23.7Y-37.92
X23.9Y-28.55
X24.Y-47.6
X24.026Y-55.245
X24.1Y-52.05
X24.225Y-43.27
X24.85Y-38.45
X25.3Y-47.6
X25.45Y-52.475
X25.85Y-27.15
X25.916Y-52.978
X26.566Y-54.5
X27.15Y-32.3
X27.18Y-47.28
X28.1Y-33.75
X28.5Y-37.6
X28.84Y-1.975
X29.Y-39.35
X29.05Y-43.5
X29.4Y-1.6
X29.92Y-44.05
X30.377Y-23.496
X30.91Y-37.59
X32.15Y-1.4
X32.35Y-33.4
X32.65Y-1.975
X33.715Y-46.43
X33.914Y-36.232
X34.04Y-41.86
X34.24Y-47.05
T2
X20.4Y-35.5
X20.4Y-41.15
T3
X35.15Y-12.95
X35.15Y-17.95
X35.2Y-21.3
X35.2Y-26.3
T4
X1.625Y-30.875
X1.65Y-19.5
X7.05Y-19.35
X10.1Y-18.2
X10.1Y-21.872
X10.375Y-47.75
X11.693Y-14.892
X11.693Y-25.18
X12.335Y-34.52
X14.564Y-12.603
X14.564Y-27.469
X18.143Y-11.786
X18.143Y-28.286
X21.723Y-12.603
X24.593Y-14.892
X24.593Y-25.18
X26.186Y-18.2
X26.186Y-21.872
X27.85Y-19.45
T5
X11.1Y-2.
X11.1Y-33.
X11.1Y-35.54
X11.1Y-38.08
X11.1Y-40.62
X11.1Y-43.16
X11.1Y-45.7
X35.5Y-33.
X35.5Y-35.54
X35.5Y-38.08
X35.5Y-40.62
X35.5Y-43.16
X35.5Y-45.7
X35.55Y-2.
T6
X3.5Y-7.7
X4.7Y-51.9
X33.03Y-51.9
X33.3Y-7.7
T0
M30
